<svg width="400" height="400" viewBox="0 0 400 400" fill="none" xmlns="http://www.w3.org/2000/svg">
<path d="M309.198 288.014C309.11 288.08 309.014 288.154 308.925 288.213C307.922 288.847 306.817 289.326 305.689 289.606C304.561 289.894 303.418 289.997 302.312 289.975C301.951 289.968 301.59 289.946 301.236 289.916C301.538 290.919 301.818 291.936 302.04 292.968C302.63 295.652 302.932 298.379 302.998 301.107C303.042 303.827 302.865 306.548 302.452 309.231C302.246 310.573 301.988 311.907 301.663 313.227C301.508 313.891 301.324 314.554 301.132 315.21C300.926 315.888 300.741 316.493 300.454 317.26L300.447 317.275C299.953 318.587 298.493 319.243 297.188 318.749C297.085 318.712 296.967 318.653 296.878 318.609C296.03 318.152 295.204 317.658 294.467 317.061C293.708 316.486 293.015 315.845 292.388 315.152C292.277 315.034 292.182 314.909 292.071 314.791C291.739 315.285 291.385 315.757 291.031 316.214C289.689 317.902 288.237 319.377 286.74 320.77C283.732 323.572 280.429 326.034 276.935 328.142C275.188 329.204 273.389 330.169 271.553 331.054C269.71 331.946 267.845 332.691 265.987 333.465C262.249 334.939 258.408 336.178 254.523 337.195C246.738 339.23 238.724 340.306 230.717 340.52C222.703 340.741 214.689 340.137 206.816 338.869C191.046 336.303 175.844 331.209 161.431 324.633C154.213 321.338 147.195 317.651 140.361 313.641C136.948 311.628 133.586 309.542 130.276 307.352C126.958 305.155 123.737 302.936 120.5 300.444C119.379 299.581 119.173 297.967 120.036 296.846C120.397 296.382 120.884 296.072 121.415 295.932L121.437 295.925C123.295 295.438 125.19 295.121 127.099 294.989C127.143 294.982 127.195 294.982 127.239 294.982C123.899 290.227 121.061 285.096 118.82 279.743C117.36 276.226 116.129 272.621 115.097 268.994C115.06 268.869 115.023 268.736 114.986 268.611C113.991 265.116 113.15 261.615 112.31 258.164C111.433 254.596 110.548 251.086 109.324 247.82C108.705 246.198 108.004 244.642 107.164 243.197C106.965 242.821 106.729 242.482 106.508 242.135C106.405 241.973 106.272 241.752 106.184 241.641C106.103 241.523 106.014 241.412 105.919 241.309C105.543 240.881 105.086 240.542 104.526 240.269C103.398 239.716 101.879 239.48 100.287 239.502C98.6797 239.517 96.9987 239.76 95.3177 240.114C93.6367 240.483 91.9487 240.969 90.2827 241.544C88.6317 242.112 86.9287 242.783 85.4167 243.483C84.2147 244.183 82.6817 243.785 81.9807 242.584C81.5387 241.839 81.5307 240.962 81.8777 240.24L81.9887 240.011C82.4827 238.986 82.9547 237.954 83.4707 236.937C84.0087 235.934 84.4957 234.902 85.0857 233.922C85.6607 232.934 86.2357 231.939 86.8627 230.98C87.4677 230.007 88.1157 229.056 88.7797 228.12C89.4287 227.169 90.1727 226.277 90.8657 225.355C91.6177 224.47 92.3177 223.556 93.1217 222.708C94.6477 220.961 96.3437 219.346 98.1057 217.82C100.849 215.483 103.834 213.374 107.019 211.649C107.963 211.133 108.921 210.661 109.894 210.219C114.163 208.236 118.704 206.916 123.297 206.135C125.155 205.847 127.005 205.656 128.863 205.538C124.823 200.163 121.365 193.248 121.675 190.439C121.682 190.38 121.69 190.321 121.704 190.269C121.999 188.256 123.709 186.944 125.442 186.111C124.388 184.238 123.407 181.761 123.739 179.409C124.137 176.585 125.862 175.649 126.828 175.148C126.85 175.141 126.872 175.126 126.887 175.119C127.587 174.758 127.845 174.625 128.162 173.291C129.224 168.831 134.392 151.867 135.085 149.589C135.623 144.893 142.163 89.659 155.676 65.042C157.313 62.064 160.181 60.066 163.542 59.557C166.889 59.056 170.192 60.117 172.617 62.469C181.213 70.807 187.885 83.967 192.464 101.565C193.039 101.904 193.614 102.229 194.219 102.538C195.856 103.319 197.566 104.005 199.335 104.588C201.075 105.134 202.852 105.598 204.651 105.974C204.585 105.65 204.54 105.318 204.518 104.994C204.422 103.689 204.584 102.473 204.857 101.33C204.99 100.755 205.167 100.209 205.366 99.671C205.462 99.398 205.58 99.133 205.683 98.867C205.808 98.587 205.912 98.366 206.096 98.012C206.76 96.759 208.3 96.287 209.546 96.95C209.826 97.09 210.062 97.282 210.254 97.503L210.401 97.665C210.932 98.262 211.448 98.845 212.097 99.206C212.392 99.435 212.753 99.545 213.085 99.722C213.461 99.825 213.807 99.98 214.228 100.039C215.017 100.216 215.909 100.275 216.875 100.26C217.826 100.26 218.843 100.179 219.949 100.113C221.047 100.054 222.205 99.966 223.561 100.091C224.932 100.209 226.458 100.681 227.682 101.448C228.67 102.045 229.496 102.797 230.196 103.615C242.884 82.884 253.869 74.133 261.286 70.476C264.36 68.957 267.884 68.979 270.936 70.535C274.01 72.098 276.104 74.951 276.694 78.35C280.594 100.946 277.579 142.284 276.451 157.847C276.296 159.926 276.186 161.437 276.141 162.256C275.861 167.601 276.421 175.652 276.834 181.528C276.981 183.607 277.107 185.406 277.173 186.726C277.284 189.034 278.485 191.275 279.481 192.749C279.636 192.978 279.776 193.213 279.894 193.457C281 195.661 280.734 198.301 279.142 200.247C278.7 200.785 278.25 201.301 277.8 201.788C279.732 202.51 280.815 203.262 281 203.395C282.106 204.191 282.401 205.71 281.671 206.867C276.879 214.468 270.244 221 262.024 226.315C263.742 227.708 265.253 229.257 266.669 230.849C267.812 232.132 268.866 233.466 269.883 234.823L272.795 238.745C275.198 241.967 277.624 245.174 280.072 248.351C281.583 250.327 283.109 252.288 284.65 254.242C288.668 259.366 292.774 264.342 296.977 269.355L309.518 284.387L309.525 284.394C310.429 285.485 310.282 287.107 309.198 288.014Z" fill="#66142E"/>
<path d="M219.297 241.007C218.766 241.405 218.25 241.818 217.749 242.26C217.38 242.592 217.019 242.931 216.665 243.292C215.987 243.978 215.345 244.722 214.756 245.518C214.299 246.108 213.893 246.742 213.525 247.405C213.061 246.572 212.589 245.746 212.102 244.935C211.719 244.301 211.335 243.682 210.945 243.07C210.687 242.672 210.429 242.274 210.171 241.876C210.392 241.861 210.628 241.847 210.864 241.832C212.604 241.721 214.698 241.552 217.079 241.279C217.793 241.199 218.531 241.11 219.297 241.007Z" fill="url(#paint0_linear_550_12208)"/>
<path d="M303.129 284.785C302.893 284.807 302.657 284.822 302.414 284.814C301.706 284.807 300.976 284.711 300.247 284.541C299.886 284.46 299.525 284.357 299.171 284.246C298.994 284.187 298.817 284.128 298.648 284.062C298.493 284.003 298.279 283.915 298.22 283.885L298.205 283.878C297.549 283.576 296.767 283.546 296.06 283.871C294.755 284.453 294.173 285.979 294.755 287.284C295.264 288.419 295.713 289.584 296.104 290.771C296.458 291.855 296.76 292.953 297.003 294.066C297.512 296.403 297.777 298.806 297.836 301.217C297.873 303.628 297.725 306.053 297.349 308.449C297.165 309.643 296.936 310.838 296.649 312.01C296.642 312.039 296.627 312.069 296.62 312.098C296.473 311.958 296.325 311.81 296.185 311.656C295.735 311.177 295.322 310.653 294.954 310.1C294.77 309.82 294.6 309.54 294.438 309.252L294.217 308.832C294.151 308.707 294.07 308.522 294.055 308.485L294.003 308.374C293.642 307.622 292.934 307.062 292.042 306.922C290.627 306.716 289.307 307.689 289.093 309.104C289.027 309.583 288.783 310.254 288.4 310.932C288.017 311.618 287.53 312.318 286.984 313.011C285.886 314.39 284.588 315.724 283.224 316.992C280.496 319.536 277.473 321.784 274.266 323.723C272.666 324.696 271.007 325.588 269.312 326.399C267.631 327.217 265.854 327.932 264.092 328.662C260.546 330.063 256.911 331.228 253.225 332.193C238.443 336.093 222.799 336.211 207.634 333.771C192.439 331.301 177.65 326.354 163.576 319.933C156.535 316.719 149.664 313.114 142.977 309.191C139.637 307.223 136.349 305.173 133.12 303.042C131.653 302.076 130.186 301.081 128.741 300.071C129.11 300.064 129.478 300.064 129.847 300.071C130.245 300.078 130.636 300.1 131.019 300.13C131.38 300.152 131.83 300.204 132.073 300.241L132.132 300.256C132.825 300.367 133.562 300.19 134.152 299.71C135.258 298.811 135.427 297.189 134.535 296.083C130.023 290.517 126.344 284.346 123.58 277.748C122.953 276.244 122.378 274.718 121.84 273.177C121.184 271.334 120.594 269.461 120.048 267.567C119.045 264.087 118.198 260.534 117.32 256.936C116.428 253.331 115.521 249.659 114.15 245.995C113.457 244.167 112.639 242.353 111.621 240.598C111.385 240.156 111.098 239.728 110.825 239.3C110.67 239.079 110.574 238.902 110.383 238.636C110.199 238.378 110 238.127 109.786 237.891C108.938 236.925 107.884 236.151 106.785 235.62C104.566 234.558 102.317 234.33 100.231 234.337C98.1371 234.359 96.1541 234.661 94.2221 235.067C92.8951 235.354 91.6051 235.708 90.3291 236.099C90.3291 236.099 90.3361 236.092 90.3441 236.084C90.3741 236.047 90.3961 236.003 90.4181 235.966C90.5061 235.833 90.5951 235.708 90.6761 235.583C90.7501 235.472 90.8381 235.34 90.9411 235.2C94.1411 230.467 97.8191 226.147 102.125 222.571C104.816 220.315 107.743 218.383 110.847 216.813C114.99 214.69 119.443 213.193 124.073 212.375C124.162 212.353 124.257 212.338 124.346 212.323C132.529 210.834 141.103 211.394 149.456 213.082C153.636 213.937 157.765 215.124 161.82 216.547C163.855 217.247 165.919 217.881 168.042 218.434C170.173 218.98 172.34 219.459 174.707 219.739C173.247 217.83 171.448 216.377 169.576 215.072C168.492 214.349 168.5 214.298 167.342 213.701C167.202 213.517 166.863 213.111 166.538 212.691C166.206 212.271 165.897 211.843 165.793 211.615C165.638 211.254 165.505 210.87 165.402 210.472C169.501 212.271 173.467 214.357 177.279 216.709C180.257 218.589 183.14 220.624 185.897 222.821C187.703 224.251 189.451 225.755 191.139 227.326C195.422 231.285 199.33 235.649 202.802 240.338C203.613 241.422 204.394 242.528 205.146 243.648C206.031 244.938 206.871 246.25 207.675 247.585C208.42 248.831 209.135 250.099 209.813 251.374C210.152 252.015 210.476 252.657 210.786 253.298C210.956 253.644 211.132 254.013 211.287 254.367C211.412 254.64 211.53 254.905 211.648 255.178C211.95 255.893 212.57 256.461 213.351 256.682C213.462 256.711 213.58 256.734 213.697 256.748C215.113 256.932 216.417 255.93 216.602 254.514L216.617 254.403C216.75 253.378 216.905 252.353 217.325 251.38C217.723 250.407 218.224 249.456 218.895 248.578C219.448 247.841 220.097 247.14 220.79 246.484C221.21 248.88 221.653 251.269 222.198 253.65C222.544 255.279 222.884 256.909 223.289 258.531C223.348 258.782 223.414 259.032 223.481 259.283L224.203 262.085C224.432 263.021 224.69 263.95 224.977 264.872L225.043 265.101L225.81 267.652C226.09 268.574 226.341 269.51 226.68 270.417L227.646 273.167C227.97 274.081 228.28 274.995 228.663 275.895C229.408 277.694 230.064 279.515 230.934 281.277L232.18 283.924L233.573 286.512L234.281 287.81C234.524 288.23 234.797 288.643 235.055 289.063C235.578 289.896 236.08 290.744 236.633 291.562L238.38 293.973C238.962 294.769 239.655 295.506 240.282 296.266C242.612 298.905 245.317 301.309 248.429 303.122C248.834 303.365 249.255 303.594 249.675 303.808C253.287 305.629 257.446 306.492 261.427 306.005C261.464 305.998 261.493 305.998 261.53 305.99C262.031 305.953 262.525 305.843 263.019 305.754C263.513 305.68 264 305.562 264.479 305.422C264.958 305.297 265.43 305.157 265.895 304.98C266.367 304.818 266.824 304.648 267.281 304.449C269.058 303.66 270.761 302.694 272.184 301.397C268.689 302.923 264.981 303.66 261.406 303.609C260.956 303.58 260.514 303.58 260.064 303.543L258.737 303.388C258.302 303.329 257.867 303.218 257.432 303.137C257.218 303.093 257.004 303.056 256.791 302.997L256.157 302.805C254.439 302.385 252.854 301.589 251.306 300.763C248.254 298.986 245.622 296.494 243.373 293.671C242.835 292.941 242.245 292.263 241.751 291.496L240.24 289.218C239.761 288.437 239.318 287.633 238.861 286.837C238.64 286.439 238.397 286.048 238.183 285.643L237.578 284.404L236.362 281.92L235.278 279.362C234.504 277.688 233.921 275.912 233.258 274.179C232.919 273.316 232.639 272.424 232.359 271.532L231.504 268.871C230.958 267.19 230.516 265.465 230.03 263.762C230.001 263.674 229.978 263.578 229.949 263.489C229.684 262.59 229.455 261.683 229.241 260.769L228.577 258.041C228.54 257.894 228.503 257.753 228.466 257.606C228.038 255.932 227.685 254.237 227.323 252.548C226.49 248.891 225.9 245.168 225.156 241.475L225.134 241.342C225.082 241.091 224.994 240.848 224.861 240.612C224.78 240.465 224.684 240.325 224.573 240.199C227.198 239.742 229.999 239.167 232.919 238.452C233.56 238.297 234.217 238.128 234.873 237.958C243.137 235.783 250.613 232.834 257.234 229.177C258.635 230.128 259.977 231.3 261.245 232.59L261.4 232.745C261.879 233.232 262.344 233.74 262.801 234.256C263.826 235.413 264.799 236.637 265.735 237.891L268.655 241.828C270.542 244.349 272.437 246.863 274.346 249.37C274.869 250.056 275.4 250.741 275.931 251.427C276.491 252.157 277.052 252.887 277.619 253.617C278.607 254.892 279.595 256.16 280.59 257.429C284.623 262.575 288.825 267.669 293.005 272.653L303.129 284.785Z" fill="url(#paint1_linear_550_12208)"/>
<path d="M272.298 205.715C271.281 205.575 270.44 204.852 270.16 203.865C269.872 202.884 270.204 201.823 270.993 201.167C271.015 201.152 273.293 199.25 275.144 196.987C275.461 196.596 275.483 196.051 275.196 195.63C274.687 194.871 274.127 193.942 273.626 192.902C272.8 191.184 272.122 189.149 272.019 186.967C271.953 185.706 271.835 183.937 271.687 181.887C271.267 175.871 270.692 167.643 270.987 161.981C271.031 161.148 271.149 159.592 271.304 157.469C271.385 156.319 271.488 154.97 271.592 153.458C272.779 136.686 275.087 99.3809 271.607 79.2319C271.563 78.9739 271.504 78.7229 271.423 78.4799C270.973 77.0279 269.971 75.8329 268.599 75.1329C267.007 74.3219 265.171 74.3149 263.564 75.1029C259.546 77.0789 254.356 80.7429 248.31 87.4589C244.049 92.1849 239.367 98.4369 234.361 106.679C232.26 110.129 230.107 113.941 227.903 118.136C225.824 117.045 224.799 114.612 225.544 112.386C226.008 110.993 226.643 109.666 227.313 108.493V108.486C227.099 108.095 226.878 107.712 226.605 107.373C226.126 106.732 225.58 106.193 224.998 105.847C224.393 105.493 223.826 105.309 223.066 105.228C222.285 105.147 221.289 105.206 220.257 105.265C219.217 105.324 218.097 105.412 216.91 105.42C215.73 105.435 214.47 105.368 213.165 105.088C212.524 104.977 211.867 104.741 211.219 104.528C210.71 104.292 210.179 104.078 209.693 103.791C209.678 103.784 209.671 103.776 209.671 103.776C209.649 104.064 209.641 104.344 209.656 104.594C209.715 105.206 209.885 105.685 210.143 106.098C210.364 106.526 210.851 106.835 211.345 107.189L211.596 107.359C212.746 108.177 213.019 109.777 212.201 110.935C211.655 111.709 210.756 112.085 209.879 112.004C208.758 111.901 207.785 111.775 206.753 111.613C205.743 111.451 204.733 111.267 203.73 111.06C201.717 110.64 199.727 110.124 197.751 109.497C195.783 108.856 193.836 108.082 191.927 107.16C191.522 106.954 191.116 106.732 190.718 106.511C190.755 107.167 190.799 107.816 190.888 108.465C191.131 110.596 191.581 112.689 192.451 114.481C192.871 115.388 193.417 116.199 194.066 116.921C194.715 117.636 195.474 118.292 196.381 118.794C198.158 119.878 200.443 120.394 202.891 120.799C202.906 120.806 202.913 120.806 202.913 120.806C201.778 121.307 200.561 121.698 199.271 121.838C198.954 121.867 198.63 121.919 198.298 121.934L197.31 121.919C196.978 121.926 196.647 121.86 196.307 121.823C195.968 121.779 195.629 121.727 195.297 121.631C193.955 121.329 192.636 120.709 191.5 119.839C190.357 118.984 189.392 117.907 188.595 116.757C188.057 115.968 187.615 115.15 187.239 114.309C186.974 113.719 186.745 113.115 186.546 112.51C186.546 112.51 186.546 112.51 186.539 112.503C186.178 111.427 185.912 110.321 185.713 109.23C185.676 109.016 185.647 108.802 185.617 108.589C185.455 107.505 185.352 106.429 185.329 105.345C185.307 104.696 185.314 104.055 185.344 103.406C185.373 102.743 185.425 102.145 185.536 101.393C185.624 100.648 186.023 100.014 186.583 99.6019C182.307 84.5769 176.409 73.3339 169.022 66.1679C167.769 64.9519 166.051 64.3989 164.311 64.6639C162.556 64.9219 161.06 65.9689 160.205 67.5249C160.205 67.5249 160.198 67.5319 160.19 67.5539C150.864 84.5699 144.826 118.092 142.01 136.862C140.816 144.898 140.204 150.228 140.189 150.398C140.174 150.56 140.145 150.715 140.093 150.87C140.056 150.981 137.867 158.154 135.928 164.715C134.712 168.844 133.598 172.736 133.185 174.483C132.824 176.002 132.293 177.056 131.681 177.823C130.929 178.767 130.059 179.29 129.241 179.71C129.13 179.769 128.983 179.843 128.895 179.894C128.88 179.946 128.866 180.019 128.851 180.13C128.637 181.641 130.281 184.413 131.461 185.807C132.198 186.67 132.287 187.93 131.631 188.926C131.248 189.501 130.621 189.87 129.95 190.017C128.77 190.275 127.429 190.806 126.868 191.219C126.897 191.359 126.934 191.514 126.986 191.683C127.812 194.389 131.365 201.149 135.531 205.455C140.677 205.654 145.771 206.436 150.689 207.674C153.903 208.478 157.059 209.436 160.155 210.557C160.052 209.952 159.978 209.341 159.949 208.743C159.927 208.323 159.92 207.903 159.934 207.482C159.941 207.276 159.949 207.062 159.964 206.848C159.986 206.612 159.993 206.435 160.038 206.111C160.237 204.74 161.505 203.744 162.876 203.936C163.09 203.966 163.296 204.01 163.481 204.091L163.518 204.106C169.254 206.332 174.783 209.097 180.017 212.334C180.128 212.408 180.246 212.474 180.356 212.555C185.443 215.777 190.25 219.441 194.659 223.547C198.883 227.44 202.739 231.716 206.212 236.287C206.264 236.353 206.315 236.42 206.367 236.486C206.463 236.604 206.559 236.729 206.647 236.847C207.532 236.832 208.866 236.781 210.562 236.67C212.877 236.515 215.855 236.25 219.298 235.771H219.313C229.59 234.341 243.952 231.06 256.728 223.54C260.584 221.269 264.292 218.615 267.706 215.504C270.625 212.857 273.316 209.872 275.705 206.517C274.804 206.202 273.662 205.9 272.298 205.715ZM178.742 123.542C177.238 124.456 175.52 123.748 174.945 122.37L174.916 122.296C174.702 121.78 174.393 121.109 174.09 120.527C173.78 119.922 173.449 119.318 173.109 118.735C172.416 117.555 171.664 116.42 170.838 115.351C169.695 113.854 168.427 112.483 167.041 111.318C167.034 111.318 167.034 111.318 167.034 111.318C166.592 112.055 166.289 112.822 166.171 113.552C166.038 114.311 166.112 115.034 166.363 115.749C166.437 115.727 166.503 115.697 166.577 115.675C166.997 115.542 167.336 115.439 167.919 115.351L168.066 117.356C168.177 118.742 167.461 120.091 166.216 120.71C166.15 120.747 166.091 120.769 166.061 120.769C166.046 120.769 166.039 120.776 166.024 120.776C166.017 120.783 166.017 120.783 166.017 120.783C165.774 120.842 165.545 120.93 165.295 120.997C164.292 121.351 163.371 121.896 162.656 122.73C161.926 123.556 161.366 124.647 161.049 125.893C160.865 126.512 160.828 127.168 160.703 127.839L160.607 129.889C160.349 129.255 160.106 128.599 159.862 127.921L159.633 126.874C159.567 126.52 159.456 126.166 159.449 125.798C159.427 125.429 159.397 125.053 159.383 124.677C159.354 124.294 159.442 123.918 159.471 123.527L159.545 122.945C159.574 122.746 159.641 122.562 159.692 122.363C159.817 121.987 159.891 121.574 160.075 121.206C160.488 120.196 161.137 119.267 161.918 118.471C161.689 117.977 161.476 117.476 161.321 116.938C160.923 115.574 160.842 114.092 161.078 112.714C161.307 111.335 161.808 110.075 162.442 108.954C162.759 108.394 163.105 107.863 163.489 107.362C163.688 107.111 163.88 106.861 164.094 106.617L164.426 106.256C164.551 106.123 164.632 106.042 164.831 105.858C165.701 105.032 166.998 104.951 167.957 105.578L167.979 105.593C169.763 106.758 171.341 108.129 172.749 109.633C172.602 108.844 172.461 108.063 172.307 107.274C172.012 105.726 171.702 104.185 171.363 102.652C170.67 99.4159 169.896 96.1939 169.063 92.9939C167.817 88.2829 166.372 83.6239 164.581 79.1259C164.352 78.5659 164.131 78.0049 163.881 77.4519L163.542 76.6629C163.476 76.5009 163.395 76.3609 163.291 76.2349C162.9 75.7479 162.178 75.4019 161.396 75.5049C161.013 75.5639 160.622 75.7039 160.29 75.9919C160.209 76.0579 160.128 76.1319 160.054 76.2209L159.789 76.5449C159.612 76.7739 159.45 77.0089 159.28 77.2529C158.624 78.2259 158.027 79.2949 157.533 80.4669C157.378 79.1919 157.518 77.8789 157.88 76.6109C157.968 76.2869 158.086 75.9769 158.204 75.6669C158.27 75.5049 158.322 75.3569 158.403 75.1879C158.492 75.0109 158.595 74.8409 158.713 74.6719C159.163 74.0009 159.841 73.4329 160.637 73.1159C162.207 72.4519 164.249 72.7919 165.54 74.1329C165.864 74.4569 166.13 74.8259 166.351 75.2239C166.535 75.5699 166.646 75.8059 166.793 76.1009C167.081 76.6689 167.339 77.2359 167.611 77.8109C169.719 82.3819 171.459 87.0849 172.993 91.8409C174.526 96.6039 175.787 101.433 176.937 106.284C177.18 107.316 177.416 108.356 177.637 109.395C178.477 113.221 179.207 117.077 179.863 120.933V120.94C180.047 121.95 179.626 123.012 178.742 123.542ZM269.474 92.1799C269.253 90.9269 268.914 89.7469 268.501 88.6489C268.39 88.3759 268.28 88.1109 268.162 87.8449L267.978 87.4689C267.919 87.3729 267.86 87.2769 267.794 87.1889C267.536 86.8429 267.189 86.6139 266.836 86.4739C266.091 86.2009 265.31 86.3709 264.816 86.7539C264.691 86.8569 264.58 86.9749 264.484 87.1079L263.968 87.8079C263.607 88.2869 263.26 88.7879 262.914 89.2749C260.149 93.2559 257.687 97.4659 255.409 101.779C253.138 106.092 251 110.486 249.025 114.954C248.701 115.684 248.384 116.414 248.059 117.151C249.769 116.008 251.62 115.02 253.625 114.291L253.64 114.284C254.768 113.871 255.992 114.306 256.633 115.257C256.78 115.486 256.839 115.589 256.935 115.744L257.171 116.172C257.326 116.46 257.459 116.74 257.591 117.027C257.849 117.609 258.07 118.199 258.255 118.818C258.616 120.057 258.823 121.391 258.727 122.792C258.69 123.419 258.587 124.06 258.417 124.679C258.218 125.431 257.923 126.168 257.54 126.846C257.267 127.333 256.95 127.782 256.611 128.203C257.193 129.161 257.614 130.216 257.791 131.292C257.887 131.69 257.865 132.11 257.902 132.508C257.902 132.707 257.931 132.906 257.917 133.105L257.851 133.687C257.792 134.07 257.792 134.461 257.681 134.83C257.585 135.191 257.467 135.553 257.364 135.906C257.276 136.26 257.084 136.584 256.944 136.916L256.48 137.882C256.097 138.464 255.728 139.039 255.33 139.585C255.33 139.592 255.323 139.607 255.315 139.614C255.308 139.621 255.308 139.629 255.308 139.629L255.684 137.609C255.706 136.931 255.824 136.282 255.78 135.641C255.758 134.351 255.456 133.164 254.94 132.198C254.424 131.218 253.65 130.48 252.75 129.913C252.514 129.78 252.293 129.633 252.057 129.515C252.013 129.5 251.932 129.419 251.821 129.294C250.863 128.225 250.568 126.714 250.995 125.342L251.474 123.816C252.02 124.03 252.322 124.207 252.713 124.435C252.772 124.472 252.831 124.516 252.897 124.553C253.302 123.919 253.538 123.226 253.583 122.459C253.635 121.722 253.509 120.903 253.251 120.085C253.244 120.085 253.244 120.085 253.244 120.085C251.629 120.911 250.081 121.958 248.629 123.152C247.589 124.007 246.594 124.951 245.658 125.939C245.186 126.433 244.729 126.942 244.294 127.458C243.866 127.967 243.409 128.542 243.085 128.991L243.07 129.02C242.532 129.765 241.647 130.192 240.762 130.133C240.526 130.118 240.298 130.067 240.069 129.986C238.602 129.426 238.027 127.841 238.572 126.558V126.551C240.496 121.958 242.531 117.417 244.735 112.941C244.927 112.55 245.118 112.167 245.317 111.776C247.359 107.706 249.497 103.681 251.842 99.7659C254.408 95.4749 257.172 91.2879 260.254 87.3139C260.652 86.8199 261.035 86.3189 261.441 85.8319C261.655 85.5809 261.81 85.3749 262.075 85.0729C262.37 84.7409 262.724 84.4389 263.107 84.2029C263.66 83.8419 264.279 83.6209 264.913 83.5389C266.048 83.3839 267.221 83.6719 268.113 84.3129C268.813 84.7999 269.344 85.5069 269.639 86.2669C269.713 86.4589 269.772 86.6499 269.816 86.8419C269.86 87.0259 269.875 87.1809 269.904 87.3429C269.948 87.6819 269.992 88.0059 270.007 88.3379C270.071 89.6589 269.916 90.9709 269.474 92.1799Z" fill="url(#paint2_linear_550_12208)"/>
<path d="M273.426 112.27C273.404 114.401 273.367 116.539 273.323 118.662C273.308 119.267 273.294 119.871 273.279 120.476C273.264 121.081 273.25 121.685 273.227 122.282C273.124 125.887 272.984 129.433 272.822 132.825C272.8 133.393 272.77 133.953 272.741 134.506C272.719 135.052 272.69 135.59 272.661 136.121C272.631 136.681 272.601 137.242 272.572 137.787C272.528 138.716 272.476 139.63 272.425 140.522C272.396 141.001 272.366 141.48 272.344 141.945C272.314 142.373 272.292 142.793 272.263 143.213V143.257C272.219 143.987 272.175 144.695 272.13 145.395C272.115 145.631 272.102 145.867 272.087 146.103C272.058 146.567 272.027 147.025 271.998 147.482C271.93 148.539 271.863 149.554 271.797 150.522C271.756 151.127 270.899 151.193 270.752 150.604C270.555 149.814 270.388 149.044 270.249 148.347C270.141 147.803 269.383 147.775 269.223 148.306C268.982 149.106 268.694 149.883 268.448 150.5C268.265 150.961 267.597 150.936 267.45 150.462C267.164 149.537 266.95 148.68 266.794 147.946C270.945 123.978 269.478 92.1809 269.478 92.1809C269.92 90.9719 270.076 89.6599 270.01 88.3399C269.995 88.0079 269.951 87.6839 269.907 87.3449C269.877 87.1829 269.862 87.0279 269.818 86.8439C269.774 86.6519 269.715 86.4609 269.641 86.2689C269.346 85.5099 268.815 84.8019 268.115 84.3149C266.729 83.3119 264.666 83.1799 263.11 84.2039C262.727 84.4399 262.372 84.7419 262.077 85.0739C261.812 85.3759 261.657 85.5829 261.443 85.8329C261.038 86.3199 260.654 86.8209 260.256 87.3149C257.174 91.2889 254.41 95.4759 251.844 99.7669C249.5 103.682 247.362 107.7 245.327 111.769L245.32 111.776C243.69 113.524 242.019 115.232 240.851 116.41C240.267 116.999 239.265 116.529 239.346 115.704C239.486 114.276 239.782 112.67 240.097 111.224C240.286 110.357 239.218 109.777 238.605 110.419C237.542 111.531 236.372 112.577 235.48 113.337C234.9 113.831 234.014 113.402 234.032 112.64C234.079 110.627 234.22 108.464 234.365 106.682C234.372 106.667 234.387 106.653 234.394 106.638C234.696 106.137 234.999 105.643 235.301 105.164C236.444 103.321 237.572 101.581 238.678 99.9439C238.877 99.6419 239.076 99.3469 239.283 99.0589C240.367 97.4739 241.436 95.9849 242.49 94.5839C242.777 94.2009 243.065 93.8169 243.353 93.4489C243.626 93.0879 243.899 92.7409 244.171 92.3949C245.188 91.0969 246.191 89.8879 247.172 88.7599C247.364 88.5309 247.555 88.3179 247.747 88.1039C247.939 87.8829 248.123 87.6689 248.315 87.4629C254.36 80.7469 259.551 77.0829 263.569 75.1069C265.176 74.3179 267.012 74.3259 268.604 75.1369C268.774 75.2249 268.936 75.3209 269.091 75.4169C269.216 75.4979 269.334 75.5789 269.445 75.6679C269.533 75.7339 269.622 75.8009 269.703 75.8739C269.791 75.9399 269.873 76.0139 269.946 76.0879C270.005 76.1469 270.064 76.1989 270.116 76.2579C270.204 76.3459 270.287 76.4349 270.36 76.5309C270.485 76.6779 270.595 76.8259 270.698 76.9729C270.801 77.1199 270.897 77.2679 270.978 77.4229C271.074 77.5999 271.163 77.7769 271.237 77.9539C271.303 78.1089 271.361 78.2709 271.413 78.4329C271.501 78.6909 271.569 78.9639 271.613 79.2369C272.122 82.2009 272.511 85.5399 272.792 89.1309C272.888 90.3329 272.976 91.5569 273.043 92.8019C273.058 93.1119 273.08 93.4289 273.095 93.7459C273.183 95.3159 273.25 96.9239 273.301 98.5599C273.308 98.8919 273.316 99.2159 273.33 99.5479C273.352 100.285 273.368 101.022 273.383 101.767C273.449 105.207 273.463 108.731 273.426 112.27Z" fill="#8E3410"/>
<path d="M186.535 112.506C185.296 110.979 184.178 109.292 183.316 107.885C182.928 107.251 181.964 107.554 181.989 108.297C182.044 109.919 181.914 111.371 181.781 112.373C181.702 112.969 180.959 113.201 180.544 112.766C179.369 111.537 178.41 110.4 177.638 109.396C175.559 106.683 174.829 104.936 174.829 104.936L171.364 102.651C170.671 99.4149 169.897 96.1929 169.064 92.9929C167.818 88.2819 166.373 83.6229 164.582 79.1249C164.353 78.5649 164.132 78.0039 163.882 77.4509L163.543 76.6619C163.477 76.4999 163.396 76.3599 163.292 76.2339C162.901 75.7469 162.179 75.4009 161.397 75.5039C161.014 75.5629 160.623 75.7029 160.291 75.9909C160.21 76.0569 160.129 76.1309 160.055 76.2199L159.79 76.5439C159.613 76.7729 159.451 77.0079 159.281 77.2519C158.625 78.2249 158.028 79.2939 157.534 80.4659C157.534 80.4659 147.957 112.049 146.49 136.179C146.362 135.99 146.242 135.804 146.13 135.621C145.699 134.916 144.628 135.103 144.466 135.913C144.322 136.634 144.16 137.324 144.002 137.944C143.766 138.867 142.456 138.844 142.236 137.917C142.155 137.575 142.079 137.222 142.008 136.865C144.824 118.087 150.87 84.5359 160.203 67.5269C161.058 65.9709 162.555 64.9249 164.309 64.6659C166.049 64.4009 167.767 64.9539 169.02 66.1699C176.407 73.3359 182.305 84.5789 186.581 99.6039C186.021 100.017 185.623 100.651 185.534 101.395C185.423 102.147 185.372 102.744 185.342 103.408C185.312 104.057 185.305 104.698 185.327 105.347C185.349 106.645 185.497 107.935 185.71 109.232C185.909 110.324 186.174 111.429 186.535 112.506Z" fill="#8E3410"/>
<path d="M172.748 109.631C171.34 108.127 169.762 106.756 167.978 105.591L167.956 105.576C166.998 104.949 165.7 105.03 164.83 105.856C164.631 106.04 164.55 106.121 164.425 106.254L164.093 106.615C163.879 106.858 163.688 107.109 163.488 107.36C163.105 107.861 162.758 108.392 162.441 108.952C161.807 110.073 161.306 111.333 161.077 112.712C160.841 114.091 160.922 115.572 161.32 116.936C161.475 117.474 161.689 117.975 161.917 118.469C161.136 119.265 160.487 120.194 160.074 121.204C159.89 121.573 159.816 121.985 159.691 122.361C159.639 122.56 159.573 122.744 159.544 122.943L159.47 123.525C159.441 123.916 159.352 124.292 159.382 124.675C159.397 125.051 159.426 125.427 159.448 125.796C159.455 126.165 159.566 126.519 159.632 126.872L159.861 127.919C160.104 128.597 160.348 129.253 160.606 129.887C156.028 131.863 146.311 143.003 146.311 143.003C146.282 140.821 146.348 138.535 146.488 136.176C147.955 112.046 157.532 80.463 157.532 80.463C158.026 79.291 158.623 78.222 159.279 77.249C159.449 77.006 159.611 76.77 159.788 76.541L160.053 76.217C160.127 76.129 160.208 76.055 160.289 75.988C160.621 75.7 161.011 75.56 161.395 75.501C162.176 75.398 162.899 75.744 163.29 76.231C163.393 76.356 163.474 76.496 163.541 76.659L163.88 77.448C164.131 78.001 164.352 78.561 164.58 79.122C166.372 83.619 167.816 88.279 169.062 92.99C169.895 96.19 170.669 99.411 171.362 102.648C171.701 104.181 172.011 105.722 172.306 107.27C172.46 108.06 172.601 108.842 172.748 109.631Z" fill="#FFDAB6"/>
<path d="M272.298 205.715C271.281 205.575 270.44 204.852 270.16 203.865C269.872 202.884 270.204 201.823 270.993 201.167C271.015 201.152 273.293 199.25 275.144 196.987C275.461 196.596 275.483 196.051 275.196 195.63C274.687 194.871 274.127 193.942 273.626 192.902C236.535 191.435 198.604 214.695 198.604 214.695C172.225 187.152 138.342 179.167 131.677 177.825C130.925 178.769 130.055 179.292 129.237 179.712C129.126 179.771 128.979 179.845 128.891 179.896C128.876 179.948 128.862 180.021 128.847 180.132C128.633 181.643 130.277 184.415 131.457 185.809C132.194 186.672 132.283 187.932 131.627 188.928C131.244 189.503 130.617 189.872 129.946 190.019C128.766 190.277 127.425 190.808 126.864 191.221C127.358 193.521 131.096 200.879 135.527 205.457C140.673 205.656 145.767 206.438 150.685 207.676C153.899 208.48 157.055 209.438 160.151 210.559C160.048 209.954 159.974 209.343 159.945 208.745C159.923 208.325 159.916 207.905 159.93 207.484C159.937 207.278 159.945 207.064 159.96 206.85C159.982 206.614 159.989 206.437 160.034 206.113C160.233 204.742 161.501 203.746 162.872 203.938C163.086 203.968 163.292 204.012 163.477 204.093L163.514 204.108C169.25 206.334 174.779 209.099 180.013 212.336C185.225 215.617 190.15 219.355 194.655 223.549C199.049 227.604 203.052 232.072 206.643 236.849C214.355 236.687 255.935 234.372 275.7 206.519C274.804 206.202 273.662 205.9 272.298 205.715Z" fill="#FFDAB6"/>
<path d="M177.872 248.049C175.371 247.225 172.902 246.199 170.594 245.116C168.67 244.213 166.773 246.372 167.902 248.172C172.056 254.799 174.935 262.629 176.42 267.221C176.958 268.884 175.367 270.439 173.71 269.882C163.502 266.451 155.613 262.625 150.381 259.734C148.619 258.761 146.629 260.545 147.397 262.406C149.122 266.585 150.092 271.132 150.608 274.283C150.89 276.007 149.082 277.316 147.531 276.513C141.919 273.607 137.626 270.605 134.551 268.122C132.967 266.843 130.671 268.292 131.151 270.27C131.84 273.11 132.348 275.962 132.69 278.164C132.971 279.971 130.996 281.256 129.447 280.284C126.274 278.294 123.746 275.661 121.841 273.181C121.185 271.338 120.595 269.465 120.049 267.571C119.046 264.091 118.199 260.538 117.321 256.94C116.429 253.335 115.522 249.663 114.151 245.999C113.458 244.171 112.64 242.357 111.622 240.602C111.386 240.16 111.099 239.732 110.826 239.304C110.671 239.083 110.575 238.906 110.384 238.64C110.2 238.382 110.001 238.131 109.787 237.895C108.939 236.929 107.885 236.155 106.786 235.624C104.567 234.562 102.318 234.334 100.232 234.341C98.1381 234.363 96.1551 234.665 94.2231 235.071C92.8961 235.358 91.6061 235.712 90.3301 236.103C93.6771 231.016 97.5481 226.371 102.126 222.575C104.817 220.319 107.744 218.387 110.848 216.817C115.072 214.649 119.621 213.138 124.347 212.327C132.53 210.838 141.104 211.398 149.457 213.086C153.637 213.941 157.766 215.128 161.821 216.551C163.856 217.251 165.92 217.885 168.043 218.438C170.174 218.984 172.341 219.463 174.708 219.743C173.248 217.834 171.449 216.381 169.577 215.076C168.493 214.353 167.373 213.697 166.215 213.1L166.547 212.827C166.267 212.458 165.994 212.075 165.795 211.618C165.64 211.257 165.507 210.873 165.404 210.475C169.503 212.274 173.469 214.36 177.281 216.712C180.259 218.592 183.142 220.627 185.899 222.824C187.872 227.171 189.524 231.507 190.629 234.584C191.251 236.317 189.517 237.971 187.818 237.261C185.128 236.137 182.197 234.802 179.553 233.557C177.687 232.678 175.814 234.701 176.802 236.511C178.484 239.593 179.745 242.903 180.566 245.359C181.124 247.028 179.54 248.599 177.872 248.049Z" fill="#FFDAB6"/>
<path d="M266.791 147.945C266.341 150.54 265.825 153.047 265.235 155.406L265.228 155.399C265.081 155.052 260.222 143.935 255.305 139.629C255.305 139.629 255.305 139.622 255.312 139.614C255.319 139.607 255.327 139.592 255.327 139.585C255.725 139.039 256.094 138.464 256.477 137.882L256.941 136.916C257.081 136.584 257.273 136.26 257.361 135.906C257.464 135.552 257.582 135.191 257.678 134.83C257.789 134.461 257.789 134.071 257.848 133.687L257.914 133.105C257.929 132.906 257.899 132.707 257.899 132.508C257.862 132.11 257.884 131.69 257.788 131.292C257.611 130.216 257.191 129.161 256.608 128.203C256.947 127.783 257.264 127.333 257.537 126.846C257.92 126.168 258.215 125.431 258.414 124.679C258.584 124.06 258.687 123.418 258.724 122.792C258.82 121.391 258.613 120.057 258.252 118.818C258.068 118.199 257.847 117.609 257.588 117.027C257.455 116.739 257.323 116.459 257.168 116.172L256.932 115.744C256.836 115.589 256.777 115.486 256.63 115.257C255.989 114.306 254.765 113.871 253.637 114.284L253.622 114.291C251.617 115.021 249.766 116.009 248.056 117.151C248.38 116.414 248.697 115.684 249.022 114.954C250.998 110.486 253.136 106.092 255.406 101.779C257.684 97.466 260.146 93.256 262.911 89.275C263.258 88.788 263.604 88.287 263.965 87.808L264.481 87.108C264.577 86.975 264.687 86.857 264.813 86.754C265.307 86.371 266.088 86.201 266.833 86.474C267.187 86.614 267.533 86.843 267.791 87.189C267.857 87.277 267.916 87.373 267.975 87.469L268.159 87.845C268.277 88.11 268.388 88.376 268.498 88.649C268.911 89.748 269.25 90.927 269.471 92.18C269.474 92.18 270.941 123.977 266.791 147.945Z" fill="#FFDAB6"/>
<path d="M194.353 211.792L204.569 212.988C205.098 213.05 205.405 213.633 205.139 214.095C204.593 215.042 203.51 216.436 201.598 217.172C199.803 217.864 197.748 217.723 196.111 216.712C194.947 215.993 193.782 214.751 193.516 212.623C193.456 212.144 193.874 211.736 194.353 211.792Z" fill="#66142E"/>
<path d="M175.728 189.356C173.526 187.179 171.093 185.212 168.528 183.373C165.952 181.549 163.137 179.978 160.156 178.693C160.112 178.674 160.05 178.649 160.005 178.631C157.727 177.747 155.163 178.877 154.279 181.155C153.395 183.433 154.525 185.997 156.803 186.881L156.956 186.94C159.458 187.911 162.014 188.888 164.517 190.134C167.022 191.365 169.537 192.688 171.994 194.185C174.458 195.668 176.886 197.267 179.339 198.904C181.794 200.544 184.226 202.253 186.756 203.986C185.444 201.201 183.732 198.654 181.888 196.211C180.029 193.773 177.947 191.511 175.728 189.356Z" fill="#66142E"/>
<path d="M250.095 191.876C249.654 189.472 247.347 187.882 244.944 188.323C241.751 188.909 238.656 189.811 235.737 191.013C232.825 192.232 230.014 193.605 227.381 195.235C224.736 196.839 222.201 198.578 219.846 200.539C217.502 202.508 215.264 204.608 213.362 207.029C216.215 205.905 218.968 204.783 221.728 203.734C224.485 202.687 227.209 201.672 229.942 200.777C232.671 199.868 235.419 199.14 238.136 198.5C240.855 197.846 243.564 197.465 246.22 197.078L246.4 197.052C246.448 197.045 246.495 197.037 246.543 197.028C248.946 196.586 250.536 194.28 250.095 191.876Z" fill="#66142E"/>
<path d="M204.506 226.955C204.274 226.963 204.046 226.986 203.824 226.94C202.918 226.908 202.142 226.556 201.563 226.073C200.98 225.577 200.572 224.887 200.272 224.115C199.986 223.356 199.762 222.455 199.655 221.683L199.651 221.65C199.6 221.299 199.384 220.979 199.043 220.808C198.49 220.531 197.817 220.756 197.54 221.309C197.192 222.006 196.682 222.786 196.152 223.406C195.605 224.033 194.98 224.55 194.253 224.81L193.978 224.915C193.885 224.947 193.787 224.946 193.69 224.965C193.495 224.983 193.296 225.058 193.091 225.022L192.46 224.993C192.252 224.937 192.038 224.886 191.817 224.84C191.591 224.808 191.382 224.711 191.169 224.62L190.517 224.346C190.095 224.125 189.685 223.87 189.236 223.641C189.534 224.031 189.86 224.41 190.193 224.797L190.78 225.287C190.978 225.453 191.175 225.626 191.415 225.743C192.288 226.346 193.482 226.6 194.641 226.43C195.808 226.245 196.849 225.623 197.65 224.868C197.795 224.73 197.927 224.586 198.06 224.443C198.137 224.63 198.214 224.816 198.306 225.002C198.799 225.99 199.567 226.94 200.612 227.511C201.65 228.069 202.868 228.232 203.896 227.964C204.163 227.936 204.408 227.845 204.651 227.752L205.369 227.48C205.814 227.229 206.25 226.982 206.662 226.714C206.161 226.773 205.687 226.87 205.215 226.931L204.506 226.955Z" fill="#66142E"/>
<path d="M309.521 284.394L309.514 284.387L296.973 269.355C292.771 264.342 288.664 259.365 284.646 254.242C283.105 252.288 281.579 250.327 280.068 248.351C277.62 245.173 275.195 241.966 272.791 238.745L269.879 234.823C268.862 233.466 267.807 232.132 266.665 230.849C265.249 229.257 263.738 227.708 262.02 226.315C270.24 220.999 276.875 214.468 281.667 206.867C282.397 205.71 282.102 204.191 280.996 203.395C280.812 203.262 279.728 202.51 277.796 201.788C278.246 201.301 278.695 200.785 279.138 200.247C280.73 198.301 280.996 195.661 279.89 193.457C279.772 193.214 279.632 192.978 279.477 192.749C278.482 191.275 277.28 189.033 277.169 186.726C277.103 185.406 276.977 183.607 276.83 181.528C276.417 175.652 275.857 167.601 276.137 162.256C276.181 161.438 276.292 159.926 276.447 157.847C277.575 142.284 280.59 100.947 276.69 78.3498C276.1 74.9508 274.006 72.0978 270.932 70.5348C267.88 68.9788 264.356 68.9568 261.282 70.4758C253.865 74.1328 242.88 82.8838 230.192 103.615C229.492 102.797 228.666 102.045 227.678 101.448C226.454 100.681 224.928 100.209 223.557 100.091C222.201 99.9658 221.043 100.054 219.945 100.113C218.839 100.179 217.822 100.26 216.871 100.26C215.905 100.275 215.013 100.216 214.224 100.039C213.804 99.9798 213.457 99.8248 213.081 99.7218C212.749 99.5448 212.388 99.4338 212.093 99.2058C211.444 98.8448 210.928 98.2618 210.397 97.6648L210.25 97.5028C210.058 97.2818 209.822 97.0898 209.542 96.9498C208.296 96.2868 206.755 96.7578 206.092 98.0118C205.908 98.3658 205.805 98.5868 205.679 98.8668C205.576 99.1318 205.458 99.3978 205.362 99.6708C205.163 100.209 204.986 100.755 204.853 101.33C204.58 102.473 204.418 103.689 204.514 104.994C204.536 105.318 204.58 105.65 204.647 105.974C202.848 105.598 201.071 105.134 199.331 104.588C197.562 104.006 195.851 103.32 194.215 102.538C193.61 102.228 193.035 101.904 192.46 101.565C187.882 83.9668 181.21 70.8068 172.613 62.4688C170.187 60.1168 166.885 59.0558 163.538 59.5568C160.176 60.0658 157.308 62.0638 155.672 65.0418C142.158 89.6588 135.619 144.893 135.081 149.589C134.388 151.867 129.22 168.831 128.158 173.291C127.841 174.625 127.583 174.758 126.883 175.119C126.868 175.126 126.846 175.141 126.824 175.148C125.858 175.649 124.133 176.586 123.735 179.409C123.403 181.761 124.384 184.238 125.438 186.111C123.705 186.944 121.995 188.256 121.7 190.269C121.685 190.321 121.678 190.38 121.671 190.439C121.361 193.248 124.819 200.163 128.859 205.538C127.001 205.656 125.151 205.848 123.293 206.135C118.7 206.916 114.159 208.236 109.89 210.219C108.917 210.661 107.958 211.133 107.015 211.649C103.83 213.374 100.844 215.483 98.1024 217.82C96.3404 219.346 94.6443 220.961 93.1183 222.708C92.3143 223.556 91.6143 224.47 90.8623 225.355C90.1693 226.277 89.4243 227.169 88.7763 228.12C88.1123 229.056 87.4644 230.007 86.8594 230.98C86.2324 231.938 85.6573 232.934 85.0823 233.922C84.4923 234.902 84.0063 235.935 83.4673 236.937C82.9513 237.954 82.4793 238.987 81.9853 240.011L81.8743 240.24C81.5283 240.962 81.5354 241.84 81.9774 242.584C82.6774 243.786 84.2113 244.184 85.4133 243.483C86.9243 242.783 88.6273 242.112 90.2793 241.544C91.9453 240.969 93.6334 240.482 95.3144 240.114C96.9954 239.76 98.6764 239.517 100.283 239.502C101.875 239.48 103.394 239.716 104.522 240.269C105.082 240.542 105.539 240.881 105.915 241.309C106.011 241.412 106.099 241.523 106.18 241.641C106.268 241.752 106.401 241.973 106.504 242.135C106.725 242.482 106.961 242.821 107.16 243.197C108 244.642 108.701 246.198 109.32 247.82C110.544 251.086 111.429 254.595 112.306 258.164C113.146 261.614 113.987 265.116 114.982 268.611C115.019 268.736 115.056 268.869 115.093 268.994C116.125 272.621 117.356 276.226 118.816 279.743C121.057 285.095 123.896 290.227 127.235 294.982C127.191 294.982 127.139 294.982 127.095 294.989C125.186 295.122 123.291 295.439 121.433 295.925L121.411 295.932C120.88 296.072 120.394 296.382 120.032 296.846C119.169 297.967 119.376 299.581 120.496 300.444C123.733 302.936 126.954 305.155 130.272 307.352C133.582 309.542 136.944 311.628 140.357 313.641C147.191 317.652 154.21 321.338 161.427 324.633C175.84 331.209 191.042 336.304 206.812 338.869C214.686 340.137 222.7 340.742 230.713 340.52C238.719 340.306 246.733 339.23 254.519 337.195C258.404 336.178 262.245 334.939 265.983 333.465C267.841 332.691 269.706 331.946 271.549 331.054C273.385 330.169 275.184 329.204 276.931 328.142C280.426 326.034 283.728 323.571 286.736 320.77C288.233 319.377 289.685 317.902 291.027 316.214C291.381 315.757 291.735 315.285 292.067 314.791C292.178 314.909 292.273 315.034 292.384 315.152C293.011 315.845 293.704 316.486 294.463 317.061C295.2 317.658 296.026 318.152 296.874 318.609C296.962 318.653 297.08 318.712 297.184 318.749C298.489 319.243 299.949 318.587 300.443 317.275L300.45 317.26C300.738 316.493 300.922 315.889 301.128 315.21C301.32 314.554 301.504 313.89 301.659 313.227C301.983 311.907 302.241 310.573 302.448 309.231C302.861 306.547 303.038 303.827 302.994 301.107C302.928 298.379 302.625 295.651 302.036 292.968C301.815 291.936 301.535 290.918 301.232 289.916C301.586 289.946 301.947 289.968 302.308 289.975C303.414 289.997 304.557 289.894 305.685 289.606C306.813 289.326 307.919 288.847 308.921 288.213C309.009 288.154 309.105 288.08 309.194 288.014C310.281 287.107 310.428 285.485 309.521 284.394ZM126.98 191.686C126.928 191.516 126.892 191.362 126.862 191.222C127.422 190.809 128.764 190.278 129.944 190.02C130.615 189.873 131.242 189.504 131.625 188.929C132.281 187.934 132.193 186.673 131.455 185.81C130.275 184.417 128.631 181.645 128.845 180.133C128.86 180.022 128.874 179.949 128.889 179.897C128.977 179.845 129.125 179.772 129.235 179.713C130.053 179.293 130.923 178.769 131.675 177.826C132.287 177.059 132.818 176.005 133.179 174.486C134.255 169.959 140.028 151.056 140.087 150.872C140.139 150.717 140.168 150.562 140.183 150.4C140.249 149.818 146.87 91.8038 160.199 67.5268C161.054 65.9708 162.551 64.9248 164.305 64.6658C166.045 64.4008 167.763 64.9538 169.016 66.1698C176.403 73.3358 182.301 84.5788 186.577 99.6038C186.017 100.017 185.619 100.651 185.53 101.395C185.419 102.147 185.368 102.744 185.338 103.408C185.308 104.057 185.301 104.698 185.323 105.347C185.345 106.645 185.493 107.935 185.706 109.232C186.178 111.805 187.004 114.43 188.589 116.759C189.385 117.909 190.351 118.985 191.494 119.841C192.629 120.711 193.949 121.33 195.291 121.633C195.623 121.729 195.962 121.78 196.301 121.825C196.64 121.862 196.972 121.928 197.304 121.921L198.292 121.936C198.624 121.921 198.948 121.87 199.265 121.84C200.555 121.7 201.772 121.309 202.907 120.808C200.452 120.395 198.159 119.879 196.375 118.795C195.468 118.294 194.709 117.638 194.06 116.922C193.411 116.2 192.866 115.389 192.445 114.482C191.575 112.691 191.125 110.597 190.882 108.466C190.793 107.817 190.749 107.168 190.712 106.512C191.11 106.733 191.516 106.954 191.921 107.161C193.83 108.083 195.777 108.857 197.745 109.498C199.721 110.125 201.711 110.641 203.724 111.061C204.727 111.267 205.737 111.452 206.747 111.614C207.779 111.776 208.752 111.902 209.873 112.005C210.75 112.086 211.65 111.71 212.195 110.936C213.013 109.779 212.741 108.179 211.59 107.36L211.339 107.19C210.845 106.836 210.358 106.526 210.137 106.099C209.879 105.686 209.709 105.207 209.65 104.595C209.635 104.344 209.643 104.064 209.665 103.777C210.159 104.072 210.697 104.293 211.213 104.529C211.862 104.743 212.518 104.979 213.159 105.089C214.464 105.369 215.725 105.435 216.904 105.421C218.091 105.414 219.212 105.325 220.251 105.266C221.283 105.207 222.278 105.148 223.06 105.229C223.819 105.31 224.387 105.494 224.992 105.848C225.574 106.195 226.12 106.733 226.599 107.374C226.872 107.713 227.093 108.096 227.307 108.487V108.494C226.636 109.666 226.002 110.993 225.538 112.387C224.793 114.613 225.818 117.046 227.897 118.137C230.101 113.942 232.254 110.131 234.355 106.68C234.362 106.665 234.377 106.651 234.384 106.636C234.686 106.135 234.989 105.641 235.291 105.162C236.434 103.319 237.562 101.579 238.668 99.9418C238.867 99.6398 239.066 99.3448 239.273 99.0568C240.357 97.4718 241.426 95.9828 242.48 94.5818C242.767 94.1988 243.055 93.8148 243.343 93.4468C243.616 93.0858 243.889 92.7388 244.161 92.3928C245.178 91.0948 246.181 89.8858 247.162 88.7578C247.354 88.5288 247.545 88.3158 247.737 88.1018C247.929 87.8808 248.113 87.6668 248.305 87.4608C254.35 80.7448 259.541 77.0808 263.559 75.1048C265.166 74.3158 267.002 74.3238 268.594 75.1348C268.764 75.2228 268.926 75.3188 269.081 75.4148C269.206 75.4958 269.324 75.5768 269.435 75.6658C269.523 75.7318 269.612 75.7988 269.693 75.8718C269.781 75.9378 269.863 76.0118 269.936 76.0858C269.995 76.1448 270.054 76.1968 270.106 76.2558C270.194 76.3438 270.276 76.4328 270.349 76.5288C270.474 76.6758 270.585 76.8238 270.688 76.9708C270.791 77.1178 270.887 77.2658 270.968 77.4208C271.064 77.5978 271.152 77.7748 271.226 77.9518C271.292 78.1068 271.351 78.2618 271.403 78.4308C271.491 78.6888 271.558 78.9618 271.602 79.2348C272.111 82.1988 272.501 85.5378 272.782 89.1288C272.878 90.3308 272.966 91.5548 273.033 92.7998C273.048 93.1098 273.07 93.4268 273.085 93.7438C273.166 95.3138 273.232 96.9218 273.291 98.5578C273.298 98.8898 273.306 99.2138 273.32 99.5458C273.342 100.283 273.357 101.02 273.372 101.765C273.446 105.208 273.453 108.732 273.424 112.271C273.402 114.402 273.365 116.54 273.321 118.663C273.306 119.268 273.292 119.872 273.277 120.477C273.262 121.082 273.248 121.686 273.225 122.283C273.114 125.888 272.974 129.434 272.82 132.826C272.798 133.394 272.768 133.954 272.739 134.507C272.717 135.053 272.687 135.591 272.658 136.122C272.628 136.682 272.599 137.243 272.57 137.788C272.526 138.717 272.474 139.631 272.423 140.523C272.394 141.002 272.364 141.481 272.342 141.946C272.312 142.374 272.29 142.794 272.261 143.214V143.258C272.217 143.988 272.173 144.696 272.128 145.396C272.113 145.632 272.099 145.868 272.084 146.104C272.055 146.568 272.025 147.026 271.996 147.483C271.856 149.673 271.716 151.685 271.591 153.462C271.488 154.973 271.385 156.322 271.303 157.473C271.148 159.596 271.03 161.152 270.986 161.985C270.691 167.647 271.266 175.875 271.686 181.891C271.833 183.941 271.951 185.71 272.018 186.971C272.121 189.153 272.799 191.188 273.625 192.906C274.126 193.945 274.687 194.874 275.195 195.634C275.483 196.054 275.46 196.6 275.143 196.991C273.293 199.254 271.014 201.156 270.992 201.171C270.203 201.827 269.871 202.889 270.159 203.869C270.439 204.857 271.28 205.579 272.297 205.719C273.661 205.903 274.804 206.206 275.696 206.523C255.931 234.376 214.35 236.691 206.639 236.853C203.631 232.857 200.336 229.075 196.767 225.573C196.295 225.101 195.816 224.644 195.337 224.202C195.108 223.981 194.88 223.767 194.651 223.553C190.242 219.447 185.435 215.782 180.348 212.561C180.237 212.48 180.119 212.414 180.009 212.34C174.775 209.103 169.245 206.339 163.51 204.112L163.473 204.097C163.289 204.016 163.082 203.972 162.868 203.942C161.497 203.75 160.229 204.746 160.03 206.117C159.986 206.441 159.978 206.618 159.956 206.854C159.941 207.068 159.934 207.282 159.926 207.488C159.911 207.908 159.919 208.328 159.941 208.749C159.97 209.346 160.044 209.958 160.147 210.563C157.051 209.442 153.895 208.484 150.681 207.68C145.764 206.441 140.669 205.66 135.523 205.461C131.359 201.152 127.806 194.391 126.98 191.686ZM219.297 241.007C218.766 241.405 218.25 241.818 217.749 242.26C216.658 243.226 215.648 244.317 214.756 245.519C214.299 246.109 213.893 246.743 213.525 247.406C213.061 246.573 212.589 245.747 212.102 244.936C211.475 243.896 210.827 242.886 210.17 241.876C212.53 241.744 215.648 241.486 219.297 241.007ZM302.414 284.814C301.706 284.807 300.976 284.711 300.247 284.541C299.886 284.46 299.525 284.357 299.171 284.246C298.994 284.187 298.817 284.128 298.648 284.062C298.493 284.003 298.279 283.915 298.22 283.885L298.205 283.878C297.549 283.576 296.767 283.546 296.06 283.871C294.755 284.453 294.173 285.979 294.755 287.284C295.728 289.459 296.495 291.73 297.004 294.067C297.513 296.404 297.778 298.807 297.837 301.218C297.874 303.629 297.726 306.054 297.35 308.45C297.166 309.644 296.937 310.839 296.65 312.011C296.643 312.04 296.628 312.07 296.621 312.099C296.474 311.959 296.326 311.811 296.186 311.657C295.736 311.178 295.323 310.654 294.955 310.101C294.771 309.821 294.601 309.541 294.439 309.253L294.218 308.833C294.152 308.708 294.071 308.523 294.056 308.486L294.004 308.375C293.643 307.623 292.935 307.063 292.043 306.923C290.628 306.717 289.308 307.69 289.094 309.105C289.028 309.584 288.784 310.255 288.401 310.933C288.018 311.619 287.531 312.319 286.985 313.012C285.887 314.391 284.589 315.725 283.225 316.993C280.497 319.537 277.474 321.785 274.267 323.724C272.667 324.697 271.008 325.589 269.313 326.4C267.632 327.218 265.855 327.933 264.093 328.663C260.547 330.064 256.912 331.229 253.226 332.194C238.444 336.094 222.8 336.212 207.635 333.772C192.44 331.302 177.651 326.355 163.577 319.934C156.536 316.72 149.665 313.115 142.978 309.192C139.638 307.224 136.35 305.174 133.121 303.043C131.654 302.077 130.187 301.082 128.742 300.072C129.111 300.065 129.479 300.065 129.848 300.072C130.246 300.079 130.637 300.101 131.02 300.131C131.381 300.153 131.831 300.205 132.074 300.242L132.133 300.257C132.826 300.368 133.563 300.191 134.153 299.711C135.259 298.812 135.428 297.19 134.536 296.084C130.024 290.518 126.345 284.347 123.581 277.749C122.954 276.245 122.379 274.719 121.841 273.178C121.185 271.335 120.595 269.462 120.049 267.568C119.046 264.088 118.199 260.535 117.321 256.937C116.429 253.332 115.522 249.66 114.151 245.996C113.458 244.168 112.64 242.354 111.622 240.599C111.386 240.157 111.099 239.729 110.826 239.301C110.671 239.08 110.575 238.903 110.384 238.637C110.2 238.379 110.001 238.128 109.787 237.892C108.939 236.926 107.885 236.152 106.786 235.621C104.567 234.559 102.318 234.331 100.232 234.338C98.1384 234.36 96.1553 234.662 94.2233 235.068C92.8963 235.355 91.6063 235.709 90.3303 236.1C93.6773 231.013 97.5484 226.368 102.126 222.572C104.817 220.316 107.744 218.384 110.848 216.814C115.072 214.646 119.621 213.135 124.347 212.324C132.53 210.835 141.104 211.395 149.457 213.083C153.637 213.938 157.766 215.125 161.821 216.548C163.856 217.248 165.92 217.882 168.043 218.435C170.174 218.981 172.341 219.46 174.708 219.74C173.248 217.831 171.449 216.378 169.577 215.073C168.493 214.35 168.501 214.299 167.343 213.702C167.203 213.518 166.864 213.112 166.539 212.692C166.207 212.272 165.898 211.844 165.794 211.616C165.639 211.255 165.506 210.871 165.403 210.473C169.502 212.272 173.468 214.358 177.28 216.71C180.258 218.59 183.141 220.625 185.898 222.822C187.704 224.252 189.452 225.756 191.14 227.327C195.423 231.286 199.331 235.65 202.803 240.339C204.543 242.676 206.172 245.094 207.676 247.586C208.421 248.832 209.136 250.1 209.814 251.375C210.153 252.016 210.477 252.658 210.787 253.299C211.097 253.926 211.414 254.619 211.65 255.179C211.996 255.997 212.756 256.624 213.7 256.749C215.116 256.933 216.42 255.931 216.605 254.515L216.62 254.404C216.753 253.379 216.908 252.354 217.328 251.381C217.726 250.408 218.227 249.457 218.898 248.579C219.451 247.842 220.1 247.141 220.793 246.485C221.213 248.881 221.656 251.27 222.201 253.651C222.547 255.28 222.887 256.91 223.292 258.532C223.351 258.783 223.417 259.033 223.484 259.284L224.206 262.086C224.435 263.022 224.693 263.951 224.98 264.873L225.813 267.652C226.093 268.574 226.344 269.51 226.683 270.417L227.649 273.167C227.973 274.081 228.283 274.995 228.666 275.895C229.411 277.694 230.067 279.515 230.937 281.277L232.183 283.924L233.576 286.512L234.284 287.81C234.527 288.23 234.8 288.643 235.058 289.063C235.581 289.896 236.083 290.744 236.636 291.562L238.383 293.973C238.965 294.769 239.658 295.506 240.285 296.266C242.924 299.252 246.036 301.935 249.678 303.808C253.32 305.644 257.522 306.506 261.533 305.99C262.034 305.953 262.528 305.843 263.022 305.754C263.516 305.68 264.003 305.562 264.482 305.422C264.961 305.297 265.433 305.157 265.898 304.98C266.37 304.818 266.827 304.648 267.284 304.449C269.076 303.653 270.793 302.68 272.224 301.375C268.715 302.923 264.999 303.66 261.409 303.609C260.959 303.58 260.517 303.58 260.067 303.543L258.74 303.388C258.305 303.329 257.87 303.218 257.435 303.137C257.221 303.093 257.007 303.056 256.794 302.997L256.16 302.805C254.442 302.385 252.857 301.589 251.309 300.763C248.257 298.986 245.625 296.494 243.376 293.671C242.838 292.941 242.248 292.263 241.754 291.496L240.243 289.218C239.764 288.437 239.321 287.633 238.864 286.837C238.643 286.439 238.4 286.048 238.186 285.643L237.581 284.404L236.365 281.92L235.281 279.362C234.507 277.688 233.924 275.912 233.261 274.179C232.922 273.316 232.642 272.424 232.362 271.532L231.507 268.871C230.932 267.102 230.475 265.281 229.951 263.489C229.686 262.59 229.457 261.683 229.243 260.769L228.579 258.041C228.542 257.894 228.505 257.753 228.468 257.606C228.04 255.932 227.687 254.237 227.325 252.548C226.492 248.891 225.902 245.168 225.158 241.475L225.136 241.342C225.084 241.091 224.996 240.848 224.863 240.612C224.782 240.465 224.686 240.325 224.575 240.199C227.782 239.639 231.254 238.909 234.874 237.958C243.138 235.783 250.614 232.834 257.235 229.177C259.226 230.526 261.091 232.318 262.801 234.257C263.826 235.414 264.799 236.638 265.735 237.892L268.655 241.829C270.542 244.35 272.437 246.864 274.346 249.371C276.41 252.069 278.489 254.76 280.59 257.429C284.623 262.575 288.825 267.669 293.005 272.653L303.127 284.781C302.893 284.807 302.657 284.821 302.414 284.814Z" fill="#66142E"/>
<path d="M270.005 88.339C269.99 88.007 269.946 87.683 269.902 87.344C269.872 87.182 269.858 87.027 269.814 86.843C269.77 86.651 269.711 86.46 269.637 86.268C269.342 85.509 268.811 84.801 268.111 84.314C266.725 83.311 264.661 83.179 263.105 84.203C262.722 84.439 262.368 84.7409 262.073 85.0729C261.808 85.3749 261.653 85.582 261.439 85.832C261.034 86.319 260.65 86.82 260.252 87.314C257.17 91.288 254.406 95.4749 251.84 99.7659C249.496 103.681 247.358 107.699 245.323 111.768L245.316 111.775C245.117 112.166 244.925 112.549 244.734 112.94C242.53 117.415 240.495 121.957 238.571 126.55V126.557C238.025 127.84 238.6 129.425 240.068 129.985C241.159 130.398 242.39 129.963 243.069 129.019L243.084 128.99C243.408 128.54 243.865 127.965 244.293 127.457C244.728 126.941 245.185 126.432 245.657 125.938C246.593 124.95 247.589 124.006 248.628 123.151C250.08 121.957 251.629 120.91 253.243 120.084C253.243 120.084 253.243 120.084 253.25 120.084C253.508 120.902 253.633 121.721 253.582 122.458C253.538 123.225 253.302 123.918 252.896 124.552C252.83 124.515 252.771 124.471 252.712 124.434C252.321 124.205 252.019 124.029 251.473 123.815L250.994 125.341C250.566 126.712 250.861 128.224 251.82 129.293C251.931 129.418 252.012 129.499 252.056 129.514C252.292 129.632 252.513 129.779 252.749 129.912C253.648 130.48 254.423 131.217 254.939 132.197C255.455 133.163 255.757 134.35 255.779 135.64C255.823 136.281 255.705 136.93 255.683 137.608L255.307 139.628C255.307 139.628 255.307 139.621 255.314 139.613C255.321 139.606 255.329 139.591 255.329 139.584C255.727 139.038 256.096 138.463 256.479 137.881L256.943 136.915C257.083 136.583 257.275 136.259 257.363 135.905C257.466 135.551 257.584 135.19 257.68 134.829C257.791 134.46 257.791 134.07 257.85 133.686L257.916 133.104C257.931 132.905 257.901 132.706 257.901 132.507C257.864 132.109 257.886 131.689 257.79 131.291C257.613 130.215 257.193 129.16 256.61 128.202C256.949 127.782 257.266 127.332 257.539 126.845C257.922 126.167 258.217 125.43 258.416 124.678C258.445 124.567 258.475 124.464 258.497 124.354C258.541 124.184 258.571 124.007 258.6 123.838C258.637 123.661 258.659 123.491 258.681 123.315C258.703 123.138 258.718 122.969 258.725 122.792C258.821 121.391 258.614 120.057 258.253 118.818C258.069 118.199 257.848 117.609 257.589 117.027C257.456 116.739 257.324 116.459 257.169 116.172L256.933 115.744C256.837 115.589 256.778 115.486 256.631 115.257C255.99 114.306 254.766 113.871 253.638 114.284L253.623 114.291C251.618 115.021 249.767 116.009 248.057 117.151C248.381 116.414 248.698 115.684 249.023 114.954C250.999 110.486 253.137 106.092 255.407 101.779C257.685 97.466 260.147 93.256 262.912 89.275C263.259 88.788 263.605 88.287 263.966 87.808L264.482 87.108C264.578 86.975 264.688 86.8569 264.814 86.7539C265.308 86.3709 266.089 86.201 266.834 86.474C267.188 86.614 267.534 86.843 267.792 87.189C267.858 87.277 267.917 87.373 267.976 87.469L268.16 87.845C268.278 88.11 268.389 88.376 268.499 88.649C268.912 89.748 269.251 90.927 269.472 92.18C269.916 90.971 270.071 89.659 270.005 88.339ZM252.112 129.536V129.529C252.119 129.536 252.127 129.536 252.134 129.536H252.112C252.127 129.536 252.134 129.543 252.141 129.543C252.385 129.632 252.687 129.794 252.112 129.536Z" fill="#66142E"/>
<path d="M178.742 123.542C177.238 124.456 175.52 123.748 174.945 122.37L174.916 122.296C174.702 121.78 174.393 121.109 174.09 120.527C173.78 119.922 173.449 119.318 173.109 118.735C172.416 117.555 171.664 116.42 170.838 115.351C169.695 113.854 168.427 112.483 167.041 111.318C167.034 111.318 167.034 111.318 167.034 111.318C166.592 112.055 166.289 112.822 166.171 113.552C166.038 114.311 166.112 115.034 166.363 115.749C166.437 115.727 166.503 115.697 166.577 115.675C166.997 115.542 167.336 115.439 167.919 115.351L168.066 117.356C168.177 118.742 167.461 120.091 166.216 120.71C166.15 120.747 166.091 120.769 166.061 120.769C166.046 120.769 166.039 120.776 166.024 120.776C166.017 120.783 166.017 120.783 166.017 120.783C165.774 120.842 165.545 120.93 165.295 120.997C164.292 121.351 163.371 121.896 162.656 122.73C161.926 123.556 161.366 124.647 161.049 125.893C160.865 126.512 160.828 127.168 160.703 127.839L160.607 129.889C160.349 129.255 160.106 128.599 159.862 127.921L159.633 126.874C159.567 126.52 159.456 126.166 159.449 125.798C159.427 125.429 159.397 125.053 159.383 124.677C159.354 124.294 159.442 123.918 159.471 123.527L159.545 122.945C159.574 122.746 159.641 122.562 159.692 122.363C159.817 121.987 159.891 121.574 160.075 121.206C160.488 120.196 161.137 119.267 161.918 118.471C161.689 117.977 161.476 117.476 161.321 116.938C160.923 115.574 160.842 114.092 161.078 112.714C161.307 111.335 161.808 110.075 162.442 108.954C162.759 108.394 163.105 107.863 163.489 107.362C163.688 107.111 163.88 106.861 164.094 106.617L164.426 106.256C164.551 106.123 164.632 106.042 164.831 105.858C165.701 105.032 166.998 104.951 167.957 105.578L167.979 105.593C169.763 106.758 171.341 108.129 172.749 109.633C172.602 108.844 172.461 108.063 172.307 107.274C171.393 102.475 170.294 97.712 169.063 92.994C167.817 88.283 166.372 83.624 164.581 79.126C164.352 78.566 164.131 78.005 163.881 77.452L163.542 76.663C163.476 76.501 163.395 76.361 163.291 76.235C162.9 75.748 162.178 75.402 161.396 75.505C161.013 75.564 160.622 75.704 160.29 75.992C160.209 76.058 160.128 76.132 160.054 76.221L159.789 76.545C159.612 76.774 159.45 77.009 159.28 77.253C158.624 78.226 158.027 79.295 157.533 80.467C157.378 79.192 157.518 77.879 157.88 76.611C157.968 76.287 158.086 75.977 158.204 75.667C158.27 75.505 158.322 75.357 158.403 75.188C158.492 75.011 158.595 74.841 158.713 74.672C159.163 74.001 159.841 73.433 160.637 73.116C162.207 72.452 164.249 72.792 165.54 74.133C165.864 74.457 166.13 74.826 166.351 75.224C166.535 75.57 166.646 75.806 166.793 76.101C167.081 76.669 167.339 77.236 167.611 77.811C169.719 82.382 171.459 87.085 172.993 91.841C174.526 96.604 175.787 101.433 176.937 106.284C178.072 111.135 179.031 116.03 179.864 120.933V120.94C180.047 121.95 179.626 123.012 178.742 123.542Z" fill="#66142E"/>
<path opacity="0.3" d="M174.945 122.37C174.945 122.37 171.433 117.777 169.205 115.157C168.37 114.175 166.728 114.463 166.377 115.703L166.364 115.75C166.113 115.035 166.04 114.312 166.172 113.553C166.29 112.823 166.592 112.056 167.035 111.319C167.035 111.319 167.035 111.319 167.042 111.319C168.428 112.484 169.696 113.855 170.839 115.352C171.665 116.421 172.417 117.556 173.11 118.736C173.449 119.318 173.781 119.923 174.091 120.528C174.393 121.11 174.703 121.781 174.917 122.297L174.945 122.37Z" fill="#66142E"/>
<path opacity="0.3" d="M212.102 244.937C211.475 243.897 210.827 242.887 210.17 241.877C212.529 241.744 215.648 241.486 219.297 241.007C218.766 241.405 218.25 241.818 217.749 242.26C216.658 243.226 215.648 244.317 214.756 245.519C214.299 246.109 213.893 246.743 213.525 247.406C213.06 246.573 212.589 245.748 212.102 244.937Z" fill="#66142E"/>
<path opacity="0.3" d="M272.298 205.715C271.281 205.575 270.44 204.852 270.16 203.865C269.872 202.884 270.204 201.823 270.993 201.167C271.015 201.152 273.293 199.25 275.144 196.987C275.461 196.596 275.483 196.051 275.196 195.63C274.687 194.871 274.127 193.942 273.626 192.902C272.8 191.184 272.122 189.149 272.019 186.967C271.953 185.706 271.835 183.937 271.687 181.887C271.267 175.871 270.692 167.643 270.987 161.981C271.031 161.148 271.149 159.592 271.304 157.469C272.314 143.55 275.396 101.195 271.606 79.233C271.562 78.975 271.503 78.724 271.422 78.481C268.657 79.432 266.35 81.769 264.912 83.538C263.909 84.777 263.334 85.735 263.334 85.735L238.57 126.549V126.556C239.329 127.758 240.059 128.952 240.76 130.132C257.812 158.722 259.567 179.35 254.502 194.11C249.474 208.781 237.715 217.65 227.571 222.789C218.355 227.456 207.267 226.232 199.165 219.825C179.488 204.254 165.716 198.991 160.696 197.442C159.251 197 157.688 197.597 156.921 198.902C156.324 199.912 155.985 200.981 155.786 201.954C155.403 203.878 153.478 205.095 151.613 204.49C137.981 200.059 126.864 191.22 126.864 191.22C126.893 191.36 126.93 191.515 126.982 191.684C127.012 191.78 127.048 191.883 127.085 191.994C127.122 192.09 127.159 192.2 127.196 192.304C127.557 193.292 128.162 194.619 128.951 196.101C129.194 196.551 129.452 197.015 129.718 197.487C130.109 198.158 130.529 198.851 130.971 199.551C131.259 200.001 131.561 200.45 131.87 200.9C132.091 201.224 132.32 201.549 132.556 201.866C132.615 201.954 132.681 202.043 132.748 202.131C132.918 202.36 133.087 202.595 133.264 202.817C133.728 203.422 134.208 204.011 134.709 204.564C134.783 204.652 134.856 204.734 134.93 204.815C135.129 205.036 135.328 205.25 135.527 205.456C140.673 205.655 145.767 206.437 150.685 207.675C153.899 208.479 157.055 209.437 160.151 210.558C160.048 209.953 159.974 209.342 159.945 208.744C159.923 208.324 159.916 207.904 159.93 207.483C159.937 207.277 159.945 207.063 159.96 206.849C159.982 206.613 159.989 206.436 160.034 206.112C160.233 204.741 161.501 203.745 162.872 203.937C163.086 203.967 163.292 204.011 163.477 204.092L163.514 204.107C169.25 206.333 174.779 209.098 180.013 212.335C180.124 212.409 180.242 212.475 180.352 212.556C180.986 212.962 181.62 213.367 182.247 213.787C182.874 214.2 183.493 214.627 184.112 215.055C185.491 216.021 186.855 217.016 188.182 218.056C188.639 218.402 189.089 218.756 189.531 219.118C189.745 219.288 189.959 219.457 190.165 219.634C191.109 220.401 192.038 221.19 192.944 222.001C193.519 222.51 194.094 223.026 194.654 223.549C199.048 227.604 203.051 232.072 206.642 236.849C214.354 236.687 255.934 234.372 275.699 206.519C274.804 206.202 273.662 205.9 272.298 205.715ZM255.304 139.629C255.304 139.629 255.304 139.622 255.311 139.614C255.318 139.607 255.326 139.592 255.326 139.585C255.724 139.039 256.093 138.464 256.476 137.882L256.94 136.916C257.08 136.584 257.272 136.26 257.36 135.906C257.463 135.552 257.581 135.191 257.677 134.83C257.788 134.461 257.788 134.071 257.847 133.687L257.913 133.105C257.928 132.906 257.898 132.707 257.898 132.508C257.861 132.11 257.883 131.69 257.787 131.292C257.61 130.216 257.19 129.161 256.607 128.203C256.946 127.783 257.263 127.333 257.536 126.846C257.919 126.168 258.214 125.431 258.413 124.679C258.583 124.06 258.686 123.418 258.723 122.792C258.819 121.391 258.612 120.057 258.251 118.818C258.067 118.199 257.846 117.609 257.587 117.027C257.454 116.739 257.322 116.459 257.167 116.172L256.931 115.744C256.835 115.589 256.776 115.486 256.629 115.257C255.988 114.306 254.764 113.871 253.636 114.284L253.621 114.291C251.616 115.021 249.765 116.009 248.055 117.151C248.379 116.414 248.696 115.684 249.021 114.954C250.997 110.486 253.135 106.092 255.405 101.779C257.683 97.466 260.145 93.256 262.91 89.275C263.257 88.788 263.603 88.287 263.964 87.808L264.48 87.108C264.576 86.975 264.686 86.857 264.812 86.754C265.306 86.371 266.087 86.201 266.832 86.474C267.186 86.614 267.532 86.843 267.79 87.189C267.856 87.277 267.915 87.373 267.974 87.469L268.158 87.845C268.276 88.11 268.387 88.376 268.497 88.649C268.91 89.748 269.249 90.927 269.47 92.18C269.47 92.18 270.937 123.977 266.786 147.945C266.336 150.54 265.82 153.047 265.23 155.406C265.235 155.406 260.303 144.001 255.304 139.629Z" fill="#66142E"/>
<path opacity="0.3" d="M269.474 92.1799C266.077 83.3389 260.218 100.248 258.156 106.84C257.689 108.333 257.808 109.953 258.501 111.356C262.207 118.855 261.563 124.112 260.741 126.754C260.355 127.996 260.4 129.308 260.767 130.556C261.455 132.894 261.023 135.645 260.556 137.5C260.219 138.841 260.342 140.253 260.918 141.51C263.134 146.347 265.234 155.407 265.234 155.407L265.227 155.4C265.08 155.053 260.221 143.936 255.304 139.63C255.304 139.63 255.304 139.623 255.311 139.615C255.318 139.608 255.326 139.593 255.326 139.586C255.724 139.04 256.093 138.465 256.476 137.883L256.94 136.917C257.08 136.585 257.272 136.261 257.36 135.907C257.463 135.553 257.581 135.192 257.677 134.831C257.788 134.462 257.788 134.072 257.847 133.688L257.913 133.106C257.928 132.907 257.898 132.708 257.898 132.509C257.861 132.111 257.883 131.691 257.787 131.293C257.61 130.217 257.19 129.162 256.607 128.204C256.946 127.784 257.263 127.334 257.536 126.847C257.919 126.169 258.214 125.432 258.413 124.68C258.583 124.061 258.686 123.419 258.723 122.793C258.819 121.392 258.612 120.058 258.251 118.819C258.067 118.2 257.846 117.61 257.587 117.028C257.454 116.74 257.322 116.46 257.167 116.173L256.931 115.745C256.835 115.59 256.776 115.487 256.629 115.258C255.988 114.307 254.764 113.872 253.636 114.285L253.621 114.292C251.616 115.022 249.765 116.01 248.055 117.152C248.379 116.415 248.696 115.685 249.021 114.955C250.997 110.487 253.135 106.093 255.405 101.78C257.683 97.4669 260.145 93.2569 262.91 89.2759C263.257 88.7889 263.603 88.2879 263.964 87.8089L264.48 87.1089C264.576 86.9759 264.686 86.8579 264.812 86.7549C265.306 86.3719 266.087 86.2019 266.832 86.4749C267.186 86.6149 267.532 86.8439 267.79 87.1899C267.856 87.2779 267.915 87.3739 267.974 87.4699L268.158 87.8459C268.276 88.1109 268.387 88.3769 268.497 88.6499C268.914 89.7469 269.253 90.9269 269.474 92.1799Z" fill="#66142E"/>
<path opacity="0.3" d="M172.748 109.631C171.34 108.127 169.762 106.756 167.978 105.591L167.956 105.576C166.998 104.949 165.7 105.03 164.83 105.856C164.631 106.04 164.55 106.121 164.425 106.254L164.093 106.615C163.879 106.858 163.688 107.109 163.488 107.36C163.105 107.861 162.758 108.392 162.441 108.952C161.807 110.073 161.306 111.333 161.077 112.712C160.841 114.091 160.922 115.572 161.32 116.936C161.475 117.474 161.689 117.975 161.917 118.469C161.136 119.265 160.487 120.194 160.074 121.204C159.89 121.573 159.816 121.985 159.691 122.361C159.639 122.56 159.573 122.744 159.544 122.943L159.47 123.525C159.441 123.916 159.352 124.292 159.382 124.675C159.397 125.051 159.426 125.427 159.448 125.796C159.455 126.165 159.566 126.519 159.632 126.872L159.861 127.919C160.104 128.597 160.348 129.253 160.606 129.887C157.117 125.979 157.377 122.108 157.932 119.97C158.239 118.787 158.416 117.569 158.315 116.351C157.793 110.057 160.18 106.008 162.513 103.603C165.054 100.985 166.036 97.2219 165.221 93.6649C163.773 87.3459 161.753 80.8439 161.239 79.6509C160.531 77.9919 157.531 80.4619 157.531 80.4619C158.025 79.2899 158.622 78.2209 159.278 77.2479C159.448 77.0049 159.61 76.7689 159.787 76.5399L160.052 76.2159C160.126 76.1279 160.207 76.0539 160.288 75.9869C160.62 75.6989 161.01 75.5589 161.394 75.4999C162.175 75.3969 162.898 75.7429 163.289 76.2299C163.392 76.3549 163.473 76.4949 163.54 76.6579L163.879 77.4469C164.13 77.9999 164.351 78.5599 164.579 79.1209C166.371 83.6179 167.815 88.2779 169.061 92.9889C169.894 96.1889 170.668 99.4099 171.361 102.647C171.7 104.18 172.01 105.721 172.305 107.269C172.46 108.06 172.601 108.842 172.748 109.631Z" fill="#66142E"/>
<path opacity="0.3" d="M227.901 118.138C227.901 118.138 223.598 117.441 224.278 110.755C224.386 109.697 223.878 108.626 222.922 108.162C222.375 107.896 221.672 107.8 220.802 108.133C218.384 109.047 210.164 104.078 209.692 103.791C210.179 104.079 210.709 104.292 211.218 104.528C211.867 104.742 212.523 104.978 213.164 105.088C214.469 105.368 215.73 105.434 216.909 105.42C218.096 105.413 219.217 105.324 220.256 105.265C221.288 105.206 222.283 105.147 223.065 105.228C223.824 105.309 224.392 105.493 224.997 105.847C225.579 106.194 226.125 106.732 226.604 107.373C226.877 107.712 227.098 108.095 227.312 108.486V108.493C226.641 109.665 226.007 110.992 225.543 112.386C224.797 114.614 225.822 117.047 227.901 118.138Z" fill="#66142E"/>
<path opacity="0.3" d="M272.209 301.387C268.707 302.928 264.991 303.665 261.408 303.613C260.958 303.584 260.516 303.584 260.066 303.547L258.739 303.392C258.266 303.328 257.793 303.203 257.32 303.121C257.142 303.09 256.966 303.054 256.793 303.001L256.159 302.809C254.441 302.389 252.856 301.593 251.308 300.767C248.256 298.99 245.624 296.498 243.375 293.675C242.837 292.945 242.247 292.267 241.753 291.5L240.242 289.222C239.763 288.441 239.32 287.637 238.863 286.841C238.642 286.443 238.399 286.052 238.185 285.647L237.58 284.408L236.364 281.924L235.28 279.366C234.506 277.692 233.923 275.916 233.26 274.183C232.921 273.32 232.641 272.428 232.361 271.536L231.506 268.875C230.96 267.194 230.518 265.469 230.032 263.766C230.003 263.678 229.98 263.582 229.951 263.493C229.686 262.594 229.457 261.687 229.243 260.773L228.579 258.045C228.542 257.898 228.505 257.757 228.468 257.61C228.04 255.936 227.687 254.241 227.325 252.552C226.492 248.895 225.902 245.172 225.158 241.479L225.136 241.346C225.084 241.095 224.996 240.852 224.863 240.616C224.782 240.469 224.686 240.329 224.575 240.203C227.782 239.643 231.254 238.913 234.874 237.962C243.138 235.787 250.614 232.838 257.235 229.181C258.636 230.132 259.978 231.304 261.246 232.594C257.219 235.175 252.716 237.469 248.497 239.383C238.578 243.881 233.243 254.756 235.758 265.353C245.811 307.703 271.423 301.582 272.209 301.387Z" fill="#66142E"/>
<path opacity="0.3" d="M289.092 309.106C289.026 309.585 288.782 310.256 288.399 310.934C288.016 311.62 287.529 312.32 286.983 313.013C285.885 314.392 284.587 315.726 283.223 316.994C280.495 319.538 277.472 321.786 274.265 323.725C272.665 324.698 271.006 325.59 269.311 326.401C267.63 327.219 265.853 327.934 264.091 328.664C260.545 330.065 256.91 331.23 253.224 332.195C238.442 336.095 222.798 336.213 207.633 333.773C192.438 331.303 177.649 326.356 163.575 319.935C156.534 316.721 149.663 313.116 142.976 309.193C139.636 307.225 136.348 305.175 133.119 303.044C131.652 302.078 130.185 301.083 128.74 300.073C129.109 300.066 129.477 300.066 129.846 300.073C130.244 300.08 130.635 300.102 131.018 300.132C131.379 300.154 131.829 300.206 132.072 300.243L132.131 300.258C132.824 300.369 133.561 300.192 134.151 299.712C135.257 298.813 135.426 297.191 134.534 296.085C130.022 290.519 126.343 284.348 123.579 277.75C122.952 276.246 122.377 274.72 121.839 273.179C121.183 271.336 120.593 269.463 120.047 267.569C119.044 264.089 118.197 260.536 117.319 256.938C116.427 253.333 115.52 249.661 114.149 245.997C113.456 244.169 112.638 242.355 111.62 240.6C111.384 240.158 111.097 239.73 110.824 239.302C110.669 239.081 110.573 238.904 110.382 238.638C110.198 238.38 109.999 238.129 109.785 237.893C108.937 236.927 107.883 236.153 106.784 235.622C104.565 234.56 102.316 234.332 100.23 234.339C98.1361 234.361 96.1531 234.663 94.2211 235.069C92.8941 235.356 91.6041 235.71 90.3281 236.101C90.3281 236.101 90.3351 236.094 90.3431 236.086C90.9841 235.548 110.779 219.196 121.661 250.588C132.723 282.499 215.759 368.572 289.092 309.106Z" fill="#66142E"/>
<path opacity="0.7" d="M210.79 253.304C210.96 253.65 211.136 254.019 211.291 254.373C204.712 240.192 187.172 226.736 181.558 222.678C181.036 222.301 180.337 222.747 180.433 223.383C180.54 224.097 179.893 225.217 179.445 225.534C178.796 225.994 175.54 225.172 175.064 224.957C115.978 198.277 95.0723 229.484 90.9443 235.204C94.1443 230.471 97.8223 226.151 102.128 222.575C104.819 220.319 107.746 218.387 110.85 216.817C114.993 214.694 119.446 213.197 124.076 212.379C124.165 212.357 124.26 212.342 124.349 212.327C132.532 210.838 141.106 211.398 149.459 213.086C153.639 213.941 157.768 215.128 161.823 216.551C163.858 217.251 165.922 217.885 168.045 218.438C170.176 218.984 172.343 219.463 174.71 219.743C173.25 217.834 171.451 216.381 169.579 215.076C168.495 214.353 168.503 214.302 167.345 213.705C167.205 213.521 166.866 213.115 166.541 212.695C166.209 212.275 165.9 211.847 165.796 211.619C165.641 211.258 165.508 210.874 165.405 210.476C169.504 212.275 173.47 214.361 177.282 216.713C180.26 218.593 183.143 220.628 185.9 222.825C187.706 224.255 189.454 225.759 191.142 227.33C195.425 231.289 199.333 235.653 202.805 240.342C203.616 241.426 204.397 242.532 205.149 243.652C206.034 244.942 206.874 246.254 207.678 247.589C208.423 248.835 209.138 250.103 209.816 251.378C210.156 252.022 210.48 252.663 210.79 253.304Z" fill="white"/>
<path opacity="0.7" d="M261.431 306.01C249.318 308.458 229.943 303.599 219.298 255.015C219.298 255.015 219.128 251.498 216.607 254.521L216.622 254.41C216.755 253.385 216.91 252.36 217.33 251.387C217.728 250.414 218.229 249.463 218.9 248.585C219.453 247.848 220.102 247.147 220.795 246.491C221.215 248.887 221.658 251.276 222.203 253.657C222.549 255.286 222.889 256.916 223.294 258.538C223.353 258.789 223.419 259.039 223.486 259.29L224.208 262.092C224.437 263.028 224.695 263.957 224.982 264.879L225.048 265.108L225.815 267.659C226.095 268.581 226.346 269.517 226.685 270.424L227.651 273.174C227.975 274.088 228.285 275.002 228.668 275.902C229.413 277.701 230.069 279.522 230.939 281.284L232.185 283.931L233.578 286.519L234.286 287.817C234.529 288.237 234.802 288.65 235.06 289.07C235.583 289.903 236.085 290.751 236.638 291.569L238.385 293.98C238.967 294.776 239.66 295.513 240.287 296.273C242.617 298.912 245.322 301.316 248.434 303.129C248.839 303.372 249.26 303.601 249.68 303.815C253.292 305.634 257.45 306.496 261.431 306.01Z" fill="white"/>
<path opacity="0.7" d="M194.238 112.663C195.729 118.394 202.428 120.652 202.887 120.8C200.439 120.394 198.154 119.878 196.377 118.795C195.47 118.294 194.711 117.638 194.062 116.922C193.413 116.2 192.868 115.389 192.447 114.482C191.577 112.691 191.127 110.597 190.884 108.466C190.795 107.817 190.751 107.168 190.714 106.512C191.112 106.733 191.518 106.954 191.923 107.161C193.832 108.083 195.779 108.857 197.747 109.498C199.723 110.125 201.713 110.641 203.726 111.061C204.729 111.267 205.739 111.452 206.749 111.614C207.781 111.776 208.754 111.902 209.875 112.005C206.92 112.479 198.982 111.593 195.566 111.171C194.725 111.067 194.025 111.843 194.238 112.663Z" fill="white"/>
<path d="M167.366 177.022C169.356 178.419 175.054 182.529 179.125 186.55C179.891 187.307 181.142 186.471 180.736 185.474C177.782 178.215 172.024 167.109 167.08 175.714C166.824 176.158 166.946 176.727 167.366 177.022Z" fill="#FFDAB6"/>
<path d="M233.588 186.326C231.476 187.531 225.418 191.09 220.99 194.713C220.157 195.395 218.989 194.446 219.486 193.491C223.105 186.54 229.877 176.021 233.995 185.05C234.208 185.516 234.033 186.071 233.588 186.326Z" fill="#FFDAB6"/>
<defs>
<linearGradient id="paint0_linear_550_12208" x1="210.17" y1="244.207" x2="219.297" y2="244.207" gradientUnits="userSpaceOnUse">
<stop stop-color="#FF7F00"/>
<stop offset="0.1889" stop-color="#FC7707"/>
<stop offset="0.4858" stop-color="#F4601B"/>
<stop offset="0.8516" stop-color="#E83C3C"/>
<stop offset="1" stop-color="#E22B4B"/>
</linearGradient>
<linearGradient id="paint1_linear_550_12208" x1="175.246" y1="242.23" x2="250.603" y2="333.701" gradientUnits="userSpaceOnUse">
<stop stop-color="#FF7F00"/>
<stop offset="0.1889" stop-color="#FC7707"/>
<stop offset="0.4858" stop-color="#F4601B"/>
<stop offset="0.8516" stop-color="#E83C3C"/>
<stop offset="1" stop-color="#E22B4B"/>
</linearGradient>
<linearGradient id="paint2_linear_550_12208" x1="195.545" y1="129.61" x2="250.027" y2="218.806" gradientUnits="userSpaceOnUse">
<stop stop-color="#FF7F00"/>
<stop offset="0.1885" stop-color="#FD7707"/>
<stop offset="0.2174" stop-color="#FC7509"/>
<stop offset="0.4169" stop-color="#F76716"/>
<stop offset="0.7929" stop-color="#EA4236"/>
<stop offset="1" stop-color="#E22B4B"/>
</linearGradient>
</defs>
</svg>
