<svg width="4000" height="4000" viewBox="0 0 4000 4000" fill="none" xmlns="http://www.w3.org/2000/svg">
<path opacity="0.3" d="M1902.5 3490C1293.61 3490 800 3434.35 800 3365.7C800 3297.05 1293.61 3241.4 1902.5 3241.4C2511.39 3241.4 3005 3297.05 3005 3365.7C3005 3434.35 2511.39 3490 1902.5 3490Z" fill="#66142E"/>
<g clip-path="url(#clip0_1525_20537)">
<path opacity="0.3" d="M1874.82 3489.42C1214.78 3489.42 679.72 3472.63 679.72 3451.92C679.72 3431.21 1214.78 3414.42 1874.82 3414.42C2534.86 3414.42 3069.92 3431.21 3069.92 3451.92C3069.92 3472.63 2534.86 3489.42 1874.82 3489.42Z" fill="#66142E"/>
<path d="M1897.66 3019.36C1897.66 3031.81 1899.84 3043.79 1903.83 3054.89C1918.46 3095.4 1957.25 3124.39 2002.69 3124.39C2026.13 3124.39 2047.81 3116.66 2065.29 3103.64C2082.82 3090.62 2096.15 3072.26 2102.84 3050.94L2004.45 3055.61L2002.74 3019.36H2002.69C1989.15 3008.83 1986.72 2989.28 1997.24 2975.69L2039.72 2921.08C2028.21 2916.72 2015.76 2914.34 2002.69 2914.34C1944.8 2914.33 1897.66 2961.43 1897.66 3019.36Z" fill="#8C6571"/>
<g opacity="0.6">
<path d="M2024.45 3065.67L2023.93 3054.68L2102.84 3050.94C2101.63 3054.79 2100.13 3058.51 2098.5 3062.16L2024.45 3065.67Z" fill="white"/>
</g>
<g opacity="0.6">
<path d="M2002.68 2914.33C2015.75 2914.33 2028.2 2916.72 2039.71 2921.07L2036.36 2925.38C2031.88 2924.79 2027.34 2924.39 2022.68 2924.39C1964.8 2924.39 1917.65 2971.48 1917.65 3029.42C1917.65 3041.87 1919.83 3053.85 1923.82 3064.95C1931.71 3086.81 1946.68 3105.25 1965.89 3117.66C1937.13 3106.86 1914.28 3083.85 1903.82 3054.89C1899.83 3043.79 1897.65 3031.81 1897.65 3019.36C1897.66 2961.43 1944.8 2914.33 2002.68 2914.33Z" fill="white"/>
</g>
<path d="M905.939 2997.11C905.939 3038.81 912.059 3079.11 923.469 3117.18C975.179 3290.2 1135.81 3416.7 1325.48 3416.7C1540.05 3416.7 1717.58 3254.72 1742.06 3046.59C1744.03 3030.36 1745.02 3013.86 1745.02 2997.11C1745.02 2867.97 1686.36 2752.2 1594.25 2675.18C1582.79 2701.74 1571.38 2726.22 1560.12 2748.83V2748.88C1568.94 2757.23 1577.34 2766.05 1585.22 2775.28C1636.36 2835.03 1667.22 2912.57 1667.22 2997.11C1667.22 3039.9 1659.34 3080.92 1644.87 3118.73C1630.35 3156.7 1609.24 3191.5 1582.94 3221.63C1520.29 3293.46 1428.07 3338.9 1325.48 3338.9C1233.73 3338.9 1150.33 3302.54 1088.87 3243.52C1083.58 3238.44 1078.39 3233.15 1073.47 3227.7C1017.77 3166.91 983.74 3085.9 983.74 2997.11C983.74 2909.2 1017.09 2828.96 1071.81 2768.38C1134.36 2699.04 1224.92 2655.37 1325.48 2655.37C1388.65 2655.37 1447.88 2672.64 1498.66 2702.62C1509.91 2680.84 1521.27 2657.45 1532.53 2632.34C1471.38 2597.49 1400.74 2577.57 1325.48 2577.57C1094.11 2577.57 905.939 2765.79 905.939 2997.11Z" fill="#66142E"/>
<path d="M2065.29 3103.64C2112.54 3283.56 2276.59 3416.7 2471.14 3416.7C2682.65 3416.7 2858.11 3259.39 2886.63 3055.67C2889.33 3036.53 2890.73 3016.98 2890.73 2997.11C2890.73 2835.5 2798.82 2694.89 2664.49 2624.87C2662 2623.57 2659.51 2622.28 2656.97 2621.03C2614.23 2599.82 2567.35 2585.66 2517.92 2580.16C2507.65 2605.68 2493.8 2630.88 2475.6 2655.42C2570.05 2656.61 2655.42 2696.34 2716.62 2759.62C2776.21 2821.13 2812.93 2904.89 2812.93 2997.11C2812.93 3032.69 2807.48 3067.02 2797.32 3099.34C2782.28 3147.21 2756.97 3190.57 2724.03 3226.83C2661.48 3295.66 2571.29 3338.91 2471.13 3338.91C2374.87 3338.91 2287.79 3298.92 2225.65 3234.66C2181.88 3189.43 2150.45 3132.23 2136.86 3068.43C2135.51 3062.21 2134.37 3055.88 2133.39 3049.5C2130.74 3032.44 2129.4 3014.91 2129.4 2997.12C2129.4 2990.38 2129.61 2983.64 2130.02 2977C2131.94 2943.6 2138.73 2911.44 2149.62 2881.26L2088.83 2959.37C2092.98 2965.33 2096.56 2971.71 2099.36 2978.46C2104.75 2991.01 2107.71 3004.86 2107.71 3019.38C2107.71 3030.38 2106 3041.01 2102.83 3050.97C2096.15 3072.26 2082.82 3090.62 2065.29 3103.64Z" fill="#66142E"/>
<path d="M1274.91 2997.11C1274.91 3010.96 1280.46 3023.51 1289.48 3032.64C1298.61 3041.92 1311.37 3047.68 1325.47 3047.68C1341.55 3047.68 1355.86 3040.16 1365.1 3028.49C1371.95 3019.88 1376.04 3008.99 1376.04 2997.11C1376.04 2969.21 1353.43 2946.59 1325.52 2946.54H1325.47C1311.47 2946.54 1298.76 2952.25 1289.58 2961.48C1280.51 2970.61 1274.91 2983.21 1274.91 2997.11Z" fill="#8C6571"/>
<path d="M2420.57 2997.11C2420.57 3012.26 2427.21 3025.79 2437.74 3035.08C2446.61 3042.91 2458.33 3047.68 2471.14 3047.68C2486.08 3047.68 2499.51 3041.2 2508.79 3030.93C2516.83 3021.96 2521.7 3010.08 2521.7 2997.11C2521.7 2983.47 2516.31 2971.07 2507.49 2962C2498.31 2952.46 2485.4 2946.54 2471.13 2946.54C2456.61 2946.54 2443.49 2952.66 2434.25 2962.51C2434.2 2962.61 2434.09 2962.72 2433.99 2962.82C2425.65 2971.8 2420.57 2983.88 2420.57 2997.11Z" fill="#8C6571"/>
<g opacity="0.6">
<path d="M1294.59 2966.48C1303.77 2957.25 1316.48 2951.54 1330.48 2951.54H1330.53C1350.3 2951.58 1367.36 2962.96 1375.66 2979.5C1367.24 2973.22 1356.84 2969.45 1345.53 2969.42H1345.48C1331.48 2969.42 1318.77 2975.13 1309.59 2984.36C1300.51 2993.49 1294.91 3006.09 1294.91 3019.99C1294.91 3028.14 1296.87 3035.81 1300.29 3042.63C1298.24 3041.1 1296.27 3039.46 1294.48 3037.64C1285.46 3028.51 1279.91 3015.96 1279.91 3002.11C1279.91 2988.21 1285.51 2975.61 1294.59 2966.48Z" fill="white"/>
</g>
<g opacity="0.6">
<path d="M2439 2967.83C2439.1 2967.73 2439.21 2967.62 2439.26 2967.52C2448.49 2957.67 2461.61 2951.55 2476.14 2951.55C2490.4 2951.55 2503.32 2957.46 2512.5 2967.01C2514.8 2969.37 2516.85 2971.97 2518.64 2974.75C2510.72 2969.59 2501.29 2966.55 2491.14 2966.55C2476.62 2966.55 2463.5 2972.67 2454.26 2982.52C2454.21 2982.62 2454.11 2982.73 2454 2982.83C2445.65 2991.8 2440.57 3003.89 2440.57 3017.11C2440.57 3027.27 2443.61 3036.67 2448.76 3044.58C2446.65 3043.21 2444.62 3041.73 2442.74 3040.07C2432.21 3030.79 2425.57 3017.25 2425.57 3002.1C2425.57 2988.88 2430.65 2976.8 2439 2967.83Z" fill="white"/>
</g>
<path d="M1637.5 2314.66C1635.74 2325.91 1633.61 2337.12 1631.12 2348.27L1704.41 2362.9C1706.9 2338.94 1710.79 2314.2 1715.98 2288.63L1661.11 2221.36L1690.41 2194.7C1645.24 2180.64 1655.25 2130.54 1700.01 2084.59C1690.99 2086.51 1682.27 2088.43 1673.87 2090.35L1606.76 2153L1563.5 2120.64C1546.12 2126.19 1536.53 2129.82 1536.53 2129.82C1532.38 2148.7 1526.11 2161.72 1518.64 2170.12C1652.18 2252.27 1637.5 2314.66 1637.5 2314.66Z" fill="#8C6571"/>
<path d="M1325.53 2946.54C1335.75 2946.54 1345.24 2949.6 1353.17 2954.84C1366.97 2963.86 1376.04 2979.42 1376.04 2997.11H1378.11C1388.12 2990.11 1440.25 2950.74 1505.65 2846.39L1505.75 2846.29C1516.38 2829.33 1527.33 2810.66 1538.53 2790.12C1545.64 2777.15 1552.84 2763.41 1560.11 2748.89V2748.84C1571.36 2726.23 1582.78 2701.75 1594.24 2675.19C1610.16 2638.31 1626.14 2597.55 1641.8 2552.53C1641.8 2552.48 1641.8 2552.48 1641.8 2552.43H1641.85C1641.85 2552.48 1641.85 2552.48 1641.8 2552.53C1655.86 2612.33 1680.6 2666.01 1716.12 2713.11C1822.6 2854.55 1992.56 2892.72 2054.39 2902.21L2087.79 2859.27C2077.88 2852.11 2071.3 2841.89 2068.55 2830.8H2068.5C2032.82 2825.46 1938.89 2806.37 1855.33 2747.4C1825.87 2726.6 1797.66 2700.82 1773.75 2668.98C1714.62 2590.14 1691.39 2487.4 1704.41 2362.92L1660.27 2354.1L1631.12 2348.29C1628.37 2360.63 1625.21 2372.93 1621.78 2385.06C1594.39 2481.37 1563.64 2563.32 1532.52 2632.35C1521.27 2657.45 1509.91 2680.84 1498.65 2702.63C1452.49 2792.15 1408.14 2853.97 1375.83 2893.08C1347.78 2926.93 1328.85 2943.64 1325.53 2946.54Z" fill="#FF245E"/>
<path d="M2073.02 2979.68L2099.37 2978.44C2096.57 2971.7 2092.99 2965.32 2088.84 2959.35L2073.02 2979.68Z" fill="#FF8888"/>
<path d="M1443.89 2138.74C1441.56 2127.07 1442.8 2114.47 1448.3 2102.8C1452.66 2093.57 1457.58 2084.85 1463.03 2076.66C1463.03 2076.66 1420.45 2068.52 1404.21 2084.6C1382.53 2105.96 1384.35 2142 1443.89 2138.74Z" fill="#8C6571"/>
<g opacity="0.3">
<path d="M1278.56 2996.73C1287.69 3006.01 1300.45 3011.77 1314.55 3011.77C1330.63 3011.77 1344.94 3004.25 1354.18 2992.58C1360.18 2985.03 1364.07 2975.72 1364.94 2965.54C1371.88 2974.19 1376.05 2985.16 1376.05 2997.11C1376.05 3008.99 1371.95 3019.88 1365.11 3028.49C1355.88 3040.16 1341.56 3047.68 1325.48 3047.68C1311.37 3047.68 1298.61 3041.92 1289.49 3032.64C1280.47 3023.51 1274.92 3010.96 1274.92 2997.11C1274.92 2995.67 1275.02 2994.26 1275.13 2992.85C1276.21 2994.2 1277.35 2995.5 1278.56 2996.73Z" fill="#66142E"/>
</g>
<g opacity="0.3">
<path d="M1903.83 3054.89C1918.46 3095.4 1957.25 3124.39 2002.69 3124.39C2026.13 3124.39 2047.81 3116.66 2065.29 3103.64C2112.54 3283.56 2276.59 3416.7 2471.14 3416.7C2682.65 3416.7 2858.11 3259.39 2886.63 3055.67C2861.68 3069.88 2831.76 3085.08 2797.32 3099.34C2782.28 3147.21 2756.97 3190.57 2724.03 3226.83C2661.48 3295.66 2571.29 3338.91 2471.13 3338.91C2374.87 3338.91 2287.79 3298.92 2225.65 3234.66C2181.88 3189.43 2150.45 3132.23 2136.86 3068.43C2125.61 3062.93 2114.25 3057.12 2102.84 3050.95C2102.84 3050.94 1993.71 3074.34 1903.83 3054.89Z" fill="#66142E"/>
</g>
<g opacity="0.3">
<path d="M923.469 3117.18C975.179 3290.2 1135.81 3416.7 1325.48 3416.7C1540.05 3416.7 1717.58 3254.72 1742.06 3046.59C1714.62 3065.73 1682 3091.45 1644.86 3118.73C1630.34 3156.7 1609.23 3191.5 1582.93 3221.63C1520.28 3293.46 1428.06 3338.9 1325.47 3338.9C1233.72 3338.9 1150.32 3302.54 1088.86 3243.52C1083.57 3238.44 1078.38 3233.15 1073.46 3227.7C1024.56 3202.7 974.449 3166.71 923.469 3117.18Z" fill="#66142E"/>
</g>
<g opacity="0.3">
<path d="M2451.68 3015.47C2466.62 3015.47 2480.05 3008.99 2489.33 2998.72C2497.37 2989.75 2502.24 2977.87 2502.24 2964.9C2502.24 2962.14 2501.96 2959.44 2501.54 2956.79C2503.64 2958.38 2505.66 2960.09 2507.48 2961.99C2516.3 2971.07 2521.69 2983.46 2521.69 2997.1C2521.69 3010.07 2516.81 3021.94 2508.78 3030.92C2499.5 3041.19 2486.06 3047.67 2471.13 3047.67C2458.32 3047.67 2446.6 3042.9 2437.73 3035.07C2429.15 3027.5 2423.22 3017.08 2421.3 3005.3C2429.74 3011.67 2440.27 3015.47 2451.68 3015.47Z" fill="#66142E"/>
</g>
<g opacity="0.3">
<path d="M1641.81 2552.52C1655.87 2612.32 1680.61 2666 1716.13 2713.1C1822.61 2854.54 1992.57 2892.71 2054.4 2902.2L2087.8 2859.26C2077.89 2852.1 2071.31 2841.88 2068.56 2830.79H2068.51C2032.83 2825.45 1938.9 2806.36 1855.34 2747.39C1780.6 2706.14 1703.47 2644.53 1641.81 2552.52Z" fill="#66142E"/>
</g>
<g opacity="0.3">
<path d="M1325.53 2946.54C1353.43 2946.59 1376.05 2969.21 1376.05 2997.11H1378.12C1388.13 2990.11 1440.26 2950.74 1505.66 2846.39L1505.76 2846.29C1516.39 2829.33 1527.34 2810.66 1538.54 2790.12C1500.21 2832.49 1447.67 2870.36 1375.84 2893.07C1347.78 2926.93 1328.85 2943.64 1325.53 2946.54Z" fill="#66142E"/>
</g>
<g opacity="0.6">
<path d="M1325.48 2577.57C1400.74 2577.57 1471.38 2597.49 1532.53 2632.34C1531.68 2634.23 1530.83 2636.04 1529.99 2637.9C1476.81 2613.46 1417.73 2599.79 1355.47 2599.79C1124.1 2599.79 935.929 2788.01 935.929 3019.33C935.929 3061.03 942.049 3101.33 953.459 3139.4C977.859 3221.04 1026.53 3292.3 1091.04 3344.83C1011.66 3291.12 951.529 3211.02 923.479 3117.18C912.069 3079.11 905.949 3038.81 905.949 2997.11C905.939 2765.79 1094.11 2577.57 1325.48 2577.57Z" fill="white"/>
</g>
<g opacity="0.6">
<path d="M1325.53 2946.54C1335.75 2946.54 1345.24 2949.6 1353.17 2954.84C1561.57 2757.91 1638.17 2462.53 1660.26 2354.08L1631.11 2348.27C1628.36 2360.61 1625.2 2372.91 1621.77 2385.04C1594.38 2481.35 1563.63 2563.3 1532.51 2632.33C1521.26 2657.43 1509.9 2680.82 1498.64 2702.61C1452.48 2792.13 1408.13 2853.95 1375.82 2893.06C1347.78 2926.93 1328.85 2943.64 1325.53 2946.54Z" fill="white"/>
</g>
<path d="M2471.16 3434.84C2712.51 3434.84 2908.87 3238.49 2908.87 2997.13C2908.87 2773.83 2741.66 2586.82 2519.92 2562.13L2515.91 2598.21C2719.24 2620.85 2872.57 2792.35 2872.57 2997.13C2872.57 3218.47 2692.5 3398.54 2471.17 3398.54C2288.86 3398.54 2129.18 3275.38 2082.87 3099.03L2047.75 3108.25C2098.24 3300.54 2272.36 3434.84 2471.16 3434.84ZM2471.16 3357.04C2669.61 3357.04 2831.07 3195.58 2831.07 2997.13C2831.07 2801.21 2671.72 2639.77 2475.86 2637.25L2475.39 2673.55C2651.49 2675.82 2794.77 2820.97 2794.77 2997.12C2794.77 3175.56 2649.6 3320.73 2471.17 3320.73C2292.73 3320.73 2147.57 3175.56 2147.57 2997.12C2147.57 2959.46 2154.01 2922.54 2166.72 2887.39L2132.58 2875.05C2118.43 2914.17 2111.26 2955.25 2111.26 2997.13C2111.24 3195.58 2272.7 3357.04 2471.16 3357.04Z" fill="#66142E"/>
<path d="M1325.48 3434.84C1566.83 3434.84 1763.19 3238.49 1763.19 2997.13C1763.19 2867.28 1705.85 2744.86 1605.88 2661.26L1582.59 2689.11C1674.29 2765.79 1726.88 2878.06 1726.88 2997.13C1726.88 3218.47 1546.82 3398.54 1325.48 3398.54C1104.14 3398.54 924.081 3218.47 924.081 2997.13C924.081 2775.8 1104.15 2595.73 1325.48 2595.73C1396.22 2595.73 1465.82 2614.47 1526.74 2649.93L1545 2618.55C1478.54 2579.87 1402.63 2559.42 1325.48 2559.42C1084.13 2559.42 887.771 2755.77 887.771 2997.12C887.771 3238.48 1084.12 3434.84 1325.48 3434.84ZM1325.48 3357.04C1523.93 3357.04 1685.39 3195.58 1685.39 2997.13C1685.39 2898.74 1644.26 2803.43 1572.54 2735.64L1547.6 2762.02C1613.04 2823.88 1649.08 2907.38 1649.08 2997.13C1649.08 3175.57 1503.91 3320.74 1325.48 3320.74C1147.04 3320.74 1001.88 3175.57 1001.88 2997.13C1001.88 2818.7 1147.05 2673.53 1325.48 2673.53C1384.12 2673.53 1441.59 2689.45 1491.69 2719.57L1510.4 2688.45C1454.65 2654.94 1390.71 2637.22 1325.48 2637.22C1127.02 2637.22 965.571 2798.67 965.571 2997.12C965.561 3195.58 1127.02 3357.04 1325.48 3357.04Z" fill="#66142E"/>
<path d="M2002.7 3137.35C2067.76 3137.35 2120.7 3084.42 2120.7 3019.36C2120.7 2995.1 2113.36 2971.78 2099.48 2951.92L2078.22 2966.77C2089.05 2982.26 2094.76 3000.44 2094.76 3019.36C2094.76 3070.12 2053.46 3111.42 2002.7 3111.42C1951.94 3111.42 1910.64 3070.12 1910.64 3019.36C1910.64 2968.6 1951.93 2927.3 2002.7 2927.3C2014.15 2927.3 2025.32 2929.38 2035.91 2933.49L2045.29 2909.32C2031.7 2904.04 2017.37 2901.37 2002.7 2901.37C1937.64 2901.37 1884.71 2954.3 1884.71 3019.36C1884.71 3084.42 1937.64 3137.35 2002.7 3137.35Z" fill="#66142E"/>
<path d="M2002.7 3077.71C1970.47 3077.71 1944.35 3051.59 1944.35 3019.36C1944.35 2987.13 1970.47 2961.01 2002.7 2961.01C2034.93 2961.01 2061.05 2987.13 2061.05 3019.36C2061.05 3051.59 2034.93 3077.71 2002.7 3077.71Z" fill="#66142E"/>
<path d="M1325.47 3065.85C1363.37 3065.85 1394.2 3035.02 1394.2 2997.13C1394.2 2959.24 1363.37 2928.41 1325.47 2928.41C1287.58 2928.41 1256.75 2959.24 1256.75 2997.13C1256.75 3035.02 1287.58 3065.85 1325.47 3065.85ZM1325.47 2964.71C1343.35 2964.71 1357.89 2979.25 1357.89 2997.13C1357.89 3015.01 1343.35 3029.55 1325.47 3029.55C1307.6 3029.55 1293.06 3015.01 1293.06 2997.13C1293.06 2979.25 1307.6 2964.71 1325.47 2964.71Z" fill="#66142E"/>
<path d="M2471.16 3065.85C2509.05 3065.85 2539.88 3035.02 2539.88 2997.13C2539.88 2959.24 2509.05 2928.41 2471.16 2928.41C2433.26 2928.41 2402.43 2959.24 2402.43 2997.13C2402.43 3035.02 2433.26 3065.85 2471.16 3065.85ZM2471.16 2964.71C2489.03 2964.71 2503.57 2979.25 2503.57 2997.13C2503.57 3015.01 2489.03 3029.55 2471.16 3029.55C2453.28 3029.55 2438.74 3015.01 2438.74 2997.13C2438.74 2979.25 2453.28 2964.71 2471.16 2964.71Z" fill="#66142E"/>
<path d="M2021.77 3025.89C2031.05 3025.89 2040.23 3021.79 2046.35 3013.91L2073.01 2979.68L2099.36 2978.44L2130.01 2976.99L2433.68 2962.57L2433.99 2962.83C2425.64 2971.8 2420.56 2983.89 2420.56 2997.11C2420.56 3012.26 2427.2 3025.79 2437.73 3035.08L2431.61 3035.39L2133.38 3049.5C2133.34 3049.25 2133.32 3049.01 2133.28 3048.76L2133.38 3050.95H2102.83L2040.69 3053.9C2020.67 3054.85 2003.67 3039.39 2002.73 3019.37C2008.44 3023.77 2015.13 3025.89 2021.77 3025.89Z" fill="#FF245E"/>
<path d="M2065.82 2848.71L2071.24 2812.81C2027.1 2806.15 1876.25 2775.3 1788.28 2658.04C1720.99 2568.36 1702.65 2445.29 1733.76 2292.22C1734.84 2286.89 1733.48 2281.34 1730.03 2277.12L1686.02 2223.2L1702.61 2208.1L1678.18 2181.24L1648.86 2207.91C1641.73 2214.4 1640.92 2225.34 1647.01 2232.82L1696.49 2293.44C1665.64 2453.22 1686.72 2583.18 1759.22 2679.8C1855.49 2808.13 2018.24 2841.53 2065.82 2848.71Z" fill="#66142E"/>
<path d="M1325.77 2965.09C1328.59 2964.97 1331.11 2964.86 1336.65 2960.76C1342.52 2956.41 1351.76 2947.56 1368.3 2929.45C1385.74 2910.36 1413.1 2877.76 1444.48 2830.9C1499.5 2748.73 1577.95 2605.54 1639.22 2390.01C1646.49 2364.47 1651.77 2340.89 1655.38 2317.95C1657.59 2306.79 1664.44 2238.5 1528.12 2154.69L1509.11 2185.62C1622.04 2255.06 1620.15 2306.44 1619.75 2310.85C1619.62 2311.3 1619.7 2311.14 1619.58 2311.89C1616.2 2333.5 1611.2 2355.81 1604.29 2380.09C1489.81 2782.76 1315.23 2931.49 1313.48 2932.94C1303.99 2941.11 1307.24 2951.4 1308.01 2953.41L1325.77 2965.09Z" fill="#66142E"/>
<path d="M1386.53 3013.32C1392.25 3009.58 1521.32 2922.45 1640.09 2610.24C1655.08 2651.47 1675.67 2689.58 1701.61 2724.02C1811.08 2869.38 1982.89 2909.58 2051.68 2920.11L2057.18 2884.22C1992.79 2874.36 1832.05 2836.88 1730.61 2702.18C1696.91 2657.44 1673.04 2605.85 1659.64 2548.84C1659.01 2545.65 1657.51 2542.63 1655.24 2540.15C1650.74 2535.23 1643.91 2533.16 1637.43 2534.78C1631.08 2536.37 1626.35 2541.12 1624.51 2546.95C1505.05 2889.47 1372.27 2979.27 1366.68 2982.93L1386.53 3013.32Z" fill="#66142E"/>
<path d="M2054.52 3071.34C2055.67 3071.34 2056.81 3071.31 2057.96 3071.26L2438.6 3053.2L2436.88 3016.94L2056.25 3035C2047 3035.45 2038.18 3032.26 2031.34 3026.04C2024.5 3019.82 2020.5 3011.32 2020.07 3002.09L2019.99 3000.37L2435.15 2980.67L2433.43 2944.41L1981.99 2965.83L1983.81 3003.82C1984.7 3022.73 1992.91 3040.16 2006.92 3052.9C2020.07 3064.86 2036.86 3071.34 2054.52 3071.34Z" fill="#66142E"/>
<path d="M2002.69 3019.36H2002.74C2008.45 3023.77 2015.14 3025.9 2021.77 3025.9C2031.05 3025.9 2040.23 3021.8 2046.35 3013.92L2073.01 2979.69L2088.83 2959.36L2149.62 2881.25C2133.8 2877.57 2116.94 2872.38 2099.1 2865.38C2094.95 2863.77 2091.16 2861.7 2087.79 2859.26L2054.39 2902.2L2039.71 2921.08L1997.23 2975.69C1986.71 2989.28 1989.15 3008.83 2002.69 3019.36Z" fill="#8C6571"/>
<g opacity="0.6">
<path d="M1997.24 2970.75L2039.72 2916.14L2054.4 2897.26L2087.8 2854.32C2091.17 2856.76 2094.96 2858.83 2099.11 2860.44C2116.95 2867.44 2133.81 2872.63 2149.63 2876.31L2143.53 2884.15C2135.61 2881.63 2127.48 2878.78 2119.11 2875.5C2114.96 2873.89 2111.18 2871.82 2107.8 2869.38L2074.4 2912.32L2059.72 2931.2L2017.24 2985.81C2009.37 2995.96 2008.75 3009.44 2014.58 3020C2010.42 3019 2006.37 3017.22 2002.74 3014.42H2002.69C1989.15 3003.89 1986.71 2984.34 1997.24 2970.75Z" fill="white"/>
</g>
<path d="M2021.76 3038.87C2034.91 3038.87 2047.92 3033.03 2056.61 3021.88L2159.87 2889.19L2139.4 2873.26L2036.14 3005.95C2029.99 3013.85 2018.57 3015.28 2010.66 3009.13C2006.83 3006.15 2004.4 3001.86 2003.79 2997.05C2003.18 2992.24 2004.49 2987.48 2007.47 2983.65L2098.04 2867.22L2077.57 2851.3L1987 2967.73C1972.07 2986.92 1975.54 3014.68 1994.73 3029.61C2002.77 3035.84 2012.3 3038.87 2021.76 3038.87Z" fill="#66142E"/>
<path d="M1317.69 2655.38H1333.25V2946.57H1317.69V2655.38Z" fill="#66142E"/>
<path d="M1317.69 3047.7H1333.25V3338.89H1317.69V3047.7Z" fill="#66142E"/>
<path d="M983.72 2989.35H1274.91V3004.91H983.72V2989.35Z" fill="#66142E"/>
<path d="M1376.04 2989.35H1667.23V3004.91H1376.04V2989.35Z" fill="#66142E"/>
<path d="M1283.81 3027.33L1295.09 3038.06L1094.47 3248.93L1083.19 3238.2L1283.81 3027.33Z" fill="#66142E"/>
<path d="M1076.9 2762.46L1294.7 2955.6L1284.38 2967.24L1066.57 2774.1L1076.9 2762.46Z" fill="#66142E"/>
<path d="M1370.21 3022.59L1588.03 3215.75L1577.7 3227.39L1359.89 3034.23L1370.21 3022.59Z" fill="#66142E"/>
<path d="M1580.02 2769.33L1590.39 2780.93L1510.84 2852.05L1500.47 2840.45L1580.02 2769.33Z" fill="#66142E"/>
<path d="M2521.72 2989.35H2812.91V3004.91H2521.72V2989.35Z" fill="#66142E"/>
<path d="M2463.37 3047.7H2478.93V3338.89H2463.37V3047.7Z" fill="#66142E"/>
<path d="M2318.72 2847.37L2439.21 2957.11L2428.73 2968.61L2308.24 2858.87L2318.72 2847.37Z" fill="#66142E"/>
<path d="M2513.97 3025.12L2729.17 3221.14L2718.69 3232.65L2503.49 3036.63L2513.97 3025.12Z" fill="#66142E"/>
<path d="M2426.33 3029.87L2437.15 3041.05L2231.18 3240.37L2220.36 3229.18L2426.33 3029.87Z" fill="#66142E"/>
<path d="M2711.28 2754.09L2722.1 2765.27L2512.95 2967.66L2502.13 2956.48L2711.28 2754.09Z" fill="#66142E"/>
<path d="M2463.37 2661.23H2478.93V2946.56H2463.37V2661.23Z" fill="#66142E"/>
<path d="M1606.76 2171.17C1611.23 2171.17 1615.69 2169.52 1619.16 2166.28L1686.25 2103.59L1661.46 2077.06L1605.47 2129.37L1574.32 2106.06L1552.56 2135.13L1595.88 2167.55C1599.13 2169.98 1602.95 2171.17 1606.76 2171.17Z" fill="#66142E"/>
<path d="M1634.74 2330.58L1708.05 2345.2L1700.95 2380.81L1627.64 2366.19L1634.74 2330.58Z" fill="#66142E"/>
<path d="M1436.74 2157.12C1439.34 2157.12 1442.05 2157.04 1444.87 2156.89L1442.9 2120.64C1420.06 2121.88 1411.44 2116.37 1410.07 2113.27C1408.71 2110.2 1410.92 2103.46 1416.96 2097.49C1422.32 2092.2 1443.91 2091.53 1459.66 2094.47L1466.42 2058.8C1457.74 2057.15 1413.37 2050.01 1391.46 2071.66C1374.76 2088.15 1369.03 2110.25 1376.88 2127.96C1381.82 2139.15 1396.11 2157.11 1436.74 2157.12Z" fill="#66142E"/>
<g opacity="0.3">
<path d="M2001.55 3010.47C2010.83 3010.47 2020.01 3006.37 2026.13 2998.49L2052.79 2964.26L2068.61 2943.93L2123.12 2873.89C2132.24 2876.8 2141.09 2879.26 2149.62 2881.25L2088.83 2959.36L2073.01 2979.69L2046.35 3013.92C2040.23 3021.8 2031.05 3025.9 2021.77 3025.9C2015.13 3025.9 2008.44 3023.77 2002.74 3019.36H2002.69C1999.16 3016.61 1996.4 3013.24 1994.41 3009.54C1996.77 3010.1 1999.16 3010.47 2001.55 3010.47Z" fill="#66142E"/>
</g>
<path d="M1492.8 1555.56C1494.87 1574.65 1498.45 1596.02 1504.05 1618.78C1529.15 1721.68 1594.71 1853.89 1744.45 1941.07C1785.58 1965.03 1833.04 1985.57 1887.81 2001.18C1905.03 2006.06 1922.92 2010.46 1941.59 2014.35C2197.65 2067.56 2331.88 2033.64 2396.35 2000.97C2434.73 1981.52 2448.42 1962.49 2448.42 1962.49C2448.42 1962.49 2441.68 1948.38 2427.93 1935.52C2427.93 1935.52 2488.87 1925.67 2521.18 1895.27C2521.18 1895.27 2521.18 1895.27 2521.18 1895.22C2520.66 1894.03 2514.64 1878.21 2516.25 1843.98C2517.75 1813.48 2525.33 1768.31 2548.41 1705.76C2565.84 1658.51 2587.31 1600.58 2596.49 1537.3C2609.87 1444.82 2596.91 1340.99 2506.35 1242.55C2481.14 1215.17 2449.97 1188.2 2411.7 1162L2410.66 1161.22C2421.55 1146.49 2432.24 1132.38 2442.76 1118.79C2493.22 1053.44 2538.92 1001.21 2579.79 959.41C2579.79 959.41 2579.79 959.41 2579.84 959.41C2764.07 771.41 2852.4 795.68 2852.4 795.68V795.63C2847.99 792.78 2843.06 790.6 2837.72 789.25C2743.79 766.01 2590.32 841.17 2463.56 919.43L2424.09 879.96L2415.12 871.04L2337.27 793.29C2337.27 793.29 2280.58 819.95 2291.68 898.89L2130.95 765.54L2096.1 736.6C2096.1 736.6 2046.52 793.44 2041.28 873.68C2040.76 881.51 2040.66 889.55 2041.07 897.8C2041.07 897.8 2041.12 897.85 2041.12 897.9C2041.28 901.17 2041.54 904.44 2041.85 907.75V907.8C2044.5 934.46 2052.74 963.04 2069.29 992.34C2069.81 993.27 2070.33 994.26 2070.9 995.19C2068.93 995.14 2012.29 994.57 1937.76 1019.05C1827.6 1055.2 1678.28 1146.02 1608.21 1374.02C1608.21 1374.02 1536.79 1406.64 1505.52 1454.46C1502.15 1459.65 1499.24 1464.99 1496.96 1470.54C1494.16 1477.23 1492.24 1484.13 1491.51 1491.23C1489.89 1506.96 1489.89 1529.11 1492.8 1555.56Z" fill="url(#paint0_radial_1525_20537)"/>
<path d="M2411.75 1160.04L2412.79 1160.82C2451.07 1187.01 2482.24 1213.98 2507.44 1241.37C2585.39 1181.57 2569.52 1083.13 2569.52 1083.13C2681.39 1083.34 2705.41 998.95 2705.41 998.95C2646.39 974.78 2583.06 958.81 2580.93 958.24C2580.88 958.24 2580.88 958.24 2580.88 958.24C2531.5 1008.69 2475.13 1074.41 2411.75 1160.04Z" fill="url(#paint1_linear_1525_20537)"/>
<path d="M1938.84 1017.87C2013.37 993.39 2070.01 993.96 2071.98 994.01C2046.83 950.75 2039.93 909.16 2042.36 872.49C2008.03 916.63 1973.07 965.23 1938.84 1017.87Z" fill="url(#paint2_linear_1525_20537)"/>
<path d="M1690.4 2194.7C1766.07 2218.25 1814.72 2165.6 1824.99 2153.1C1826.34 2151.44 1827.01 2150.51 1827.01 2150.51C1829.55 2151.24 1832.04 2151.91 1834.58 2152.58C1845.47 2155.48 1856.26 2158.18 1867 2160.67C1965.29 2183.23 2056.15 2187.59 2121.61 2186.4V2186.45C2121.61 2186.45 2116.06 2284.73 2062.69 2317.51C2062.69 2317.51 2052.16 2308.59 2047.13 2300.29C2047.13 2300.29 1990.49 2395.88 1920.47 2438.1C1920.47 2438.1 1924.26 2518.96 1954.29 2564.81H1954.34C1954.39 2567.82 1954.5 2570.83 1954.7 2573.89C1955.11 2581.72 1956.15 2589.81 1957.71 2598.11C1959.63 2608.17 1962.38 2618.6 1966.01 2629.28C1975.24 2656.41 1987.59 2677.88 2001.75 2694.89C2009.53 2704.28 2017.88 2712.32 2026.54 2719.16C2026.59 2719.16 2026.59 2719.16 2026.59 2719.16C2052.89 2739.96 2082.19 2749.92 2108.28 2754.27C2098.74 2761.12 2088.67 2776.57 2082.24 2782.74C2068.44 2795.97 2064.35 2814.38 2068.5 2830.77H2068.55C2071.3 2841.87 2077.89 2852.09 2087.79 2859.24C2091.16 2861.68 2094.95 2863.75 2099.1 2865.36C2116.94 2872.36 2133.8 2877.55 2149.62 2881.23C2224.2 2898.35 2276.9 2880.81 2313.46 2853.07C2357.65 2819.62 2378.24 2771.23 2385.35 2751C2387.58 2744.62 2391.68 2739.07 2396.97 2734.87C2426.95 2711.38 2451.38 2686.74 2471.14 2661.27V2661.22C2472.64 2659.3 2474.15 2657.33 2475.6 2655.41C2493.8 2630.88 2507.65 2605.67 2517.92 2580.15C2527.05 2557.38 2533.27 2534.3 2537.01 2511.22C2551.07 2425.18 2531.05 2339.03 2501.38 2265.9C2501.38 2265.9 2501.38 2265.9 2501.38 2265.85C2472.96 2195.83 2435.72 2137.79 2411.13 2103.3C2454.9 2111.96 2471.14 2102.99 2471.14 2102.99C2451.17 2056.31 2397.44 1999.78 2397.44 1999.78C2332.97 2032.46 2198.74 2066.38 1942.68 2013.16C1924.06 2009.27 1906.22 2004.91 1889.05 2000.04C1888.95 1999.99 1888.89 1999.99 1888.89 1999.99C1810.52 2005.44 1744.44 2041.02 1703.99 2080.64C1702.64 2081.94 1701.29 2083.23 1700 2084.58C1681.8 2103.25 1669.35 2122.65 1664.06 2139.97C1656.22 2165.34 1663.59 2186.35 1690.4 2194.7Z" fill="url(#paint3_radial_1525_20537)"/>
<path d="M1442.9 2131.63C1443.11 2134.02 1443.42 2136.4 1443.89 2138.74C1447.83 2158.76 1462.25 2176.08 1483.67 2181.32C1495.91 2184.33 1508.41 2181.63 1518.63 2170.12C1526.1 2161.72 1532.37 2148.7 1536.52 2129.82C1536.52 2129.82 1540.1 2128.47 1546.79 2126.19C1551.09 2124.69 1556.7 2122.82 1563.49 2120.64C1566.34 2119.71 1569.45 2118.72 1572.77 2117.68C1596.68 2110.16 1631.43 2100.1 1673.86 2090.35C1680.29 2088.9 1686.93 2087.39 1693.72 2085.94C1695.79 2085.47 1697.87 2085.06 1700 2084.59C1701.3 2083.24 1702.64 2081.95 1703.99 2080.65C1744.44 2041.02 1810.52 2005.45 1888.89 2000C1834.12 1984.39 1786.66 1963.85 1745.53 1939.89C1745.53 1939.89 1611.41 1947.2 1517.27 2019.35C1496.63 2035.12 1477.96 2054.05 1463.02 2076.66C1457.57 2084.85 1452.65 2093.57 1448.29 2102.8C1443.89 2112.13 1442.23 2122.04 1442.9 2131.63Z" fill="url(#paint4_linear_1525_20537)"/>
<path d="M2501.37 2265.91C2531.04 2339.04 2551.06 2425.19 2537 2511.23C2546.54 2524.35 2557.02 2536.49 2568.22 2547.59C2596.12 2575.55 2628.33 2597.38 2660.33 2614.39C2662.87 2615.74 2665.41 2617.04 2667.9 2618.33C2750.63 2660.34 2829.77 2670.51 2829.77 2670.51C2850.88 2609.41 2812.91 2561.54 2812.91 2561.54C3020.06 2544.42 3141.68 2467.92 3211.5 2372.59C3355.43 2176.23 3279.7 1900.15 3279.7 1900.15C3271.92 1927.95 3233.02 1962.39 3233.02 1962.39C3230.79 1805.86 3063.94 1678.27 3061.35 1676.35C3061.3 1676.3 3061.3 1676.25 3061.3 1676.25C3061.3 1676.3 3061.3 1676.3 3061.3 1676.35C3063.43 1878.88 2948.44 2012.96 2844.55 2092.57C2803.42 2124.16 2764.05 2147.08 2734.34 2162.43C2734.29 2162.48 2734.29 2162.48 2734.29 2162.48C2734.34 2162.38 2734.34 2162.32 2734.39 2162.22C2749.17 2114.35 2727.86 2081.31 2727.86 2081.31C2586.42 2119.38 2502.66 2263.62 2501.36 2265.85C2501.37 2265.91 2501.37 2265.91 2501.37 2265.91Z" fill="url(#paint5_linear_1525_20537)"/>
<path d="M2597.58 1536.11C2846.95 1223.68 2873.45 931.051 2875.48 836.091C2875.84 819.031 2867.23 803.411 2853.49 794.441V794.491C2853.49 794.491 2765.16 770.221 2580.94 958.231C2583.07 958.801 2646.39 974.781 2705.42 998.941C2705.42 998.941 2681.41 1083.32 2569.53 1083.12C2569.53 1083.12 2585.4 1181.56 2507.45 1241.36C2598 1339.8 2610.96 1443.64 2597.58 1536.11Z" fill="#FFDAB6"/>
<path d="M1920.48 2438.1C1990.5 2395.88 2047.14 2300.29 2047.14 2300.29C2052.17 2308.59 2062.7 2317.51 2062.7 2317.51C2116.07 2284.73 2121.62 2186.45 2121.62 2186.45V2186.4C2056.17 2187.59 1965.3 2183.24 1867.01 2160.67C1853.52 2371.09 1920.48 2438.1 1920.48 2438.1Z" fill="#FFDAB6"/>
<path d="M1505.14 1617.59C1530.24 1720.49 1595.8 1852.7 1745.54 1939.88C1786.67 1963.84 1834.13 1984.38 1888.9 1999.99C1906.12 2004.87 1924.01 2009.27 1942.68 2013.16C2198.74 2066.37 2332.97 2032.45 2397.44 1999.78C2435.82 1980.33 2449.51 1961.3 2449.51 1961.3C2449.51 1961.3 2442.77 1947.19 2429.02 1934.33C2429.02 1934.33 2489.96 1924.48 2522.27 1894.08C2522.27 1894.08 2522.27 1894.08 2522.27 1894.03C2522.27 1893.15 2527.15 1924.11 2522.27 1894.08C2511.48 1827.23 2443.92 1716.79 2341.11 1648.34C2190.92 1548.35 1959.38 1456.7 1745.95 1485.64C1609.44 1504.1 1539.37 1475.99 1506.59 1453.28C1499.12 1464.74 1493.93 1477.09 1492.59 1490.05C1489.79 1517.08 1491.81 1563.24 1505.14 1617.59Z" fill="#FFDAB6"/>
<path d="M1920.48 2438.1C1920.48 2438.1 1924.27 2518.96 1954.3 2564.81C1969.24 2401.43 2113.84 2400.29 2113.84 2400.29C2146.1 2251.38 2121.62 2186.45 2121.62 2186.45C2121.62 2186.45 2116.07 2284.73 2062.7 2317.51C2062.7 2317.51 2052.17 2308.59 2047.14 2300.29C2047.13 2300.3 1990.5 2395.89 1920.48 2438.1Z" fill="#FFDAB6"/>
<path d="M2054.39 1409.74C2024.12 1406.63 1968.21 1401.76 1914.7 1401.73C1907.49 1401.73 1905.3 1391.95 1911.81 1388.87C1967.5 1362.55 2089.69 1312.79 2083.22 1386.25C2081.94 1400.71 2068.82 1411.22 2054.39 1409.74Z" fill="#FFDAB6"/>
<path d="M2881.4 2189.01C2915.04 2184.86 2953.48 2178.83 2981.97 2174.11C2990.73 2172.66 2995.33 2183.98 2988.14 2189.18C2942.74 2222 2905.56 2266.01 2887.33 2289.48C2882.64 2295.52 2887.8 2304.18 2895.34 2302.87C2940.88 2294.93 3009.34 2276.59 3057.98 2262.83C3066.58 2260.4 3072.54 2271.43 3065.72 2277.21C3049.6 2290.89 3035.1 2306.08 3024.73 2317.73C3019.34 2323.78 3024.86 2333.19 3032.78 2331.46C3073.75 2322.51 3119.69 2313.95 3143.07 2309.71C3149.68 2308.51 3154.92 2315.19 3152.21 2321.34L3120.3 2393.68C3117.36 2400.35 3123.72 2407.35 3130.63 2405.01C3151.05 2398.08 3179.32 2386.52 3209.34 2373.54C3210.75 2372.93 3212 2371.94 3212.9 2370.69C3354.74 2174.74 3279.93 1900.95 3279.71 1900.16V1900.17C3271.93 1927.93 3233.13 1962.31 3233.04 1962.39C3233.04 1962.39 3233.04 1962.39 3233.04 1962.38C3230.81 1804.61 3061.31 1676.25 3061.31 1676.25C3063.37 1867.83 2960.61 1998.18 2861.58 2079.11C2855.66 2083.95 2858.72 2093.49 2866.36 2093.95C2888.62 2095.3 2909.5 2096.41 2923.63 2097.13C2930.72 2097.49 2934.15 2105.93 2929.36 2111.17C2911.55 2130.64 2888.31 2158.17 2873.95 2175.38C2869.09 2181.2 2873.87 2189.94 2881.4 2189.01Z" fill="#FFDAB6"/>
<path d="M2292.77 897.7C2281.67 818.76 2338.36 792.1 2338.36 792.1L2416.21 869.85C2416.21 869.85 2387.01 727.48 2353.87 633.24C2342.82 601.81 2303.35 591.85 2278.77 614.36C2243.29 646.83 2191.22 697.5 2132.04 764.35L2292.77 897.7Z" fill="#8E3410"/>
<path d="M2026.54 2719.16C2002.16 2699.92 1980.33 2671.34 1966.01 2629.28C1962.38 2618.6 1959.63 2608.17 1957.71 2598.11C1954.65 2598.42 1858.23 2608.95 1843.5 2661.49C1828.63 2714.29 2022.34 2719.06 2026.54 2719.16Z" fill="#8E3410"/>
<path d="M2320.08 1074.41H2371.34C2377.14 1074.41 2380.26 1081.22 2376.48 1085.61L2355.26 1110.26C2351.38 1114.77 2354.77 1121.73 2360.71 1121.45L2440.73 1117.76C2442.71 1117.67 2444.56 1116.69 2445.78 1115.12C2495.48 1050.93 2540.53 999.5 2580.88 958.23C2580.88 958.23 2580.88 958.23 2580.93 958.23C2765.16 770.22 2853.49 794.49 2853.49 794.49V794.44C2849.08 791.59 2844.15 789.41 2838.81 788.06C2744.88 764.82 2591.41 839.98 2464.65 918.24C2425.84 941.33 2345.68 997.27 2308.3 1023.6C2302.67 1027.56 2305.86 1036.41 2312.72 1035.89L2327.84 1034.75C2334.24 1034.27 2337.67 1042.12 2332.95 1046.48L2315.47 1062.66C2310.95 1066.84 2313.92 1074.41 2320.08 1074.41Z" fill="#8E3410"/>
<path d="M2068.5 2830.78H2068.55C2071.3 2841.88 2077.89 2852.1 2087.79 2859.25C2091.16 2861.69 2094.95 2863.76 2099.1 2865.37C2116.94 2872.37 2133.8 2877.56 2149.62 2881.24C2224.2 2898.36 2276.9 2880.82 2313.46 2853.08C2357.65 2819.63 2378.24 2771.24 2385.35 2751.01C2387.58 2744.63 2391.68 2739.08 2396.97 2734.88C2396.97 2734.88 2268.34 2762.58 2108.29 2754.28C2098.75 2761.13 2088.68 2776.58 2082.25 2782.75C2068.45 2795.97 2064.35 2814.39 2068.5 2830.78Z" fill="#8E3410"/>
<path d="M1700 2084.59C1655.24 2130.54 1645.23 2180.64 1690.4 2194.7C1766.06 2218.27 1814.71 2165.63 1824.98 2153.11C1826.28 2151.53 1828.37 2150.91 1830.34 2151.45C1830.37 2151.46 1830.39 2151.46 1830.42 2151.47C1832.83 2152.13 1835.36 2151 1836.46 2148.76L1856.5 2107.82C1858.18 2104.38 1855.68 2100.36 1851.85 2100.36H1796.5C1792.06 2100.36 1789.68 2095.14 1792.59 2091.79L1819.31 2060.96C1822.39 2057.41 1819.57 2051.93 1814.9 2052.41C1792.23 2054.73 1743.54 2061.66 1704 2080.65C1700.47 2082.31 1697.05 2084.07 1693.73 2085.94C1695.8 2085.47 1697.87 2085.06 1700 2084.59Z" fill="#8E3410"/>
<path d="M1443.89 2138.74C1447.83 2158.76 1462.25 2176.08 1483.67 2181.32C1495.91 2184.33 1508.41 2181.63 1518.63 2170.12C1525.53 2162.36 1531.41 2150.65 1535.54 2134.03C1536.19 2131.41 1538.04 2129.25 1540.58 2128.35C1544.94 2126.79 1552.72 2124.09 1563.5 2120.65C1565.23 2120.08 1567.05 2119.5 1568.96 2118.9C1571.35 2118.14 1573.28 2116.31 1574.11 2113.94L1588.25 2073.9C1590.54 2067.42 1584.09 2061.27 1577.73 2063.86L1557.78 2071.99C1551.35 2074.61 1544.87 2068.32 1547.3 2061.82C1549.92 2054.81 1542.3 2048.38 1535.83 2052.14L1527.2 2057.15C1521.68 2060.36 1514.81 2056.09 1515.24 2049.72L1516.05 2037.78C1516.53 2030.63 1508.11 2026.57 1502.73 2031.32C1487.86 2044.47 1474.37 2059.51 1463.04 2076.67C1457.59 2084.86 1452.67 2093.58 1448.31 2102.81C1442.8 2114.46 1441.55 2127.07 1443.89 2138.74Z" fill="#8E3410"/>
<path opacity="0.3" d="M1493.89 1554.37C1495.96 1573.46 1499.54 1594.82 1505.15 1617.59C1530.25 1720.49 1595.81 1852.7 1745.55 1939.88C1786.68 1963.84 1834.14 1984.38 1888.91 1999.99C1906.13 2004.87 1924.02 2009.27 1942.69 2013.16C2198.75 2066.37 2332.98 2032.45 2397.45 1999.78C2435.83 1980.33 2449.52 1961.3 2449.52 1961.3C2449.52 1961.3 2442.78 1947.19 2429.03 1934.33C2429.03 1934.33 2489.97 1924.48 2522.28 1894.08C2522.28 1894.08 2522.28 1894.08 2522.28 1894.03C2521.76 1892.84 2515.74 1877.02 2517.35 1842.79C2518.85 1812.29 2526.43 1767.12 2549.51 1704.57C2566.94 1657.32 2588.41 1599.39 2597.59 1536.11C2610.97 1443.63 2598 1339.8 2507.45 1241.36C2482.24 1213.97 2451.07 1187 2412.8 1160.81C2412.8 1160.81 2632.86 1507.84 2349.47 1804.62C2117.31 2047.66 1628.58 1850.05 1493.89 1554.37Z" fill="#66142E"/>
<path opacity="0.3" d="M2646.67 977.539C2610.6 965.739 2582.34 958.599 2580.93 958.229C2765.16 770.219 2853.49 794.489 2853.49 794.489V794.439C2862.71 800.459 2869.53 809.499 2872.97 819.929C2829.98 831.209 2755.06 867.499 2646.67 977.539Z" fill="#66142E"/>
<path opacity="0.3" d="M2507.44 1241.36C2585.39 1181.56 2569.52 1083.12 2569.52 1083.12C2681.39 1083.33 2705.41 998.939 2705.41 998.939C2700.32 996.859 2695.21 994.839 2690.1 992.879C2704.82 997.389 2721.92 1002.96 2739.62 1009.37C2757.06 1015.7 2763.18 1037.05 2752.03 1051.88C2736.5 1072.55 2708.09 1096.94 2658.56 1103.24C2644.94 1104.97 2634.48 1116.13 2634.22 1129.86C2633.68 1158.78 2626.47 1207.37 2589.27 1246.48C2579.75 1256.49 2579.16 1271.98 2587.87 1282.7C2632.54 1337.7 2654.35 1394.03 2662.06 1448.8C2642.42 1477.63 2620.98 1506.78 2597.57 1536.1C2610.96 1443.64 2598 1339.8 2507.44 1241.36Z" fill="#66142E"/>
<path opacity="0.3" d="M2580.88 958.23C2580.88 958.23 2580.88 958.23 2580.93 958.23C2583.06 958.8 2646.38 974.78 2705.41 998.94C2705.41 998.94 2704.92 1000.61 2703.82 1003.42C2658.97 987.74 2620.32 977.99 2618.66 977.54C2618.61 977.54 2618.61 977.54 2618.61 977.54C2569.23 1028 2512.86 1093.72 2449.48 1179.35L2450.52 1180.13C2475.83 1197.45 2497.96 1215.11 2517.39 1233C2514.24 1235.85 2510.97 1238.66 2507.44 1241.36C2482.23 1213.97 2451.06 1187 2412.79 1160.81L2411.75 1160.03C2475.13 1074.41 2531.5 1008.69 2580.88 958.23Z" fill="#66142E"/>
<path opacity="0.3" d="M2041.84 907.76V907.81C2048.89 939.6 2058.64 969.63 2071.97 994.01C2103.58 1051.82 2146.63 1084.44 2179.33 1102.17C2190.92 1108.46 2203.01 1094.47 2195 1083.99C2071.71 922.96 2096.09 736.6 2096.09 736.6C2096.09 736.6 2046.51 793.44 2041.27 873.68C2040.55 884.63 2040.65 896.04 2041.84 907.76Z" fill="#66142E"/>
<path opacity="0.3" d="M2249.51 1068.75C2298.52 1028.81 2447.22 929.799 2463.25 919.119L2424.09 879.959C2328.3 955.219 2252.26 1064.71 2249.51 1068.75Z" fill="#66142E"/>
<path opacity="0.3" d="M1954.71 2573.89C1955.12 2581.72 1956.16 2589.81 1957.72 2598.11C1959.64 2608.17 1962.39 2618.6 1966.02 2629.28C1980.33 2671.34 2002.17 2699.92 2026.55 2719.16C2026.6 2719.16 2026.6 2719.16 2026.6 2719.16C2052.9 2739.96 2082.2 2749.92 2108.29 2754.27C2098.75 2761.12 2088.68 2776.57 2082.25 2782.74C2068.45 2795.97 2064.36 2814.38 2068.51 2830.77H2068.56C2071.31 2841.87 2077.9 2852.09 2087.8 2859.24C2091.17 2861.68 2094.96 2863.75 2099.11 2865.36C2116.95 2872.36 2133.81 2877.55 2149.63 2881.23C2224.21 2898.35 2276.91 2880.81 2313.47 2853.07C2357.66 2819.62 2378.25 2771.23 2385.36 2751C2387.59 2744.62 2391.69 2739.07 2396.98 2734.87C2426.96 2711.38 2451.39 2686.74 2471.15 2661.27V2661.22C2472.65 2659.3 2474.16 2657.33 2475.61 2655.41C2493.81 2630.88 2507.66 2605.67 2517.93 2580.15C2527.06 2557.38 2533.28 2534.3 2537.02 2511.22C2551.08 2425.18 2531.06 2339.03 2501.39 2265.9C2501.39 2265.9 2501.39 2265.9 2501.39 2265.85C2472.97 2195.83 2435.73 2137.79 2411.14 2103.3C2454.91 2111.96 2471.15 2102.99 2471.15 2102.99C2451.18 2056.31 2397.45 1999.78 2397.45 1999.78C2332.98 2032.46 2198.75 2066.38 1942.69 2013.16C1924.07 2009.27 1906.23 2004.91 1889.06 2000.04C1895.31 2002.34 2077.95 2069.73 2270.86 2086.78C2311.83 2090.4 2348.4 2113.86 2368.87 2149.54C2434.78 2264.39 2544.39 2519.58 2328.68 2672.68C2179.03 2778.91 2046.62 2685.97 1954.71 2573.89Z" fill="#66142E"/>
<path opacity="0.3" d="M1920.48 2438.1C1920.48 2438.1 1924.27 2518.96 1954.3 2564.81C1981.48 2365.91 2164.41 2405.58 2164.41 2405.58C2151.15 2377.1 2129.2 2360.19 2113.41 2351.11C2104.8 2346.16 2102.59 2334.81 2108.83 2327.08C2137.08 2292.12 2150.68 2241.67 2155.31 2221.13C2156.57 2215.53 2160.72 2211.06 2166.19 2209.34C2202.32 2198.01 2227.8 2178.04 2227.8 2178.04L2121.63 2186.44C2121.63 2186.44 2116.08 2284.72 2062.71 2317.5C2062.71 2317.5 2052.18 2308.58 2047.15 2300.28C2047.13 2300.3 1990.5 2395.89 1920.48 2438.1Z" fill="#66142E"/>
<path opacity="0.3" d="M2025.57 2263.73C2025.64 2263.81 2025.71 2263.88 2025.78 2263.96C2030.84 2269.5 2039.43 2270 2045.09 2265.06C2067.7 2245.34 2079.91 2213.06 2086.43 2186.45C2098.8 2186.62 2110.6 2186.6 2121.61 2186.4V2186.45C2121.61 2186.45 2116.06 2284.73 2062.69 2317.51C2062.69 2317.51 2052.16 2308.59 2047.13 2300.29C2047.13 2300.29 1990.49 2395.88 1920.47 2438.1C1920.47 2438.1 1907.43 2425.01 1894.01 2392.34C1950.14 2357.8 1997.44 2289.47 2013.41 2264.7C2016.16 2260.45 2022.17 2259.98 2025.57 2263.73Z" fill="#66142E"/>
<path opacity="0.3" d="M1664.06 2139.98C1656.23 2165.34 1663.59 2186.35 1690.41 2194.7C1766.08 2218.25 1814.73 2165.6 1825 2153.1L1775 2134.69C1775 2134.69 1727.07 2188.73 1664.06 2139.98Z" fill="#66142E"/>
<path opacity="0.3" d="M1442.9 2131.63C1443.11 2134.02 1443.42 2136.4 1443.89 2138.74C1447.83 2158.76 1462.25 2176.08 1483.67 2181.32C1495.91 2184.33 1508.41 2181.63 1518.63 2170.12C1526.1 2161.72 1532.37 2148.7 1536.52 2129.82C1536.52 2129.82 1540.1 2128.47 1546.79 2126.19L1540.93 2096.37C1540.93 2096.36 1510.79 2168.51 1442.9 2131.63Z" fill="#66142E"/>
<path opacity="0.3" d="M2501.37 2265.86C2553.24 2287.02 2583.94 2428.1 2595.09 2464.76C2598.27 2475.26 2614.85 2483.68 2636.89 2490.35C2670.97 2500.66 2707.05 2502.52 2742.3 2497.43C3148.18 2438.83 3195.32 2209.51 3198.75 2125.92C3199.2 2114.98 3186.47 2108.67 3177.98 2115.59C3168.38 2123.41 3157.44 2130.81 3147.64 2136.92C3137.88 2143.01 3125.72 2134.01 3128.61 2122.88C3186.72 1899.7 3064.48 1681.88 3061.35 1676.37C3063.94 1678.29 3230.79 1805.88 3233.02 1962.41C3233.02 1962.41 3271.92 1927.97 3279.7 1900.17C3279.7 1900.17 3355.42 2176.25 3211.5 2372.61C3141.69 2467.94 3020.06 2544.44 2812.91 2561.56C2812.91 2561.56 2850.88 2609.43 2829.77 2670.53C2829.77 2670.53 2750.62 2660.36 2667.9 2618.35C2665.41 2617.05 2662.87 2615.76 2660.33 2614.41C2625.45 2595.9 2590.41 2571.59 2560.77 2539.93C2560.26 2539.39 2559.76 2538.85 2559.26 2538.31C2557.28 2536.17 2555.33 2533.98 2553.4 2531.77C2552.72 2530.99 2552.03 2530.21 2551.35 2529.42C2549.43 2527.17 2547.56 2524.88 2545.7 2522.57C2545.15 2521.88 2544.58 2521.21 2544.03 2520.51C2541.64 2517.48 2539.29 2514.4 2537 2511.25C2551.06 2425.21 2531.04 2339.06 2501.37 2265.93C2501.37 2265.91 2501.37 2265.91 2501.37 2265.86Z" fill="#66142E"/>
<path opacity="0.7" d="M2096.1 736.609L2279.91 935.309C2297.96 950.349 2325.5 939.459 2328.35 916.119C2331.05 893.819 2335.51 871.619 2338.52 857.929C2339.82 852.019 2347.18 849.889 2351.49 854.199L2442.25 945.219L2463.26 919.129L2424.1 879.969L2415.13 871.049L2337.28 793.299C2337.28 793.299 2280.59 819.959 2291.69 898.899L2130.96 765.549L2096.1 736.609Z" fill="white"/>
<path opacity="0.7" d="M1505.5 1454.48C1536.77 1406.66 1608.19 1374.04 1608.19 1374.04C1646 1251.02 1706.89 1167.99 1772.24 1111.88C1773.69 1110.59 1775.23 1109.32 1776.76 1108.05C1831.18 1062.49 1888.39 1035.26 1937.74 1019.07C2012.27 994.589 2068.91 995.159 2070.88 995.209C2070.31 994.279 2069.79 993.289 2069.27 992.359C2071.03 993.449 2071.97 994.019 2071.97 994.019C2071.97 994.019 2082.81 1010.57 2096.09 1028.72C2096.09 1028.72 2011.6 1029.84 1913.04 1076.49C1904.23 1080.66 1898.76 1089.54 1898.43 1099.28C1897.7 1120.74 1876.22 1149.62 1842.8 1171.05C1816.36 1188.01 1788.78 1196.24 1768.6 1194.84C1760.56 1194.28 1752.84 1198.01 1747.68 1204.2C1708.1 1251.76 1673.12 1312.19 1648.28 1389.02C1646.07 1395.85 1640.98 1401.35 1634.27 1403.88C1611.64 1412.4 1555.68 1435.01 1496.94 1470.55C1499.23 1465.01 1502.13 1459.66 1505.5 1454.48Z" fill="white"/>
<path opacity="0.7" d="M1954.3 2564.81H1954.35C1954.4 2567.82 1954.51 2570.83 1954.71 2573.89C1955.12 2581.72 1956.16 2589.81 1957.72 2598.11C1959.64 2608.17 1962.39 2618.6 1966.02 2629.28C1975.25 2656.41 1987.6 2677.88 2001.76 2694.89C1936.36 2429.34 2164.41 2405.58 2164.41 2405.58C1968.25 2375.29 1954.3 2564.81 1954.3 2564.81Z" fill="white"/>
<path opacity="0.7" d="M2685.12 2187.15C2679.1 2190.12 2681.92 2199.28 2688.56 2198.35C3124.74 2137.07 3061.35 1676.35 3061.35 1676.35C3061.35 1676.35 3061.35 1676.35 3061.3 1676.35C3063.43 1878.88 2948.44 2012.96 2844.55 2092.57C2803.42 2124.16 2764.05 2147.08 2734.34 2162.43C2734.29 2162.48 2734.29 2162.48 2734.29 2162.48C2726.37 2166.71 2704.12 2177.77 2685.12 2187.15Z" fill="white"/>
<path d="M2250.22 1069.84C2265.34 1063.86 2279.43 1056.72 2293.22 1049.21C2306.99 1041.69 2320.29 1033.59 2333.39 1025.23C2346.48 1016.86 2359.13 1007.9 2371.96 999.201C2384.78 990.481 2397.66 981.861 2410.64 973.401C2462.55 939.591 2515.6 907.511 2570.33 879.361C2625 851.491 2681.4 825.891 2739.35 812.191C2768.09 805.551 2797.68 801.771 2824.13 806.451L2833.91 808.231C2836.05 808.861 2838.14 809.621 2840.08 810.691C2843.94 812.831 2847.34 815.881 2849.77 819.611C2852.21 823.311 2853.84 827.561 2854.26 831.951C2854.44 833.041 2854.42 834.151 2854.45 835.261C2854.47 836.581 2854.33 838.881 2854.28 840.651L2853.86 852.001C2852.46 882.321 2848.99 912.691 2844.56 942.901C2841.96 957.961 2839.83 973.091 2836.52 988.041L2831.94 1010.52C2830.27 1017.98 2828.35 1025.4 2826.56 1032.84C2812.17 1092.35 2792.88 1150.72 2769.41 1207.4C2763.25 1221.45 2757.53 1235.69 2751.21 1249.67L2731.34 1291.22C2728.17 1298.22 2724.42 1304.92 2720.78 1311.69L2709.86 1331.98L2698.95 1352.28C2695.11 1358.93 2691.05 1365.46 2687.11 1372.06C2679.13 1385.2 2671.34 1398.47 2663.21 1411.52L2637.46 1449.83C2633.11 1456.18 2629.07 1462.74 2624.56 1468.98L2610.84 1487.57L2583.4 1524.78L2582.93 1525.41C2576.98 1533.48 2578.7 1544.84 2586.77 1550.78C2594.66 1556.6 2605.73 1555.05 2611.77 1547.42C2650.92 1497.86 2689.22 1447.28 2721.34 1392.61C2754.1 1338.45 2784.18 1282.38 2808.4 1223.67C2857.25 1106.59 2889.81 981.921 2895.92 853.871L2896.33 841.831C2896.38 839.691 2896.5 838.101 2896.5 835.521C2896.47 832.731 2896.4 829.941 2896.02 827.161C2894.82 816.031 2890.7 805.241 2884.38 796.061C2878.11 786.831 2869.51 779.211 2859.63 773.971C2854.68 771.351 2849.41 769.421 2844.02 768.011L2830.76 765.641C2795.35 760.071 2761.76 765.431 2730.01 772.991C2666.45 788.931 2608.49 816.091 2552.75 845.991C2497 876.001 2443.69 909.651 2391.67 944.941C2378.67 953.771 2365.77 962.751 2352.95 971.831C2340.15 980.941 2327.31 989.991 2315.11 999.911C2302.86 1009.77 2291.07 1020.24 2279.86 1031.41C2268.68 1042.63 2257.98 1054.45 2248.64 1067.86C2248.22 1068.46 2248.37 1069.28 2248.97 1069.7C2249.34 1069.96 2249.83 1069.99 2250.22 1069.84Z" fill="#66142E"/>
<path d="M2477.54 905.43L2351.17 779.27L2351.05 779.15C2345.53 773.63 2337.28 772.5 2330.62 775.69C2329.31 776.32 2328.65 776.71 2327.86 777.14C2327.05 777.58 2326.35 778 2325.66 778.42C2324.25 779.26 2322.88 780.13 2321.61 781.03C2318.95 782.77 2316.57 784.71 2314.12 786.6C2309.44 790.58 2304.97 794.79 2301.01 799.46C2293.04 808.72 2286.5 819.28 2281.98 830.59C2280.81 833.4 2279.98 836.31 2278.99 839.17C2277.95 842.03 2277.23 844.95 2276.64 847.89C2276.03 850.82 2275.27 853.75 2274.84 856.69L2273.85 865.52C2273.43 868.48 2273.36 871.4 2273.38 874.31L2273.34 883.06C2273.62 888.82 2274.3 894.51 2274.82 900.23L2304.38 883.73L2108.77 721.47L2108.65 721.37C2101.08 715.09 2089.88 716.07 2083.5 723.51L2083.49 723.52C2079.55 727.75 2076.76 731.17 2073.7 735.09C2070.71 738.9 2067.84 742.75 2065.19 746.74C2059.81 754.67 2054.72 762.79 2050.29 771.29C2041.31 788.21 2033.85 806.12 2028.93 824.93C2026.43 834.31 2024.36 843.86 2022.97 853.54C2021.64 863.23 2020.95 873.04 2020.84 882.86C2020.62 902.49 2022.91 922.29 2028.3 941.16C2033.58 960.03 2040.96 978.18 2050.42 995C2052.81 999.17 2055.46 1003.18 2057.98 1007.26L2061.81 1013.34L2066.03 1019.11L2074.57 1030.54L2083.82 1041.28C2108.37 1069.84 2139.16 1092.44 2175.71 1102.75C2176.07 1102.85 2176.45 1102.64 2176.55 1102.28C2176.6 1102.09 2176.57 1101.9 2176.48 1101.74L2176.46 1101.71C2171.39 1093.5 2165.82 1086.29 2160.11 1079.38C2154.69 1072.16 2149.1 1065.34 2143.41 1058.76C2138.1 1051.83 2132.33 1045.44 2126.94 1038.83C2124.3 1035.48 2121.57 1032.23 2118.88 1028.96C2116.04 1025.8 2113.52 1022.42 2111.06 1019.01L2103.56 1008.89L2096.85 998.34L2093.46 993.11L2090.5 987.67C2088.57 984.03 2086.47 980.47 2084.65 976.79C2077.52 962.02 2071.8 946.79 2068.14 931.13C2064.48 915.48 2062.89 899.48 2063.18 883.48C2063.37 875.48 2064.01 867.47 2065.2 859.5C2066.24 851.52 2067.81 843.57 2069.78 835.7C2073.8 819.97 2079.39 804.47 2086.48 789.56C2089.99 782.1 2093.76 774.71 2097.95 767.59C2100.03 764.02 2102.16 760.48 2104.36 757.04C2106.47 753.69 2109.05 749.99 2110.86 747.4L2085.59 749.44L2281.2 911.7C2288.91 918.09 2300.34 917.03 2306.73 909.32C2309.85 905.57 2311.19 900.93 2310.86 896.42L2310.77 895.19C2310.43 890.73 2309.86 886.26 2309.63 881.83L2309.68 875.26C2309.64 873.06 2309.68 870.87 2310.02 868.76L2310.71 862.36C2311.01 860.25 2311.6 858.23 2312.01 856.16C2312.4 854.08 2312.88 852.03 2313.64 850.1C2314.34 848.15 2314.86 846.11 2315.67 844.21C2318.74 836.53 2323.13 829.51 2328.46 823.29C2331.1 820.15 2334.11 817.35 2337.19 814.7C2338.8 813.49 2340.36 812.18 2341.99 811.13C2342.8 810.54 2343.59 810.05 2344.38 809.59C2344.78 809.34 2345.17 809.1 2345.48 808.94C2345.81 808.75 2346.27 808.51 2346.1 808.59L2325.55 805.01L2451.89 931.12C2458.98 938.2 2470.47 938.19 2477.56 931.1C2484.64 924 2484.63 912.51 2477.54 905.43Z" fill="#66142E"/>
<path d="M2072.38 975.891C2068.19 975.871 2064.89 975.981 2061.26 976.131C2057.72 976.281 2054.21 976.491 2050.72 976.771C2043.74 977.291 2036.82 977.991 2029.93 978.851C2016.17 980.621 2002.49 982.791 1988.98 985.711C1961.9 991.281 1935.37 999.271 1909.55 1009.1C1857.96 1028.85 1809.24 1056.79 1766.87 1092.5C1756.04 1101.15 1746.13 1110.85 1736.05 1120.32C1726.43 1130.26 1716.67 1140.09 1707.86 1150.76C1698.56 1161.02 1690.53 1172.27 1682.02 1183.16C1678.01 1188.77 1674.2 1194.53 1670.28 1200.21L1664.45 1208.76C1662.57 1211.65 1660.86 1214.64 1659.05 1217.57C1630.13 1264.52 1608.01 1315.25 1591.9 1367.48L1601.7 1356.3C1593.89 1359.97 1587.22 1363.56 1580.2 1367.5C1573.29 1371.4 1566.5 1375.5 1559.83 1379.84C1546.5 1388.54 1533.57 1398.07 1521.43 1409.06C1509.35 1420.08 1497.87 1432.45 1488.75 1447.63C1484.22 1455.2 1480.29 1463.46 1477.61 1472.48L1475.9 1479.37C1475.38 1481.69 1475.11 1484.1 1474.73 1486.46C1474.15 1491.04 1474.01 1494.84 1473.66 1499.06C1472.84 1515.36 1473.5 1531.19 1474.9 1546.92C1476.26 1562.65 1478.44 1578.22 1481.39 1593.62C1487.23 1624.42 1495.54 1654.7 1506.62 1683.97C1528.68 1742.5 1560.69 1797.57 1601.98 1844.87C1643.22 1892.16 1693.01 1931.87 1747.8 1961.85L1768.44 1972.91L1789.62 1982.84C1796.62 1986.29 1803.84 1989.2 1811.07 1992.07C1818.3 1994.94 1825.46 1998.01 1832.76 2000.7L1854.8 2008.28C1858.48 2009.52 1862.13 2010.86 1865.84 2012.01L1877.02 2015.22L1899.39 2021.63C1906.9 2023.54 1914.46 2025.19 1921.99 2026.99C1937.08 2030.82 1952.13 2033.36 1967.19 2036.13L2012.36 2044.41L2057.99 2050.47L2080.82 2053.43L2103.84 2055.21C2165.06 2060.42 2227.34 2061.23 2289.24 2051.23L2312.37 2046.9C2316.22 2046.12 2320.09 2045.56 2323.92 2044.61L2335.38 2041.55C2342.99 2039.38 2350.7 2037.74 2358.22 2035.11L2380.74 2027.1C2388.14 2024.02 2395.44 2020.56 2402.78 2017.29C2410.03 2013.7 2417.09 2009.54 2424.19 2005.56C2431.03 2000.86 2438.06 1996.68 2444.56 1991.12L2449.5 1987.15L2454.29 1982.67C2455.88 1981.15 2457.46 1979.76 2459.06 1977.92C2460.68 1976.11 2462.07 1974.75 2464.2 1971.91C2468.29 1966.45 2468.73 1959.39 2465.93 1953.65L2465.84 1953.47L2465.83 1953.44C2464.53 1951.07 2463.68 1949.7 2462.51 1948.04C2461.42 1946.46 2460.31 1944.94 2459.11 1943.5C2456.79 1940.56 2454.23 1937.85 2451.6 1935.24C2446.28 1930.07 2440.33 1925.53 2433.94 1921.76C2427.58 1917.99 2420.64 1915.04 2413.52 1913.36C2406.38 1911.7 2398.67 1912.03 2391.68 1914.63C2397.13 1920.09 2401.87 1923.87 2406.04 1928.29C2410.28 1932.43 2414.19 1936.46 2417.45 1941.14C2420.78 1945.69 2423.72 1950.42 2426.37 1955.26C2427.68 1957.69 2428.93 1960.13 2430.11 1962.55L2431.79 1966.14C2432.26 1967.23 2432.97 1968.66 2433.1 1969.14L2434.74 1950.7L2432.44 1953.24C2431.58 1954.29 2430.3 1955.39 2429.16 1956.47L2425.67 1959.75L2421.75 1962.87C2416.77 1967.22 2410.7 1970.75 2405.11 1974.66C2399.01 1978.03 2393.02 1981.6 2386.72 1984.72C2380.24 1987.57 2373.86 1990.62 2367.31 1993.37L2347.07 2000.56C2340.31 2002.94 2333.16 2004.42 2326.23 2006.42L2315.76 2009.23C2312.25 2010.11 2308.62 2010.62 2305.05 2011.34L2283.57 2015.37C2225.82 2024.74 2166.01 2024.09 2106.84 2019.02L2084.6 2017.31L2062.42 2014.43L2018.06 2008.55L1973.94 2000.45C1959.23 1997.75 1944.43 1995.25 1930.18 1991.61C1922.99 1989.9 1915.77 1988.33 1908.61 1986.51L1887.35 1980.41L1876.72 1977.36C1873.2 1976.27 1869.75 1974.99 1866.26 1973.82L1845.38 1966.65C1838.48 1964.11 1831.73 1961.2 1824.9 1958.49C1818.07 1955.78 1811.25 1953.05 1804.68 1949.79L1784.75 1940.46L1765.38 1930.08C1714 1901.97 1667.76 1865 1629.42 1821.08C1591.05 1777.14 1561.26 1725.9 1540.64 1671.24C1530.28 1643.91 1522.54 1615.59 1517.1 1586.95C1514.35 1572.63 1512.34 1558.19 1511.09 1543.77C1509.8 1529.38 1509.23 1514.89 1509.94 1500.96C1510.23 1497.65 1510.39 1493.87 1510.78 1490.95C1511.03 1489.59 1511.13 1488.22 1511.44 1486.85L1512.46 1482.73C1514.1 1477.23 1516.67 1471.7 1519.91 1466.31C1526.36 1455.47 1535.57 1445.3 1545.82 1435.98C1556.12 1426.65 1567.61 1418.14 1579.61 1410.31C1585.62 1406.4 1591.79 1402.67 1598.06 1399.13C1604.23 1395.65 1610.92 1392.1 1616.8 1389.34L1616.96 1389.27C1621.76 1387.01 1625.14 1382.86 1626.6 1378.17C1641.94 1328.46 1662.86 1280.65 1689.91 1236.72C1691.59 1233.97 1693.19 1231.16 1694.94 1228.47L1700.39 1220.5C1704.05 1215.2 1707.6 1209.82 1711.33 1204.59C1719.27 1194.48 1726.73 1183.96 1735.39 1174.46C1743.56 1164.52 1752.63 1155.44 1761.54 1146.19C1770.9 1137.42 1780.07 1128.41 1790.1 1120.41C1829.34 1087.32 1874.48 1061.43 1922.48 1043.04C1946.5 1033.9 1971.23 1026.44 1996.41 1021.27C2008.97 1018.55 2021.67 1016.55 2034.36 1014.91C2040.7 1014.12 2047.06 1013.47 2053.38 1013C2056.54 1012.75 2059.69 1012.56 2062.81 1012.43C2065.84 1012.29 2069.22 1012.21 2071.69 1012.21H2072.23C2082.25 1012.23 2090.4 1004.12 2090.42 994.101C2090.44 984.081 2082.41 975.901 2072.38 975.891Z" fill="#66142E"/>
<path d="M2431.89 1952.26C2434.6 1951.82 2498.78 1941.13 2534.72 1907.28C2540.24 1902.08 2541.95 1893.99 2538.99 1887C2538.93 1886.81 2520.55 1835.51 2566.53 1710.86L2566.95 1709.72C2592.03 1641.73 2626.38 1548.6 2619.23 1449.04C2610.75 1331.12 2544.75 1229.11 2423.04 1145.84L2402.54 1175.81C2660.19 1352.06 2583.59 1559.73 2532.9 1697.15L2532.48 1698.29C2493.58 1803.74 2496.83 1862.7 2501.72 1887.51C2472.53 1908.61 2426.59 1916.34 2426.09 1916.42L2431.89 1952.26Z" fill="#66142E"/>
<path d="M2858.3 776.971C2854.49 775.991 2852.61 775.921 2850.3 775.611C2847.93 775.271 2845.86 775.211 2843.85 775.201C2839.74 775.111 2835.57 775.011 2831.81 775.501C2827.98 775.901 2824 776.091 2820.27 776.711L2809.24 778.891L2803.73 780.041C2801.95 780.521 2800.23 781.091 2798.48 781.621L2788.01 784.871C2780.86 786.811 2774.49 789.921 2767.8 792.581L2757.89 796.771C2754.57 798.151 2751.59 799.981 2748.42 801.571L2729.68 811.471C2717.59 818.581 2705.93 826.221 2694.18 833.781C2648.37 865.441 2608.53 903.271 2570.07 941.951L2542.36 971.971L2528.56 987.011L2515.46 1002.6C2498.12 1023.47 2480.08 1043.81 2464.16 1065.72L2439.59 1098.04L2427.31 1114.19C2423.27 1119.61 2419.5 1125.22 2415.58 1130.72C2407.71 1141.69 2400.06 1152.85 2393.74 1164.94C2387.48 1177.07 2381.81 1189.62 2378.82 1203.99C2378.73 1204.45 2379.02 1204.9 2379.48 1205C2379.69 1205.04 2379.92 1204.99 2380.09 1204.9C2393.05 1197.65 2403.34 1188.59 2413.03 1179.1C2422.66 1169.58 2430.97 1159.12 2439.05 1148.48C2443.17 1143.22 2447.16 1137.86 2451.39 1132.7L2464.23 1117.34L2489.89 1086.63C2524.39 1045.98 2560.06 1006.5 2597.56 969.111C2602.07 964.241 2606.93 959.781 2611.75 955.281L2626.2 941.761C2635.87 932.801 2645.27 923.471 2655.54 915.341C2665.69 907.041 2675.5 898.271 2685.71 890.121L2717.04 866.791C2727.94 859.941 2738.62 852.591 2749.58 845.941L2766.35 836.791C2769.16 835.331 2771.9 833.571 2774.77 832.351L2783.36 828.561C2789.09 826.101 2794.74 823.081 2800.58 821.401L2809.27 818.421C2810.72 817.941 2812.17 817.381 2813.62 816.951L2817.96 815.951L2826.61 813.841C2829.48 813.211 2832.23 813.031 2835.06 812.571C2837.95 812.021 2840.51 812.051 2843.12 811.951C2844.47 811.871 2845.76 811.831 2846.72 811.971L2848.32 812.061C2849.14 812.101 2848.55 812.071 2848.69 811.991L2862.54 803.061C2869.23 798.751 2871.16 789.821 2866.85 783.131C2864.8 779.951 2861.69 777.841 2858.3 776.971Z" fill="#66142E"/>
<path d="M1938.83 1036.04C1944.77 1036.04 1950.59 1033.13 1954.07 1027.77C1985.73 979.031 2020.25 930.541 2056.68 883.641C2062.83 875.721 2061.4 864.321 2053.48 858.171C2045.56 852.021 2034.16 853.461 2028.01 861.371C1990.95 909.071 1955.84 958.401 1923.63 1008C1918.17 1016.41 1920.56 1027.65 1928.97 1033.11C1932.01 1035.09 1935.44 1036.04 1938.83 1036.04Z" fill="#66142E"/>
<path d="M2416.18 888C2417.39 888 2418.62 887.88 2419.85 887.63C2429.67 885.61 2436 876.02 2433.99 866.2C2432.78 860.34 2404.15 721.55 2371.02 627.24C2363.79 606.67 2346.86 591.24 2325.74 585.94C2304.67 580.67 2282.53 586.27 2266.51 600.96C2232.46 632.16 2179.14 683.75 2118.46 752.33C2111.81 759.84 2112.52 771.31 2120.02 777.95C2127.53 784.59 2138.99 783.9 2145.64 776.39C2205.28 708.99 2257.63 658.35 2291.04 627.73C2298.14 621.22 2307.56 618.82 2316.92 621.17C2326.31 623.52 2333.55 630.13 2336.76 639.29C2369.08 731.29 2398.14 872.1 2398.43 873.51C2400.18 882.08 2407.75 888 2416.18 888Z" fill="#66142E"/>
<path d="M2576.51 975.87C2586.61 978.45 2597.13 981.38 2607.39 984.38C2617.71 987.39 2627.98 990.57 2638.2 993.88C2658.63 1000.48 2678.81 1007.74 2698.49 1015.74L2687.92 993.97C2687.75 994.15 2687.26 995.06 2686.88 995.84C2686.53 996.6 2686.05 997.45 2685.57 998.29C2684.66 999.96 2683.71 1001.64 2682.65 1003.33C2680.77 1006.76 2678.23 1009.91 2676.09 1013.21C2673.54 1016.27 2671.37 1019.6 2668.48 1022.35L2664.54 1026.78C2663.16 1028.19 2661.62 1029.45 2660.19 1030.8C2648.52 1041.42 2634.83 1049.67 2619.6 1055.62L2607.89 1059.64C2603.89 1060.78 2599.7 1061.51 2595.59 1062.5L2589.38 1063.95C2587.27 1064.31 2585.1 1064.47 2582.96 1064.74C2578.66 1065.27 2574.35 1065.67 2570.01 1066.36C2561.25 1067.06 2552.3 1067.72 2543.06 1069.48C2533.8 1070.4 2524.3 1071.9 2514 1075.26L2513.86 1075.3C2512.89 1075.62 2512.37 1076.66 2512.68 1077.62C2512.8 1077.99 2513.03 1078.3 2513.31 1078.51C2521.7 1084.9 2530.89 1089.43 2540.31 1093.37C2549.94 1096.3 2559.9 1098.68 2570.04 1099.66C2575.16 1099.92 2580.29 1099.89 2585.45 1100C2588.03 1100.01 2590.61 1100.13 2593.2 1100.03L2601 1099.2C2606.21 1098.55 2611.46 1098.17 2616.67 1097.23L2632.24 1093.34C2652.77 1087.07 2672.7 1076.28 2688.57 1060.86C2696.79 1053.46 2703.45 1044.53 2709.4 1035.31C2712.21 1030.56 2714.88 1025.77 2717.06 1020.64C2718.25 1018.16 2719.27 1015.54 2720.17 1012.83C2720.64 1011.51 2721.11 1010.18 2721.53 1008.7C2721.96 1007.26 2722.32 1005.97 2722.83 1003.87L2723.25 1002.1C2725.32 993.54 2720.41 984.91 2712.25 982.1H2712.24C2691.46 973.65 2670.5 966.12 2649.37 959.29C2638.8 955.87 2628.21 952.59 2617.56 949.48C2606.86 946.36 2596.33 943.42 2585.27 940.59C2575.56 938.11 2565.67 943.97 2563.19 953.68C2560.7 963.39 2566.56 973.28 2576.28 975.76L2576.51 975.87Z" fill="#66142E"/>
<path d="M2518.48 1255.75C2604.05 1190.12 2588.16 1084.7 2587.44 1080.24L2551.6 1086.02L2569.52 1083.13L2551.59 1085.97C2552.15 1089.57 2564.48 1174.72 2496.38 1226.94L2518.48 1255.75Z" fill="#66142E"/>
<path d="M2082.92 1473.69C2068.57 1467.33 2054.2 1462.5 2039.73 1458.83C2025.32 1454.9 2010.75 1452.35 1996.31 1450.17C1967.32 1446.16 1938.4 1445.17 1909.89 1446.39C1881.37 1447.55 1853.23 1451.04 1825.75 1457.34C1818.88 1458.98 1812.05 1460.62 1805.27 1462.52C1798.51 1464.57 1791.79 1466.74 1785.13 1469.06C1781.8 1470.24 1778.46 1471.22 1775.17 1472.57L1765.33 1476.64C1758.81 1479.44 1752.34 1482.35 1745.96 1485.62C1760.04 1489 1773.74 1490.84 1787.33 1493.18C1794.13 1494.38 1800.87 1495.41 1807.56 1496.33C1814.26 1497.37 1820.92 1498.51 1827.55 1499.44C1854.02 1503.53 1880.01 1506.9 1905.38 1512.05C1930.75 1517.03 1955.53 1522.98 1979.43 1530.05C1985.46 1531.67 1991.28 1533.69 1997.19 1535.47L2005.87 1538.49C2008.79 1539.42 2011.67 1540.38 2014.49 1541.45C2025.89 1545.53 2036.96 1549.94 2047.38 1554.37L2047.81 1554.55C2070.22 1564.07 2096.11 1553.62 2105.62 1531.21C2115.05 1509.04 2104.87 1483.44 2082.92 1473.69Z" fill="#66142E"/>
<path d="M1525.08 1443.58C1542.65 1437.8 1572.17 1435.59 1614.3 1456.66C1633.22 1466.12 1638.51 1491.01 1624.87 1507.18C1612.46 1521.88 1590.05 1533.28 1549.7 1522.78C1549.7 1522.78 1494.94 1513.53 1497.86 1476.55C1499.07 1461.12 1510.38 1448.41 1525.08 1443.58Z" fill="#66142E"/>
<path d="M1724.6 1653.91C1700.48 1650.33 1677.69 1647.33 1657.08 1641.02C1636.56 1634.78 1618.55 1625.46 1605.73 1611.12C1592.86 1596.94 1584.42 1578.44 1579.94 1558.03C1577.44 1547.88 1576.17 1537.25 1575.22 1526.49C1574.82 1521.1 1574.59 1515.67 1574.43 1510.24C1574.35 1504.95 1574.39 1499.05 1574.5 1494.45L1542.73 1490.23C1541.02 1494.96 1539.43 1500.57 1537.95 1505.77C1536.38 1511.05 1534.98 1516.34 1533.54 1521.61C1530.66 1532.13 1527.83 1542.58 1524.73 1552.83C1521.63 1563.1 1518.19 1573.07 1514.76 1583.2C1512.99 1588.23 1511.2 1593.35 1509.21 1598.53C1507.25 1603.75 1505 1608.93 1502.67 1614.78L1502.57 1615.03C1501.73 1617.14 1502.76 1619.53 1504.87 1620.37C1505.74 1620.72 1506.66 1620.74 1507.5 1620.51C1520.47 1616.88 1531.33 1608.34 1540.01 1598.71C1548.75 1588.98 1555.17 1577.73 1560.28 1566.22C1565.41 1554.69 1569.16 1542.74 1571.68 1530.62C1572.92 1524.55 1573.9 1518.45 1574.36 1512.26C1574.91 1506 1575.12 1500.09 1574.64 1493.24L1574.53 1491.65C1573.91 1482.8 1566.23 1476.12 1557.38 1476.74C1550.21 1477.24 1544.47 1482.39 1542.87 1489.02C1541.18 1496.07 1540.24 1501.93 1539.51 1508.41C1538.76 1514.74 1538.38 1521.11 1538.32 1527.51C1538.03 1540.31 1539.32 1553.21 1541.68 1566.13C1544.38 1578.97 1548.35 1591.86 1554.43 1604.1C1560.49 1616.32 1568.67 1627.87 1578.74 1637.6C1588.75 1647.39 1600.68 1655.09 1613.17 1660.56C1625.71 1665.99 1638.83 1669.03 1651.74 1670.16C1677.64 1672.14 1702.57 1667.5 1725.07 1657.43C1726 1657.01 1726.42 1655.92 1726 1654.99C1725.76 1654.39 1725.2 1654.01 1724.6 1653.91Z" fill="#66142E"/>
<path d="M2445.36 2125.21C2466.91 2125.21 2477.37 2120.31 2479.9 2118.91C2488.08 2114.41 2491.52 2104.44 2487.84 2095.85C2466.8 2046.74 2412.88 1989.67 2410.6 1987.26L2384.27 2012.26C2384.7 2012.72 2420.92 2051.08 2443.44 2088.89C2435.84 2088.75 2425.84 2087.81 2413.09 2085.21L2405.84 2120.79C2421.86 2124.06 2434.92 2125.21 2445.36 2125.21Z" fill="#66142E"/>
<path d="M2384.81 2069.29C2385.63 2077.13 2387.42 2083.92 2389.65 2090.37C2391.88 2096.81 2394.6 2102.82 2397.68 2108.55C2400.76 2114.28 2404.28 2119.69 2407.9 2125.02C2411.47 2130.39 2415 2135.79 2418.44 2141.26C2432.25 2163.07 2445.05 2185.51 2456.76 2208.44C2480.03 2254.34 2498.91 2302.42 2510.43 2351.88C2522.01 2401.2 2526.34 2452.13 2518.84 2501.24C2511.56 2550.32 2492.45 2596.96 2463.53 2637.19C2449.1 2657.33 2432.43 2675.97 2414.1 2693.03C2409.55 2697.33 2404.72 2701.36 2400.05 2705.54C2395.27 2709.61 2390.3 2713.49 2385.44 2717.47C2384.56 2718.2 2382.19 2720.02 2380.36 2721.76C2378.47 2723.52 2376.69 2725.41 2375.04 2727.43C2371.74 2731.46 2368.98 2736.01 2366.92 2740.87L2363.23 2750.61C2362.15 2753.39 2361.01 2756.17 2359.8 2758.92C2350.11 2780.95 2337.02 2801.57 2320.86 2818.63C2304.71 2835.72 2285.31 2849.06 2263.76 2857.19C2242.29 2865.54 2218.67 2868.64 2194.75 2867.43C2170.79 2866.2 2146.58 2860.98 2122.95 2853.11L2114.1 2850.05L2105.62 2846.88C2101.78 2845.34 2098.37 2843.14 2095.52 2840.35C2089.77 2834.82 2086.28 2826.72 2086.12 2818.56C2085.9 2810.38 2088.88 2802.52 2094.79 2796.48C2101.03 2790.12 2104.71 2784.72 2108.66 2779.96C2112.39 2775.27 2116.43 2770.81 2118.88 2768.99L2119.32 2768.67C2127.37 2762.69 2129.05 2751.32 2123.07 2743.28C2117.09 2735.23 2105.77 2733.53 2097.72 2739.5C2089.57 2745.52 2085.02 2751.19 2080.35 2756.55C2075.85 2761.85 2071.8 2767.14 2068.67 2770.03C2055.68 2782.33 2047.78 2800.65 2047.87 2818.79C2047.72 2836.95 2055.17 2854.92 2068.1 2867.9C2074.54 2874.4 2082.33 2879.55 2090.63 2883.02C2091.75 2883.52 2092.56 2883.83 2093.34 2884.12L2095.75 2885.05L2100.56 2886.91L2110.3 2890.42C2136.39 2899.48 2163.92 2905.95 2192.48 2907.81C2220.96 2909.64 2250.69 2906.36 2278.43 2896C2306.14 2885.63 2331.11 2868.37 2351.05 2847.28C2371.07 2826.16 2386.52 2801.71 2398.03 2775.69C2399.47 2772.43 2400.83 2769.13 2402.14 2765.79L2404.04 2760.74L2405.36 2757.07C2405.85 2755.88 2406.52 2754.74 2407.37 2753.68C2407.79 2753.15 2408.26 2752.64 2408.78 2752.15C2409.34 2751.63 2409.57 2751.44 2411.23 2750.09C2416.5 2745.71 2421.87 2741.46 2427.06 2736.98C2432.15 2732.37 2437.39 2727.93 2442.36 2723.17C2462.37 2704.29 2480.78 2683.46 2496.82 2660.75C2512.92 2638.11 2526.33 2613.38 2536.55 2587.41C2546.78 2561.44 2553.64 2534.17 2557.35 2506.67C2564.83 2451.5 2559.17 2395.8 2545.72 2343.22C2532.08 2290.54 2510.95 2240.57 2485.57 2193.35C2472.81 2169.76 2458.97 2146.82 2444.11 2124.57C2440.41 2119 2436.61 2113.49 2432.78 2108.01C2428.99 2102.5 2424.96 2097.14 2420.36 2092.22C2415.78 2087.28 2410.66 2082.74 2404.92 2078.73C2399.17 2074.74 2392.87 2071.18 2385.27 2068.93C2385.09 2068.88 2384.9 2068.98 2384.85 2069.16C2384.81 2069.2 2384.8 2069.25 2384.81 2069.29Z" fill="#66142E"/>
<path d="M2183.16 2752.07C2155.33 2745.13 2130.65 2739.96 2107.23 2733.02C2095.62 2729.44 2084.24 2725.96 2073.58 2720.97C2062.89 2716.08 2053.07 2709.84 2043.93 2702.85C2034.78 2695.85 2026.63 2687.64 2019.44 2678.53C2012.21 2669.47 2005.62 2659.72 2000.32 2649.01C1994.83 2638.46 1989.96 2627.22 1986.34 2615.62C1982.21 2604.14 1979.62 2592.38 1977.79 2580.61C1975.85 2568.83 1975.62 2557 1976.38 2545.29C1977.12 2533.56 1979.47 2522 1983.31 2510.9C1990.88 2488.66 2004.55 2468.26 2022.64 2451.94C2058.76 2419.35 2109.87 2399.96 2163.53 2405.89C2164.19 2405.97 2164.78 2405.5 2164.86 2404.84C2164.92 2404.32 2164.63 2403.83 2164.18 2403.61C2139.15 2391.92 2109.74 2389.12 2081.51 2393.37C2053.16 2397.59 2025.52 2409.05 2001.91 2426.78C1978.3 2444.48 1959.06 2468.84 1947.01 2496.7C1934.68 2524.55 1930.84 2555.77 1933.3 2585.62C1936.11 2615.64 1944.44 2643.92 1957.62 2670.8C1971.12 2697.46 1990.6 2722.46 2015.79 2740.39C2028.19 2749.52 2041.89 2756.7 2055.96 2762.35C2070.05 2767.92 2084.6 2772.14 2099.39 2773.69C2114.15 2775.36 2128.97 2774.71 2143.29 2772.02C2157.59 2769.11 2171.52 2764.44 2184 2755.94C2184.98 2755.27 2185.23 2753.94 2184.56 2752.96C2184.26 2752.51 2183.8 2752.21 2183.31 2752.09L2183.16 2752.07Z" fill="#66142E"/>
<path d="M2223.57 2177.26C2204.42 2175.79 2185.56 2174.92 2166.78 2174.39C2157.38 2173.89 2148.02 2173.78 2138.66 2173.51C2129.3 2173.15 2119.96 2173.16 2110.62 2172.88C2073.26 2172.18 2036.02 2169.24 1999 2165.31C1980.44 2163.66 1962.05 2160.83 1943.55 2158.7C1925.22 2155.6 1906.67 2153.51 1888.46 2149.68C1879.32 2147.94 1870.1 2146.48 1861 2144.5C1851.95 2142.35 1842.84 2140.41 1833.61 2138.82L1819.7 2136.59C1815.09 2135.76 1810.44 2135 1805.74 2134.39C1796.33 2133.16 1786.76 2132.28 1776.77 2132.35H1776.64C1775.22 2132.36 1774.08 2133.52 1774.09 2134.94C1774.09 2135.79 1774.52 2136.55 1775.16 2137.01C1783.2 2142.77 1791.66 2147.59 1800.28 2152.05C1804.59 2154.28 1808.96 2156.37 1813.36 2158.39C1817.76 2160.39 1822.3 2161.93 1826.82 2163.57C1835.88 2166.77 1845.07 2169.63 1854.31 2172.27C1863.56 2174.85 1872.93 2176.9 1882.25 2179.24C1900.88 2184.04 1919.83 2187.13 1938.72 2190.66C1948.2 2192.17 1957.74 2193.33 1967.26 2194.61C1972.02 2195.2 1976.77 2195.95 1981.55 2196.41L1995.9 2197.63C2015 2199.55 2034.2 2200.17 2053.35 2200.8L2082.1 2200.85C2091.68 2200.79 2101.26 2200.4 2110.83 2200.19C2129.97 2199.49 2149.09 2197.88 2168.05 2194.86C2187 2191.81 2205.85 2187.78 2224.15 2181.02C2225.16 2180.65 2225.67 2179.53 2225.3 2178.52C2225.03 2177.79 2224.36 2177.31 2223.63 2177.26H2223.57Z" fill="#66142E"/>
<path d="M1727.84 2218.73C1783.94 2218.73 1825.38 2183.84 1841.75 2161.13L1812.3 2139.91L1827.03 2150.52L1812.35 2139.85C1810.55 2142.3 1767.43 2199.7 1695.81 2177.37C1682.92 2173.35 1678.04 2166.37 1679.48 2154.01C1684.5 2110.94 1768.32 2026.62 1890.19 2018.1L1887.66 1981.88C1760.1 1990.8 1651.62 2079.48 1643.42 2149.8C1639.94 2179.57 1655.49 2202.83 1685.01 2212.03C1700.03 2216.72 1714.36 2218.73 1727.84 2218.73Z" fill="#66142E"/>
<path d="M1920.46 2456.25C1923.68 2456.25 1926.92 2455.39 1929.83 2453.64C1983.17 2421.46 2028.18 2361.66 2049.55 2330.11C2050.29 2330.76 2050.8 2331.2 2051.03 2331.39C2057.01 2336.43 2065.54 2337.07 2072.23 2332.97C2132.96 2295.65 2139.51 2191.87 2139.76 2187.48L2103.51 2185.41C2102.22 2207.49 2092.62 2264.95 2064.3 2293.21C2063.68 2292.41 2063.15 2291.65 2062.73 2290.95C2059.45 2285.48 2053.54 2282.14 2047.16 2282.14C2047.15 2282.14 2047.13 2282.14 2047.12 2282.14C2040.73 2282.15 2034.82 2285.53 2031.55 2291.02C2031.04 2291.87 1983.81 2370.67 1924.86 2413.4C1908.62 2386.9 1875.45 2313.01 1885.11 2161.82L1848.88 2159.51C1835.06 2375.67 1904.65 2447.97 1907.62 2450.94C1911.12 2454.43 1915.76 2456.25 1920.46 2456.25Z" fill="#66142E"/>
<path d="M1954.32 2582.96C1957.74 2582.96 1961.19 2582 1964.26 2579.99C1972.64 2574.49 1974.98 2563.24 1969.48 2554.85C1942.55 2513.78 1938.62 2437.99 1938.59 2437.24C1938.1 2427.23 1929.6 2419.5 1919.6 2419.97C1909.59 2420.44 1901.86 2428.94 1902.32 2438.95C1902.49 2442.45 1906.71 2525.35 1939.12 2574.77C1942.61 2580.08 1948.41 2582.96 1954.32 2582.96Z" fill="#66142E"/>
<path d="M2026.59 2737.32C2036.43 2737.32 2044.51 2729.46 2044.73 2719.57C2044.95 2709.55 2037 2701.24 2026.98 2701.02C1957.91 2699.49 1874.98 2686.51 1861.42 2668.19C1860.73 2667.25 1860.75 2667.17 1860.97 2666.4C1870.44 2632.73 1937.02 2618.51 1959.6 2616.18C1969.57 2615.15 1976.83 2606.25 1975.81 2596.28C1974.79 2586.32 1965.97 2579.05 1955.94 2580.06C1944.52 2581.21 1843.86 2593.15 1826.02 2656.57C1822.71 2668.33 1824.86 2679.82 1832.25 2689.79C1863.26 2731.66 1999.24 2736.72 2026.19 2737.31C2026.32 2737.32 2026.45 2737.32 2026.59 2737.32Z" fill="#66142E"/>
<path d="M1744.55 1921.75C1731.33 1922.34 1719.44 1923.51 1707.05 1925.14C1694.8 1926.83 1682.62 1928.92 1670.5 1931.4C1646.33 1936.62 1622.33 1943.15 1598.98 1952.05C1552.4 1969.53 1507.22 1995.51 1471.87 2033.66C1463.17 2043.25 1455.16 2053.53 1448.03 2064.41C1444.48 2069.86 1441.14 2075.46 1438.06 2081.2C1436.57 2084.09 1434.99 2086.94 1433.63 2089.9L1431.53 2094.31C1430.82 2095.9 1429.95 2097.86 1429.28 2099.66C1423.64 2114.43 1422.81 2130.97 1426.99 2146.08C1431.08 2161.19 1440.01 2175.1 1452.63 2184.8C1458.9 2189.64 1466.04 2193.43 1473.53 2195.82C1480.64 2198.2 1489.64 2199.74 1498.51 2198.51C1507.46 2197.43 1516.13 2193.43 1522.69 2188.1C1529.35 2182.77 1534.19 2176.45 1537.84 2170.04C1545 2157.13 1547.7 2143.83 1548.46 2130.97C1549.02 2118.06 1547.59 2105.42 1543.48 2093.13C1543.07 2091.91 1541.76 2091.25 1540.54 2091.66C1539.92 2091.87 1539.46 2092.3 1539.19 2092.84L1539.18 2092.87C1533.57 2104.39 1529.58 2115.56 1525.18 2126.02C1520.91 2136.43 1516.47 2146.27 1511.34 2153.91C1508.74 2157.63 1506.03 2160.83 1503.18 2162.77C1500.34 2164.76 1497.67 2165.74 1494.71 2165.93C1491.69 2166.11 1488.61 2165.62 1484.5 2164.03C1480.68 2162.59 1477.22 2160.49 1474.18 2157.88C1468.1 2152.68 1463.8 2145.24 1462.08 2137.21C1460.39 2129.18 1461.02 2120.73 1464.18 2113.29C1464.59 2112.31 1464.96 2111.55 1465.5 2110.43L1467.37 2106.81C1468.57 2104.37 1469.97 2102.04 1471.29 2099.67C1474 2094.97 1476.92 2090.39 1480.02 2085.93C1486.25 2077.03 1493.22 2068.63 1500.8 2060.76C1531.09 2029.05 1571.07 2006.42 1613.45 1990.07C1634.74 1982 1656.7 1975.16 1679.12 1969.95C1690.3 1967.24 1701.59 1964.87 1712.93 1962.89C1724.13 1960.9 1735.95 1959.03 1746.54 1958L1747.14 1957.94C1757.12 1956.97 1764.42 1948.09 1763.44 1938.11C1762.48 1928.48 1754.11 1921.35 1744.55 1921.75Z" fill="#66142E"/>
<path d="M1542.94 2146.81C1543.58 2146.57 1607.95 2122.51 1703.73 2102.34L1696.25 2066.81C1597.53 2087.6 1532.84 2111.81 1530.13 2112.84L1542.94 2146.81Z" fill="#66142E"/>
<path d="M2517.12 2274.97C2517.9 2273.62 2593.28 2144.97 2717.79 2103.33C2721.36 2114.79 2724.29 2133.67 2716.96 2157.11L2751.62 2167.94C2768.96 2112.41 2744.19 2073.13 2743.12 2071.49C2738.84 2064.87 2730.79 2061.75 2723.16 2063.81C2575.05 2103.65 2489.21 2250.64 2485.64 2256.88L2517.12 2274.96L2501.38 2265.92L2517.12 2274.97Z" fill="#66142E"/>
<path d="M2681.87 2186.91C2689.65 2187.43 2697.08 2186.6 2704.33 2185.36C2711.6 2184.11 2718.64 2182.25 2725.51 2179.99C2739.36 2175.66 2752.1 2168.96 2764.77 2162.22C2790.06 2148.61 2814.64 2133.63 2838.32 2117.22C2862.05 2100.87 2884.74 2082.92 2906.17 2063.46C2927.69 2044.09 2947.84 2023.05 2966.32 2000.54C3003.3 1955.6 3033.34 1904.18 3052.62 1848.69L3056.35 1838.33L3059.4 1827.75C3061.36 1820.68 3063.57 1813.68 3065.3 1806.55C3068.29 1792.19 3071.98 1777.97 3073.68 1763.4C3078.5 1734.46 3079.13 1705.12 3078.84 1676.03L3050.71 1690.2L3050.72 1690.21C3061.02 1698.24 3071.78 1707.72 3081.86 1717.11C3092 1726.63 3101.83 1736.51 3111.28 1746.71C3130.23 1767.08 3147.53 1788.87 3162.81 1811.79C3170.35 1823.31 3177.35 1835.12 3183.71 1847.21C3189.98 1859.34 3195.46 1871.79 3200.21 1884.43C3204.84 1897.12 3208.44 1910.07 3211.19 1923.13C3213.73 1936.23 3215.08 1949.44 3215.47 1962.64L3215.48 1963.07C3215.76 1972.71 3223.81 1980.3 3233.45 1980.01C3237.76 1979.88 3241.67 1978.19 3244.64 1975.52C3250.2 1970.5 3254.87 1965.82 3259.75 1960.72C3264.54 1955.67 3269.21 1950.46 3273.66 1944.9C3278.11 1939.33 3282.45 1933.58 3286.38 1927.07C3290.29 1920.56 3294.02 1913.59 3296.57 1904.88L3262.77 1904.79C3264.95 1914.01 3266.93 1924.41 3268.6 1934.37C3270.3 1944.45 3271.72 1954.6 3273.03 1964.77C3275.66 1985.1 3277.4 2005.56 3278.37 2026.02C3280.36 2066.93 3279.04 2107.91 3273.81 2148.18C3263.43 2228.51 3236.05 2306.82 3186.63 2369.43C3174.33 2385.03 3161.02 2399.86 3146.49 2413.49C3131.89 2427.03 3116.21 2439.45 3099.73 2450.8C3066.69 2473.44 3030.12 2491.08 2992.09 2505.25C2953.85 2518.99 2914 2528.93 2873.46 2535.75C2832.75 2542.27 2792.05 2545.76 2750.57 2561.58C2748.82 2562.24 2747.93 2564.19 2748.58 2565.95C2748.96 2566.95 2749.78 2567.67 2750.72 2567.99C2793.33 2581.73 2836.71 2578.83 2879.12 2572.31C2921.68 2566.15 2964.02 2556.66 3005.3 2542.88C3046.46 2528.82 3086.51 2510.15 3123.18 2485.57C3141.49 2473.29 3159.02 2459.73 3175.44 2444.84C3191.72 2429.82 3206.98 2413.61 3220.64 2396.13C3248.07 2361.24 3269.76 2322.01 3285.35 2280.84C3300.95 2239.62 3310.51 2196.57 3315.69 2153.38C3320.77 2110.13 3321.05 2066.65 3318.01 2023.6C3316.32 2002.08 3313.83 1980.65 3310.39 1959.36C3308.65 1948.72 3306.63 1938.12 3304.38 1927.54C3302.09 1916.86 3299.73 1906.66 3296.58 1895.53V1895.52C3294.06 1886.18 3284.44 1880.65 3275.1 1883.17C3268.99 1884.82 3264.51 1889.51 3262.85 1895.16L3262.77 1895.43C3261.64 1899.33 3259.29 1904.08 3256.44 1908.76C3253.61 1913.48 3250.05 1918.23 3246.33 1922.88C3242.6 1927.55 3238.52 1932.11 3234.3 1936.56C3230.14 1940.94 3225.52 1945.51 3221.36 1949.27L3250.53 1962.15C3250.11 1946.7 3248.52 1931.35 3245.58 1916.3C3242.46 1901.31 3238.33 1886.61 3233.13 1872.36C3227.82 1858.18 3221.71 1844.37 3214.82 1831.04C3207.84 1817.77 3200.22 1804.9 3192.06 1792.45C3175.56 1767.68 3157.07 1744.46 3136.99 1722.86C3126.96 1712.04 3116.57 1701.59 3105.81 1691.5C3094.91 1681.37 3084.19 1671.84 3071.89 1662.25L3071.87 1662.23C3064.37 1656.29 3053.47 1657.55 3047.53 1665.05C3045.18 1668.02 3043.95 1671.52 3043.79 1675.04L3043.73 1676.4L3042.82 1696.79C3042.56 1703.58 3042.3 1710.37 3041.41 1717.11L3039.34 1737.34C3038.61 1744.07 3037.17 1750.7 3036.13 1757.39C3034.32 1770.82 3030.75 1783.88 3027.83 1797.06C3026.15 1803.6 3024.01 1810.01 3022.13 1816.49L3019.24 1826.19L3015.8 1835.71C3007.23 1861.34 2995.31 1885.72 2982.31 1909.42C2969.38 1933.21 2953.85 1955.61 2937.01 1976.97C2903.67 2020.09 2863.09 2057.65 2819.39 2091.13C2797.45 2107.8 2774.48 2123.21 2750.73 2137.37C2726.65 2151.17 2703.14 2164.78 2681.61 2186.32C2681.48 2186.45 2681.47 2186.66 2681.61 2186.79C2681.72 2186.87 2681.8 2186.91 2681.87 2186.91Z" fill="#66142E"/>
<path d="M2829.77 2688.68C2837.42 2688.68 2844.36 2683.84 2846.92 2676.45C2871.01 2606.72 2828.94 2552.54 2827.13 2550.27L2798.63 2572.77C2799.79 2574.27 2824.33 2606.55 2816.47 2649.84C2769.46 2640.69 2627.74 2605.28 2551.68 2500.56L2522.3 2521.9C2623.26 2660.89 2819.15 2687.47 2827.44 2688.54C2828.23 2688.63 2829.01 2688.68 2829.77 2688.68Z" fill="#66142E"/>
</g>
<defs>
<radialGradient id="paint0_radial_1525_20537" cx="0" cy="0" r="1" gradientUnits="userSpaceOnUse" gradientTransform="translate(1662.61 740.986) rotate(180) scale(1755.97 1755.97)">
<stop stop-color="#FF7F00"/>
<stop offset="0.3147" stop-color="#FE7D02"/>
<stop offset="0.4281" stop-color="#FC7608"/>
<stop offset="0.5089" stop-color="#F86B12"/>
<stop offset="0.5742" stop-color="#F25A21"/>
<stop offset="0.6295" stop-color="#EB4435"/>
<stop offset="0.6757" stop-color="#E22B4B"/>
</radialGradient>
<linearGradient id="paint1_linear_1525_20537" x1="2747.39" y1="971.742" x2="2200.58" y2="1316.28" gradientUnits="userSpaceOnUse">
<stop stop-color="#FF7F00"/>
<stop offset="0.2153" stop-color="#FE7C02"/>
<stop offset="0.3474" stop-color="#FB740A"/>
<stop offset="0.457" stop-color="#F66617"/>
<stop offset="0.5544" stop-color="#EF5129"/>
<stop offset="0.6428" stop-color="#E63740"/>
<stop offset="0.6757" stop-color="#E22B4B"/>
</linearGradient>
<linearGradient id="paint2_linear_1525_20537" x1="2353.96" y1="525.111" x2="1897.17" y2="1151.94" gradientUnits="userSpaceOnUse">
<stop stop-color="#FF7F00"/>
<stop offset="0.2153" stop-color="#FE7C02"/>
<stop offset="0.3474" stop-color="#FB740A"/>
<stop offset="0.457" stop-color="#F66617"/>
<stop offset="0.5544" stop-color="#EF5129"/>
<stop offset="0.6428" stop-color="#E63740"/>
<stop offset="0.6757" stop-color="#E22B4B"/>
</linearGradient>
<radialGradient id="paint3_radial_1525_20537" cx="0" cy="0" r="1" gradientUnits="userSpaceOnUse" gradientTransform="translate(1329.22 1927.96) rotate(180) scale(1890.17 1890.17)">
<stop stop-color="#FF7F00"/>
<stop offset="0.3252" stop-color="#FE7D02"/>
<stop offset="0.4423" stop-color="#FC7608"/>
<stop offset="0.5258" stop-color="#F86B12"/>
<stop offset="0.5933" stop-color="#F25A21"/>
<stop offset="0.6505" stop-color="#EB4435"/>
<stop offset="0.6982" stop-color="#E22B4B"/>
</radialGradient>
<linearGradient id="paint4_linear_1525_20537" x1="1426.17" y1="1959.22" x2="1959.64" y2="2230.4" gradientUnits="userSpaceOnUse">
<stop stop-color="#FF7F00"/>
<stop offset="0.2153" stop-color="#FE7C02"/>
<stop offset="0.3474" stop-color="#FB740A"/>
<stop offset="0.457" stop-color="#F66617"/>
<stop offset="0.5544" stop-color="#EF5129"/>
<stop offset="0.6428" stop-color="#E63740"/>
<stop offset="0.6757" stop-color="#E22B4B"/>
</linearGradient>
<linearGradient id="paint5_linear_1525_20537" x1="3308.05" y1="1624.81" x2="2354.48" y2="3091.84" gradientUnits="userSpaceOnUse">
<stop stop-color="#FF7F00"/>
<stop offset="0.2213" stop-color="#FE7C02"/>
<stop offset="0.357" stop-color="#FB740A"/>
<stop offset="0.4697" stop-color="#F66617"/>
<stop offset="0.5698" stop-color="#EF5129"/>
<stop offset="0.6606" stop-color="#E63740"/>
<stop offset="0.6944" stop-color="#E22B4B"/>
</linearGradient>
<clipPath id="clip0_1525_20537">
<rect width="2640.28" height="2905.42" fill="white" transform="matrix(-1 0 0 1 3320 584)"/>
</clipPath>
</defs>
</svg>
