<svg width="4000" height="4000" viewBox="0 0 4000 4000" fill="none" xmlns="http://www.w3.org/2000/svg">
<path opacity="0.3" d="M1995 3407C2621.84 3407 3130 3359.18 3130 3300.2C3130 3241.22 2621.84 3193.4 1995 3193.4C1368.16 3193.4 860 3241.22 860 3300.2C860 3359.18 1368.16 3407 1995 3407Z" fill="#66142E"/>
<path d="M3044.87 2719.93C3038.76 2728.91 3027.48 2732.93 3017.07 2729.92C3006.58 2726.83 2999.25 2717.42 2998.97 2706.5C2994.88 2570.87 2914.85 2536.17 2867.58 2527.55C2796.6 2514.69 2725.34 2544.29 2711.33 2578.34C2682.88 2647.66 2598.47 2708.08 2546.96 2739.84C2580.01 2760.17 2622.82 2794.87 2643.01 2846.52C2658.53 2886.1 2658.31 2928.7 2642.44 2973.46C2645.96 2974.97 2648.98 2976.69 2651.64 2978.42C2672.11 2991.64 2681.09 3013.26 2684.97 3027.7C2700.13 3037.11 2710.9 3050.47 2716.44 3067.07C2731.45 3112.33 2702.5 3166.35 2696.9 3176.12C2687.7 3195.16 2675.78 3213.12 2661.48 3229.57C2617.8 3279.43 2559.04 3306.08 2504.73 3306.08C2470.03 3306.08 2437.2 3295.23 2411.34 3272.6C2398.12 3261.03 2387.7 3247.24 2380.09 3231.94C2354.8 3241.71 2310.12 3256.37 2243.95 3269.94L2243.02 3271.09C2241.66 3272.74 2240.22 3274.32 2238.71 3275.83C2232.68 3281.94 2225.49 3287.04 2217.59 3290.77C2213.64 3292.64 2209.54 3294.15 2205.23 3295.3C2200.42 3296.52 2197.97 3296.81 2194.96 3297.46C2183.11 3299.62 2171.18 3301.34 2159.11 3302.49C2134.9 3304.57 2110.12 3304.86 2084.54 3300.62L2074.91 3298.75L2065.28 3296.24L2055.58 3293.08C2054.93 3292.86 2053.71 3292.43 2052.56 3291.93C2051.34 3291.43 2050.19 3290.92 2049.04 3290.35C2046.81 3289.2 2044.59 3287.98 2042.5 3286.54C2035.03 3281.65 2029.07 3275.12 2024.61 3267.72C2009.88 3270.02 1989.84 3272.46 1971.09 3272.46C1952.41 3272.46 1932.37 3270.02 1917.64 3267.72C1913.19 3275.12 1907.22 3281.66 1899.75 3286.54C1897.67 3287.98 1895.44 3289.2 1893.14 3290.35C1892.06 3290.92 1890.84 3291.43 1889.69 3291.93C1888.54 3292.43 1887.25 3292.86 1886.6 3293.08L1876.97 3296.24L1867.27 3298.75L1857.64 3300.62C1832.07 3304.86 1807.35 3304.57 1783.14 3302.49C1771.07 3301.34 1759.15 3299.62 1747.29 3297.46C1744.27 3296.81 1741.83 3296.53 1736.95 3295.3C1732.71 3294.15 1728.62 3292.64 1724.59 3290.77C1716.69 3287.03 1709.58 3281.93 1703.54 3275.83C1702.03 3274.32 1700.59 3272.74 1699.23 3271.09L1698.3 3269.94C1632.21 3256.43 1587.59 3241.71 1562.31 3232.01C1554.55 3247.38 1543.99 3261.11 1530.92 3272.6C1505.49 3294.8 1473.16 3306.36 1437.6 3306.36C1426.9 3306.36 1415.9 3305.35 1404.77 3303.2C1358.72 3294.51 1314.68 3268.29 1280.77 3229.56C1266.4 3213.11 1254.55 3195.15 1245.28 3176.11C1239.68 3166.34 1210.73 3112.32 1225.81 3067.06C1231.34 3050.47 1242.12 3037.1 1257.28 3027.69C1261.09 3013.25 1270.14 2991.63 1290.54 2978.41C1293.2 2976.69 1296.29 2974.96 1299.74 2973.45C1283.94 2928.69 1283.72 2886.09 1299.17 2846.51C1327.83 2773.23 1401.97 2734.08 1429.2 2721.87C1429.2 2719.14 1429.13 2716.41 1429.13 2713.75C1429.56 2690.4 1430.14 2667.05 1431.29 2643.78C1433.37 2597.16 1437.11 2550.75 1442.14 2504.48C1444.3 2485.16 1446.67 2465.9 1449.32 2446.65C1442.06 2446 1435.17 2442.34 1430.79 2435.87C1400.69 2391.69 1364.12 2287.74 1424.76 2192.98C1403.5 2175.31 1366.71 2144.2 1330 2110.51C1224.4 2013.45 1209.17 1978.76 1208.23 1957.56C1208.09 1954.54 1208.52 1951.6 1209.45 1948.72C1211.03 1943.83 1217.21 1926.02 1228.99 1909.85C1214.69 1894.26 1198.96 1870.12 1198.96 1839.81C1198.96 1834.57 1200.61 1829.47 1203.63 1825.23C1204.71 1823.72 1213.9 1811.29 1230.86 1799.94C1236.97 1780.62 1245.59 1712.8 1252.05 1662.44C1261.32 1589.88 1270.87 1515.02 1282.15 1475.66C1283.37 1427.53 1297.52 965.96 1414.19 716.6C1424.25 695.12 1443 678.67 1465.63 671.56C1488.04 664.45 1512.68 667.11 1533.09 678.82C1603.85 719.55 1740.49 825.37 1862.62 1077.03C1868.37 1078.04 1874.19 1078.97 1880.01 1079.9C1892.87 1082.06 1905.94 1083.35 1919.02 1085L1924.48 1085.57C1921.89 1080.9 1919.74 1076.02 1918.01 1071.06C1915.35 1062.87 1913.84 1054.47 1913.34 1046.2C1913.05 1042.03 1913.27 1037.94 1913.34 1033.84C1913.63 1029.82 1914.2 1025.87 1914.85 1021.91V1021.84C1916 1014.08 1921.32 1007.11 1928.93 1005.03C1934.1 1003.59 1938.92 1003.95 1943.08 1005.53L1943.51 1005.75C1956.58 1010.85 1970.81 1015.66 1984.53 1019.76C1998.32 1023.78 2012.26 1027.16 2025.33 1028.96C2032.37 1029.82 2036.03 1029.68 2047.03 1030.47C2056.3 1031.4 2065.35 1033.34 2073.97 1036C2081.58 1038.37 2088.77 1041.39 2095.74 1044.84C2212.26 818.76 2337.98 719.77 2409.1 678.82C2429.57 667.11 2454.14 664.45 2476.63 671.56C2499.26 678.67 2518.01 695.12 2528.07 716.6C2644.74 965.96 2658.89 1427.45 2660.04 1475.66C2671.39 1515.03 2680.95 1589.96 2690.21 1662.44C2696.68 1712.87 2705.3 1780.62 2711.4 1799.94C2728.35 1811.29 2737.48 1823.65 2738.56 1825.23C2741.65 1829.47 2743.3 1834.57 2743.3 1839.81C2743.3 1864.31 2733.03 1884.57 2721.53 1899.8C2873.26 1896.93 2960.11 1967.4 2963.92 1970.56C2972.4 1977.6 2975.27 1989.24 2971.18 1999.37C2963.06 2019.34 2946.47 2032.7 2929.08 2041.68C3037.34 2114.24 3104.8 2205.04 3129.94 2312.16C3178.71 2520 3050.33 2711.81 3044.87 2719.93Z" fill="#66142E"/>
<path d="M2481.36 735.86C2481.93 736.94 2482.58 738.09 2483.08 739.24C2482.94 738.81 2482.72 738.38 2482.51 737.95C2482.15 737.22 2481.79 736.5 2481.36 735.86ZM2464.98 720.84C2471.88 723.86 2477.55 729.32 2481.36 735.85C2477.7 729.1 2472.02 723.86 2464.98 720.84ZM1734.8 952.74C1730.42 946.06 1726.04 939.67 1721.73 933.34C1726.04 939.6 1730.42 946.06 1734.8 952.74ZM1459.73 737.94C1459.59 738.23 1459.51 738.44 1459.37 738.73C1462.6 731.91 1467.7 726.09 1474.1 722.35C1467.84 725.87 1462.81 731.26 1459.73 737.94ZM1297.66 1701.31C1296.94 1706.55 1296.3 1711.51 1295.72 1716.32C1296.36 1711.51 1297.01 1706.56 1297.66 1701.31Z" fill="url(#paint0_linear_7_1443)"/>
<path d="M2593.21 2961.45C2586.17 2955.7 2577.12 2950.46 2565.7 2947.44C2536.89 2940.04 2504.06 2949.95 2468.21 2977.04C2452.98 2988.53 2435.67 3001.54 2420.51 3018.92C2377.12 3068.56 2358.58 3129.98 2365.55 3183.65C2349.96 3189.83 2323.09 3199.24 2283.87 3209.22C2288.68 3201.03 2293.57 3192.84 2297.95 3184.36L2313.47 3152.89L2317.35 3144.99L2320.73 3136.94L2327.55 3120.85C2332.08 3110.07 2336.53 3099.3 2340.12 3088.31C2343.93 3077.32 2347.95 3066.47 2351.54 3055.41L2361.6 3022.22C2373.96 2977.68 2384.73 2932.85 2391.05 2887.3C2392.27 2875.88 2393.92 2864.53 2394.86 2853.1C2395.51 2841.53 2396.66 2830.18 2396.8 2818.62C2397.45 2795.7 2396.94 2772.57 2393.93 2749.58C2381.5 2794.05 2370.65 2837.73 2359.59 2881.26C2348.6 2924.72 2337.39 2967.97 2322.95 3010.07C2308.87 3052.31 2290.91 3092.9 2271.44 3132.27L2255.85 3161.29C2250.46 3170.77 2244.36 3179.82 2238.68 3189.09C2235.73 3193.69 2232.93 3198.36 2229.92 3202.88L2220.22 3215.88L2210.52 3228.88L2205.78 3235.42L2204.56 3237.07C2204.2 3237.57 2204.06 3237.64 2203.84 3238C2203.34 3238.5 2202.91 3239.01 2202.4 3239.51C2200.39 3241.45 2198.16 3242.96 2195.79 3244.04C2193.06 3245.19 2192.27 3245.33 2185.8 3246.41C2175.38 3248.21 2164.82 3249.57 2154.33 3250.5C2133.35 3252.44 2112.38 3252.51 2093.19 3249.35L2086.15 3247.99L2079.25 3246.34L2072.71 3244.33C2072.06 3244.19 2071.92 3244.11 2071.85 3244.04C2071.71 3243.97 2071.56 3243.97 2071.42 3243.9C2071.13 3243.76 2070.85 3243.68 2070.63 3243.47C2068.55 3242.39 2066.61 3239.3 2066.54 3236C2066.47 3235.57 2066.54 3235.28 2066.54 3234.71L2067.83 3222.43L2069.84 3205.98C2071.2 3195.06 2072.79 3184.14 2074.58 3173.22C2081.55 3129.47 2092.11 3086.44 2102.45 3043.26C2112.87 2999.94 2124.86 2957.12 2136.21 2911.79C2105.25 2946.85 2082.19 2987.94 2064.51 3030.83C2046.77 3073.86 2035.34 3119.05 2026.36 3164.6C2024.06 3175.95 2022.05 3187.44 2020.25 3198.94C2019.24 3204.69 2018.53 3210.43 2017.74 3216.25L2017.52 3217.9C2004.59 3219.91 1986.92 3222.14 1971.04 3222.14C1964.36 3222.14 1957.32 3221.71 1950.49 3221.13C1941.15 3220.27 1932.1 3219.05 1924.63 3217.9L1924.41 3216.25C1923.55 3210.43 1922.83 3204.68 1921.9 3198.94C1920.1 3187.8 1918.16 3176.67 1916.01 3165.68C1915.94 3165.32 1915.87 3164.96 1915.79 3164.6C1906.81 3119.05 1895.39 3073.87 1877.57 3030.83C1868.88 3009.71 1858.89 2989.09 1847.25 2969.41C1835.32 2949.01 1821.68 2929.61 1805.94 2911.79C1808.6 2922.49 1811.33 2932.98 1813.99 2943.4C1822.83 2977.31 1831.73 3010.14 1839.71 3043.26C1840.72 3047.57 1841.79 3051.88 1842.8 3056.19C1851.35 3091.89 1859.83 3127.53 1866 3163.59C1866.57 3166.82 1867.08 3169.98 1867.58 3173.22C1869.38 3184.14 1870.88 3195.06 1872.25 3205.98L1874.33 3222.43L1875.62 3234.71C1875.55 3235.28 1875.69 3235.57 1875.62 3236C1875.55 3239.3 1873.54 3242.39 1871.53 3243.47C1871.24 3243.69 1870.96 3243.76 1870.74 3243.9C1870.6 3243.97 1870.45 3243.97 1870.31 3244.04C1870.17 3244.11 1870.09 3244.18 1869.38 3244.33L1862.84 3246.34L1856.02 3247.99L1848.98 3249.35C1829.73 3252.51 1808.82 3252.44 1787.84 3250.5C1777.35 3249.57 1766.79 3248.2 1756.3 3246.41C1749.91 3245.33 1749.12 3245.19 1746.39 3244.04C1744.02 3242.96 1741.72 3241.45 1739.78 3239.51C1739.28 3239.01 1738.85 3238.5 1738.34 3238C1738.12 3237.64 1737.98 3237.57 1737.62 3237.07L1736.4 3235.42L1731.66 3228.88L1712.26 3202.87C1709.24 3198.34 1706.44 3193.67 1703.5 3189.08C1697.82 3179.81 1691.72 3170.76 1686.26 3161.28L1676.99 3143.97L1673.97 3138.37L1670.74 3132.26C1651.27 3092.89 1633.31 3052.3 1619.23 3010.06C1604.72 2967.96 1593.51 2924.71 1582.52 2881.25C1572.25 2840.59 1562.12 2799.78 1550.69 2758.33C1549.11 2752.65 1548.25 2749.57 1548.25 2749.57C1548.18 2749.93 1548.11 2750.22 1548.11 2750.58C1548.11 2751.23 1547.97 2752.23 1547.82 2753.53C1547.6 2755.11 1547.46 2756.76 1547.32 2758.34C1545.67 2772.56 1545.09 2786.72 1545.09 2800.87V2802.02C1545.09 2807.62 1545.16 2813.08 1545.38 2818.61C1545.52 2830.18 1546.6 2841.53 1547.32 2853.09C1548.18 2864.51 1549.83 2875.86 1551.13 2887.29C1557.38 2932.84 1568.23 2977.66 1580.58 3022.21L1590.57 3055.4C1594.23 3066.46 1598.18 3077.31 1601.99 3088.3C1605.65 3099.29 1610.11 3110.07 1614.63 3120.84L1615.42 3122.64L1618.58 3130.11C1618.65 3130.25 1618.65 3130.33 1618.65 3130.33C1618.65 3130.4 1620.66 3135.14 1623.97 3143.12L1624.83 3144.99L1628.64 3152.89L1644.16 3184.36C1648.54 3192.77 1653.5 3200.95 1658.24 3209.22C1655.8 3208.57 1653.35 3208 1651.06 3207.35C1642.58 3205.12 1634.75 3202.97 1627.5 3200.81C1604.8 3194.13 1588.06 3188.09 1576.92 3183.64C1578.21 3173.37 1578.64 3162.66 1578.07 3151.67C1577.28 3136.51 1574.62 3121.35 1570.24 3106.41C1561.12 3075.23 1544.59 3045.13 1521.68 3018.91C1506.45 3001.52 1489.21 2988.52 1473.98 2977.03C1447.69 2957.2 1423.05 2946.57 1400.42 2945.21C1392.16 2944.71 1384.18 2945.5 1376.5 2947.44C1365.01 2950.46 1355.95 2955.7 1348.99 2961.45C1345.97 2953.55 1343.53 2945.72 1341.88 2938.03C1335.77 2911.95 1337.14 2887.6 1345.9 2865.04C1362.71 2821.72 1403.23 2792.84 1430.38 2777.61C1430.52 2779.69 1430.6 2781.78 1430.74 2783.86L1431.6 2801.39C1432.03 2807.28 1432.75 2813.1 1433.25 2818.99C1434.47 2830.63 1435.33 2842.27 1437.27 2853.9C1439.07 2865.54 1441.01 2877.1 1443.23 2888.67C1445.89 2900.16 1448.76 2911.59 1451.92 2922.79C1454 2875.95 1458.31 2830.33 1462.77 2784.57C1467.37 2738.88 1471.89 2693.19 1477.43 2647.57C1482.53 2604.68 1487.92 2561.86 1493.59 2519.12C1493.59 2519.12 1493.59 2519.19 1493.66 2519.34C1531.16 2621.57 1588.49 2693.12 1591.87 2697.36C1600.56 2707.99 1616.15 2709.72 1626.93 2701.24C1634.62 2695.21 1641.08 2688.96 1646.47 2682.78C1740.44 2865.04 1950.64 2967.05 1960.27 2971.65C1963.65 2973.3 1967.38 2974.09 1971.05 2974.09C1971.12 2974.09 1971.12 2974.09 1971.19 2974.09C1974.85 2974.09 1978.52 2973.3 1981.89 2971.65C1991.52 2967.05 2201.72 2865.04 2295.61 2682.78C2301.07 2688.96 2307.46 2695.21 2315.15 2701.24C2326 2709.72 2341.59 2707.99 2350.21 2697.36C2353.66 2693.12 2410.99 2621.5 2448.56 2519.13C2454.24 2561.87 2459.62 2604.69 2464.65 2647.58C2467.88 2673.95 2470.76 2700.38 2473.49 2726.82C2473.49 2726.82 2476.51 2753.62 2476.79 2759.36L2479.38 2784.58C2483.83 2830.34 2488.14 2875.96 2490.23 2922.8C2493.39 2911.59 2496.26 2900.17 2498.92 2888.68C2501.15 2877.11 2503.09 2865.55 2504.81 2853.91C2506.82 2842.27 2507.61 2830.63 2508.83 2819C2509.4 2813.11 2510.05 2807.29 2510.48 2801.4L2511.41 2783.87C2511.55 2781.79 2511.63 2779.63 2511.7 2777.48C2538.78 2792.64 2579.16 2821.37 2596.11 2864.84C2607.65 2894 2606.58 2926.47 2593.21 2961.45Z" fill="url(#paint1_linear_7_1443)"/>
<path d="M3038.12 2627.4C3006.73 2514.97 2918.36 2485.66 2876.55 2478.12C2828.06 2469.28 2777.55 2476.04 2737.4 2493.49C2703.06 2508.5 2676.26 2531.42 2664.84 2559.22C2640.34 2618.78 2557.94 2674.59 2512.83 2701.68C2512.4 2682.36 2511.9 2663.03 2510.96 2643.78C2508.88 2597.16 2505.14 2550.75 2500.11 2504.48C2497.95 2485.16 2495.51 2465.9 2492.93 2446.65C2500.19 2446 2507.08 2442.34 2511.46 2435.87C2541.56 2391.69 2577.98 2287.81 2517.64 2193.12C2517.57 2193.05 2517.5 2192.98 2517.5 2192.98C2531.01 2181.7 2550.83 2165.03 2572.96 2145.71C2585.53 2134.65 2598.89 2122.72 2612.26 2110.51C2717.86 2013.45 2733.09 1978.76 2734.03 1957.56C2734.1 1954.97 2733.74 1952.46 2733.1 1950.02C2818.66 1950.67 2879.44 1977.53 2909.75 1994.92C2896.75 2002.39 2878.5 2007.35 2865.57 2008.79C2854.65 2009.94 2845.81 2018.06 2843.59 2028.76C2841.37 2039.46 2846.39 2050.38 2855.87 2055.7C2979.79 2125.38 3055.44 2215.4 3080.87 2323.3C3108.81 2441.84 3070.16 2558.15 3038.12 2627.4Z" fill="url(#paint2_linear_7_1443)"/>
<path d="M2664.33 1931.06C2656.64 1926.82 2651.76 1918.92 2651.4 1910.15C2651.04 1901.39 2655.28 1893.05 2662.61 1888.17C2669.87 1883.21 2687.54 1867.41 2691.92 1848.44C2689.05 1845.78 2685.02 1842.55 2679.99 1839.6C2662.82 1829.54 2658.37 1810.36 2640.33 1668.84C2631.49 1599.59 2621.44 1521.21 2610.95 1487.01C2610.23 1484.78 2609.87 1482.41 2609.8 1480.11C2609.8 1479.18 2609.37 1459.64 2607.79 1426.95C2607.65 1424.58 2607.57 1422.14 2607.43 1419.62C2607.36 1417.9 2607.21 1416.1 2607.14 1414.3C2607 1411.93 2606.92 1409.49 2606.78 1407.04C2606.35 1398.92 2605.85 1390.23 2605.27 1381.03C2605.13 1378.59 2604.91 1376 2604.77 1373.49C2604.41 1367.17 2603.98 1360.63 2603.48 1353.81C2603.34 1351.58 2603.19 1349.36 2602.98 1347.06C2602.84 1344.26 2602.62 1341.46 2602.41 1338.65C2602.27 1336.71 2602.12 1334.77 2601.98 1332.83C2601.62 1328.09 2601.26 1323.28 2600.9 1318.39C2600.54 1313.79 2600.18 1309.12 2599.75 1304.45C2598.67 1291.09 2597.45 1277.29 2596.09 1263C2595.73 1258.76 2595.3 1254.52 2594.87 1250.14C2594.44 1245.33 2593.94 1240.44 2593.43 1235.56C2593 1231.61 2592.57 1227.66 2592.21 1223.63C2592.07 1222.48 2591.92 1221.33 2591.85 1220.18C2589.69 1199.78 2587.25 1178.66 2584.52 1157.1C2583.23 1146.83 2581.86 1136.48 2580.43 1126.14C2577.7 1106.31 2574.75 1086.34 2571.52 1066.23C2569.8 1055.6 2568 1044.97 2566.2 1034.33C2564.55 1024.92 2562.82 1015.51 2561.03 1006.1C2560.6 1003.87 2560.24 1001.65 2559.81 999.419C2559.09 995.679 2558.37 992.019 2557.58 988.279C2548.53 942.449 2537.9 897.259 2525.54 854.869C2522.88 845.889 2520.15 837.049 2517.35 828.359C2514.4 819.239 2511.39 810.259 2508.3 801.489C2506.72 797.109 2505.14 792.799 2503.56 788.489C2498.75 775.559 2493.72 763.059 2488.4 750.989C2486.68 747.039 2484.88 743.089 2483.08 739.209C2482.58 738.059 2481.93 736.909 2481.36 735.829C2477.55 729.289 2471.88 723.829 2464.98 720.819C2463.83 720.249 2462.61 719.809 2461.39 719.459C2452.27 716.589 2442.57 717.589 2434.16 722.409C2394.79 745.109 2337.39 787.069 2274.1 862.569C2210.81 937.999 2141.63 1046.91 2078.7 1203.38C2057.08 1194.69 2045.8 1170.76 2052.77 1148.49C2059.31 1127.66 2065.27 1107.33 2074.03 1088.79C2069.07 1085.92 2063.9 1083.47 2058.73 1081.53C2053.05 1079.45 2047.31 1077.94 2041.56 1077.08C2037.47 1076.51 2026.04 1075.72 2018.14 1074.21C2001.4 1071.05 1986.1 1066.38 1971.16 1061.21C1965.84 1059.34 1960.67 1057.33 1955.57 1055.39C1955.71 1057.26 1955.86 1059.2 1956.14 1061.07C1956.86 1066.31 1958.3 1071.34 1959.88 1076.3C1960.74 1078.89 1961.6 1081.33 1962.61 1083.91L1964.05 1087.65C1964.48 1088.8 1964.62 1092.61 1964.41 1093.25C1960.75 1105.03 1950.19 1113.29 1937.9 1114.01L1917.43 1114.44C1903.78 1114.51 1890.06 1114.01 1876.27 1113.08C1862.55 1112.15 1848.76 1110.35 1834.89 1107.91C1831.37 1107.26 1827.85 1106.47 1824.33 1105.68C1824.76 1109.99 1825.12 1114.23 1825.48 1118.54C1826.05 1122.78 1826.63 1127.16 1827.35 1131.47C1830.65 1148.35 1835.9 1164.66 1845.53 1178.24C1855.01 1191.96 1868.88 1202.81 1885.76 1209.27C1902.64 1216.02 1921.97 1218.39 1941.51 1217.1C1932.46 1220.98 1922.69 1223.42 1912.7 1224.79C1902.71 1226.15 1892.3 1226.66 1881.95 1225.22C1861.12 1222.85 1839.92 1213.22 1823.62 1197.85C1807.31 1182.33 1796.18 1162.51 1788.85 1142.25C1783.96 1128.03 1779.22 1113.3 1779.22 1098.57C1779.22 1092.39 1780.08 1086.14 1782.09 1079.96L1783.89 1074.79C1786.26 1067.89 1792.22 1063.37 1799.05 1062.51C1788.49 1042.25 1777.86 1023.07 1767.3 1004.97C1763.85 999.219 1760.48 993.549 1757.1 987.939C1757.03 987.719 1756.88 987.579 1756.74 987.369C1753.51 981.979 1750.2 976.739 1746.97 971.569C1742.95 965.179 1738.85 958.849 1734.83 952.749C1730.45 946.069 1726.07 939.679 1721.76 933.349C1691.52 889.669 1661.92 853.889 1634.12 824.729C1623.42 813.519 1613.07 803.319 1603.09 794.129C1565.37 758.999 1532.47 736.509 1508.05 722.429C1506.76 721.709 1505.39 720.989 1504.03 720.419C1498.28 718.049 1492.1 717.329 1486 718.259C1484.42 718.479 1482.77 718.829 1481.19 719.339C1478.68 720.059 1476.38 721.139 1474.15 722.359C1467.76 726.099 1462.66 731.909 1459.42 738.739C1455.47 747.219 1451.59 755.979 1447.93 764.959C1444.63 773.009 1441.39 781.269 1438.3 789.669C1436.43 794.769 1434.56 799.869 1432.77 805.119C1431.05 810.009 1429.39 814.889 1427.74 819.919C1425.8 825.599 1424 831.269 1422.21 837.089C1419.19 846.639 1416.32 856.409 1413.52 866.329L1412.44 870.209C1410.86 875.889 1409.35 881.489 1407.84 887.239C1406.48 892.269 1405.18 897.299 1403.96 902.329C1403.46 903.909 1403.1 905.489 1402.74 907.139C1400.73 914.969 1398.86 922.939 1396.99 930.989C1394.83 939.969 1392.82 948.949 1390.88 958.069C1389.66 963.669 1388.51 969.349 1387.36 975.099C1384.06 990.899 1381.04 1006.92 1378.16 1022.95C1377.44 1026.83 1376.72 1030.78 1376.08 1034.73C1375.29 1038.9 1374.57 1043.06 1373.92 1047.23C1372.99 1052.62 1372.05 1058.08 1371.19 1063.47C1371.12 1064.04 1370.97 1064.62 1370.9 1065.27C1369.46 1074.25 1368.1 1083.16 1366.73 1092.14C1366.01 1096.88 1365.29 1101.62 1364.65 1106.36C1363.93 1111.1 1363.29 1115.84 1362.64 1120.51C1361.85 1125.97 1361.13 1131.43 1360.41 1136.89C1359.62 1142.78 1358.83 1148.67 1358.11 1154.49C1357.54 1159.02 1356.96 1163.54 1356.39 1168C1355.53 1175.11 1354.67 1182.15 1353.88 1189.19C1353.31 1194 1352.8 1198.82 1352.23 1203.56C1352.09 1204.49 1352.01 1205.36 1351.94 1206.22C1351.08 1214.27 1350.22 1222.24 1349.35 1230.14C1346.48 1258.52 1344.03 1285.6 1341.95 1310.74C1341.66 1314.55 1341.38 1318.35 1341.02 1322.09C1340.88 1325.04 1340.66 1327.84 1340.37 1330.71C1340.23 1333.44 1340.01 1336.17 1339.8 1338.83C1339.15 1348.38 1338.51 1357.51 1337.93 1366.27C1337.71 1369.07 1337.57 1371.87 1337.36 1374.6C1336.64 1386.02 1336.07 1396.8 1335.49 1406.64C1335.42 1408.08 1335.35 1409.44 1335.27 1410.81C1335.05 1414.62 1334.91 1418.35 1334.7 1421.87C1334.56 1424.67 1334.48 1427.4 1334.34 1429.99C1334.27 1430.92 1334.2 1431.86 1334.2 1432.72C1334.13 1434.16 1334.06 1435.52 1333.98 1436.89C1333.98 1437.97 1333.91 1439.05 1333.84 1440.12C1333.7 1444.14 1333.55 1447.88 1333.41 1451.33C1333.34 1452.48 1333.34 1453.63 1333.27 1454.78C1333.27 1454.92 1333.2 1455.14 1333.27 1455.28C1333.13 1457.72 1333.05 1459.95 1332.98 1462.03C1332.84 1465.05 1332.76 1467.71 1332.69 1469.93C1332.62 1471.65 1332.62 1473.16 1332.55 1474.46C1332.48 1477.91 1332.41 1479.85 1332.41 1480.14C1332.41 1482.44 1331.98 1484.81 1331.33 1487.04C1320.77 1521.16 1310.78 1599.61 1301.95 1668.8C1301.66 1671.03 1301.38 1673.18 1301.09 1675.34C1300.59 1679.65 1300.01 1683.82 1299.51 1687.91C1298.86 1692.58 1298.29 1697.03 1297.71 1701.34C1297.06 1706.58 1296.42 1711.54 1295.77 1716.35C1295.48 1718.15 1295.27 1719.87 1295.05 1721.59C1294.69 1724.18 1294.33 1726.76 1293.97 1729.28C1292.25 1742.21 1290.59 1753.56 1289.08 1763.48C1288.94 1764.56 1288.72 1765.64 1288.58 1766.71C1288.01 1769.94 1287.5 1773.1 1287.07 1776.05C1286.78 1777.85 1286.5 1779.57 1286.21 1781.29C1283.7 1795.3 1281.47 1805.72 1279.1 1813.69C1278.74 1814.98 1278.31 1816.28 1277.95 1817.43C1274.79 1826.98 1271.41 1832.37 1267.25 1836.04C1266.75 1836.54 1266.17 1836.97 1265.67 1837.33C1265.24 1837.69 1264.81 1838.05 1264.38 1838.34C1263.73 1838.77 1263.02 1839.2 1262.3 1839.63C1257.27 1842.58 1253.25 1845.74 1250.3 1848.47C1254.75 1867.44 1272.43 1883.24 1279.75 1888.27C1287.01 1893.23 1291.17 1901.56 1290.81 1910.25C1290.38 1918.94 1285.57 1926.92 1277.95 1931.08C1271.34 1934.74 1263.73 1948.03 1259.42 1958.59C1270.2 1987.83 1364.59 2078.2 1456.4 2153.99C1615.96 1997.24 1900.3 2193.43 1971.13 2246.73C2042.04 2193.43 2326.38 1997.23 2485.93 2153.99C2577.53 2078.41 2671.56 1988.26 2682.84 1958.44C2678.42 1947.79 2670.87 1934.72 2664.33 1931.06ZM1485.8 840.739C1484.87 839.879 1483.5 838.439 1483.29 838.299C1482.36 837.289 1481.21 836.789 1480.06 836.219C1475.32 834.139 1469.21 835.649 1464.9 839.379C1464.33 839.879 1463.89 840.459 1463.32 841.099C1462.75 841.749 1461.88 843.399 1461.16 844.479C1459.65 846.919 1458.29 849.509 1456.85 852.089C1453.9 857.189 1451.1 862.429 1448.23 867.679C1442.63 878.309 1436.81 889.089 1430.77 900.009C1430.27 887.509 1430.84 875.009 1432.57 862.729C1432.93 859.709 1433.36 856.699 1433.93 853.679V853.459C1434.43 850.369 1435.08 847.279 1435.73 844.189C1436.45 841.099 1437.17 838.009 1437.96 834.919C1438.46 833.269 1438.61 832.119 1439.4 830.029C1440.19 827.949 1441.05 825.859 1442.27 823.919C1446.8 815.869 1454.63 809.619 1463.46 806.749C1472.3 803.729 1482.14 803.949 1491.12 807.249C1495.5 808.969 1499.81 811.269 1503.4 814.359C1505.48 816.009 1506.2 816.799 1507.49 817.949L1510.94 821.179C1515.61 825.419 1519.85 829.939 1524.37 834.329C1559.14 870.179 1588.09 910.339 1614.24 951.929C1639.31 991.939 1661.51 1033.4 1681.63 1075.78C1693.27 1100.42 1704.19 1125.42 1714.6 1150.64V1150.71C1722.14 1168.89 1729.33 1187.13 1736.22 1205.52C1736.87 1206.96 1737.44 1208.39 1738.09 1209.9C1738.52 1210.98 1738.95 1212.13 1739.38 1213.42L1740.31 1216.15C1740.31 1216.22 1740.38 1216.29 1740.38 1216.44L1740.45 1216.51L1740.81 1217.66C1743.61 1226.07 1741.74 1234.97 1736.5 1241.37C1733.63 1245.03 1729.75 1247.91 1725.01 1249.49C1711.94 1253.87 1697.78 1246.9 1693.26 1233.9L1692.97 1233.11L1692.9 1232.97C1692.61 1232.04 1692.25 1231.1 1691.97 1230.17C1691.75 1229.52 1691.47 1228.81 1691.18 1228.01C1690.53 1226.43 1689.89 1224.85 1689.17 1223.27C1687.81 1220.04 1686.15 1216.8 1684.57 1213.57C1681.19 1207.25 1677.46 1200.93 1673.29 1194.96C1664.96 1182.96 1655.4 1171.9 1644.41 1162.34C1633.42 1152.86 1621.57 1144.24 1608.49 1137.77C1602.17 1134.03 1595.2 1131.59 1588.52 1128.65C1587.44 1128.22 1586.29 1127.93 1585.22 1127.57C1584.57 1128.93 1583.93 1130.37 1583.35 1131.74C1580.55 1138.64 1578.97 1145.32 1579.4 1152.36C1579.83 1159.4 1582.27 1167.02 1587.23 1175.06C1588.09 1177.29 1589.67 1179.15 1591.04 1181.17L1595.21 1187.78C1598.44 1192.02 1601.82 1196.47 1605.12 1201.93C1599.44 1202.15 1593.77 1201.57 1588.09 1200.64L1581.41 1207.32C1578.46 1210.34 1575.59 1213.43 1572.86 1216.52C1567.47 1222.84 1562.8 1229.24 1559.14 1236.2C1555.62 1243.17 1553.54 1250.57 1553.18 1259.55C1552.25 1268.67 1554.83 1278.37 1557.27 1289.94C1557.27 1290.01 1557.34 1290.16 1557.34 1290.23C1557.27 1290.23 1557.27 1290.16 1557.2 1290.16C1546.93 1285.56 1536.94 1278.31 1530.48 1267.31C1530.34 1267.17 1530.26 1266.95 1530.12 1266.74C1523.58 1255.75 1519.85 1241.38 1521.43 1227.87C1522.51 1214.22 1526.96 1201.36 1533.14 1190.15C1534.65 1187.28 1536.3 1184.55 1538.1 1181.96C1539.9 1179.3 1541.69 1176.72 1543.78 1174.27C1544.79 1173.05 1545.94 1171.83 1547.01 1170.68C1545.5 1168.38 1544.06 1166.08 1543.2 1163.5C1540.18 1156.82 1538.46 1149.71 1537.45 1142.38C1537.45 1141.95 1537.38 1141.52 1537.38 1141.02C1537.24 1137.93 1536.95 1134.7 1537.09 1131.61C1537.38 1128.09 1537.38 1124.43 1538.02 1121.05C1539.24 1114.15 1540.89 1107.4 1543.48 1101.15C1544.63 1097.99 1546.14 1094.9 1547.65 1091.88C1549.37 1088.72 1550.74 1086.28 1553.61 1082.33L1554.04 1081.83C1560.15 1073.42 1570.71 1070.26 1580.12 1073.14H1580.26C1589.02 1076.01 1597.93 1078.31 1606.48 1081.76C1615.03 1085.35 1623.72 1088.58 1631.77 1093.25C1635.65 1095.12 1639.46 1097.27 1643.19 1099.5C1643.19 1099.43 1643.19 1099.43 1643.19 1099.43C1624.87 1055.68 1604.4 1012.79 1581.05 971.769C1557.77 930.819 1531.62 891.239 1500.73 856.469C1496.78 852.299 1492.97 847.849 1488.88 843.829L1485.8 840.739ZM1745.22 1898.37C1721.8 1884.29 1697.95 1871.57 1673.52 1861.01C1649.31 1850.16 1624.74 1841.04 1599.96 1833.85C1575.39 1826.02 1550.25 1821.35 1525.53 1815.89L1523.52 1815.46C1506.93 1811.8 1494.78 1799.08 1490.98 1783.71C1489.4 1777.46 1489.18 1770.78 1490.69 1764.03C1495.86 1740.75 1518.85 1726.1 1542.13 1731.2C1542.63 1731.34 1543.28 1731.49 1543.78 1731.63C1573.16 1739.39 1601.97 1749.52 1628.62 1763.67C1642.27 1769.99 1654.91 1778.33 1667.7 1786.01C1674.02 1789.89 1679.91 1794.56 1686.02 1798.73L1695.07 1805.27L1703.76 1812.17C1715.4 1821.37 1726.25 1831.35 1736.95 1841.34C1747.22 1851.9 1757.42 1862.25 1766.69 1873.52C1770.21 1877.69 1773.66 1882 1776.96 1886.31C1791.4 1904.92 1804.26 1924.67 1814.1 1945.79C1791.7 1928.04 1768.71 1912.52 1745.22 1898.37ZM2032.29 1952.97C2026.4 1977.11 2007.36 1990.83 1992.06 1998.23C1985.45 2001.46 1978.27 2003.04 1971.08 2003.04C1963.89 2003.04 1956.78 2001.46 1950.17 1998.23C1934.87 1990.83 1915.83 1977.11 1909.94 1952.97H2032.29ZM2057.72 2100.38C2045.36 2103.4 2032.22 2104.69 2018.64 2103.04C2005.13 2101.46 1990.98 2095.86 1979.77 2085.94C1976.68 2083.21 1974.02 2080.19 1971.51 2077.03C1971.37 2077.17 1971.22 2077.39 1971.08 2077.53C1968.71 2080.76 1965.98 2083.71 1962.89 2086.44C1951.83 2096.71 1937.39 2102.32 1923.81 2103.9C1910.09 2105.7 1896.8 2104.12 1884.44 2100.95C1872.01 2097.86 1860.23 2093.19 1849.45 2086.87C1861.73 2088.88 1873.88 2089.82 1885.73 2089.6C1897.58 2089.17 1909.15 2087.66 1919.35 2084.07C1929.48 2080.41 1938.03 2074.95 1943.99 2067.62C1950.24 2060.51 1954.12 2051.38 1957.28 2041.47L1957.42 2041.04C1959.36 2034.93 1964.96 2030.98 1971.07 2030.98C1972.51 2030.98 1974.02 2031.2 1975.45 2031.7C1980.19 2033.14 1983.64 2037.02 1984.93 2041.47C1987.73 2051.38 1991.32 2060.79 1997.65 2068.12C2003.61 2075.81 2012.45 2081.19 2022.65 2084.93C2032.99 2088.67 2044.63 2089.89 2056.49 2090.25C2068.42 2090.32 2080.56 2089.24 2092.7 2086.87C2081.86 2092.91 2070.08 2097.36 2057.72 2100.38ZM2420.37 1815.03C2419.87 1815.17 2419.36 1815.32 2418.86 1815.39L2416.63 1815.89C2391.99 1821.35 2366.85 1826.02 2342.28 1833.85C2317.42 1841.03 2292.85 1850.16 2268.72 1861.01C2244.29 1871.57 2220.44 1884.29 2196.95 1898.37C2173.53 1912.52 2150.47 1928.04 2128.13 1945.78C2140.2 1919.77 2156.87 1895.78 2175.54 1873.51C2184.74 1862.23 2195.01 1851.89 2205.28 1841.33C2215.98 1831.34 2226.83 1821.36 2238.47 1812.16L2247.16 1805.26L2256.21 1798.72C2262.32 1794.55 2268.21 1789.88 2274.53 1786C2287.32 1778.31 2299.96 1769.98 2313.61 1763.66C2340.26 1749.51 2369 1739.38 2398.38 1731.62C2421.44 1725.59 2445 1739.31 2451.11 1762.37C2457.15 1785.36 2443.43 1809 2420.37 1815.03ZM2511.46 900.009C2505.43 889.089 2499.61 878.309 2493.93 867.679C2491.13 862.439 2488.25 857.189 2485.38 852.089C2483.94 849.499 2482.51 846.919 2481 844.479C2480.35 843.399 2479.42 841.749 2478.92 841.099C2478.35 840.449 2477.91 839.879 2477.27 839.379C2473.03 835.639 2466.93 834.139 2462.11 836.219C2461.03 836.789 2459.88 837.299 2458.95 838.299C2458.66 838.439 2457.3 839.879 2456.36 840.739L2453.34 843.829C2449.25 847.849 2445.44 852.309 2441.49 856.469C2410.6 891.239 2384.45 930.819 2361.1 971.769C2337.75 1012.79 2317.35 1055.68 2299.03 1099.43C2299.03 1099.43 2299.03 1099.43 2299.03 1099.5C2302.77 1097.27 2306.5 1095.12 2310.38 1093.25C2318.5 1088.58 2327.19 1085.35 2335.67 1081.76C2344.29 1078.31 2353.2 1076.01 2361.89 1073.14H2362.11C2372.02 1070.05 2382.37 1073.86 2388.19 1081.76L2388.55 1082.33C2391.42 1086.28 2392.79 1088.72 2394.51 1091.88C2396.09 1094.9 2397.6 1097.99 2398.75 1101.15C2401.34 1107.4 2402.99 1114.15 2404.21 1121.05C2404.86 1124.43 2404.86 1128.09 2405.14 1131.61C2405.28 1135.13 2404.92 1138.87 2404.78 1142.39C2403.77 1149.72 2402.05 1156.83 2399.03 1163.51C2398.17 1166.1 2396.73 1168.4 2395.22 1170.69C2396.3 1171.84 2397.45 1173.06 2398.45 1174.28C2400.46 1176.72 2402.33 1179.31 2404.05 1181.97C2405.92 1184.56 2407.57 1187.29 2409.08 1190.16C2415.26 1201.37 2419.71 1214.23 2420.72 1227.88C2422.3 1241.39 2418.64 1255.75 2412.1 1266.75C2405.56 1278.1 2395.36 1285.57 2384.8 1290.24C2387.31 1278.53 2389.97 1268.76 2389.04 1259.56C2388.68 1250.58 2386.6 1243.18 2383.01 1236.21C2379.42 1229.24 2374.75 1222.85 2369.29 1216.53C2366.63 1213.44 2363.76 1210.35 2360.74 1207.33L2354.06 1200.65C2348.46 1201.58 2342.78 1202.16 2337.11 1201.94C2340.41 1196.48 2343.79 1192.03 2346.95 1187.79L2351.19 1181.18C2352.55 1179.17 2354.14 1177.3 2355 1175.07C2359.89 1167.02 2362.4 1159.41 2362.76 1152.37C2363.26 1145.33 2361.68 1138.65 2358.88 1131.75C2358.31 1130.39 2357.66 1128.95 2357.01 1127.58C2355.93 1127.94 2354.78 1128.23 2353.71 1128.66C2346.96 1131.61 2339.99 1134.05 2333.74 1137.78C2320.59 1144.25 2308.81 1152.87 2297.82 1162.35C2286.83 1171.9 2277.2 1182.97 2268.94 1194.97C2264.77 1200.93 2261.04 1207.25 2257.66 1213.58C2256.08 1216.81 2254.36 1220.05 2253.06 1223.28C2252.27 1224.86 2251.7 1226.44 2251.05 1228.02C2250.76 1228.81 2250.48 1229.53 2250.26 1230.18C2249.9 1231.11 2249.61 1232.05 2249.33 1232.98L2249.26 1233.12L2248.97 1233.91C2244.44 1247.06 2230.08 1253.95 2217 1249.43C2203.93 1244.9 2197.03 1230.75 2201.41 1217.68L2201.77 1216.53L2201.84 1216.46C2201.84 1216.32 2201.84 1216.24 2201.91 1216.17L2202.84 1213.44C2203.27 1212.15 2203.7 1211 2204.13 1209.92C2204.7 1208.41 2205.35 1206.97 2206 1205.47C2239.12 1117.9 2277.77 1031.91 2327.98 951.949C2354.13 910.349 2383.08 870.199 2417.85 834.349C2422.3 829.969 2426.61 825.439 2431.28 821.199L2434.73 817.969C2436.02 816.819 2436.67 816.029 2438.82 814.379C2442.41 811.289 2446.65 808.989 2451.1 807.269C2460.01 803.969 2469.92 803.749 2478.76 806.769C2487.6 809.639 2495.43 815.889 2499.95 823.939C2501.1 825.879 2501.96 827.959 2502.82 830.049C2503.61 832.129 2503.75 833.279 2504.26 834.939C2505.05 838.029 2505.77 841.119 2506.49 844.209C2507.78 850.389 2508.79 856.569 2509.65 862.739C2511.32 875.009 2511.96 887.509 2511.46 900.009Z" fill="url(#paint3_linear_7_1443)"/>
<path d="M1771.45 1044.57C1772.52 1056.29 1771.47 1067.09 1770.65 1073.03C1770.31 1075.5 1767.68 1077.02 1765.42 1075.98C1755.46 1071.41 1747.33 1064.55 1741.61 1058.7C1739.12 1056.15 1734.81 1058.11 1735.15 1061.66C1736.48 1075.83 1734.38 1091.75 1733.08 1099.69C1732.66 1102.23 1729.82 1103.57 1727.53 1102.39C1708.62 1092.63 1693.29 1083.45 1681.66 1075.8C1662.41 1063.23 1652.85 1054.75 1652.85 1054.75C1652.85 1054.75 1669.8 1126.3 1669.01 1128.6C1668.22 1130.9 1568.94 1098.57 1568.94 1098.57C1568.94 1098.57 1556.22 1115.88 1537.4 1141.03C1491.35 1202.52 1408.81 1310.93 1388.05 1325.66C1369.16 1339.09 1350.84 1335.14 1340.35 1330.69C1351.63 1181.69 1377.85 952.239 1438.27 789.659C1441.36 781.249 1444.59 772.989 1447.9 764.949C1451.59 755.969 1455.41 747.189 1459.37 738.749C1463.67 729.579 1471.47 722.219 1481.18 719.339C1490.31 716.639 1499.83 717.689 1508.03 722.419C1532.46 736.499 1565.36 758.989 1603.07 794.119C1613.06 803.319 1623.4 813.519 1634.1 824.719C1683.53 876.519 1738.7 949.219 1792.58 1050.3C1785.83 1046.98 1780.94 1043.83 1777.47 1041.19C1774.83 1039.21 1771.15 1041.3 1771.45 1044.57Z" fill="#8E3410"/>
<path d="M2170.72 1044.57C2169.65 1056.29 2170.7 1067.09 2171.52 1073.03C2171.86 1075.5 2174.49 1077.02 2176.75 1075.98C2186.71 1071.41 2194.84 1064.55 2200.56 1058.7C2203.05 1056.15 2207.36 1058.11 2207.02 1061.66C2205.69 1075.83 2207.79 1091.75 2209.09 1099.69C2209.51 1102.23 2212.35 1103.57 2214.64 1102.39C2233.55 1092.63 2248.88 1083.45 2260.51 1075.8C2279.76 1063.23 2289.32 1054.75 2289.32 1054.75C2289.32 1054.75 2272.37 1126.3 2273.16 1128.6C2273.95 1130.9 2373.23 1098.57 2373.23 1098.57C2373.23 1098.57 2385.95 1115.88 2404.77 1141.03C2450.82 1202.52 2533.36 1310.93 2554.12 1325.66C2573.01 1339.09 2591.33 1335.14 2601.82 1330.69C2590.54 1181.69 2564.32 952.239 2503.9 789.659C2500.81 781.249 2497.58 772.989 2494.27 764.949C2490.58 755.969 2486.76 747.189 2482.8 738.749C2478.5 729.579 2470.7 722.219 2460.99 719.339C2451.86 716.639 2442.34 717.689 2434.14 722.419C2409.71 736.499 2376.81 758.989 2339.1 794.119C2329.11 803.319 2318.77 813.519 2308.07 824.719C2258.64 876.519 2203.47 949.219 2149.59 1050.3C2156.34 1046.98 2161.23 1043.83 2164.7 1041.19C2167.33 1039.21 2171.01 1041.3 2170.72 1044.57Z" fill="#8E3410"/>
<path d="M1875.68 3234.73C1875.61 3235.3 1875.75 3235.59 1875.68 3236.02C1875.61 3239.32 1873.6 3242.41 1871.59 3243.49C1871.3 3243.71 1871.02 3243.78 1870.8 3243.92C1870.66 3243.99 1870.51 3243.99 1870.37 3244.06C1870.23 3244.13 1870.15 3244.2 1869.44 3244.35L1862.9 3246.36L1856.08 3248.01L1849.04 3249.37C1829.79 3252.53 1808.88 3252.46 1787.9 3250.52C1777.41 3249.59 1766.85 3248.22 1756.36 3246.43C1749.97 3245.35 1749.18 3245.21 1746.45 3244.06C1744.08 3242.98 1741.78 3241.47 1739.84 3239.53C1739.34 3239.03 1738.91 3238.52 1738.4 3238.02C1738.18 3237.66 1738.04 3237.59 1737.68 3237.09L1736.46 3235.44L1731.72 3228.9L1712.32 3202.89C1709.3 3198.36 1706.5 3193.69 1703.56 3189.1C1697.88 3179.83 1691.78 3170.78 1686.32 3161.3L1677.05 3143.99C1677.4 3133.86 1678.36 3122.42 1680.61 3113C1681.97 3107.29 1688.57 3104.64 1693.58 3107.7C1699.89 3111.56 1708.46 3117.22 1716.22 3123.79C1722.01 3128.69 1730.85 3124.43 1730.53 3116.85C1730.03 3105.1 1729.8 3090.66 1730.6 3076.97C1731.03 3069.7 1739.66 3066.11 1745.09 3070.97C1750.32 3075.65 1756.54 3081.92 1762.62 3089.7C1767.67 3096.17 1778.06 3092.7 1778.15 3084.49C1778.22 3078.21 1778.37 3071.63 1778.63 3065.47C1778.99 3057.1 1789.82 3054.02 1794.52 3060.96C1800.06 3069.14 1806.46 3080.12 1812.19 3093.79C1815.33 3101.27 1826.07 3100.81 1828.49 3093.07C1832.38 3080.62 1837.45 3066.33 1842.85 3056.19C1852.19 3095.05 1861.38 3133.85 1867.63 3173.22C1869.43 3184.14 1870.93 3195.06 1872.3 3205.98L1874.38 3222.43L1875.68 3234.73Z" fill="#8E3410"/>
<path d="M2066.48 3234.73C2066.55 3235.3 2066.41 3235.59 2066.48 3236.02C2066.55 3239.32 2068.56 3242.41 2070.57 3243.49C2070.86 3243.71 2071.14 3243.78 2071.36 3243.92C2071.5 3243.99 2071.65 3243.99 2071.79 3244.06C2071.93 3244.13 2072.01 3244.2 2072.72 3244.35L2079.26 3246.36L2086.08 3248.01L2093.12 3249.37C2112.37 3252.53 2133.28 3252.46 2154.26 3250.52C2164.75 3249.59 2175.31 3248.22 2185.8 3246.43C2192.19 3245.35 2192.98 3245.21 2195.71 3244.06C2198.08 3242.98 2200.38 3241.47 2202.32 3239.53C2202.82 3239.03 2203.25 3238.52 2203.76 3238.02C2203.98 3237.66 2204.12 3237.59 2204.48 3237.09L2205.7 3235.44L2210.44 3228.9L2229.84 3202.89C2232.86 3198.36 2235.66 3193.69 2238.6 3189.1C2244.28 3179.83 2250.38 3170.78 2255.84 3161.3L2265.11 3143.99C2264.76 3133.86 2263.8 3122.42 2261.55 3113C2260.19 3107.29 2253.59 3104.64 2248.58 3107.7C2242.27 3111.56 2233.7 3117.22 2225.94 3123.79C2220.15 3128.69 2211.31 3124.43 2211.63 3116.85C2212.13 3105.1 2212.36 3090.66 2211.56 3076.97C2211.13 3069.7 2202.5 3066.11 2197.07 3070.97C2191.84 3075.65 2185.62 3081.92 2179.54 3089.7C2174.49 3096.17 2164.1 3092.7 2164.01 3084.49C2163.94 3078.21 2163.79 3071.63 2163.53 3065.47C2163.17 3057.1 2152.34 3054.02 2147.64 3060.96C2142.1 3069.14 2135.7 3080.12 2129.97 3093.79C2126.83 3101.27 2116.09 3100.81 2113.67 3093.07C2109.78 3080.62 2104.71 3066.33 2099.31 3056.19C2089.97 3095.05 2080.78 3133.85 2074.53 3173.22C2072.73 3184.14 2071.23 3195.06 2069.86 3205.98L2067.78 3222.43L2066.48 3234.73Z" fill="#8E3410"/>
<path d="M2652.98 3151.61C2652.62 3152.26 2652.26 3152.9 2651.97 3153.55C2644.64 3168.78 2635.09 3183.22 2623.59 3196.44C2570.28 3257.36 2489.97 3274.53 2444.42 3234.73C2398.87 3194.93 2405.12 3112.96 2458.36 3052.04C2470.14 3038.61 2484.58 3027.69 2498.52 3017.2C2520.57 3000.53 2539.76 2993.06 2552.62 2996.08C2562.75 2998.45 2567.35 3007.36 2567.35 3007.36C2571.52 3016.63 2580.64 3022.23 2590.34 3022.23C2593 3022.23 2595.66 3021.8 2598.31 3020.94C2609.88 3017.06 2618.57 3016.99 2624.24 3020.58C2633.36 3026.33 2637.1 3042.06 2637.67 3046.95C2638.6 3056.15 2644.42 3064.05 2652.97 3067.64C2663.89 3072.17 2667.05 3078.2 2668.63 3082.94C2675.9 3104.56 2659.31 3140.69 2652.98 3151.61Z" fill="#FFDAB6"/>
<path d="M1497.8 3234.73C1476.61 3253.19 1446.94 3260.02 1414.11 3253.77C1379.05 3247.16 1345.14 3226.76 1318.63 3196.44C1307.06 3183.22 1297.51 3168.78 1290.25 3153.55C1289.96 3152.9 1289.6 3152.26 1289.24 3151.68C1282.85 3140.69 1266.25 3104.55 1273.51 3082.93C1275.09 3078.19 1278.32 3072.15 1289.24 3067.63C1297.72 3064.04 1303.61 3056.14 1304.54 3046.94C1304.9 3043.2 1308.49 3026.68 1317.83 3020.65C1320.63 3018.85 1324.08 3017.92 1328.32 3017.92C1332.7 3017.92 1337.95 3018.93 1343.91 3020.94C1356.19 3025.11 1369.34 3019.65 1374.59 3007.79C1374.81 3007.43 1379.4 2998.45 1389.6 2996.08C1402.46 2993.06 1421.64 3000.53 1443.7 3017.2C1457.64 3027.69 1472.08 3038.61 1483.86 3052.04C1510.37 3082.36 1526.03 3118.71 1527.9 3154.34C1529.7 3187.68 1518.99 3216.2 1497.8 3234.73Z" fill="#FFDAB6"/>
<path d="M2484.59 2379.19C2482 2374.23 2480.85 2370.21 2480.35 2368.34C2480.21 2367.62 2480.13 2366.83 2479.99 2366.11H2479.92C2477.91 2353.68 2466.99 2344.56 2454.35 2344.92C2441.28 2345.35 2430.71 2355.7 2430.07 2368.7C2423.68 2489.1 2359.24 2596.93 2327.99 2642.55C2320.02 2631.13 2318.08 2622.15 2318 2621.79C2316.06 2610.58 2306.86 2602.11 2295.51 2601.03C2284.16 2600.02 2273.53 2606.71 2269.65 2617.41C2207.51 2786.45 2018.5 2895.57 1971.08 2920.72C1923.74 2895.58 1734.73 2786.45 1672.59 2617.41C1668.64 2606.71 1658.01 2600.02 1646.73 2601.03C1635.38 2602.11 1626.18 2610.58 1624.17 2621.79C1624.17 2621.93 1622.23 2631.06 1614.18 2642.55C1582.93 2596.93 1518.56 2489.1 1512.17 2368.7C1511.45 2355.7 1500.89 2345.35 1487.82 2344.92C1475.46 2344.49 1464.33 2353.68 1462.32 2366.11H1462.25C1462.11 2366.83 1461.96 2367.62 1461.82 2368.34C1461.39 2370.21 1460.24 2374.16 1457.73 2378.97C1441.85 2340.75 1425.4 2270.2 1478.35 2204.4C1588.91 2069.41 1813.27 2198.87 1909.68 2264.89C1917.87 2270.42 1925.13 2275.59 1931.3 2280.05C1928.21 2282.85 1925.19 2285.65 1922.1 2288.53C1911.47 2298.59 1900.98 2308.86 1890.92 2319.71C1880.79 2330.63 1870.88 2341.69 1861.68 2353.83C1852.41 2365.97 1843.5 2378.76 1835.89 2393.49C1834.53 2395.5 1833.59 2397.73 1833.09 2400.03C1832.73 2401.39 1832.52 2402.83 1832.52 2404.27C1832.45 2404.84 1832.45 2405.13 1832.45 2405.13C1832.45 2409.73 1833.89 2414.25 1836.9 2418.13L1839.2 2421.08C1843.08 2426.04 1845.88 2428.98 1849.47 2432.5C1852.85 2435.8 1856.51 2438.89 1860.25 2441.77C1867.65 2447.66 1875.91 2452.62 1884.53 2456.86C1901.77 2465.34 1921.89 2470.08 1941.71 2469C1961.47 2467.85 1980.86 2461.74 1995.52 2450.47L2001.05 2446.45C2002.77 2444.94 2004.35 2443.36 2006.01 2441.78C2009.24 2438.76 2012.26 2435.39 2015.21 2432.23C2020.74 2425.33 2025.27 2417.79 2029.22 2410.18C2020.67 2412.77 2013.27 2416.14 2005.73 2418.73C2001.92 2419.88 1998.04 2420.81 1994.45 2422.03C1992.65 2422.53 1990.93 2423.18 1989.13 2423.68L1983.6 2424.54C1980.01 2425.11 1976.56 2425.9 1973.11 2426.41C1969.59 2426.48 1966.21 2426.77 1962.91 2426.98C1959.61 2427.55 1956.3 2426.62 1953.07 2426.62L1948.33 2426.4L1943.66 2425.32C1931.23 2423.02 1919.67 2418.21 1908.46 2411.53C1902.93 2408.08 1897.4 2404.56 1892.15 2400.39C1891.72 2400.1 1891.29 2399.67 1890.86 2399.38C1894.16 2394.42 1897.76 2389.47 1901.49 2384.58C1909.39 2374.09 1918.44 2364.03 1927.64 2354.12C1936.84 2344.13 1946.61 2334.58 1956.59 2325.17C1966.5 2315.83 1976.99 2306.42 1987.05 2298.01C1992.29 2293.77 2321.9 2031.05 2463.92 2204.4C2517.28 2270.79 2500.68 2341.12 2484.59 2379.19Z" fill="#FFDAB6"/>
<path d="M1643.2 1099.44C1643.2 1099.44 1643.2 1099.44 1643.2 1099.51C1639.46 1097.28 1635.66 1095.13 1631.78 1093.26C1623.73 1088.59 1615.04 1085.36 1606.49 1081.77C1597.94 1078.32 1589.03 1076.02 1580.27 1073.15H1580.13C1570.72 1070.28 1560.16 1073.44 1554.05 1081.84L1553.62 1082.34C1550.75 1086.29 1549.38 1088.73 1547.66 1091.89C1546.15 1094.91 1544.64 1098 1543.49 1101.16C1540.9 1107.41 1539.25 1114.16 1538.03 1121.06C1537.38 1124.44 1537.38 1128.1 1537.1 1131.62C1536.96 1135.14 1537.32 1138.88 1537.46 1142.4C1538.47 1149.73 1540.19 1156.84 1543.21 1163.52C1544.07 1166.11 1545.51 1168.41 1547.02 1170.7C1545.94 1171.85 1544.79 1173.07 1543.79 1174.29C1541.71 1176.73 1539.91 1179.32 1538.11 1181.98C1536.31 1184.57 1534.66 1187.3 1533.15 1190.17C1526.97 1201.38 1522.52 1214.24 1521.44 1227.89C1519.86 1241.4 1523.6 1255.76 1530.13 1266.76C1536.6 1278.04 1546.8 1285.51 1557.21 1290.18C1557.28 1290.25 1557.35 1290.25 1557.35 1290.25C1433.43 1344.49 1368.77 1451.1 1368.77 1451.1C1374.88 1197.72 1404.33 1023.44 1420.35 945.779C1420.35 945.779 1420.35 945.709 1420.42 945.709C1426.6 915.609 1430.76 900.019 1430.76 900.019C1436.79 889.099 1442.61 878.319 1448.22 867.689C1451.09 862.449 1453.9 857.199 1456.84 852.099C1458.28 849.509 1459.64 846.929 1461.15 844.489C1461.87 843.409 1462.73 841.759 1463.31 841.109C1463.88 840.459 1464.32 839.889 1464.89 839.389C1469.2 835.649 1475.31 834.149 1480.05 836.229C1481.2 836.799 1482.35 837.309 1483.28 838.309C1483.5 838.449 1484.86 839.889 1485.79 840.749L1488.88 843.839C1492.97 847.859 1496.78 852.319 1500.73 856.479C1531.62 891.249 1557.77 930.829 1581.05 971.779C1604.41 1012.8 1624.89 1055.69 1643.2 1099.44Z" fill="#FFDAB6"/>
<path d="M2384.81 1290.25C2508.73 1344.49 2573.39 1451.1 2573.39 1451.1C2564.91 1099.37 2511.39 900.019 2511.39 900.019C2505.36 889.099 2499.54 878.319 2493.93 867.689C2491.06 862.449 2488.25 857.199 2485.31 852.099C2483.87 849.509 2482.51 846.929 2481 844.489C2480.28 843.409 2479.42 841.759 2478.84 841.109C2478.27 840.459 2477.83 839.889 2477.26 839.389C2472.95 835.649 2466.84 834.149 2462.1 836.229C2460.95 836.799 2459.8 837.309 2458.87 838.309C2458.65 838.449 2457.29 839.889 2456.36 840.749L2453.27 843.839C2449.18 847.859 2445.37 852.319 2441.42 856.479C2410.53 891.249 2384.38 930.829 2361.1 971.779C2337.75 1012.8 2317.28 1055.69 2298.96 1099.44C2298.96 1099.44 2298.96 1099.44 2298.96 1099.51C2302.7 1097.28 2306.5 1095.13 2310.38 1093.26C2318.43 1088.59 2327.12 1085.36 2335.67 1081.77C2344.22 1078.32 2353.13 1076.02 2361.89 1073.15H2362.03C2371.44 1070.28 2382 1073.44 2388.11 1081.84L2388.54 1082.34C2391.41 1086.29 2392.78 1088.73 2394.5 1091.89C2396.01 1094.91 2397.52 1098 2398.67 1101.16C2401.26 1107.41 2402.91 1114.16 2404.13 1121.06C2404.78 1124.44 2404.78 1128.1 2405.06 1131.62C2405.2 1135.14 2404.84 1138.88 2404.7 1142.4C2403.69 1149.73 2401.97 1156.84 2398.95 1163.52C2398.09 1166.11 2396.65 1168.41 2395.14 1170.7C2396.22 1171.85 2397.37 1173.07 2398.37 1174.29C2400.45 1176.73 2402.25 1179.32 2404.05 1181.98C2405.85 1184.57 2407.5 1187.3 2409.01 1190.17C2415.19 1201.38 2419.64 1214.24 2420.72 1227.89C2422.3 1241.4 2418.56 1255.76 2412.03 1266.76C2405.57 1278.1 2395.29 1285.58 2384.81 1290.25Z" fill="#FFDAB6"/>
<path d="M2682.8 1958.57C2672.02 1987.81 2577.63 2078.18 2485.82 2153.97C2326.26 1997.22 2041.92 2193.41 1971.09 2246.71C1900.26 2193.41 1615.91 1997.21 1456.36 2153.97C1364.62 2078.25 1270.29 1987.95 1259.45 1958.64C1259.38 1958.57 1259.38 1958.57 1259.38 1958.57C1263.69 1948.01 1271.31 1934.72 1277.91 1931.06C1285.52 1926.89 1290.34 1918.92 1290.77 1910.23C1291.13 1901.54 1286.96 1893.2 1279.71 1888.25C1272.38 1883.22 1254.71 1867.42 1250.26 1848.45C1253.21 1845.72 1257.23 1842.56 1262.26 1839.61C1271.81 1833.93 1277.49 1825.46 1283.74 1794.14C1313.34 1776.11 1373.68 1758.87 1491 1783.72C1562.91 1798.88 1656.23 1829.91 1776.99 1886.31C1818.01 1905.49 1862.26 1927.55 1909.96 1952.98L1971.1 1977.98L2032.24 1952.98C2079.94 1927.55 2124.19 1905.49 2165.22 1886.31C2285.98 1829.92 2379.3 1798.88 2451.21 1783.72C2568.52 1758.86 2628.87 1776.11 2658.47 1794.14C2664.72 1825.46 2670.4 1833.94 2679.95 1839.61C2684.98 1842.56 2689 1845.72 2691.95 1848.45C2687.5 1867.42 2669.82 1883.22 2662.5 1888.25C2655.24 1893.21 2651.08 1901.54 2651.44 1910.23C2651.87 1918.92 2656.68 1926.9 2664.3 1931.06C2670.87 1934.72 2678.49 1948.01 2682.8 1958.57Z" fill="#FFDAB6"/>
<path d="M3038.48 2626.54C3038.26 2627.11 3038.12 2627.4 3038.12 2627.4C3006.73 2514.97 2918.36 2485.66 2876.55 2478.12C2828.06 2469.28 2777.55 2476.04 2737.4 2493.49C2742.29 2461.95 2749.9 2432.5 2756.72 2410.08C2759.95 2399.38 2747.6 2391.11 2738.76 2398.01C2705.43 2423.87 2671.59 2436.16 2651.76 2441.62C2643.5 2443.92 2635.6 2436.59 2637.54 2428.26C2648.75 2380.42 2675.4 2330.77 2697.38 2295.5C2703.7 2285.37 2692.06 2273.73 2681.79 2279.91C2649.89 2299.23 2621.59 2312.31 2604.85 2319.42C2597.16 2322.65 2588.54 2316.91 2589.05 2308.57C2591.78 2262.81 2611.25 2218.7 2629.14 2187.09C2634.89 2176.96 2623.46 2165.97 2613.41 2171.86C2602.92 2178.11 2593.37 2183.28 2586.04 2187.16C2578.5 2191.04 2569.52 2185.72 2569.37 2177.25C2569.23 2166.69 2570.59 2156.06 2572.96 2145.71C2585.53 2134.65 2598.89 2122.72 2612.26 2110.51C2626.84 2097.08 2639.7 2084.86 2651.05 2073.8C2670.81 2054.26 2685.96 2038.02 2697.53 2024.37C2708.52 2011.37 2716.35 2000.59 2721.81 1991.54C2731.08 1976.17 2733.66 1965.82 2734.02 1957.56C2734.09 1954.97 2733.73 1952.46 2733.09 1950.02C2818.65 1950.67 2879.43 1977.53 2909.74 1994.92C2896.74 2002.39 2878.49 2007.35 2865.56 2008.79C2854.64 2009.94 2845.8 2018.06 2843.58 2028.76C2841.36 2039.46 2846.38 2050.38 2855.86 2055.7C2979.78 2125.38 3055.43 2215.4 3080.86 2323.3C3108.66 2441.33 3070.45 2557.21 3038.48 2626.54Z" fill="#FFDAB6"/>
<path d="M1617.28 1695.96C1640.54 1707.82 1691.94 1735.5 1732.4 1767.87C1742.25 1775.75 1756.14 1765.48 1751.3 1753.83C1725.13 1690.75 1672.8 1598.34 1613.14 1677.68C1608.57 1683.76 1610.5 1692.5 1617.28 1695.96Z" fill="#FFDAB6"/>
<path d="M2324.89 1695.96C2301.63 1707.82 2250.23 1735.5 2209.77 1767.87C2199.92 1775.75 2186.03 1765.48 2190.87 1753.83C2217.04 1690.75 2269.37 1598.34 2329.03 1677.68C2333.59 1683.76 2331.67 1692.5 2324.89 1695.96Z" fill="#FFDAB6"/>
<path d="M1467.41 3188.26C1484.53 3164.45 1479.1 3131.26 1455.28 3114.14C1431.46 3097.02 1398.28 3102.46 1381.16 3126.27C1364.04 3150.09 1369.47 3183.28 1393.29 3200.39C1417.11 3217.51 1450.29 3212.08 1467.41 3188.26Z" fill="#FF80B4"/>
<path d="M1328.01 3156.66C1342.53 3156.66 1354.3 3144.89 1354.3 3130.37C1354.3 3115.85 1342.53 3104.08 1328.01 3104.08C1313.49 3104.08 1301.72 3115.85 1301.72 3130.37C1301.72 3144.89 1313.49 3156.66 1328.01 3156.66Z" fill="#FF80B4"/>
<path d="M1354.3 3098.16C1368.82 3098.16 1380.59 3086.39 1380.59 3071.87C1380.59 3057.35 1368.82 3045.58 1354.3 3045.58C1339.78 3045.58 1328.01 3057.35 1328.01 3071.87C1328.01 3086.39 1339.78 3098.16 1354.3 3098.16Z" fill="#FF80B4"/>
<path d="M1419.53 3092.39C1434.05 3092.39 1445.82 3080.62 1445.82 3066.1C1445.82 3051.58 1434.05 3039.81 1419.53 3039.81C1405.01 3039.81 1393.24 3051.58 1393.24 3066.1C1393.24 3080.62 1405.02 3092.39 1419.53 3092.39Z" fill="#FF80B4"/>
<path d="M2526.33 3209.61C2555.29 3204.91 2574.95 3177.63 2570.25 3148.68C2565.55 3119.72 2538.27 3100.06 2509.32 3104.76C2480.37 3109.46 2460.7 3136.74 2465.4 3165.69C2470.1 3194.65 2497.38 3214.31 2526.33 3209.61Z" fill="#FF80B4"/>
<path d="M2614.15 3156.66C2628.67 3156.66 2640.44 3144.89 2640.44 3130.37C2640.44 3115.85 2628.67 3104.08 2614.15 3104.08C2599.63 3104.08 2587.86 3115.85 2587.86 3130.37C2587.86 3144.89 2599.63 3156.66 2614.15 3156.66Z" fill="#FF80B4"/>
<path d="M2587.86 3098.16C2602.38 3098.16 2614.15 3086.39 2614.15 3071.87C2614.15 3057.35 2602.38 3045.58 2587.86 3045.58C2573.34 3045.58 2561.57 3057.35 2561.57 3071.87C2561.57 3086.39 2573.34 3098.16 2587.86 3098.16Z" fill="#FF80B4"/>
<path d="M2522.63 3092.39C2537.15 3092.39 2548.92 3080.62 2548.92 3066.1C2548.92 3051.58 2537.15 3039.81 2522.63 3039.81C2508.11 3039.81 2496.34 3051.58 2496.34 3066.1C2496.34 3080.62 2508.11 3092.39 2522.63 3092.39Z" fill="#FF80B4"/>
<path d="M3129.93 2312.17C3104.79 2205.06 3037.33 2114.25 2929.07 2041.69C2946.46 2032.71 2963.05 2019.35 2971.17 1999.38C2975.26 1989.25 2972.39 1977.61 2963.91 1970.57C2960.1 1967.41 2873.25 1896.93 2721.52 1899.81C2733.01 1884.58 2743.29 1864.32 2743.29 1839.82C2743.29 1834.58 2741.64 1829.48 2738.55 1825.24C2737.47 1823.66 2728.35 1811.3 2711.39 1799.95C2705.28 1780.63 2696.66 1712.88 2690.2 1662.45C2680.93 1589.96 2671.38 1515.03 2660.03 1475.67C2658.88 1427.47 2644.73 965.97 2528.06 716.61C2518 695.13 2499.25 678.68 2476.62 671.57C2454.13 664.46 2429.57 667.12 2409.09 678.83C2337.97 719.78 2212.25 818.77 2095.73 1044.85C2088.76 1041.4 2081.58 1038.38 2073.96 1036.01C2065.34 1033.35 2056.29 1031.41 2047.02 1030.48C2036.03 1029.69 2032.36 1029.83 2025.32 1028.97C2012.25 1027.17 1998.31 1023.8 1984.52 1019.77C1970.8 1015.68 1956.57 1010.86 1943.5 1005.76L1943.07 1005.54C1938.9 1003.96 1934.09 1003.6 1928.92 1005.04C1921.31 1007.12 1915.99 1014.09 1914.84 1021.85V1021.92C1914.19 1025.87 1913.62 1029.82 1913.33 1033.85C1913.26 1037.94 1913.04 1042.04 1913.33 1046.21C1913.83 1054.47 1915.34 1062.88 1918 1071.07C1919.72 1076.03 1921.88 1080.91 1924.47 1085.58L1919 1085C1905.93 1083.35 1892.85 1082.05 1879.99 1079.9C1874.17 1078.97 1868.35 1078.03 1862.6 1077.03C1740.47 825.38 1603.83 719.56 1533.07 678.82C1512.67 667.11 1488.03 664.45 1465.61 671.56C1442.98 678.67 1424.23 695.12 1414.17 716.6C1297.5 965.96 1283.35 1427.53 1282.13 1475.66C1270.85 1515.03 1261.3 1589.88 1252.03 1662.44C1245.56 1712.8 1236.94 1780.62 1230.84 1799.94C1213.89 1811.29 1204.69 1823.72 1203.61 1825.23C1200.59 1829.47 1198.94 1834.57 1198.94 1839.81C1198.94 1870.13 1214.67 1894.26 1228.97 1909.85C1217.19 1926.01 1211.01 1943.83 1209.43 1948.72C1208.5 1951.59 1208.07 1954.54 1208.21 1957.56C1209.14 1978.75 1224.37 2013.45 1329.98 2110.51C1366.69 2144.2 1403.47 2175.31 1424.74 2192.98C1364.11 2287.74 1400.67 2391.69 1430.77 2435.87C1435.15 2442.34 1442.05 2446 1449.3 2446.65C1446.64 2465.9 1444.27 2485.16 1442.12 2504.48C1437.09 2550.74 1433.36 2597.15 1431.27 2643.78C1430.12 2667.06 1429.55 2690.4 1429.11 2713.75C1429.11 2716.41 1429.18 2719.14 1429.18 2721.87C1401.95 2734.08 1327.81 2773.24 1299.15 2846.51C1283.7 2886.09 1283.92 2928.69 1299.72 2973.45C1296.27 2974.96 1293.18 2976.68 1290.52 2978.41C1270.12 2991.63 1261.07 3013.25 1257.26 3027.69C1242.1 3037.1 1231.33 3050.46 1225.79 3067.06C1210.7 3112.32 1239.65 3166.34 1245.26 3176.11C1254.53 3195.15 1266.38 3213.11 1280.75 3229.56C1314.66 3268.28 1358.7 3294.5 1404.75 3303.2C1415.89 3305.36 1426.88 3306.36 1437.58 3306.36C1473.14 3306.36 1505.47 3294.79 1530.9 3272.6C1543.97 3261.11 1554.54 3247.38 1562.29 3232.01C1587.58 3241.71 1632.19 3256.44 1698.28 3269.94L1699.21 3271.09C1700.57 3272.74 1702.01 3274.32 1703.52 3275.83C1709.55 3281.94 1716.67 3287.04 1724.57 3290.77C1728.59 3292.64 1732.69 3294.15 1736.93 3295.3C1741.82 3296.52 1744.26 3296.81 1747.27 3297.46C1759.12 3299.62 1771.05 3301.34 1783.12 3302.49C1807.33 3304.57 1832.04 3304.86 1857.62 3300.62L1867.25 3298.75L1876.95 3296.24L1886.58 3293.08C1887.23 3292.86 1888.52 3292.43 1889.67 3291.93C1890.82 3291.43 1892.04 3290.92 1893.12 3290.35C1895.42 3289.2 1897.65 3287.98 1899.73 3286.54C1907.2 3281.65 1913.16 3275.12 1917.62 3267.72C1932.35 3270.02 1952.39 3272.46 1971.07 3272.46C1989.82 3272.46 2009.86 3270.02 2024.59 3267.72C2029.04 3275.12 2035.01 3281.66 2042.48 3286.54C2044.56 3287.98 2046.79 3289.2 2049.02 3290.35C2050.17 3290.92 2051.32 3291.43 2052.54 3291.93C2053.69 3292.43 2054.91 3292.86 2055.56 3293.08L2065.26 3296.24L2074.89 3298.75L2084.52 3300.62C2110.09 3304.86 2134.88 3304.57 2159.09 3302.49C2171.16 3301.34 2183.08 3299.62 2194.94 3297.46C2197.96 3296.81 2200.4 3296.53 2205.21 3295.3C2209.52 3294.15 2213.62 3292.64 2217.57 3290.77C2225.47 3287.03 2232.66 3281.93 2238.69 3275.83C2240.2 3274.32 2241.64 3272.74 2243 3271.09L2243.93 3269.94C2310.09 3256.36 2354.78 3241.71 2380.07 3231.94C2387.68 3247.24 2398.1 3261.03 2411.32 3272.6C2437.18 3295.23 2470.01 3306.08 2504.71 3306.08C2559.02 3306.08 2617.79 3279.43 2661.46 3229.57C2675.76 3213.12 2687.68 3195.16 2696.88 3176.12C2702.48 3166.35 2731.43 3112.33 2716.42 3067.07C2710.89 3050.48 2700.11 3037.11 2684.95 3027.7C2681.07 3013.26 2672.09 2991.64 2651.62 2978.42C2648.96 2976.7 2645.94 2974.97 2642.42 2973.46C2658.3 2928.7 2658.51 2886.1 2642.99 2846.52C2622.8 2794.87 2579.99 2760.17 2546.94 2739.84C2598.45 2708.09 2682.86 2647.67 2711.31 2578.34C2725.32 2544.29 2796.58 2514.69 2867.56 2527.55C2914.83 2536.17 2994.86 2570.87 2998.95 2706.5C2999.24 2717.42 3006.56 2726.83 3017.05 2729.92C3027.47 2732.94 3038.75 2728.91 3044.85 2719.93C3050.33 2711.81 3178.71 2520 3129.93 2312.17ZM1259.36 1958.57C1263.67 1948.01 1271.29 1934.72 1277.89 1931.06C1285.5 1926.89 1290.32 1918.92 1290.75 1910.23C1291.11 1901.54 1286.94 1893.2 1279.69 1888.25C1272.36 1883.22 1254.69 1867.42 1250.24 1848.45C1253.19 1845.72 1257.21 1842.56 1262.24 1839.61C1262.96 1839.18 1263.68 1838.75 1264.32 1838.32C1264.75 1837.96 1265.18 1837.67 1265.61 1837.31C1266.18 1836.88 1266.69 1836.45 1267.19 1836.02C1271.36 1832.36 1274.73 1826.97 1277.89 1817.41C1278.32 1816.19 1278.68 1814.97 1279.04 1813.67C1281.41 1805.7 1283.64 1795.28 1286.15 1781.27C1286.44 1779.55 1286.72 1777.82 1287.01 1776.03C1287.44 1773.08 1287.94 1769.92 1288.52 1766.69C1288.66 1765.61 1288.81 1764.53 1289.02 1763.46C1290.53 1753.55 1292.18 1742.2 1293.91 1729.26C1294.27 1726.75 1294.63 1724.23 1294.99 1721.57C1295.21 1719.85 1295.42 1718.12 1295.71 1716.33C1296.36 1711.52 1297 1706.56 1297.65 1701.32C1298.22 1697.01 1298.8 1692.56 1299.45 1687.89C1299.95 1683.8 1300.46 1679.63 1301.03 1675.32C1301.32 1673.16 1301.6 1671.01 1301.89 1668.78C1310.73 1599.6 1320.71 1521.15 1331.27 1487.02C1331.92 1484.79 1332.35 1482.42 1332.35 1480.12C1332.35 1479.83 1332.42 1477.89 1332.49 1474.44C1332.56 1473.15 1332.56 1471.64 1332.63 1469.91C1332.7 1467.68 1332.77 1465.02 1332.92 1462.01C1332.99 1459.93 1333.06 1457.7 1333.21 1455.26C1333.14 1455.12 1333.21 1454.9 1333.21 1454.76C1333.21 1453.61 1333.28 1452.46 1333.35 1451.31C1333.49 1447.86 1333.64 1444.13 1333.78 1440.1C1333.85 1439.02 1333.85 1437.94 1333.92 1436.87C1333.99 1435.51 1334.06 1434.14 1334.14 1432.7C1334.14 1431.84 1334.21 1430.9 1334.28 1429.97C1334.35 1427.31 1334.5 1424.65 1334.64 1421.85C1334.86 1418.33 1335 1414.59 1335.21 1410.79C1335.28 1409.43 1335.35 1408.06 1335.43 1406.62C1336 1396.78 1336.58 1386 1337.3 1374.58C1337.52 1371.85 1337.66 1369.05 1337.87 1366.25C1338.44 1357.49 1339.09 1348.36 1339.74 1338.81C1339.88 1336.15 1340.1 1333.42 1340.31 1330.69C1340.6 1327.82 1340.81 1325.01 1340.96 1322.07C1341.32 1318.33 1341.61 1314.53 1341.89 1310.72C1343.97 1285.58 1346.42 1258.49 1349.29 1230.12C1350.08 1222.22 1350.94 1214.24 1351.88 1206.2C1351.95 1205.34 1352.02 1204.48 1352.17 1203.54C1352.67 1198.8 1353.25 1193.99 1353.82 1189.17C1354.61 1182.13 1355.47 1175.09 1356.33 1167.98C1356.9 1163.53 1357.48 1159 1358.05 1154.47C1358.77 1148.65 1359.56 1142.76 1360.35 1136.87C1361.07 1131.41 1361.79 1125.95 1362.58 1120.49C1363.23 1115.82 1363.87 1111.08 1364.59 1106.34C1365.24 1101.6 1365.95 1096.86 1366.67 1092.12C1368.03 1083.14 1369.4 1074.23 1370.84 1065.25C1370.91 1064.6 1371.06 1064.03 1371.13 1063.45C1372.06 1057.99 1372.93 1052.6 1373.86 1047.21C1374.51 1043.04 1375.22 1038.88 1376.02 1034.71C1376.67 1030.76 1377.38 1026.81 1378.1 1022.93C1380.97 1006.91 1383.99 990.89 1387.3 975.08C1388.45 969.33 1389.67 963.73 1390.82 958.05C1392.76 948.93 1394.77 939.95 1396.93 930.97C1398.8 922.92 1400.67 914.95 1402.68 907.12C1403.04 905.47 1403.4 903.89 1403.9 902.31C1405.12 897.21 1406.41 892.25 1407.78 887.22C1409.29 881.47 1410.8 875.8 1412.38 870.19L1413.46 866.31C1416.26 856.4 1419.14 846.63 1422.15 837.07C1423.95 831.25 1425.74 825.58 1427.68 819.9C1429.26 814.94 1430.98 809.99 1432.71 805.1C1434.51 799.86 1436.37 794.76 1438.24 789.65C1441.33 781.24 1444.56 772.98 1447.87 764.94C1451.53 755.96 1455.41 747.2 1459.36 738.72C1462.59 731.9 1467.69 726.08 1474.09 722.34C1476.32 721.12 1478.62 720.04 1481.13 719.32C1482.71 718.82 1484.36 718.46 1485.94 718.24C1492.12 717.31 1498.3 718.02 1503.97 720.4C1505.33 720.97 1506.7 721.69 1507.99 722.41C1532.42 736.49 1565.32 758.98 1603.03 794.11C1613.02 803.31 1623.36 813.51 1634.06 824.71C1661.86 853.88 1691.46 889.65 1721.7 933.33C1726.01 939.58 1730.39 946.05 1734.77 952.73C1738.79 958.84 1742.89 965.16 1746.91 971.55C1750.21 976.72 1753.45 981.97 1756.68 987.35C1756.82 987.57 1756.97 987.71 1757.04 987.92C1760.42 993.52 1763.86 999.13 1767.24 1004.95C1777.8 1023.05 1788.43 1042.23 1798.99 1062.49C1792.17 1063.35 1786.2 1067.88 1783.83 1074.77L1782.03 1079.94C1780.02 1086.12 1779.16 1092.37 1779.16 1098.55C1779.16 1113.28 1783.9 1128 1788.79 1142.23C1796.12 1162.49 1807.25 1182.32 1823.56 1197.83C1839.87 1213.2 1861.06 1222.83 1881.89 1225.2C1892.23 1226.64 1902.65 1226.13 1912.64 1224.77C1922.63 1223.41 1932.4 1220.96 1941.45 1217.08C1921.91 1218.37 1902.58 1216 1885.7 1209.25C1868.82 1202.78 1854.95 1191.94 1845.47 1178.22C1835.84 1164.64 1830.6 1148.33 1827.29 1131.45C1826.57 1127.14 1826 1122.76 1825.42 1118.52C1825.06 1114.21 1824.7 1109.97 1824.27 1105.66C1827.79 1106.45 1831.31 1107.24 1834.83 1107.89C1848.69 1110.33 1862.49 1112.13 1876.21 1113.06C1890 1113.99 1903.72 1114.5 1917.37 1114.42L1937.84 1113.99C1950.12 1113.27 1960.68 1105.01 1964.35 1093.23C1964.57 1092.58 1964.42 1088.78 1963.99 1087.63L1962.55 1083.89C1961.54 1081.3 1960.68 1078.86 1959.82 1076.28C1958.24 1071.32 1956.8 1066.29 1956.08 1061.05C1955.79 1059.18 1955.65 1057.24 1955.51 1055.37C1960.61 1057.31 1965.78 1059.32 1971.1 1061.19C1986.04 1066.36 2001.34 1071.03 2018.08 1074.19C2025.98 1075.7 2037.4 1076.49 2041.5 1077.06C2047.25 1077.92 2052.99 1079.43 2058.67 1081.51C2063.84 1083.45 2069.01 1085.89 2073.97 1088.77C2065.21 1107.3 2059.24 1127.64 2052.71 1148.47C2045.74 1170.74 2057.02 1194.66 2078.64 1203.36C2141.57 1046.89 2210.75 937.98 2274.04 862.55C2337.33 787.05 2394.73 745.09 2434.1 722.39C2442.51 717.58 2452.2 716.57 2461.33 719.44C2462.55 719.8 2463.77 720.23 2464.92 720.8C2471.82 723.82 2477.49 729.28 2481.3 735.81C2481.87 736.89 2482.52 738.04 2483.02 739.19C2484.82 743.07 2486.61 747.02 2488.34 750.97C2493.66 763.04 2498.68 775.54 2503.5 788.47C2505.08 792.78 2506.66 797.09 2508.24 801.47C2511.33 810.23 2514.35 819.21 2517.29 828.34C2520.09 837.03 2522.82 845.87 2525.48 854.85C2537.84 897.24 2548.47 942.42 2557.52 988.26C2558.31 992 2559.03 995.66 2559.75 999.4C2560.18 1001.63 2560.54 1003.85 2560.97 1006.08C2562.77 1015.49 2564.49 1024.9 2566.14 1034.31C2567.94 1044.94 2569.73 1055.57 2571.46 1066.21C2574.69 1086.25 2577.64 1106.3 2580.37 1126.12C2581.81 1136.46 2583.17 1146.81 2584.46 1157.08C2587.19 1178.56 2589.56 1199.68 2591.79 1220.16C2591.86 1221.31 2592.01 1222.46 2592.15 1223.61C2592.58 1227.56 2593.01 1231.58 2593.37 1235.54C2593.87 1240.43 2594.38 1245.31 2594.81 1250.12C2595.24 1254.43 2595.67 1258.74 2596.03 1262.98C2597.39 1277.28 2598.62 1291.07 2599.69 1304.43C2600.05 1309.17 2600.48 1313.77 2600.84 1318.37C2601.2 1323.26 2601.56 1328.07 2601.92 1332.81C2602.06 1334.75 2602.21 1336.69 2602.35 1338.63C2602.57 1341.43 2602.78 1344.23 2602.92 1347.04C2603.14 1349.34 2603.28 1351.57 2603.42 1353.79C2603.92 1360.61 2604.35 1367.15 2604.71 1373.47C2604.93 1376.06 2605.07 1378.57 2605.21 1381.01C2605.78 1390.21 2606.29 1398.9 2606.72 1407.02C2606.86 1409.53 2606.94 1411.91 2607.08 1414.28C2607.15 1416.08 2607.3 1417.87 2607.37 1419.6C2607.51 1422.11 2607.59 1424.56 2607.73 1426.93C2609.31 1459.62 2609.74 1479.16 2609.74 1480.09C2609.81 1482.39 2610.17 1484.76 2610.89 1486.99C2621.38 1521.19 2631.44 1599.56 2640.27 1668.82C2658.3 1810.34 2662.76 1829.53 2679.93 1839.58C2684.96 1842.53 2688.98 1845.76 2691.86 1848.42C2687.48 1867.39 2669.81 1883.19 2662.55 1888.15C2655.22 1893.04 2650.98 1901.37 2651.34 1910.13C2651.7 1918.89 2656.58 1926.8 2664.27 1931.04C2670.81 1934.7 2678.35 1947.78 2682.73 1958.41C2671.45 1988.22 2577.41 2078.38 2485.82 2153.96C2326.26 1997.21 2041.92 2193.4 1971.02 2246.7C1900.19 2193.4 1615.84 1997.2 1456.29 2153.96C1364.54 2078.18 1270.14 1987.81 1259.36 1958.57ZM1478.33 2204.41C1598.3 2057.93 1852.18 2222.8 1931.28 2280.06C1928.19 2282.86 1925.17 2285.66 1922.08 2288.54C1911.45 2298.6 1900.96 2308.87 1890.9 2319.72C1880.77 2330.64 1870.86 2341.7 1861.66 2353.84C1852.39 2365.98 1843.48 2378.77 1835.87 2393.5C1833.57 2396.95 1832.42 2401.04 1832.42 2405.14C1832.42 2409.74 1833.86 2414.26 1836.87 2418.14L1839.17 2421.09C1843.05 2426.05 1845.85 2428.99 1849.44 2432.51C1852.82 2435.81 1856.48 2438.9 1860.22 2441.78C1867.62 2447.67 1875.88 2452.63 1884.5 2456.87C1901.74 2465.35 1921.86 2470.09 1941.68 2469.01C1961.44 2467.86 1980.83 2461.75 1995.49 2450.48L2001.02 2446.46C2002.74 2444.95 2004.32 2443.37 2005.98 2441.79C2009.21 2438.77 2012.23 2435.4 2015.18 2432.24C2020.71 2425.34 2025.24 2417.8 2029.19 2410.19C2020.64 2412.78 2013.24 2416.15 2005.7 2418.74C2001.89 2419.89 1998.01 2420.82 1994.42 2422.04C1992.62 2422.54 1990.9 2423.19 1989.1 2423.69L1983.57 2424.55C1979.98 2425.12 1976.53 2425.91 1973.08 2426.42C1969.56 2426.49 1966.18 2426.78 1962.88 2426.99C1959.58 2427.56 1956.27 2426.63 1953.04 2426.63L1948.3 2426.41L1943.63 2425.33C1931.2 2423.03 1919.64 2418.22 1908.43 2411.54C1902.9 2408.09 1897.37 2404.57 1892.12 2400.4C1891.69 2400.11 1891.26 2399.68 1890.83 2399.39C1894.13 2394.43 1897.73 2389.48 1901.46 2384.59C1909.36 2374.1 1918.41 2364.04 1927.61 2354.13C1936.81 2344.14 1946.58 2334.59 1956.56 2325.18C1966.47 2315.84 1976.96 2306.43 1987.02 2298.02C1992.26 2293.78 2321.87 2031.06 2463.89 2204.41C2517.27 2270.79 2500.67 2341.12 2484.58 2379.2C2481.99 2374.24 2480.84 2370.22 2480.34 2368.35C2480.2 2367.63 2480.12 2366.84 2479.98 2366.12H2479.91C2477.9 2353.69 2466.98 2344.57 2454.34 2344.93C2441.27 2345.36 2430.7 2355.71 2430.06 2368.71C2423.67 2489.11 2359.23 2596.94 2327.98 2642.56C2320.01 2631.14 2318.07 2622.16 2317.99 2621.8C2316.05 2610.59 2306.85 2602.12 2295.5 2601.04C2284.15 2600.03 2273.52 2606.72 2269.64 2617.42C2207.5 2786.46 2018.49 2895.58 1971.07 2920.73C1923.73 2895.59 1734.72 2786.46 1672.58 2617.42C1668.63 2606.72 1658 2600.03 1646.72 2601.04C1635.37 2602.12 1626.17 2610.59 1624.16 2621.8C1624.16 2621.94 1622.22 2631.07 1614.17 2642.56C1582.92 2596.94 1518.55 2489.11 1512.16 2368.71C1511.44 2355.71 1500.88 2345.36 1487.81 2344.93C1475.45 2344.5 1464.32 2353.69 1462.31 2366.12H1462.24C1462.1 2366.84 1461.95 2367.63 1461.81 2368.35C1461.38 2370.22 1460.23 2374.17 1457.72 2378.98C1441.84 2340.76 1425.39 2270.21 1478.33 2204.41ZM1497.8 3234.73C1476.61 3253.19 1446.94 3260.02 1414.11 3253.77C1379.05 3247.16 1345.14 3226.76 1318.63 3196.44C1307.06 3183.22 1297.51 3168.78 1290.25 3153.55C1289.96 3152.9 1289.6 3152.26 1289.24 3151.68C1282.85 3140.69 1266.25 3104.55 1273.51 3082.93C1275.09 3078.19 1278.32 3072.15 1289.24 3067.63C1297.72 3064.04 1303.61 3056.14 1304.54 3046.94C1304.9 3043.2 1308.49 3026.68 1317.83 3020.65C1320.63 3018.85 1324.08 3017.92 1328.32 3017.92C1332.7 3017.92 1337.95 3018.93 1343.91 3020.94C1356.19 3025.11 1369.34 3019.65 1374.59 3007.79C1374.81 3007.43 1379.4 2998.45 1389.6 2996.08C1402.46 2993.06 1421.64 3000.53 1443.7 3017.2C1457.64 3027.69 1472.08 3038.61 1483.86 3052.04C1510.37 3082.36 1526.03 3118.71 1527.9 3154.34C1529.7 3187.68 1518.99 3216.2 1497.8 3234.73ZM2624.25 3020.58C2633.37 3026.33 2637.11 3042.06 2637.68 3046.95C2638.61 3056.15 2644.43 3064.05 2652.98 3067.64C2663.9 3072.17 2667.06 3078.2 2668.64 3082.94C2675.9 3104.56 2659.3 3140.7 2652.98 3151.62C2652.62 3152.27 2652.26 3152.91 2651.97 3153.56C2644.64 3168.79 2635.09 3183.23 2623.59 3196.45C2570.28 3257.37 2489.97 3274.54 2444.42 3234.74C2398.87 3194.94 2405.12 3112.97 2458.36 3052.05C2470.14 3038.62 2484.58 3027.7 2498.52 3017.21C2520.57 3000.54 2539.76 2993.07 2552.62 2996.09C2562.75 2998.46 2567.35 3007.37 2567.35 3007.37C2571.52 3016.64 2580.64 3022.24 2590.34 3022.24C2593 3022.24 2595.66 3021.81 2598.31 3020.95C2609.88 3017.06 2618.57 3016.99 2624.25 3020.58ZM2596.16 2864.83C2607.65 2894 2606.58 2926.47 2593.21 2961.45C2586.17 2955.7 2577.12 2950.46 2565.7 2947.44C2536.89 2940.04 2504.06 2949.95 2468.21 2977.04C2452.98 2988.53 2435.67 3001.54 2420.51 3018.92C2377.12 3068.56 2358.58 3129.98 2365.55 3183.65C2349.96 3189.83 2323.09 3199.24 2283.87 3209.22C2288.68 3201.03 2293.57 3192.84 2297.95 3184.36L2313.47 3152.89L2317.35 3144.99L2320.73 3136.94L2327.55 3120.85C2332.08 3110.07 2336.53 3099.3 2340.12 3088.31C2343.93 3077.32 2347.95 3066.47 2351.54 3055.41L2361.6 3022.22C2373.96 2977.68 2384.73 2932.85 2391.05 2887.3C2392.27 2875.88 2393.92 2864.53 2394.86 2853.1C2395.51 2841.53 2396.66 2830.18 2396.8 2818.62C2397.45 2795.7 2396.94 2772.57 2393.93 2749.58C2381.5 2794.05 2370.65 2837.73 2359.59 2881.26C2348.6 2924.72 2337.39 2967.97 2322.95 3010.07C2308.87 3052.31 2290.91 3092.9 2271.44 3132.27L2255.85 3161.29C2250.46 3170.77 2244.36 3179.82 2238.68 3189.09C2235.73 3193.69 2232.93 3198.36 2229.92 3202.88L2220.22 3215.88L2210.52 3228.88L2205.78 3235.42L2204.56 3237.07C2204.2 3237.57 2204.06 3237.64 2203.84 3238C2203.34 3238.5 2202.91 3239.01 2202.4 3239.51C2200.39 3241.45 2198.16 3242.96 2195.79 3244.04C2193.06 3245.19 2192.27 3245.33 2185.8 3246.41C2175.38 3248.21 2164.82 3249.57 2154.33 3250.5C2133.35 3252.44 2112.38 3252.51 2093.19 3249.35L2086.15 3247.99L2079.25 3246.34L2072.71 3244.33C2072.06 3244.19 2071.92 3244.11 2071.85 3244.04C2071.71 3243.97 2071.56 3243.97 2071.42 3243.9C2071.13 3243.76 2070.85 3243.68 2070.63 3243.47C2068.55 3242.39 2066.61 3239.3 2066.54 3236C2066.47 3235.57 2066.54 3235.28 2066.54 3234.71L2067.83 3222.43L2069.84 3205.98C2071.2 3195.06 2072.79 3184.14 2074.58 3173.22C2081.55 3129.47 2092.11 3086.44 2102.45 3043.26C2112.87 2999.94 2124.86 2957.12 2136.21 2911.79C2105.25 2946.85 2082.19 2987.94 2064.51 3030.83C2046.77 3073.86 2035.34 3119.05 2026.36 3164.6C2024.06 3175.95 2022.05 3187.44 2020.25 3198.94C2019.24 3204.69 2018.53 3210.43 2017.74 3216.25L2017.52 3217.9C2004.59 3219.91 1986.92 3222.14 1971.04 3222.14C1955.16 3222.14 1937.56 3219.91 1924.63 3217.9L1924.41 3216.25C1923.55 3210.43 1922.83 3204.68 1921.9 3198.94C1920.03 3187.45 1918.02 3175.95 1915.79 3164.6C1906.81 3119.05 1895.39 3073.87 1877.57 3030.83C1859.9 2987.94 1836.84 2946.85 1805.95 2911.79C1817.23 2957.12 1829.3 2999.94 1839.71 3043.26C1850.05 3086.44 1860.62 3129.47 1867.58 3173.22C1869.38 3184.14 1870.88 3195.06 1872.25 3205.98L1874.33 3222.43L1875.62 3234.71C1875.55 3235.28 1875.69 3235.57 1875.62 3236C1875.55 3239.3 1873.54 3242.39 1871.53 3243.47C1871.24 3243.69 1870.96 3243.76 1870.74 3243.9C1870.6 3243.97 1870.45 3243.97 1870.31 3244.04C1870.17 3244.11 1870.09 3244.18 1869.38 3244.33L1862.84 3246.34L1856.02 3247.99L1848.98 3249.35C1829.73 3252.51 1808.82 3252.44 1787.84 3250.5C1777.35 3249.57 1766.79 3248.2 1756.3 3246.41C1749.91 3245.33 1749.12 3245.19 1746.39 3244.04C1744.02 3242.96 1741.72 3241.45 1739.78 3239.51C1739.28 3239.01 1738.85 3238.5 1738.34 3238C1738.12 3237.64 1737.98 3237.57 1737.62 3237.07L1736.4 3235.42L1731.66 3228.88L1712.26 3202.87C1709.24 3198.34 1706.44 3193.67 1703.5 3189.08C1697.82 3179.81 1691.72 3170.76 1686.26 3161.28L1670.74 3132.26C1651.27 3092.89 1633.31 3052.3 1619.23 3010.06C1604.72 2967.96 1593.51 2924.71 1582.52 2881.25C1571.53 2837.72 1560.68 2794.04 1548.25 2749.57C1545.16 2772.56 1544.66 2795.69 1545.38 2818.61C1545.52 2830.18 1546.6 2841.53 1547.32 2853.09C1548.18 2864.51 1549.83 2875.86 1551.13 2887.29C1557.38 2932.84 1568.23 2977.66 1580.58 3022.21L1590.57 3055.4C1594.23 3066.46 1598.18 3077.31 1601.99 3088.3C1605.65 3099.29 1610.11 3110.07 1614.63 3120.84L1621.38 3136.93L1624.83 3144.98L1628.64 3152.88L1644.16 3184.35C1648.54 3192.76 1653.5 3200.94 1658.24 3209.21C1619.45 3199.3 1592.65 3189.89 1576.92 3183.64C1578.21 3173.37 1578.64 3162.66 1578.07 3151.67C1575.56 3104.83 1555.51 3057.7 1521.68 3018.91C1506.45 3001.52 1489.21 2988.52 1473.98 2977.03C1438.06 2949.95 1405.3 2940.03 1376.49 2947.43C1365 2950.45 1355.94 2955.69 1348.98 2961.44C1335.62 2926.53 1334.54 2894.2 1345.89 2865.03C1362.7 2821.71 1403.22 2792.83 1430.37 2777.6C1430.51 2779.68 1430.59 2781.77 1430.73 2783.85L1431.59 2801.38C1432.02 2807.27 1432.74 2813.09 1433.24 2818.98C1434.46 2830.62 1435.32 2842.26 1437.26 2853.89C1439.06 2865.53 1441 2877.09 1443.22 2888.66C1445.88 2900.15 1448.75 2911.58 1451.91 2922.78C1453.99 2875.94 1458.3 2830.32 1462.76 2784.56C1467.36 2738.87 1471.88 2693.18 1477.42 2647.56C1482.52 2604.67 1487.91 2561.85 1493.58 2519.11C1531.08 2621.48 1588.48 2693.11 1591.86 2697.34C1600.55 2707.97 1616.14 2709.7 1626.92 2701.22C1634.61 2695.19 1641.07 2688.94 1646.46 2682.76C1740.43 2865.02 1950.63 2967.03 1960.26 2971.63C1963.64 2973.28 1967.37 2974.07 1971.04 2974.07C1974.78 2974.07 1978.44 2973.28 1981.89 2971.63C1991.52 2967.03 2201.72 2865.02 2295.61 2682.76C2301.07 2688.94 2307.46 2695.19 2315.15 2701.22C2326 2709.7 2341.59 2707.97 2350.21 2697.34C2353.66 2693.1 2410.99 2621.48 2448.56 2519.11C2454.24 2561.85 2459.62 2604.67 2464.65 2647.56C2467.88 2673.93 2470.76 2700.36 2473.49 2726.8C2473.49 2726.8 2476.51 2753.6 2476.79 2759.34L2479.38 2784.56C2483.83 2830.32 2488.14 2875.94 2490.23 2922.78C2493.39 2911.57 2496.26 2900.15 2498.92 2888.66C2501.15 2877.09 2503.09 2865.53 2504.81 2853.89C2506.82 2842.25 2507.61 2830.61 2508.83 2818.98C2509.4 2813.09 2510.05 2807.27 2510.48 2801.38L2511.41 2783.85C2511.55 2781.77 2511.63 2779.61 2511.7 2777.46C2538.83 2792.63 2579.2 2821.37 2596.16 2864.83ZM3038.12 2627.4C3006.73 2514.97 2918.36 2485.66 2876.55 2478.12C2786.53 2461.74 2689.62 2498.88 2664.84 2559.23C2640.34 2618.79 2557.94 2674.6 2512.83 2701.69C2512.4 2682.37 2511.9 2663.04 2510.96 2643.79C2508.88 2597.17 2505.14 2550.76 2500.11 2504.49C2497.95 2485.17 2495.51 2465.91 2492.93 2446.66C2500.19 2446.01 2507.08 2442.35 2511.46 2435.88C2541.56 2391.7 2578.06 2287.75 2517.49 2192.99C2538.75 2175.32 2575.54 2144.21 2612.25 2110.52C2717.85 2013.46 2733.08 1978.77 2734.02 1957.57C2734.09 1954.98 2733.73 1952.47 2733.09 1950.03C2818.65 1950.68 2879.43 1977.54 2909.74 1994.93C2896.74 2002.4 2878.49 2007.36 2865.56 2008.8C2854.64 2009.95 2845.8 2018.07 2843.58 2028.77C2841.36 2039.47 2846.38 2050.39 2855.86 2055.71C2979.78 2125.39 3055.43 2215.41 3080.86 2323.31C3108.81 2441.84 3070.16 2558.15 3038.12 2627.4Z" fill="#66142E"/>
<path d="M2511.46 900.009C2505.43 889.089 2499.61 878.309 2493.93 867.679C2491.13 862.439 2488.25 857.189 2485.38 852.089C2483.94 849.499 2482.51 846.919 2481 844.479C2480.35 843.399 2479.42 841.749 2478.92 841.099C2478.35 840.449 2477.91 839.879 2477.27 839.379C2473.03 835.639 2466.93 834.139 2462.11 836.219C2461.03 836.789 2459.88 837.299 2458.95 838.299C2458.66 838.439 2457.3 839.879 2456.36 840.739L2453.34 843.829C2449.25 847.849 2445.44 852.309 2441.49 856.469C2410.6 891.239 2384.45 930.819 2361.1 971.769C2337.75 1012.79 2317.35 1055.68 2299.03 1099.43C2299.03 1099.43 2299.03 1099.43 2299.03 1099.5C2302.77 1097.27 2306.5 1095.12 2310.38 1093.25C2318.5 1088.58 2327.19 1085.35 2335.67 1081.76C2344.29 1078.31 2353.2 1076.01 2361.89 1073.14H2362.11C2372.02 1070.05 2382.37 1073.86 2388.19 1081.76L2388.55 1082.33C2391.42 1086.28 2392.79 1088.72 2394.51 1091.88C2396.09 1094.9 2397.6 1097.99 2398.75 1101.15C2401.34 1107.4 2402.99 1114.15 2404.21 1121.05C2404.86 1124.43 2404.86 1128.09 2405.14 1131.61C2405.28 1135.13 2404.92 1138.87 2404.78 1142.39C2403.77 1149.72 2402.05 1156.83 2399.03 1163.51C2398.17 1166.1 2396.73 1168.4 2395.22 1170.69C2396.3 1171.84 2397.45 1173.06 2398.45 1174.28C2400.46 1176.72 2402.33 1179.31 2404.05 1181.97C2405.92 1184.56 2407.57 1187.29 2409.08 1190.16C2415.26 1201.37 2419.71 1214.23 2420.72 1227.88C2422.3 1241.39 2418.64 1255.75 2412.1 1266.75C2405.56 1278.1 2395.36 1285.57 2384.8 1290.24C2387.31 1278.53 2389.97 1268.76 2389.04 1259.56C2388.68 1250.58 2386.6 1243.18 2383.01 1236.21C2379.42 1229.24 2374.75 1222.85 2369.29 1216.53C2366.63 1213.44 2363.76 1210.35 2360.74 1207.33L2354.06 1200.65C2348.46 1201.58 2342.78 1202.16 2337.11 1201.94C2340.41 1196.48 2343.79 1192.03 2346.95 1187.79L2351.19 1181.18C2352.55 1179.17 2354.14 1177.3 2355 1175.07C2359.89 1167.02 2362.4 1159.41 2362.76 1152.37C2363.26 1145.33 2361.68 1138.65 2358.88 1131.75C2358.31 1130.39 2357.66 1128.95 2357.01 1127.58C2355.93 1127.94 2354.78 1128.23 2353.71 1128.66C2346.96 1131.61 2339.99 1134.05 2333.74 1137.78C2320.59 1144.25 2308.81 1152.87 2297.82 1162.35C2286.83 1171.9 2277.2 1182.97 2268.94 1194.97C2264.77 1200.93 2261.04 1207.25 2257.66 1213.58C2256.08 1216.81 2254.36 1220.05 2253.06 1223.28C2252.27 1224.86 2251.7 1226.44 2251.05 1228.02C2250.76 1228.81 2250.48 1229.53 2250.26 1230.18C2249.9 1231.11 2249.61 1232.05 2249.33 1232.98L2249.26 1233.12L2248.97 1233.91C2244.44 1247.06 2230.08 1253.95 2217 1249.43C2203.93 1244.9 2197.03 1230.75 2201.41 1217.68L2201.77 1216.53L2201.84 1216.46C2201.84 1216.32 2201.84 1216.24 2201.91 1216.17L2202.84 1213.44C2203.27 1212.15 2203.7 1211 2204.13 1209.92C2204.7 1208.41 2205.35 1206.97 2206 1205.47C2239.12 1117.9 2277.77 1031.91 2327.98 951.949C2354.13 910.349 2383.08 870.199 2417.85 834.349C2422.3 829.969 2426.61 825.439 2431.28 821.199L2434.73 817.969C2436.02 816.819 2436.67 816.029 2438.82 814.379C2442.41 811.289 2446.65 808.989 2451.1 807.269C2460.01 803.969 2469.92 803.749 2478.76 806.769C2487.6 809.639 2495.43 815.889 2499.95 823.939C2501.1 825.879 2501.96 827.959 2502.82 830.049C2503.61 832.129 2503.75 833.279 2504.26 834.939C2505.05 838.029 2505.77 841.119 2506.49 844.209C2507.78 850.389 2508.79 856.569 2509.65 862.739C2511.32 875.009 2511.96 887.509 2511.46 900.009Z" fill="#66142E"/>
<path d="M1814.11 1945.78C1791.7 1928.04 1768.71 1912.52 1745.22 1898.37C1721.8 1884.29 1697.95 1871.57 1673.52 1861.01C1649.31 1850.16 1624.74 1841.04 1599.96 1833.85C1575.39 1826.02 1550.25 1821.35 1525.53 1815.89L1523.52 1815.46C1500.24 1810.29 1485.59 1787.3 1490.69 1764.02C1495.86 1740.74 1518.85 1726.09 1542.13 1731.19C1542.63 1731.33 1543.28 1731.48 1543.78 1731.62C1573.16 1739.38 1601.97 1749.51 1628.62 1763.66C1642.27 1769.98 1654.91 1778.32 1667.7 1786C1674.02 1789.88 1679.91 1794.55 1686.02 1798.72L1695.07 1805.26L1703.76 1812.16C1715.4 1821.36 1726.25 1831.34 1736.95 1841.33C1747.22 1851.89 1757.42 1862.24 1766.69 1873.51C1785.3 1895.78 1801.97 1919.78 1814.11 1945.78Z" fill="#66142E"/>
<path d="M2420.37 1815.03C2419.87 1815.17 2419.36 1815.32 2418.86 1815.39L2416.63 1815.89C2391.99 1821.35 2366.85 1826.02 2342.28 1833.85C2317.42 1841.03 2292.85 1850.16 2268.72 1861.01C2244.29 1871.57 2220.44 1884.29 2196.95 1898.37C2173.53 1912.52 2150.47 1928.04 2128.13 1945.78C2140.2 1919.77 2156.87 1895.78 2175.54 1873.51C2184.74 1862.23 2195.01 1851.89 2205.28 1841.33C2215.98 1831.34 2226.83 1821.36 2238.47 1812.16L2247.16 1805.26L2256.21 1798.72C2262.32 1794.55 2268.21 1789.88 2274.53 1786C2287.32 1778.31 2299.96 1769.98 2313.61 1763.66C2340.26 1749.51 2369 1739.38 2398.38 1731.62C2421.44 1725.59 2445 1739.31 2451.11 1762.37C2457.15 1785.36 2443.43 1809 2420.37 1815.03Z" fill="#66142E"/>
<path d="M2032.29 1952.97C2026.4 1977.11 2007.36 1990.83 1992.06 1998.23C1978.84 2004.62 1963.4 2004.62 1950.18 1998.23C1934.88 1990.83 1915.84 1977.11 1909.95 1952.97H2032.29Z" fill="#66142E"/>
<path d="M2092.71 2086.88C2081.86 2092.91 2070.08 2097.37 2057.72 2100.39C2045.36 2103.41 2032.22 2104.7 2018.64 2103.05C2005.13 2101.47 1990.98 2095.87 1979.77 2085.95C1976.68 2083.22 1974.02 2080.2 1971.51 2077.04C1969 2080.42 1966.12 2083.58 1962.89 2086.45C1951.83 2096.72 1937.39 2102.33 1923.81 2103.91C1910.09 2105.71 1896.8 2104.13 1884.44 2100.96C1872.01 2097.87 1860.23 2093.2 1849.45 2086.88C1861.73 2088.89 1873.88 2089.83 1885.73 2089.61C1897.58 2089.18 1909.15 2087.67 1919.35 2084.08C1929.48 2080.42 1938.03 2074.96 1943.99 2067.63C1950.24 2060.52 1954.12 2051.39 1957.28 2041.48L1957.42 2041.05C1959.79 2033.51 1967.84 2029.27 1975.45 2031.71C1980.19 2033.15 1983.64 2037.03 1984.93 2041.48C1987.73 2051.39 1991.32 2060.8 1997.65 2068.13C2003.61 2075.82 2012.45 2081.2 2022.65 2084.94C2032.99 2088.68 2044.63 2089.9 2056.49 2090.26C2068.42 2090.32 2080.56 2089.25 2092.71 2086.88Z" fill="#66142E"/>
<path d="M1736.52 1241.39C1733.65 1245.05 1729.77 1247.93 1725.03 1249.51C1711.96 1253.89 1697.8 1246.92 1693.28 1233.92L1692.99 1233.13L1692.92 1232.99C1692.63 1232.06 1692.27 1231.12 1691.99 1230.19C1691.77 1229.54 1691.49 1228.83 1691.2 1228.03C1690.55 1226.45 1689.91 1224.87 1689.19 1223.29C1687.83 1220.06 1686.17 1216.82 1684.59 1213.59C1681.21 1207.27 1677.48 1200.95 1673.31 1194.98C1664.98 1182.98 1655.42 1171.92 1644.43 1162.36C1633.44 1152.88 1621.59 1144.26 1608.51 1137.79C1602.19 1134.05 1595.22 1131.61 1588.54 1128.67C1587.46 1128.24 1586.31 1127.95 1585.24 1127.59C1584.59 1128.95 1583.95 1130.39 1583.37 1131.76C1580.57 1138.66 1578.99 1145.34 1579.42 1152.38C1579.85 1159.42 1582.29 1167.04 1587.25 1175.08C1588.11 1177.31 1589.69 1179.17 1591.06 1181.19L1595.23 1187.8C1598.46 1192.04 1601.84 1196.49 1605.14 1201.95C1599.46 1202.17 1593.79 1201.59 1588.11 1200.66L1581.43 1207.34C1578.48 1210.36 1575.61 1213.45 1572.88 1216.54C1567.49 1222.86 1562.82 1229.26 1559.16 1236.22C1555.64 1243.19 1553.56 1250.59 1553.2 1259.57C1552.27 1268.77 1554.92 1278.54 1557.37 1290.25C1546.88 1285.58 1536.61 1278.11 1530.14 1266.76C1523.6 1255.77 1519.87 1241.4 1521.45 1227.89C1522.53 1214.24 1526.98 1201.38 1533.16 1190.17C1534.67 1187.3 1536.32 1184.57 1538.12 1181.98C1539.92 1179.32 1541.71 1176.74 1543.8 1174.29C1544.81 1173.07 1545.96 1171.85 1547.03 1170.7C1545.52 1168.4 1544.08 1166.1 1543.22 1163.52C1540.2 1156.84 1538.48 1149.73 1537.47 1142.4C1537.33 1138.88 1536.97 1135.14 1537.11 1131.62C1537.4 1128.1 1537.4 1124.44 1538.04 1121.06C1539.26 1114.16 1540.91 1107.41 1543.5 1101.16C1544.65 1098 1546.16 1094.91 1547.67 1091.89C1549.39 1088.73 1550.76 1086.29 1553.63 1082.34L1554.06 1081.84C1560.17 1073.43 1570.73 1070.27 1580.14 1073.15H1580.28C1589.04 1076.02 1597.95 1078.32 1606.5 1081.77C1615.05 1085.36 1623.74 1088.59 1631.79 1093.26C1635.67 1095.13 1639.48 1097.28 1643.21 1099.51C1643.21 1099.44 1643.21 1099.44 1643.21 1099.44C1624.89 1055.69 1604.42 1012.8 1581.07 971.78C1557.79 930.83 1531.64 891.249 1500.75 856.479C1496.8 852.309 1492.99 847.86 1488.9 843.84L1485.81 840.75C1484.88 839.89 1483.51 838.45 1483.3 838.31C1482.37 837.3 1481.22 836.799 1480.07 836.229C1475.33 834.149 1469.22 835.66 1464.91 839.39C1464.34 839.89 1463.9 840.469 1463.33 841.109C1462.76 841.759 1461.89 843.41 1461.17 844.49C1459.66 846.93 1458.3 849.519 1456.86 852.099C1453.91 857.199 1451.11 862.44 1448.24 867.69C1442.64 878.32 1436.82 889.1 1430.78 900.02C1430.28 887.52 1430.85 875.02 1432.58 862.74C1432.94 859.72 1433.37 856.71 1433.94 853.69V853.469C1434.44 850.379 1435.09 847.29 1435.74 844.2C1436.46 841.11 1437.18 838.02 1437.97 834.93C1438.47 833.28 1438.62 832.129 1439.41 830.039C1440.2 827.959 1441.06 825.87 1442.28 823.93C1446.81 815.88 1454.64 809.63 1463.47 806.76C1472.31 803.74 1482.15 803.96 1491.13 807.26C1495.51 808.98 1499.82 811.28 1503.41 814.37C1505.49 816.02 1506.21 816.81 1507.5 817.96L1510.95 821.19C1515.62 825.43 1519.86 829.95 1524.38 834.34C1559.15 870.19 1588.1 910.35 1614.25 951.94C1653.91 1015.16 1686.38 1082.11 1714.61 1150.65V1150.72C1722.15 1168.9 1729.34 1187.14 1736.23 1205.53C1736.88 1206.97 1737.45 1208.4 1738.1 1209.91C1738.53 1210.99 1738.96 1212.14 1739.39 1213.43L1740.32 1216.16C1740.32 1216.23 1740.39 1216.3 1740.39 1216.45L1740.46 1216.52L1740.82 1217.67C1743.64 1226.09 1741.77 1235 1736.52 1241.39Z" fill="#66142E"/>
<path opacity="0.3" d="M1931.28 2280.05C1928.19 2282.85 1925.17 2285.65 1922.08 2288.53C1911.45 2298.59 1900.96 2308.86 1890.9 2319.71C1880.77 2330.63 1870.86 2341.69 1861.66 2353.83C1852.39 2365.97 1843.48 2378.76 1835.87 2393.49C1834.51 2395.5 1833.57 2397.73 1833.07 2400.03C1835.87 2382.21 1849.45 2320.93 1909.65 2264.9C1917.85 2270.43 1925.1 2275.6 1931.28 2280.05Z" fill="#66142E"/>
<path opacity="0.3" d="M1525.94 3137.75C1521.99 3158.45 1512.48 3176.16 1497.8 3189C1476.61 3207.46 1446.94 3214.29 1414.11 3208.04C1379.05 3201.43 1345.14 3181.03 1318.63 3150.71C1307.06 3137.49 1297.51 3123.05 1290.25 3107.82C1289.96 3107.17 1289.6 3106.53 1289.24 3105.95C1286.14 3100.62 1280.66 3089.38 1276.65 3076.76C1275.08 3078.91 1274.15 3081.02 1273.51 3082.93C1266.25 3104.55 1282.85 3140.69 1289.24 3151.68C1289.6 3152.25 1289.96 3152.9 1290.25 3153.55C1297.51 3168.78 1307.06 3183.22 1318.63 3196.44C1345.14 3226.76 1379.05 3247.16 1414.11 3253.77C1446.94 3260.02 1476.61 3253.2 1497.8 3234.73C1518.99 3216.2 1529.7 3187.68 1527.9 3154.34C1527.61 3148.82 1526.88 3143.28 1525.94 3137.75Z" fill="#66142E"/>
<path opacity="0.3" d="M2416.23 3137.75C2420.18 3158.45 2429.69 3176.16 2444.37 3189C2465.56 3207.46 2495.23 3214.29 2528.06 3208.04C2563.12 3201.43 2597.03 3181.03 2623.54 3150.71C2635.11 3137.49 2644.66 3123.05 2651.92 3107.82C2652.21 3107.17 2652.57 3106.53 2652.93 3105.95C2656.03 3100.62 2661.51 3089.38 2665.52 3076.76C2667.09 3078.91 2668.02 3081.02 2668.66 3082.93C2675.92 3104.55 2659.32 3140.69 2652.93 3151.68C2652.57 3152.25 2652.21 3152.9 2651.92 3153.55C2644.66 3168.78 2635.11 3183.22 2623.54 3196.44C2597.03 3226.76 2563.12 3247.16 2528.06 3253.77C2495.23 3260.02 2465.56 3253.2 2444.37 3234.73C2423.18 3216.2 2412.47 3187.68 2414.27 3154.34C2414.55 3148.82 2415.28 3143.28 2416.23 3137.75Z" fill="#66142E"/>
<path opacity="0.3" d="M2439.48 2051.82C2369.04 2026.78 2198.16 1998.3 1971.08 2179.26C1744 1998.3 1573.13 2026.78 1502.68 2051.82C1475.28 2061.56 1445.31 2060.36 1418.82 2048.36C1340.5 2012.86 1262.34 1960.6 1259.43 1958.64C1270.28 1987.95 1364.6 2078.25 1456.34 2153.97C1615.9 1997.22 1900.24 2193.41 1971.07 2246.71C2041.9 2193.41 2326.25 1997.21 2485.8 2153.97C2577.54 2078.25 2671.87 1987.95 2682.71 1958.64C2679.8 1960.6 2601.63 2012.86 2523.32 2048.36C2496.85 2060.37 2466.88 2061.56 2439.48 2051.82Z" fill="#66142E"/>
<path opacity="0.3" d="M2436.49 2284.08C2423.22 2275.83 2405.78 2283.13 2402.66 2298.44C2393.62 2342.68 2371.89 2434.06 2337.03 2490.97C2337.03 2490.97 2330.99 2469.6 2320.68 2446.01C2313.14 2428.75 2288.9 2428.01 2280.34 2444.79C2234.54 2534.53 2109.98 2755.24 1971.08 2802.75C1832.19 2755.24 1707.62 2534.53 1661.82 2444.79C1653.25 2428.01 1629.02 2428.74 1621.48 2446.01C1611.17 2469.6 1605.13 2490.97 1605.13 2490.97C1570.27 2434.06 1548.54 2342.68 1539.5 2298.44C1536.37 2283.13 1518.93 2275.83 1505.67 2284.08C1459.12 2313.04 1457.72 2378.97 1457.72 2378.97C1460.23 2374.16 1461.38 2370.21 1461.81 2368.34C1461.95 2367.62 1462.1 2366.83 1462.24 2366.11H1462.31C1464.32 2353.68 1475.46 2344.49 1487.81 2344.92C1500.88 2345.35 1511.45 2355.7 1512.16 2368.7C1518.55 2489.1 1582.92 2596.93 1614.17 2642.55C1622.22 2631.06 1624.16 2621.93 1624.16 2621.79C1626.17 2610.58 1635.37 2602.11 1646.72 2601.03C1658 2600.02 1668.63 2606.71 1672.58 2617.41C1734.72 2786.45 1923.73 2895.57 1971.07 2920.72C2018.41 2895.58 2207.42 2786.45 2269.56 2617.41C2273.51 2606.71 2284.14 2600.02 2295.42 2601.03C2306.77 2602.11 2315.97 2610.58 2317.98 2621.79C2317.98 2621.93 2319.92 2631.06 2327.97 2642.55C2359.22 2596.93 2423.59 2489.1 2429.98 2368.7C2430.7 2355.7 2441.26 2345.35 2454.33 2344.92C2466.69 2344.49 2477.82 2353.68 2479.83 2366.11H2479.9C2480.04 2366.83 2480.19 2367.62 2480.33 2368.34C2480.76 2370.21 2481.91 2374.16 2484.42 2378.97C2484.45 2378.98 2483.04 2313.04 2436.49 2284.08Z" fill="#66142E"/>
<path opacity="0.3" d="M2350.54 2697.37C2341.85 2708 2326.26 2709.73 2315.48 2701.25C2307.79 2695.22 2301.33 2688.97 2295.94 2682.79C2201.97 2865.05 1991.77 2967.06 1982.14 2971.66C1978.76 2973.31 1975.03 2974.1 1971.36 2974.1C1971.29 2974.1 1971.29 2974.1 1971.22 2974.1C1971.15 2974.1 1971.15 2974.1 1971.08 2974.1C1967.42 2974.1 1963.68 2973.31 1960.3 2971.66C1950.67 2967.06 1740.47 2865.05 1646.5 2682.79C1641.11 2688.97 1634.65 2695.22 1626.96 2701.25C1616.18 2709.73 1600.59 2708 1591.9 2697.37C1588.52 2693.13 1531.2 2621.58 1493.69 2519.35C1494.93 2525.54 1526.93 2681.63 1605.09 2773.71C1618.33 2789.3 1642.54 2789.72 1655.73 2774.09L1655.91 2773.88C1655.91 2773.88 1710.72 2858.29 1814.03 2943.42C1824.59 2952.11 1835.65 2960.81 1847.29 2969.43C1879.7 2993.59 1916.03 3017.07 1956.13 3037.94C1965.55 3042.84 1976.88 3042.84 1986.3 3037.94C2026.4 3017.07 2062.73 2993.59 2095.14 2969.43C2106.78 2960.81 2117.84 2952.12 2128.4 2943.42C2231.71 2858.29 2286.52 2773.88 2286.52 2773.88C2286.58 2773.95 2286.64 2774.02 2286.7 2774.09C2299.89 2789.72 2324.1 2789.3 2337.34 2773.71C2415.5 2681.63 2447.5 2525.54 2448.74 2519.35C2411.24 2621.58 2353.92 2693.13 2350.54 2697.37Z" fill="#66142E"/>
<path opacity="0.3" d="M1643.2 1099.44C1643.2 1099.44 1643.2 1099.44 1643.2 1099.51C1639.46 1097.28 1635.66 1095.13 1631.78 1093.26C1623.73 1088.59 1615.04 1085.36 1606.49 1081.77C1597.94 1078.32 1589.03 1076.02 1580.27 1073.15H1580.13C1570.72 1070.28 1560.16 1073.44 1554.05 1081.84L1553.62 1082.34C1550.75 1086.29 1549.38 1088.73 1547.66 1091.89C1546.15 1094.91 1544.64 1098 1543.49 1101.16C1540.9 1107.41 1539.25 1114.16 1538.03 1121.06C1537.38 1124.44 1537.38 1128.1 1537.1 1131.62C1536.96 1135.14 1537.32 1138.88 1537.46 1142.4C1538.47 1149.73 1540.19 1156.84 1543.21 1163.52C1544.07 1166.11 1545.51 1168.41 1547.02 1170.7C1545.94 1171.85 1544.79 1173.07 1543.79 1174.29C1541.71 1176.73 1539.91 1179.32 1538.11 1181.98C1536.31 1184.57 1534.66 1187.3 1533.15 1190.17C1526.97 1201.38 1522.52 1214.24 1521.44 1227.89C1519.86 1241.4 1523.6 1255.76 1530.13 1266.76C1536.6 1278.04 1546.8 1285.51 1557.21 1290.18C1553.04 1289.25 1473.52 1269.78 1505.99 1151.74C1505.99 1151.74 1486.64 1086.88 1520.24 1041.39C1528.9 1029.67 1531.47 1014.48 1527.27 1000.53C1511.47 948.049 1470.56 842.389 1420.43 945.709C1426.61 915.609 1430.77 900.019 1430.77 900.019C1436.8 889.099 1442.62 878.319 1448.23 867.689C1451.1 862.449 1453.91 857.199 1456.85 852.099C1458.29 849.509 1459.65 846.929 1461.16 844.489C1461.88 843.409 1462.74 841.759 1463.32 841.109C1463.89 840.459 1464.33 839.889 1464.9 839.389C1469.21 835.649 1475.32 834.149 1480.06 836.229C1481.21 836.799 1482.36 837.309 1483.29 838.309C1483.51 838.449 1484.87 839.889 1485.8 840.749L1488.89 843.839C1492.98 847.859 1496.79 852.319 1500.74 856.479C1531.63 891.249 1557.78 930.829 1581.06 971.779C1604.41 1012.8 1624.89 1055.69 1643.2 1099.44Z" fill="#66142E"/>
<path opacity="0.3" d="M2298.96 1099.44C2298.96 1099.44 2298.96 1099.44 2298.96 1099.51C2302.7 1097.28 2306.5 1095.13 2310.38 1093.26C2318.43 1088.59 2327.12 1085.36 2335.67 1081.77C2344.22 1078.32 2353.13 1076.02 2361.89 1073.15H2362.03C2371.44 1070.28 2382 1073.44 2388.11 1081.84L2388.54 1082.34C2391.41 1086.29 2392.78 1088.73 2394.5 1091.89C2396.01 1094.91 2397.52 1098 2398.67 1101.16C2401.26 1107.41 2402.91 1114.16 2404.13 1121.06C2404.78 1124.44 2404.78 1128.1 2405.06 1131.62C2405.2 1135.14 2404.84 1138.88 2404.7 1142.4C2403.69 1149.73 2401.97 1156.84 2398.95 1163.52C2398.09 1166.11 2396.65 1168.41 2395.14 1170.7C2396.22 1171.85 2397.37 1173.07 2398.37 1174.29C2400.45 1176.73 2402.25 1179.32 2404.05 1181.98C2405.85 1184.57 2407.5 1187.3 2409.01 1190.17C2415.19 1201.38 2419.64 1214.24 2420.72 1227.89C2422.3 1241.4 2418.56 1255.76 2412.03 1266.76C2405.56 1278.04 2395.36 1285.51 2384.95 1290.18C2389.12 1289.25 2468.64 1269.78 2436.17 1151.74C2436.17 1151.74 2455.52 1086.88 2421.92 1041.39C2413.26 1029.67 2410.69 1014.48 2414.89 1000.53C2430.69 948.049 2471.6 842.389 2521.73 945.709C2515.55 915.609 2511.39 900.019 2511.39 900.019C2505.36 889.099 2499.54 878.319 2493.93 867.689C2491.06 862.449 2488.25 857.199 2485.31 852.099C2483.87 849.509 2482.51 846.929 2481 844.489C2480.28 843.409 2479.42 841.759 2478.84 841.109C2478.27 840.459 2477.83 839.889 2477.26 839.389C2472.95 835.649 2466.84 834.149 2462.1 836.229C2460.95 836.799 2459.8 837.309 2458.87 838.309C2458.65 838.449 2457.29 839.889 2456.36 840.749L2453.27 843.839C2449.18 847.859 2445.37 852.319 2441.42 856.479C2410.53 891.249 2384.38 930.829 2361.1 971.779C2337.75 1012.8 2317.28 1055.69 2298.96 1099.44Z" fill="#66142E"/>
<path opacity="0.3" d="M1921.94 3198.96C1922.87 3204.71 1923.59 3210.45 1924.45 3216.27L1924.67 3217.92C1932.14 3219.07 1961.74 3221.3 1971.08 3222.16C1971.1 3187.21 1971.22 3166.41 1971.22 3166.41C1952.25 3166.41 1933.86 3166.12 1916.05 3165.69C1918.21 3176.69 1920.15 3187.82 1921.94 3198.96Z" fill="#66142E"/>
<path opacity="0.3" d="M1644.21 3184.37L1628.69 3152.9L1624.88 3145L1621.43 3136.95L1615.47 3122.65L1614.68 3120.85C1610.15 3110.07 1605.7 3099.3 1602.04 3088.31C1598.23 3077.32 1594.28 3066.47 1590.62 3055.41L1580.63 3022.22C1568.27 2977.68 1557.43 2932.85 1551.18 2887.3C1549.89 2875.88 1548.23 2864.53 1547.37 2853.1C1546.65 2841.53 1545.57 2830.18 1545.43 2818.62C1545.21 2813.09 1545.14 2807.63 1545.14 2802.03C1544.1 2847.25 1546.21 2918.46 1561.75 3002.28C1563.6 3012.25 1551.18 3018.59 1544.46 3011C1502.14 2963.23 1455.9 2943.3 1421.87 2935.11C1405.65 2931.21 1394.07 2916.81 1393.78 2900.13C1393.1 2860.51 1406.63 2835.78 1407.65 2846C1411.17 2880.05 1451.97 2922.8 1451.97 2922.8C1448.81 2911.59 1445.94 2900.17 1443.28 2888.68C1441.05 2877.11 1439.11 2865.55 1437.32 2853.91C1435.38 2842.27 1434.52 2830.63 1433.3 2819C1432.8 2813.11 1432.08 2807.29 1431.65 2801.4L1430.78 2783.63C1428.35 2782.31 1427.67 2781.93 1425.24 2780.61C1398.35 2796.49 1361.72 2824.42 1345.95 2865.05C1335.94 2890.77 1335.63 2918.96 1344.85 2949.21C1346.08 2953.27 1347.47 2957.35 1349.04 2961.46C1356.01 2955.71 1365.06 2950.47 1376.55 2947.45C1384.24 2945.51 1392.21 2944.72 1400.47 2945.22C1423.1 2946.58 1447.74 2957.22 1474.03 2977.04C1489.26 2988.53 1506.5 3001.54 1521.73 3018.92C1544.65 3045.14 1561.17 3075.24 1570.29 3106.42C1574.67 3121.36 1577.33 3136.52 1578.12 3151.68C1578.69 3162.67 1578.26 3173.38 1576.97 3183.65C1588.11 3188.1 1604.84 3194.14 1627.55 3200.82C1627.55 3200.8 1627.55 3200.78 1627.54 3200.77C1636.83 3203.51 1646.99 3206.34 1658.29 3209.23C1653.55 3200.97 1648.59 3192.78 1644.21 3184.37Z" fill="#66142E"/>
<path opacity="0.3" d="M1971.37 3222.16C1980.71 3221.3 2010.31 3219.07 2017.78 3217.92L2018 3216.27C2018.86 3210.45 2019.58 3204.7 2020.51 3198.96C2022.31 3187.82 2024.25 3176.69 2026.4 3165.7C2008.58 3166.13 1990.19 3166.42 1971.23 3166.42C1971.22 3166.41 1971.34 3187.21 1971.37 3222.16Z" fill="#66142E"/>
<path opacity="0.3" d="M2596.52 2865.04C2580.75 2824.4 2544.12 2796.47 2517.23 2780.6C2514.8 2781.92 2514.12 2782.3 2511.69 2783.62L2510.82 2801.39C2510.39 2807.28 2509.67 2813.1 2509.17 2818.99C2507.95 2830.63 2507.09 2842.27 2505.15 2853.9C2503.35 2865.54 2501.41 2877.1 2499.19 2888.67C2496.53 2900.16 2493.66 2911.59 2490.5 2922.79C2490.5 2922.79 2531.3 2880.05 2534.82 2845.99C2535.84 2835.77 2549.36 2860.5 2548.69 2900.12C2548.41 2916.8 2536.82 2931.2 2520.6 2935.1C2486.56 2943.29 2440.33 2963.23 2398.01 3010.99C2391.28 3018.58 2378.87 3012.25 2380.72 3002.27C2396.25 2918.45 2398.37 2847.24 2397.33 2802.02C2397.33 2807.62 2397.26 2813.08 2397.04 2818.61C2396.9 2830.18 2395.82 2841.53 2395.1 2853.09C2394.24 2864.51 2392.59 2875.86 2391.29 2887.29C2385.04 2932.84 2374.19 2977.66 2361.84 3022.21L2351.85 3055.4C2348.19 3066.46 2344.24 3077.31 2340.43 3088.3C2336.77 3099.29 2332.31 3110.07 2327.79 3120.84L2327 3122.64L2321.04 3136.94L2317.59 3144.99L2313.78 3152.89L2298.26 3184.36C2293.88 3192.77 2288.92 3200.95 2284.18 3209.22C2295.48 3206.33 2305.64 3203.5 2314.93 3200.76C2314.93 3200.78 2314.93 3200.8 2314.92 3200.81C2337.62 3194.13 2354.36 3188.09 2365.49 3183.64C2364.2 3173.37 2363.77 3162.66 2364.34 3151.67C2365.13 3136.51 2367.79 3121.35 2372.17 3106.41C2381.29 3075.23 2397.82 3045.13 2420.73 3018.91C2435.96 3001.52 2453.2 2988.52 2468.43 2977.03C2494.72 2957.2 2519.36 2946.57 2541.99 2945.21C2550.25 2944.71 2558.23 2945.5 2565.91 2947.44C2577.4 2950.46 2586.46 2955.7 2593.42 2961.45C2594.99 2957.34 2596.38 2953.26 2597.61 2949.2C2606.84 2918.96 2606.53 2890.77 2596.52 2865.04Z" fill="#66142E"/>
<path opacity="0.3" d="M3038.12 2627.4C3006.73 2514.97 2918.36 2485.66 2876.55 2478.12C2828.06 2469.28 2777.55 2476.04 2737.4 2493.49C2703.06 2508.5 2676.26 2531.42 2664.84 2559.22C2640.34 2618.78 2557.94 2674.59 2512.83 2701.68C2512.4 2682.36 2511.9 2663.03 2510.96 2643.78C2508.88 2597.16 2505.14 2550.75 2500.11 2504.48C2497.95 2485.16 2495.51 2465.9 2492.93 2446.65C2500.19 2446 2507.08 2442.34 2511.46 2435.87C2541.56 2391.69 2577.98 2287.81 2517.64 2193.12C2521.54 2197.65 2606.92 2300.26 2538.07 2487.6C2532.02 2504.08 2534.46 2523.13 2546.28 2536.11C2558.91 2549.97 2580.14 2554 2612.68 2505.63C2672.67 2416.33 3027.92 2339.68 3038.12 2627.4Z" fill="#66142E"/>
<path opacity="0.3" d="M1643.2 1229.83C1586.66 1201.74 1558.72 1285.43 1557.28 1289.96C1554.84 1278.39 1552.25 1268.7 1553.19 1259.57C1553.55 1250.59 1555.63 1243.19 1559.15 1236.22C1562.81 1229.25 1567.48 1222.86 1572.87 1216.54C1575.6 1213.45 1578.47 1210.36 1581.42 1207.34L1588.1 1200.66C1593.78 1201.59 1599.45 1202.17 1605.13 1201.95C1640.19 1214.09 1643.2 1229.83 1643.2 1229.83Z" fill="#66142E"/>
<path opacity="0.3" d="M2298.96 1229.83C2355.5 1201.74 2383.44 1285.43 2384.88 1289.96C2387.32 1278.39 2389.91 1268.7 2388.97 1259.57C2388.61 1250.59 2386.53 1243.19 2383.01 1236.22C2379.35 1229.25 2374.68 1222.86 2369.29 1216.54C2366.56 1213.45 2363.69 1210.36 2360.74 1207.34L2354.06 1200.66C2348.38 1201.59 2342.71 1202.17 2337.03 1201.95C2301.97 1214.09 2298.96 1229.83 2298.96 1229.83Z" fill="#66142E"/>
<path opacity="0.7" d="M1875.2 1137.52C1862.23 1137.05 1853.53 1150.35 1858.83 1162.2C1881.18 1212.19 1941.49 1217.12 1941.49 1217.12C1921.95 1218.41 1902.62 1216.04 1885.74 1209.29C1868.86 1202.82 1854.99 1191.98 1845.51 1178.26C1835.88 1164.68 1830.64 1148.37 1827.33 1131.49C1826.61 1127.18 1826.04 1122.8 1825.46 1118.56C1825.1 1114.25 1824.74 1110.01 1824.31 1105.7C1827.83 1106.49 1831.35 1107.28 1834.87 1107.93C1848.73 1110.37 1862.53 1112.17 1876.25 1113.1C1890.04 1114.03 1903.76 1114.54 1917.41 1114.46L1937.88 1114.03C1950.16 1113.31 1960.72 1105.05 1964.39 1093.27C1964.61 1092.62 1964.46 1088.82 1964.03 1087.67L1962.59 1083.93C1961.58 1081.34 1960.72 1078.9 1959.86 1076.32C1958.28 1071.36 1956.84 1066.33 1956.12 1061.09C1955.83 1059.22 1955.69 1057.28 1955.55 1055.41C1960.65 1057.35 1965.82 1059.36 1971.14 1061.23C1986.08 1066.4 2001.38 1071.07 2018.12 1074.23C2026.02 1075.74 2037.44 1076.53 2041.54 1077.1C2047.29 1077.96 2053.03 1079.47 2058.71 1081.55C2063.88 1083.49 2069.05 1085.93 2074.01 1088.81L1996.15 1086.72C1988.74 1086.52 1981.83 1092.38 1981.5 1099.78C1980.69 1118.38 1967.51 1134.43 1948.09 1136.02C1919.46 1138.37 1893.1 1138.17 1875.2 1137.52Z" fill="white"/>
<path opacity="0.7" d="M1931.28 2280.05C1394.64 1982.13 1457.71 2378.97 1457.71 2378.97C1441.83 2340.75 1425.38 2270.2 1478.33 2204.4C1588.89 2069.41 1813.25 2198.87 1909.66 2264.89C1917.85 2270.43 1925.1 2275.6 1931.28 2280.05Z" fill="white"/>
<path opacity="0.7" d="M2010.88 2280.05C2547.52 1982.13 2484.45 2378.97 2484.45 2378.97C2500.33 2340.75 2516.78 2270.2 2463.83 2204.4C2353.27 2069.41 2128.91 2198.87 2032.5 2264.89C2024.31 2270.43 2017.06 2275.6 2010.88 2280.05Z" fill="white"/>
<path opacity="0.7" d="M3080.86 2323.3C3055.43 2215.4 2979.78 2125.38 2855.86 2055.7C2846.38 2050.38 2841.35 2039.46 2843.58 2028.76C2845.81 2018.06 2854.64 2009.94 2865.56 2008.79C2878.49 2007.35 2896.74 2002.4 2909.74 1994.92C2879.42 1977.53 2818.65 1950.67 2733.09 1950.02C2733.74 1952.46 2734.1 1954.98 2734.02 1957.56C2733.66 1965.84 2731.09 1976.2 2721.81 1991.54C2720.61 1993.52 2719.25 1995.63 2717.82 1997.78C2717.45 1998.34 2717.07 1998.9 2716.68 1999.47C2715.18 2001.67 2713.6 2003.94 2711.84 2006.32C2711.65 2006.58 2711.43 2006.85 2711.24 2007.11C2709.62 2009.3 2707.86 2011.58 2706.01 2013.93C2705.45 2014.64 2704.89 2015.35 2704.31 2016.08C2702.17 2018.75 2699.95 2021.48 2697.51 2024.37C2685.94 2038.02 2670.79 2054.26 2651.03 2073.8C2663.58 2068.92 2678.74 2062.57 2695.68 2054.58C2721.32 2042.48 2750.96 2042.36 2777.04 2053.48C3186.04 2227.91 3046.26 2606.27 3038.46 2626.54C3070.45 2557.21 3108.66 2441.33 3080.86 2323.3Z" fill="white"/>
<defs>
<linearGradient id="paint0_linear_7_1443" x1="1884.02" y1="677.816" x2="1892.99" y2="1595.17" gradientUnits="userSpaceOnUse">
<stop stop-color="#FF7F00"/>
<stop offset="0.3186" stop-color="#FE7C02"/>
<stop offset="0.5141" stop-color="#FB740A"/>
<stop offset="0.6764" stop-color="#F66617"/>
<stop offset="0.8205" stop-color="#EF5129"/>
<stop offset="0.9513" stop-color="#E63740"/>
<stop offset="1" stop-color="#E22B4B"/>
</linearGradient>
<linearGradient id="paint1_linear_7_1443" x1="1955.62" y1="2185.42" x2="1977.17" y2="3189.13" gradientUnits="userSpaceOnUse">
<stop stop-color="#FF7F00"/>
<stop offset="0.3186" stop-color="#FE7C02"/>
<stop offset="0.5141" stop-color="#FB740A"/>
<stop offset="0.6764" stop-color="#F66617"/>
<stop offset="0.8205" stop-color="#EF5129"/>
<stop offset="0.9513" stop-color="#E63740"/>
<stop offset="1" stop-color="#E22B4B"/>
</linearGradient>
<linearGradient id="paint2_linear_7_1443" x1="3215.4" y1="2030.91" x2="2559.6" y2="2543.54" gradientUnits="userSpaceOnUse">
<stop stop-color="#FF7F00"/>
<stop offset="0.3186" stop-color="#FE7C02"/>
<stop offset="0.5141" stop-color="#FB740A"/>
<stop offset="0.6764" stop-color="#F66617"/>
<stop offset="0.8205" stop-color="#EF5129"/>
<stop offset="0.9513" stop-color="#E63740"/>
<stop offset="1" stop-color="#E22B4B"/>
</linearGradient>
<linearGradient id="paint3_linear_7_1443" x1="1963.76" y1="1099.1" x2="1978.74" y2="2632.5" gradientUnits="userSpaceOnUse">
<stop stop-color="#FF7F00"/>
<stop offset="0.2153" stop-color="#FE7C02"/>
<stop offset="0.3474" stop-color="#FB740A"/>
<stop offset="0.457" stop-color="#F66617"/>
<stop offset="0.5544" stop-color="#EF5129"/>
<stop offset="0.6428" stop-color="#E63740"/>
<stop offset="0.6757" stop-color="#E22B4B"/>
</linearGradient>
</defs>
</svg>
