<svg width="400" height="400" viewBox="0 0 400 400" fill="none" xmlns="http://www.w3.org/2000/svg">
<path opacity="0.3" d="M199.5 340.7C262.184 340.7 313 335.918 313 330.02C313 324.121 262.184 319.34 199.5 319.34C136.816 319.34 86 324.121 86 330.02C86 335.918 136.816 340.7 199.5 340.7Z" fill="#66142E"/>
<path d="M304.487 271.992C303.876 272.89 302.748 273.292 301.707 272.991C300.658 272.682 299.924 271.741 299.896 270.649C299.487 257.086 291.485 253.616 286.758 252.754C279.66 251.468 272.534 254.428 271.133 257.833C268.288 264.765 259.846 270.807 254.695 273.983C258 276.016 262.282 279.486 264.301 284.651C265.853 288.609 265.83 292.869 264.243 297.345C264.595 297.496 264.897 297.668 265.163 297.841C267.21 299.163 268.108 301.325 268.496 302.769C270.012 303.71 271.089 305.046 271.643 306.706C273.144 311.232 270.249 316.634 269.689 317.611C268.769 319.515 267.578 321.311 266.148 322.956C261.78 327.942 255.904 330.607 250.473 330.607C247.003 330.607 243.72 329.522 241.134 327.259C239.812 326.102 238.77 324.723 238.009 323.193C235.48 324.17 231.012 325.636 224.395 326.993L224.302 327.108C224.166 327.273 224.022 327.431 223.871 327.582C223.268 328.193 222.549 328.703 221.759 329.076C221.364 329.263 220.954 329.414 220.523 329.529C220.042 329.651 219.797 329.68 219.496 329.745C218.311 329.961 217.118 330.133 215.911 330.248C213.49 330.456 211.012 330.485 208.454 330.061L207.49 329.874L206.528 329.623L205.558 329.307C205.493 329.285 205.371 329.242 205.256 329.192C205.134 329.142 205.019 329.091 204.904 329.034C204.681 328.919 204.459 328.797 204.25 328.653C203.503 328.164 202.907 327.511 202.461 326.771C200.988 327.001 198.984 327.245 197.109 327.245C195.241 327.245 193.237 327.001 191.764 326.771C191.319 327.511 190.722 328.165 189.975 328.653C189.767 328.797 189.544 328.919 189.314 329.034C189.206 329.091 189.084 329.142 188.969 329.192C188.854 329.242 188.725 329.285 188.66 329.307L187.697 329.623L186.727 329.874L185.764 330.061C183.207 330.485 180.735 330.456 178.314 330.248C177.107 330.133 175.915 329.961 174.729 329.745C174.427 329.68 174.183 329.652 173.695 329.529C173.271 329.414 172.862 329.263 172.459 329.076C171.669 328.702 170.958 328.192 170.354 327.582C170.203 327.431 170.059 327.273 169.923 327.108L169.83 326.993C163.221 325.642 158.759 324.17 156.231 323.2C155.455 324.737 154.399 326.11 153.092 327.259C150.549 329.479 147.316 330.635 143.76 330.635C142.69 330.635 141.59 330.534 140.477 330.319C135.872 329.45 131.468 326.828 128.077 322.955C126.64 321.31 125.455 319.514 124.528 317.61C123.968 316.633 121.073 311.231 122.581 306.705C123.134 305.046 124.212 303.709 125.728 302.768C126.109 301.324 127.014 299.162 129.054 297.84C129.32 297.668 129.629 297.495 129.974 297.344C128.394 292.868 128.372 288.608 129.917 284.65C132.783 277.322 140.197 273.407 142.92 272.186C142.92 271.913 142.913 271.64 142.913 271.374C142.956 269.039 143.014 266.704 143.129 264.377C143.337 259.715 143.711 255.074 144.214 250.447C144.43 248.515 144.667 246.589 144.932 244.664C144.206 244.599 143.517 244.233 143.079 243.586C140.069 239.168 136.412 228.773 142.476 219.297C140.35 217.53 136.671 214.419 133 211.05C122.44 201.344 120.917 197.875 120.823 195.755C120.809 195.453 120.852 195.159 120.945 194.871C121.103 194.382 121.721 192.601 122.899 190.984C121.469 189.425 119.896 187.011 119.896 183.98C119.896 183.456 120.061 182.946 120.363 182.522C120.471 182.371 121.39 181.128 123.086 179.993C123.697 178.061 124.559 171.279 125.205 166.243C126.132 158.987 127.087 151.501 128.215 147.565C128.337 142.752 129.752 96.5953 141.419 71.6593C142.425 69.5113 144.3 67.8663 146.563 67.1553C148.804 66.4443 151.268 66.7103 153.309 67.8813C160.385 71.9543 174.049 82.5363 186.262 107.702C186.837 107.803 187.419 107.896 188.001 107.989C189.287 108.205 190.594 108.334 191.902 108.499L192.448 108.556C192.189 108.089 191.974 107.601 191.801 107.105C191.535 106.286 191.384 105.446 191.334 104.619C191.305 104.202 191.327 103.793 191.334 103.383C191.363 102.981 191.42 102.586 191.485 102.19V102.183C191.6 101.407 192.132 100.71 192.893 100.502C193.41 100.358 193.892 100.394 194.308 100.552L194.351 100.574C195.658 101.084 197.081 101.565 198.453 101.975C199.832 102.377 201.226 102.715 202.533 102.895C203.237 102.981 203.603 102.967 204.703 103.046C205.63 103.139 206.535 103.333 207.397 103.599C208.158 103.836 208.877 104.138 209.574 104.483C221.226 81.8753 233.798 71.9763 240.91 67.8813C242.957 66.7103 245.413 66.4443 247.662 67.1553C249.925 67.8663 251.801 69.5113 252.807 71.6593C264.474 96.5953 265.889 142.744 266.004 147.565C267.139 151.502 268.094 158.995 269.02 166.243C269.667 171.286 270.529 178.061 271.139 179.993C272.834 181.128 273.748 182.364 273.856 182.522C274.165 182.946 274.33 183.456 274.33 183.98C274.33 186.43 273.303 188.456 272.153 189.979C287.326 189.692 296.01 196.739 296.391 197.055C297.239 197.759 297.526 198.923 297.117 199.936C296.305 201.933 294.647 203.269 292.908 204.167C303.734 211.423 310.479 220.503 312.993 231.215C317.87 251.999 305.033 271.18 304.487 271.992Z" fill="#66142E"/>
<path d="M248.135 73.586C248.192 73.694 248.257 73.809 248.307 73.924C248.293 73.881 248.271 73.838 248.25 73.795C248.214 73.722 248.178 73.65 248.135 73.586ZM246.497 72.084C247.187 72.386 247.754 72.932 248.135 73.585C247.769 72.91 247.201 72.386 246.497 72.084ZM173.479 95.274C173.041 94.606 172.603 93.967 172.172 93.334C172.603 93.96 173.041 94.606 173.479 95.274ZM145.972 73.794C145.958 73.823 145.95 73.844 145.936 73.873C146.259 73.191 146.769 72.609 147.409 72.235C146.783 72.587 146.28 73.126 145.972 73.794ZM129.765 170.131C129.693 170.655 129.629 171.151 129.571 171.632C129.635 171.151 129.7 170.656 129.765 170.131Z" fill="url(#paint0_linear_1350_15451)"/>
<path d="M259.32 296.143C258.616 295.568 257.711 295.044 256.569 294.742C253.688 294.002 250.405 294.993 246.82 297.702C245.297 298.851 243.566 300.152 242.05 301.89C237.711 306.854 235.857 312.996 236.554 318.363C234.995 318.981 232.308 319.922 228.386 320.92C228.867 320.101 229.356 319.282 229.794 318.434L231.346 315.287L231.734 314.497L232.072 313.692L232.754 312.083C233.207 311.005 233.652 309.928 234.011 308.829C234.392 307.73 234.794 306.645 235.153 305.539L236.159 302.22C237.395 297.766 238.472 293.283 239.104 288.728C239.226 287.586 239.391 286.451 239.485 285.308C239.55 284.151 239.665 283.016 239.679 281.86C239.744 279.568 239.693 277.255 239.392 274.956C238.149 279.403 237.064 283.771 235.958 288.124C234.859 292.47 233.738 296.795 232.294 301.005C230.886 305.229 229.09 309.288 227.143 313.225L225.584 316.127C225.045 317.075 224.435 317.98 223.867 318.907C223.572 319.367 223.292 319.834 222.991 320.286L222.021 321.586L221.051 322.886L220.577 323.54L220.455 323.705C220.419 323.755 220.405 323.762 220.383 323.798C220.333 323.848 220.29 323.899 220.239 323.949C220.038 324.143 219.815 324.294 219.578 324.402C219.305 324.517 219.226 324.531 218.579 324.639C217.537 324.819 216.481 324.955 215.432 325.048C213.334 325.242 211.237 325.249 209.318 324.933L208.614 324.797L207.924 324.632L207.27 324.431C207.205 324.417 207.191 324.409 207.184 324.402C207.17 324.395 207.155 324.395 207.141 324.388C207.112 324.374 207.084 324.366 207.062 324.345C206.854 324.237 206.66 323.928 206.653 323.598C206.646 323.555 206.653 323.526 206.653 323.469L206.782 322.241L206.983 320.596C207.119 319.504 207.278 318.412 207.457 317.32C208.154 312.945 209.21 308.642 210.244 304.324C211.286 299.992 212.485 295.71 213.62 291.177C210.524 294.683 208.218 298.792 206.45 303.081C204.676 307.384 203.533 311.903 202.635 316.458C202.405 317.593 202.204 318.742 202.024 319.892C201.923 320.467 201.852 321.041 201.773 321.623L201.751 321.788C200.458 321.989 198.691 322.212 197.103 322.212C196.435 322.212 195.731 322.169 195.048 322.111C194.114 322.025 193.209 321.903 192.462 321.788L192.44 321.623C192.354 321.041 192.282 320.466 192.189 319.892C192.009 318.778 191.815 317.665 191.6 316.566C191.593 316.53 191.586 316.494 191.578 316.458C190.68 311.903 189.538 307.385 187.756 303.081C186.887 300.969 185.888 298.907 184.724 296.939C183.531 294.899 182.167 292.959 180.593 291.177C180.859 292.247 181.132 293.296 181.398 294.338C182.282 297.729 183.172 301.012 183.97 304.324C184.071 304.755 184.178 305.186 184.279 305.617C185.134 309.187 185.982 312.751 186.599 316.357C186.656 316.68 186.707 316.996 186.757 317.32C186.937 318.412 187.087 319.504 187.224 320.596L187.432 322.241L187.561 323.469C187.554 323.526 187.568 323.555 187.561 323.598C187.554 323.928 187.353 324.237 187.152 324.345C187.123 324.367 187.095 324.374 187.073 324.388C187.059 324.395 187.044 324.395 187.03 324.402C187.016 324.409 187.008 324.416 186.937 324.431L186.283 324.632L185.601 324.797L184.897 324.933C182.972 325.249 180.881 325.242 178.783 325.048C177.734 324.955 176.678 324.818 175.629 324.639C174.99 324.531 174.911 324.517 174.638 324.402C174.401 324.294 174.171 324.143 173.977 323.949C173.927 323.899 173.884 323.848 173.833 323.798C173.811 323.762 173.797 323.755 173.761 323.705L173.639 323.54L173.165 322.886L171.225 320.285C170.923 319.832 170.643 319.365 170.349 318.906C169.781 317.979 169.171 317.074 168.625 316.126L167.698 314.395L167.396 313.835L167.073 313.224C165.126 309.287 163.33 305.228 161.922 301.004C160.471 296.794 159.35 292.469 158.251 288.123C157.224 284.057 156.211 279.976 155.068 275.831C154.91 275.263 154.824 274.955 154.824 274.955C154.817 274.991 154.81 275.02 154.81 275.056C154.81 275.121 154.796 275.221 154.781 275.351C154.759 275.509 154.745 275.674 154.731 275.832C154.566 277.254 154.508 278.67 154.508 280.085V280.2C154.508 280.76 154.515 281.306 154.537 281.859C154.551 283.016 154.659 284.151 154.731 285.307C154.817 286.449 154.982 287.584 155.112 288.727C155.737 293.282 156.822 297.764 158.057 302.219L159.056 305.538C159.422 306.644 159.817 307.729 160.198 308.828C160.564 309.927 161.01 311.005 161.462 312.082L161.541 312.262L161.857 313.009C161.864 313.023 161.864 313.031 161.864 313.031C161.864 313.038 162.065 313.512 162.396 314.31L162.482 314.497L162.863 315.287L164.415 318.434C164.853 319.275 165.349 320.093 165.823 320.92C165.579 320.855 165.334 320.798 165.105 320.733C164.257 320.51 163.474 320.295 162.749 320.079C160.479 319.411 158.805 318.807 157.691 318.362C157.82 317.335 157.863 316.264 157.806 315.165C157.727 313.649 157.461 312.133 157.023 310.639C156.111 307.521 154.458 304.511 152.167 301.889C150.644 300.15 148.92 298.85 147.397 297.701C144.768 295.718 142.304 294.655 140.041 294.519C139.215 294.469 138.417 294.548 137.649 294.742C136.5 295.044 135.594 295.568 134.898 296.143C134.596 295.353 134.352 294.57 134.187 293.801C133.576 291.193 133.713 288.758 134.589 286.502C136.27 282.17 140.322 279.282 143.037 277.759C143.051 277.967 143.059 278.176 143.073 278.384L143.159 280.137C143.202 280.726 143.274 281.308 143.324 281.897C143.446 283.061 143.532 284.225 143.726 285.388C143.906 286.552 144.1 287.708 144.322 288.865C144.588 290.014 144.875 291.157 145.191 292.277C145.399 287.593 145.83 283.031 146.276 278.455C146.736 273.886 147.188 269.317 147.742 264.755C148.252 260.466 148.791 256.184 149.358 251.91C149.358 251.91 149.358 251.917 149.365 251.932C153.115 262.155 158.848 269.31 159.186 269.734C160.055 270.797 161.614 270.97 162.692 270.122C163.461 269.519 164.107 268.894 164.646 268.276C174.043 286.502 195.063 296.703 196.026 297.163C196.364 297.328 196.737 297.407 197.104 297.407C197.111 297.407 197.111 297.407 197.118 297.407C197.484 297.407 197.851 297.328 198.188 297.163C199.151 296.703 220.171 286.502 229.56 268.276C230.106 268.894 230.745 269.519 231.514 270.122C232.599 270.97 234.158 270.797 235.02 269.734C235.365 269.31 241.098 262.148 244.855 251.911C245.423 256.185 245.961 260.467 246.464 264.756C246.787 267.393 247.075 270.036 247.348 272.68C247.348 272.68 247.65 275.36 247.678 275.934L247.937 278.456C248.382 283.032 248.813 287.594 249.022 292.278C249.338 291.157 249.625 290.015 249.891 288.866C250.114 287.709 250.308 286.553 250.48 285.389C250.681 284.225 250.76 283.061 250.882 281.898C250.939 281.309 251.004 280.727 251.047 280.138L251.14 278.385C251.154 278.177 251.162 277.961 251.169 277.746C253.877 279.262 257.915 282.135 259.61 286.482C260.764 289.398 260.657 292.645 259.32 296.143Z" fill="url(#paint1_linear_1350_15451)"/>
<path d="M303.811 262.74C300.672 251.497 291.835 248.566 287.654 247.812C282.805 246.928 277.754 247.604 273.739 249.349C270.305 250.85 267.625 253.142 266.483 255.922C264.033 261.878 255.793 267.459 251.282 270.168C251.239 268.236 251.189 266.303 251.095 264.378C250.887 259.716 250.513 255.075 250.01 250.448C249.794 248.516 249.55 246.59 249.292 244.665C250.018 244.6 250.707 244.234 251.145 243.587C254.155 239.169 257.797 228.781 251.763 219.312C251.756 219.305 251.749 219.298 251.749 219.298C253.1 218.17 255.082 216.503 257.295 214.571C258.552 213.465 259.888 212.272 261.225 211.051C271.785 201.345 273.308 197.876 273.402 195.756C273.409 195.497 273.373 195.246 273.309 195.002C281.865 195.067 287.943 197.753 290.974 199.492C289.674 200.239 287.849 200.735 286.556 200.879C285.464 200.994 284.58 201.806 284.358 202.876C284.136 203.946 284.638 205.038 285.586 205.57C297.978 212.538 305.543 221.54 308.086 232.33C310.88 244.184 307.015 255.815 303.811 262.74Z" fill="url(#paint2_linear_1350_15451)"/>
<path d="M266.432 193.105C265.663 192.681 265.175 191.891 265.139 191.014C265.103 190.138 265.527 189.304 266.26 188.816C266.986 188.32 268.753 186.74 269.191 184.843C268.904 184.577 268.501 184.254 267.998 183.959C266.281 182.953 265.836 181.035 264.032 166.883C263.148 159.958 262.143 152.12 261.094 148.7C261.022 148.477 260.986 148.24 260.979 148.01C260.979 147.917 260.936 145.963 260.778 142.694C260.764 142.457 260.756 142.213 260.742 141.961C260.735 141.789 260.72 141.609 260.713 141.429C260.699 141.192 260.691 140.948 260.677 140.703C260.634 139.891 260.584 139.022 260.526 138.102C260.512 137.858 260.49 137.599 260.476 137.348C260.44 136.716 260.397 136.062 260.347 135.38C260.333 135.157 260.318 134.935 260.297 134.705C260.283 134.425 260.261 134.145 260.24 133.864C260.226 133.67 260.211 133.476 260.197 133.282C260.161 132.808 260.125 132.327 260.089 131.838C260.053 131.378 260.017 130.911 259.974 130.444C259.866 129.108 259.744 127.728 259.608 126.299C259.572 125.875 259.529 125.451 259.486 125.013C259.443 124.532 259.393 124.043 259.342 123.555C259.299 123.16 259.256 122.765 259.22 122.362C259.206 122.247 259.191 122.132 259.184 122.017C258.968 119.977 258.724 117.865 258.451 115.709C258.322 114.682 258.185 113.647 258.042 112.613C257.769 110.63 257.474 108.633 257.151 106.622C256.979 105.559 256.799 104.496 256.619 103.432C256.454 102.491 256.281 101.55 256.102 100.609C256.059 100.386 256.023 100.164 255.98 99.941C255.908 99.567 255.836 99.201 255.757 98.827C254.852 94.244 253.789 89.725 252.553 85.486C252.287 84.588 252.014 83.704 251.734 82.835C251.439 81.923 251.138 81.025 250.829 80.148C250.671 79.71 250.513 79.279 250.355 78.848C249.874 77.555 249.371 76.305 248.839 75.098C248.667 74.703 248.487 74.308 248.307 73.92C248.257 73.805 248.192 73.69 248.135 73.582C247.754 72.928 247.187 72.382 246.497 72.081C246.382 72.024 246.26 71.98 246.138 71.945C245.226 71.658 244.256 71.758 243.415 72.24C239.478 74.51 233.738 78.706 227.409 86.256C221.08 93.799 214.162 104.69 207.869 120.337C205.707 119.468 204.579 117.075 205.276 114.848C205.93 112.765 206.526 110.732 207.402 108.878C206.906 108.591 206.389 108.346 205.872 108.152C205.304 107.944 204.73 107.793 204.155 107.707C203.746 107.65 202.603 107.571 201.813 107.42C200.139 107.104 198.609 106.637 197.115 106.12C196.583 105.933 196.066 105.732 195.556 105.538C195.57 105.725 195.585 105.919 195.613 106.106C195.685 106.63 195.829 107.133 195.987 107.629C196.073 107.888 196.159 108.132 196.26 108.39L196.404 108.764C196.447 108.879 196.461 109.26 196.44 109.324C196.074 110.502 195.018 111.328 193.789 111.4L191.742 111.443C190.377 111.45 189.005 111.4 187.626 111.307C186.254 111.214 184.875 111.034 183.488 110.79C183.136 110.725 182.784 110.646 182.432 110.567C182.475 110.998 182.511 111.422 182.547 111.853C182.604 112.277 182.662 112.715 182.734 113.146C183.064 114.834 183.589 116.465 184.552 117.823C185.5 119.195 186.887 120.28 188.575 120.926C190.263 121.601 192.196 121.838 194.15 121.709C193.245 122.097 192.268 122.341 191.269 122.478C190.27 122.614 189.229 122.665 188.194 122.521C186.111 122.284 183.991 121.321 182.361 119.784C180.73 118.232 179.617 116.25 178.884 114.224C178.395 112.802 177.921 111.329 177.921 109.856C177.921 109.238 178.007 108.613 178.208 107.995L178.388 107.478C178.625 106.788 179.221 106.336 179.904 106.25C178.848 104.224 177.785 102.306 176.729 100.496C176.384 99.921 176.047 99.354 175.709 98.793C175.702 98.771 175.687 98.757 175.673 98.736C175.35 98.197 175.019 97.673 174.696 97.156C174.294 96.517 173.884 95.884 173.482 95.274C173.044 94.606 172.606 93.967 172.175 93.334C169.151 88.966 166.191 85.388 163.411 82.472C162.341 81.351 161.306 80.331 160.308 79.412C156.536 75.899 153.246 73.65 150.804 72.242C150.675 72.17 150.538 72.098 150.402 72.041C149.827 71.804 149.209 71.732 148.599 71.825C148.441 71.847 148.276 71.882 148.118 71.933C147.867 72.005 147.637 72.113 147.414 72.235C146.775 72.609 146.265 73.19 145.941 73.873C145.546 74.721 145.158 75.597 144.792 76.495C144.462 77.3 144.138 78.126 143.829 78.966C143.642 79.476 143.455 79.986 143.276 80.511C143.104 81 142.938 81.488 142.773 81.991C142.579 82.559 142.399 83.126 142.22 83.708C141.918 84.663 141.631 85.64 141.351 86.632L141.243 87.02C141.085 87.588 140.934 88.148 140.783 88.723C140.647 89.226 140.517 89.729 140.395 90.232C140.345 90.39 140.309 90.548 140.273 90.713C140.072 91.496 139.885 92.293 139.698 93.098C139.482 93.996 139.281 94.894 139.087 95.806C138.965 96.366 138.85 96.934 138.735 97.509C138.405 99.089 138.103 100.691 137.815 102.294C137.743 102.682 137.671 103.077 137.607 103.472C137.528 103.889 137.456 104.305 137.391 104.722C137.298 105.261 137.204 105.807 137.118 106.346C137.111 106.403 137.096 106.461 137.089 106.526C136.945 107.424 136.809 108.315 136.672 109.213C136.6 109.687 136.528 110.161 136.464 110.635C136.392 111.109 136.328 111.583 136.263 112.05C136.184 112.596 136.112 113.142 136.04 113.688C135.961 114.277 135.882 114.866 135.81 115.448C135.753 115.901 135.695 116.353 135.638 116.799C135.552 117.51 135.466 118.214 135.387 118.918C135.33 119.399 135.279 119.881 135.222 120.355C135.208 120.448 135.2 120.535 135.193 120.621C135.107 121.426 135.021 122.223 134.934 123.013C134.647 125.851 134.402 128.559 134.194 131.073C134.165 131.454 134.137 131.834 134.101 132.208C134.087 132.503 134.065 132.783 134.036 133.07C134.022 133.343 134 133.616 133.979 133.882C133.914 134.837 133.85 135.75 133.792 136.626C133.77 136.906 133.756 137.186 133.735 137.459C133.663 138.601 133.606 139.679 133.548 140.663C133.541 140.807 133.534 140.943 133.526 141.08C133.504 141.461 133.49 141.834 133.469 142.186C133.455 142.466 133.447 142.739 133.433 142.998C133.426 143.091 133.419 143.185 133.419 143.271C133.412 143.415 133.405 143.551 133.397 143.688C133.397 143.796 133.39 143.904 133.383 144.011C133.369 144.413 133.354 144.787 133.34 145.132C133.333 145.247 133.333 145.362 133.326 145.477C133.326 145.491 133.319 145.513 133.326 145.527C133.312 145.771 133.304 145.994 133.297 146.202C133.283 146.504 133.275 146.77 133.268 146.992C133.261 147.164 133.261 147.315 133.254 147.445C133.247 147.79 133.24 147.984 133.24 148.013C133.24 148.243 133.197 148.48 133.132 148.703C132.076 152.115 131.077 159.96 130.194 166.879C130.165 167.102 130.137 167.317 130.108 167.533C130.058 167.964 130 168.381 129.95 168.79C129.885 169.257 129.828 169.702 129.77 170.133C129.705 170.657 129.641 171.153 129.576 171.634C129.547 171.814 129.526 171.986 129.504 172.158C129.468 172.417 129.432 172.675 129.396 172.927C129.224 174.22 129.058 175.355 128.907 176.347C128.893 176.455 128.871 176.563 128.857 176.67C128.8 176.993 128.749 177.309 128.706 177.604C128.677 177.784 128.649 177.956 128.62 178.128C128.369 179.529 128.146 180.571 127.909 181.368C127.873 181.497 127.83 181.627 127.794 181.742C127.478 182.697 127.14 183.236 126.724 183.603C126.674 183.653 126.616 183.696 126.566 183.732C126.523 183.768 126.48 183.804 126.437 183.833C126.372 183.876 126.301 183.919 126.229 183.962C125.726 184.257 125.324 184.573 125.029 184.846C125.474 186.743 127.242 188.323 127.974 188.826C128.7 189.322 129.116 190.155 129.08 191.024C129.037 191.893 128.556 192.691 127.794 193.107C127.133 193.473 126.372 194.802 125.941 195.858C127.019 198.782 136.458 207.819 145.639 215.398C161.595 199.723 190.029 219.342 197.112 224.672C204.203 219.342 232.637 199.722 248.592 215.398C257.752 207.84 267.155 198.825 268.283 195.843C267.841 194.778 267.086 193.471 266.432 193.105ZM148.579 84.073C148.486 83.987 148.349 83.843 148.328 83.829C148.235 83.728 148.12 83.678 148.005 83.621C147.531 83.413 146.92 83.564 146.489 83.937C146.432 83.987 146.388 84.045 146.331 84.109C146.274 84.174 146.187 84.339 146.115 84.447C145.964 84.691 145.828 84.95 145.684 85.208C145.389 85.718 145.109 86.242 144.822 86.767C144.262 87.83 143.68 88.908 143.076 90C143.026 88.75 143.083 87.5 143.256 86.272C143.292 85.97 143.335 85.669 143.392 85.367V85.345C143.442 85.036 143.507 84.727 143.572 84.418C143.644 84.109 143.716 83.8 143.795 83.491C143.845 83.326 143.86 83.211 143.939 83.002C144.018 82.794 144.104 82.585 144.226 82.391C144.679 81.586 145.462 80.961 146.345 80.674C147.229 80.372 148.213 80.394 149.111 80.724C149.549 80.896 149.98 81.126 150.339 81.435C150.547 81.6 150.619 81.679 150.748 81.794L151.093 82.117C151.56 82.541 151.984 82.993 152.436 83.432C155.913 87.017 158.808 91.033 161.423 95.192C163.93 99.193 166.15 103.339 168.162 107.577C169.326 110.041 170.418 112.541 171.459 115.063V115.07C172.213 116.888 172.932 118.712 173.621 120.551C173.686 120.695 173.743 120.838 173.808 120.989C173.851 121.097 173.894 121.212 173.937 121.341L174.03 121.614C174.03 121.621 174.037 121.628 174.037 121.643L174.044 121.65L174.08 121.765C174.36 122.606 174.173 123.496 173.649 124.136C173.362 124.502 172.974 124.79 172.5 124.948C171.193 125.386 169.777 124.689 169.325 123.389L169.296 123.31L169.289 123.296C169.26 123.203 169.224 123.109 169.196 123.016C169.174 122.951 169.146 122.88 169.117 122.8C169.052 122.642 168.988 122.484 168.916 122.326C168.78 122.003 168.614 121.679 168.456 121.356C168.118 120.724 167.745 120.092 167.328 119.495C166.495 118.295 165.539 117.189 164.44 116.233C163.341 115.285 162.156 114.423 160.848 113.776C160.216 113.402 159.519 113.158 158.851 112.864C158.743 112.821 158.628 112.792 158.521 112.756C158.456 112.892 158.392 113.036 158.334 113.173C158.054 113.863 157.896 114.531 157.939 115.235C157.982 115.939 158.226 116.701 158.722 117.505C158.808 117.728 158.966 117.914 159.103 118.116L159.52 118.777C159.843 119.201 160.181 119.646 160.511 120.192C159.943 120.214 159.376 120.156 158.808 120.063L158.14 120.731C157.845 121.033 157.558 121.342 157.285 121.651C156.746 122.283 156.279 122.923 155.913 123.619C155.561 124.316 155.353 125.056 155.317 125.954C155.224 126.866 155.482 127.836 155.726 128.993C155.726 129 155.733 129.015 155.733 129.022C155.726 129.022 155.726 129.015 155.719 129.015C154.692 128.555 153.693 127.83 153.047 126.73C153.033 126.716 153.025 126.694 153.011 126.673C152.357 125.574 151.984 124.137 152.142 122.786C152.25 121.421 152.695 120.135 153.313 119.014C153.464 118.727 153.629 118.454 153.809 118.195C153.989 117.929 154.168 117.671 154.377 117.426C154.478 117.304 154.593 117.182 154.7 117.067C154.549 116.837 154.405 116.607 154.319 116.349C154.017 115.681 153.845 114.97 153.744 114.237C153.744 114.194 153.737 114.151 153.737 114.101C153.723 113.792 153.694 113.469 153.708 113.16C153.737 112.808 153.737 112.442 153.801 112.104C153.923 111.414 154.088 110.739 154.347 110.114C154.462 109.798 154.613 109.489 154.764 109.187C154.936 108.871 155.073 108.627 155.36 108.232L155.403 108.182C156.014 107.341 157.07 107.025 158.011 107.313H158.025C158.901 107.6 159.792 107.83 160.647 108.175C161.502 108.534 162.371 108.857 163.176 109.324C163.564 109.511 163.945 109.726 164.318 109.949C164.318 109.942 164.318 109.942 164.318 109.942C162.486 105.567 160.439 101.278 158.104 97.176C155.776 93.081 153.161 89.123 150.072 85.646C149.677 85.229 149.296 84.784 148.887 84.382L148.579 84.073ZM174.521 189.836C172.179 188.428 169.794 187.156 167.351 186.1C164.93 185.015 162.473 184.103 159.995 183.384C157.538 182.601 155.024 182.134 152.552 181.588L152.351 181.545C150.692 181.179 149.477 179.907 149.097 178.37C148.939 177.745 148.917 177.077 149.068 176.402C149.585 174.074 151.884 172.609 154.212 173.119C154.262 173.133 154.327 173.148 154.377 173.162C157.315 173.938 160.196 174.951 162.861 176.366C164.226 176.998 165.49 177.832 166.769 178.6C167.401 178.988 167.99 179.455 168.601 179.872L169.506 180.526L170.375 181.216C171.539 182.136 172.624 183.134 173.694 184.133C174.721 185.189 175.741 186.224 176.668 187.351C177.02 187.768 177.365 188.199 177.695 188.63C179.139 190.491 180.425 192.466 181.409 194.578C179.169 192.803 176.87 191.251 174.521 189.836ZM203.228 195.296C202.639 197.71 200.735 199.082 199.205 199.822C198.544 200.145 197.826 200.303 197.107 200.303C196.388 200.303 195.677 200.145 195.016 199.822C193.486 199.082 191.582 197.71 190.993 195.296H203.228ZM205.771 210.037C204.535 210.339 203.221 210.468 201.863 210.303C200.512 210.145 199.097 209.585 197.976 208.593C197.667 208.32 197.401 208.018 197.15 207.702C197.136 207.716 197.121 207.738 197.107 207.752C196.87 208.075 196.597 208.37 196.288 208.643C195.182 209.67 193.738 210.231 192.38 210.389C191.008 210.569 189.679 210.411 188.443 210.094C187.2 209.785 186.022 209.318 184.944 208.686C186.172 208.887 187.387 208.981 188.572 208.959C189.757 208.916 190.914 208.765 191.934 208.406C192.947 208.04 193.802 207.494 194.398 206.761C195.023 206.05 195.411 205.137 195.727 204.146L195.741 204.103C195.935 203.492 196.495 203.097 197.106 203.097C197.25 203.097 197.401 203.119 197.544 203.169C198.018 203.313 198.363 203.701 198.492 204.146C198.772 205.137 199.131 206.078 199.764 206.811C200.36 207.58 201.244 208.118 202.264 208.492C203.298 208.866 204.462 208.988 205.648 209.024C206.841 209.031 208.055 208.923 209.269 208.686C208.185 209.29 207.007 209.735 205.771 210.037ZM242.036 181.502C241.986 181.516 241.935 181.531 241.885 181.538L241.662 181.588C239.198 182.134 236.684 182.601 234.227 183.384C231.741 184.102 229.284 185.015 226.871 186.1C224.428 187.156 222.043 188.428 219.694 189.836C217.352 191.251 215.046 192.803 212.812 194.577C214.019 191.976 215.686 189.577 217.553 187.35C218.473 186.222 219.5 185.188 220.527 184.132C221.597 183.133 222.682 182.135 223.846 181.215L224.715 180.525L225.62 179.871C226.231 179.454 226.82 178.987 227.452 178.599C228.731 177.83 229.995 176.997 231.36 176.365C234.025 174.95 236.899 173.937 239.837 173.161C242.143 172.558 244.499 173.93 245.11 176.236C245.714 178.535 244.342 180.899 242.036 181.502ZM251.145 90C250.542 88.908 249.96 87.83 249.392 86.767C249.112 86.243 248.824 85.718 248.537 85.208C248.393 84.949 248.25 84.691 248.099 84.447C248.034 84.339 247.941 84.174 247.891 84.109C247.834 84.044 247.79 83.987 247.726 83.937C247.302 83.563 246.692 83.413 246.21 83.621C246.102 83.678 245.987 83.729 245.894 83.829C245.865 83.843 245.729 83.987 245.635 84.073L245.333 84.382C244.924 84.784 244.543 85.23 244.148 85.646C241.059 89.123 238.444 93.081 236.109 97.176C233.774 101.278 231.734 105.567 229.902 109.942C229.902 109.942 229.902 109.942 229.902 109.949C230.276 109.726 230.649 109.511 231.037 109.324C231.849 108.857 232.718 108.534 233.566 108.175C234.428 107.83 235.319 107.6 236.188 107.313H236.21C237.201 107.004 238.236 107.385 238.818 108.175L238.854 108.232C239.141 108.627 239.278 108.871 239.45 109.187C239.608 109.489 239.759 109.798 239.874 110.114C240.133 110.739 240.298 111.414 240.42 112.104C240.485 112.442 240.485 112.808 240.513 113.16C240.527 113.512 240.491 113.886 240.477 114.238C240.376 114.971 240.204 115.682 239.902 116.35C239.816 116.609 239.672 116.839 239.521 117.068C239.629 117.183 239.744 117.305 239.844 117.427C240.045 117.671 240.232 117.93 240.404 118.196C240.591 118.455 240.756 118.728 240.907 119.015C241.525 120.136 241.97 121.422 242.071 122.787C242.229 124.138 241.863 125.574 241.209 126.674C240.555 127.809 239.535 128.556 238.479 129.023C238.73 127.852 238.996 126.875 238.903 125.955C238.867 125.057 238.659 124.317 238.3 123.62C237.941 122.923 237.474 122.284 236.928 121.652C236.662 121.343 236.375 121.034 236.073 120.732L235.405 120.064C234.845 120.157 234.277 120.215 233.71 120.193C234.04 119.647 234.378 119.202 234.694 118.778L235.118 118.117C235.254 117.916 235.413 117.729 235.499 117.506C235.988 116.701 236.239 115.94 236.275 115.236C236.325 114.532 236.167 113.864 235.887 113.174C235.83 113.038 235.765 112.894 235.7 112.757C235.592 112.793 235.477 112.822 235.37 112.865C234.695 113.16 233.998 113.404 233.373 113.777C232.058 114.424 230.88 115.286 229.781 116.234C228.682 117.189 227.719 118.296 226.893 119.496C226.476 120.092 226.103 120.724 225.765 121.357C225.607 121.68 225.435 122.004 225.305 122.327C225.226 122.485 225.169 122.643 225.104 122.801C225.075 122.88 225.047 122.952 225.025 123.017C224.989 123.11 224.96 123.204 224.932 123.297L224.925 123.311L224.896 123.39C224.443 124.705 223.007 125.394 221.699 124.942C220.392 124.489 219.702 123.074 220.14 121.767L220.176 121.652L220.183 121.645C220.183 121.631 220.183 121.623 220.19 121.616L220.283 121.343C220.326 121.214 220.369 121.099 220.412 120.991C220.469 120.84 220.534 120.696 220.599 120.546C223.911 111.789 227.776 103.19 232.797 95.194C235.412 91.034 238.307 87.019 241.784 83.434C242.229 82.996 242.66 82.543 243.127 82.119L243.472 81.796C243.601 81.681 243.666 81.602 243.881 81.437C244.24 81.128 244.664 80.898 245.109 80.726C246 80.396 246.991 80.374 247.875 80.676C248.759 80.963 249.542 81.588 249.994 82.393C250.109 82.587 250.195 82.795 250.281 83.004C250.36 83.212 250.374 83.327 250.425 83.493C250.504 83.802 250.576 84.111 250.648 84.42C250.777 85.038 250.878 85.656 250.964 86.273C251.131 87.5 251.195 88.75 251.145 90Z" fill="url(#paint3_linear_1350_15451)"/>
<path d="M177.144 104.456C177.251 105.628 177.146 106.708 177.064 107.302C177.03 107.549 176.767 107.701 176.541 107.597C175.545 107.14 174.732 106.454 174.16 105.869C173.911 105.614 173.48 105.81 173.514 106.165C173.647 107.582 173.437 109.174 173.307 109.968C173.265 110.222 172.981 110.356 172.752 110.238C170.861 109.262 169.328 108.344 168.165 107.579C166.24 106.322 165.284 105.474 165.284 105.474C165.284 105.474 166.979 112.629 166.9 112.859C166.821 113.089 156.893 109.856 156.893 109.856C156.893 109.856 155.621 111.587 153.739 114.102C149.134 120.251 140.88 131.092 138.804 132.565C136.915 133.908 135.083 133.513 134.034 133.068C135.162 118.168 137.784 95.2232 143.826 78.9652C144.135 78.1242 144.458 77.2982 144.789 76.4942C145.158 75.5962 145.54 74.7182 145.936 73.8742C146.366 72.9572 147.146 72.2212 148.117 71.9332C149.03 71.6632 149.982 71.7682 150.802 72.2412C153.245 73.6492 156.535 75.8982 160.306 79.4112C161.305 80.3312 162.339 81.3512 163.409 82.4712C168.352 87.6512 173.869 94.9212 179.257 105.029C178.582 104.697 178.093 104.382 177.746 104.118C177.482 103.92 177.114 104.129 177.144 104.456Z" fill="#8E3410"/>
<path d="M217.072 104.456C216.965 105.628 217.07 106.708 217.152 107.302C217.186 107.549 217.449 107.701 217.675 107.597C218.671 107.14 219.484 106.454 220.056 105.869C220.305 105.614 220.736 105.81 220.702 106.165C220.569 107.582 220.779 109.174 220.909 109.968C220.951 110.222 221.235 110.356 221.464 110.238C223.355 109.262 224.888 108.344 226.051 107.579C227.976 106.322 228.932 105.474 228.932 105.474C228.932 105.474 227.237 112.629 227.316 112.859C227.395 113.089 237.323 109.856 237.323 109.856C237.323 109.856 238.595 111.587 240.477 114.102C245.082 120.251 253.336 131.092 255.412 132.565C257.301 133.908 259.133 133.513 260.182 133.068C259.054 118.168 256.432 95.2232 250.39 78.9652C250.081 78.1242 249.758 77.2982 249.427 76.4942C249.058 75.5962 248.676 74.7182 248.28 73.8742C247.85 72.9572 247.07 72.2212 246.099 71.9332C245.186 71.6632 244.234 71.7682 243.414 72.2412C240.971 73.6492 237.681 75.8982 233.91 79.4112C232.911 80.3312 231.877 81.3512 230.807 82.4712C225.864 87.6512 220.347 94.9212 214.959 105.029C215.634 104.697 216.123 104.382 216.47 104.118C216.733 103.92 217.101 104.129 217.072 104.456Z" fill="#8E3410"/>
<path d="M187.567 323.473C187.56 323.53 187.574 323.559 187.567 323.602C187.56 323.932 187.359 324.241 187.158 324.349C187.129 324.371 187.101 324.378 187.079 324.392C187.065 324.399 187.05 324.399 187.036 324.406C187.022 324.413 187.014 324.42 186.943 324.435L186.289 324.636L185.607 324.801L184.903 324.937C182.978 325.253 180.887 325.246 178.789 325.052C177.74 324.959 176.684 324.822 175.635 324.643C174.996 324.535 174.917 324.521 174.644 324.406C174.407 324.298 174.177 324.147 173.983 323.953C173.933 323.903 173.89 323.852 173.839 323.802C173.817 323.766 173.803 323.759 173.767 323.709L173.645 323.544L173.171 322.89L171.231 320.289C170.929 319.836 170.649 319.369 170.355 318.91C169.787 317.983 169.177 317.078 168.631 316.13L167.704 314.399C167.739 313.386 167.835 312.242 168.06 311.3C168.196 310.729 168.856 310.464 169.357 310.77C169.988 311.156 170.845 311.722 171.621 312.379C172.2 312.869 173.084 312.443 173.052 311.685C173.002 310.51 172.979 309.066 173.059 307.697C173.102 306.97 173.965 306.611 174.508 307.097C175.031 307.565 175.653 308.192 176.261 308.97C176.766 309.617 177.805 309.27 177.814 308.449C177.821 307.821 177.836 307.163 177.862 306.547C177.898 305.71 178.981 305.402 179.451 306.096C180.005 306.914 180.645 308.012 181.218 309.379C181.532 310.127 182.606 310.081 182.848 309.307C183.237 308.062 183.744 306.633 184.284 305.619C185.218 309.505 186.137 313.385 186.762 317.322C186.942 318.414 187.092 319.506 187.229 320.598L187.437 322.243L187.567 323.473Z" fill="#8E3410"/>
<path d="M206.648 323.473C206.655 323.53 206.641 323.559 206.648 323.602C206.655 323.932 206.856 324.241 207.057 324.349C207.086 324.371 207.114 324.378 207.136 324.392C207.15 324.399 207.165 324.399 207.179 324.406C207.193 324.413 207.201 324.42 207.272 324.435L207.926 324.636L208.608 324.801L209.312 324.937C211.237 325.253 213.328 325.246 215.426 325.052C216.475 324.959 217.531 324.822 218.58 324.643C219.219 324.535 219.298 324.521 219.571 324.406C219.808 324.298 220.038 324.147 220.232 323.953C220.282 323.903 220.325 323.852 220.376 323.802C220.398 323.766 220.412 323.759 220.448 323.709L220.57 323.544L221.044 322.89L222.984 320.289C223.286 319.836 223.566 319.369 223.86 318.91C224.428 317.983 225.038 317.078 225.584 316.13L226.511 314.399C226.476 313.386 226.38 312.242 226.155 311.3C226.019 310.729 225.359 310.464 224.858 310.77C224.227 311.156 223.37 311.722 222.594 312.379C222.015 312.869 221.131 312.443 221.163 311.685C221.213 310.51 221.236 309.066 221.156 307.697C221.113 306.97 220.25 306.611 219.707 307.097C219.184 307.565 218.562 308.192 217.954 308.97C217.449 309.617 216.41 309.27 216.401 308.449C216.394 307.821 216.379 307.163 216.353 306.547C216.317 305.71 215.234 305.402 214.764 306.096C214.21 306.914 213.57 308.012 212.997 309.379C212.683 310.127 211.609 310.081 211.367 309.307C210.978 308.062 210.471 306.633 209.931 305.619C208.997 309.505 208.078 313.385 207.453 317.322C207.273 318.414 207.123 319.506 206.986 320.598L206.778 322.243L206.648 323.473Z" fill="#8E3410"/>
<path d="M265.298 315.16C265.262 315.225 265.226 315.289 265.197 315.354C264.464 316.877 263.509 318.321 262.359 319.643C257.028 325.735 248.997 327.452 244.442 323.472C239.887 319.492 240.512 311.295 245.836 305.203C247.014 303.86 248.458 302.768 249.852 301.719C252.057 300.052 253.976 299.305 255.262 299.607C256.275 299.844 256.735 300.735 256.735 300.735C257.152 301.662 258.064 302.222 259.034 302.222C259.3 302.222 259.566 302.179 259.831 302.093C260.988 301.705 261.857 301.698 262.424 302.057C263.336 302.632 263.71 304.205 263.767 304.694C263.86 305.614 264.442 306.404 265.297 306.763C266.389 307.216 266.705 307.819 266.863 308.293C267.59 310.455 265.931 314.068 265.298 315.16Z" fill="#FFDAB6"/>
<path d="M149.779 323.472C147.66 325.318 144.693 326.001 141.41 325.376C137.904 324.715 134.513 322.675 131.862 319.643C130.705 318.321 129.75 316.877 129.024 315.354C128.995 315.289 128.959 315.225 128.923 315.167C128.284 314.068 126.624 310.454 127.35 308.292C127.508 307.818 127.831 307.214 128.923 306.762C129.771 306.403 130.36 305.613 130.453 304.693C130.489 304.319 130.848 302.667 131.782 302.064C132.062 301.884 132.407 301.791 132.831 301.791C133.269 301.791 133.794 301.892 134.39 302.093C135.618 302.51 136.933 301.964 137.458 300.778C137.48 300.742 137.939 299.844 138.959 299.607C140.245 299.305 142.163 300.052 144.369 301.719C145.763 302.768 147.207 303.86 148.385 305.203C151.036 308.235 152.602 311.87 152.789 315.433C152.969 318.767 151.898 321.619 149.779 323.472Z" fill="#FFDAB6"/>
<path d="M248.458 237.917C248.199 237.421 248.084 237.019 248.034 236.832C248.02 236.76 248.012 236.681 247.998 236.609H247.991C247.79 235.366 246.698 234.454 245.434 234.49C244.127 234.533 243.07 235.568 243.006 236.868C242.367 248.908 235.923 259.691 232.798 264.253C232.001 263.111 231.807 262.213 231.799 262.177C231.605 261.056 230.685 260.209 229.55 260.101C228.415 260 227.352 260.669 226.964 261.739C220.75 278.643 201.849 289.555 197.107 292.07C192.373 289.556 173.472 278.643 167.258 261.739C166.863 260.669 165.8 260 164.672 260.101C163.537 260.209 162.617 261.056 162.416 262.177C162.416 262.191 162.222 263.104 161.417 264.253C158.292 259.691 151.855 248.908 151.216 236.868C151.144 235.568 150.088 234.533 148.781 234.49C147.545 234.447 146.432 235.366 146.231 236.609H146.224C146.21 236.681 146.195 236.76 146.181 236.832C146.138 237.019 146.023 237.414 145.772 237.895C144.184 234.073 142.539 227.018 147.834 220.438C158.89 206.939 181.326 219.885 190.967 226.487C191.786 227.04 192.512 227.557 193.129 228.003C192.82 228.283 192.518 228.563 192.209 228.851C191.146 229.857 190.097 230.884 189.091 231.969C188.078 233.061 187.087 234.167 186.167 235.381C185.24 236.595 184.349 237.874 183.588 239.347C183.452 239.548 183.358 239.771 183.308 240.001C183.272 240.137 183.251 240.281 183.251 240.425C183.244 240.482 183.244 240.511 183.244 240.511C183.244 240.971 183.388 241.423 183.689 241.811L183.919 242.106C184.307 242.602 184.587 242.896 184.946 243.248C185.284 243.578 185.65 243.887 186.024 244.175C186.764 244.764 187.59 245.26 188.452 245.684C190.176 246.532 192.188 247.006 194.17 246.898C196.146 246.783 198.085 246.172 199.551 245.045L200.104 244.643C200.276 244.492 200.434 244.334 200.6 244.176C200.923 243.874 201.225 243.537 201.52 243.221C202.073 242.531 202.526 241.777 202.921 241.016C202.066 241.275 201.326 241.612 200.572 241.871C200.191 241.986 199.803 242.079 199.444 242.201C199.264 242.251 199.092 242.316 198.912 242.366L198.359 242.452C198 242.509 197.655 242.588 197.31 242.639C196.958 242.646 196.62 242.675 196.29 242.696C195.96 242.753 195.629 242.66 195.306 242.66L194.832 242.638L194.365 242.53C193.122 242.3 191.966 241.819 190.845 241.151C190.292 240.806 189.739 240.454 189.214 240.037C189.171 240.008 189.128 239.965 189.085 239.936C189.415 239.44 189.775 238.945 190.148 238.456C190.938 237.407 191.843 236.401 192.763 235.41C193.683 234.411 194.66 233.456 195.658 232.515C196.649 231.581 197.698 230.64 198.704 229.799C199.228 229.375 232.189 203.103 246.391 220.438C251.727 227.077 250.067 234.11 248.458 237.917Z" fill="#FFDAB6"/>
<path d="M164.319 109.943C164.319 109.943 164.319 109.943 164.319 109.95C163.945 109.727 163.565 109.512 163.177 109.325C162.372 108.858 161.503 108.535 160.648 108.176C159.793 107.831 158.902 107.601 158.026 107.314H158.012C157.071 107.027 156.015 107.343 155.404 108.183L155.361 108.233C155.074 108.628 154.937 108.872 154.765 109.188C154.614 109.49 154.463 109.799 154.348 110.115C154.089 110.74 153.924 111.415 153.802 112.105C153.737 112.443 153.737 112.809 153.709 113.161C153.695 113.513 153.731 113.887 153.745 114.239C153.846 114.972 154.018 115.683 154.32 116.351C154.406 116.61 154.55 116.84 154.701 117.069C154.593 117.184 154.478 117.306 154.378 117.428C154.17 117.672 153.99 117.931 153.81 118.197C153.63 118.456 153.465 118.729 153.314 119.016C152.696 120.137 152.251 121.423 152.143 122.788C151.985 124.139 152.359 125.575 153.012 126.675C153.659 127.803 154.679 128.55 155.72 129.017C155.727 129.024 155.734 129.024 155.734 129.024C143.342 134.448 136.876 145.109 136.876 145.109C137.487 119.771 140.432 102.343 142.034 94.5766C142.034 94.5766 142.034 94.5696 142.041 94.5696C142.659 91.5596 143.075 90.0006 143.075 90.0006C143.678 88.9086 144.26 87.8306 144.821 86.7676C145.108 86.2436 145.389 85.7186 145.683 85.2086C145.827 84.9496 145.963 84.6916 146.114 84.4476C146.186 84.3396 146.272 84.1746 146.33 84.1096C146.387 84.0446 146.431 83.9876 146.488 83.9376C146.919 83.5636 147.53 83.4136 148.004 83.6216C148.119 83.6786 148.234 83.7296 148.327 83.8296C148.349 83.8436 148.485 83.9876 148.578 84.0736L148.887 84.3826C149.296 84.7846 149.677 85.2306 150.072 85.6466C153.161 89.1236 155.776 93.0816 158.104 97.1766C160.44 101.279 162.488 105.568 164.319 109.943Z" fill="#FFDAB6"/>
<path d="M238.48 129.024C250.872 134.448 257.338 145.109 257.338 145.109C256.49 109.936 251.138 90.0006 251.138 90.0006C250.535 88.9086 249.953 87.8306 249.392 86.7676C249.105 86.2436 248.824 85.7186 248.53 85.2086C248.386 84.9496 248.25 84.6916 248.099 84.4476C248.027 84.3396 247.941 84.1746 247.883 84.1096C247.826 84.0446 247.782 83.9876 247.725 83.9376C247.294 83.5636 246.683 83.4136 246.209 83.6216C246.094 83.6786 245.979 83.7296 245.886 83.8296C245.864 83.8436 245.728 83.9876 245.635 84.0736L245.326 84.3826C244.917 84.7846 244.536 85.2306 244.141 85.6466C241.052 89.1236 238.437 93.0816 236.109 97.1766C233.774 101.279 231.727 105.568 229.895 109.943C229.895 109.943 229.895 109.943 229.895 109.95C230.269 109.727 230.649 109.512 231.037 109.325C231.842 108.858 232.711 108.535 233.566 108.176C234.421 107.831 235.312 107.601 236.188 107.314H236.202C237.143 107.027 238.199 107.343 238.81 108.183L238.853 108.233C239.14 108.628 239.277 108.872 239.449 109.188C239.6 109.49 239.751 109.799 239.866 110.115C240.125 110.74 240.29 111.415 240.412 112.105C240.477 112.443 240.477 112.809 240.505 113.161C240.519 113.513 240.483 113.887 240.469 114.239C240.368 114.972 240.196 115.683 239.894 116.351C239.808 116.61 239.664 116.84 239.513 117.069C239.621 117.184 239.736 117.306 239.836 117.428C240.044 117.672 240.224 117.931 240.404 118.197C240.584 118.456 240.749 118.729 240.9 119.016C241.518 120.137 241.963 121.423 242.071 122.788C242.229 124.139 241.855 125.575 241.202 126.675C240.556 127.809 239.528 128.557 238.48 129.024Z" fill="#FFDAB6"/>
<path d="M268.279 195.856C267.201 198.78 257.762 207.817 248.581 215.396C232.625 199.721 204.191 219.34 197.108 224.67C190.025 219.34 161.59 199.72 145.635 215.396C136.461 207.824 127.028 198.794 125.944 195.863C125.937 195.856 125.937 195.856 125.937 195.856C126.368 194.8 127.13 193.471 127.79 193.105C128.551 192.688 129.033 191.891 129.076 191.022C129.112 190.153 128.695 189.319 127.97 188.824C127.237 188.321 125.47 186.741 125.025 184.844C125.32 184.571 125.722 184.255 126.225 183.96C127.18 183.392 127.748 182.545 128.373 179.413C131.333 177.61 137.367 175.886 149.099 178.371C156.29 179.887 165.622 182.99 177.698 188.63C181.8 190.548 186.225 192.754 190.995 195.297L197.109 197.797L203.223 195.297C207.993 192.754 212.418 190.548 216.521 188.63C228.597 182.991 237.929 179.887 245.12 178.371C256.851 175.885 262.886 177.61 265.846 179.413C266.471 182.545 267.039 183.393 267.994 183.96C268.497 184.255 268.899 184.571 269.194 184.844C268.749 186.741 266.981 188.321 266.249 188.824C265.523 189.32 265.107 190.153 265.143 191.022C265.186 191.891 265.667 192.689 266.429 193.105C267.086 193.471 267.848 194.8 268.279 195.856Z" fill="#FFDAB6"/>
<path d="M303.848 262.652C303.826 262.709 303.812 262.738 303.812 262.738C300.673 251.495 291.836 248.564 287.655 247.81C282.806 246.926 277.755 247.602 273.74 249.347C274.229 246.193 274.99 243.248 275.672 241.006C275.995 239.936 274.76 239.109 273.876 239.799C270.543 242.385 267.159 243.614 265.176 244.16C264.35 244.39 263.56 243.657 263.754 242.824C264.875 238.04 267.54 233.075 269.738 229.548C270.37 228.535 269.206 227.371 268.179 227.989C264.989 229.921 262.159 231.229 260.485 231.94C259.716 232.263 258.854 231.689 258.905 230.855C259.178 226.279 261.125 221.868 262.914 218.707C263.489 217.694 262.346 216.595 261.341 217.184C260.292 217.809 259.337 218.326 258.604 218.714C257.85 219.102 256.952 218.57 256.937 217.723C256.923 216.667 257.059 215.604 257.296 214.569C258.553 213.463 259.889 212.27 261.226 211.049C262.684 209.706 263.97 208.484 265.105 207.378C267.081 205.424 268.596 203.8 269.753 202.435C270.852 201.135 271.635 200.057 272.181 199.152C273.108 197.615 273.366 196.58 273.402 195.754C273.409 195.495 273.373 195.244 273.309 195C281.865 195.065 287.943 197.751 290.974 199.49C289.674 200.237 287.849 200.733 286.556 200.877C285.464 200.992 284.58 201.804 284.358 202.874C284.136 203.944 284.638 205.036 285.586 205.568C297.978 212.536 305.543 221.538 308.086 232.328C310.866 244.131 307.045 255.719 303.848 262.652Z" fill="#FFDAB6"/>
<path d="M161.727 169.594C164.053 170.78 169.193 173.548 173.239 176.785C174.224 177.573 175.613 176.546 175.129 175.381C172.512 169.073 167.279 159.832 161.313 167.766C160.856 168.374 161.049 169.248 161.727 169.594Z" fill="#FFDAB6"/>
<path d="M232.488 169.594C230.162 170.78 225.022 173.548 220.976 176.785C219.991 177.573 218.602 176.546 219.086 175.381C221.703 169.073 226.936 159.832 232.902 167.766C233.358 168.374 233.166 169.248 232.488 169.594Z" fill="#FFDAB6"/>
<path d="M146.741 318.826C148.453 316.444 147.91 313.126 145.528 311.414C143.146 309.702 139.828 310.245 138.116 312.627C136.404 315.009 136.947 318.327 139.329 320.039C141.711 321.751 145.029 321.208 146.741 318.826Z" fill="#FF80B4"/>
<path d="M132.801 315.666C134.253 315.666 135.43 314.489 135.43 313.037C135.43 311.585 134.253 310.408 132.801 310.408C131.349 310.408 130.172 311.585 130.172 313.037C130.172 314.489 131.349 315.666 132.801 315.666Z" fill="#FF80B4"/>
<path d="M135.43 309.815C136.882 309.815 138.059 308.638 138.059 307.186C138.059 305.734 136.882 304.557 135.43 304.557C133.978 304.557 132.801 305.734 132.801 307.186C132.801 308.638 133.978 309.815 135.43 309.815Z" fill="#FF80B4"/>
<path d="M141.953 309.238C143.405 309.238 144.582 308.061 144.582 306.609C144.582 305.157 143.405 303.98 141.953 303.98C140.501 303.98 139.324 305.157 139.324 306.609C139.324 308.061 140.502 309.238 141.953 309.238Z" fill="#FF80B4"/>
<path d="M252.634 320.96C255.529 320.49 257.495 317.762 257.025 314.867C256.555 311.972 253.827 310.005 250.932 310.475C248.037 310.945 246.07 313.673 246.54 316.569C247.01 319.464 249.738 321.43 252.634 320.96Z" fill="#FF80B4"/>
<path d="M261.415 315.666C262.867 315.666 264.044 314.489 264.044 313.037C264.044 311.585 262.867 310.408 261.415 310.408C259.963 310.408 258.786 311.585 258.786 313.037C258.786 314.489 259.963 315.666 261.415 315.666Z" fill="#FF80B4"/>
<path d="M258.786 309.815C260.238 309.815 261.415 308.638 261.415 307.186C261.415 305.734 260.238 304.557 258.786 304.557C257.334 304.557 256.157 305.734 256.157 307.186C256.157 308.638 257.334 309.815 258.786 309.815Z" fill="#FF80B4"/>
<path d="M252.263 309.238C253.715 309.238 254.892 308.061 254.892 306.609C254.892 305.157 253.715 303.98 252.263 303.98C250.811 303.98 249.634 305.157 249.634 306.609C249.634 308.061 250.811 309.238 252.263 309.238Z" fill="#FF80B4"/>
<path d="M312.993 231.216C310.479 220.505 303.733 211.424 292.907 204.168C294.646 203.27 296.305 201.934 297.117 199.937C297.526 198.924 297.239 197.76 296.391 197.056C296.01 196.74 287.325 189.692 272.152 189.98C273.301 188.457 274.329 186.431 274.329 183.981C274.329 183.457 274.164 182.947 273.855 182.523C273.747 182.365 272.835 181.129 271.139 179.994C270.528 178.062 269.666 171.287 269.02 166.244C268.093 158.995 267.138 151.502 266.003 147.566C265.888 142.746 264.473 96.5963 252.806 71.6603C251.8 69.5123 249.925 67.8673 247.662 67.1563C245.413 66.4453 242.957 66.7113 240.909 67.8823C233.797 71.9773 221.225 81.8763 209.573 104.484C208.876 104.139 208.158 103.837 207.396 103.6C206.534 103.334 205.629 103.14 204.702 103.047C203.603 102.968 203.236 102.982 202.532 102.896C201.225 102.716 199.831 102.379 198.452 101.976C197.08 101.567 195.657 101.085 194.35 100.575L194.307 100.553C193.89 100.395 193.409 100.359 192.892 100.503C192.131 100.711 191.599 101.408 191.484 102.184V102.191C191.419 102.586 191.362 102.981 191.333 103.384C191.326 103.793 191.304 104.203 191.333 104.62C191.383 105.446 191.534 106.287 191.8 107.106C191.972 107.602 192.188 108.09 192.447 108.557L191.9 108.499C190.593 108.334 189.285 108.204 187.999 107.989C187.417 107.896 186.835 107.802 186.26 107.702C174.047 82.5373 160.383 71.9553 153.307 67.8813C151.267 66.7103 148.803 66.4443 146.561 67.1553C144.298 67.8663 142.423 69.5113 141.417 71.6593C129.75 96.5953 128.335 142.752 128.213 147.565C127.085 151.502 126.13 158.987 125.203 166.243C124.556 171.279 123.694 178.061 123.084 179.993C121.389 181.128 120.469 182.371 120.361 182.522C120.059 182.946 119.894 183.456 119.894 183.98C119.894 187.012 121.467 189.425 122.897 190.984C121.719 192.6 121.101 194.382 120.943 194.871C120.85 195.158 120.807 195.453 120.821 195.755C120.914 197.874 122.437 201.344 132.998 211.05C136.669 214.419 140.347 217.53 142.474 219.297C136.411 228.773 140.067 239.168 143.077 243.586C143.515 244.233 144.205 244.599 144.93 244.664C144.664 246.589 144.427 248.515 144.212 250.447C143.709 255.073 143.336 259.714 143.127 264.377C143.012 266.705 142.955 269.039 142.911 271.374C142.911 271.64 142.918 271.913 142.918 272.186C140.195 273.407 132.781 277.323 129.915 284.65C128.37 288.608 128.392 292.868 129.972 297.344C129.627 297.495 129.318 297.667 129.052 297.84C127.012 299.162 126.107 301.324 125.726 302.768C124.21 303.709 123.133 305.045 122.579 306.705C121.07 311.231 123.965 316.633 124.526 317.61C125.453 319.514 126.638 321.31 128.075 322.955C131.466 326.827 135.87 329.449 140.475 330.319C141.589 330.535 142.688 330.635 143.758 330.635C147.314 330.635 150.547 329.478 153.09 327.259C154.397 326.11 155.454 324.737 156.229 323.2C158.758 324.17 163.219 325.643 169.828 326.993L169.921 327.108C170.057 327.273 170.201 327.431 170.352 327.582C170.955 328.193 171.667 328.703 172.457 329.076C172.859 329.263 173.269 329.414 173.693 329.529C174.182 329.651 174.426 329.68 174.727 329.745C175.912 329.961 177.105 330.133 178.312 330.248C180.733 330.456 183.204 330.485 185.762 330.061L186.725 329.874L187.695 329.623L188.658 329.307C188.723 329.285 188.852 329.242 188.967 329.192C189.082 329.142 189.204 329.091 189.312 329.034C189.542 328.919 189.765 328.797 189.973 328.653C190.72 328.164 191.316 327.511 191.762 326.771C193.235 327.001 195.239 327.245 197.107 327.245C198.982 327.245 200.986 327.001 202.459 326.771C202.904 327.511 203.501 328.165 204.248 328.653C204.456 328.797 204.679 328.919 204.902 329.034C205.017 329.091 205.132 329.142 205.254 329.192C205.369 329.242 205.491 329.285 205.556 329.307L206.526 329.623L207.489 329.874L208.452 330.061C211.009 330.485 213.488 330.456 215.909 330.248C217.116 330.133 218.308 329.961 219.494 329.745C219.796 329.68 220.04 329.652 220.521 329.529C220.952 329.414 221.362 329.263 221.757 329.076C222.547 328.702 223.266 328.192 223.869 327.582C224.02 327.431 224.164 327.273 224.3 327.108L224.393 326.993C231.009 325.635 235.478 324.17 238.007 323.193C238.768 324.723 239.81 326.102 241.132 327.259C243.718 329.522 247.001 330.607 250.471 330.607C255.902 330.607 261.779 327.942 266.146 322.956C267.576 321.311 268.768 319.515 269.688 317.611C270.248 316.634 273.143 311.232 271.642 306.706C271.089 305.047 270.011 303.71 268.495 302.769C268.107 301.325 267.209 299.163 265.162 297.841C264.896 297.669 264.594 297.496 264.242 297.345C265.83 292.869 265.851 288.609 264.299 284.651C262.28 279.486 257.999 276.016 254.694 273.983C259.845 270.808 268.286 264.766 271.131 257.833C272.532 254.428 279.658 251.468 286.756 252.754C291.483 253.616 299.486 257.086 299.895 270.649C299.924 271.741 300.656 272.682 301.705 272.991C302.747 273.293 303.875 272.89 304.485 271.992C305.033 271.18 317.871 251.999 312.993 231.216ZM125.936 195.856C126.367 194.8 127.129 193.471 127.789 193.105C128.55 192.688 129.032 191.891 129.075 191.022C129.111 190.153 128.694 189.319 127.969 188.824C127.236 188.321 125.469 186.741 125.024 184.844C125.319 184.571 125.721 184.255 126.224 183.96C126.296 183.917 126.368 183.874 126.432 183.831C126.475 183.795 126.518 183.766 126.561 183.73C126.618 183.687 126.669 183.644 126.719 183.601C127.136 183.235 127.473 182.696 127.789 181.74C127.832 181.618 127.868 181.496 127.904 181.366C128.141 180.569 128.364 179.527 128.615 178.126C128.644 177.954 128.672 177.781 128.701 177.602C128.744 177.307 128.794 176.991 128.852 176.668C128.866 176.56 128.881 176.452 128.902 176.345C129.053 175.354 129.218 174.219 129.391 172.925C129.427 172.674 129.463 172.422 129.499 172.156C129.521 171.984 129.542 171.811 129.571 171.632C129.636 171.151 129.7 170.655 129.765 170.131C129.822 169.7 129.88 169.255 129.945 168.788C129.995 168.379 130.046 167.962 130.103 167.531C130.132 167.315 130.16 167.1 130.189 166.877C131.073 159.959 132.071 152.114 133.127 148.701C133.192 148.478 133.235 148.241 133.235 148.011C133.235 147.982 133.242 147.788 133.249 147.443C133.256 147.314 133.256 147.163 133.263 146.99C133.27 146.767 133.277 146.501 133.292 146.2C133.299 145.992 133.306 145.769 133.321 145.525C133.314 145.511 133.321 145.489 133.321 145.475C133.321 145.36 133.328 145.245 133.335 145.13C133.349 144.785 133.364 144.412 133.378 144.009C133.385 143.901 133.385 143.793 133.392 143.686C133.399 143.55 133.406 143.413 133.414 143.269C133.414 143.183 133.421 143.089 133.428 142.996C133.435 142.73 133.45 142.464 133.464 142.184C133.486 141.832 133.5 141.458 133.521 141.078C133.528 140.942 133.535 140.805 133.543 140.661C133.6 139.677 133.658 138.599 133.73 137.457C133.752 137.184 133.766 136.904 133.787 136.624C133.844 135.748 133.909 134.835 133.974 133.88C133.988 133.614 134.01 133.341 134.031 133.068C134.06 132.781 134.081 132.5 134.096 132.206C134.132 131.832 134.161 131.452 134.189 131.071C134.397 128.557 134.642 125.848 134.929 123.011C135.008 122.221 135.094 121.423 135.188 120.619C135.195 120.533 135.202 120.447 135.217 120.353C135.267 119.879 135.325 119.398 135.382 118.916C135.461 118.212 135.547 117.508 135.633 116.797C135.69 116.352 135.748 115.899 135.805 115.446C135.877 114.864 135.956 114.275 136.035 113.686C136.107 113.14 136.179 112.594 136.258 112.048C136.323 111.581 136.387 111.107 136.459 110.633C136.524 110.159 136.595 109.685 136.667 109.211C136.803 108.313 136.94 107.422 137.084 106.524C137.091 106.459 137.106 106.402 137.113 106.344C137.206 105.798 137.293 105.259 137.386 104.72C137.451 104.303 137.522 103.887 137.602 103.47C137.667 103.075 137.738 102.68 137.81 102.292C138.097 100.69 138.399 99.0883 138.73 97.5073C138.845 96.9323 138.967 96.3723 139.082 95.8043C139.276 94.8923 139.477 93.9943 139.693 93.0963C139.88 92.2913 140.067 91.4943 140.268 90.7113C140.304 90.5463 140.34 90.3883 140.39 90.2303C140.512 89.7203 140.641 89.2243 140.778 88.7213C140.929 88.1463 141.08 87.5793 141.238 87.0183L141.346 86.6303C141.626 85.6393 141.914 84.6623 142.215 83.7063C142.395 83.1243 142.574 82.5573 142.768 81.9893C142.926 81.4933 143.098 80.9983 143.271 80.5093C143.451 79.9853 143.637 79.4753 143.824 78.9643C144.133 78.1233 144.456 77.2973 144.787 76.4933C145.153 75.5953 145.541 74.7193 145.936 73.8713C146.259 73.1893 146.769 72.6073 147.409 72.2333C147.632 72.1113 147.862 72.0033 148.113 71.9313C148.271 71.8813 148.436 71.8453 148.594 71.8233C149.212 71.7303 149.83 71.8013 150.397 72.0393C150.533 72.0963 150.67 72.1683 150.799 72.2403C153.242 73.6483 156.532 75.8973 160.303 79.4103C161.302 80.3303 162.336 81.3503 163.406 82.4703C166.186 85.3873 169.146 88.9643 172.17 93.3323C172.601 93.9573 173.039 94.6043 173.477 95.2723C173.879 95.8833 174.289 96.5153 174.691 97.1543C175.021 97.6713 175.345 98.1963 175.668 98.7343C175.682 98.7563 175.697 98.7703 175.704 98.7913C176.042 99.3513 176.386 99.9123 176.724 100.494C177.78 102.304 178.843 104.222 179.899 106.248C179.217 106.334 178.62 106.787 178.383 107.476L178.203 107.993C178.002 108.611 177.916 109.236 177.916 109.854C177.916 111.327 178.39 112.799 178.879 114.222C179.612 116.248 180.725 118.231 182.356 119.782C183.987 121.319 186.106 122.282 188.189 122.519C189.223 122.663 190.265 122.612 191.264 122.476C192.263 122.34 193.24 122.095 194.145 121.707C192.191 121.836 190.258 121.599 188.57 120.924C186.882 120.277 185.495 119.193 184.547 117.821C183.584 116.463 183.06 114.832 182.729 113.144C182.657 112.713 182.6 112.275 182.542 111.851C182.506 111.42 182.47 110.996 182.427 110.565C182.779 110.644 183.131 110.723 183.483 110.788C184.869 111.032 186.249 111.212 187.621 111.305C189 111.398 190.372 111.449 191.737 111.441L193.784 111.398C195.012 111.326 196.068 110.5 196.435 109.322C196.457 109.257 196.442 108.877 196.399 108.762L196.255 108.388C196.154 108.129 196.068 107.885 195.982 107.627C195.824 107.131 195.68 106.628 195.608 106.104C195.579 105.917 195.565 105.723 195.551 105.536C196.061 105.73 196.578 105.931 197.11 106.118C198.604 106.635 200.134 107.102 201.808 107.418C202.598 107.569 203.74 107.648 204.15 107.705C204.725 107.791 205.299 107.942 205.867 108.15C206.384 108.344 206.901 108.588 207.397 108.876C206.521 110.729 205.924 112.763 205.271 114.846C204.574 117.073 205.702 119.465 207.864 120.335C214.157 104.688 221.075 93.7973 227.404 86.2543C233.733 78.7043 239.473 74.5083 243.41 72.2383C244.251 71.7573 245.22 71.6563 246.133 71.9433C246.255 71.9793 246.377 72.0223 246.492 72.0793C247.182 72.3813 247.749 72.9273 248.13 73.5803C248.187 73.6883 248.252 73.8033 248.302 73.9183C248.482 74.3063 248.661 74.7013 248.834 75.0963C249.366 76.3033 249.868 77.5533 250.35 78.8463C250.508 79.2773 250.666 79.7083 250.824 80.1463C251.133 81.0223 251.435 81.9203 251.729 82.8333C252.009 83.7023 252.282 84.5863 252.548 85.4843C253.784 89.7233 254.847 94.2413 255.752 98.8253C255.831 99.1993 255.903 99.5653 255.975 99.9393C256.018 100.162 256.054 100.384 256.097 100.607C256.277 101.548 256.449 102.489 256.614 103.43C256.794 104.493 256.973 105.556 257.146 106.62C257.469 108.624 257.764 110.629 258.037 112.611C258.181 113.645 258.317 114.68 258.446 115.707C258.719 117.855 258.956 119.967 259.179 122.015C259.186 122.13 259.201 122.245 259.215 122.36C259.258 122.755 259.301 123.157 259.337 123.553C259.387 124.042 259.438 124.53 259.481 125.011C259.524 125.442 259.567 125.873 259.603 126.297C259.739 127.727 259.862 129.106 259.969 130.442C260.005 130.916 260.048 131.376 260.084 131.836C260.12 132.325 260.156 132.806 260.192 133.28C260.206 133.474 260.221 133.668 260.235 133.862C260.257 134.142 260.278 134.422 260.292 134.703C260.314 134.933 260.328 135.156 260.342 135.378C260.392 136.06 260.435 136.714 260.471 137.346C260.493 137.605 260.507 137.856 260.521 138.1C260.578 139.02 260.629 139.889 260.672 140.701C260.686 140.952 260.694 141.19 260.708 141.427C260.715 141.607 260.73 141.786 260.737 141.959C260.751 142.21 260.759 142.455 260.773 142.692C260.931 145.961 260.974 147.915 260.974 148.008C260.981 148.238 261.017 148.475 261.089 148.698C262.138 152.118 263.144 159.955 264.027 166.881C265.83 181.033 266.276 182.952 267.993 183.957C268.496 184.252 268.898 184.575 269.186 184.841C268.748 186.738 266.981 188.318 266.255 188.814C265.522 189.303 265.098 190.136 265.134 191.012C265.17 191.888 265.658 192.679 266.427 193.103C267.081 193.469 267.835 194.777 268.273 195.84C267.145 198.821 257.741 207.837 248.582 215.395C232.626 199.72 204.192 219.339 197.102 224.669C190.019 219.339 161.584 199.719 145.629 215.395C136.454 207.817 127.014 198.78 125.936 195.856ZM147.833 220.44C159.83 205.792 185.218 222.279 193.128 228.005C192.819 228.285 192.517 228.565 192.208 228.853C191.145 229.859 190.096 230.886 189.09 231.971C188.077 233.063 187.086 234.169 186.166 235.383C185.239 236.597 184.348 237.876 183.587 239.349C183.357 239.694 183.242 240.103 183.242 240.513C183.242 240.973 183.386 241.425 183.687 241.813L183.917 242.108C184.305 242.604 184.585 242.898 184.944 243.25C185.282 243.58 185.648 243.889 186.022 244.177C186.762 244.766 187.588 245.262 188.45 245.686C190.174 246.534 192.186 247.008 194.168 246.9C196.144 246.785 198.083 246.174 199.549 245.047L200.102 244.645C200.274 244.494 200.432 244.336 200.598 244.178C200.921 243.876 201.223 243.539 201.518 243.223C202.071 242.533 202.524 241.779 202.919 241.018C202.064 241.277 201.324 241.614 200.57 241.873C200.189 241.988 199.801 242.081 199.442 242.203C199.262 242.253 199.09 242.318 198.91 242.368L198.357 242.454C197.998 242.511 197.653 242.59 197.308 242.641C196.956 242.648 196.618 242.677 196.288 242.698C195.958 242.755 195.627 242.662 195.304 242.662L194.83 242.64L194.363 242.532C193.12 242.302 191.964 241.821 190.843 241.153C190.29 240.808 189.737 240.456 189.212 240.039C189.169 240.01 189.126 239.967 189.083 239.938C189.413 239.442 189.773 238.947 190.146 238.458C190.936 237.409 191.841 236.403 192.761 235.412C193.681 234.413 194.658 233.458 195.656 232.517C196.647 231.583 197.696 230.642 198.702 229.801C199.226 229.377 232.187 203.105 246.389 220.44C251.727 227.078 250.067 234.111 248.458 237.919C248.199 237.423 248.084 237.021 248.034 236.834C248.02 236.762 248.012 236.683 247.998 236.611H247.991C247.79 235.368 246.698 234.456 245.434 234.492C244.127 234.535 243.07 235.57 243.006 236.87C242.367 248.91 235.923 259.693 232.798 264.255C232.001 263.113 231.807 262.215 231.799 262.179C231.605 261.058 230.685 260.211 229.55 260.103C228.415 260.002 227.352 260.671 226.964 261.741C220.75 278.645 201.849 289.557 197.107 292.072C192.373 289.558 173.472 278.645 167.258 261.741C166.863 260.671 165.8 260.002 164.672 260.103C163.537 260.211 162.617 261.058 162.416 262.179C162.416 262.193 162.222 263.106 161.417 264.255C158.292 259.693 151.855 248.91 151.216 236.87C151.144 235.57 150.088 234.535 148.781 234.492C147.545 234.449 146.432 235.368 146.231 236.611H146.224C146.21 236.683 146.195 236.762 146.181 236.834C146.138 237.021 146.023 237.416 145.772 237.897C144.184 234.075 142.539 227.02 147.833 220.44ZM149.78 323.472C147.661 325.318 144.694 326.001 141.411 325.376C137.905 324.715 134.514 322.675 131.863 319.643C130.706 318.321 129.751 316.877 129.025 315.354C128.996 315.289 128.96 315.225 128.924 315.167C128.285 314.068 126.625 310.454 127.351 308.292C127.509 307.818 127.832 307.214 128.924 306.762C129.772 306.403 130.361 305.613 130.454 304.693C130.49 304.319 130.849 302.667 131.783 302.064C132.063 301.884 132.408 301.791 132.832 301.791C133.27 301.791 133.795 301.892 134.391 302.093C135.619 302.51 136.934 301.964 137.459 300.778C137.481 300.742 137.94 299.844 138.96 299.607C140.246 299.305 142.164 300.052 144.37 301.719C145.764 302.768 147.208 303.86 148.386 305.203C151.037 308.235 152.603 311.87 152.79 315.433C152.97 318.767 151.899 321.619 149.78 323.472ZM262.425 302.057C263.337 302.632 263.711 304.205 263.768 304.694C263.861 305.614 264.443 306.404 265.298 306.763C266.39 307.216 266.706 307.819 266.864 308.293C267.59 310.455 265.93 314.069 265.298 315.161C265.262 315.226 265.226 315.29 265.197 315.355C264.464 316.878 263.509 318.322 262.359 319.644C257.028 325.736 248.997 327.453 244.442 323.473C239.887 319.493 240.512 311.296 245.836 305.204C247.014 303.861 248.458 302.769 249.852 301.72C252.057 300.053 253.976 299.306 255.262 299.608C256.275 299.845 256.735 300.736 256.735 300.736C257.152 301.663 258.064 302.223 259.034 302.223C259.3 302.223 259.566 302.18 259.831 302.094C260.988 301.705 261.857 301.698 262.425 302.057ZM259.616 286.482C260.765 289.399 260.658 292.646 259.321 296.144C258.617 295.569 257.712 295.045 256.57 294.743C253.689 294.003 250.406 294.994 246.821 297.703C245.298 298.852 243.567 300.153 242.051 301.891C237.712 306.855 235.858 312.997 236.555 318.364C234.996 318.982 232.309 319.923 228.387 320.921C228.868 320.102 229.357 319.283 229.795 318.435L231.347 315.288L231.735 314.498L232.073 313.693L232.755 312.084C233.208 311.006 233.653 309.929 234.012 308.83C234.393 307.731 234.795 306.646 235.154 305.54L236.16 302.221C237.396 297.767 238.473 293.284 239.105 288.729C239.227 287.587 239.392 286.452 239.486 285.309C239.551 284.152 239.666 283.017 239.68 281.861C239.745 279.569 239.694 277.256 239.393 274.957C238.15 279.404 237.065 283.772 235.959 288.125C234.86 292.471 233.739 296.796 232.295 301.006C230.887 305.23 229.091 309.289 227.144 313.226L225.585 316.128C225.046 317.076 224.436 317.981 223.868 318.908C223.573 319.368 223.293 319.835 222.992 320.287L222.022 321.587L221.052 322.887L220.578 323.541L220.456 323.706C220.42 323.756 220.406 323.763 220.384 323.799C220.334 323.849 220.291 323.9 220.24 323.95C220.039 324.144 219.816 324.295 219.579 324.403C219.306 324.518 219.227 324.532 218.58 324.64C217.538 324.82 216.482 324.956 215.433 325.049C213.335 325.243 211.238 325.25 209.319 324.934L208.615 324.798L207.925 324.633L207.271 324.432C207.206 324.418 207.192 324.41 207.185 324.403C207.171 324.396 207.156 324.396 207.142 324.389C207.113 324.375 207.085 324.367 207.063 324.346C206.855 324.238 206.661 323.929 206.654 323.599C206.647 323.556 206.654 323.527 206.654 323.47L206.783 322.242L206.984 320.597C207.12 319.505 207.279 318.413 207.458 317.321C208.155 312.946 209.211 308.643 210.245 304.325C211.287 299.993 212.486 295.711 213.621 291.178C210.525 294.684 208.219 298.793 206.451 303.082C204.677 307.385 203.534 311.904 202.636 316.459C202.406 317.594 202.205 318.743 202.025 319.893C201.924 320.468 201.853 321.042 201.774 321.624L201.752 321.789C200.459 321.99 198.692 322.213 197.104 322.213C195.516 322.213 193.756 321.99 192.463 321.789L192.441 321.624C192.355 321.042 192.283 320.467 192.19 319.893C192.003 318.744 191.802 317.594 191.579 316.459C190.681 311.904 189.539 307.386 187.757 303.082C185.99 298.793 183.684 294.684 180.595 291.178C181.723 295.711 182.93 299.993 183.971 304.325C185.005 308.643 186.062 312.946 186.758 317.321C186.938 318.413 187.088 319.505 187.225 320.597L187.433 322.242L187.562 323.47C187.555 323.527 187.569 323.556 187.562 323.599C187.555 323.929 187.354 324.238 187.153 324.346C187.124 324.368 187.096 324.375 187.074 324.389C187.06 324.396 187.045 324.396 187.031 324.403C187.017 324.41 187.009 324.417 186.938 324.432L186.284 324.633L185.602 324.798L184.898 324.934C182.973 325.25 180.882 325.243 178.784 325.049C177.735 324.956 176.679 324.819 175.63 324.64C174.991 324.532 174.912 324.518 174.639 324.403C174.402 324.295 174.172 324.144 173.978 323.95C173.928 323.9 173.885 323.849 173.834 323.799C173.812 323.763 173.798 323.756 173.762 323.706L173.64 323.541L173.166 322.887L171.226 320.286C170.924 319.833 170.644 319.366 170.35 318.907C169.782 317.98 169.172 317.075 168.626 316.127L167.074 313.225C165.127 309.288 163.331 305.229 161.923 301.005C160.472 296.795 159.351 292.47 158.252 288.124C157.153 283.771 156.068 279.403 154.825 274.956C154.516 277.255 154.466 279.568 154.538 281.86C154.552 283.017 154.66 284.152 154.732 285.308C154.818 286.45 154.983 287.585 155.113 288.728C155.738 293.283 156.823 297.765 158.058 302.22L159.057 305.539C159.423 306.645 159.818 307.73 160.199 308.829C160.565 309.928 161.011 311.006 161.463 312.083L162.138 313.692L162.483 314.497L162.864 315.287L164.416 318.434C164.854 319.275 165.35 320.093 165.824 320.92C161.945 319.929 159.265 318.988 157.692 318.363C157.821 317.336 157.864 316.265 157.807 315.166C157.556 310.482 155.551 305.769 152.168 301.89C150.645 300.151 148.921 298.851 147.398 297.702C143.806 294.994 140.53 294.002 137.649 294.742C136.5 295.044 135.594 295.568 134.898 296.143C133.562 292.652 133.454 289.419 134.589 286.502C136.27 282.17 140.322 279.282 143.037 277.759C143.051 277.967 143.059 278.176 143.073 278.384L143.159 280.137C143.202 280.726 143.274 281.308 143.324 281.897C143.446 283.061 143.532 284.225 143.726 285.388C143.906 286.552 144.1 287.708 144.322 288.865C144.588 290.014 144.875 291.157 145.191 292.277C145.399 287.593 145.83 283.031 146.276 278.455C146.736 273.886 147.188 269.317 147.742 264.755C148.252 260.466 148.791 256.184 149.358 251.91C153.108 262.147 158.848 269.31 159.186 269.733C160.055 270.796 161.614 270.969 162.692 270.121C163.461 269.518 164.107 268.893 164.646 268.275C174.043 286.501 195.063 296.702 196.026 297.162C196.364 297.327 196.737 297.406 197.104 297.406C197.478 297.406 197.844 297.327 198.189 297.162C199.152 296.702 220.172 286.501 229.561 268.275C230.107 268.893 230.746 269.518 231.515 270.121C232.6 270.969 234.159 270.796 235.021 269.733C235.366 269.309 241.099 262.147 244.856 251.91C245.424 256.184 245.962 260.466 246.465 264.755C246.788 267.392 247.076 270.035 247.349 272.679C247.349 272.679 247.651 275.359 247.679 275.933L247.938 278.455C248.383 283.031 248.814 287.593 249.023 292.277C249.339 291.156 249.626 290.014 249.892 288.865C250.115 287.708 250.309 286.552 250.481 285.388C250.682 284.224 250.761 283.06 250.883 281.897C250.94 281.308 251.005 280.726 251.048 280.137L251.141 278.384C251.155 278.176 251.163 277.96 251.17 277.745C253.883 279.262 257.92 282.136 259.616 286.482ZM303.812 262.739C300.673 251.496 291.836 248.565 287.655 247.811C278.653 246.173 268.962 249.887 266.484 255.922C264.034 261.878 255.794 267.459 251.283 270.168C251.24 268.236 251.19 266.303 251.096 264.378C250.888 259.716 250.514 255.075 250.011 250.448C249.795 248.516 249.551 246.59 249.293 244.665C250.019 244.6 250.708 244.234 251.146 243.587C254.156 239.169 257.806 228.774 251.749 219.298C253.875 217.531 257.554 214.42 261.225 211.051C271.785 201.345 273.308 197.876 273.402 195.756C273.409 195.497 273.373 195.246 273.309 195.002C281.865 195.067 287.943 197.753 290.974 199.492C289.674 200.239 287.849 200.735 286.556 200.879C285.464 200.994 284.58 201.806 284.358 202.876C284.136 203.946 284.638 205.038 285.586 205.57C297.978 212.538 305.543 221.54 308.086 232.33C310.881 244.183 307.016 255.814 303.812 262.739Z" fill="#66142E"/>
<path d="M251.146 90.0016C250.543 88.9096 249.961 87.8316 249.393 86.7686C249.113 86.2446 248.825 85.7196 248.538 85.2096C248.394 84.9506 248.251 84.6926 248.1 84.4486C248.035 84.3406 247.942 84.1756 247.892 84.1106C247.835 84.0456 247.791 83.9886 247.727 83.9386C247.303 83.5646 246.693 83.4146 246.211 83.6226C246.103 83.6796 245.988 83.7306 245.895 83.8306C245.866 83.8446 245.73 83.9886 245.636 84.0746L245.334 84.3836C244.925 84.7856 244.544 85.2316 244.149 85.6476C241.06 89.1246 238.445 93.0826 236.11 97.1776C233.775 101.28 231.735 105.569 229.903 109.944C229.903 109.944 229.903 109.944 229.903 109.951C230.277 109.728 230.65 109.513 231.038 109.326C231.85 108.859 232.719 108.536 233.567 108.177C234.429 107.832 235.32 107.602 236.189 107.315H236.211C237.202 107.006 238.237 107.387 238.819 108.177L238.855 108.234C239.142 108.629 239.279 108.873 239.451 109.189C239.609 109.491 239.76 109.8 239.875 110.116C240.134 110.741 240.299 111.416 240.421 112.106C240.486 112.444 240.486 112.81 240.514 113.162C240.528 113.514 240.492 113.888 240.478 114.24C240.377 114.973 240.205 115.684 239.903 116.352C239.817 116.611 239.673 116.841 239.522 117.07C239.63 117.185 239.745 117.307 239.845 117.429C240.046 117.673 240.233 117.932 240.405 118.198C240.592 118.457 240.757 118.73 240.908 119.017C241.526 120.138 241.971 121.424 242.072 122.789C242.23 124.14 241.864 125.576 241.21 126.676C240.556 127.811 239.536 128.558 238.48 129.025C238.731 127.854 238.997 126.877 238.904 125.957C238.868 125.059 238.66 124.319 238.301 123.622C237.942 122.925 237.475 122.286 236.929 121.654C236.663 121.345 236.376 121.036 236.074 120.734L235.406 120.066C234.846 120.159 234.278 120.217 233.711 120.195C234.041 119.649 234.379 119.204 234.695 118.78L235.119 118.119C235.255 117.918 235.414 117.731 235.5 117.508C235.989 116.703 236.24 115.942 236.276 115.238C236.326 114.534 236.168 113.866 235.888 113.176C235.831 113.04 235.766 112.896 235.701 112.759C235.593 112.795 235.478 112.824 235.371 112.867C234.696 113.162 233.999 113.406 233.374 113.779C232.059 114.426 230.881 115.288 229.782 116.236C228.683 117.191 227.72 118.298 226.894 119.498C226.477 120.094 226.104 120.726 225.766 121.359C225.608 121.682 225.436 122.006 225.306 122.329C225.227 122.487 225.17 122.645 225.105 122.803C225.076 122.882 225.048 122.954 225.026 123.019C224.99 123.112 224.961 123.206 224.933 123.299L224.926 123.313L224.897 123.392C224.444 124.707 223.008 125.396 221.7 124.944C220.393 124.491 219.703 123.076 220.141 121.769L220.177 121.654L220.184 121.647C220.184 121.633 220.184 121.625 220.191 121.618L220.284 121.345C220.327 121.216 220.37 121.101 220.413 120.993C220.47 120.842 220.535 120.698 220.6 120.548C223.912 111.791 227.777 103.192 232.798 95.1956C235.413 91.0356 238.308 87.0206 241.785 83.4356C242.23 82.9976 242.661 82.5446 243.128 82.1206L243.473 81.7976C243.602 81.6826 243.667 81.6036 243.882 81.4386C244.241 81.1296 244.665 80.8996 245.11 80.7276C246.001 80.3976 246.992 80.3756 247.876 80.6776C248.76 80.9646 249.543 81.5896 249.995 82.3946C250.11 82.5886 250.196 82.7966 250.282 83.0056C250.361 83.2136 250.375 83.3286 250.426 83.4946C250.505 83.8036 250.577 84.1126 250.649 84.4216C250.778 85.0396 250.879 85.6576 250.965 86.2746C251.132 87.5016 251.196 88.7516 251.146 90.0016Z" fill="#66142E"/>
<path d="M181.411 194.578C179.17 192.804 176.871 191.252 174.522 189.837C172.18 188.429 169.795 187.157 167.352 186.101C164.931 185.016 162.474 184.104 159.996 183.385C157.539 182.602 155.025 182.135 152.553 181.589L152.352 181.546C150.024 181.029 148.559 178.73 149.069 176.402C149.586 174.074 151.885 172.609 154.213 173.119C154.263 173.133 154.328 173.148 154.378 173.162C157.316 173.938 160.197 174.951 162.862 176.366C164.227 176.998 165.491 177.832 166.77 178.6C167.402 178.988 167.991 179.455 168.602 179.872L169.507 180.526L170.376 181.216C171.54 182.136 172.625 183.134 173.695 184.133C174.722 185.189 175.742 186.224 176.669 187.351C178.53 189.578 180.197 191.978 181.411 194.578Z" fill="#66142E"/>
<path d="M242.037 181.503C241.987 181.517 241.936 181.532 241.886 181.539L241.663 181.589C239.199 182.135 236.685 182.602 234.228 183.385C231.742 184.103 229.285 185.016 226.872 186.101C224.429 187.157 222.044 188.429 219.695 189.837C217.353 191.252 215.047 192.804 212.812 194.578C214.02 191.977 215.687 189.578 217.554 187.351C218.474 186.223 219.501 185.189 220.528 184.133C221.598 183.134 222.683 182.136 223.847 181.216L224.716 180.526L225.621 179.872C226.232 179.455 226.821 178.988 227.453 178.6C228.732 177.831 229.996 176.998 231.361 176.366C234.026 174.951 236.9 173.938 239.838 173.162C242.144 172.559 244.5 173.931 245.111 176.237C245.715 178.536 244.343 180.9 242.037 181.503Z" fill="#66142E"/>
<path d="M203.229 195.297C202.64 197.711 200.736 199.083 199.206 199.823C197.884 200.462 196.34 200.462 195.018 199.823C193.488 199.083 191.584 197.711 190.995 195.297H203.229Z" fill="#66142E"/>
<path d="M209.271 208.688C208.186 209.291 207.008 209.737 205.772 210.039C204.536 210.341 203.222 210.47 201.864 210.305C200.513 210.147 199.098 209.587 197.977 208.595C197.668 208.322 197.402 208.02 197.151 207.704C196.9 208.042 196.612 208.358 196.289 208.645C195.183 209.672 193.739 210.233 192.381 210.391C191.009 210.571 189.68 210.413 188.444 210.096C187.201 209.787 186.023 209.32 184.945 208.688C186.173 208.889 187.388 208.983 188.573 208.961C189.758 208.918 190.915 208.767 191.935 208.408C192.948 208.042 193.803 207.496 194.399 206.763C195.024 206.052 195.412 205.139 195.728 204.148L195.742 204.105C195.979 203.351 196.784 202.927 197.545 203.171C198.019 203.315 198.364 203.703 198.493 204.148C198.773 205.139 199.132 206.08 199.765 206.813C200.361 207.582 201.245 208.12 202.265 208.494C203.299 208.868 204.463 208.99 205.649 209.026C206.842 209.032 208.056 208.925 209.271 208.688Z" fill="#66142E"/>
<path d="M173.652 124.139C173.365 124.505 172.977 124.793 172.503 124.951C171.196 125.389 169.78 124.692 169.328 123.392L169.299 123.313L169.292 123.299C169.263 123.206 169.227 123.112 169.199 123.019C169.177 122.954 169.149 122.883 169.12 122.803C169.055 122.645 168.991 122.487 168.919 122.329C168.783 122.006 168.617 121.682 168.459 121.359C168.121 120.727 167.748 120.095 167.331 119.498C166.498 118.298 165.542 117.192 164.443 116.236C163.344 115.288 162.159 114.426 160.851 113.779C160.219 113.405 159.522 113.161 158.854 112.867C158.746 112.824 158.631 112.795 158.524 112.759C158.459 112.895 158.395 113.039 158.337 113.176C158.057 113.866 157.899 114.534 157.942 115.238C157.985 115.942 158.229 116.704 158.725 117.508C158.811 117.731 158.969 117.917 159.106 118.119L159.523 118.78C159.846 119.204 160.184 119.649 160.514 120.195C159.946 120.217 159.379 120.159 158.811 120.066L158.143 120.734C157.848 121.036 157.561 121.345 157.288 121.654C156.749 122.286 156.282 122.926 155.916 123.622C155.564 124.319 155.356 125.059 155.32 125.957C155.227 126.877 155.492 127.854 155.737 129.025C154.688 128.558 153.661 127.811 153.014 126.676C152.36 125.577 151.987 124.14 152.145 122.789C152.253 121.424 152.698 120.138 153.316 119.017C153.467 118.73 153.632 118.457 153.812 118.198C153.992 117.932 154.171 117.674 154.38 117.429C154.481 117.307 154.596 117.185 154.703 117.07C154.552 116.84 154.408 116.61 154.322 116.352C154.02 115.684 153.848 114.973 153.747 114.24C153.733 113.888 153.697 113.514 153.711 113.162C153.74 112.81 153.74 112.444 153.804 112.106C153.926 111.416 154.091 110.741 154.35 110.116C154.465 109.8 154.616 109.491 154.767 109.189C154.939 108.873 155.076 108.629 155.363 108.234L155.406 108.184C156.017 107.343 157.073 107.027 158.014 107.315H158.028C158.904 107.602 159.795 107.832 160.65 108.177C161.505 108.536 162.374 108.859 163.179 109.326C163.567 109.513 163.948 109.728 164.321 109.951C164.321 109.944 164.321 109.944 164.321 109.944C162.489 105.569 160.442 101.28 158.107 97.1777C155.779 93.0827 153.164 89.1247 150.075 85.6477C149.68 85.2307 149.299 84.7857 148.89 84.3837L148.581 84.0747C148.488 83.9887 148.351 83.8447 148.33 83.8307C148.237 83.7297 148.122 83.6797 148.007 83.6227C147.533 83.4147 146.922 83.5657 146.491 83.9387C146.434 83.9887 146.39 84.0467 146.333 84.1107C146.276 84.1757 146.189 84.3407 146.117 84.4487C145.966 84.6927 145.83 84.9517 145.686 85.2097C145.391 85.7197 145.111 86.2437 144.824 86.7687C144.264 87.8317 143.682 88.9097 143.078 90.0017C143.028 88.7517 143.085 87.5017 143.258 86.2737C143.294 85.9717 143.337 85.6707 143.394 85.3687V85.3467C143.444 85.0377 143.509 84.7287 143.574 84.4197C143.646 84.1107 143.718 83.8017 143.797 83.4927C143.847 83.3277 143.862 83.2127 143.941 83.0037C144.02 82.7957 144.106 82.5867 144.228 82.3927C144.681 81.5877 145.464 80.9627 146.347 80.6757C147.231 80.3737 148.215 80.3957 149.113 80.7257C149.551 80.8977 149.982 81.1277 150.341 81.4367C150.549 81.6017 150.621 81.6807 150.75 81.7957L151.095 82.1187C151.562 82.5427 151.986 82.9947 152.438 83.4337C155.915 87.0187 158.81 91.0347 161.425 95.1937C165.391 101.516 168.638 108.211 171.461 115.065V115.072C172.215 116.89 172.934 118.714 173.623 120.553C173.688 120.697 173.745 120.84 173.81 120.991C173.853 121.099 173.896 121.214 173.939 121.343L174.032 121.616C174.032 121.623 174.039 121.63 174.039 121.645L174.046 121.652L174.082 121.767C174.364 122.609 174.177 123.5 173.652 124.139Z" fill="#66142E"/>
<path opacity="0.3" d="M193.128 228.003C192.819 228.283 192.517 228.563 192.208 228.851C191.145 229.857 190.096 230.884 189.09 231.969C188.077 233.061 187.086 234.167 186.166 235.381C185.239 236.595 184.348 237.874 183.587 239.347C183.451 239.548 183.357 239.771 183.307 240.001C183.587 238.219 184.945 232.091 190.965 226.488C191.785 227.041 192.51 227.558 193.128 228.003Z" fill="#66142E"/>
<path opacity="0.3" d="M152.593 313.773C152.198 315.843 151.247 317.614 149.779 318.898C147.66 320.744 144.693 321.427 141.41 320.802C137.904 320.141 134.513 318.101 131.862 315.069C130.705 313.747 129.75 312.303 129.024 310.78C128.995 310.715 128.959 310.651 128.923 310.593C128.613 310.06 128.065 308.936 127.664 307.674C127.507 307.889 127.414 308.1 127.35 308.291C126.624 310.453 128.284 314.067 128.923 315.166C128.959 315.223 128.995 315.288 129.024 315.353C129.75 316.876 130.705 318.32 131.862 319.642C134.513 322.674 137.904 324.714 141.41 325.375C144.693 326 147.66 325.318 149.779 323.471C151.898 321.618 152.969 318.766 152.789 315.432C152.76 314.88 152.687 314.326 152.593 313.773Z" fill="#66142E"/>
<path opacity="0.3" d="M241.623 313.773C242.018 315.843 242.969 317.614 244.437 318.898C246.556 320.744 249.523 321.427 252.806 320.802C256.312 320.141 259.703 318.101 262.354 315.069C263.511 313.747 264.466 312.303 265.192 310.78C265.221 310.715 265.257 310.651 265.293 310.593C265.603 310.06 266.151 308.936 266.552 307.674C266.709 307.889 266.802 308.1 266.866 308.291C267.592 310.453 265.932 314.067 265.293 315.166C265.257 315.223 265.221 315.288 265.192 315.353C264.466 316.876 263.511 318.32 262.354 319.642C259.703 322.674 256.312 324.714 252.806 325.375C249.523 326 246.556 325.318 244.437 323.471C242.318 321.618 241.247 318.766 241.427 315.432C241.455 314.88 241.528 314.326 241.623 313.773Z" fill="#66142E"/>
<path opacity="0.3" d="M243.947 205.181C236.903 202.677 219.815 199.829 197.107 217.925C174.399 199.829 157.312 202.677 150.267 205.181C147.527 206.155 144.53 206.035 141.881 204.835C134.049 201.285 126.233 196.059 125.942 195.863C127.027 198.794 136.459 207.824 145.633 215.396C161.589 199.721 190.023 219.34 197.106 224.67C204.189 219.34 232.624 199.72 248.579 215.396C257.753 207.824 267.186 198.794 268.27 195.863C267.979 196.059 260.162 201.285 252.331 204.835C249.684 206.036 246.687 206.155 243.947 205.181Z" fill="#66142E"/>
<path opacity="0.3" d="M243.648 228.406C242.321 227.581 240.577 228.311 240.265 229.842C239.361 234.266 237.188 243.404 233.702 249.095C233.702 249.095 233.098 246.958 232.067 244.599C231.313 242.873 228.889 242.799 228.033 244.477C223.453 253.451 210.997 275.522 197.107 280.273C183.218 275.522 170.761 253.451 166.181 244.477C165.324 242.799 162.901 242.872 162.147 244.599C161.116 246.958 160.512 249.095 160.512 249.095C157.026 243.404 154.853 234.266 153.949 229.842C153.636 228.311 151.892 227.581 150.566 228.406C145.911 231.302 145.771 237.895 145.771 237.895C146.022 237.414 146.137 237.019 146.18 236.832C146.194 236.76 146.209 236.681 146.223 236.609H146.23C146.431 235.366 147.545 234.447 148.78 234.49C150.087 234.533 151.144 235.568 151.215 236.868C151.854 248.908 158.291 259.691 161.416 264.253C162.221 263.104 162.415 262.191 162.415 262.177C162.616 261.056 163.536 260.209 164.671 260.101C165.799 260 166.862 260.669 167.257 261.739C173.471 278.643 192.372 289.555 197.106 292.07C201.84 289.556 220.741 278.643 226.955 261.739C227.35 260.669 228.413 260 229.541 260.101C230.676 260.209 231.596 261.056 231.797 262.177C231.797 262.191 231.991 263.104 232.796 264.253C235.921 259.691 242.358 248.908 242.997 236.868C243.069 235.568 244.125 234.533 245.432 234.49C246.668 234.447 247.781 235.366 247.982 236.609H247.989C248.003 236.681 248.018 236.76 248.032 236.832C248.075 237.019 248.19 237.414 248.441 237.895C248.444 237.896 248.303 231.302 243.648 228.406Z" fill="#66142E"/>
<path opacity="0.3" d="M235.053 269.736C234.184 270.799 232.625 270.972 231.547 270.124C230.778 269.521 230.132 268.896 229.593 268.278C220.196 286.504 199.176 296.705 198.213 297.165C197.875 297.33 197.502 297.409 197.135 297.409C197.128 297.409 197.128 297.409 197.121 297.409C197.114 297.409 197.114 297.409 197.107 297.409C196.741 297.409 196.367 297.33 196.029 297.165C195.066 296.705 174.046 286.504 164.649 268.278C164.11 268.896 163.464 269.521 162.695 270.124C161.617 270.972 160.058 270.799 159.189 269.736C158.851 269.312 153.119 262.157 149.368 251.934C149.492 252.553 152.692 268.162 160.508 277.37C161.832 278.929 164.253 278.971 165.572 277.408L165.59 277.387C165.59 277.387 171.071 285.828 181.402 294.341C182.458 295.21 183.564 296.08 184.728 296.942C187.969 299.358 191.602 301.706 195.612 303.793C196.554 304.283 197.687 304.283 198.629 303.793C202.639 301.706 206.272 299.358 209.513 296.942C210.677 296.08 211.783 295.211 212.839 294.341C223.17 285.828 228.651 277.387 228.651 277.387C228.657 277.394 228.663 277.401 228.669 277.408C229.988 278.971 232.409 278.929 233.733 277.37C241.549 268.162 244.749 252.553 244.873 251.934C241.123 262.157 235.391 269.312 235.053 269.736Z" fill="#66142E"/>
<path opacity="0.3" d="M164.319 109.943C164.319 109.943 164.319 109.943 164.319 109.95C163.945 109.727 163.565 109.512 163.177 109.325C162.372 108.858 161.503 108.535 160.648 108.176C159.793 107.831 158.902 107.601 158.026 107.314H158.012C157.071 107.027 156.015 107.343 155.404 108.183L155.361 108.233C155.074 108.628 154.937 108.872 154.765 109.188C154.614 109.49 154.463 109.799 154.348 110.115C154.089 110.74 153.924 111.415 153.802 112.105C153.737 112.443 153.737 112.809 153.709 113.161C153.695 113.513 153.731 113.887 153.745 114.239C153.846 114.972 154.018 115.683 154.32 116.351C154.406 116.61 154.55 116.84 154.701 117.069C154.593 117.184 154.478 117.306 154.378 117.428C154.17 117.672 153.99 117.931 153.81 118.197C153.63 118.456 153.465 118.729 153.314 119.016C152.696 120.137 152.251 121.423 152.143 122.788C151.985 124.139 152.359 125.575 153.012 126.675C153.659 127.803 154.679 128.55 155.72 129.017C155.303 128.924 147.351 126.977 150.598 115.173C150.598 115.173 148.663 108.687 152.023 104.138C152.889 102.966 153.146 101.447 152.726 100.052C151.146 94.8036 147.055 84.2376 142.042 94.5696C142.66 91.5596 143.076 90.0006 143.076 90.0006C143.679 88.9086 144.261 87.8306 144.822 86.7676C145.109 86.2436 145.39 85.7186 145.684 85.2086C145.828 84.9496 145.964 84.6916 146.115 84.4476C146.187 84.3396 146.273 84.1746 146.331 84.1096C146.388 84.0446 146.432 83.9876 146.489 83.9376C146.92 83.5636 147.531 83.4136 148.005 83.6216C148.12 83.6786 148.235 83.7296 148.328 83.8296C148.35 83.8436 148.486 83.9876 148.579 84.0736L148.888 84.3826C149.297 84.7846 149.678 85.2306 150.073 85.6466C153.162 89.1236 155.777 93.0816 158.105 97.1766C160.44 101.279 162.488 105.568 164.319 109.943Z" fill="#66142E"/>
<path opacity="0.3" d="M229.896 109.943C229.896 109.943 229.896 109.943 229.896 109.95C230.27 109.727 230.65 109.512 231.038 109.325C231.843 108.858 232.712 108.535 233.567 108.176C234.422 107.831 235.313 107.601 236.189 107.314H236.203C237.144 107.027 238.2 107.343 238.811 108.183L238.854 108.233C239.141 108.628 239.278 108.872 239.45 109.188C239.601 109.49 239.752 109.799 239.867 110.115C240.126 110.74 240.291 111.415 240.413 112.105C240.478 112.443 240.478 112.809 240.506 113.161C240.52 113.513 240.484 113.887 240.47 114.239C240.369 114.972 240.197 115.683 239.895 116.351C239.809 116.61 239.665 116.84 239.514 117.069C239.622 117.184 239.737 117.306 239.837 117.428C240.045 117.672 240.225 117.931 240.405 118.197C240.585 118.456 240.75 118.729 240.901 119.016C241.519 120.137 241.964 121.423 242.072 122.788C242.23 124.139 241.856 125.575 241.203 126.675C240.556 127.803 239.536 128.55 238.495 129.017C238.912 128.924 246.864 126.977 243.617 115.173C243.617 115.173 245.552 108.687 242.192 104.138C241.326 102.966 241.069 101.447 241.489 100.052C243.069 94.8036 247.16 84.2376 252.173 94.5696C251.555 91.5596 251.139 90.0006 251.139 90.0006C250.536 88.9086 249.954 87.8306 249.393 86.7676C249.106 86.2436 248.825 85.7186 248.531 85.2086C248.387 84.9496 248.251 84.6916 248.1 84.4476C248.028 84.3396 247.942 84.1746 247.884 84.1096C247.827 84.0446 247.783 83.9876 247.726 83.9376C247.295 83.5636 246.684 83.4136 246.21 83.6216C246.095 83.6786 245.98 83.7296 245.887 83.8296C245.865 83.8436 245.729 83.9876 245.636 84.0736L245.327 84.3826C244.918 84.7846 244.537 85.2306 244.142 85.6466C241.053 89.1236 238.438 93.0816 236.11 97.1766C233.775 101.279 231.728 105.568 229.896 109.943Z" fill="#66142E"/>
<path opacity="0.3" d="M192.193 319.895C192.286 320.47 192.358 321.044 192.444 321.626L192.466 321.791C193.213 321.906 196.173 322.129 197.107 322.215C197.109 318.72 197.121 316.64 197.121 316.64C195.224 316.64 193.385 316.611 191.604 316.568C191.82 317.668 192.014 318.781 192.193 319.895Z" fill="#66142E"/>
<path opacity="0.3" d="M164.42 318.437L162.868 315.29L162.487 314.5L162.142 313.695L161.546 312.265L161.467 312.085C161.014 311.007 160.569 309.93 160.203 308.831C159.822 307.732 159.427 306.647 159.061 305.541L158.062 302.222C156.826 297.768 155.742 293.285 155.117 288.73C154.988 287.588 154.822 286.453 154.736 285.31C154.664 284.153 154.556 283.018 154.542 281.862C154.52 281.309 154.513 280.763 154.513 280.203C154.409 284.725 154.62 291.846 156.174 300.228C156.359 301.225 155.117 301.859 154.445 301.1C150.213 296.323 145.589 294.33 142.186 293.511C140.564 293.121 139.406 291.681 139.377 290.013C139.309 286.051 140.662 283.578 140.764 284.6C141.116 288.005 145.196 292.28 145.196 292.28C144.88 291.159 144.593 290.017 144.327 288.868C144.104 287.711 143.91 286.555 143.731 285.391C143.537 284.227 143.451 283.063 143.329 281.9C143.279 281.311 143.207 280.729 143.164 280.14L143.077 278.363C142.834 278.231 142.766 278.193 142.523 278.061C139.834 279.649 136.171 282.442 134.594 286.505C133.593 289.077 133.562 291.896 134.484 294.921C134.607 295.327 134.746 295.735 134.903 296.146C135.6 295.571 136.505 295.047 137.654 294.745C138.423 294.551 139.22 294.472 140.046 294.522C142.309 294.658 144.773 295.722 147.402 297.704C148.925 298.853 150.649 300.154 152.172 301.892C154.464 304.514 156.116 307.524 157.028 310.642C157.466 312.136 157.732 313.652 157.811 315.168C157.868 316.267 157.825 317.338 157.696 318.365C158.81 318.81 160.483 319.414 162.754 320.082C162.754 320.08 162.754 320.078 162.753 320.077C163.682 320.351 164.698 320.634 165.828 320.923C165.354 320.097 164.858 319.278 164.42 318.437Z" fill="#66142E"/>
<path opacity="0.3" d="M197.136 322.214C198.07 322.128 201.03 321.905 201.777 321.79L201.799 321.625C201.885 321.043 201.957 320.468 202.05 319.894C202.23 318.78 202.424 317.667 202.639 316.568C200.857 316.611 199.018 316.64 197.122 316.64C197.121 316.639 197.133 318.719 197.136 322.214Z" fill="#66142E"/>
<path opacity="0.3" d="M259.652 286.503C258.075 282.439 254.412 279.646 251.723 278.059C251.48 278.191 251.412 278.229 251.169 278.361L251.082 280.138C251.039 280.727 250.967 281.309 250.917 281.898C250.795 283.062 250.709 284.226 250.515 285.389C250.335 286.553 250.141 287.709 249.919 288.866C249.653 290.015 249.366 291.158 249.05 292.278C249.05 292.278 253.13 288.004 253.482 284.598C253.584 283.576 254.936 286.049 254.869 290.011C254.841 291.679 253.682 293.119 252.06 293.509C248.656 294.328 244.033 296.322 239.801 301.098C239.128 301.857 237.887 301.224 238.072 300.226C239.625 291.844 239.837 284.723 239.733 280.201C239.733 280.761 239.726 281.307 239.704 281.86C239.69 283.017 239.582 284.152 239.51 285.308C239.424 286.45 239.259 287.585 239.129 288.728C238.504 293.283 237.419 297.765 236.184 302.22L235.185 305.539C234.819 306.645 234.424 307.73 234.043 308.829C233.677 309.928 233.231 311.006 232.779 312.083L232.7 312.263L232.104 313.693L231.759 314.498L231.378 315.288L229.826 318.435C229.388 319.276 228.892 320.094 228.418 320.921C229.548 320.632 230.564 320.349 231.493 320.075C231.493 320.077 231.493 320.079 231.492 320.08C233.762 319.412 235.436 318.808 236.549 318.363C236.42 317.336 236.377 316.265 236.434 315.166C236.513 313.65 236.779 312.134 237.217 310.64C238.129 307.522 239.782 304.512 242.073 301.89C243.596 300.151 245.32 298.851 246.843 297.702C249.472 295.719 251.936 294.656 254.199 294.52C255.025 294.47 255.823 294.549 256.591 294.743C257.74 295.045 258.646 295.569 259.342 296.144C259.499 295.733 259.638 295.325 259.761 294.919C260.684 291.895 260.653 289.076 259.652 286.503Z" fill="#66142E"/>
<path opacity="0.3" d="M303.811 262.739C300.672 251.496 291.835 248.565 287.654 247.811C282.805 246.927 277.754 247.603 273.739 249.348C270.305 250.849 267.625 253.141 266.483 255.921C264.033 261.877 255.793 267.458 251.282 270.167C251.239 268.235 251.189 266.302 251.095 264.377C250.887 259.715 250.513 255.074 250.01 250.447C249.794 248.515 249.55 246.589 249.292 244.664C250.018 244.599 250.707 244.233 251.145 243.586C254.155 239.168 257.797 228.78 251.763 219.311C252.153 219.764 260.691 230.025 253.806 248.759C253.201 250.407 253.445 252.312 254.627 253.61C255.89 254.996 258.013 255.399 261.267 250.562C267.266 241.632 302.791 233.967 303.811 262.739Z" fill="#66142E"/>
<path opacity="0.3" d="M164.32 122.981C158.666 120.172 155.872 128.541 155.728 128.994C155.484 127.837 155.225 126.868 155.319 125.955C155.355 125.057 155.563 124.317 155.915 123.62C156.281 122.923 156.748 122.284 157.287 121.652C157.56 121.343 157.847 121.034 158.142 120.732L158.81 120.064C159.378 120.157 159.945 120.215 160.513 120.193C164.019 121.407 164.32 122.981 164.32 122.981Z" fill="#66142E"/>
<path opacity="0.3" d="M229.896 122.981C235.55 120.172 238.344 128.541 238.488 128.994C238.732 127.837 238.991 126.868 238.897 125.955C238.861 125.057 238.653 124.317 238.301 123.62C237.935 122.923 237.468 122.284 236.929 121.652C236.656 121.343 236.369 121.034 236.074 120.732L235.406 120.064C234.838 120.157 234.271 120.215 233.703 120.193C230.197 121.407 229.896 122.981 229.896 122.981Z" fill="#66142E"/>
<path opacity="0.7" d="M187.52 113.752C186.223 113.705 185.353 115.035 185.883 116.22C188.118 121.219 194.149 121.712 194.149 121.712C192.195 121.841 190.262 121.604 188.574 120.929C186.886 120.282 185.499 119.198 184.551 117.826C183.588 116.468 183.064 114.837 182.733 113.149C182.661 112.718 182.604 112.28 182.546 111.856C182.51 111.425 182.474 111.001 182.431 110.57C182.783 110.649 183.135 110.728 183.487 110.793C184.873 111.037 186.253 111.217 187.625 111.31C189.004 111.403 190.376 111.454 191.741 111.446L193.788 111.403C195.016 111.331 196.072 110.505 196.439 109.327C196.461 109.262 196.446 108.882 196.403 108.767L196.259 108.393C196.158 108.134 196.072 107.89 195.986 107.632C195.828 107.136 195.684 106.633 195.612 106.109C195.583 105.922 195.569 105.728 195.555 105.541C196.065 105.735 196.582 105.936 197.114 106.123C198.608 106.64 200.138 107.107 201.812 107.423C202.602 107.574 203.744 107.653 204.154 107.71C204.729 107.796 205.303 107.947 205.871 108.155C206.388 108.349 206.905 108.593 207.401 108.881L199.615 108.672C198.874 108.652 198.183 109.238 198.15 109.978C198.069 111.838 196.751 113.443 194.809 113.602C191.946 113.837 189.31 113.817 187.52 113.752Z" fill="white"/>
<path opacity="0.7" d="M193.127 228.004C139.463 198.212 145.77 237.896 145.77 237.896C144.182 234.074 142.537 227.019 147.832 220.439C158.888 206.94 181.324 219.886 190.965 226.488C191.784 227.042 192.509 227.559 193.127 228.004Z" fill="white"/>
<path opacity="0.7" d="M201.087 228.004C254.751 198.212 248.444 237.896 248.444 237.896C250.032 234.074 251.677 227.019 246.382 220.439C235.326 206.94 212.89 219.886 203.249 226.488C202.43 227.042 201.705 227.559 201.087 228.004Z" fill="white"/>
<path opacity="0.7" d="M308.086 232.33C305.543 221.54 297.978 212.538 285.586 205.57C284.638 205.038 284.135 203.946 284.358 202.876C284.581 201.806 285.464 200.994 286.556 200.879C287.849 200.735 289.674 200.24 290.974 199.492C287.942 197.753 281.865 195.067 273.309 195.002C273.374 195.246 273.41 195.498 273.402 195.756C273.366 196.584 273.109 197.62 272.181 199.154C272.061 199.352 271.925 199.563 271.782 199.778C271.745 199.834 271.707 199.89 271.668 199.947C271.518 200.167 271.36 200.394 271.184 200.632C271.165 200.658 271.143 200.685 271.124 200.711C270.962 200.93 270.786 201.158 270.601 201.393C270.545 201.464 270.489 201.535 270.431 201.608C270.217 201.875 269.995 202.148 269.751 202.437C268.594 203.802 267.079 205.426 265.103 207.38C266.358 206.892 267.874 206.257 269.568 205.458C272.132 204.248 275.096 204.236 277.704 205.348C318.604 222.791 304.626 260.627 303.846 262.654C307.045 255.721 310.866 244.133 308.086 232.33Z" fill="white"/>
<defs>
<linearGradient id="paint0_linear_1350_15451" x1="188.402" y1="67.7816" x2="189.298" y2="159.517" gradientUnits="userSpaceOnUse">
<stop stop-color="#FF7F00"/>
<stop offset="0.3186" stop-color="#FE7C02"/>
<stop offset="0.5141" stop-color="#FB740A"/>
<stop offset="0.6764" stop-color="#F66617"/>
<stop offset="0.8205" stop-color="#EF5129"/>
<stop offset="0.9513" stop-color="#E63740"/>
<stop offset="1" stop-color="#E22B4B"/>
</linearGradient>
<linearGradient id="paint1_linear_1350_15451" x1="195.562" y1="218.541" x2="197.717" y2="318.911" gradientUnits="userSpaceOnUse">
<stop stop-color="#FF7F00"/>
<stop offset="0.3186" stop-color="#FE7C02"/>
<stop offset="0.5141" stop-color="#FB740A"/>
<stop offset="0.6764" stop-color="#F66617"/>
<stop offset="0.8205" stop-color="#EF5129"/>
<stop offset="0.9513" stop-color="#E63740"/>
<stop offset="1" stop-color="#E22B4B"/>
</linearGradient>
<linearGradient id="paint2_linear_1350_15451" x1="321.539" y1="203.091" x2="255.959" y2="254.354" gradientUnits="userSpaceOnUse">
<stop stop-color="#FF7F00"/>
<stop offset="0.3186" stop-color="#FE7C02"/>
<stop offset="0.5141" stop-color="#FB740A"/>
<stop offset="0.6764" stop-color="#F66617"/>
<stop offset="0.8205" stop-color="#EF5129"/>
<stop offset="0.9513" stop-color="#E63740"/>
<stop offset="1" stop-color="#E22B4B"/>
</linearGradient>
<linearGradient id="paint3_linear_1350_15451" x1="196.375" y1="109.909" x2="197.874" y2="263.249" gradientUnits="userSpaceOnUse">
<stop stop-color="#FF7F00"/>
<stop offset="0.2153" stop-color="#FE7C02"/>
<stop offset="0.3474" stop-color="#FB740A"/>
<stop offset="0.457" stop-color="#F66617"/>
<stop offset="0.5544" stop-color="#EF5129"/>
<stop offset="0.6428" stop-color="#E63740"/>
<stop offset="0.6757" stop-color="#E22B4B"/>
</linearGradient>
</defs>
</svg>
