<svg width="400" height="400" viewBox="0 0 400 400" fill="none" xmlns="http://www.w3.org/2000/svg">
<path opacity="0.3" d="M209.75 348.4C270.639 348.4 320 342.835 320 335.97C320 329.105 270.639 323.54 209.75 323.54C148.861 323.54 99.5 329.105 99.5 335.97C99.5 342.835 148.861 348.4 209.75 348.4Z" fill="#66142E"/>
<path opacity="0.3" d="M216.943 347.202C275.761 347.202 323.442 333.497 323.442 316.59C323.442 299.683 275.761 285.978 216.943 285.978C158.126 285.978 110.444 299.683 110.444 316.59C110.444 333.497 158.126 347.202 216.943 347.202Z" fill="#650000"/>
<path d="M297.265 186.6C297.265 186.6 295.194 205.649 274.312 223.81C271.828 222.065 268.4 221.001 263.683 221.183C247.518 221.815 240.768 235.227 240.58 235.597C235.144 230.592 225.641 225.932 209.05 224.974C199.428 224.417 190.927 230.848 188.668 239.794C188.418 239.75 181.486 238.543 172.371 235.321C158.733 230.504 140.228 221.195 131.977 204.561C131.977 204.561 133.754 203.454 136.062 202.378C136.062 202.378 133.384 200.038 130.769 195.615C130.769 195.615 131.564 194.32 132.633 191.78C134.591 187.132 137.469 178.292 138.076 165.549C145.927 149.184 159.452 134.62 160.284 133.725L160.315 133.694C160.321 133.694 160.321 133.694 160.321 133.694C160.327 133.688 160.327 133.681 160.327 133.681C151.177 129.859 156.376 120.5 156.376 120.5L156.426 119.962C149.263 119.524 146.523 112.999 146.523 112.999L161.406 105.367L163.671 104.21C151.378 74.4439 140.692 63.7409 140.361 63.4089C140.905 63.6029 169.332 73.9249 188.237 106.062C188.237 106.062 197.358 102.715 208.281 99.9879C212.842 98.8489 217.721 97.8169 222.376 97.1919C222.389 97.1859 222.395 97.1859 222.395 97.1859C222.395 97.1859 223.909 105.525 220.443 111.043C224.19 110.705 228.695 110.142 232.742 109.223C232.955 105.688 233.268 102.373 233.662 99.2639L251.316 98.7949C251.316 98.7949 250.772 104.507 247.331 108.098L247.85 108.186C247.85 108.186 253.63 115.387 245.992 120.31C245.998 120.316 245.998 120.316 246.005 120.316C246.468 120.504 261.338 126.584 274.225 141.592L274.231 141.598V141.604C280.343 148.723 285.998 157.851 289.452 169.305C289.865 170.669 290.672 171.882 291.754 172.815C292.436 173.403 293.274 174.035 294.188 174.523C294.52 174.704 294.857 174.867 295.208 175.005C295.208 175.005 295.558 182.625 292.793 185.74V185.746C294.112 186.006 295.626 186.3 297.265 186.6Z" fill="url(#paint0_linear_566_13768)"/>
<path d="M275.789 286.613C275.27 297.254 273.318 307.201 270.49 315.315L270.484 315.321C269.302 318.724 267.957 321.802 266.499 324.48C263.033 330.83 258.929 334.884 254.7 335.534C247.994 336.56 245.691 331.749 245.222 326.282C245.141 325.356 245.116 324.411 245.128 323.473C245.128 323.335 245.128 323.192 245.134 323.054C245.165 321.928 245.247 320.814 245.365 319.757C245.396 319.494 245.428 319.232 245.459 318.975C245.49 318.719 245.528 318.468 245.565 318.224C245.584 318.099 245.603 317.98 245.621 317.855C245.64 317.767 245.652 317.674 245.665 317.586C245.69 317.436 245.715 317.292 245.74 317.148C245.759 317.035 245.784 316.923 245.803 316.81C245.822 316.697 245.847 316.585 245.866 316.478C245.885 316.372 245.91 316.265 245.929 316.159C245.948 316.053 245.973 315.946 245.992 315.846C246.036 315.64 246.08 315.446 246.123 315.258C246.261 314.651 246.398 314.119 246.523 313.707C246.548 313.632 246.573 313.557 246.592 313.482C246.617 313.413 246.642 313.344 246.661 313.282C247.33 311.336 247.856 307.864 248.212 304.874C248.575 301.89 248.762 299.388 248.762 299.388C252.29 296.573 265.246 285.137 268.368 266.801V266.795C268.374 266.789 268.374 266.776 268.374 266.77C268.374 266.77 270.42 269.41 272.328 270.918C272.328 270.918 273.535 268.322 274.711 264.362H274.717C275.845 271.862 276.145 279.394 275.789 286.613Z" fill="url(#paint1_linear_566_13768)"/>
<path d="M223.802 326.182C223.815 326.495 223.808 326.795 223.796 327.102C223.421 334.059 216.032 338.688 209.52 335.723C204.065 333.239 199.542 329.398 195.795 324.8C195.776 324.775 195.757 324.756 195.739 324.731C195.701 324.737 195.658 324.744 195.62 324.75C181.626 326.639 175.457 331.919 169.714 333.533C164.052 335.116 157.19 333.589 156.939 333.533C157.239 333.427 157.527 333.302 157.815 333.164C161.956 331.118 163.94 325.838 163.652 319.288C163.452 314.54 162.044 309.116 159.411 303.773C157.578 300.063 155.351 296.804 152.942 294.139C156.927 291.912 160.699 290.292 163.815 289.153C163.871 287.464 163.984 285.781 164.134 284.136C165.273 271.699 168.676 261.164 168.676 261.164C165.104 263.329 162.639 262.978 162.639 262.978C162.795 257.942 164.209 252.781 165.917 248.302C168.745 240.876 172.373 235.321 172.373 235.321C181.488 238.543 188.419 239.75 188.67 239.794C188.313 241.22 188.113 242.703 188.088 244.236C188.038 247.577 188.67 251.424 190.29 255.841C190.29 255.841 193.105 254.934 195.47 250.461C195.47 250.461 196.089 268.81 208.72 279.363C208.776 279.82 208.845 280.289 208.926 280.771C208.989 281.128 209.051 281.497 209.126 281.866C209.245 282.448 209.376 283.042 209.526 283.649C209.614 284.024 209.707 284.4 209.808 284.781L209.814 284.794C211.985 293.058 216.445 302.786 219.342 308.66C219.88 309.749 220.374 310.856 220.818 311.982C220.924 312.245 221.031 312.508 221.125 312.777C221.238 313.071 221.344 313.365 221.444 313.659C221.519 313.872 221.594 314.084 221.657 314.291C222.007 315.336 222.314 316.393 222.583 317.463C222.646 317.713 222.708 317.963 222.758 318.214C222.827 318.502 222.889 318.796 222.952 319.084C223.015 319.378 223.071 319.666 223.121 319.96C223.177 320.254 223.227 320.548 223.277 320.842C223.315 321.092 223.358 321.336 223.396 321.586C223.527 322.512 223.634 323.45 223.703 324.389C223.752 325.012 223.783 325.613 223.802 326.182Z" fill="url(#paint2_linear_566_13768)"/>
<path d="M291.829 293.87C289.546 295.903 287.362 298.399 285.423 301.277C278.122 312.118 277.159 324.242 283.265 328.353C283.834 328.735 284.441 329.035 285.085 329.254C285.085 329.254 274.269 331.256 266.499 324.481C271.435 315.429 275.051 301.722 275.789 286.614L291.829 293.87Z" fill="url(#paint3_linear_566_13768)"/>
<path d="M168.675 261.164C168.675 261.164 168.406 261.99 167.999 263.454C167.073 266.751 165.422 273.307 164.477 280.927C164.152 283.567 163.914 286.345 163.814 289.153C160.699 290.292 156.926 291.912 152.941 294.139C147.098 287.67 140.16 284.68 135.093 287.182C130.883 289.265 128.906 294.67 129.269 301.358C109.194 297.886 99.065 282.715 99.065 282.715C101.48 281.508 106.097 281.138 106.097 281.138C97.307 275.745 91.346 269.133 87.311 262.595C78.428 248.219 78.822 234.187 78.822 234.187C83.114 234.856 86.729 236.933 86.729 236.933C81.637 194.374 114.28 186.661 114.28 186.661C114.28 186.661 114.274 186.667 114.261 186.686C113.147 187.837 112.297 189.426 111.715 191.334C111.709 191.347 111.709 191.359 111.702 191.372C108.981 200.437 112.471 216.483 123.957 224.822C127.473 227.374 131.733 229.207 136.8 229.896C161.936 233.318 165.915 248.301 165.915 248.301C165.189 250.203 164.52 252.217 163.976 254.307C163.238 257.135 162.725 260.075 162.637 262.978C162.637 262.978 164.551 263.253 167.46 261.827C167.849 261.64 168.256 261.421 168.675 261.164Z" fill="url(#paint4_linear_566_13768)"/>
<path d="M195.641 181.694C198.556 182.175 203.442 183.153 208.245 184.893C210.241 185.616 211.836 183.119 210.311 181.642C204.239 175.761 196.328 170.289 193.632 178.294C193.12 179.813 194.059 181.432 195.641 181.694Z" fill="#FFDAB6"/>
<path d="M266.012 176.347C263.623 177.259 259.648 178.934 255.876 181.239C254.308 182.197 252.524 180.355 253.562 178.839C257.694 172.801 263.458 166.793 267.129 173.115C267.825 174.316 267.308 175.852 266.012 176.347Z" fill="#FFDAB6"/>
<path d="M280.506 242.497C280.187 242.441 279.843 242.347 279.493 242.222C277.366 241.503 274.945 239.82 274.945 239.82C278.417 248.09 276.609 257.987 274.714 264.362C273.575 268.197 272.406 270.756 272.337 270.912L272.331 270.918C270.423 269.41 268.377 266.777 268.377 266.777L268.371 266.796C268.108 268.354 267.77 269.868 267.37 271.325C263.11 287.021 251.993 296.818 248.765 299.389C248.196 299.846 247.87 300.077 247.87 300.077C224.004 290.824 211.504 269.06 211.504 269.06C211.804 276.698 208.72 279.363 208.72 279.363C196.089 268.809 195.47 250.461 195.47 250.461C193.105 254.934 190.29 255.841 190.29 255.841C188.67 251.424 188.038 247.577 188.088 244.236C188.113 242.703 188.313 241.221 188.67 239.794C190.616 232.087 197.197 226.25 205.136 225.143C205.142 225.137 205.142 225.137 205.142 225.137C206.412 224.956 207.719 224.899 209.052 224.974C225.643 225.931 235.145 230.592 240.582 235.597L240.588 235.584C240.694 235.371 241.664 233.495 243.622 231.155C244.022 230.667 244.479 230.16 244.973 229.641C248.633 225.831 254.707 221.533 263.684 221.183C268.401 221.002 271.829 222.065 274.313 223.81C282.476 229.522 280.506 242.497 280.506 242.497Z" fill="#FFDAB6"/>
<path d="M160.33 133.682C160.33 133.682 146.185 148.659 138.078 165.55C138.097 165.162 138.109 164.762 138.109 164.349V164.318C138.34 143.686 122.232 91.5181 140.355 63.4041C140.355 63.4041 140.355 63.4041 140.361 63.4101C140.361 63.4101 140.361 63.4161 140.367 63.4221C140.774 63.8221 151.427 74.5641 163.67 104.211L146.523 113C146.523 113 149.263 119.525 156.426 119.963L156.376 120.501C156.376 120.5 151.177 129.859 160.33 133.682Z" fill="#FFDAB6"/>
<path d="M274.225 141.589C261.131 126.343 245.992 120.306 245.992 120.306C253.63 115.383 247.85 108.182 247.85 108.182L247.331 108.094C250.772 104.503 251.316 98.791 251.316 98.791L233.662 99.26C236.946 73.016 245.711 61.549 245.986 61.193C245.992 61.187 245.992 61.187 245.992 61.187C245.992 61.187 265.735 73.637 274.225 141.589Z" fill="#FFDAB6"/>
<path d="M157.815 333.164C157.527 333.302 157.239 333.427 156.939 333.533C156.933 333.533 156.933 333.533 156.933 333.533C149.789 336.092 139.523 328.76 133.498 316.58C130.914 311.35 129.513 306.045 129.269 301.359C128.906 294.671 130.883 289.266 135.093 287.183C140.16 284.681 147.098 287.671 152.941 294.14C155.35 296.805 157.577 300.064 159.41 303.774C165.679 316.473 164.965 329.629 157.815 333.164Z" fill="#FFDAB6"/>
<path d="M307.544 316.173C300.919 326.007 291.366 331.406 285.085 329.254C284.441 329.035 283.834 328.735 283.265 328.353C277.159 324.243 278.123 312.119 285.423 301.277C287.362 298.399 289.546 295.903 291.829 293.87C298.154 288.221 305.21 286.075 309.696 289.097C315.808 293.213 314.838 305.331 307.544 316.173Z" fill="#FFDAB6"/>
<path d="M248.763 299.388C248.763 299.388 248.575 301.89 248.213 304.874C247.856 307.864 247.331 311.336 246.662 313.282C246.643 313.345 246.618 313.413 246.593 313.482C246.574 313.557 246.549 313.632 246.524 313.707C246.399 314.12 246.261 314.652 246.124 315.258C246.08 315.446 246.036 315.64 245.993 315.846C245.974 315.946 245.949 316.052 245.93 316.159C245.911 316.265 245.886 316.372 245.867 316.478C245.848 316.584 245.823 316.697 245.804 316.81C245.785 316.923 245.76 317.035 245.741 317.148C245.716 317.292 245.691 317.436 245.666 317.586C245.653 317.674 245.641 317.767 245.622 317.855C245.603 317.98 245.584 318.099 245.566 318.224C245.528 318.468 245.491 318.718 245.46 318.975C245.429 319.232 245.397 319.494 245.366 319.757C245.247 320.814 245.166 321.928 245.135 323.054C245.129 323.192 245.129 323.336 245.129 323.473C245.117 324.411 245.142 325.356 245.223 326.282C233.712 330.242 224.103 327.202 223.797 327.102C223.81 326.795 223.816 326.495 223.803 326.182C223.784 325.613 223.753 325.012 223.703 324.387C223.634 323.449 223.528 322.51 223.396 321.584C223.358 321.334 223.321 321.084 223.277 320.84C223.233 320.546 223.177 320.252 223.121 319.958C223.071 319.664 223.015 319.37 222.952 319.082C222.896 318.788 222.827 318.5 222.758 318.212C222.708 317.962 222.645 317.712 222.583 317.461C222.314 316.391 222.007 315.334 221.657 314.289C221.594 314.083 221.519 313.87 221.444 313.657C221.344 313.363 221.238 313.069 221.125 312.775C221.025 312.512 220.925 312.243 220.818 311.98C220.374 310.854 219.88 309.747 219.342 308.658C216.446 302.784 211.985 293.056 209.814 284.792L209.808 284.779C209.708 284.397 209.614 284.022 209.526 283.647C209.376 283.04 209.244 282.446 209.126 281.864C209.051 281.495 208.988 281.126 208.926 280.769C208.845 280.287 208.776 279.818 208.72 279.361C208.72 279.361 211.804 276.696 211.504 269.058C211.504 269.058 224.003 290.822 247.87 300.075C247.869 300.076 248.194 299.845 248.763 299.388Z" fill="#FFDAB6"/>
<path d="M243.174 201.68C243.174 201.68 254.35 183.779 294.187 174.52C294.519 174.701 294.856 174.864 295.207 175.002C295.207 175.002 295.557 182.622 292.792 185.737V185.743C294.112 186.006 295.626 186.3 297.265 186.6C297.265 186.6 295.194 205.649 274.312 223.81C271.828 222.065 268.4 221.001 263.683 221.183C247.518 221.815 240.768 235.227 240.58 235.597C235.144 230.592 225.641 225.932 209.05 224.974C199.428 224.417 190.927 230.848 188.668 239.794C188.418 239.75 181.486 238.543 172.371 235.321C158.733 230.504 140.228 221.195 131.977 204.561C131.977 204.561 133.754 203.454 136.062 202.378C136.062 202.378 133.384 200.038 130.769 195.615C130.769 195.615 131.564 194.32 132.633 191.78C143.328 190.07 182.125 185.411 233.635 202.61L238.447 205.266L243.174 201.68Z" fill="#FFDAB6"/>
<path d="M108.731 253.604C111.53 255.777 114.989 258.447 118.189 260.879C118.859 261.388 118.561 262.456 117.724 262.539C114.431 262.867 108.019 263.074 101.782 260.824C100.987 260.537 100.251 261.375 100.646 262.123C101.287 263.334 102.299 265.109 103.875 267.601C104.339 268.335 103.641 269.25 102.814 268.986C99.691 267.987 93.873 265.924 87.311 262.598C78.428 248.222 78.822 234.19 78.822 234.19C83.114 234.859 86.729 236.936 86.729 236.936C81.637 194.377 114.28 186.664 114.28 186.664C107.855 193.245 110.026 214.709 123.958 224.825C125.169 227.504 126.608 230.366 128.223 232.952C128.698 233.713 127.912 234.637 127.081 234.3C125.215 233.543 122.711 232.513 120.494 231.549C119.596 231.158 118.779 232.24 119.407 232.992C121.252 235.199 123.846 238.176 126.261 240.499C126.952 241.164 126.298 242.313 125.372 242.06C123.15 241.451 120.323 240.599 117.894 239.623C116.981 239.256 116.194 240.36 116.848 241.095C120.211 244.87 125.393 250.278 130.8 253.569C131.564 254.034 131.312 255.195 130.422 255.287C126.759 255.665 119.513 255.656 109.629 252.007C108.632 251.636 107.89 252.951 108.731 253.604Z" fill="#FFDAB6"/>
<path d="M245.985 61.1941C245.985 61.1941 245.979 61.2001 245.966 61.2191C245.434 61.9131 236.895 73.4301 233.661 99.2611C233.267 102.37 232.954 105.686 232.741 109.22C228.693 110.14 224.189 110.703 220.442 111.04C223.908 105.522 222.394 97.1831 222.394 97.1831C217.733 97.8151 212.847 98.8471 208.281 99.9861C208.28 99.9871 225.271 70.2221 245.985 61.1941Z" fill="#8E3410"/>
<path d="M187.515 114.68C187.522 115.422 187.516 116.19 187.508 116.844C187.498 117.616 186.599 118.035 186.007 117.541C185.506 117.124 184.967 116.633 184.474 116.168C183.888 115.615 182.931 116.033 182.929 116.839C182.928 117.572 182.897 118.325 182.862 118.956C182.822 119.675 182.007 120.065 181.417 119.652C180.625 119.096 179.792 118.441 179.067 117.845C178.427 117.319 177.483 117.852 177.584 118.674C177.691 119.55 177.75 120.44 177.782 121.154C177.813 121.851 177.09 122.328 176.464 122.02C173.696 120.657 168.875 117.792 168.875 117.792L163.669 104.21C151.377 74.4442 140.691 63.7412 140.36 63.4092C140.904 63.6032 169.331 73.9252 188.236 106.062C189.096 107.484 191.071 111.309 192.421 113.96C192.835 114.772 191.938 115.623 191.146 115.17L188.886 113.877C188.273 113.526 187.508 113.972 187.515 114.68Z" fill="#8E3410"/>
<path d="M223.801 326.182C223.814 326.495 223.807 326.795 223.795 327.102C223.42 334.059 216.031 338.688 209.519 335.723C204.184 333.293 199.738 329.564 196.037 325.097C195.847 324.868 195.776 324.562 195.842 324.272C196.105 323.117 196.813 319.965 197.424 316.91C197.566 316.199 198.417 315.9 198.971 316.367C199.635 316.926 200.474 317.667 201.258 318.458C201.87 319.075 202.922 318.615 202.885 317.747C202.847 316.87 202.823 315.922 202.839 315.112C202.855 314.3 203.814 313.881 204.422 314.419C205.373 315.259 206.66 316.444 207.752 317.617C208.321 318.228 209.344 317.87 209.4 317.037C209.481 315.838 209.619 314.407 209.848 313.255C209.992 312.53 210.875 312.245 211.422 312.742C212.341 313.577 213.663 314.819 214.772 316.018C215.369 316.663 216.443 316.226 216.421 315.348C216.394 314.254 216.381 313.009 216.414 311.917C216.438 311.113 217.39 310.704 217.995 311.233C219.145 312.239 220.826 314.079 222.489 317.23C222.528 317.304 222.559 317.384 222.579 317.465C223.144 319.735 223.521 322.052 223.7 324.387C223.751 325.012 223.782 325.613 223.801 326.182Z" fill="#8E3410"/>
<path d="M267.809 317.524C268.55 316.914 269.619 317.698 269.26 318.588C268.4 320.717 267.475 322.688 266.499 324.481C263.033 330.831 258.929 334.885 254.7 335.535C247.994 336.561 245.691 331.75 245.222 326.283C245.018 323.926 245.153 321.447 245.424 319.256C245.447 319.071 245.525 318.901 245.647 318.76L250.797 312.856C251.36 312.211 252.422 312.609 252.422 313.465V315.979C252.422 316.85 253.514 317.24 254.066 316.566L256.208 313.947C256.759 313.273 257.852 313.663 257.852 314.534V317.346C257.852 318.232 258.976 318.613 259.515 317.909L261.169 315.747C261.731 315.013 262.903 315.463 262.829 316.385L262.552 319.818C262.486 320.634 263.433 321.128 264.065 320.608L267.809 317.524Z" fill="#8E3410"/>
<path d="M147.177 319.309C150.7 319.309 153.557 316.453 153.557 312.929C153.557 309.406 150.7 306.549 147.177 306.549C143.653 306.549 140.797 309.406 140.797 312.929C140.797 316.453 143.653 319.309 147.177 319.309Z" fill="#FF80B4"/>
<path d="M137.577 309.367C139.133 309.367 140.395 308.105 140.395 306.549C140.395 304.993 139.133 303.731 137.577 303.731C136.02 303.731 134.759 304.993 134.759 306.549C134.759 308.105 136.02 309.367 137.577 309.367Z" fill="#FF80B4"/>
<path d="M148.032 305.114C149.588 305.114 150.85 303.852 150.85 302.296C150.85 300.74 149.588 299.478 148.032 299.478C146.476 299.478 145.214 300.74 145.214 302.296C145.214 303.852 146.476 305.114 148.032 305.114Z" fill="#FF80B4"/>
<path d="M140.797 302.908C142.353 302.908 143.615 301.646 143.615 300.09C143.615 298.534 142.353 297.272 140.797 297.272C139.24 297.272 137.979 298.534 137.979 300.09C137.979 301.646 139.24 302.908 140.797 302.908Z" fill="#FF80B4"/>
<path d="M295.293 316.365C298.476 316.365 301.056 313.785 301.056 310.602C301.056 307.419 298.476 304.839 295.293 304.839C292.11 304.839 289.53 307.419 289.53 310.602C289.53 313.785 292.11 316.365 295.293 316.365Z" fill="#FF80B4"/>
<path d="M295.296 302.735C296.702 302.735 297.842 301.595 297.842 300.189C297.842 298.783 296.702 297.643 295.296 297.643C293.89 297.643 292.75 298.783 292.75 300.189C292.75 301.595 293.89 302.735 295.296 302.735Z" fill="#FF80B4"/>
<path d="M303.723 308.478C305.129 308.478 306.269 307.338 306.269 305.932C306.269 304.526 305.129 303.386 303.723 303.386C302.317 303.386 301.177 304.526 301.177 305.932C301.177 307.338 302.317 308.478 303.723 308.478Z" fill="#FF80B4"/>
<path d="M301.768 301.931C303.174 301.931 304.314 300.791 304.314 299.385C304.314 297.979 303.174 296.839 301.768 296.839C300.362 296.839 299.222 297.979 299.222 299.385C299.222 300.791 300.362 301.931 301.768 301.931Z" fill="#FF80B4"/>
<g opacity="0.3">
<path d="M247.831 249.472C246.661 239.888 240.58 235.596 240.58 235.596C240.649 235.458 241.612 233.55 243.62 231.154C251.553 240.883 247.831 249.472 247.831 249.472Z" fill="#650000"/>
</g>
<g opacity="0.3">
<path d="M202.889 115.815C198.397 115.483 194.175 116.753 194.175 116.753C191.566 111.592 188.238 106.062 188.238 106.062C188.238 106.062 197.359 102.715 208.282 99.9879C212.843 98.8489 217.722 97.8169 222.377 97.1919C221.645 97.4989 198.273 107.339 197.679 110.354C197.077 113.419 202.889 115.815 202.889 115.815Z" fill="#650000"/>
</g>
<g opacity="0.3">
<path d="M279.256 318.689C276.464 318.13 273.399 317.015 270.632 314.897C269.409 318.468 268.017 321.696 266.499 324.48C274.269 331.255 285.085 329.253 285.085 329.253C284.441 329.034 283.834 328.734 283.265 328.352C280.497 326.49 279.187 322.978 279.256 318.689Z" fill="#650000"/>
</g>
<g opacity="0.3">
<path d="M297.265 186.6C297.265 186.6 295.194 205.649 274.312 223.81C271.828 222.065 268.4 221.001 263.683 221.183C247.518 221.815 240.768 235.227 240.58 235.597C235.144 230.592 225.641 225.932 209.05 224.974C199.428 224.417 190.927 230.848 188.668 239.794C188.418 239.75 181.486 238.543 172.371 235.321C158.733 230.504 140.228 221.195 131.977 204.561C131.977 204.561 133.754 203.454 136.062 202.378C136.062 202.378 133.384 200.038 130.769 195.615C130.769 195.615 131.564 194.32 132.633 191.78C134.591 187.132 137.469 178.292 138.076 165.549C145.927 149.184 159.452 134.62 160.284 133.725L160.315 133.694L160.327 133.681C160.327 133.681 160.327 133.687 160.321 133.694C159.754 134.835 128.134 198.744 176.842 221.434C178.123 222.031 179.613 221.967 180.848 221.28C187.324 217.679 210.029 207.457 236.12 223.624C237.75 224.634 239.857 224.452 241.299 223.187C246.028 219.04 257.461 211.104 271.757 215.686C273.38 216.206 275.155 215.775 276.328 214.54C281.191 209.419 293.431 195.978 297.265 186.6Z" fill="#650000"/>
</g>
<g opacity="0.3">
<path d="M274.225 141.589C261.131 126.343 245.992 120.306 245.992 120.306C253.63 115.383 247.85 108.182 247.85 108.182L247.331 108.094C250.772 104.503 251.316 98.7909 251.316 98.7909L233.662 99.2599C236.946 73.0159 245.711 61.5489 245.986 61.1929C245.986 61.1929 244.076 75.6349 242.745 89.3769C242.604 90.8319 243.746 92.0909 245.208 92.0909H255.831C257.256 92.0909 258.383 93.2889 258.301 94.7119C258.122 97.8179 257.448 103.074 255.027 107.054C254.629 107.709 254.545 108.502 254.818 109.218C255.443 110.856 256.348 114.041 255.463 117.125C255.179 118.113 255.467 119.172 256.271 119.813C260.512 123.197 272.799 133.593 274.225 141.589Z" fill="#650000"/>
</g>
<g opacity="0.3">
<path d="M245.967 61.2189C245.407 61.7789 230.85 76.6189 224.369 88.7339C223.879 89.6489 224.647 90.7289 225.672 90.5669L227.529 90.2739C228.23 90.1629 228.886 90.6519 228.97 91.3569C229.368 94.7239 229.509 104.062 220.443 111.042C223.909 105.524 222.395 97.1849 222.395 97.1849C217.734 97.8169 212.848 98.8489 208.282 99.9879C208.282 99.9879 225.273 70.2219 245.986 61.1949C245.986 61.1939 245.979 61.2009 245.967 61.2189Z" fill="#650000"/>
</g>
<g opacity="0.3">
<path d="M268.369 266.795L267.368 271.324C263.108 287.02 251.991 296.817 248.763 299.388C248.194 299.845 247.868 300.076 247.868 300.076C224.002 290.823 211.502 269.059 211.502 269.059C211.802 276.697 208.718 279.362 208.718 279.362C196.087 268.808 195.468 250.46 195.468 250.46C193.103 254.933 190.288 255.84 190.288 255.84C188.668 251.423 188.036 247.576 188.086 244.235C188.111 242.702 188.311 241.22 188.668 239.793C190.614 232.086 197.195 226.249 205.134 225.142C205.01 225.402 201.21 233.281 200.813 240.379C200.784 240.899 201.359 241.233 201.793 240.945C202.66 240.37 203.976 239.514 205.302 238.716C205.745 238.45 206.304 238.803 206.254 239.317C206.003 241.902 205.615 248.273 206.797 256.142C206.888 256.745 207.699 256.885 207.982 256.344C208.743 254.892 209.882 252.802 210.904 251.261C211.167 250.864 211.753 250.884 211.983 251.301C214.463 255.8 226.332 276.251 243.233 287.83C245.478 289.368 248.477 289.196 250.579 287.467C255.851 283.132 265.483 274.453 268.369 266.795Z" fill="#650000"/>
</g>
<g opacity="0.3">
<path d="M146.522 113C146.522 113 147.184 115.298 158.838 112.089C160.017 111.764 161.277 112.217 161.977 113.22L172.392 128.15C172.392 128.15 167.012 111.236 163.669 104.21L146.522 113Z" fill="#650000"/>
</g>
<g opacity="0.3">
<path d="M251.316 98.792C236.533 105.092 242.719 106.962 239.366 118.967C236.019 130.972 221.325 128.82 221.325 128.82C236.771 125.167 235.332 108.845 235.332 108.845L232.742 109.22C232.955 105.685 233.268 102.37 233.662 99.261L251.316 98.792Z" fill="#650000"/>
</g>
<g opacity="0.3">
<path d="M141.273 77.1588C141.559 76.6878 142.221 76.6318 142.601 77.0318C142.601 77.0318 141.86 76.2418 141.867 76.2478C142.218 76.5938 150.214 84.6638 160.273 105.95L163.67 104.209C151.427 74.5628 140.773 63.8218 140.366 63.4208C140.36 63.4148 140.36 63.4088 140.36 63.4088C140.354 63.4028 140.354 63.4028 140.354 63.4028C129.039 80.9548 131.068 107.883 134.132 130.659C132.313 111.593 132.595 91.4538 141.273 77.1588Z" fill="#650000"/>
</g>
<g opacity="0.3">
<path d="M138.078 165.549C141.363 150.438 149.804 138.675 152.352 135.379C152.743 134.873 152.76 134.159 152.357 133.662C149.973 130.722 150.141 126.641 150.429 124.559C150.526 123.857 150.065 123.229 149.383 123.038C146.748 122.298 144.388 119.484 143.033 117.559C142.344 116.58 142.637 115.222 143.676 114.628L146.523 113C146.523 113 149.263 119.525 156.426 119.963L156.376 120.501C156.376 120.501 151.177 129.86 160.33 133.682C160.33 133.682 146.185 148.658 138.078 165.549Z" fill="#650000"/>
</g>
<g opacity="0.3">
<path d="M195.844 324.274L195.794 324.799C195.775 324.774 195.756 324.755 195.738 324.73C181.662 326.607 175.475 331.912 169.713 333.532C164.051 335.115 157.189 333.588 156.938 333.532C157.238 333.426 157.526 333.301 157.814 333.163C161.955 331.117 163.939 325.837 163.651 319.287C168.768 319.813 175.287 319.131 176.338 318.173C176.887 317.669 178.039 317.155 179.248 316.714C181.398 315.929 182.558 313.598 181.853 311.42C173.64 286.047 177.752 269.709 177.752 269.709C180.298 308.716 195.844 324.274 195.844 324.274Z" fill="#650000"/>
</g>
<g opacity="0.3">
<path d="M248.213 304.874C229.724 299.562 218.674 287.257 215.206 282.868C214.604 282.106 213.478 282.011 212.77 282.676C211.335 284.026 209.814 284.792 209.814 284.792C209.795 284.779 209.783 284.773 209.764 284.761C198.266 277.761 193.686 268.27 192.11 263.966C191.791 263.09 190.69 262.796 190.002 263.428C189.789 263.628 189.564 263.81 189.358 263.979C188.707 264.492 187.75 264.286 187.369 263.554C182.252 253.751 182.258 247.132 182.464 244.874C182.514 244.336 182.226 243.835 181.745 243.592C173.274 239.232 172.374 235.322 172.374 235.322C181.489 238.544 188.42 239.751 188.671 239.795C188.314 241.221 188.114 242.704 188.089 244.237C188.039 247.578 188.671 251.425 190.291 255.842C190.291 255.842 193.106 254.935 195.471 250.462C195.471 250.462 196.09 268.811 208.721 279.364C208.721 279.364 211.805 276.699 211.505 269.061C211.505 269.061 224.004 290.825 247.871 300.078C247.871 300.078 248.196 299.847 248.766 299.39C252.294 296.575 265.25 285.139 268.372 266.803C271.841 293.839 248.213 304.874 248.213 304.874Z" fill="#650000"/>
</g>
<g opacity="0.3">
<path d="M266.499 324.48C263.033 330.83 258.929 334.884 254.7 335.534C247.994 336.56 245.691 331.749 245.222 326.282C233.711 330.242 224.102 327.202 223.796 327.102C223.421 334.059 216.032 338.688 209.52 335.723C204.065 333.239 199.542 329.398 195.795 324.8C195.776 324.775 195.757 324.756 195.739 324.731C195.701 324.737 195.658 324.744 195.62 324.75L195.845 324.275C195.845 324.275 189.889 316.649 188.382 312.889C188.745 313.246 204.61 328.754 222.583 317.462C222.583 317.462 232.743 322.83 245.667 317.587C245.667 317.586 252.823 328.309 266.499 324.48Z" fill="#650000"/>
</g>
<g opacity="0.3">
<path d="M164.477 280.927C164.152 283.567 163.914 286.345 163.814 289.153C160.699 290.292 156.926 291.912 152.941 294.139C147.098 287.67 140.16 284.68 135.093 287.182C130.883 289.265 128.906 294.67 129.269 301.358C109.194 297.886 99.065 282.715 99.065 282.715C101.48 281.508 106.097 281.138 106.097 281.138C97.307 275.745 91.346 269.133 87.311 262.595C78.428 248.219 78.822 234.187 78.822 234.187C83.114 234.856 86.729 236.933 86.729 236.933C81.637 194.374 114.28 186.661 114.28 186.661C114.28 186.661 114.274 186.667 114.267 186.674C113.611 187.126 91.884 204.256 98.82 248.118C98.945 248.91 98.333 249.629 97.532 249.61C96.683 249.589 95.591 249.523 94.551 249.346C93.484 249.164 92.688 250.311 93.23 251.248C96.798 257.413 106.053 271.027 120.809 276.524C121.859 276.915 122.864 275.862 122.438 274.825C122.23 274.319 122.02 273.755 121.824 273.146C121.448 271.977 122.749 270.987 123.764 271.68C130.367 276.189 147.891 286.469 163.813 281.138C164.04 281.064 164.265 280.996 164.477 280.927Z" fill="#650000"/>
</g>
<g opacity="0.3">
<path d="M159.41 303.773C158.979 302.901 158.524 302.055 158.053 301.235C161.377 311.737 159.899 321.399 153.928 324.351C153.64 324.489 153.352 324.614 153.052 324.72C153.046 324.72 153.046 324.72 153.046 324.72C146.413 327.095 137.092 320.943 130.97 310.303C131.627 312.378 132.464 314.484 133.499 316.579C139.523 328.759 149.789 336.091 156.934 333.532C156.934 333.532 156.934 333.532 156.94 333.532C157.24 333.426 157.528 333.301 157.816 333.163C164.965 329.629 165.679 316.473 159.41 303.773Z" fill="#650000"/>
</g>
<g opacity="0.3">
<path d="M291.821 320.41C291.177 320.191 290.57 319.891 290.001 319.509C284.399 315.738 284.752 305.219 290.488 295.136C288.693 296.911 286.979 298.969 285.423 301.277C278.122 312.118 277.159 324.242 283.265 328.353C283.834 328.735 284.441 329.035 285.085 329.254C291.366 331.406 300.919 326.007 307.544 316.173C308.144 315.281 308.697 314.381 309.21 313.477C303.35 319.278 296.628 322.057 291.821 320.41Z" fill="#650000"/>
</g>
<g opacity="0.3">
<path d="M171.921 286.739C168.136 287.327 163.813 289.154 163.813 289.154C163.869 287.465 163.982 285.782 164.132 284.137C169.2 284.205 171.921 286.739 171.921 286.739Z" fill="#650000"/>
</g>
<g opacity="0.7">
<path d="M294.187 174.52C293.274 174.032 292.435 173.4 291.753 172.812C290.671 171.88 289.864 170.666 289.451 169.302C285.998 157.847 280.342 148.72 274.23 141.601V141.595L274.224 141.589C261.337 126.581 246.467 120.5 246.004 120.313C255.112 127.795 262.241 135.349 267.785 142.344C268.289 142.979 268.502 143.822 268.279 144.601C267.658 146.771 268.572 150.249 270.817 153.494C272.893 156.493 275.553 158.495 277.721 158.926C278.544 159.09 279.274 159.566 279.671 160.306C284.291 168.91 285.788 174.52 285.788 174.52C295.041 180.25 295.206 175.002 295.206 175.002C294.857 174.864 294.519 174.702 294.187 174.52Z" fill="white"/>
</g>
<g opacity="0.7">
<path d="M247.831 249.472C247.831 249.472 232.863 228.382 207.25 231.5C200.591 232.311 194.755 236.539 192.241 242.758C190.91 246.05 190.054 250.326 190.289 255.84C188.669 251.423 188.037 247.576 188.087 244.235C188.112 242.702 188.312 241.22 188.669 239.793C190.615 232.086 197.196 226.249 205.135 225.142C205.141 225.136 205.141 225.136 205.141 225.136C206.411 224.955 207.718 224.898 209.051 224.973C225.642 225.93 235.144 230.591 240.581 235.596C240.581 235.596 246.592 240.088 247.831 249.472Z" fill="white"/>
</g>
<g opacity="0.7">
<path d="M280.506 242.497C280.187 242.441 279.843 242.347 279.493 242.222C278.342 237.361 276.14 232.144 271.998 228.559C262.076 219.976 240.581 235.597 240.581 235.597L240.587 235.584C240.693 235.371 241.663 233.495 243.621 231.155C244.021 230.667 244.478 230.16 244.972 229.641C248.632 225.831 254.706 221.533 263.683 221.183C268.4 221.002 271.828 222.065 274.312 223.81C282.476 229.522 280.506 242.497 280.506 242.497Z" fill="white"/>
</g>
<g opacity="0.7">
<path d="M136.801 229.897C131.734 229.209 127.473 227.376 123.958 224.823C112.472 216.484 108.981 200.437 111.703 191.373C108.032 199.514 103.803 216.713 123.93 230.791C126.987 232.929 130.438 234.443 134.067 235.306C134.132 235.321 134.197 235.337 134.262 235.352C135.188 235.569 135.94 236.194 136.428 237.011C137.477 238.766 140.92 241.094 145.342 242.871C149.247 244.44 152.899 245.169 155.058 244.946C156.06 244.842 157.053 245.241 157.747 245.97C159.893 248.226 162.028 250.978 163.977 254.306C164.521 252.217 165.191 250.202 165.916 248.3C165.916 248.302 161.938 233.319 136.801 229.897Z" fill="white"/>
</g>
<g opacity="0.7">
<path d="M274.719 264.361H274.713C273.537 268.321 272.33 270.917 272.33 270.917C272.056 270.7 271.779 270.459 271.506 270.207C272.103 276.041 272.23 281.847 271.953 287.464C271.434 298.105 269.482 308.052 266.654 316.166L266.648 316.172C265.466 319.575 264.121 322.653 262.663 325.331C259.852 330.481 256.622 334.12 253.245 335.658C253.708 335.646 254.187 335.612 254.701 335.534C258.93 334.883 263.034 330.83 266.5 324.48C267.958 321.802 269.303 318.725 270.485 315.321L270.491 315.315C273.319 307.201 275.271 297.254 275.79 286.613C276.145 279.394 275.845 271.862 274.719 264.361Z" fill="white"/>
</g>
<path d="M238.733 234.704C238.931 234.313 239.083 234.047 239.264 233.738C239.439 233.44 239.619 233.151 239.803 232.865C240.172 232.295 240.558 231.743 240.959 231.203C241.765 230.127 242.637 229.105 243.57 228.139C245.437 226.21 247.555 224.507 249.881 223.126C251.046 222.44 252.259 221.834 253.507 221.306C254.763 220.798 256.049 220.366 257.359 220.028C259.993 219.374 262.665 219.065 265.383 219.123C268.098 219.168 270.926 219.718 273.538 220.973C274.828 221.631 276.049 222.455 277.123 223.449C278.179 224.459 279.082 225.61 279.815 226.837C281.295 229.3 282.055 232.016 282.458 234.691C282.654 236.034 282.751 237.378 282.767 238.719C282.777 239.39 282.761 240.06 282.728 240.732C282.692 241.418 282.644 242.044 282.54 242.809C282.389 243.918 281.368 244.694 280.259 244.543L280.169 244.529L280.15 244.525C279.431 244.391 278.836 244.185 278.267 243.965C277.699 243.744 277.183 243.493 276.673 243.235C276.165 242.976 275.68 242.702 275.202 242.417C274.717 242.126 274.274 241.85 273.772 241.508L276.84 239.022C277.389 240.372 277.835 241.755 278.167 243.157C278.48 244.561 278.705 245.976 278.832 247.391C278.946 248.806 278.988 250.219 278.951 251.624C278.906 253.027 278.797 254.422 278.632 255.805C278.281 258.567 277.723 261.283 276.978 263.937C276.607 265.265 276.194 266.579 275.738 267.881C275.506 268.531 275.271 269.179 275.017 269.824C274.758 270.479 274.511 271.091 274.195 271.787C273.728 272.813 272.518 273.267 271.491 272.8C271.337 272.73 271.196 272.643 271.068 272.542L271.056 272.532C270.174 271.826 269.441 271.094 268.739 270.347C268.392 269.972 268.054 269.594 267.725 269.21C267.392 268.82 267.084 268.45 266.747 268.019L270.402 267.107C269.719 270.511 268.915 273.911 267.582 277.119L267.116 278.334C266.963 278.74 266.759 279.123 266.583 279.519L265.485 281.874C264.645 283.385 263.867 284.935 262.909 286.374C261.077 289.302 259.005 292.076 256.696 294.635C256.118 295.275 255.52 295.895 254.932 296.526C254.32 297.134 253.713 297.747 253.084 298.339C252.449 298.926 251.815 299.514 251.148 300.075C250.823 300.361 250.481 300.637 250.14 300.913C249.972 301.052 249.799 301.189 249.618 301.326C249.44 301.463 249.269 301.597 249.056 301.75L249.006 301.786C248.438 302.195 247.721 302.248 247.121 301.991L244.242 300.75L242.803 300.128C242.329 299.91 241.874 299.654 241.408 299.419L238.63 297.975C237.725 297.459 236.844 296.901 235.95 296.366L234.615 295.554C234.18 295.268 233.758 294.964 233.329 294.67C232.476 294.074 231.614 293.49 230.77 292.883C229.136 291.599 227.466 290.357 225.927 288.963C222.794 286.24 219.845 283.311 217.148 280.163L215.158 277.774C214.522 276.954 213.877 276.143 213.257 275.309C212.643 274.47 212.028 273.634 211.445 272.767C210.848 271.899 210.298 271.049 209.719 270.081L213.557 268.976L213.577 270.452C213.556 270.949 213.543 271.444 213.511 271.942C213.421 272.94 213.31 273.943 213.07 274.948C212.842 275.951 212.537 276.956 212.09 277.941C211.858 278.433 211.611 278.92 211.3 279.4C211.151 279.64 210.979 279.879 210.798 280.118C210.697 280.24 210.611 280.355 210.496 280.481C210.371 280.617 210.309 280.697 210.065 280.918C209.312 281.601 208.181 281.603 207.427 280.962L207.402 280.94C205.186 279.06 203.201 276.913 201.547 274.554C200.706 273.384 199.95 272.16 199.256 270.907C198.555 269.658 197.937 268.369 197.373 267.061C196.238 264.447 195.375 261.738 194.707 258.99C194.376 257.615 194.101 256.228 193.88 254.829C193.769 254.13 193.673 253.427 193.594 252.719C193.515 251.997 193.448 251.328 193.411 250.526L197.285 251.417L196.764 252.341C196.571 252.642 196.39 252.947 196.185 253.243C195.775 253.834 195.337 254.414 194.837 254.959C194.338 255.505 193.796 256.026 193.184 256.499C192.875 256.734 192.558 256.962 192.206 257.171C192.035 257.277 191.849 257.378 191.658 257.477C191.555 257.526 191.465 257.574 191.352 257.623C191.234 257.674 191.158 257.71 190.947 257.784L190.917 257.794C189.902 258.138 188.803 257.629 188.401 256.652L188.358 256.546C186.814 252.778 185.749 248.683 185.691 244.392C185.693 243.854 185.736 243.301 185.761 242.755L185.807 241.933C185.838 241.661 185.888 241.39 185.929 241.118C186.02 240.576 186.09 240.029 186.205 239.492L186.634 237.896C186.757 237.356 186.994 236.856 187.18 236.337C187.383 235.824 187.572 235.304 187.842 234.823C188.095 234.333 188.344 233.841 188.607 233.356L189.507 231.969C189.791 231.495 190.162 231.084 190.499 230.649C190.845 230.22 191.178 229.78 191.577 229.399C191.962 229.006 192.343 228.607 192.737 228.222L194 227.156C194.409 226.784 194.888 226.506 195.338 226.188C195.795 225.88 196.244 225.56 196.738 225.312C197.223 225.049 197.705 224.781 198.194 224.529L199.717 223.884C200.218 223.65 200.755 223.515 201.28 223.345C201.809 223.188 202.329 222.999 202.875 222.909L204.498 222.583C205.045 222.513 205.595 222.467 206.144 222.412C206.419 222.39 206.693 222.35 206.968 222.345L207.795 222.348C208.336 222.361 208.92 222.35 209.425 222.389L212.419 222.641C216.408 223.052 220.402 223.683 224.326 224.744C225.311 224.981 226.276 225.331 227.25 225.624C228.22 225.935 229.174 226.318 230.134 226.667C232.025 227.467 233.911 228.294 235.695 229.361C237.478 230.413 239.233 231.554 240.794 232.961C242.359 234.354 243.775 235.935 244.921 237.698C246.073 239.453 246.966 241.376 247.494 243.384C247.764 244.384 247.947 245.403 248.019 246.426C248.081 247.448 248.076 248.477 247.865 249.468C247.564 248.51 247.196 247.611 246.776 246.746C246.37 245.878 245.91 245.05 245.421 244.255C244.449 242.661 243.327 241.207 242.09 239.881C239.611 237.243 236.727 235.032 233.495 233.312C231.897 232.427 230.173 231.747 228.452 231.085C227.568 230.801 226.699 230.483 225.803 230.231C224.9 229.996 224.019 229.705 223.099 229.52C219.465 228.65 215.727 228.088 211.952 227.775L209.113 227.585C208.645 227.557 208.252 227.585 207.819 227.578L207.183 227.573C206.971 227.576 206.762 227.612 206.551 227.628C206.13 227.673 205.708 227.704 205.288 227.754L204.044 228.007C203.624 228.068 203.227 228.223 202.821 228.342C202.419 228.474 202.003 228.566 201.621 228.753C198.471 229.994 195.676 232.153 193.696 234.906L192.982 235.958L192.378 237.076C192.156 237.44 192.013 237.839 191.85 238.23C191.696 238.624 191.486 238.999 191.386 239.413L191.01 240.629C190.908 241.041 190.845 241.462 190.757 241.878C190.718 242.087 190.668 242.295 190.636 242.505L190.583 243.142C190.552 243.569 190.497 243.988 190.479 244.424C190.367 247.952 191.087 251.582 192.218 255.124L189.658 253.876L189.647 253.88C189.585 253.901 189.655 253.876 189.681 253.862C189.713 253.849 189.763 253.822 189.804 253.803C189.893 253.755 189.987 253.707 190.085 253.645C190.279 253.531 190.476 253.389 190.671 253.241C191.062 252.939 191.437 252.58 191.792 252.192C192.149 251.804 192.476 251.37 192.788 250.922C192.945 250.698 193.085 250.456 193.236 250.225L193.648 249.494L193.663 249.467C194.222 248.474 195.481 248.123 196.473 248.683C197.114 249.044 197.488 249.701 197.521 250.385C197.547 250.942 197.609 251.627 197.68 252.257C197.752 252.9 197.84 253.545 197.942 254.189C198.146 255.477 198.4 256.759 198.706 258.028C199.322 260.564 200.118 263.057 201.15 265.434C201.663 266.623 202.222 267.791 202.853 268.913C203.476 270.04 204.152 271.134 204.899 272.172C206.368 274.269 208.11 276.143 210.038 277.783L207.375 277.805C207.3 277.872 207.392 277.785 207.418 277.75C207.458 277.708 207.507 277.64 207.553 277.587C207.646 277.461 207.743 277.332 207.833 277.183C208.02 276.898 208.184 276.57 208.343 276.238C208.652 275.562 208.881 274.812 209.056 274.039C209.243 273.269 209.331 272.453 209.407 271.637C209.433 271.225 209.443 270.809 209.462 270.394L209.445 269.135V269.122C209.43 267.981 210.342 267.043 211.484 267.028C212.244 267.018 212.916 267.423 213.283 268.03C213.745 268.798 214.291 269.652 214.843 270.45C215.389 271.264 215.974 272.058 216.555 272.853C217.142 273.644 217.758 274.417 218.363 275.197L220.26 277.474C222.832 280.476 225.645 283.269 228.622 285.855C230.085 287.183 231.67 288.355 233.217 289.575C234.016 290.149 234.832 290.7 235.637 291.264C236.042 291.542 236.442 291.831 236.852 292.101L238.112 292.865C238.955 293.369 239.785 293.897 240.637 294.383L243.249 295.739C243.686 295.96 244.114 296.203 244.559 296.407L245.908 296.988L248.605 298.153L246.671 298.394L247.105 298.064C247.257 297.95 247.41 297.828 247.563 297.701C247.869 297.452 248.177 297.206 248.477 296.941C249.087 296.429 249.674 295.882 250.263 295.339C250.847 294.789 251.413 294.216 251.983 293.651C252.531 293.062 253.09 292.483 253.629 291.886C255.787 289.495 257.719 286.904 259.421 284.183C260.315 282.845 261.029 281.407 261.812 280.008L262.826 277.831C262.989 277.466 263.18 277.112 263.319 276.737L263.747 275.617C264.982 272.659 265.707 269.536 266.343 266.413L266.354 266.36C266.581 265.244 267.67 264.524 268.786 264.751C269.285 264.853 269.707 265.129 269.999 265.501C270.252 265.825 270.556 266.192 270.846 266.531C271.14 266.875 271.44 267.211 271.744 267.539C272.351 268.19 272.984 268.809 273.6 269.3L270.462 270.046C270.698 269.528 270.953 268.905 271.183 268.32C271.418 267.725 271.637 267.119 271.854 266.514C272.279 265.299 272.666 264.068 273.012 262.828C273.709 260.348 274.224 257.826 274.546 255.298C274.697 254.033 274.795 252.768 274.836 251.506C274.869 250.245 274.83 248.99 274.731 247.747C274.62 246.506 274.423 245.284 274.158 244.085C273.874 242.892 273.498 241.733 273.045 240.611L273.04 240.599C272.614 239.544 273.124 238.343 274.179 237.916C274.838 237.65 275.564 237.756 276.113 238.125C276.467 238.366 276.901 238.64 277.304 238.88C277.716 239.125 278.132 239.36 278.547 239.571C278.961 239.78 279.377 239.982 279.775 240.135C280.17 240.29 280.56 240.414 280.861 240.47L278.471 242.187C278.536 241.708 278.591 241.08 278.618 240.513C278.647 239.931 278.661 239.345 278.652 238.76C278.638 237.59 278.553 236.423 278.386 235.281C278.045 233.004 277.401 230.789 276.279 228.937C275.724 228.01 275.062 227.172 274.304 226.442C273.529 225.73 272.653 225.141 271.709 224.654C269.785 223.738 267.578 223.264 265.276 223.23C262.972 223.179 260.61 223.451 258.371 224.009C257.249 224.299 256.151 224.669 255.078 225.101C254.012 225.553 252.975 226.07 251.976 226.658C249.982 227.842 248.15 229.312 246.524 230.992C245.712 231.832 244.951 232.725 244.251 233.659C243.904 234.127 243.57 234.605 243.256 235.089C243.1 235.331 242.948 235.575 242.805 235.819C242.667 236.051 242.512 236.333 242.426 236.501L242.395 236.561C241.879 237.573 240.641 237.975 239.63 237.459C238.622 236.948 238.217 235.716 238.733 234.704Z" fill="#650000"/>
<path d="M188.308 241.954C186.787 241.68 185.392 241.368 183.954 241.028C182.528 240.689 181.112 240.32 179.703 239.928C176.885 239.144 174.098 238.26 171.341 237.279C165.831 235.315 160.445 232.957 155.297 230.098C150.156 227.237 145.245 223.862 140.874 219.8C136.511 215.747 132.705 210.963 130.014 205.535L130.011 205.53C129.508 204.514 129.876 203.29 130.818 202.703C131.749 202.106 132.659 201.672 133.63 201.26C134.597 200.864 135.587 200.512 136.612 200.244C137.638 199.982 138.682 199.747 139.771 199.689C140.85 199.646 142.02 199.763 143.033 200.34L140.416 201.955C139.59 202.443 138.763 202.907 137.955 203.419L135.533 204.95C134.736 205.454 133.9 205.983 133.13 206.422L133.935 203.589C136.354 208.471 139.808 212.835 143.855 216.595C147.906 220.362 152.531 223.55 157.424 226.272C162.323 228.994 167.497 231.262 172.809 233.155C175.466 234.1 178.158 234.954 180.875 235.71C182.234 236.088 183.598 236.443 184.967 236.768C186.324 237.09 187.734 237.402 189.041 237.637L189.082 237.644C190.272 237.858 191.063 238.996 190.849 240.187C190.637 241.377 189.498 242.168 188.308 241.954Z" fill="#650000"/>
<path d="M134.961 203.638C134.579 203.363 134.298 203.145 133.991 202.886C133.692 202.636 133.408 202.374 133.128 202.111C132.575 201.577 132.046 201.022 131.551 200.441C131.052 199.862 130.585 199.258 130.14 198.639C129.692 198.021 129.289 197.374 128.885 196.727C128.463 196.051 128.473 195.227 128.841 194.579L128.905 194.468C129.019 194.269 129.193 193.953 129.336 193.675C129.486 193.391 129.628 193.087 129.775 192.794C130.057 192.192 130.335 191.584 130.591 190.961C130.862 190.348 131.09 189.707 131.341 189.08L132.02 187.161C132.885 184.583 133.58 181.933 134.132 179.251C134.437 177.917 134.634 176.556 134.877 175.207C135.051 173.845 135.287 172.492 135.402 171.121L135.611 169.07L135.749 167.01L135.816 165.98C135.843 165.633 135.859 165.295 135.858 164.969C135.864 164.306 135.898 163.655 135.863 162.974C135.798 160.282 135.546 157.526 135.22 154.764C134.892 152 134.518 149.228 134.114 146.448C133.313 140.89 132.459 135.305 131.713 129.694C130.969 124.082 130.351 118.434 129.948 112.753C129.551 107.072 129.369 101.354 129.593 95.6159C129.838 89.8809 130.487 84.1199 131.825 78.4519C133.163 72.7929 135.339 67.2379 138.512 62.2119L138.518 62.2029C139.071 61.3269 140.153 60.9869 141.087 61.3339C141.945 61.6519 142.664 61.9579 143.428 62.2909C144.18 62.6189 144.919 62.9629 145.655 63.3129C147.122 64.0179 148.559 64.7709 149.982 65.5469C152.815 67.1189 155.565 68.8249 158.229 70.6539C160.893 72.4839 163.471 74.4349 165.957 76.4959C168.443 78.5589 170.811 80.7589 173.093 83.0409C175.384 85.3159 177.549 87.7149 179.614 90.1939C181.699 92.6579 183.624 95.2529 185.456 97.9069C189.068 103.25 192.192 108.921 194.671 114.849C194.758 114.929 194.771 115.043 194.824 115.138C194.837 115.166 194.812 115.136 194.807 115.138C194.786 115.127 194.762 115.122 194.74 115.121C194.718 115.12 194.691 115.132 194.672 115.145C194.674 115.155 194.545 115.203 194.88 115.138C195.801 114.983 196.709 114.959 197.608 114.983C199.403 115.029 201.16 115.258 202.887 115.671C202.968 115.69 203.018 115.772 202.999 115.853C202.986 115.908 202.943 115.949 202.892 115.963C201.19 116.435 199.517 116.848 197.91 117.329L195.574 118.065C195.495 118.101 194.945 118.266 194.515 118.241C194.068 118.233 193.618 118.128 193.22 117.919C192.819 117.715 192.467 117.419 192.192 117.063C192.057 116.894 191.93 116.674 191.849 116.509C191.809 116.411 191.729 116.332 191.723 116.219C188.854 110.677 185.659 105.334 182.069 100.271C178.436 95.2439 174.477 90.4449 170.041 86.1109C167.834 83.9369 165.545 81.8429 163.145 79.8829C160.759 77.9079 158.291 76.0319 155.74 74.2779C153.19 72.5229 150.559 70.8889 147.86 69.3869C146.506 68.6469 145.14 67.9299 143.756 67.2629C143.064 66.9319 142.369 66.6089 141.671 66.3039C140.986 66.0049 140.245 65.6989 139.619 65.4669L142.194 64.5889C139.364 69.1069 137.365 74.1809 136.126 79.4809C134.887 84.7869 134.275 90.2729 134.052 95.7909C133.667 106.851 134.745 117.998 136.212 129.102C136.937 134.662 137.773 140.219 138.566 145.814C138.965 148.61 139.339 151.422 139.668 154.254C139.994 157.087 140.255 159.949 140.32 162.889C140.354 163.616 140.319 164.373 140.308 165.119C140.306 165.498 140.288 165.863 140.259 166.218L140.187 167.296L140.037 169.452L139.813 171.604C139.688 173.041 139.438 174.466 139.25 175.897C138.992 177.319 138.779 178.749 138.454 180.161C137.864 182.994 137.121 185.803 136.187 188.565L135.451 190.627C135.178 191.308 134.931 191.994 134.632 192.669C134.35 193.347 134.041 194.021 133.724 194.693C133.555 195.029 133.397 195.363 133.218 195.701C133.035 196.047 132.877 196.352 132.63 196.759L132.65 194.5C132.987 195.083 133.34 195.657 133.702 196.225C134.053 196.802 134.442 197.35 134.813 197.915C135.198 198.467 135.584 199.021 135.986 199.559C136.181 199.834 136.387 200.097 136.587 200.363L137.161 201.113L137.269 201.255C137.832 201.991 137.693 203.044 136.957 203.607C136.359 204.067 135.546 204.057 134.961 203.638Z" fill="#650000"/>
<path d="M141.883 61.834C142.558 62.476 143.052 63.025 143.599 63.627C144.118 64.222 144.638 64.815 145.13 65.425L146.581 67.263L147.963 69.139C148.431 69.762 148.846 70.411 149.287 71.048C149.718 71.69 150.168 72.322 150.582 72.972L151.815 74.93C152.222 75.585 152.639 76.235 153.017 76.905C156.187 82.189 158.945 87.681 161.432 93.274C162.042 94.677 162.705 96.059 163.272 97.478L165.009 101.721C165.598 103.131 166.112 104.569 166.645 105.999L168.22 110.297C169.218 113.178 170.169 116.077 170.924 119.037C171.601 122.022 172.189 125.034 172.392 128.15C170.667 125.524 169.326 122.792 168.075 120.035C167.42 118.667 166.812 117.286 166.221 115.899L164.524 111.713C162.153 106.181 159.8 100.648 157.154 95.268C155.871 92.557 154.477 89.91 153.124 87.242L150.974 83.312C150.263 82 149.496 80.724 148.761 79.427C148.024 78.132 147.202 76.895 146.447 75.614C146.062 74.978 145.646 74.367 145.247 73.742C144.839 73.125 144.453 72.488 144.023 71.89L142.771 70.064L141.476 68.283L140.147 66.552C139.706 66.006 139.212 65.407 138.823 64.97L138.74 64.877C137.936 63.975 138.016 62.592 138.918 61.788C139.774 61.025 141.066 61.063 141.883 61.834Z" fill="#650000"/>
<path d="M164.675 106.16L147.519 114.951L148.539 112.154C148.547 112.148 148.601 112.236 148.634 112.288L148.759 112.48L149.027 112.878C149.212 113.144 149.407 113.408 149.605 113.669C150.007 114.186 150.438 114.676 150.892 115.131C151.803 116.04 152.822 116.796 153.979 117.345C155.13 117.915 156.428 118.222 157.836 118.408C159.251 118.625 160.778 118.741 162.54 119.002C161.324 120.306 159.742 121.122 158.004 121.516C157.135 121.715 156.224 121.772 155.306 121.727C154.386 121.701 153.456 121.537 152.551 121.278C150.732 120.765 149.038 119.776 147.672 118.501C146.981 117.869 146.378 117.158 145.851 116.4C145.581 116.025 145.342 115.629 145.121 115.219C145.008 115.015 144.901 114.807 144.804 114.588L144.658 114.254C144.605 114.129 144.573 114.04 144.502 113.853C144.051 112.797 144.5 111.582 145.505 111.064L145.522 111.055L162.678 102.264C163.754 101.712 165.074 102.138 165.625 103.214C166.176 104.289 165.751 105.608 164.675 106.16Z" fill="#650000"/>
<path d="M138.074 167.742C137.756 167.742 137.433 167.672 137.128 167.526C136.038 167.003 135.579 165.694 136.102 164.604C142.584 151.103 152.674 138.988 156.849 134.26C155.122 133.034 153.92 131.467 153.265 129.578C151.578 124.721 154.342 119.65 154.46 119.436C155.046 118.379 156.38 117.998 157.437 118.584C158.492 119.169 158.874 120.498 158.293 121.554C158.273 121.59 156.355 125.167 157.408 128.159C157.943 129.68 159.174 130.824 161.173 131.659C161.836 131.936 162.321 132.521 162.471 133.224C162.62 133.927 162.415 134.659 161.922 135.182C161.783 135.329 147.913 150.125 140.05 166.498C139.672 167.284 138.889 167.742 138.074 167.742Z" fill="#650000"/>
<path d="M221.903 112.792L218.328 110.263C220.577 107.084 220.655 102.38 220.472 99.681C205.612 102.055 189.165 108.054 188.992 108.117L187.483 104.006C188.241 103.728 206.229 97.165 222.101 95.013C223.253 94.859 224.34 95.639 224.549 96.791C224.621 97.19 226.272 106.616 221.903 112.792Z" fill="#650000"/>
<path d="M212.207 111.528C213.163 110.953 214.109 110.587 215.059 110.283C216.007 109.982 216.956 109.772 217.907 109.618L223.584 108.644L229.186 107.613L234.663 106.474L234.737 106.46C235.989 106.223 237.195 107.045 237.433 108.297C237.435 108.309 237.439 108.332 237.441 108.344C237.508 108.742 237.537 109.015 237.571 109.342C237.606 109.656 237.621 109.967 237.636 110.277C237.669 110.898 237.664 111.516 237.637 112.134C237.592 113.37 237.418 114.602 237.171 115.826C236.654 118.265 235.71 120.681 234.233 122.797C232.773 124.909 230.795 126.723 228.506 127.803C226.212 128.866 223.7 129.238 221.322 128.822C223.386 127.557 225.22 126.399 226.768 125.053C227.542 124.382 228.231 123.663 228.875 122.92C229.505 122.164 230.04 121.337 230.505 120.475C231.444 118.752 232.049 116.834 232.457 114.847C232.67 113.854 232.797 112.835 232.911 111.813C232.951 111.301 232.999 110.787 233.028 110.275L233.087 108.816L235.865 110.685C233.928 111.341 231.957 111.782 229.983 112.104C228.012 112.427 226.034 112.62 224.059 112.743C222.083 112.85 220.109 112.883 218.139 112.847C217.154 112.833 216.165 112.745 215.174 112.542C214.186 112.339 213.192 112.054 212.207 111.528Z" fill="#650000"/>
<path d="M274.239 143.913C273.151 143.913 272.207 143.102 272.069 141.994C264.895 84.4 249.486 67.194 245.67 63.743C226.402 72.983 210.348 100.787 210.185 101.073C209.585 102.123 208.248 102.488 207.198 101.888C206.148 101.288 205.783 99.951 206.383 98.901C207.091 97.66 223.98 68.394 245.115 59.182C245.78 58.893 246.544 58.95 247.158 59.337C248.001 59.868 267.906 73.142 276.415 141.452C276.564 142.652 275.713 143.746 274.513 143.896C274.42 143.908 274.329 143.913 274.239 143.913Z" fill="#650000"/>
<path d="M232.744 111.411C232.7 111.411 232.655 111.41 232.611 111.407C231.403 111.334 230.484 110.297 230.557 109.09C232.61 74.9869 243.794 60.4379 244.269 59.8349C245.018 58.8849 246.395 58.7219 247.344 59.4709C248.292 60.2189 248.456 61.5919 247.712 62.5419C247.586 62.7039 236.887 76.8119 234.928 109.354C234.858 110.515 233.894 111.411 232.744 111.411Z" fill="#650000"/>
<path d="M233.599 97.0731L251.259 96.6041H251.269C252.473 96.5721 253.475 97.5221 253.507 98.7261C253.509 98.8151 253.505 98.9151 253.497 99.0011C253.492 99.2691 253.478 99.4321 253.464 99.6411C253.45 99.8381 253.422 100.03 253.399 100.222C253.352 100.606 253.275 100.982 253.197 101.357C253.038 102.107 252.816 102.843 252.54 103.564C251.989 105.005 251.222 106.397 250.204 107.633C249.689 108.246 249.118 108.823 248.481 109.324C247.844 109.825 247.129 110.236 246.388 110.546C244.894 111.157 243.256 111.285 241.816 110.857C242.46 110.445 243.056 110.104 243.577 109.679C244.098 109.264 244.567 108.846 244.971 108.383C245.791 107.483 246.413 106.495 246.942 105.441C247.461 104.379 247.868 103.246 248.221 102.078C248.395 101.493 248.553 100.899 248.709 100.304L248.931 99.4111L249.036 98.9711C249.072 98.8381 249.108 98.6601 249.138 98.5841L251.376 100.981L233.716 101.45C232.507 101.482 231.501 100.528 231.469 99.3191C231.436 98.1111 232.39 97.1051 233.599 97.0731Z" fill="#650000"/>
<path d="M249.554 106.813C249.722 107.027 249.799 107.14 249.91 107.3C250.012 107.448 250.108 107.596 250.201 107.744C250.388 108.04 250.558 108.342 250.722 108.649C251.045 109.264 251.326 109.908 251.554 110.585C252.007 111.933 252.255 113.445 252.071 115.002C251.894 116.555 251.252 118.078 250.34 119.276C249.427 120.479 248.319 121.411 247.177 122.149L246.801 118.275C247.648 118.624 248.352 118.956 249.104 119.318C249.842 119.676 250.569 120.048 251.288 120.43C252.727 121.194 254.134 122.005 255.517 122.853C258.282 124.551 260.948 126.4 263.504 128.392C268.615 132.375 273.301 136.92 277.387 141.971C281.473 147.019 284.958 152.57 287.681 158.478C289.041 161.432 290.228 164.467 291.205 167.566L291.565 168.71C291.647 168.973 291.751 169.231 291.875 169.479C292.122 169.977 292.455 170.437 292.85 170.838C292.948 170.939 293.052 171.034 293.158 171.128L293.552 171.456C293.82 171.672 294.093 171.876 294.367 172.065C294.915 172.441 295.475 172.755 296.005 172.964L296.156 173.027C296.932 173.352 297.397 174.108 297.392 174.9C297.388 175.467 297.36 175.933 297.326 176.442C297.291 176.94 297.245 177.436 297.188 177.932C297.074 178.923 296.916 179.914 296.694 180.907C296.469 181.9 296.185 182.896 295.772 183.889C295.359 184.876 294.817 185.882 293.969 186.781C293.374 187.412 292.379 187.441 291.749 186.845C291.165 186.294 291.097 185.401 291.562 184.771L291.618 184.695C291.999 184.178 292.308 183.483 292.526 182.716C292.748 181.95 292.892 181.119 292.987 180.271C293.08 179.421 293.123 178.551 293.126 177.676C293.128 177.239 293.12 176.801 293.102 176.364C293.084 175.939 293.057 175.469 293.018 175.103L294.404 177.04H294.403C293.463 176.667 292.643 176.191 291.888 175.675C291.512 175.416 291.152 175.145 290.805 174.866C290.629 174.724 290.466 174.589 290.289 174.435C290.098 174.268 289.911 174.095 289.734 173.914C289.021 173.19 288.415 172.355 287.958 171.437C287.729 170.979 287.536 170.501 287.383 170.01L287.031 168.893C286.109 165.964 284.988 163.101 283.705 160.314C281.136 154.741 277.849 149.502 273.983 144.726C270.118 139.947 265.671 135.632 260.813 131.847C258.384 129.954 255.848 128.195 253.227 126.586C251.916 125.782 250.583 125.015 249.231 124.297C248.555 123.938 247.875 123.59 247.191 123.258C246.52 122.934 245.792 122.596 245.178 122.343L245.154 122.333C244.036 121.873 243.502 120.594 243.962 119.476C244.139 119.045 244.437 118.702 244.801 118.468C245.627 117.936 246.324 117.318 246.831 116.652C247.334 115.982 247.623 115.268 247.72 114.49C247.814 113.712 247.694 112.851 247.402 111.982C247.256 111.548 247.068 111.113 246.846 110.69C246.733 110.48 246.616 110.271 246.49 110.071L246.299 109.78L246.138 109.556L246.054 109.439C245.35 108.457 245.575 107.091 246.557 106.387C247.513 105.702 248.834 105.9 249.554 106.813Z" fill="#650000"/>
<path d="M287.009 184.504C287.955 184.283 288.863 184.193 289.765 184.134C290.667 184.072 291.549 184.091 292.433 184.098C293.315 184.11 294.192 184.143 295.065 184.19C295.936 184.25 296.804 184.313 297.66 184.444C298.795 184.619 299.581 185.661 299.447 186.793L299.442 186.834C299.403 187.158 299.36 187.382 299.319 187.644C299.28 187.904 299.225 188.137 299.178 188.385C299.087 188.879 298.97 189.353 298.857 189.83C298.751 190.311 298.617 190.778 298.487 191.247C298.355 191.715 298.234 192.188 298.078 192.645C297.785 193.568 297.491 194.49 297.141 195.388L296.634 196.742L296.073 198.071C294.565 201.61 292.73 204.985 290.677 208.212L289.056 210.576C288.78 210.966 288.525 211.371 288.233 211.748L287.359 212.881C286.771 213.632 286.205 214.401 285.598 215.135L283.726 217.295L282.789 218.373L281.794 219.396L279.803 221.44C279.479 221.789 279.124 222.105 278.773 222.425L277.721 223.386L275.617 225.307C274.806 226.048 273.548 225.99 272.807 225.179C272.071 224.373 272.123 223.125 272.92 222.383L273.006 222.303L274.996 220.45L275.992 219.524C276.324 219.216 276.661 218.912 276.965 218.577L278.841 216.614L279.78 215.634L280.659 214.602L282.417 212.538C282.986 211.837 283.513 211.104 284.064 210.39L284.882 209.312C285.156 208.954 285.392 208.569 285.648 208.199L287.157 205.957C289.061 202.901 290.753 199.719 292.126 196.414L292.637 195.174L293.094 193.916C293.411 193.081 293.672 192.232 293.934 191.383C294.075 190.96 294.179 190.532 294.295 190.106C294.41 189.68 294.528 189.253 294.618 188.827C294.715 188.401 294.817 187.973 294.89 187.553C294.927 187.344 294.977 187.125 295.004 186.926C295.034 186.73 295.073 186.497 295.087 186.359L296.869 188.749C295.151 188.365 293.474 187.772 291.819 187.108C290.993 186.767 290.168 186.429 289.363 186.002C288.559 185.581 287.763 185.118 287.009 184.504Z" fill="#650000"/>
<path d="M224.003 199.728C220.132 198.616 216.385 197.809 212.65 197.118C208.916 196.456 205.227 195.896 201.527 195.565L198.75 195.381C198.288 195.351 197.829 195.311 197.368 195.29L195.98 195.256L193.216 195.173C192.292 195.192 191.371 195.196 190.451 195.2L189.073 195.194C188.613 195.205 188.153 195.234 187.693 195.253C186.773 195.299 185.855 195.337 184.938 195.354C183.102 195.445 181.269 195.62 179.428 195.662L179.114 195.669C176.412 195.73 174.172 193.59 174.111 190.888C174.052 188.298 176.033 186.131 178.576 185.902C179.594 185.813 180.615 185.744 181.636 185.691C182.658 185.643 183.676 185.557 184.702 185.589C185.727 185.598 186.751 185.628 187.774 185.667C188.286 185.687 188.797 185.697 189.308 185.725L190.84 185.866C191.861 185.968 192.88 186.07 193.896 186.186C194.911 186.331 195.922 186.515 196.93 186.688L198.44 186.954C198.941 187.059 199.44 187.185 199.938 187.299C200.935 187.534 201.929 187.767 202.916 188.031C206.852 189.142 210.7 190.55 214.296 192.465L215.637 193.187L216.943 193.979C217.812 194.499 218.65 195.084 219.474 195.674C221.102 196.885 222.682 198.179 224.003 199.728Z" fill="#650000"/>
<path d="M248.083 196.201C249.063 193.576 250.701 191.264 252.562 189.199C253.495 188.159 254.524 187.216 255.581 186.294L257.211 184.959C257.765 184.526 258.34 184.119 258.917 183.71C259.486 183.288 260.088 182.919 260.69 182.545L261.594 181.982C261.894 181.79 262.198 181.606 262.517 181.449L264.411 180.46C265.041 180.122 265.706 179.864 266.361 179.577C267.023 179.31 267.67 178.989 268.352 178.776C269.027 178.538 269.71 178.322 270.392 178.095C271.068 177.846 271.771 177.707 272.468 177.535C273.165 177.363 273.868 177.216 274.569 177.06C276.512 176.626 278.438 177.85 278.872 179.793C279.306 181.736 278.082 183.662 276.139 184.096C276.101 184.105 276.062 184.113 276.024 184.12L275.76 184.169C275.158 184.28 274.557 184.401 273.951 184.497C273.347 184.606 272.733 184.676 272.139 184.83C270.945 185.114 269.725 185.33 268.548 185.706C266.152 186.333 263.813 187.214 261.505 188.224C260.939 188.498 260.35 188.738 259.781 189.016L258.086 189.889C256.977 190.512 255.869 191.155 254.767 191.832C252.549 193.179 250.357 194.61 248.083 196.201Z" fill="#650000"/>
<path d="M232.949 201.636L243.292 201.081C243.917 201.047 244.398 201.613 244.276 202.227C244.012 203.551 243.039 205.677 239.64 207.07C239.391 207.172 239.117 207.205 238.851 207.17C237.645 207.01 234.164 206.282 232.184 203.082C231.805 202.471 232.232 201.675 232.949 201.636Z" fill="#650000"/>
<path d="M225.144 214.415C226.407 215.182 227.706 215.854 229.038 216.217C229.698 216.412 230.365 216.514 231.01 216.522C231.655 216.531 232.283 216.46 232.869 216.258C234.045 215.872 235.045 215.084 235.895 214.131C236.32 213.652 236.693 213.117 237.043 212.567C237.216 212.291 237.379 212.007 237.531 211.72C237.672 211.443 237.837 211.116 237.925 210.896C238.224 210.15 239.071 209.787 239.817 210.086C239.994 210.157 240.15 210.259 240.28 210.383L240.757 210.841C240.821 210.981 240.938 211.224 241.046 211.417C241.157 211.621 241.267 211.83 241.391 212.027C241.637 212.424 241.888 212.819 242.182 213.163C242.754 213.866 243.434 214.43 244.249 214.648C245.058 214.881 246.034 214.711 246.952 214.261C247.875 213.816 248.746 213.149 249.543 212.403C248.984 213.339 248.353 214.27 247.47 215.03C247.042 215.423 246.53 215.749 245.964 216.014C245.396 216.279 244.739 216.422 244.069 216.42C242.71 216.422 241.427 215.822 240.425 215.061C239.923 214.671 239.459 214.247 239.057 213.777C238.853 213.544 238.661 213.303 238.477 213.053C238.294 212.789 238.135 212.566 237.953 212.224L237.952 212.222L240.784 212.167C240.565 212.609 240.376 212.921 240.147 213.273C239.924 213.612 239.689 213.941 239.442 214.261C238.952 214.904 238.383 215.492 237.768 216.036C236.549 217.125 234.996 217.974 233.309 218.227C231.622 218.492 229.929 218.093 228.578 217.333C227.207 216.582 226.079 215.561 225.144 214.415Z" fill="#650000"/>
<path d="M166.002 289.23L161.625 289.078C161.964 279.335 163.976 270.131 165.333 264.91C163.628 265.3 162.522 265.172 162.33 265.145C161.226 264.987 160.417 264.026 160.451 262.912C160.867 249.083 170.142 234.731 170.537 234.127L174.204 236.521C174.121 236.649 166.377 248.649 165.018 260.466C165.717 260.244 166.569 259.883 167.538 259.296C168.319 258.823 169.312 258.884 170.03 259.451C170.747 260.018 171.037 260.971 170.757 261.84C170.713 261.97 166.487 275.244 166.002 289.23Z" fill="#650000"/>
<path d="M171.924 286.738C170.389 287.684 168.876 288.472 167.366 289.259C166.609 289.641 165.854 290.013 165.098 290.378C164.339 290.733 163.588 291.103 162.844 291.483C162.099 291.861 161.35 292.223 160.615 292.614C159.878 292.999 159.134 293.364 158.408 293.766C156.93 294.515 155.491 295.325 154.004 296.052L153.96 296.073C152.873 296.604 151.561 296.154 151.03 295.067C150.529 294.041 150.909 292.811 151.867 292.229C153.371 291.322 154.945 290.536 156.557 289.848C158.17 289.158 159.828 288.581 161.501 288.069C163.182 287.58 164.873 287.129 166.613 286.876C168.355 286.643 170.124 286.498 171.924 286.738Z" fill="#650000"/>
<path d="M153.907 336.24C146.227 336.24 137.191 328.991 131.536 317.547C128.337 311.074 126.753 304.248 127.074 298.327C127.42 291.952 129.923 287.298 134.123 285.223C142.484 281.088 154.456 288.812 161.371 302.804C168.285 316.796 167.149 330.994 158.785 335.128C157.261 335.88 155.617 336.24 153.907 336.24ZM139.032 288.484C137.971 288.484 136.973 288.698 136.063 289.148C133.342 290.492 131.703 293.836 131.447 298.564C131.166 303.746 132.592 309.798 135.462 315.606C141.094 327.003 150.885 334.143 156.844 331.202C162.802 328.258 163.076 316.141 157.445 304.744C152.672 295.087 144.913 288.484 139.032 288.484Z" fill="#650000"/>
<path d="M288.042 331.923C285.813 331.923 283.781 331.34 282.044 330.17C278.406 327.72 276.662 323.102 277.135 317.166C277.572 311.683 279.87 305.607 283.607 300.057C287.344 294.507 292.109 290.092 297.025 287.625C302.348 284.955 307.283 284.833 310.921 287.283C318.141 292.145 317.455 305.372 309.359 317.396C305.622 322.946 300.857 327.361 295.941 329.828C293.159 331.223 290.482 331.923 288.042 331.923ZM304.903 289.91C303.155 289.91 301.148 290.455 298.988 291.538C294.735 293.673 290.562 297.566 287.239 302.501C283.916 307.437 281.878 312.768 281.5 317.512C281.159 321.803 282.22 325.008 284.49 326.536C286.761 328.064 290.129 327.842 293.976 325.912C298.229 323.777 302.403 319.883 305.726 314.949C312.226 305.294 313.485 294.288 308.475 290.914C307.478 290.244 306.27 289.91 304.903 289.91Z" fill="#650000"/>
<path d="M163.824 336.439C159.869 336.439 156.645 335.711 156.443 335.665C155.264 335.393 154.529 334.218 154.801 333.04C155.073 331.861 156.248 331.127 157.426 331.398C157.539 331.424 164.003 332.86 169.122 331.423C170.821 330.946 172.668 330.064 174.808 329.042C179.373 326.86 185.626 323.872 195.451 322.562C196.643 322.4 197.751 323.244 197.911 324.443C198.071 325.642 197.229 326.743 196.03 326.903C186.891 328.122 181.238 330.823 176.697 332.994C174.375 334.104 172.369 335.062 170.306 335.641C168.163 336.239 165.893 336.439 163.824 336.439Z" fill="#650000"/>
<path d="M177.755 269.713C179.422 275.709 180.694 281.594 182.048 287.47C183.343 293.35 184.995 299.144 187.153 304.711C189.314 310.271 192.001 315.608 195.377 320.389C195.776 321.005 196.25 321.558 196.689 322.14C197.133 322.718 197.573 323.299 198.064 323.831C198.546 324.371 199.011 324.931 199.506 325.456L201.037 326.983C203.14 328.942 205.408 330.7 207.873 332.103C208.489 332.452 209.134 332.745 209.76 333.074L210.233 333.315C210.388 333.392 210.557 333.49 210.685 333.524C210.958 333.621 211.229 333.723 211.498 333.83C212.604 334.148 213.763 334.219 214.892 334.026C217.145 333.651 219.269 332.192 220.348 330.175C220.895 329.174 221.196 328.061 221.249 326.917L221.265 326.486L221.276 326.27L221.261 326L221.203 324.921C221.164 324.202 221.09 323.493 221.009 322.781C220.667 319.937 219.998 317.129 219.05 314.413C218.578 313.054 218.027 311.722 217.415 310.417L216.438 308.375L215.452 306.279C214.153 303.477 212.91 300.645 211.749 297.77C210.6 294.89 209.533 291.965 208.612 288.966C207.705 285.961 206.938 282.885 206.549 279.632C206.406 278.431 207.263 277.342 208.463 277.198C209.641 277.057 210.712 277.88 210.888 279.045L210.895 279.094C211.314 281.896 212.117 284.744 213.046 287.555C213.975 290.373 215.058 293.167 216.228 295.932C217.387 298.702 218.629 301.448 219.929 304.168L220.916 306.203L221.939 308.278C222.635 309.731 223.25 311.224 223.786 312.745C224.858 315.788 225.621 318.95 226.018 322.166C226.113 322.969 226.199 323.779 226.245 324.583L226.314 325.79L226.331 326.092L226.324 326.448L226.304 327.161C226.21 329.059 225.676 330.958 224.742 332.628C222.882 335.989 219.463 338.322 215.706 338.934C213.828 339.244 211.869 339.109 210.047 338.559L208.72 338.056C208.483 337.973 208.322 337.876 208.135 337.783L207.589 337.503C206.865 337.122 206.122 336.772 205.42 336.355C202.599 334.691 200.048 332.647 197.725 330.409L196.042 328.676C195.501 328.083 194.997 327.46 194.474 326.853C193.94 326.253 193.467 325.611 192.991 324.971C192.521 324.328 192.013 323.708 191.59 323.037C187.98 317.793 185.318 312.049 183.2 306.188C182.125 303.258 181.245 300.273 180.435 297.278C179.635 294.279 178.942 291.258 178.389 288.214C177.843 285.169 177.483 282.092 177.345 279.001C177.22 275.913 177.262 272.803 177.755 269.713Z" fill="#650000"/>
<path d="M252.98 337.861C249.369 337.861 247.179 336.232 245.93 334.734C240.677 328.438 243.763 314.96 244.589 312.567C245.613 309.596 246.374 301.926 246.581 299.221C246.673 298.015 247.727 297.115 248.931 297.205C250.137 297.297 251.039 298.349 250.947 299.555C250.915 299.975 250.145 309.888 248.729 313.995C247.569 317.358 245.986 327.965 249.293 331.929C249.998 332.774 251.291 333.843 254.372 333.37C265.117 331.725 277.799 299.623 272.552 264.684C272.373 263.488 273.197 262.373 274.392 262.193C275.588 262.017 276.703 262.838 276.883 264.033C281.9 297.439 270.669 335.304 255.035 337.698C254.303 337.81 253.619 337.861 252.98 337.861Z" fill="#650000"/>
<path d="M232.998 330.506C227.237 330.506 223.364 329.266 223.104 329.18C221.956 328.802 221.331 327.564 221.709 326.415C222.086 325.268 223.323 324.643 224.469 325.019C224.571 325.052 233.713 327.924 244.511 324.21C245.657 323.814 246.901 324.426 247.294 325.568C247.688 326.712 247.079 327.958 245.936 328.351C241.151 329.997 236.687 330.506 232.998 330.506Z" fill="#650000"/>
<path d="M291.83 296.061C291.528 296.061 291.222 295.999 290.929 295.866L274.887 288.611C273.785 288.112 273.296 286.816 273.794 285.714C274.293 284.612 275.588 284.124 276.691 284.621L292.733 291.876C293.835 292.375 294.324 293.671 293.826 294.773C293.46 295.582 292.664 296.061 291.83 296.061Z" fill="#650000"/>
<path d="M281.299 331.725C277.085 331.725 270.464 330.84 265.06 326.13C264.148 325.335 264.053 323.952 264.848 323.041C265.643 322.129 267.027 322.035 267.937 322.829C274.79 328.802 284.594 327.118 284.692 327.1C285.878 326.882 287.02 327.673 287.237 328.861C287.454 330.049 286.671 331.188 285.484 331.407C285.308 331.44 283.691 331.725 281.299 331.725Z" fill="#650000"/>
<path d="M163.798 248.865L163.776 248.796L163.729 248.664L163.634 248.397L163.399 247.829C163.209 247.451 163.048 247.062 162.826 246.689C162.416 245.931 161.929 245.201 161.418 244.488L160.604 243.444C160.323 243.103 160.008 242.787 159.713 242.455L159.264 241.962C159.107 241.805 158.937 241.657 158.774 241.504L157.792 240.592C157.1 240.021 156.386 239.471 155.668 238.929C154.903 238.444 154.161 237.926 153.381 237.462L150.968 236.173L148.438 235.084C148.025 234.885 147.575 234.762 147.139 234.61L145.825 234.168C145.385 234.026 144.954 233.861 144.507 233.736L143.153 233.398C142.247 233.185 141.356 232.916 140.437 232.746L137.669 232.27L134.724 231.759C134.469 231.711 134.211 231.675 133.957 231.617L133.198 231.425L131.682 231.036L130.196 230.533L129.454 230.279L128.731 229.971C128.25 229.763 127.766 229.562 127.289 229.346L125.895 228.618C124.062 227.606 122.308 226.433 120.74 225.049L120.143 224.541C119.947 224.368 119.767 224.18 119.578 224C119.207 223.634 118.825 223.276 118.464 222.901C117.769 222.127 117.058 221.364 116.436 220.532C115.773 219.73 115.212 218.858 114.623 218.006C114.085 217.123 113.531 216.249 113.066 215.328C112.099 213.506 111.273 211.612 110.631 209.659C109.316 205.763 108.602 201.665 108.651 197.49C108.684 195.403 108.912 193.29 109.49 191.187C110.077 189.098 111.003 186.959 112.711 185.138L114.781 188.798C114.579 188.85 114.26 188.94 113.989 189.027C113.705 189.115 113.42 189.211 113.134 189.313C112.562 189.514 111.991 189.737 111.425 189.974C110.294 190.453 109.179 190.987 108.095 191.578C105.927 192.761 103.878 194.165 101.987 195.747C98.1986 198.913 95.1086 202.862 92.8856 207.273C91.7986 209.492 90.9126 211.812 90.2116 214.199C90.0476 214.799 89.9086 215.407 89.7546 216.01L89.5286 216.917L89.3566 217.838L89.0156 219.681L88.7806 221.547C88.1866 226.53 88.2926 231.625 88.9026 236.677C89.0476 237.877 88.1916 238.967 86.9916 239.112C86.5136 239.17 86.0536 239.069 85.6636 238.851L85.6386 238.837C85.4276 238.719 85.1126 238.557 84.8356 238.422C84.5476 238.282 84.2556 238.147 83.9596 238.017C83.3686 237.756 82.7656 237.519 82.1576 237.306C81.5506 237.09 80.9376 236.902 80.3236 236.743C79.7096 236.575 79.0936 236.46 78.4806 236.353L81.0076 234.251C81.0186 234.485 81.0356 234.817 81.0586 235.112L81.1306 236.033C81.1836 236.65 81.2526 237.271 81.3346 237.892C81.5116 239.132 81.6716 240.377 81.9196 241.611C82.3886 244.082 83.0136 246.525 83.7656 248.924C84.5156 251.325 85.4216 253.676 86.4776 255.955C87.5476 258.228 88.7736 260.425 90.1356 262.533C92.8786 266.738 96.1536 270.581 99.8276 274.069C103.56 277.52 107.622 280.538 111.663 284.191C106.28 283.219 101.454 280.511 97.1696 277.18C92.8856 273.83 89.0906 269.769 86.1026 265.177C84.5936 262.891 83.2396 260.504 82.0616 258.033C80.8946 255.558 79.8936 253.006 79.0666 250.401C78.2466 247.793 77.6056 245.13 77.1956 242.425C76.9806 241.075 76.8076 239.716 76.7146 238.345C76.6656 237.66 76.6306 236.973 76.6116 236.279C76.6016 235.933 76.5926 235.585 76.5986 235.233C76.6026 234.872 76.6096 234.548 76.6306 234.126L76.6346 234.041C76.6916 232.853 77.7006 231.937 78.8886 231.994C78.9756 231.998 79.0736 232.01 79.1576 232.024C79.9256 232.155 80.6896 232.302 81.4286 232.503C82.1716 232.695 82.8996 232.919 83.6136 233.173C84.3286 233.424 85.0316 233.7 85.7226 234.006C86.0686 234.159 86.4126 234.317 86.7546 234.484C87.1076 234.658 87.4176 234.813 87.8186 235.037L84.5546 237.196C83.9136 231.87 83.7886 226.434 84.4326 221.03C84.5186 220.355 84.5946 219.679 84.6896 219.005L85.0606 216.992L85.2496 215.986L85.4956 214.99C85.6636 214.327 85.8176 213.66 85.9986 213C86.7686 210.367 87.7516 207.79 88.9676 205.313C91.4466 200.383 94.9306 195.933 99.1706 192.391C101.288 190.619 103.575 189.054 105.996 187.732C107.207 187.071 108.453 186.474 109.729 185.934C110.369 185.666 111.015 185.413 111.677 185.181C112.006 185.064 112.34 184.951 112.681 184.846C113.032 184.736 113.341 184.644 113.773 184.535C114.94 184.24 116.125 184.948 116.419 186.115C116.606 186.856 116.389 187.605 115.907 188.128L115.843 188.196C114.884 189.22 114.156 190.717 113.709 192.352C113.256 193.993 113.053 195.77 113.027 197.559C112.982 201.148 113.609 204.809 114.779 208.261C115.347 209.995 116.081 211.672 116.933 213.277C117.342 214.091 117.83 214.855 118.3 215.631C118.817 216.372 119.303 217.14 119.882 217.832C120.421 218.558 121.039 219.212 121.637 219.885C121.948 220.208 122.278 220.513 122.596 220.829C122.758 220.984 122.913 221.147 123.081 221.295L123.594 221.729C124.935 222.918 126.432 223.911 127.991 224.774L129.177 225.395L130.407 225.925L131.022 226.19L131.658 226.405L132.929 226.838L134.233 227.17L134.885 227.337C135.104 227.387 135.328 227.417 135.549 227.458L138.341 227.943L141.31 228.455C142.298 228.639 143.272 228.927 144.254 229.16L145.723 229.53C146.21 229.667 146.688 229.846 147.171 230.002L148.615 230.488C149.095 230.656 149.584 230.794 150.048 231.013L152.864 232.228L155.586 233.681C156.473 234.207 157.327 234.798 158.197 235.357C159.028 235.979 159.853 236.617 160.655 237.282L161.807 238.349C161.997 238.529 162.193 238.702 162.378 238.888L162.912 239.469C163.264 239.861 163.631 240.237 163.967 240.644L164.944 241.896C165.564 242.758 166.154 243.646 166.669 244.596C166.94 245.059 167.16 245.566 167.4 246.057C167.624 246.593 167.819 247.028 168.028 247.743C168.368 248.902 167.703 250.117 166.544 250.457C165.4 250.792 164.203 250.15 163.845 249.02L163.798 248.865Z" fill="#650000"/>
<path d="M106.099 281.138C105.537 281.613 104.979 281.913 104.42 282.177C103.862 282.436 103.315 282.709 102.785 282.981C102.259 283.26 101.74 283.532 101.269 283.821C100.801 284.107 100.36 284.4 100.045 284.674H100.044L100.886 281.5L101.161 281.885C101.257 282.022 101.365 282.161 101.473 282.301C101.686 282.58 101.902 282.859 102.134 283.134C102.578 283.691 103.065 284.225 103.54 284.766C104.034 285.292 104.528 285.821 105.039 286.332C105.565 286.829 106.069 287.351 106.612 287.83C107.16 288.305 107.689 288.801 108.25 289.26L109.948 290.62L111.715 291.887C112.297 292.32 112.931 292.674 113.536 293.073L114.453 293.656L115.404 294.179C116.042 294.52 116.663 294.897 117.314 295.21C118.627 295.816 119.92 296.472 121.287 296.948L122.299 297.338C122.635 297.471 122.973 297.602 123.322 297.695L125.399 298.32C126.085 298.554 126.797 298.683 127.503 298.839L129.623 299.302L129.786 299.338C130.912 299.584 131.626 300.696 131.38 301.823C131.135 302.945 130.031 303.657 128.909 303.421L126.587 302.931C125.814 302.764 125.034 302.622 124.281 302.374L122.004 301.702C121.621 301.6 121.251 301.46 120.882 301.317L119.771 300.898C118.272 300.38 116.853 299.677 115.415 299.018C114.701 298.678 114.02 298.274 113.322 297.904L112.281 297.336L111.277 296.707C110.614 296.278 109.923 295.89 109.285 295.424L107.353 294.053L105.496 292.583C104.882 292.086 104.301 291.551 103.703 291.036C103.109 290.516 102.554 289.952 101.978 289.411C101.416 288.855 100.872 288.279 100.327 287.704C99.7979 287.111 99.2629 286.527 98.7579 285.903C98.4999 285.6 98.2499 285.282 98.0019 284.961C97.8769 284.802 97.7529 284.642 97.6299 284.471C97.5059 284.302 97.3879 284.144 97.2439 283.933L97.2069 283.879C96.5489 282.912 96.7999 281.596 97.7659 280.938C97.8649 280.87 97.9799 280.808 98.0849 280.759L98.0868 280.758C98.8568 280.501 99.5608 280.4 100.248 280.341C100.934 280.284 101.595 280.294 102.249 280.329C102.902 280.358 103.546 280.438 104.182 280.523C104.819 280.615 105.459 280.768 106.099 281.138Z" fill="#650000"/>
<defs>
<linearGradient id="paint0_linear_566_13768" x1="232.468" y1="51.2182" x2="192.654" y2="266.578" gradientUnits="userSpaceOnUse">
<stop stop-color="#FF7F00"/>
<stop offset="0.2635" stop-color="#FE7C03"/>
<stop offset="0.4689" stop-color="#FB720C"/>
<stop offset="0.6547" stop-color="#F5621A"/>
<stop offset="0.8278" stop-color="#ED4A2F"/>
<stop offset="0.9925" stop-color="#E32D4A"/>
<stop offset="1" stop-color="#E22B4B"/>
</linearGradient>
<linearGradient id="paint1_linear_566_13768" x1="273.123" y1="254.429" x2="254.623" y2="327.892" gradientUnits="userSpaceOnUse">
<stop stop-color="#FF7F00"/>
<stop offset="0.2635" stop-color="#FE7C03"/>
<stop offset="0.4689" stop-color="#FB720C"/>
<stop offset="0.6547" stop-color="#F5621A"/>
<stop offset="0.8278" stop-color="#ED4A2F"/>
<stop offset="0.9925" stop-color="#E32D4A"/>
<stop offset="1" stop-color="#E22B4B"/>
</linearGradient>
<linearGradient id="paint2_linear_566_13768" x1="190.462" y1="237.595" x2="187.781" y2="331.166" gradientUnits="userSpaceOnUse">
<stop stop-color="#FF7F00"/>
<stop offset="0.2635" stop-color="#FE7C03"/>
<stop offset="0.4689" stop-color="#FB720C"/>
<stop offset="0.6547" stop-color="#F5621A"/>
<stop offset="0.8278" stop-color="#ED4A2F"/>
<stop offset="0.9925" stop-color="#E32D4A"/>
<stop offset="1" stop-color="#E22B4B"/>
</linearGradient>
<linearGradient id="paint3_linear_566_13768" x1="288.137" y1="275.478" x2="276.608" y2="323.47" gradientUnits="userSpaceOnUse">
<stop stop-color="#FF7F00"/>
<stop offset="0.2635" stop-color="#FE7C03"/>
<stop offset="0.4689" stop-color="#FB720C"/>
<stop offset="0.6547" stop-color="#F5621A"/>
<stop offset="0.8278" stop-color="#ED4A2F"/>
<stop offset="0.9925" stop-color="#E32D4A"/>
<stop offset="1" stop-color="#E22B4B"/>
</linearGradient>
<linearGradient id="paint4_linear_566_13768" x1="81.6021" y1="207.476" x2="167.934" y2="301.851" gradientUnits="userSpaceOnUse">
<stop stop-color="#FF7F00"/>
<stop offset="0.1961" stop-color="#FD7A05"/>
<stop offset="0.431" stop-color="#F86B12"/>
<stop offset="0.6859" stop-color="#F05327"/>
<stop offset="0.9532" stop-color="#E43245"/>
<stop offset="1" stop-color="#E22B4B"/>
</linearGradient>
</defs>
</svg>
