<svg width="4000" height="4000" viewBox="0 0 4000 4000" fill="none" xmlns="http://www.w3.org/2000/svg">
<path opacity="0.3" d="M1999.5 3457C2608.39 3457 3102 3401.35 3102 3332.7C3102 3264.05 2608.39 3208.4 1999.5 3208.4C1390.61 3208.4 897 3264.05 897 3332.7C897 3401.35 1390.61 3457 1999.5 3457Z" fill="#66142E"/>
<path d="M2887.7 3096.47L2886.95 3096.85L2886.05 3097.3C2882.67 3099.25 2880.72 3100.15 2878.09 3101.28C2875.61 3102.18 2873.13 3103.16 2870.65 3103.83C2865.62 3105.18 2860.51 3106.23 2855.25 3106.68C2844.73 3107.66 2833.84 3106.6 2823.39 3103.52C2817.98 3102.02 2812.72 3099.76 2807.76 3096.98C2809.11 3100.66 2810.39 3104.42 2811.67 3108.17C2813.17 3112.83 2814.98 3117.41 2815.95 3122.29C2818.2 3131.91 2820.61 3141.6 2821.74 3151.59C2823.39 3161.51 2823.84 3171.73 2824.29 3181.94C2824.67 3202.45 2822.26 3223.49 2816.1 3243.85C2804.23 3285.1 2775.68 3321.01 2741.72 3345.05C2724.74 3357.3 2706.41 3367.06 2687.48 3374.8C2678.01 3378.71 2668.32 3382.01 2658.55 3384.79C2653.67 3386.22 2648.71 3387.5 2643.6 3388.62C2638.42 3389.75 2633.91 3390.65 2627.6 3391.55L2626.7 3391.7C2612.73 3393.73 2599.8 3384.11 2597.7 3370.14C2597.7 3369.91 2597.62 3369.54 2597.62 3369.24V3369.17C2596.04 3357 2596.27 3345.28 2597.62 3334.08C2589.73 3336.71 2581.92 3339.26 2574.1 3341.59C2548.41 3349.1 2522.41 3355.26 2496.19 3360.15C2443.75 3369.84 2390.41 3374.5 2337.59 3374.57C2232.71 3375.7 2126.62 3366.53 2023.55 3338.81C1972.16 3324.69 1921.75 3305.38 1874.19 3279.76C1830.46 3255.72 1789.29 3226.04 1753.76 3190.2C1752.86 3197.34 1751.66 3204.55 1749.7 3211.91C1744.52 3231.14 1734.15 3251.28 1717.69 3266.61C1701.31 3282.09 1680.43 3290.88 1660.89 3294.93C1651.05 3296.96 1641.36 3297.94 1631.97 3298.31L1624.91 3298.39L1618.6 3298.24C1614.32 3298.24 1610.11 3298.09 1605.83 3297.86C1588.7 3297.11 1571.42 3295.53 1553.84 3292.23C1536.26 3288.77 1518.3 3283.82 1500.27 3274.35C1494.03 3270.97 1487.8 3267.06 1481.79 3262.18C1467.44 3273.75 1448.73 3280.14 1428.97 3280.14H1428.29C1353.24 3279.61 1307.56 3274.05 1281.11 3246.48C1255.42 3219.58 1255.04 3180.44 1254.44 3121.16C1254.21 3095.01 1253.91 3065.41 1251.73 3029.73C1240.54 2849.12 1195.83 2690.89 1190.87 2673.69C1190.64 2673.92 1190.49 2674.14 1190.34 2674.29C1185.68 2679.77 1181.32 2684.73 1175.99 2690.29C1166.52 2700.81 1150.37 2701.63 1139.93 2692.17C1137.53 2690.07 1135.65 2687.51 1134.22 2684.81L1133.69 2683.68C1130.16 2676.69 1126.4 2669.71 1123.1 2662.64C1119.79 2655.5 1115.89 2648.59 1113.48 2641.08C1108 2626.28 1102.29 2611.55 1098.9 2596.08C1090.49 2565.58 1087.1 2533.87 1086.8 2502.47C1086.95 2494.58 1086.65 2486.69 1087.18 2478.88L1089.36 2455.51C1089.51 2454.61 1089.59 2453.78 1089.74 2452.88C1079.52 2450.33 1066.15 2443.26 1054.28 2424.93C1044.81 2410.28 1039.1 2392.55 1037.75 2373.62C1030.69 2274.97 1066.45 2217.72 1092.44 2189.63C1042.18 2138.99 911.08 1993.84 902.74 1849.97C902.51 1846.66 902.97 1843.28 904.02 1840.13C905.9 1834.57 911.31 1823.9 926.93 1815.41C918.14 1794.9 908.45 1765.82 906.95 1734.95C906.5 1726.38 910.41 1718.12 917.24 1712.86C921.07 1709.93 937.75 1697.38 952.93 1689.64C954.73 1684.91 957.21 1678.15 959.47 1671.83C978.4 1619.69 1019.12 1507.75 1106.27 1396.7C1110.18 1360.64 1127.38 1215.71 1167.13 1058.01C1206.8 900.31 1269.01 729.92 1362.92 642.92C1362.92 642.85 1362.99 642.85 1363.07 642.77L1363.52 642.32C1363.6 642.24 1363.67 642.17 1363.82 642.09C1364.72 641.26 1365.7 640.44 1366.75 639.54C1395.37 615.42 1435.04 610.09 1469 626.17C1593.57 684.92 1706.71 805.81 1805.58 985.22C1818.5 986.72 1831.58 987.62 1844.57 987.77C1901.97 988.52 1937.88 1004.82 1959.29 1020.45C1968.53 1006.7 1977.92 993.18 1987.61 979.8C2031.11 920.22 2080.17 864.55 2134.79 814.59C2189.33 764.48 2249.96 720.75 2315.25 684.99C2331.7 676.35 2348.08 667.48 2365.14 660.05L2377.84 654.19L2381.07 652.76C2382.05 652.23 2383.1 651.78 2384.68 651.18C2387.53 650.13 2390.31 649 2393.17 648.1C2404.74 644.42 2417.06 642.99 2429.16 643.67C2453.43 645.02 2477.02 655.24 2494.52 672.29C2503.23 680.63 2510.6 691.22 2515.48 701.59C2519.31 710.3 2523.67 718.95 2527.05 727.89C2541.25 763.28 2551.69 799.56 2558.76 836.15L2561.69 849.9L2563.87 863.65L2568.23 891.22C2570.26 909.63 2572.59 928.03 2574.01 946.44C2579.42 1020.14 2578.37 1093.85 2572.21 1166.72C2559.89 1311.5 2531.87 1453.79 2495.95 1593.46C2495.35 1620.21 2496.25 1648.61 2498.2 1676.1C2500.23 1704.57 2503.38 1732.9 2508.04 1760.92C2513 1788.79 2519.16 1816.29 2527.35 1842.89C2535.99 1869.34 2546.51 1894.73 2559.88 1917.79L2560.18 1918.39C2562.66 1922.6 2563.71 1927.33 2563.56 1931.84C2563.56 1933.72 2563.41 1934.54 2563.33 1935.52C2563.25 1936.57 2563.1 1937.4 2563.03 1938.22C2562.8 1940.02 2562.5 1941.68 2562.13 1943.25C2561.53 1946.56 2560.55 1949.64 2559.65 1952.79C2557.55 1958.95 2555.07 1964.96 2551.61 1970.52C2547.63 1977.21 2542.67 1983.22 2537.11 1988.55C2544.92 1992.68 2552.96 1997.11 2561.75 2006.58C2570.09 2015.6 2570.77 2029.04 2564 2038.66L2563.77 2038.96C2561.29 2042.57 2559.04 2045.5 2556.78 2048.5C2554.45 2051.66 2552.12 2054.51 2549.79 2057.44C2545.21 2063.3 2540.47 2069.16 2535.67 2074.72C2526.2 2086.14 2516.14 2096.88 2506.22 2107.78C2495.85 2118.3 2485.78 2128.97 2475.12 2139.11C2464.3 2149.03 2453.93 2159.47 2442.66 2168.94C2398.63 2207.78 2351.3 2242.94 2300.81 2273C2294.5 2276.76 2288.34 2280.81 2281.95 2284.42L2262.57 2294.86L2243.19 2305.3C2236.65 2308.76 2230.27 2312.44 2223.51 2315.29L2186.92 2332.04C2221.48 2359.84 2300.14 2401.39 2453.86 2388.91C2467.16 2387.78 2479.18 2396.87 2481.81 2410.02C2482.79 2414.98 2488.5 2447.58 2476.93 2475.68C2531.47 2511.52 2642.74 2614.07 2645.07 2854.64C2652.51 2856.07 2659.72 2858.02 2666.93 2859.9C2681.58 2864.11 2695.93 2869.07 2709.9 2875.15C2737.7 2887.17 2764.29 2902.35 2787.96 2921.28C2794.2 2925.64 2799.61 2930.97 2805.39 2935.93C2811.02 2941.04 2816.88 2945.85 2821.92 2951.48L2837.47 2968.01C2842.43 2973.72 2846.94 2979.81 2851.67 2985.67C2861.44 2997.24 2868.87 3010.39 2877.21 3022.86L2880.21 3027.67L2882.84 3032.63L2888.02 3042.55L2898.39 3062.46C2904.83 3074.83 2900.1 3090.08 2887.7 3096.47Z" fill="#66142E"/>
<path d="M2578.01 3020.81C2578.01 3020.81 2578.01 3020.81 2577.93 3020.89C2565.61 3025.7 2553.44 3030.51 2541.12 3035.09C2501.08 3048.84 2459.15 3057.03 2419.26 3053.42L2404.46 3051.77C2401.91 3051.62 2399.5 3051.09 2397.17 3050.42L2390.03 3048.69L2382.89 3047.04L2379.28 3046.21L2375.9 3044.86L2362.3 3039.83C2357.64 3038.33 2353.66 3035.55 2349.3 3033.52C2345.02 3031.27 2340.66 3029.24 2336.83 3026.23L2324.88 3018.12L2313.91 3008.5C2299.86 2995.2 2287.09 2980.03 2277.17 2962.59L2273.26 2956.2C2272.06 2954.02 2271.01 2951.69 2269.88 2949.51L2263.12 2935.91C2259.51 2926.44 2255.08 2917.35 2252.23 2907.44C2238.86 2868.75 2233.07 2826.98 2232.85 2785.65C2233.15 2764.99 2234.5 2744.4 2237.81 2724.27C2241.42 2704.44 2246.75 2684.98 2254.64 2668.22L2257.57 2661.91C2258.62 2659.88 2259.9 2658.23 2261.03 2656.28L2264.34 2650.72C2265.69 2648.84 2267.27 2646.89 2268.62 2644.93C2274.33 2636.89 2280.79 2630.13 2287.33 2623.59C2294.02 2617.58 2300.93 2612.17 2308.14 2608.19C2315.43 2604.28 2322.87 2601.73 2330.53 2600.38C2345.71 2597.6 2362.31 2600.61 2378.76 2608.27C2386.95 2611.95 2395.06 2616.83 2402.88 2622.32C2406.71 2625.1 2410.54 2628.11 2414.15 2631.19C2415.95 2632.77 2417.76 2634.35 2419.48 2635.92C2421.06 2637.42 2423.09 2639.45 2423.91 2640.35L2425.34 2641.78C2432.18 2648.77 2442.77 2651.62 2452.69 2648.17C2465.39 2643.74 2472.52 2630.36 2469.52 2617.52C2468.99 2615.72 2468.69 2614.82 2468.69 2614.82C2465.99 2606.93 2463.51 2601 2460.65 2594.46C2457.87 2588.07 2454.94 2581.84 2451.86 2575.68C2445.62 2563.43 2438.86 2551.49 2431.65 2539.84C2417.07 2516.62 2400.47 2494.69 2381.99 2474.4C2371.55 2462.91 2360.35 2452.09 2348.63 2441.79C2373.57 2443.89 2401 2444.49 2431.12 2443.07C2430.29 2451.63 2428.04 2459.15 2423.91 2461.7C2415.57 2466.96 2410.84 2476.43 2411.66 2486.19C2412.56 2496.03 2418.8 2504.52 2427.89 2508.28C2430.16 2509.17 2649.69 2604.74 2578.01 3020.81Z" fill="url(#paint0_linear_1525_19786)"/>
<path d="M2837.14 3058.53V3058.61C2833.61 3059.89 2830.08 3061.09 2826.47 3062.14C2819.86 3064.17 2813.17 3065.15 2805.51 3065.45C2801.3 3065.68 2797.1 3065.22 2792.59 3064.47C2788.38 3057.18 2784.18 3050.04 2779.52 3043.06C2773.81 3035.25 2768.02 3027.51 2761.64 3020.3C2768.18 3058.54 2777.19 3093.93 2781.1 3129.09C2783.2 3146.6 2784.26 3163.95 2782.83 3180.78C2781.1 3197.61 2777.72 3213.76 2771.94 3228.79C2760.29 3258.84 2738.58 3283.33 2711.31 3301.59C2697.64 3310.68 2682.69 3318.34 2667.13 3324.81C2661.87 3326.84 2656.61 3328.79 2651.35 3330.67C2652.48 3325.11 2653.9 3319.63 2655.71 3314.14C2656.61 3311.36 2657.59 3308.66 2658.64 3306.03C2659.62 3303.55 2660.97 3300.4 2661.65 3298.89L2661.88 3298.51C2665.64 3290.4 2665.26 3280.63 2660 3272.74C2651.96 3260.57 2635.66 3257.26 2623.49 3265.3C2615.83 3270.41 2605.01 3275.37 2593.96 3279.57C2582.92 3283.85 2571.2 3287.61 2559.32 3291.14C2535.43 3298.13 2511.16 3303.91 2486.59 3308.42C2437.45 3317.51 2387.57 3322.02 2337.08 3322.02C2316.94 3322.25 2296.74 3322.1 2276.68 3321.34C2195.46 3318.86 2114.85 3308.94 2037.47 3288.13C2037.47 3288.13 2037.39 3288.13 2037.24 3288.05C1989.16 3274.83 1942.65 3256.87 1899.38 3233.58C1856.26 3209.91 1816.44 3180.61 1783.23 3145.15C1782.4 3144.25 1781.58 3143.35 1780.75 3142.44C1765.2 3125.46 1750.85 3107.35 1738.38 3088.12C1725.31 3067.68 1714.11 3046.2 1704.8 3023.81C1686.02 2979.11 1676.18 2930.65 1673.17 2881.89C1671.14 2845.9 1673.09 2809.61 1678.65 2773.85C1684.96 2732.98 1695.93 2692.71 1711.11 2654.17C1718.77 2634.64 1727.49 2615.55 1737.26 2597C1760.18 2553.42 1789.1 2513 1823.59 2479.05C1858.07 2445.17 1898.65 2417.67 1942.97 2404.07C1948.53 2402.64 1954.01 2400.84 1959.65 2399.71L1968.06 2398.06L1972.27 2397.23L1976.93 2396.63L1995.34 2394.3C2001.43 2393.4 2007.59 2392.72 2013.75 2392.42C2026.07 2391.52 2038.32 2390.39 2050.56 2390.54C2056.72 2390.54 2062.88 2390.16 2068.97 2390.46L2087.3 2391.29C2093.46 2391.37 2099.47 2392.12 2105.48 2392.79C2111.57 2393.47 2117.65 2393.84 2123.66 2394.82C2135.61 2396.85 2147.63 2398.65 2159.27 2401.73C2182.79 2407.29 2205.78 2414.88 2227.56 2425.1C2271.21 2445.16 2310.65 2474.16 2343.19 2509.85C2354.16 2521.87 2364.3 2534.57 2373.69 2547.79C2365.5 2545.61 2357.09 2544.18 2348.45 2543.58C2348.3 2543.5 2348.22 2543.5 2348.07 2543.58C2339.43 2542.98 2330.56 2543.28 2321.7 2544.63C2307.35 2546.73 2293.68 2551.62 2281.28 2558.08C2268.96 2564.69 2258.29 2572.96 2248.45 2581.67C2239.06 2590.69 2230.27 2600.15 2222.91 2610.14C2221.03 2612.62 2219.15 2615.02 2217.28 2617.65L2211.87 2626.22C2210.14 2629.07 2208.19 2631.93 2206.76 2634.86L2202.55 2643.65C2181.29 2690.68 2176.03 2738.61 2175.88 2785.95C2175.96 2790.68 2176.18 2795.42 2176.41 2800.15C2178.44 2842.67 2185.8 2884.97 2200.45 2925.54C2204.06 2936.96 2209.39 2947.85 2214.2 2958.9C2216.9 2964.23 2219.83 2969.57 2222.69 2974.9C2224.19 2977.6 2225.54 2980.31 2227.12 2982.86L2232.08 2990.6C2244.78 3011.41 2261.31 3030.27 2279.94 3046.72L2294.44 3058.67L2310.29 3068.89C2315.4 3072.5 2321.18 3075.13 2326.82 3077.83C2332.53 3080.38 2338.01 3083.69 2343.95 3085.49L2361.76 3091.43L2366.27 3092.93L2370.78 3093.83L2379.95 3095.63L2389.04 3097.36C2392.12 3098.04 2395.13 3098.49 2398.21 3098.64L2416.54 3099.92C2464.1 3101.95 2509.48 3090.9 2551.4 3074.9C2552.68 3074.45 2553.95 3074 2555.23 3073.47C2581.15 3063.48 2606.24 3051.38 2628.26 3034.63C2642.84 3023.66 2656.06 3010.66 2667.18 2994.89C2655.46 2996.02 2644.79 2998.42 2634.42 3001.35C2639.3 2968.44 2642.38 2937.49 2643.96 2908.34C2646.96 2909.09 2649.9 2909.84 2652.9 2910.59C2665.22 2914.2 2677.47 2918.4 2689.26 2923.51C2712.93 2933.8 2735.62 2946.65 2755.75 2962.88C2761.08 2966.49 2765.67 2971.14 2770.55 2975.28C2775.36 2979.64 2780.39 2983.7 2784.67 2988.58L2797.97 3002.7C2802.25 3007.58 2806.01 3012.84 2810.14 3017.88C2818.63 3027.72 2824.94 3039.29 2832.23 3050.04L2834.86 3054.17L2837.14 3058.53Z" fill="url(#paint1_linear_1525_19786)"/>
<path d="M1698.91 3157.1C1698.83 3170.92 1697.41 3184.37 1693.65 3195.79C1686.29 3219.08 1672.54 3231.25 1648.8 3236.29C1642.86 3237.49 1636.55 3238.09 1630.02 3238.32L1624.99 3238.4H1619.36C1615.53 3238.4 1611.77 3238.32 1608.09 3238.17C1593.14 3237.72 1578.34 3236.52 1564.44 3234.11C1550.54 3231.71 1537.09 3228.33 1526.57 3223.14C1521.39 3220.59 1516.8 3217.73 1513.87 3214.8C1512.29 3213.45 1511.17 3212.02 1510.41 3210.97C1510.11 3210.59 1509.96 3210.29 1509.81 3209.99C1509.51 3198.72 1509.06 3187.38 1508.46 3176.11C1508.01 3167.77 1507.48 3159.51 1506.81 3151.17C1506.81 3150.94 1506.81 3150.72 1506.73 3150.49C1505 3129.6 1502.45 3108.79 1500.19 3087.91C1497.79 3067.25 1495.53 3046.59 1492.75 3025.93C1489.97 3004.37 1486.59 2982.88 1482.01 2961.32C1477.28 2983.56 1473.82 3005.87 1470.89 3028.11C1469.91 3035.92 1468.94 3043.66 1468.04 3051.48C1466.39 3049.9 1464.73 3048.17 1463.08 3046.6C1456.02 3039.99 1448.35 3034.13 1440.47 3028.94C1432.58 3023.68 1424.02 3019.62 1415.6 3016.17C1422.36 3022.41 1428.67 3028.79 1433.86 3036.08C1439.12 3043.22 1443.78 3050.66 1447.68 3058.47C1451.59 3066.21 1454.97 3074.17 1457.67 3082.21C1459.02 3086.27 1460.3 3090.32 1461.35 3094.38C1461.73 3096.03 1462.18 3097.84 1462.55 3099.56C1460.6 3116.76 1458.64 3133.97 1457.22 3151.17V3151.47C1455.49 3172.51 1454.59 3193.47 1454.06 3214.5V3215.03C1452.93 3217.28 1451.28 3219.24 1449.03 3221.12C1443.92 3225.33 1436.56 3227.51 1428.67 3227.58C1380.14 3227.28 1333.25 3224.88 1319.13 3210.15C1308.69 3199.18 1307.63 3171.91 1307.11 3130.81C1307.11 3127.5 1307.04 3124.12 1307.04 3120.67C1306.81 3095.2 1306.51 3063.57 1304.19 3026.53C1299.76 2954.63 1290.37 2886.79 1280.07 2829.31C1280.07 2829.31 1280.07 2829.31 1280.15 2829.39C1301.56 2855.16 1324.7 2879.35 1350.92 2900.09C1365.19 2912.79 1381.2 2923.15 1396.75 2934.12C1404.34 2939.91 1412.9 2944.11 1421.02 2949L1445.66 2963.27C1453.1 2967.55 1462.56 2967.78 1470.45 2963.12L1471.2 2962.67C1491.26 2950.65 1509.89 2938.33 1528.67 2925.33C1547.38 2912.33 1565.56 2898.58 1583.36 2884.01C1595.91 2873.79 1608.08 2862.97 1619.95 2851.4C1619.87 2862.59 1620.03 2873.71 1620.63 2884.91C1623.94 2939 1634.98 2993.25 1656.17 3043.89C1666.46 3068.68 1678.86 3092.57 1693.28 3115.26C1693.58 3115.71 1693.88 3116.24 1694.18 3116.69C1694.63 3117.37 1695.16 3118.04 1695.61 3118.79C1695.99 3120.89 1696.36 3123.3 1696.66 3125.4C1697.19 3128.93 1697.56 3132.46 1697.86 3135.99C1698.54 3143.05 1698.91 3150.11 1698.91 3157.1Z" fill="url(#paint2_linear_1525_19786)"/>
<path d="M2495.07 1905.65C2494.17 1903.55 2493.19 1901.37 2492.36 1899.26C2486.65 1885.89 2481.69 1872.36 2477.26 1858.76C2468.09 1829.31 2461.48 1799.56 2456.22 1769.66C2453.67 1754.26 2451.56 1738.86 2449.76 1723.38C2373.2 1442.02 2235.04 1352.46 2233.69 1351.56C2226.03 1346.75 2221.22 1338.26 2221.22 1329.25V1326.02C2221.22 1316.25 2226.63 1307.31 2235.27 1302.73C2287.34 1275.38 2280.05 1232.41 2272.38 1211.15C2268.25 1210.1 2265.32 1205.59 2263.06 1199.35C2261.93 1196.34 2261.03 1192.96 2260.13 1189.43C2259.15 1185.15 2258.63 1180.71 2258.63 1176.36C2258.63 1168.32 2260.28 1160.36 2263.44 1152.92C2278.77 1159.38 2292.82 1162.69 2305.51 1162.76C2315.2 1162.76 2324.14 1160.88 2332.18 1157.05C2346.38 1150.29 2356.52 1138.49 2363.28 1127.82C2358.7 1126.24 2354.04 1124.51 2349.31 1122.71C2348.26 1122.26 2347.13 1121.88 2346 1121.43C2330.07 1115.42 2313.47 1108.58 2297.54 1101.82C2270.42 1090.25 2245.32 1078.68 2228.95 1071.09C2223.24 1085.89 2217.53 1100.77 2212.05 1115.72C2211.37 1117.75 2210.62 1119.85 2209.87 1121.88V1121.96C2204.91 1135.93 2199.58 1149.83 2194.32 1163.73C2191.62 1170.64 2188.99 1177.55 2186.43 1184.47C2185.08 1187.93 2183.73 1191.46 2182.45 1194.99C2176.29 1211.97 2169.9 1228.87 2162.99 1245.7C2159.16 1255.32 2155.18 1264.93 2150.97 1274.48C2151.8 1261.41 2153 1248.33 2154.35 1235.26C2155.93 1219.86 2157.81 1204.46 2159.98 1189.13C2161.48 1174.86 2164.71 1161.03 2167.19 1146.91C2169.74 1132.86 2172.9 1118.96 2175.75 1104.91C2178.38 1090.86 2182.29 1077.04 2185.97 1063.21C2189.73 1049.39 2193.48 1035.64 2197.46 1021.81C2198.14 1019.41 2198.89 1017 2199.64 1014.6C2203.1 1003.33 2207.15 992.139 2210.76 980.939C2215.49 967.339 2219.55 953.519 2224.81 940.069C2245.02 886.129 2268.76 833.079 2298.59 782.519C2306.33 769.969 2313.77 757.349 2322.56 745.329C2321.28 743.899 2321.51 744.129 2320.31 742.779C2319.48 743.159 2318.73 743.609 2317.98 744.059C2317.15 744.509 2316.33 745.039 2315.58 745.559C2310.92 748.189 2306.34 751.039 2301.76 753.899C2295.82 757.509 2289.96 761.189 2284.18 765.019C2278.17 768.849 2272.23 772.829 2266.37 776.969C2265.99 777.119 2265.69 777.419 2265.32 777.649C2260.96 780.649 2256.6 783.659 2252.32 786.889C2249.24 788.989 2246.23 791.169 2243.23 793.349C2217.91 811.979 2193.49 832.039 2170.28 853.449C2118.52 900.779 2071.71 953.819 2030.16 1010.77C2009.42 1039.24 1989.89 1068.7 1971.93 1098.97C1967.95 1105.66 1964.04 1112.34 1960.21 1119.1C1955.4 1127.66 1950.67 1136.31 1946.09 1144.94C1944.06 1148.77 1942.03 1152.68 1940.08 1156.59C1937.15 1162.3 1934.3 1168.01 1931.59 1173.64C1931.59 1173.72 1931.51 1173.79 1931.44 1173.87C1931.21 1174.4 1930.91 1175 1930.69 1175.52C1925.66 1186.26 1918.89 1196.03 1910.48 1204.37C1910.4 1204.52 1910.33 1204.6 1910.33 1204.6C1905.75 1209.18 1898.91 1209.93 1893.5 1207L1812.89 1162.22L1881.18 1157.34C1884.49 1150.13 1887.87 1143.14 1891.4 1136.23C1894.03 1130.97 1896.81 1125.71 1899.59 1120.38C1908.23 1104 1917.25 1087.92 1926.71 1072.07C1928.14 1069.67 1929.64 1067.34 1931.07 1064.93C1920.63 1056.59 1900.57 1045.47 1865.78 1041.71C1859.09 1040.96 1851.81 1040.51 1843.92 1040.36C1793.51 1039.68 1742.57 1029.32 1704.78 1019.32C1691.56 1015.86 1679.99 1012.41 1670.6 1009.4C1665.87 1036.67 1676.31 1060.56 1683.82 1073.64C1688.48 1073.34 1693.14 1072.96 1697.87 1072.59C1702.68 1072.21 1707.56 1071.76 1712.45 1071.24L1712.68 1072.97C1712.68 1073.27 1712.76 1073.5 1712.76 1073.8C1714.71 1094.39 1703.74 1113.54 1686.46 1122.18C1685.33 1122.78 1684.13 1123.31 1682.93 1123.76C1678.27 1125.71 1673.16 1126.92 1667.75 1127.07H1666.77C1649.49 1127.67 1632.13 1126.92 1614.85 1125.87C1597.49 1124.59 1580.21 1122.41 1563.01 1119.33C1557 1118.28 1551.06 1117 1545.13 1115.65C1545.05 1124.59 1545.13 1133.46 1545.81 1142.1C1547.46 1160.73 1550.92 1178.61 1558.88 1193.34C1566.77 1207.99 1579.24 1219.94 1596.97 1227.3C1602.15 1229.55 1607.64 1231.36 1613.35 1232.86C1626.95 1236.47 1641.97 1238.12 1657.53 1238.27C1647.99 1244.05 1637.24 1247.89 1626.13 1250.52C1625.68 1250.59 1625.15 1250.75 1624.7 1250.82C1613.96 1253.07 1602.61 1253.98 1590.97 1252.92C1578.95 1251.64 1566.33 1248.56 1554.91 1242.33C1543.41 1236.24 1532.9 1227.6 1524.71 1217.39C1516.3 1207.25 1509.76 1195.9 1505.33 1184.18C1502.7 1178.39 1501.12 1172.53 1499.17 1166.6C1498.94 1165.85 1498.79 1165.1 1498.64 1164.35C1497.36 1159.17 1496.24 1153.98 1495.26 1148.8C1494.66 1145.19 1494.13 1141.51 1493.68 1137.91C1492.48 1128.14 1491.95 1118.38 1491.95 1108.76C1491.95 1098.77 1492.55 1088.85 1493.68 1079.08C1494.43 1069.61 1500.14 1061.87 1508.03 1057.89C1506.68 1044.44 1505.25 1031.44 1503.82 1018.97C1498.41 1019.05 1492.93 1019.2 1487.52 1019.27C1473.92 1019.42 1460.4 1019.42 1446.87 1019.35C1439.28 1019.27 1431.62 1019.27 1424.03 1019.12C1416.44 1019.05 1408.78 1018.89 1401.19 1018.74C1396.91 1018.66 1394.73 1018.66 1393.6 1018.59H1392.55C1392.55 1019.57 1392.55 1020.62 1392.62 1021.75C1392.77 1027.31 1393.3 1034.22 1393.82 1039.56C1394.05 1041.66 1394.2 1043.54 1394.42 1044.97C1395.62 1050.3 1396.37 1056.24 1398.4 1061.12C1401.71 1071.71 1407.19 1081.1 1415.53 1088.92C1423.79 1096.73 1434.99 1103.04 1448.81 1106.5C1440.25 1110.78 1430.18 1112.36 1419.96 1111.31C1414.1 1123.78 1413.27 1134.3 1414.93 1142.86C1418.01 1159.39 1429.96 1168.7 1432.13 1170.21C1439.87 1175.77 1444 1185.09 1442.95 1194.55C1442.12 1201.46 1438.74 1207.62 1433.56 1211.91C1431.61 1213.49 1429.35 1214.84 1426.95 1215.89C1137.17 1336.47 1040.63 1602.44 1008.93 1689.81C1004.8 1701.15 1001.72 1709.72 998.64 1716.11C997.51 1718.81 996.24 1721.14 994.96 1723.1C994.43 1723.93 993.91 1724.75 993.38 1725.5C992.55 1726.55 991.73 1727.53 990.9 1728.35C990.22 1729.03 989.47 1729.7 988.72 1730.3C987.89 1731.05 986.92 1731.73 985.87 1732.33C985.12 1732.78 984.37 1733.16 983.54 1733.53C982.56 1733.98 981.59 1734.43 980.46 1734.81C976.55 1736.16 968.74 1740.9 960.93 1746.23C961.08 1747.43 961.31 1748.63 961.53 1749.84L961.61 1750.07C967.92 1786.21 986.33 1816.94 986.48 1817.31C991.06 1824.82 991.59 1834.06 987.83 1842.03C984.15 1849.99 976.79 1855.55 968.15 1856.91C962.89 1857.74 959.06 1858.79 956.43 1859.76C971.83 1989.81 1103.01 2126.4 1138.4 2161.11C1336.07 2109.57 1438.02 2236.24 1472.88 2293.41C1474.23 2292.28 1475.58 2291.08 1476.94 2290.03C1503.54 2268.69 1533.36 2251.71 1564.47 2239.17C1595.57 2226.47 1627.96 2217.91 1660.49 2212.12C1692.95 2206.26 1725.7 2203.1 1758.38 2202.13C1766.49 2201.68 1774.61 2201.9 1782.8 2201.75C1791.06 2201.83 1798.65 2201.52 1807.82 2201.9C1825.4 2202.8 1843.21 2205.43 1860.56 2210.16C1895.35 2219.48 1929 2237.73 1954.55 2266.13C1967.32 2280.25 1977.54 2297.08 1984.38 2314.96C1987.39 2323 1989.56 2331.19 1991.14 2339.38L2004.36 2336.53C2017.96 2333.52 2031.63 2331.12 2044.85 2326.69L2084.74 2314.82L2094.73 2311.81L2104.5 2308.13L2143.42 2293.4L2153.19 2289.72L2162.66 2285.44L2200.53 2268.09C2206.99 2265.38 2213 2261.93 2219.09 2258.62L2237.5 2248.78L2255.83 2238.94C2261.84 2235.48 2267.7 2231.65 2273.64 2228.05C2321.42 2199.65 2366.28 2166.29 2407.97 2129.55C2418.64 2120.61 2428.41 2110.69 2438.7 2101.3C2448.77 2091.76 2458.31 2081.69 2468 2071.77C2477.32 2061.55 2486.86 2051.41 2495.57 2040.82C2498.42 2037.59 2500.98 2034.28 2503.68 2030.98C2500.6 2029.7 2497.29 2028.43 2493.91 2027.3C2487.52 2025.12 2480.84 2023.17 2474 2021.36C2467.31 2019.63 2459.95 2017.98 2453.71 2016.85C2439.36 2014.14 2429.97 2000.4 2432.6 1986.12C2434.85 1974.1 2445 1965.53 2456.64 1964.71L2457.69 1964.63L2468.73 1963.88C2472.11 1963.13 2475.72 1962.75 2478.95 1961.93C2485.34 1960.2 2491.2 1957.95 2495.7 1954.94C2500.21 1951.78 2503.81 1948.1 2506.44 1943.75C2507.87 1941.57 2508.77 1939.09 2509.67 1936.61C2509.74 1936.38 2509.82 1936.08 2509.9 1935.78C2504.46 1925.86 2499.58 1915.8 2495.07 1905.65ZM1420.41 1984.09C1421.54 1983.19 1423.11 1982.66 1424.77 1982.81L1536.19 1993.48C1536.34 1993.48 1536.49 1993.48 1536.57 1993.56C1541.83 1994.39 1543.63 2001.3 1539.12 2004.45C1527.17 2012.86 1504.79 2025.04 1468.05 2032.92C1464.22 2033.75 1460.24 2033.07 1456.78 2031.19C1446.26 2025.25 1423.8 2010.6 1418.39 1990.54C1417.7 1988.07 1418.6 1985.59 1420.41 1984.09ZM1314.17 1897.09C1293.66 1884.84 1272.92 1873.72 1251.74 1864.03C1230.7 1854.26 1209.29 1845.85 1188.1 1838.03C1182.77 1836.15 1177.66 1833.67 1172.25 1832.02C1166.92 1830.22 1161.58 1828.34 1156.4 1826.23C1145.88 1822.17 1135.06 1819.02 1124.7 1814.21L1122 1812.93C1105.7 1805.34 1098.48 1786.11 1105.85 1769.73C1105.93 1769.5 1106 1769.35 1106.08 1769.13C1112.62 1755.08 1127.72 1747.87 1142.22 1750.65C1167.84 1755.61 1192.63 1764.55 1215.7 1776.57C1227.42 1782.28 1238.46 1789.27 1249.28 1796.4C1254.76 1799.86 1259.72 1804.06 1264.98 1807.9C1270.09 1811.73 1275.27 1815.64 1280.16 1819.85C1300.07 1836.15 1318.1 1854.56 1334.25 1874.09C1350.1 1893.62 1364.38 1914.36 1374.67 1937.12C1374.74 1937.35 1374.9 1937.57 1374.97 1937.8C1355.04 1922.71 1334.83 1909.34 1314.17 1897.09ZM1598.69 2132.85C1592.83 2136.61 1587.12 2140.89 1580.66 2144.04C1567.81 2150.43 1552.71 2154.18 1536.93 2152.98C1521.08 2151.78 1505.6 2144.64 1493.81 2134.5C1487.95 2129.39 1482.54 2123.83 1477.96 2117.67C1474.8 2120.83 1471.42 2123.83 1467.67 2126.61C1457.53 2133.9 1443.78 2139.91 1429.2 2138.26C1422.06 2137.43 1415.3 2134.88 1409.82 2131.2C1404.41 2127.52 1399.98 2123.09 1396.37 2118.35C1389.23 2108.88 1385.1 2098.29 1382.4 2087.55C1390.44 2095.21 1398.18 2102.65 1406.37 2108.06C1410.43 2110.84 1414.63 2112.79 1418.62 2114.22C1422.6 2115.5 1426.43 2115.87 1429.96 2115.42C1436.95 2114.44 1443.63 2110.39 1450.02 2104.45C1456.18 2098.74 1462.49 2090.78 1467 2083.86C1471.36 2076.72 1480.6 2074.47 1487.74 2078.75C1490.29 2080.33 1492.25 2082.58 1493.45 2085.14L1493.83 2085.89C1495.86 2090.02 1498.79 2095.96 1502.02 2100.46C1505.18 2105.34 1508.86 2109.7 1512.69 2113.91C1520.43 2122.1 1529.74 2128.41 1540.64 2131.26C1543.34 2132.24 1546.2 2132.31 1549.05 2132.91C1551.9 2133.66 1554.84 2133.51 1557.84 2133.44C1563.93 2133.97 1570.01 2132.46 1576.32 2131.64C1579.55 2131.41 1582.48 2129.99 1585.64 2129.16L1595.18 2126.46C1601.34 2123.98 1607.5 2121.28 1614.04 2118.95C1609.13 2123.68 1603.87 2128.11 1598.69 2132.85ZM2122.2 1877.03C2121.6 1882.74 2119.95 1888.07 2117.47 1892.88C2110.48 1906.7 2096.88 1916.32 2081.26 1917.97L2078.25 1918.35C2060.67 1920.23 2043.24 1920.15 2025.81 1920.68C2008.46 1921.81 1990.95 1921.13 1973.52 1922.11C1964.81 1922.41 1956.02 1922.49 1947.3 1922.64C1938.51 1923.09 1929.79 1923.47 1921 1923.69L1907.78 1923.99L1894.56 1924.82C1885.77 1925.5 1876.83 1925.72 1868.04 1926.47C1832.65 1929.1 1797.12 1933.46 1761.43 1939.39C1725.67 1945.33 1689.83 1952.76 1653.69 1963.21C1655.12 1961.93 1656.54 1960.58 1657.97 1959.45C1684.79 1935.33 1715.75 1916.17 1747.53 1898.97C1781.34 1881.31 1816.8 1866.36 1853.31 1854.34C1862.48 1851.26 1871.72 1848.71 1880.96 1846.08C1890.28 1843.3 1899.52 1840.67 1908.98 1838.72C1918.37 1836.54 1927.76 1834.44 1937.23 1832.48C1946.77 1830.9 1956.24 1829.48 1965.85 1828.12C2004.09 1822.86 2042.86 1822.03 2081.17 1826.17C2106.57 1828.87 2124.9 1851.63 2122.2 1877.03Z" fill="url(#paint3_linear_1525_19786)"/>
<path d="M1938.13 2350.88C1934.6 2351.86 1931.07 2352.83 1927.54 2353.73C1872.77 2370.71 1825.74 2403.24 1786.75 2441.48C1747.68 2480.02 1715.9 2524.72 1690.73 2572.43C1660.6 2629.9 1639.27 2691.96 1628.37 2755.97C1621.46 2770.92 1609.29 2786.32 1596.06 2800.6C1582.16 2815.63 1566.46 2829.9 1549.93 2843.35C1533.48 2856.87 1516.27 2869.87 1498.54 2882.19C1485.17 2891.51 1471.27 2900.75 1457.44 2909.39L1447.67 2903.68C1440.31 2899.25 1432.49 2895.49 1425.66 2890.23C1411.69 2880.24 1397.11 2871 1384.34 2859.5C1357.37 2838.16 1333.93 2812.84 1312.52 2786.1C1291.11 2759.35 1273.23 2729.75 1258.43 2698.8C1250.92 2683.4 1244.53 2667.47 1238.82 2651.39C1236.27 2643.28 1233.41 2635.24 1231.38 2627.05C1230.18 2622.99 1229.13 2618.94 1228.22 2614.95C1227.77 2612.92 1227.24 2610.89 1226.94 2608.94L1225.89 2603.61L1225.36 2601.06C1223.26 2590.24 1214.39 2581.53 1202.82 2580.17C1188.55 2578.52 1175.62 2588.73 1173.97 2603.01C1173.82 2604.36 1172.02 2608.87 1169.69 2613C1168.41 2615.4 1166.91 2617.88 1165.26 2620.36C1161.05 2607.44 1156.02 2594.82 1152.94 2581.67C1144.98 2555.07 1140.47 2527.65 1137.39 2500L1135.66 2479.11L1134.91 2458.07C1134.91 2444.02 1135.59 2429.97 1136.49 2415.85C1137.99 2387.38 1140.02 2358.9 1141.52 2327.42C1121.54 2347.63 1108.91 2373.02 1100.65 2399.39C1100.05 2398.64 1099.3 2397.66 1098.47 2396.38C1093.81 2389.17 1090.96 2379.93 1090.21 2369.78C1086.08 2312.68 1099 2273.91 1113.35 2249.2C1126.12 2227.19 1148.06 2211.94 1173.08 2207.13C1222.89 2197.51 1264.66 2201.57 1299.15 2212.92C1355.8 2231.55 1392.91 2269.79 1414.48 2299.62C1424.47 2313.29 1431.16 2325.16 1434.92 2332.53C1426.28 2343.8 1418.69 2355.75 1412.61 2368.44C1405.25 2383.77 1399.76 2399.84 1396.76 2416.3C1393.91 2432.75 1392.63 2449.58 1395.93 2465.81C1395.93 2465.81 1395.93 2465.81 1396.01 2465.74C1420.43 2405.79 1457.69 2360.41 1504.42 2326.15C1528.16 2309.4 1554.53 2296.25 1582.48 2286.86C1610.43 2277.32 1639.5 2270.33 1669.26 2266.35C1676.62 2265.07 1684.21 2264.62 1691.72 2263.65L1702.91 2262.45L1714.25 2261.7C1729.28 2260.35 1744.45 2260.05 1759.63 2259.6C1767.22 2259.3 1774.88 2259.75 1782.54 2259.75C1789.98 2259.9 1798.24 2259.75 1804.78 2260.2C1818.6 2260.95 1832.28 2262.91 1845.27 2266.51C1871.19 2273.57 1895.38 2286.42 1912.44 2304.68C1924.91 2317.59 1933.47 2333.3 1938.13 2350.88Z" fill="#FFDAB6"/>
<path d="M1497.34 966.45C1497.31 966.48 1497.3 966.49 1497.28 966.52C1480.69 966.82 1463.98 966.84 1447.15 966.75C1420.63 966.6 1393.88 966.15 1367.44 965.47L1365.26 965.39C1364.36 965.39 1363.38 965.39 1362.48 965.47C1349.11 966.67 1339.19 978.47 1340.39 991.92C1340.99 999.28 1341.97 1006.57 1342.87 1013.86C1343.85 1021.22 1346.03 1028.59 1347.6 1035.87C1349.85 1043.16 1352.56 1050.45 1355.49 1057.58C1359.25 1064.64 1362.33 1071.7 1367.36 1078.17C1369.31 1080.87 1371.49 1083.5 1373.75 1086.06C1354.14 1124.9 1360.53 1158.18 1374.05 1181.85C1290.35 1221.37 1222.96 1272.16 1168.64 1326.4C1168.57 1326.48 1168.57 1326.48 1168.57 1326.48C1192.31 1164.27 1258.65 810.41 1399.14 681.04C1402.52 678.26 1405.98 679.69 1407.1 680.14C1417.25 684.41 1463.68 717.39 1497.34 966.45Z" fill="#FFDAB6"/>
<path d="M2509.87 1935.78C2509.79 1936.08 2509.72 1936.38 2509.64 1936.61C2508.74 1939.09 2507.84 1941.57 2506.41 1943.75C2503.78 1948.11 2500.17 1951.79 2495.67 1954.94C2491.16 1957.95 2485.3 1960.2 2478.92 1961.93C2475.69 1962.76 2472.08 1963.13 2468.7 1963.88L2457.66 1964.63L2456.61 1964.71C2444.96 1965.54 2434.82 1974.1 2432.57 1986.12C2429.94 2000.39 2439.33 2014.14 2453.68 2016.85C2459.92 2017.98 2467.28 2019.63 2473.97 2021.36C2480.81 2023.16 2487.49 2025.12 2493.88 2027.3C2497.26 2028.43 2500.57 2029.7 2503.65 2030.98C2500.95 2034.29 2498.39 2037.59 2495.54 2040.82C2486.82 2051.41 2477.28 2061.56 2467.97 2071.77C2458.28 2081.69 2448.74 2091.75 2438.67 2101.3C2428.38 2110.69 2418.61 2120.61 2407.94 2129.55C2366.24 2166.29 2321.39 2199.65 2273.61 2228.05C2267.67 2231.66 2261.81 2235.49 2255.8 2238.94L2237.47 2248.78L2219.06 2258.62C2212.97 2261.93 2206.96 2265.38 2200.5 2268.09L2162.63 2285.44L2153.16 2289.72L2143.39 2293.4L2104.47 2308.13L2094.7 2311.81L2084.71 2314.82L2044.82 2326.69C2031.6 2331.12 2017.92 2333.53 2004.33 2336.53L1991.11 2339.38C1989.53 2331.19 1987.35 2323 1984.35 2314.96C1977.51 2297.08 1967.3 2280.25 1954.52 2266.13C1928.98 2237.73 1895.32 2219.47 1860.53 2210.16C1843.18 2205.43 1825.37 2202.8 1807.79 2201.9C1798.62 2201.52 1791.04 2201.83 1782.77 2201.75C1774.58 2201.9 1766.47 2201.67 1758.35 2202.13C1725.67 2203.11 1692.91 2206.26 1660.46 2212.12C1627.93 2217.9 1595.55 2226.47 1564.44 2239.17C1533.34 2251.72 1503.51 2268.7 1476.91 2290.03C1475.56 2291.08 1474.21 2292.28 1472.85 2293.41C1437.99 2236.24 1336.04 2109.57 1138.37 2161.11C1102.98 2126.4 971.81 1989.81 956.4 1859.76C959.03 1858.78 962.86 1857.73 968.12 1856.91C976.76 1855.56 984.12 1850 987.8 1842.03C991.56 1834.07 991.03 1824.83 986.45 1817.31C986.3 1816.93 966.54 1783.95 960.91 1746.24C968.72 1740.91 976.54 1736.17 980.44 1734.82C989.08 1731.74 993.81 1726.71 998.62 1716.11C1020.56 1726.55 1059.7 1745.64 1105.83 1769.75C1193.43 1815.5 1306.2 1879.36 1374.65 1937.14C1393.96 1953.44 1409.74 1969.3 1420.4 1984.1C1421.53 1985.6 1422.5 1987.03 1423.48 1988.53L1469.91 2017.53C1469.91 2017.53 1492.6 2007.76 1536.55 1993.56C1566.98 1983.72 1607.62 1971.77 1657.96 1959.45C1767.12 1932.78 1921.89 1904.53 2117.46 1892.88C2228.58 1886.12 2352.92 1884.84 2489.43 1892.28C2495.37 1907.01 2502.13 1921.58 2509.87 1935.78Z" fill="#FFDAB6"/>
<path d="M2373.66 2547.79C2357.21 2543.43 2339.48 2541.85 2321.67 2544.63C2307.32 2546.73 2293.65 2551.62 2281.25 2558.08C2268.93 2564.69 2258.26 2572.96 2248.42 2581.67C2239.03 2590.69 2230.24 2600.15 2222.88 2610.14C2221 2612.62 2219.12 2615.02 2217.25 2617.65L2211.84 2626.22C2210.11 2629.07 2208.16 2631.93 2206.73 2634.86L2202.52 2643.65C2181.26 2690.68 2176 2738.61 2175.85 2785.95C2175.93 2790.68 2176.15 2795.42 2176.38 2800.15C2173.42 2809.41 2170.58 2818.15 2167.97 2826.15C2161.85 2844.88 2136.27 2846.89 2127.1 2829.46C2109.73 2796.47 2095.14 2763.5 2083.99 2736.14C2079.34 2724.74 2062.56 2727.33 2061.55 2739.6C2058.26 2779.4 2049.88 2823.56 2042.79 2856.05C2038.53 2875.57 2012.81 2879.84 2002.14 2862.96C1973.7 2817.97 1957.72 2773.71 1947.26 2738.18C1943.73 2726.18 1926.33 2727.4 1924.52 2739.78C1916.5 2794.72 1897.43 2860.28 1883.49 2903.85C1877.16 2923.63 1849.89 2924.62 1841.73 2905.53C1817.34 2848.45 1814.73 2775.22 1817.8 2718.27C1818.52 2704.87 1799.84 2701 1795.15 2713.57C1788.89 2730.33 1783.13 2745.7 1778.76 2756.88C1771.09 2776.47 1742.87 2775.37 1736.79 2755.23C1726.86 2722.34 1717.88 2684.74 1711.12 2654.18C1718.78 2634.65 1727.5 2615.56 1737.27 2597.01C1760.19 2553.43 1789.11 2513.01 1823.6 2479.06C1858.08 2445.18 1898.66 2417.68 1942.98 2404.08C1948.54 2402.65 1954.02 2400.85 1959.66 2399.72L1968.07 2398.07L1972.28 2397.24L1976.94 2396.64L1995.35 2394.31C2001.44 2393.41 2007.6 2392.73 2013.76 2392.43C2026.08 2391.53 2038.33 2390.4 2050.57 2390.55C2056.73 2390.55 2062.89 2390.17 2068.98 2390.47L2087.31 2391.3C2093.47 2391.38 2099.48 2392.13 2105.49 2392.8C2111.58 2393.48 2117.66 2393.85 2123.67 2394.83C2135.62 2396.86 2147.64 2398.66 2159.28 2401.74C2182.8 2407.3 2205.79 2414.89 2227.57 2425.11C2271.22 2445.17 2310.66 2474.17 2343.2 2509.86C2354.13 2521.87 2364.27 2534.57 2373.66 2547.79Z" fill="#FFDAB6"/>
<path d="M1224.97 1727.96C1246.57 1740.03 1282.28 1761.6 1315.17 1788.94C1328.84 1800.3 1348.49 1785.16 1340.67 1769.2C1309.54 1705.63 1262.75 1640.07 1218.78 1695.47C1210.45 1705.99 1213.25 1721.41 1224.97 1727.96Z" fill="#FFDAB6"/>
<path d="M1903.85 1800.76C1877.23 1806.92 1832.72 1818.83 1789.43 1837.71C1771.44 1845.56 1755.25 1823.46 1768.45 1808.93C1821.01 1751.07 1890.79 1695.92 1920.4 1768.2C1926.01 1781.91 1918.3 1797.41 1903.85 1800.76Z" fill="#FFDAB6"/>
<path d="M2519.79 1162.54C2508.37 1297.1 2482.68 1430.83 2449.47 1562.61C2392.75 1432.11 2326.86 1361.19 2289.97 1328.88C2306.95 1314.08 2318.67 1296.27 2324.91 1275.76C2331.82 1253.07 2330.54 1231.06 2326.94 1213.4C2336.56 1211.6 2345.8 1208.82 2354.74 1204.61C2406.81 1179.89 2424.24 1121.74 2424.91 1119.26C2426.94 1112.5 2426.11 1105.21 2422.66 1099.05C2419.2 1092.96 2413.49 1088.46 2406.73 1086.58C2361.05 1073.96 2280.74 1037.22 2247.68 1021.74C2247.68 1021.74 2247.76 1021.66 2247.83 1021.51C2250.91 1013.7 2254.14 1005.96 2257.3 998.14C2262.71 985.29 2267.52 972.22 2273.38 959.6C2284.87 934.36 2295.62 908.74 2308.62 884.39L2317.79 865.83C2320.95 859.74 2324.4 853.88 2327.63 847.8C2334.39 835.93 2340.63 823.68 2348.14 812.34C2355.2 800.77 2362.04 788.97 2370 778.16L2381.49 761.63L2393.66 745.85C2397.57 740.37 2402.07 735.71 2406.36 730.75L2412.75 723.31L2419.44 716.55C2423.8 711.74 2428.53 707.83 2433.04 703.63C2434.99 701.75 2436.95 700.4 2438.98 698.82C2446.04 701.15 2452.65 704.83 2457.91 710.01C2462.19 714.22 2465.35 718.57 2468.2 724.51C2471.51 732.25 2475.41 739.69 2478.42 747.65C2491.04 779.2 2500.73 812.56 2507.35 846.67L2509.98 859.44L2512.08 872.36L2516.14 898.28C2516.22 898.66 2516.22 898.96 2516.29 899.33C2518.17 916.38 2520.27 933.44 2521.62 950.57C2526.77 1020.77 2525.8 1091.77 2519.79 1162.54Z" fill="#FFDAB6"/>
<path d="M1374.95 1937.81C1355.04 1922.71 1334.83 1909.34 1314.17 1897.09C1293.66 1884.84 1272.92 1873.72 1251.74 1864.03C1230.7 1854.26 1209.29 1845.85 1188.1 1838.03C1182.77 1836.15 1177.66 1833.67 1172.25 1832.02C1166.92 1830.22 1161.58 1828.34 1156.4 1826.23C1145.88 1822.17 1135.06 1819.02 1124.7 1814.21L1122 1812.93C1105.47 1805.27 1098.33 1785.66 1106.07 1769.13C1112.61 1755.08 1127.71 1747.87 1142.21 1750.65C1167.83 1755.61 1192.62 1764.55 1215.69 1776.57C1227.41 1782.28 1238.45 1789.27 1249.27 1796.4C1254.75 1799.86 1259.71 1804.06 1264.97 1807.9C1270.08 1811.73 1275.26 1815.64 1280.15 1819.85C1300.06 1836.15 1318.09 1854.56 1334.24 1874.09C1350.24 1893.86 1364.66 1914.82 1374.95 1937.81Z" fill="#66142E"/>
<path d="M2122.2 1877.03C2119.8 1898.97 2102.37 1915.72 2081.25 1917.98L2078.24 1918.36C2060.66 1920.24 2043.23 1920.16 2025.8 1920.69C2008.45 1921.82 1990.94 1921.14 1973.51 1922.12C1964.8 1922.42 1956.01 1922.5 1947.29 1922.65C1938.5 1923.1 1929.78 1923.48 1920.99 1923.7L1907.77 1924L1894.55 1924.83C1885.76 1925.51 1876.82 1925.73 1868.03 1926.48C1832.64 1929.11 1797.11 1933.47 1761.42 1939.4C1725.66 1945.34 1689.82 1952.77 1653.68 1963.22C1681.48 1937.45 1714.01 1917.09 1747.52 1898.98C1781.33 1881.32 1816.79 1866.37 1853.3 1854.35C1862.47 1851.27 1871.71 1848.72 1880.95 1846.09C1890.27 1843.31 1899.51 1840.68 1908.97 1838.73C1918.36 1836.55 1927.75 1834.45 1937.22 1832.49C1946.76 1830.91 1956.23 1829.49 1965.84 1828.13C2004.08 1822.87 2042.85 1822.04 2081.16 1826.18C2106.57 1828.87 2124.9 1851.63 2122.2 1877.03Z" fill="#66142E"/>
<path d="M1539.11 2004.45C1527.16 2012.86 1504.78 2025.04 1468.04 2032.92C1464.21 2033.75 1460.23 2033.07 1456.77 2031.19C1446.25 2025.25 1423.79 2010.6 1418.38 1990.54C1417.25 1986.41 1420.48 1982.35 1424.77 1982.8L1536.19 1993.47C1541.74 1994.01 1543.7 2001.22 1539.11 2004.45Z" fill="#66142E"/>
<path d="M1614.02 2118.95C1609.14 2123.68 1603.88 2128.12 1598.69 2132.85C1592.83 2136.61 1587.12 2140.89 1580.66 2144.04C1567.81 2150.43 1552.71 2154.18 1536.93 2152.98C1521.08 2151.78 1505.6 2144.64 1493.81 2134.5C1487.95 2129.39 1482.54 2123.83 1477.96 2117.67C1474.8 2120.83 1471.42 2123.83 1467.67 2126.61C1457.53 2133.9 1443.78 2139.91 1429.2 2138.26C1422.06 2137.43 1415.3 2134.88 1409.82 2131.2C1404.41 2127.52 1399.98 2123.09 1396.37 2118.35C1389.23 2108.88 1385.1 2098.29 1382.4 2087.55C1390.44 2095.21 1398.18 2102.65 1406.37 2108.06C1410.43 2110.84 1414.63 2112.79 1418.62 2114.22C1422.6 2115.5 1426.43 2115.87 1429.96 2115.42C1436.95 2114.44 1443.63 2110.39 1450.02 2104.45C1456.18 2098.74 1462.49 2090.78 1467 2083.86C1471.36 2076.72 1480.6 2074.47 1487.74 2078.75C1490.29 2080.33 1492.25 2082.58 1493.45 2085.14L1493.83 2085.89C1495.86 2090.02 1498.79 2095.96 1502.02 2100.46C1505.18 2105.34 1508.86 2109.7 1512.69 2113.91C1520.43 2122.1 1529.74 2128.41 1540.64 2131.26C1543.34 2132.24 1546.2 2132.31 1549.05 2132.91C1551.9 2133.66 1554.84 2133.51 1557.84 2133.44C1563.93 2133.97 1570.01 2132.46 1576.32 2131.64C1579.55 2131.41 1582.48 2129.99 1585.64 2129.16L1595.18 2126.46C1601.32 2123.98 1607.48 2121.28 1614.02 2118.95Z" fill="#66142E"/>
<path d="M1738.28 973.44C1724.46 970.21 1711.83 966.75 1701.02 963.6C1678.26 957.06 1663.76 951.58 1663.38 951.5C1650.68 946.62 1635.73 952.03 1630.4 964.57C1614.62 1001.46 1617.55 1043.53 1625.29 1070.8C1625.44 1071.7 1625.74 1072.53 1625.97 1073.35C1626.05 1073.65 1626.12 1073.8 1626.12 1073.8C1623.64 1073.72 1621.16 1073.57 1618.68 1073.42C1603.13 1072.22 1587.65 1070.34 1572.4 1067.56C1568.79 1066.96 1565.19 1066.21 1561.58 1065.46C1560.45 1053.51 1559.25 1041.87 1557.97 1030.45C1553.01 983.64 1547.38 941.05 1541.07 902.5C1525.74 808.59 1506.51 739.09 1483.22 693.41C1483.22 693.41 1483.3 693.41 1483.37 693.49C1575.1 748.05 1660.6 841.88 1738.28 973.44Z" fill="#8E3410"/>
<path d="M1442.84 3113.49C1446.29 3121.89 1452 3136.25 1456.95 3150.68C1457.13 3151.2 1457.19 3151.75 1457.15 3152.29C1455.47 3173.05 1454.58 3193.74 1454.06 3214.5V3215.03C1452.93 3217.28 1451.28 3219.24 1449.03 3221.12C1443.92 3225.33 1436.56 3227.51 1428.67 3227.58C1380.14 3227.28 1333.25 3224.88 1319.13 3210.15C1308.76 3199.25 1307.65 3172.27 1307.12 3131.62C1307.11 3131.1 1307.19 3130.59 1307.38 3130.1C1311.51 3119.17 1317.66 3105.72 1325.18 3097.92C1327.04 3095.99 1330.26 3096.46 1331.56 3098.81C1334.36 3103.86 1338.97 3113.02 1342.51 3124.27C1343.67 3127.97 1348.84 3128.17 1350.15 3124.52C1352.94 3116.75 1357.04 3107.18 1362.27 3100.2C1363.94 3097.97 1367.29 3098 1368.87 3100.3C1372.18 3105.11 1377.19 3113.94 1379.4 3125.75C1380.14 3129.69 1385.46 3130.38 1387.03 3126.68C1390.56 3118.39 1395.11 3108.76 1399.76 3101.65C1401.42 3099.11 1405.2 3099.33 1406.65 3101.99C1410.02 3108.21 1415.35 3119.2 1418.72 3132.05C1419.69 3135.74 1424.77 3136.16 1426.29 3132.65C1428.89 3126.65 1432.22 3119.37 1435.58 3113.1C1437.19 3110.11 1441.55 3110.36 1442.84 3113.49Z" fill="#8E3410"/>
<path d="M1698.91 3157.1C1698.83 3170.92 1697.41 3184.37 1693.65 3195.79C1686.29 3219.08 1672.54 3231.25 1648.8 3236.29C1642.86 3237.49 1636.55 3238.09 1630.02 3238.32L1624.99 3238.4H1619.36C1615.53 3238.4 1611.77 3238.32 1608.09 3238.17C1593.14 3237.72 1578.34 3236.52 1564.44 3234.11C1550.54 3231.71 1537.09 3228.33 1526.57 3223.14C1521.39 3220.59 1516.8 3217.73 1513.87 3214.8C1512.29 3213.45 1511.17 3212.02 1510.41 3210.97C1510.11 3210.59 1509.96 3210.29 1509.81 3209.99C1509.51 3198.72 1509.06 3187.38 1508.46 3176.11C1508.01 3167.77 1507.48 3159.51 1506.81 3151.17C1506.81 3150.94 1506.81 3150.72 1506.73 3150.49C1510.77 3142.98 1515.54 3134.17 1519.78 3126.92C1521.41 3124.13 1525.48 3124.32 1526.88 3127.23C1528.5 3130.59 1530.53 3134.84 1532.53 3139.03C1534.33 3142.82 1540 3141.71 1540.2 3137.51C1540.67 3127.82 1541.51 3115.96 1542.99 3107.74C1543.58 3104.46 1547.71 3103.31 1549.94 3105.79C1555.56 3112.05 1564.55 3123.78 1570.3 3139.9C1571.69 3143.81 1577.34 3143.34 1578.05 3139.26C1580.48 3125.28 1584.17 3107.29 1588.49 3096.97C1589.69 3094.11 1593.56 3093.68 1595.42 3096.17C1602.02 3104.99 1615.37 3124.35 1621.31 3143.88C1622.44 3147.61 1627.54 3147.88 1628.93 3144.24C1632.68 3134.41 1638.67 3121.25 1646.94 3110.55C1648.48 3108.56 1651.48 3108.54 1653.13 3110.44C1657.96 3115.98 1666.84 3127.98 1670.62 3144.94C1671.49 3148.82 1676.7 3149.46 1678.28 3145.81C1682.24 3136.6 1687.75 3124.65 1693.29 3115.27C1693.59 3115.72 1693.89 3116.25 1694.19 3116.7C1694.64 3117.38 1695.17 3118.05 1695.62 3118.8C1696 3120.9 1696.37 3123.31 1696.67 3125.41C1697.2 3128.94 1697.57 3132.47 1697.87 3136C1698.54 3143.05 1698.91 3150.11 1698.91 3157.1Z" fill="#8E3410"/>
<path d="M2167.2 1146.91C2164.72 1161.03 2161.49 1174.86 2159.99 1189.13C2157.81 1204.46 2155.93 1219.86 2154.36 1235.26C2144.19 1221.54 2137.81 1206.77 2133.81 1193.72C2130.69 1183.52 2116.98 1181.71 2111.13 1190.63C2109.28 1193.44 2107.45 1196.01 2105.69 1198.31C2099.72 1206.14 2087.3 1204.49 2083.8 1195.29C2081.35 1188.84 2079.54 1182.02 2078.21 1175.54C2076.24 1165.97 2064.6 1162.29 2057.3 1168.8C2050.9 1174.51 2044.04 1178.69 2038.4 1181.56C2031.52 1185.07 2023.22 1181.63 2020.58 1174.38C2018.35 1168.26 2016.87 1162.17 2015.9 1156.47C2014.21 1146.5 2002.06 1142.45 1994.71 1149.4C1991.17 1152.75 1987.68 1155.75 1984.55 1158.29C1977.63 1163.9 1967.34 1160.83 1964.43 1152.41C1960.72 1141.69 1959.81 1129.95 1960.21 1119.11C1964.04 1112.35 1967.95 1105.66 1971.93 1098.98C1989.89 1068.7 2009.42 1039.25 2030.16 1010.78C2071.71 953.831 2118.51 900.791 2170.28 853.461C2193.5 832.051 2217.91 811.991 2243.23 793.361C2246.23 791.181 2249.24 789.001 2252.32 786.901C2256.6 783.671 2260.96 780.661 2265.32 777.661C2265.7 777.431 2266 777.131 2266.37 776.981C2272.23 772.851 2278.17 768.871 2284.18 765.031C2289.96 761.201 2295.83 757.521 2301.76 753.911C2306.34 751.061 2310.93 748.201 2315.58 745.571C2316.33 745.041 2317.16 744.521 2317.98 744.071C2318.73 743.621 2319.48 743.171 2320.31 742.791C2321.51 744.141 2321.29 743.921 2322.56 745.341C2313.77 757.361 2306.33 769.981 2298.59 782.531C2268.76 833.091 2245.02 886.131 2224.81 940.081C2219.55 953.531 2215.49 967.351 2210.76 980.951C2207.15 992.141 2203.1 1003.34 2199.64 1014.61C2198.89 1017.01 2198.14 1019.42 2197.46 1021.82C2193.48 1035.64 2189.72 1049.39 2185.97 1063.22C2182.29 1077.04 2178.38 1090.87 2175.75 1104.92C2172.91 1118.97 2169.76 1132.86 2167.2 1146.91Z" fill="#8E3410"/>
<path opacity="0.7" d="M1426.94 1215.88C1318.6 1261.03 1237.24 1326.47 1176.16 1395.29C1137.92 1438.41 1107.64 1482.82 1083.75 1524.44C1043.71 1594.01 1021.32 1655.62 1008.92 1689.8C1004.79 1701.14 1001.71 1709.71 998.63 1716.1C997.5 1718.8 996.23 1721.13 994.95 1723.09C994.42 1723.92 993.9 1724.74 993.37 1725.49C992.54 1726.54 991.72 1727.52 990.89 1728.34C990.21 1729.02 989.46 1729.69 988.71 1730.29C987.88 1731.04 986.91 1731.72 985.86 1732.32C985.11 1732.77 984.36 1733.15 983.53 1733.52C982.55 1733.97 981.58 1734.42 980.45 1734.8C976.54 1736.15 968.73 1740.89 960.92 1746.22C961.07 1747.42 961.3 1748.62 961.52 1749.83L961.6 1750.06C961.6 1750.06 992.78 1747.05 1019.15 1743C1032.81 1740.89 1046.47 1656.61 1106.17 1546.12C1109.78 1539.44 1116.92 1535.71 1124.51 1535.72C1124.55 1535.72 1124.59 1535.72 1124.63 1535.72C1168.66 1535.72 1204.34 1500.03 1204.34 1456.01C1204.34 1445.49 1202.31 1435.51 1198.6 1426.37C1195.85 1419.58 1196.59 1411.85 1201.31 1406.24C1256.13 1341.15 1329.05 1274.97 1426.94 1215.88Z" fill="white"/>
<path opacity="0.7" d="M1125.9 2307.38C1145.03 2286.41 1171.72 2281.91 1171.72 2281.91C1143.92 2351.93 1165.26 2620.37 1165.26 2620.37C1161.05 2607.45 1156.02 2594.83 1152.94 2581.68C1144.98 2555.08 1140.47 2527.66 1137.39 2500.01L1135.66 2479.12L1134.91 2458.08C1134.91 2444.03 1135.59 2429.98 1136.49 2415.86C1137.99 2387.39 1140.02 2358.91 1141.52 2327.43C1121.54 2347.64 1108.91 2373.03 1100.65 2399.4C1100.05 2398.65 1099.3 2397.67 1098.47 2396.39C1093.81 2389.18 1090.96 2379.94 1090.21 2369.79C1086.08 2312.69 1099 2273.92 1113.35 2249.21C1126.12 2227.2 1148.06 2211.95 1173.08 2207.14C1222.89 2197.52 1264.66 2201.58 1299.15 2212.93C1167.91 2191.51 1129.37 2265.1 1118.37 2303.36C1117.08 2307.86 1122.75 2310.83 1125.9 2307.38Z" fill="white"/>
<path opacity="0.7" d="M2373.66 2547.79C2364.27 2534.57 2354.13 2521.87 2343.16 2509.85C2310.63 2474.16 2271.19 2445.16 2227.53 2425.1C2205.74 2414.88 2182.75 2407.29 2159.24 2401.73C2147.59 2398.65 2135.57 2396.85 2123.63 2394.82C2117.62 2393.84 2111.53 2393.47 2105.45 2392.79C2099.44 2392.11 2093.43 2391.36 2087.27 2391.29L2068.94 2390.46C2062.85 2390.16 2056.69 2390.54 2050.53 2390.54C2038.28 2390.39 2026.04 2391.52 2013.72 2392.42C2007.56 2392.72 2001.4 2393.4 1995.31 2394.3L1976.9 2396.63L1972.24 2397.23L1968.03 2398.06L1959.62 2399.71C1953.99 2400.84 1948.5 2402.64 1942.94 2404.07C1898.61 2417.67 1858.04 2445.17 1823.56 2479.05C1789.08 2513.01 1760.15 2553.43 1737.23 2597C1727.46 2615.56 1718.75 2634.64 1711.08 2654.17C1695.9 2692.71 1684.93 2732.98 1678.62 2773.85C1673.06 2809.61 1671.11 2845.9 1673.14 2881.89C1676.15 2930.65 1685.99 2979.11 1704.77 3023.81C1714.09 3046.2 1725.28 3067.69 1738.35 3088.12C1750.82 3107.35 1765.17 3125.46 1780.72 3142.44C1781.55 3143.34 1782.37 3144.24 1783.2 3145.15C1816.41 3180.61 1856.23 3209.91 1899.35 3233.58C1942.63 3256.87 1989.13 3274.83 2037.21 3288.05C2024.82 3283.55 1534.36 3100.16 1778.44 2595.78C1799.45 2618.77 1856.97 2605.12 1908.83 2564.28C1961.83 2522.55 1988.05 2467.61 1968.25 2442.46C2065.57 2410.14 2200.57 2418.14 2373.66 2547.79Z" fill="white"/>
<path d="M2898.44 3062.51L2888.07 3042.6L2882.89 3032.68L2880.26 3027.72L2877.26 3022.91C2868.92 3010.44 2861.48 2997.29 2851.72 2985.72C2846.99 2979.86 2842.48 2973.77 2837.52 2968.06L2821.97 2951.53C2816.94 2945.9 2811.08 2941.09 2805.44 2935.98C2799.65 2931.02 2794.25 2925.69 2788.01 2921.33C2764.34 2902.4 2737.75 2887.22 2709.95 2875.2C2695.98 2869.11 2681.63 2864.16 2666.98 2859.95C2659.77 2858.07 2652.55 2856.12 2645.12 2854.69C2642.79 2614.12 2531.52 2511.57 2476.98 2475.73C2488.55 2447.63 2482.84 2415.03 2481.86 2410.07C2479.23 2396.92 2467.21 2387.83 2453.91 2388.96C2300.19 2401.43 2221.53 2359.88 2186.97 2332.09L2223.56 2315.34C2230.32 2312.49 2236.71 2308.8 2243.24 2305.35L2262.62 2294.91L2282 2284.47C2288.39 2280.86 2294.55 2276.81 2300.86 2273.05C2351.35 2243 2398.68 2207.84 2442.71 2168.99C2453.98 2159.52 2464.35 2149.08 2475.17 2139.16C2485.84 2129.02 2495.91 2118.35 2506.27 2107.83C2516.19 2096.94 2526.25 2086.19 2535.72 2074.77C2540.53 2069.21 2545.26 2063.35 2549.84 2057.49C2552.17 2054.56 2554.5 2051.7 2556.83 2048.55C2559.08 2045.54 2561.34 2042.61 2563.82 2039.01L2564.05 2038.71C2570.81 2029.09 2570.14 2015.65 2561.8 2006.63C2553.01 1997.16 2544.97 1992.73 2537.16 1988.6C2542.72 1983.27 2547.68 1977.26 2551.66 1970.57C2555.12 1965.01 2557.6 1959 2559.7 1952.84C2560.6 1949.68 2561.58 1946.6 2562.18 1943.3C2562.56 1941.72 2562.86 1940.07 2563.08 1938.27C2563.16 1937.44 2563.31 1936.62 2563.38 1935.57C2563.46 1934.59 2563.61 1933.77 2563.61 1931.89C2563.76 1927.38 2562.71 1922.65 2560.23 1918.44L2559.93 1917.84C2546.56 1894.78 2536.04 1869.38 2527.4 1842.94C2519.21 1816.34 2513.05 1788.85 2508.09 1760.97C2503.43 1732.95 2500.28 1704.62 2498.25 1676.15C2496.3 1648.65 2495.4 1620.25 2496 1593.51C2531.91 1453.84 2559.94 1311.55 2572.26 1166.77C2578.42 1093.89 2579.47 1020.19 2574.06 946.49C2572.63 928.08 2570.3 909.68 2568.28 891.27L2563.92 863.7L2561.74 849.95L2558.81 836.2C2551.75 799.61 2541.3 763.32 2527.1 727.94C2523.72 719 2519.36 710.36 2515.53 701.64C2510.65 691.27 2503.28 680.68 2494.57 672.34C2477.06 655.29 2453.47 645.07 2429.21 643.72C2417.11 643.04 2404.79 644.47 2393.22 648.15C2390.37 649.05 2387.59 650.18 2384.73 651.23C2383.15 651.83 2382.1 652.28 2381.12 652.81L2377.89 654.24L2365.19 660.1C2348.14 667.54 2331.76 676.4 2315.3 685.04C2250.01 720.8 2189.38 764.53 2134.84 814.64C2080.22 864.6 2031.16 920.27 1987.66 979.85C1977.97 993.22 1968.58 1006.75 1959.34 1020.5C1937.93 1004.87 1902.02 988.57 1844.62 987.82C1831.62 987.67 1818.55 986.77 1805.63 985.27C1706.76 805.86 1593.61 684.97 1469.05 626.22C1435.09 610.14 1395.42 615.48 1366.8 639.59C1365.75 640.49 1364.77 641.32 1363.87 642.14C1363.72 642.22 1363.64 642.29 1363.57 642.37L1363.12 642.82C1363.04 642.9 1362.97 642.9 1362.97 642.97C1269.06 729.97 1206.85 900.37 1167.18 1058.06C1127.44 1215.76 1110.23 1360.68 1106.32 1396.75C1019.17 1507.79 978.449 1619.74 959.519 1671.88C957.269 1678.19 954.789 1684.95 952.979 1689.69C937.799 1697.43 921.119 1709.98 917.289 1712.91C910.449 1718.17 906.549 1726.43 906.999 1735C908.499 1765.88 918.189 1794.95 926.979 1815.46C911.349 1823.95 905.939 1834.62 904.069 1840.18C903.019 1843.34 902.569 1846.72 902.789 1850.02C911.129 1993.89 1042.23 2139.05 1092.49 2189.68C1066.49 2217.78 1030.73 2275.03 1037.8 2373.67C1039.15 2392.6 1044.86 2410.33 1054.33 2424.98C1066.2 2443.31 1079.57 2450.37 1089.79 2452.93C1089.64 2453.83 1089.56 2454.66 1089.41 2455.56L1087.23 2478.93C1086.7 2486.74 1087 2494.63 1086.85 2502.52C1087.15 2533.92 1090.53 2565.63 1098.95 2596.13C1102.33 2611.61 1108.04 2626.33 1113.53 2641.13C1115.93 2648.64 1119.84 2655.55 1123.15 2662.69C1126.46 2669.75 1130.21 2676.74 1133.74 2683.73L1134.27 2684.86C1135.7 2687.56 1137.58 2690.12 1139.98 2692.22C1150.42 2701.69 1166.58 2700.86 1176.04 2690.34C1181.37 2684.78 1185.73 2679.82 1190.39 2674.34C1190.54 2674.19 1190.69 2673.96 1190.92 2673.74C1195.88 2690.94 1240.58 2849.17 1251.78 3029.78C1253.96 3065.47 1254.26 3095.07 1254.49 3121.21C1255.09 3180.49 1255.47 3219.63 1281.16 3246.53C1307.61 3274.1 1353.28 3279.66 1428.34 3280.19H1429.02C1448.78 3280.19 1467.49 3273.8 1481.84 3262.23C1487.85 3267.11 1494.09 3271.02 1500.32 3274.4C1518.35 3283.87 1536.31 3288.83 1553.89 3292.28C1571.47 3295.59 1588.75 3297.16 1605.88 3297.91C1610.16 3298.14 1614.37 3298.29 1618.65 3298.29L1624.96 3298.44L1632.02 3298.36C1641.41 3297.98 1651.1 3297.01 1660.94 3294.98C1680.47 3290.92 1701.36 3282.13 1717.74 3266.66C1734.19 3251.33 1744.56 3231.2 1749.75 3211.96C1751.7 3204.6 1752.91 3197.38 1753.81 3190.25C1789.35 3226.09 1830.52 3255.76 1874.24 3279.81C1921.8 3305.43 1972.21 3324.74 2023.6 3338.86C2126.68 3366.58 2232.76 3375.75 2337.64 3374.62C2390.46 3374.54 2443.8 3369.89 2496.24 3360.2C2522.46 3355.32 2548.46 3349.16 2574.15 3341.64C2581.96 3339.31 2589.78 3336.76 2597.67 3334.13C2596.32 3345.32 2596.09 3357.04 2597.67 3369.22V3369.29C2597.67 3369.59 2597.75 3369.97 2597.75 3370.19C2599.85 3384.16 2612.78 3393.78 2626.75 3391.75L2627.65 3391.6C2633.96 3390.7 2638.47 3389.8 2643.65 3388.67C2648.76 3387.54 2653.72 3386.27 2658.6 3384.84C2668.37 3382.06 2678.06 3378.75 2687.53 3374.85C2706.46 3367.11 2724.79 3357.34 2741.77 3345.1C2775.73 3321.06 2804.28 3285.15 2816.15 3243.9C2822.31 3223.54 2824.71 3202.5 2824.34 3181.99C2823.89 3171.77 2823.44 3161.55 2821.79 3151.64C2820.66 3141.65 2818.26 3131.96 2816 3122.34C2815.02 3117.46 2813.22 3112.87 2811.72 3108.22C2810.44 3104.46 2809.17 3100.71 2807.81 3097.03C2812.77 3099.81 2818.03 3102.06 2823.44 3103.57C2833.88 3106.65 2844.78 3107.7 2855.3 3106.73C2860.56 3106.28 2865.67 3105.23 2870.7 3103.88C2873.18 3103.2 2875.66 3102.23 2878.14 3101.33C2880.77 3100.2 2882.72 3099.3 2886.1 3097.35L2887 3096.9L2887.75 3096.52C2900.1 3090.08 2904.83 3074.83 2898.44 3062.51ZM2431.13 2443.06C2430.3 2451.62 2428.05 2459.14 2423.92 2461.69C2415.58 2466.95 2410.85 2476.42 2411.67 2486.18C2412.57 2496.02 2418.81 2504.51 2427.9 2508.27C2430.15 2509.17 2649.68 2604.74 2578.01 3020.81C2565.69 3025.69 2553.44 3030.5 2541.12 3035.08C2501.08 3048.83 2459.15 3057.02 2419.26 3053.41L2404.46 3051.76C2401.91 3051.61 2399.5 3051.08 2397.17 3050.41L2390.03 3048.68L2382.89 3047.03L2379.28 3046.2L2375.9 3044.85L2362.3 3039.82C2357.64 3038.32 2353.66 3035.54 2349.3 3033.51C2345.02 3031.26 2340.66 3029.23 2336.83 3026.22L2324.88 3018.11L2313.91 3008.49C2299.86 2995.19 2287.09 2980.02 2277.17 2962.58L2273.26 2956.19C2272.06 2954.01 2271.01 2951.68 2269.88 2949.5L2263.12 2935.9C2259.51 2926.43 2255.08 2917.34 2252.23 2907.43C2238.86 2868.74 2233.07 2826.97 2232.85 2785.64C2233.15 2764.98 2234.5 2744.39 2237.81 2724.26C2241.42 2704.43 2246.75 2684.97 2254.64 2668.21L2257.57 2661.9C2258.62 2659.87 2259.9 2658.22 2261.03 2656.27L2264.34 2650.71C2265.69 2648.83 2267.27 2646.88 2268.62 2644.92C2274.33 2636.88 2280.79 2630.12 2287.33 2623.58C2294.02 2617.57 2300.93 2612.16 2308.14 2608.18C2315.43 2604.27 2322.87 2601.72 2330.53 2600.37C2345.71 2597.59 2362.31 2600.6 2378.76 2608.26C2386.95 2611.94 2395.06 2616.82 2402.88 2622.31C2406.71 2625.09 2410.54 2628.1 2414.15 2631.18C2415.95 2632.76 2417.76 2634.34 2419.48 2635.91C2421.06 2637.41 2423.09 2639.44 2423.91 2640.34L2425.34 2641.77C2432.18 2648.76 2442.77 2651.61 2452.69 2648.16C2466.29 2643.43 2473.5 2628.48 2468.77 2614.88L2468.69 2614.8C2465.99 2606.91 2463.51 2600.98 2460.65 2594.44C2457.87 2588.05 2454.94 2581.82 2451.86 2575.66C2445.62 2563.41 2438.86 2551.47 2431.65 2539.82C2417.07 2516.6 2400.47 2494.67 2381.99 2474.38C2371.55 2462.89 2360.35 2452.07 2348.63 2441.77C2373.58 2443.89 2401.01 2444.49 2431.13 2443.06ZM2348.12 812.36C2355.18 800.79 2362.02 788.99 2369.98 778.18L2381.47 761.65L2393.64 745.87C2397.55 740.39 2402.05 735.73 2406.34 730.77L2407.57 729.34C2411.01 725.34 2414.58 721.46 2418.29 717.71L2419.41 716.57C2423.77 711.76 2428.5 707.85 2433.01 703.65C2434.96 701.77 2436.92 700.42 2438.95 698.84C2446.01 701.17 2452.62 704.85 2457.88 710.03C2462.16 714.24 2465.32 718.59 2468.17 724.53C2471.48 732.27 2475.38 739.71 2478.39 747.67C2491.01 779.22 2500.7 812.58 2507.32 846.69L2509.95 859.46L2512.05 872.38L2516.11 898.3C2518.06 915.73 2520.24 933.09 2521.59 950.59C2526.77 1020.76 2525.8 1091.76 2519.79 1162.53C2508.37 1297.09 2482.68 1430.82 2449.47 1562.6C2392.75 1432.1 2326.86 1361.18 2289.97 1328.87C2306.95 1314.07 2318.67 1296.26 2324.91 1275.75C2331.82 1253.06 2330.54 1231.05 2326.94 1213.39C2336.56 1211.59 2345.8 1208.81 2354.74 1204.6C2406.81 1179.88 2424.24 1121.73 2424.91 1119.25C2426.94 1112.49 2426.11 1105.2 2422.66 1099.04C2419.2 1092.95 2413.49 1088.45 2406.73 1086.57C2361.05 1073.95 2280.74 1037.21 2247.68 1021.73C2250.84 1013.84 2254.14 1006.03 2257.3 998.14C2262.71 985.29 2267.52 972.22 2273.38 959.6C2284.87 934.36 2295.62 908.74 2308.62 884.39L2317.79 865.83C2320.95 859.74 2324.4 853.88 2327.63 847.8C2334.37 835.95 2340.6 823.7 2348.12 812.36ZM1738.28 973.44C1695.23 963.37 1663.9 951.65 1663.38 951.5C1650.68 946.62 1636.41 952.33 1630.4 964.57C1613.67 999.01 1616.72 1045.02 1626.12 1073.81C1620.5 1073.59 1620.5 1073.59 1620.5 1073.59C1604.34 1072.39 1588.26 1070.51 1572.41 1067.58C1568.8 1066.98 1565.2 1066.23 1561.59 1065.48C1544.23 885.69 1518.39 762.4 1483.23 693.43C1575.03 747.97 1660.52 841.81 1738.28 973.44ZM1399.14 681.03C1402.52 678.25 1405.98 679.68 1407.1 680.13C1417.24 684.41 1463.67 717.39 1497.33 966.45C1497.33 966.45 1497.33 966.52 1497.26 966.52C1480.66 966.82 1463.98 966.82 1447.15 966.75C1420.63 966.6 1393.88 966.15 1367.44 965.47L1365.26 965.39C1364.36 965.39 1363.38 965.39 1362.48 965.47C1349.11 966.67 1339.19 978.47 1340.39 991.92C1340.99 999.28 1341.97 1006.57 1342.87 1013.86C1343.85 1021.22 1346.03 1028.59 1347.6 1035.87C1349.85 1043.16 1352.56 1050.45 1355.49 1057.58C1359.25 1064.64 1362.33 1071.7 1367.36 1078.17C1369.31 1080.87 1371.49 1083.5 1373.75 1086.06C1354.14 1124.9 1360.53 1158.18 1374.05 1181.85C1290.28 1221.37 1222.89 1272.23 1168.57 1326.48C1192.31 1164.27 1258.65 810.41 1399.14 681.03ZM956.399 1859.75C959.029 1858.77 962.859 1857.72 968.119 1856.9C976.759 1855.55 984.119 1849.99 987.799 1842.02C991.559 1834.06 991.029 1824.82 986.449 1817.3C986.299 1816.92 966.539 1783.94 960.909 1746.23C968.719 1740.9 976.539 1736.16 980.439 1734.81C981.569 1734.43 982.539 1733.98 983.519 1733.53C984.349 1733.15 985.099 1732.78 985.849 1732.33C986.899 1731.73 987.879 1731.05 988.699 1730.3C989.449 1729.7 990.199 1729.02 990.879 1728.35C991.709 1727.52 992.529 1726.55 993.359 1725.5C993.889 1724.75 994.409 1723.92 994.939 1723.1C996.219 1721.15 997.489 1718.82 998.619 1716.11C1001.7 1709.72 1004.78 1701.16 1008.91 1689.81C1040.61 1602.43 1137.16 1336.47 1426.93 1215.89C1435.72 1212.21 1441.81 1204.09 1442.93 1194.55C1443.98 1185.08 1439.85 1175.77 1432.11 1170.21C1428.88 1167.88 1402.73 1147.67 1419.94 1111.31C1430.16 1112.36 1440.23 1110.78 1448.79 1106.5C1434.97 1103.04 1423.77 1096.73 1415.51 1088.92C1407.17 1081.11 1401.69 1071.71 1398.38 1061.12C1396.35 1056.24 1395.6 1050.3 1394.4 1044.97C1394.17 1043.54 1394.02 1041.66 1393.8 1039.56C1393.27 1034.23 1392.75 1027.31 1392.6 1021.75C1392.53 1020.62 1392.53 1019.57 1392.53 1018.59C1392.53 1018.59 1392.53 1018.59 1401.17 1018.74C1408.76 1018.89 1416.42 1019.04 1424.01 1019.12C1431.6 1019.27 1439.26 1019.27 1446.85 1019.35C1460.37 1019.43 1473.9 1019.43 1487.5 1019.27C1492.91 1019.19 1498.39 1019.04 1503.8 1018.97C1505.23 1031.44 1506.65 1044.44 1508.01 1057.89C1500.12 1061.87 1494.41 1069.61 1493.66 1079.08C1492.53 1088.85 1491.93 1098.76 1491.93 1108.76C1491.93 1121.98 1492.98 1135.36 1495.24 1148.8C1496.37 1154.74 1497.64 1160.67 1499.15 1166.61C1501.1 1172.55 1502.68 1178.41 1505.31 1184.19C1509.74 1195.91 1516.28 1207.26 1524.69 1217.4C1532.88 1227.62 1543.4 1236.26 1554.89 1242.34C1566.31 1248.58 1578.93 1251.66 1590.95 1252.93C1603.12 1254.06 1614.92 1253.01 1626.11 1250.53C1637.23 1247.9 1647.97 1244.07 1657.51 1238.28C1635.5 1238.05 1614.46 1234.9 1596.95 1227.31C1579.22 1219.95 1566.75 1208 1558.86 1193.35C1550.9 1178.62 1547.44 1160.74 1545.79 1142.11C1545.11 1133.47 1545.04 1124.6 1545.11 1115.66C1551.05 1117.01 1556.98 1118.29 1562.99 1119.34C1580.19 1122.42 1597.47 1124.6 1614.83 1125.88C1632.11 1126.93 1649.46 1127.68 1666.75 1127.08H1667.73C1695.08 1126.03 1715.36 1101.09 1712.73 1073.81C1712.73 1073.51 1712.65 1073.28 1712.65 1072.98L1712.42 1071.25C1702.88 1072.23 1693.34 1073.05 1683.8 1073.65C1676.29 1060.58 1665.84 1036.69 1670.58 1009.41C1706.87 1020.91 1775.91 1039.46 1843.91 1040.36C1892.52 1041.04 1918.59 1055.01 1931.06 1064.93C1929.63 1067.33 1928.13 1069.66 1926.7 1072.07C1917.23 1087.92 1908.22 1104 1899.58 1120.38C1893.12 1132.63 1887.03 1144.57 1881.17 1157.34L1812.88 1162.22L1893.49 1207C1898.9 1209.93 1905.74 1209.18 1910.32 1204.6C1918.73 1196.19 1925.57 1186.34 1930.68 1175.52C1933.69 1169.28 1936.84 1162.9 1940.07 1156.59C1942.02 1152.68 1944.05 1148.78 1946.08 1144.94C1954.27 1129.46 1962.91 1114.06 1971.92 1098.96C1989.88 1068.68 2009.41 1039.23 2030.15 1010.76C2071.7 953.81 2118.5 900.77 2170.27 853.44C2193.49 832.03 2217.9 811.97 2243.22 793.34C2246.22 791.16 2249.23 788.98 2252.31 786.88C2256.59 783.65 2260.95 780.64 2265.31 777.64C2265.69 777.41 2265.99 777.11 2266.36 776.96C2272.22 772.83 2278.16 768.85 2284.17 765.01C2289.95 761.18 2295.82 757.5 2301.75 753.89C2306.33 751.04 2310.92 748.18 2315.57 745.55C2316.32 745.02 2317.15 744.5 2317.97 744.05C2318.72 743.6 2319.47 743.15 2320.22 742.7L2320.3 742.78C2321.5 744.13 2321.28 743.91 2322.55 745.33C2313.76 757.35 2306.32 769.97 2298.58 782.52C2268.75 833.08 2245.01 886.12 2224.8 940.07C2219.54 953.52 2215.48 967.34 2210.75 980.94C2206.39 994.54 2201.36 1008.06 2197.45 1021.81C2193.47 1035.63 2189.71 1049.38 2185.96 1063.21C2182.28 1077.03 2178.37 1090.86 2175.74 1104.91C2172.89 1118.96 2169.73 1132.86 2167.18 1146.91C2164.7 1161.03 2161.47 1174.86 2159.97 1189.13C2155.99 1217.45 2152.83 1245.93 2150.95 1274.48C2162.52 1248.11 2172.81 1221.59 2182.43 1194.99C2192.2 1168.47 2202.79 1142.25 2212.03 1115.73C2217.51 1100.78 2223.22 1085.9 2228.93 1071.1C2258.46 1084.85 2316.61 1111.29 2363.26 1127.82C2356.5 1138.49 2346.36 1150.28 2332.16 1157.05C2313.68 1165.84 2290.54 1164.41 2263.42 1152.92C2260.26 1160.36 2258.61 1168.32 2258.61 1176.36C2258.61 1180.72 2259.14 1185.15 2260.11 1189.43C2262.74 1200.4 2266.27 1209.64 2272.36 1211.14C2280.02 1232.4 2287.31 1275.38 2235.25 1302.72C2226.61 1307.3 2221.2 1316.24 2221.2 1326.01V1329.24C2221.2 1338.26 2226.01 1346.75 2233.67 1351.55C2235.02 1352.45 2373.19 1442.01 2449.74 1723.37C2451.54 1738.85 2453.65 1754.25 2456.2 1769.65C2461.46 1799.55 2468.07 1829.3 2477.24 1858.75C2481.67 1872.35 2486.63 1885.87 2492.34 1899.25C2493.17 1901.35 2494.14 1903.53 2495.05 1905.64C2499.56 1915.78 2504.44 1925.85 2509.85 1935.77C2509.77 1936.07 2509.7 1936.37 2509.62 1936.6C2508.72 1939.08 2507.82 1941.56 2506.39 1943.74C2503.76 1948.1 2500.15 1951.78 2495.65 1954.93C2491.14 1957.94 2485.28 1960.19 2478.9 1961.92C2475.67 1962.75 2472.06 1963.12 2468.68 1963.87L2457.64 1964.62L2456.59 1964.7C2444.94 1965.53 2434.8 1974.09 2432.55 1986.11C2429.92 2000.38 2439.31 2014.13 2453.66 2016.84C2459.9 2017.97 2467.26 2019.62 2473.95 2021.35C2480.79 2023.15 2487.47 2025.11 2493.86 2027.29C2497.24 2028.42 2500.55 2029.69 2503.63 2030.97C2500.93 2034.28 2498.37 2037.58 2495.52 2040.81C2486.8 2051.4 2477.26 2061.55 2467.95 2071.76C2458.26 2081.68 2448.72 2091.74 2438.65 2101.29C2428.36 2110.68 2418.59 2120.6 2407.92 2129.54C2366.22 2166.28 2321.37 2199.64 2273.59 2228.04C2267.65 2231.65 2261.79 2235.48 2255.78 2238.93L2237.45 2248.77L2219.04 2258.61C2212.95 2261.92 2206.94 2265.37 2200.48 2268.08L2162.61 2285.43L2153.14 2289.71L2143.37 2293.39L2104.45 2308.12L2094.68 2311.8L2084.69 2314.81L2044.8 2326.68C2031.58 2331.11 2017.9 2333.52 2004.31 2336.52L1991.09 2339.37C1989.51 2331.18 1987.33 2322.99 1984.33 2314.95C1977.49 2297.07 1967.28 2280.24 1954.5 2266.12C1928.96 2237.72 1895.3 2219.46 1860.51 2210.15C1843.16 2205.42 1825.35 2202.79 1807.77 2201.89C1798.6 2201.51 1791.02 2201.82 1782.75 2201.74C1774.56 2201.89 1766.45 2201.66 1758.33 2202.12C1725.65 2203.1 1692.89 2206.25 1660.44 2212.11C1627.91 2217.89 1595.53 2226.46 1564.42 2239.16C1533.32 2251.71 1503.49 2268.69 1476.89 2290.02C1475.54 2291.07 1474.19 2292.27 1472.83 2293.4C1437.97 2236.23 1336.02 2109.56 1138.35 2161.1C1102.98 2126.39 971.799 1989.8 956.399 1859.75ZM1238.82 2651.4C1236.27 2643.29 1233.41 2635.25 1231.38 2627.06C1230.18 2623 1229.13 2618.95 1228.22 2614.96C1227.77 2612.93 1227.24 2610.9 1226.94 2608.95L1225.89 2603.62L1225.36 2601.07C1223.26 2590.25 1214.39 2581.54 1202.82 2580.18C1188.55 2578.53 1175.62 2588.74 1173.97 2603.02C1173.82 2604.37 1172.02 2608.88 1169.69 2613.01C1168.41 2615.41 1166.91 2617.89 1165.26 2620.37C1161.05 2607.45 1156.02 2594.83 1152.94 2581.68C1144.98 2555.08 1140.47 2527.66 1137.39 2500.01L1135.66 2479.12L1134.91 2458.08C1134.91 2444.03 1135.59 2429.98 1136.49 2415.86C1137.99 2387.39 1140.02 2358.91 1141.52 2327.43C1121.54 2347.64 1108.91 2373.03 1100.65 2399.4C1100.05 2398.65 1099.3 2397.67 1098.47 2396.39C1093.81 2389.18 1090.96 2379.94 1090.21 2369.79C1086.75 2321.33 1095.47 2286.17 1106.96 2261.53C1120.93 2231.48 1149.56 2210.82 1182.24 2205.48C1345.12 2178.96 1418.37 2300.14 1434.9 2332.53C1426.26 2343.8 1418.67 2355.75 1412.59 2368.44C1405.23 2383.77 1399.74 2399.84 1396.74 2416.3C1393.89 2432.75 1392.61 2449.58 1395.91 2465.81C1420.4 2405.86 1457.67 2360.4 1504.4 2326.14C1528.14 2309.39 1554.51 2296.24 1582.46 2286.85C1610.41 2277.31 1639.48 2270.32 1669.24 2266.34C1676.6 2265.06 1684.19 2264.61 1691.7 2263.64L1702.89 2262.44L1714.23 2261.69C1729.26 2260.34 1744.43 2260.04 1759.61 2259.59C1767.2 2259.29 1774.86 2259.74 1782.52 2259.74C1789.96 2259.89 1798.22 2259.74 1804.76 2260.19C1818.58 2260.94 1832.26 2262.9 1845.25 2266.5C1871.17 2273.56 1895.36 2286.41 1912.42 2304.67C1924.89 2317.59 1933.46 2333.29 1938.11 2350.87C1934.58 2351.85 1931.05 2352.82 1927.52 2353.72C1872.75 2370.7 1825.72 2403.23 1786.73 2441.47C1747.66 2480.01 1715.88 2524.71 1690.71 2572.42C1660.58 2629.89 1639.25 2691.95 1628.35 2755.96C1621.44 2770.91 1609.27 2786.31 1596.04 2800.59C1582.14 2815.62 1566.44 2829.89 1549.91 2843.34C1533.46 2856.86 1516.25 2869.86 1498.52 2882.18C1485.15 2891.5 1471.25 2900.74 1457.42 2909.38L1447.65 2903.67C1440.29 2899.24 1432.47 2895.48 1425.64 2890.22C1411.67 2880.23 1397.09 2870.99 1384.32 2859.49C1357.35 2838.15 1333.91 2812.83 1312.5 2786.09C1291.09 2759.34 1273.21 2729.74 1258.41 2698.79C1250.91 2683.4 1244.53 2667.47 1238.82 2651.4ZM1693.66 3195.79C1686.3 3219.08 1672.55 3231.25 1648.81 3236.29C1642.87 3237.49 1636.56 3238.09 1630.03 3238.32L1625 3238.4H1619.37C1615.54 3238.4 1611.78 3238.32 1608.1 3238.17C1593.15 3237.72 1578.35 3236.52 1564.45 3234.11C1550.55 3231.71 1537.1 3228.33 1526.58 3223.14C1521.4 3220.59 1516.81 3217.73 1513.88 3214.8C1512.3 3213.45 1511.18 3212.02 1510.42 3210.97C1510.12 3210.59 1509.97 3210.29 1509.82 3209.99C1509.29 3190.38 1508.39 3170.77 1506.81 3151.16C1505.08 3130.05 1502.45 3109.01 1500.2 3087.9C1495.32 3045.68 1490.96 3003.53 1482.02 2961.31C1475.63 2991.36 1471.58 3021.41 1468.05 3051.47C1466.4 3049.89 1464.74 3048.16 1463.09 3046.59C1456.03 3039.98 1448.36 3034.12 1440.48 3028.93C1432.59 3023.67 1424.03 3019.61 1415.61 3016.16C1422.37 3022.4 1428.68 3028.78 1433.87 3036.07C1439.13 3043.21 1443.79 3050.65 1447.69 3058.46C1451.6 3066.2 1454.98 3074.16 1457.68 3082.2C1459.63 3087.98 1461.36 3093.77 1462.56 3099.48C1462.56 3099.56 1462.56 3099.56 1462.56 3099.56C1460.61 3116.76 1458.65 3133.97 1457.23 3151.17C1455.5 3172.28 1454.6 3193.39 1454.07 3214.5V3215.03C1452.94 3217.28 1451.29 3219.24 1449.04 3221.12C1443.93 3225.33 1436.57 3227.51 1428.68 3227.58C1380.15 3227.28 1333.26 3224.88 1319.14 3210.15C1307.87 3198.28 1307.49 3167.4 1307.04 3120.67C1306.81 3095.2 1306.51 3063.57 1304.19 3026.53C1299.76 2954.63 1290.37 2886.79 1280.07 2829.31C1301.48 2855.08 1324.7 2879.35 1350.92 2900.08C1365.19 2912.78 1381.2 2923.14 1396.75 2934.11C1404.34 2939.9 1412.9 2944.1 1421.02 2948.99L1445.66 2963.26C1453.1 2967.54 1462.56 2967.77 1470.45 2963.11L1471.2 2962.66C1491.26 2950.64 1509.89 2938.32 1528.67 2925.32C1547.38 2912.32 1565.56 2898.57 1583.36 2884C1595.91 2873.78 1608.08 2862.96 1619.95 2851.39C1619.87 2862.58 1620.03 2873.7 1620.63 2884.9C1623.94 2938.99 1634.98 2993.24 1656.17 3043.88C1666.69 3069.2 1679.39 3093.54 1694.19 3116.68C1694.64 3117.36 1695.17 3118.03 1695.62 3118.78C1696 3120.88 1696.37 3123.29 1696.67 3125.39C1697.2 3128.92 1697.57 3132.45 1697.87 3135.98C1698.55 3143.04 1698.92 3150.1 1698.92 3157.09C1698.84 3170.92 1697.41 3184.37 1693.66 3195.79ZM2837.14 3058.6C2833.61 3059.88 2830.08 3061.08 2826.47 3062.13C2819.86 3064.16 2813.17 3065.14 2805.51 3065.44C2801.3 3065.67 2797.1 3065.21 2792.59 3064.46C2788.38 3057.17 2784.18 3050.03 2779.52 3043.05C2773.81 3035.24 2768.02 3027.5 2761.64 3020.29C2768.18 3058.53 2777.19 3093.92 2781.1 3129.08C2783.2 3146.59 2784.26 3163.94 2782.83 3180.77C2781.1 3197.6 2777.72 3213.75 2771.94 3228.78C2760.29 3258.83 2738.58 3283.32 2711.31 3301.58C2697.64 3310.67 2682.69 3318.33 2667.13 3324.8C2661.87 3326.83 2656.61 3328.78 2651.35 3330.66C2652.48 3325.1 2653.9 3319.62 2655.71 3314.13C2656.61 3311.35 2657.59 3308.65 2658.64 3306.02C2659.62 3303.54 2660.97 3300.39 2661.65 3298.88L2661.88 3298.5C2665.64 3290.39 2665.26 3280.62 2660 3272.73C2651.96 3260.56 2635.66 3257.25 2623.49 3265.29C2615.83 3270.4 2605.01 3275.36 2593.96 3279.56C2582.92 3283.84 2571.2 3287.6 2559.32 3291.13C2535.43 3298.12 2511.16 3303.9 2486.59 3308.41C2437.45 3317.5 2387.57 3322.01 2337.08 3322.01C2235.65 3323.14 2134 3314.12 2037.46 3288.13C1989.3 3274.91 1942.72 3256.88 1899.37 3233.59C1856.25 3209.92 1816.43 3180.62 1783.22 3145.16C1766.69 3127.43 1751.51 3108.42 1738.37 3088.14C1725.3 3067.7 1714.1 3046.22 1704.79 3023.83C1686.01 2979.13 1676.17 2930.67 1673.16 2881.91C1667.75 2784.02 1691.42 2684.17 1737.25 2597.02C1760.17 2553.44 1789.09 2513.02 1823.58 2479.07C1858.06 2445.19 1898.64 2417.69 1942.96 2404.09C1948.52 2402.66 1954 2400.86 1959.64 2399.73L1968.05 2398.08L1972.26 2397.25L1976.92 2396.65L1995.33 2394.32C2001.42 2393.42 2007.58 2392.74 2013.74 2392.44C2026.06 2391.54 2038.31 2390.41 2050.55 2390.56C2056.71 2390.56 2062.87 2390.18 2068.96 2390.48L2087.29 2391.31C2093.45 2391.39 2099.46 2392.14 2105.47 2392.81C2111.56 2393.49 2117.64 2393.86 2123.65 2394.84C2135.6 2396.87 2147.62 2398.67 2159.26 2401.75C2182.78 2407.31 2205.77 2414.9 2227.55 2425.12C2271.2 2445.18 2310.64 2474.18 2343.18 2509.87C2354.15 2521.89 2364.29 2534.59 2373.68 2547.81C2357.23 2543.45 2339.5 2541.87 2321.69 2544.65C2307.34 2546.75 2293.67 2551.64 2281.27 2558.1C2268.95 2564.71 2258.28 2572.98 2248.44 2581.69C2239.05 2590.71 2230.26 2600.17 2222.9 2610.16C2221.02 2612.64 2219.14 2615.04 2217.27 2617.67L2211.86 2626.24C2210.13 2629.09 2208.18 2631.95 2206.75 2634.88L2202.54 2643.67C2181.28 2690.7 2176.02 2738.63 2175.87 2785.97C2176.92 2833.3 2184.13 2880.48 2200.44 2925.56C2204.05 2936.98 2209.38 2947.87 2214.19 2958.92C2216.89 2964.25 2219.82 2969.59 2222.68 2974.92C2224.18 2977.62 2225.53 2980.33 2227.11 2982.88L2232.07 2990.62C2244.77 3011.43 2261.3 3030.29 2279.93 3046.74L2294.43 3058.69L2310.28 3068.91C2315.39 3072.52 2321.17 3075.15 2326.81 3077.85C2332.52 3080.4 2338 3083.71 2343.94 3085.51L2361.75 3091.45L2366.26 3092.95L2370.77 3093.85L2379.94 3095.65L2389.03 3097.38C2392.11 3098.06 2395.12 3098.51 2398.2 3098.66L2416.53 3099.94C2465.52 3102.04 2512.25 3090.25 2555.22 3073.49C2598.27 3056.89 2639.22 3034.42 2667.16 2994.9C2655.44 2996.03 2644.77 2998.43 2634.4 3001.36C2639.28 2968.45 2642.36 2937.5 2643.94 2908.35C2644.08 2908.25 2644.11 2908.23 2644.25 2908.13C2659.5 2912.26 2674.67 2917.22 2689.24 2923.53C2712.91 2933.82 2735.6 2946.67 2755.73 2962.9C2761.06 2966.51 2765.65 2971.16 2770.53 2975.3C2775.34 2979.66 2780.37 2983.72 2784.65 2988.6L2797.95 3002.72C2802.23 3007.6 2805.99 3012.86 2810.12 3017.9C2818.61 3027.74 2824.92 3039.31 2832.21 3050.06L2834.84 3054.19L2837.17 3058.55V3058.6H2837.14Z" fill="#66142E"/>
<path opacity="0.3" d="M1554.89 1242.33C1566.31 1248.57 1578.93 1251.65 1590.95 1252.92C1590.95 1252.92 1449.04 1250.92 1466.59 1072.77C1468.36 1054.77 1458.75 1037.37 1442.34 1029.76C1429.87 1023.98 1413.44 1018.96 1393.58 1018.59C1394.71 1018.67 1396.89 1018.67 1401.17 1018.74C1408.76 1018.89 1416.42 1019.04 1424.01 1019.12C1431.6 1019.27 1439.26 1019.27 1446.85 1019.35C1460.37 1019.43 1473.9 1019.43 1487.5 1019.27C1492.91 1019.19 1498.39 1019.04 1503.8 1018.97C1505.23 1031.44 1506.65 1044.44 1508.01 1057.89C1500.12 1061.87 1494.41 1069.61 1493.66 1079.08C1492.53 1088.85 1491.93 1098.76 1491.93 1108.76C1491.93 1121.98 1492.98 1135.36 1495.24 1148.8C1496.37 1154.74 1497.64 1160.67 1499.15 1166.61C1501.1 1172.55 1502.68 1178.41 1505.31 1184.19C1509.74 1195.91 1516.28 1207.26 1524.69 1217.4C1532.88 1227.6 1543.4 1236.24 1554.89 1242.33Z" fill="#66142E"/>
<path opacity="0.3" d="M2363.29 1127.83C2318.78 1133.27 2285.61 1126.93 2265.44 1120.55C2251.5 1116.14 2236.42 1122.28 2229.26 1135.03L2150.97 1274.48C2162.54 1248.11 2172.83 1221.59 2182.45 1194.99C2183.73 1191.46 2185.08 1187.93 2186.43 1184.47C2188.98 1177.56 2191.61 1170.65 2194.32 1163.73C2199.58 1149.83 2204.91 1135.93 2209.87 1121.96V1121.88C2210.62 1119.85 2211.37 1117.75 2212.05 1115.72C2217.53 1100.77 2223.24 1085.89 2228.95 1071.09C2245.33 1078.68 2270.42 1090.25 2297.54 1101.82C2313.47 1108.58 2330.07 1115.42 2346 1121.43C2351.87 1123.7 2357.66 1125.88 2363.29 1127.83Z" fill="#66142E"/>
<path opacity="0.3" d="M1395.91 2465.82C1372.47 2397.3 1389.6 2340.5 1414.47 2299.63C1424.46 2313.3 1431.15 2325.17 1434.91 2332.54C1426.27 2343.81 1418.68 2355.76 1412.6 2368.45C1405.24 2383.78 1399.75 2399.85 1396.75 2416.31C1393.89 2432.77 1392.61 2449.6 1395.91 2465.82Z" fill="#66142E"/>
<path opacity="0.3" d="M2509.87 1935.78C2509.79 1936.08 2509.72 1936.38 2509.64 1936.61C2508.74 1939.09 2507.84 1941.57 2506.41 1943.75C2503.78 1948.11 2500.17 1951.79 2495.67 1954.94C2491.16 1957.95 2485.3 1960.2 2478.92 1961.93C2475.69 1962.76 2472.08 1963.13 2468.7 1963.88L2457.66 1964.63L2456.61 1964.71C2444.96 1965.54 2434.82 1974.1 2432.57 1986.12C2429.94 2000.39 2439.33 2014.14 2453.68 2016.85C2459.92 2017.98 2467.28 2019.63 2473.97 2021.36C2480.81 2023.16 2487.49 2025.12 2493.88 2027.3C2497.26 2028.43 2500.57 2029.7 2503.65 2030.98C2500.95 2034.29 2498.39 2037.59 2495.54 2040.82C2486.82 2051.41 2477.28 2061.56 2467.97 2071.77C2458.28 2081.69 2448.74 2091.75 2438.67 2101.3C2428.38 2110.69 2418.61 2120.61 2407.94 2129.55C2366.24 2166.29 2321.39 2199.65 2273.61 2228.05C2267.67 2231.66 2261.81 2235.49 2255.8 2238.94L2237.47 2248.78L2219.06 2258.62C2212.97 2261.93 2206.96 2265.38 2200.5 2268.09L2162.63 2285.44L2153.16 2289.72L2143.39 2293.4L2104.47 2308.13L2094.7 2311.81L2084.71 2314.82L2044.82 2326.69C2031.6 2331.12 2017.92 2333.53 2004.33 2336.53L1991.11 2339.38C1989.53 2331.19 1987.35 2323 1984.35 2314.96C1977.51 2297.08 1967.3 2280.25 1954.52 2266.13C1928.98 2237.73 1895.32 2219.47 1860.53 2210.16C1843.18 2205.43 1825.37 2202.8 1807.79 2201.9C1798.62 2201.52 1791.04 2201.83 1782.77 2201.75C1774.58 2201.9 1766.47 2201.67 1758.35 2202.13C1725.67 2203.11 1692.91 2206.26 1660.46 2212.12C1627.93 2217.9 1595.55 2226.47 1564.44 2239.17C1533.34 2251.72 1503.51 2268.7 1476.91 2290.03C1475.56 2291.08 1474.21 2292.28 1472.85 2293.41C1437.99 2236.24 1336.04 2109.57 1138.37 2161.11C1102.98 2126.4 971.81 1989.81 956.4 1859.76C956.4 1859.76 1019.46 2004.84 1113.66 2080.21C1134.36 2096.77 1161.27 2103.64 1187.45 2099.46C1248.21 2089.76 1380.47 2086.98 1479.9 2215.5C1479.9 2215.5 1799.21 2060.47 1975.64 2197.31C2003.67 2219.05 2040.79 2224.8 2073.51 2211.12C2220.96 2149.45 2559.24 1936.29 2233.69 1351.58C2235.04 1352.48 2373.21 1442.04 2449.76 1723.4C2451.56 1738.88 2453.67 1754.28 2456.22 1769.68C2461.48 1799.58 2468.09 1829.33 2477.26 1858.78C2481.69 1872.38 2486.65 1885.9 2492.36 1899.28C2493.19 1901.38 2494.16 1903.56 2495.07 1905.67C2499.58 1915.8 2504.46 1925.86 2509.87 1935.78Z" fill="#66142E"/>
<path opacity="0.3" d="M1931.07 1064.95C1929.64 1067.35 1928.14 1069.68 1926.71 1072.09C1917.24 1087.94 1908.23 1104.02 1899.59 1120.4C1893.13 1132.65 1887.04 1144.59 1881.18 1157.36L1812.89 1162.24C1859.1 1134.89 1865.58 1109.63 1860.5 1091.2C1855.67 1073.66 1839.49 1061.58 1821.39 1059.78C1718.15 1049.48 1670.59 1009.43 1670.59 1009.43C1706.88 1020.93 1775.92 1039.48 1843.92 1040.38C1892.53 1041.06 1918.6 1055.03 1931.07 1064.95Z" fill="#66142E"/>
<path opacity="0.3" d="M1738.28 973.44C1695.23 963.37 1663.9 951.65 1663.38 951.5C1650.68 946.62 1635.73 952.03 1630.4 964.57C1614.1 1002.66 1617.78 1046.24 1625.97 1073.36C1622.89 1065.85 1584.35 967.95 1637.16 929.56C1691.33 890.27 1488.93 698.83 1483.37 693.5C1575.1 748.05 1660.6 841.88 1738.28 973.44Z" fill="#66142E"/>
<path opacity="0.3" d="M1497.34 966.451C1497.31 966.481 1497.3 966.491 1497.28 966.521C1480.69 966.821 1463.98 966.841 1447.15 966.751C1420.63 966.601 1393.88 966.151 1367.44 965.471L1365.26 965.391C1364.36 965.391 1363.38 965.391 1362.48 965.471C1349.11 966.671 1339.19 978.471 1340.39 991.921C1340.99 999.281 1341.97 1006.57 1342.87 1013.86C1343.85 1021.22 1346.03 1028.59 1347.6 1035.87C1349.85 1043.16 1352.56 1050.45 1355.49 1057.58C1359.25 1064.64 1362.33 1071.7 1367.36 1078.17C1369.31 1080.87 1371.49 1083.5 1373.75 1086.06C1354.14 1124.9 1360.53 1158.18 1374.05 1181.85C1290.35 1221.37 1222.96 1272.16 1168.64 1326.4C1170.61 1322.86 1228.99 1219.05 1292.37 1165.4C1303.06 1156.35 1308.72 1142.57 1307.61 1128.6C1306.72 1117.45 1307.75 1103.56 1314.7 1090.64C1319.86 1081.05 1321.05 1069.82 1318.37 1059.27C1309.95 1026.16 1298.7 958.741 1338.49 934.861C1391.98 902.631 1492.39 967.201 1407.11 680.131C1417.25 684.411 1463.68 717.391 1497.34 966.451Z" fill="#66142E"/>
<path opacity="0.3" d="M2516.26 899.36C2496.05 847.52 2464.42 772.31 2447.97 762.92C2423.03 748.65 2252.93 1013.48 2247.82 1021.52C2250.9 1013.71 2254.13 1005.97 2257.29 998.15C2262.7 985.3 2267.51 972.23 2273.37 959.61C2284.86 934.37 2295.61 908.75 2308.61 884.4L2317.78 865.84C2320.94 859.75 2324.39 853.89 2327.62 847.81C2334.38 835.94 2340.62 823.69 2348.13 812.35C2355.19 800.78 2362.03 788.98 2369.99 778.17L2381.48 761.64L2393.65 745.86C2397.56 740.38 2402.06 735.72 2406.35 730.76L2412.74 723.32L2419.43 716.56C2423.79 711.75 2428.52 707.84 2433.03 703.64C2434.98 701.76 2436.94 700.41 2438.97 698.83C2446.03 701.16 2452.64 704.84 2457.9 710.02C2462.18 714.23 2465.34 718.58 2468.19 724.52C2471.5 732.26 2475.4 739.7 2478.41 747.66C2491.03 779.21 2500.72 812.57 2507.34 846.68L2509.97 859.45L2512.07 872.37L2516.13 898.29C2516.18 898.68 2516.18 898.98 2516.26 899.36Z" fill="#66142E"/>
<path opacity="0.3" d="M2367.67 1255.78C2368.46 1272.04 2366.67 1297.64 2351.18 1317.17C2344.74 1325.28 2344.42 1336.66 2350.49 1345.05C2375 1378.93 2430.19 1463.58 2449.48 1562.61C2392.76 1432.11 2326.87 1361.19 2289.98 1328.88C2306.96 1314.08 2318.68 1296.27 2324.92 1275.76C2331.83 1253.07 2330.55 1231.06 2326.95 1213.4C2336.57 1211.6 2345.81 1208.82 2354.75 1204.61C2406.82 1179.89 2424.25 1121.74 2424.92 1119.26C2426.95 1112.5 2426.12 1105.21 2422.67 1099.05C2419.21 1092.96 2413.5 1088.46 2406.74 1086.58C2406.74 1086.58 2472.18 1091.76 2465.72 1126.4C2459.9 1157.59 2422.76 1212.24 2380.15 1233.99C2372.01 1238.14 2367.22 1246.67 2367.67 1255.78Z" fill="#66142E"/>
<path opacity="0.3" d="M1938.13 2350.88C1934.6 2351.86 1931.07 2352.83 1927.54 2353.73C1872.77 2370.71 1825.74 2403.24 1786.75 2441.48C1747.68 2480.02 1715.9 2524.72 1690.73 2572.43C1660.6 2629.9 1639.27 2691.96 1628.37 2755.97C1621.46 2770.92 1609.29 2786.32 1596.06 2800.6C1582.16 2815.63 1566.46 2829.9 1549.93 2843.35C1533.48 2856.87 1516.27 2869.87 1498.54 2882.19C1485.17 2891.51 1471.27 2900.75 1457.44 2909.39L1447.67 2903.68C1440.31 2899.25 1432.49 2895.49 1425.66 2890.23C1411.69 2880.24 1397.11 2871 1384.34 2859.5C1357.37 2838.16 1333.93 2812.84 1312.52 2786.1C1291.11 2759.35 1273.23 2729.75 1258.43 2698.8C1250.92 2683.4 1244.53 2667.47 1238.82 2651.39C1236.27 2643.28 1233.41 2635.24 1231.38 2627.05C1230.18 2622.99 1229.13 2618.94 1228.22 2614.95C1255.82 2692.04 1320.67 2743.49 1373.79 2774.3C1431.8 2807.94 1507.25 2785.39 1534.46 2724.09C1541.49 2708.25 1541.66 2698.49 1541.66 2698.49C1557.97 2538.06 1637.6 2446.34 1686.18 2404.47C1704.42 2388.75 1696.28 2358.8 1672.55 2354.71C1555.96 2334.58 1400.46 2462.05 1395.98 2465.74C1420.4 2405.79 1457.66 2360.41 1504.39 2326.15C1528.13 2309.4 1554.5 2296.25 1582.45 2286.86C1610.4 2277.32 1639.47 2270.33 1669.23 2266.35C1676.59 2265.07 1684.18 2264.62 1691.69 2263.65L1702.88 2262.45L1714.22 2261.7C1729.25 2260.35 1744.42 2260.05 1759.6 2259.6C1767.19 2259.3 1774.85 2259.75 1782.51 2259.75C1789.95 2259.9 1798.21 2259.75 1804.75 2260.2C1818.57 2260.95 1832.25 2262.91 1845.24 2266.51C1871.16 2273.57 1895.35 2286.42 1912.41 2304.68C1924.91 2317.59 1933.47 2333.3 1938.13 2350.88Z" fill="#66142E"/>
<path opacity="0.3" d="M1697.86 3135.99C1698.54 3143.05 1698.91 3150.11 1698.91 3157.1C1698.83 3170.92 1697.41 3184.37 1693.65 3195.79C1686.29 3219.08 1672.54 3231.25 1648.8 3236.29C1642.86 3237.49 1636.55 3238.09 1630.02 3238.32L1624.99 3238.4H1619.36C1615.53 3238.4 1611.77 3238.32 1608.09 3238.17C1593.14 3237.72 1578.34 3236.52 1564.44 3234.11C1550.54 3231.71 1537.09 3228.33 1526.57 3223.14C1521.39 3220.59 1516.8 3217.73 1513.87 3214.8C1512.29 3213.45 1511.17 3212.02 1510.41 3210.97C1510.11 3210.59 1509.96 3210.29 1509.81 3209.99C1509.51 3198.72 1511.01 3222.24 1510.41 3210.97C1561.5 3250.49 1668.78 3189.41 1622.88 3117.06C1592.29 3068.86 1578.25 3028.26 1571.83 3002.49C1568.73 2990.04 1554.1 2984.71 1543.78 2992.33C1527.02 3004.7 1506.06 3017.87 1492.75 3025.92C1484.79 3030.8 1479.6 3033.81 1479.6 3033.81C1476.67 3031.93 1473.74 3029.98 1470.89 3028.1C1325.74 2932.08 1281.49 2832.54 1280.13 2829.38C1301.54 2855.15 1324.68 2879.34 1350.9 2900.08C1365.17 2912.78 1381.18 2923.14 1396.73 2934.11C1404.32 2939.9 1412.88 2944.1 1421 2948.99L1445.64 2963.26C1453.08 2967.54 1462.54 2967.77 1470.43 2963.11L1471.18 2962.66C1491.24 2950.64 1509.87 2938.32 1528.65 2925.32C1547.36 2912.32 1565.54 2898.57 1583.34 2884C1595.89 2873.78 1608.06 2862.96 1619.93 2851.39C1619.85 2862.58 1620.01 2873.7 1620.61 2884.9C1623.92 2938.99 1634.96 2993.24 1656.15 3043.88C1666.67 3069.2 1679.37 3093.54 1694.17 3116.68C1694.62 3117.36 1695.15 3118.03 1695.6 3118.78C1695.98 3120.88 1696.35 3123.29 1696.65 3125.39C1697.19 3128.92 1697.56 3132.46 1697.86 3135.99Z" fill="#66142E"/>
<path opacity="0.3" d="M2578.01 3020.81C2578.01 3020.81 2578.01 3020.81 2577.93 3020.89C2565.61 3025.7 2553.44 3030.51 2541.12 3035.09C2501.08 3048.84 2459.15 3057.03 2419.26 3053.42L2404.46 3051.77C2401.91 3051.62 2399.5 3051.09 2397.17 3050.42L2390.03 3048.69L2382.89 3047.04L2379.28 3046.21L2375.9 3044.86L2362.3 3039.83C2357.64 3038.33 2353.66 3035.55 2349.3 3033.52C2345.02 3031.27 2340.66 3029.24 2336.83 3026.23L2324.88 3018.12L2313.91 3008.5C2299.86 2995.2 2287.09 2980.03 2277.17 2962.59L2273.26 2956.2C2272.06 2954.02 2271.01 2951.69 2269.88 2949.51L2263.12 2935.91C2259.51 2926.44 2255.08 2917.35 2252.23 2907.44C2238.86 2868.75 2233.07 2826.98 2232.85 2785.65C2233.15 2764.99 2234.5 2744.4 2237.81 2724.27C2241.42 2704.44 2246.75 2684.98 2254.64 2668.22L2257.57 2661.91C2258.62 2659.88 2259.9 2658.23 2261.03 2656.28L2264.34 2650.72C2265.69 2648.84 2267.27 2646.89 2268.62 2644.93C2274.33 2636.89 2280.79 2630.13 2287.33 2623.59C2294.02 2617.58 2300.93 2612.17 2308.14 2608.19C2315.43 2604.28 2322.87 2601.73 2330.53 2600.38C2345.71 2597.6 2362.31 2600.61 2378.76 2608.27C2386.95 2611.95 2395.06 2616.83 2402.88 2622.32C2406.71 2625.1 2410.54 2628.11 2414.15 2631.19C2415.95 2632.77 2417.76 2634.35 2419.48 2635.92C2421.06 2637.42 2423.09 2639.45 2423.91 2640.35L2425.34 2641.78C2432.18 2648.77 2442.77 2651.62 2452.69 2648.17C2465.39 2643.74 2472.52 2630.36 2469.52 2617.52C2468.99 2615.72 2468.69 2614.82 2468.69 2614.82C2465.99 2606.93 2463.51 2601 2460.65 2594.46C2497.82 2644.45 2497.55 2696.66 2489.15 2734.58C2485.08 2752.96 2460.53 2758.16 2449.79 2742.69C2397.43 2667.23 2260.88 2736.24 2307.09 2894.11C2361.12 3078.92 2578.01 3020.81 2578.01 3020.81Z" fill="#66142E"/>
<path opacity="0.3" d="M2837.14 3058.53V3058.61C2833.61 3059.89 2830.08 3061.09 2826.47 3062.14C2819.86 3064.17 2813.17 3065.15 2805.51 3065.45C2801.3 3065.68 2797.1 3065.22 2792.59 3064.47C2788.38 3057.18 2784.18 3050.04 2779.52 3043.06C2773.81 3035.25 2768.02 3027.51 2761.64 3020.3C2768.18 3058.54 2777.19 3093.93 2781.1 3129.09C2783.2 3146.6 2784.26 3163.95 2782.83 3180.78C2781.1 3197.61 2777.72 3213.76 2771.94 3228.79C2760.29 3258.84 2738.58 3283.33 2711.31 3301.59C2697.64 3310.68 2682.69 3318.34 2667.13 3324.81C2661.87 3326.84 2656.61 3328.79 2651.35 3330.67C2652.48 3325.11 2653.9 3319.63 2655.71 3314.14C2656.61 3311.36 2657.59 3308.66 2658.64 3306.03C2659.62 3303.55 2660.97 3300.4 2661.65 3298.89L2661.88 3298.51C2665.64 3290.4 2665.26 3280.63 2660 3272.74C2651.96 3260.57 2635.66 3257.26 2623.49 3265.3C2615.83 3270.41 2605.01 3275.37 2593.96 3279.57C2582.92 3283.85 2571.2 3287.61 2559.32 3291.14C2535.43 3298.13 2511.16 3303.91 2486.59 3308.42C2437.45 3317.51 2387.57 3322.02 2337.08 3322.02C2316.94 3322.25 2296.74 3322.1 2276.68 3321.34C2283.89 3320.51 2634.22 3277.99 2628.21 3034.64C2642.79 3023.67 2656.01 3010.67 2667.13 2994.9C2655.41 2996.03 2644.74 2998.43 2634.37 3001.36C2639.25 2968.45 2642.33 2937.5 2643.91 2908.35C2646.91 2909.1 2649.85 2909.85 2652.85 2910.6C2665.17 2914.21 2677.42 2918.41 2689.21 2923.52C2712.88 2933.81 2735.57 2946.66 2755.7 2962.89C2761.03 2966.5 2765.62 2971.15 2770.5 2975.29C2775.31 2979.65 2780.34 2983.71 2784.62 2988.59L2797.92 3002.71C2802.2 3007.59 2805.96 3012.85 2810.09 3017.89C2818.58 3027.73 2824.89 3039.3 2832.18 3050.05L2834.81 3054.18L2837.14 3058.53Z" fill="#66142E"/>
<defs>
<linearGradient id="paint0_linear_1525_19786" x1="2337.43" y1="2561.1" x2="2506.47" y2="3116.53" gradientUnits="userSpaceOnUse">
<stop stop-color="#FF7F00"/>
<stop offset="0.1889" stop-color="#FC7707"/>
<stop offset="0.4858" stop-color="#F4601B"/>
<stop offset="0.8516" stop-color="#E83C3C"/>
<stop offset="1" stop-color="#E22B4B"/>
</linearGradient>
<linearGradient id="paint1_linear_1525_19786" x1="2073.88" y1="2396.23" x2="2407.14" y2="3492.6" gradientUnits="userSpaceOnUse">
<stop stop-color="#FF7F00"/>
<stop offset="0.1889" stop-color="#FC7707"/>
<stop offset="0.4858" stop-color="#F4601B"/>
<stop offset="0.8516" stop-color="#E83C3C"/>
<stop offset="1" stop-color="#E22B4B"/>
</linearGradient>
<linearGradient id="paint2_linear_1525_19786" x1="1433.36" y1="2679.96" x2="1513.86" y2="3227.34" gradientUnits="userSpaceOnUse">
<stop stop-color="#FF7F00"/>
<stop offset="0.1889" stop-color="#FC7707"/>
<stop offset="0.4858" stop-color="#F4601B"/>
<stop offset="0.8516" stop-color="#E83C3C"/>
<stop offset="1" stop-color="#E22B4B"/>
</linearGradient>
<linearGradient id="paint3_linear_1525_19786" x1="1637.16" y1="802.659" x2="1773.51" y2="2358.45" gradientUnits="userSpaceOnUse">
<stop stop-color="#FF7F00"/>
<stop offset="0.3186" stop-color="#FE7C02"/>
<stop offset="0.5141" stop-color="#FB740A"/>
<stop offset="0.6764" stop-color="#F66617"/>
<stop offset="0.8205" stop-color="#EF5129"/>
<stop offset="0.9513" stop-color="#E63740"/>
<stop offset="1" stop-color="#E22B4B"/>
</linearGradient>
</defs>
</svg>
