<svg width="100" height="100" viewBox="0 0 100 100" fill="none" xmlns="http://www.w3.org/2000/svg">
<path d="M25.6838 46.65C25.6838 46.65 26.2015 51.4123 31.422 55.9525C32.043 55.5163 32.9 55.2503 34.0793 55.2958C38.1205 55.4538 39.808 58.8068 39.855 58.8993C41.214 57.648 43.5898 56.483 47.7375 56.2435C50.143 56.1043 52.2683 57.712 52.833 59.9485C52.8955 59.9375 54.6285 59.6358 56.9073 58.8303C60.3168 57.626 64.943 55.2988 67.0058 51.1403C67.0058 51.1403 66.5615 50.8635 65.9845 50.5945C65.9845 50.5945 66.654 50.0095 67.3078 48.9038C67.3078 48.9038 67.109 48.58 66.8418 47.945C66.3523 46.783 65.6328 44.573 65.481 41.3873C63.5183 37.296 60.137 33.655 59.929 33.4313L59.9213 33.4235C59.9198 33.4235 59.9198 33.4235 59.9198 33.4235C59.9183 33.422 59.9183 33.4203 59.9183 33.4203C62.2058 32.4648 60.906 30.125 60.906 30.125L60.8935 29.9905C62.6843 29.881 63.3693 28.2498 63.3693 28.2498L59.6485 26.3418L59.0823 26.0525C62.1555 18.611 64.827 15.9353 64.9098 15.8523C64.7738 15.9008 57.667 18.4813 52.9408 26.5155C52.9408 26.5155 50.6605 25.6788 47.9298 24.997C46.7895 24.7123 45.5698 24.4543 44.406 24.298C44.4028 24.2965 44.4013 24.2965 44.4013 24.2965C44.4013 24.2965 44.0228 26.3813 44.8893 27.7608C43.9525 27.6763 42.8263 27.5355 41.8145 27.3058C41.7613 26.422 41.683 25.5933 41.5845 24.816L37.171 24.6988C37.171 24.6988 37.307 26.1268 38.1673 27.0245L38.0375 27.0465C38.0375 27.0465 36.5925 28.8468 38.502 30.0775C38.5005 30.079 38.5005 30.079 38.4988 30.079C38.383 30.126 34.6655 31.646 31.4438 35.398L31.4423 35.3995V35.401C29.9143 37.1808 28.5005 39.4628 27.637 42.3263C27.5338 42.6673 27.332 42.9705 27.0615 43.2038C26.891 43.3508 26.6815 43.5088 26.453 43.6308C26.37 43.676 26.2858 43.7168 26.198 43.7513C26.198 43.7513 26.1105 45.6563 26.8018 46.435V46.4365C26.472 46.5015 26.0935 46.575 25.6838 46.65Z" fill="url(#paint0_linear_1039_17843)"/>
<path d="M31.0528 71.6533C31.1825 74.3136 31.6705 76.8003 32.3775 78.8288L32.379 78.8303C32.6745 79.6811 33.0108 80.4506 33.3753 81.1201C34.2418 82.7076 35.2678 83.7211 36.325 83.8836C38.0015 84.1401 38.5773 82.9373 38.6945 81.5706C38.7148 81.3391 38.721 81.1028 38.718 80.8683C38.718 80.8338 38.718 80.7981 38.7165 80.7636C38.7088 80.4821 38.6883 80.2036 38.6588 79.9393C38.651 79.8736 38.643 79.8081 38.6353 79.7438C38.6275 79.6798 38.618 79.6171 38.6088 79.5561C38.604 79.5248 38.5993 79.4951 38.5948 79.4638C38.59 79.4418 38.587 79.4186 38.5838 79.3966C38.5775 79.3591 38.5713 79.3231 38.565 79.2871C38.5603 79.2588 38.554 79.2308 38.5493 79.2026C38.5445 79.1743 38.5383 79.1463 38.5335 79.1196C38.5288 79.0931 38.5225 79.0663 38.5178 79.0398C38.513 79.0133 38.5068 78.9866 38.502 78.9616C38.491 78.9101 38.48 78.8616 38.4693 78.8146C38.4348 78.6628 38.4005 78.5298 38.3693 78.4268C38.363 78.4081 38.3568 78.3893 38.352 78.3706C38.3458 78.3533 38.3395 78.3361 38.3348 78.3206C38.1675 77.8341 38.036 76.9661 37.947 76.2186C37.8563 75.4726 37.8095 74.8471 37.8095 74.8471C36.9275 74.1433 33.6885 71.2843 32.908 66.7003V66.6988C32.9065 66.6973 32.9065 66.6941 32.9065 66.6926C32.9065 66.6926 32.395 67.3526 31.918 67.7296C31.918 67.7296 31.6163 67.0806 31.3223 66.0906H31.3208C31.0388 67.9656 30.9638 69.8486 31.0528 71.6533Z" fill="url(#paint1_linear_1039_17843)"/>
<path d="M44.0495 81.5456C44.0463 81.6238 44.048 81.6988 44.051 81.7756C44.1448 83.5148 45.992 84.6721 47.62 83.9308C48.9838 83.3098 50.1145 82.3496 51.0513 81.2001C51.056 81.1938 51.0608 81.1891 51.0653 81.1828C51.0748 81.1843 51.0855 81.1861 51.095 81.1876C54.5935 81.6598 56.1358 82.9798 57.5715 83.3833C58.987 83.7791 60.7025 83.3973 60.7653 83.3833C60.6903 83.3568 60.6183 83.3256 60.5463 83.2911C59.511 82.7796 59.015 81.4596 59.087 79.8221C59.137 78.6351 59.489 77.2791 60.1473 75.9433C60.6055 75.0158 61.1623 74.2011 61.7645 73.5348C60.7683 72.9781 59.8253 72.5731 59.0463 72.2883C59.0323 71.8661 59.004 71.4453 58.9665 71.0341C58.6818 67.9248 57.831 65.2911 57.831 65.2911C58.724 65.8323 59.3403 65.7446 59.3403 65.7446C59.3013 64.4856 58.9478 63.1953 58.5208 62.0756C57.8138 60.2191 56.9068 58.8303 56.9068 58.8303C54.628 59.6358 52.8953 59.9376 52.8325 59.9486C52.9218 60.3051 52.9718 60.6758 52.978 61.0591C52.9905 61.8943 52.8325 62.8561 52.4275 63.9603C52.4275 63.9603 51.7238 63.7336 51.1325 62.6153C51.1325 62.6153 50.9778 67.2026 47.82 69.8408C47.806 69.9551 47.7888 70.0723 47.7685 70.1928C47.7528 70.2821 47.7373 70.3743 47.7185 70.4666C47.6888 70.6121 47.656 70.7606 47.6185 70.9123C47.5965 71.0061 47.5733 71.1001 47.548 71.1953L47.5465 71.1986C47.0038 73.2646 45.8888 75.6966 45.1645 77.1651C45.03 77.4373 44.9065 77.7141 44.7955 77.9956C44.769 78.0613 44.7423 78.1271 44.7188 78.1943C44.6905 78.2678 44.664 78.3413 44.639 78.4148C44.6203 78.4681 44.6015 78.5211 44.5858 78.5728C44.4983 78.8341 44.4215 79.0983 44.3543 79.3658C44.3385 79.4283 44.323 79.4908 44.3105 79.5536C44.2933 79.6256 44.2778 79.6991 44.262 79.7711C44.2463 79.8446 44.2323 79.9166 44.2198 79.9901C44.2058 80.0636 44.1933 80.1371 44.1808 80.2106C44.1713 80.2731 44.1605 80.3341 44.151 80.3966C44.1183 80.6281 44.0915 80.8626 44.0743 81.0973C44.062 81.2531 44.0543 81.4033 44.0495 81.5456Z" fill="url(#paint2_linear_1039_17843)"/>
<path d="M27.0428 73.4676C27.6135 73.9758 28.1595 74.5998 28.6443 75.3193C30.4695 78.0296 30.7103 81.0606 29.1838 82.0883C29.0415 82.1838 28.8898 82.2588 28.7288 82.3136C28.7288 82.3136 31.4328 82.8141 33.3753 81.1203C32.1413 78.8573 31.2373 75.4306 31.0528 71.6536L27.0428 73.4676Z" fill="url(#paint3_linear_1039_17843)"/>
<path d="M57.8313 65.291C57.8313 65.291 57.8985 65.4975 58.0003 65.8635C58.2318 66.6878 58.6445 68.3268 58.8808 70.2318C58.962 70.8918 59.0215 71.5863 59.0465 72.2883C59.8253 72.573 60.7685 72.978 61.7648 73.5348C63.2255 71.9175 64.96 71.17 66.2268 71.7955C67.2793 72.3163 67.7735 73.6675 67.6828 75.3395C72.7015 74.4715 75.2338 70.6788 75.2338 70.6788C74.63 70.377 73.4758 70.2845 73.4758 70.2845C75.6733 68.9363 77.1635 67.2833 78.1723 65.6488C80.393 62.0548 80.2945 58.5468 80.2945 58.5468C79.2215 58.714 78.3178 59.2333 78.3178 59.2333C79.5908 48.5935 71.43 46.6653 71.43 46.6653C71.43 46.6653 71.4315 46.6668 71.4348 46.6715C71.7133 46.9593 71.9258 47.3565 72.0713 47.8335C72.0728 47.8368 72.0728 47.8398 72.0745 47.843C72.7548 50.1093 71.8823 54.1208 69.0108 56.2055C68.1318 56.8435 67.0668 57.3018 65.8 57.474C59.516 58.3295 58.5213 62.0753 58.5213 62.0753C58.7028 62.5508 58.87 63.0543 59.006 63.5768C59.1905 64.2838 59.3188 65.0188 59.3408 65.7445C59.3408 65.7445 58.8623 65.8133 58.135 65.4568C58.0378 65.41 57.936 65.3553 57.8313 65.291Z" fill="url(#paint4_linear_1039_17843)"/>
<path d="M51.0895 45.4235C50.3608 45.5438 49.1393 45.7883 47.9385 46.2233C47.4395 46.404 47.0408 45.7798 47.422 45.4105C48.94 43.9403 50.9178 42.5723 51.5918 44.5735C51.7198 44.9533 51.485 45.358 51.0895 45.4235Z" fill="#FFDAB6"/>
<path d="M33.497 44.0868C34.0943 44.3148 35.088 44.7336 36.031 45.3098C36.423 45.5493 36.869 45.0888 36.6095 44.7098C35.5765 43.2003 34.1355 41.6983 33.2178 43.2788C33.0438 43.5791 33.173 43.9631 33.497 44.0868Z" fill="#FFDAB6"/>
<path d="M29.8735 60.6243C29.9533 60.6103 30.0393 60.5868 30.1268 60.5555C30.6585 60.3758 31.2638 59.955 31.2638 59.955C30.3958 62.0225 30.8478 64.4968 31.3215 66.0905C31.6063 67.0493 31.8985 67.689 31.9158 67.728L31.9173 67.7295C32.3943 67.3525 32.9058 66.6943 32.9058 66.6943L32.9073 66.699C32.973 67.0885 33.0575 67.467 33.1575 67.8313C34.2225 71.7553 37.0018 74.2045 37.8088 74.8473C37.951 74.9615 38.0325 75.0193 38.0325 75.0193C43.999 72.706 47.124 67.265 47.124 67.265C47.049 69.1745 47.82 69.8408 47.82 69.8408C50.9778 67.2023 51.1325 62.6153 51.1325 62.6153C51.7238 63.7335 52.4275 63.9603 52.4275 63.9603C52.8325 62.856 52.9905 61.8943 52.978 61.059C52.9718 60.6758 52.9218 60.3053 52.8325 59.9485C52.346 58.0218 50.7008 56.5625 48.716 56.2858C48.7145 56.2843 48.7145 56.2843 48.7145 56.2843C48.397 56.239 48.0703 56.2248 47.737 56.2435C43.5893 56.4828 41.2138 57.648 39.8545 58.8993L39.853 58.896C39.8265 58.8428 39.584 58.3738 39.0945 57.7888C38.9945 57.6668 38.8803 57.54 38.7568 57.4103C37.8418 56.4578 36.3233 55.3833 34.079 55.2958C32.8998 55.2505 32.0428 55.5163 31.4218 55.9525C29.381 57.3805 29.8735 60.6243 29.8735 60.6243Z" fill="#FFDAB6"/>
<path d="M59.9175 33.4205C59.9175 33.4205 63.4538 37.1647 65.4805 41.3875C65.4758 41.2905 65.4728 41.1905 65.4728 41.0872V41.0795C65.415 35.9215 69.442 22.8795 64.9113 15.851C64.9113 15.851 64.9113 15.851 64.9098 15.8525C64.9098 15.8525 64.9098 15.854 64.9083 15.8555C64.8065 15.9555 62.1433 18.641 59.0825 26.0527L63.3693 28.25C63.3693 28.25 62.6843 29.8812 60.8935 29.9907L60.906 30.1252C60.906 30.125 62.2058 32.4647 59.9175 33.4205Z" fill="#FFDAB6"/>
<path d="M31.4438 35.3973C34.7173 31.5858 38.502 30.0765 38.502 30.0765C36.5925 28.8458 38.0375 27.0455 38.0375 27.0455L38.1673 27.0235C37.307 26.1258 37.171 24.6978 37.171 24.6978L41.5845 24.815C40.7635 18.254 38.5723 15.3873 38.5035 15.2983C38.502 15.2968 38.502 15.2968 38.502 15.2968C38.502 15.2968 33.5663 18.4093 31.4438 35.3973Z" fill="#FFDAB6"/>
<path d="M60.5463 83.291C60.6183 83.3255 60.6903 83.3568 60.7653 83.3833C60.7668 83.3833 60.7668 83.3833 60.7668 83.3833C62.5528 84.023 65.1193 82.19 66.6255 79.145C67.2715 77.8375 67.6218 76.5113 67.6828 75.3398C67.7735 73.6678 67.2793 72.3165 66.2268 71.7958C64.96 71.1703 63.2255 71.9178 61.7648 73.535C61.1625 74.2013 60.6058 75.016 60.1475 75.9435C58.5803 79.1183 58.7588 82.4073 60.5463 83.291Z" fill="#FFDAB6"/>
<path d="M23.114 79.0432C24.7703 81.5017 27.1585 82.8514 28.7288 82.3134C28.8898 82.2587 29.0415 82.1837 29.1838 82.0882C30.7103 81.0607 30.4693 78.0297 28.6443 75.3192C28.1595 74.5997 27.6135 73.9757 27.0428 73.4674C25.4615 72.0552 23.6975 71.5187 22.576 72.2742C21.048 73.3032 21.2905 76.3327 23.114 79.0432Z" fill="#FFDAB6"/>
<path d="M37.8093 74.847C37.8093 74.847 37.8563 75.4725 37.9468 76.2185C38.036 76.966 38.1673 77.834 38.3345 78.3205C38.3393 78.3363 38.3455 78.3533 38.3518 78.3705C38.3565 78.3893 38.3628 78.408 38.369 78.4268C38.4003 78.53 38.4348 78.663 38.469 78.8145C38.48 78.8615 38.491 78.91 38.5018 78.9615C38.5065 78.9865 38.5128 79.013 38.5175 79.0398C38.5223 79.0663 38.5285 79.093 38.5333 79.1195C38.538 79.146 38.5443 79.1743 38.549 79.2025C38.5538 79.2308 38.56 79.2588 38.5648 79.287C38.571 79.323 38.5773 79.359 38.5835 79.3965C38.5868 79.4185 38.5898 79.4418 38.5945 79.4638C38.5993 79.495 38.604 79.5248 38.6085 79.556C38.618 79.617 38.6273 79.6795 38.635 79.7438C38.6428 79.808 38.6508 79.8735 38.6585 79.9393C38.6883 80.2035 38.7085 80.482 38.7163 80.7635C38.7178 80.798 38.7178 80.834 38.7178 80.8683C38.7208 81.1028 38.7145 81.339 38.6943 81.5705C41.572 82.5605 43.9743 81.8005 44.0508 81.7755C44.0475 81.6988 44.046 81.6238 44.0493 81.5455C44.054 81.4033 44.0618 81.253 44.0743 81.0968C44.0915 80.8623 44.118 80.6275 44.151 80.396C44.1605 80.3335 44.1698 80.271 44.1808 80.21C44.1918 80.1365 44.2058 80.063 44.2198 79.9895C44.2323 79.916 44.2463 79.8425 44.262 79.7705C44.276 79.697 44.2933 79.625 44.3105 79.553C44.323 79.4905 44.3388 79.428 44.3543 79.3653C44.4215 79.0978 44.4983 78.8335 44.5858 78.5723C44.6015 78.5208 44.6203 78.4675 44.639 78.4143C44.664 78.3408 44.6905 78.2673 44.7188 78.1938C44.7438 78.128 44.7688 78.0608 44.7955 77.995C44.9065 77.7135 45.03 77.4368 45.1645 77.1645C45.8885 75.696 47.0038 73.264 47.5465 71.198L47.548 71.1948C47.573 71.0993 47.5965 71.0055 47.6185 70.9118C47.656 70.76 47.689 70.6115 47.7185 70.466C47.7373 70.3738 47.753 70.2815 47.7685 70.1923C47.7888 70.0718 47.806 69.9545 47.82 69.8403C47.82 69.8403 47.049 69.174 47.124 67.2645C47.124 67.2645 43.9993 72.7055 38.0325 75.0188C38.0328 75.019 37.9515 74.9613 37.8093 74.847Z" fill="#FFDAB6"/>
<path d="M39.2065 50.42C39.2065 50.42 36.4125 45.9448 26.4533 43.63C26.3703 43.6753 26.286 43.716 26.1983 43.7505C26.1983 43.7505 26.1108 45.6555 26.802 46.4343V46.4358C26.472 46.5015 26.0935 46.575 25.6838 46.65C25.6838 46.65 26.2015 51.4123 31.422 55.9525C32.043 55.5163 32.9 55.2503 34.0793 55.2958C38.1205 55.4538 39.808 58.8068 39.855 58.8993C41.214 57.648 43.5898 56.483 47.7375 56.2435C50.143 56.1043 52.2683 57.712 52.833 59.9485C52.8955 59.9375 54.6285 59.6358 56.9073 58.8303C60.3168 57.626 64.943 55.2988 67.0058 51.1403C67.0058 51.1403 66.5615 50.8635 65.9845 50.5945C65.9845 50.5945 66.654 50.0095 67.3078 48.9038C67.3078 48.9038 67.109 48.58 66.8418 47.945C64.168 47.5175 54.4688 46.3528 41.5913 50.6525L40.3883 51.3165L39.2065 50.42Z" fill="#FFDAB6"/>
<path d="M72.8173 63.401C72.1175 63.9443 71.2528 64.6118 70.4528 65.2198C70.2853 65.347 70.3598 65.614 70.569 65.6348C71.3923 65.7168 72.9953 65.7685 74.5545 65.206C74.7533 65.1343 74.9373 65.3438 74.8385 65.5308C74.6783 65.8335 74.4253 66.2773 74.0313 66.9003C73.9153 67.0838 74.0898 67.3125 74.2965 67.2465C75.0773 66.9968 76.5318 66.481 78.1723 65.6495C80.393 62.0555 80.2945 58.5475 80.2945 58.5475C79.2215 58.7148 78.3178 59.234 78.3178 59.234C79.5908 48.5943 71.43 46.666 71.43 46.666C73.0363 48.3113 72.4935 53.6773 69.0105 56.2063C68.7078 56.876 68.348 57.5915 67.9443 58.238C67.8255 58.4283 68.022 58.6593 68.2298 58.575C68.6963 58.3858 69.3223 58.1283 69.8765 57.8873C70.101 57.7895 70.3053 58.06 70.1483 58.248C69.687 58.7998 69.0385 59.544 68.4348 60.1248C68.262 60.291 68.4255 60.5783 68.657 60.515C69.2125 60.3628 69.9193 60.1498 70.5265 59.9058C70.7548 59.814 70.9515 60.09 70.788 60.2738C69.9473 61.2175 68.6518 62.5695 67.3 63.3923C67.109 63.5085 67.172 63.7988 67.3945 63.8218C68.3103 63.9163 70.1218 63.914 72.5928 63.0018C72.842 62.909 73.0275 63.2378 72.8173 63.401Z" fill="#FFDAB6"/>
<path d="M38.5035 15.2986C38.5035 15.2986 38.505 15.3001 38.5083 15.3048C38.6413 15.4783 40.776 18.3576 41.5845 24.8153C41.683 25.5926 41.7613 26.4216 41.8145 27.3051C42.8265 27.5351 43.9525 27.6758 44.8893 27.7601C44.0228 26.3806 44.4013 24.2958 44.4013 24.2958C45.5665 24.4538 46.788 24.7118 47.9295 24.9966C47.9298 24.9968 43.682 17.5556 38.5035 15.2986Z" fill="#8E3410"/>
<path d="M53.121 28.67C53.1193 28.8555 53.1208 29.0475 53.1228 29.211C53.1253 29.404 53.35 29.5088 53.498 29.3853C53.6233 29.281 53.758 29.1583 53.8813 29.042C54.0278 28.9038 54.267 29.0083 54.2675 29.2098C54.2678 29.393 54.2755 29.5813 54.2843 29.739C54.2943 29.9188 54.498 30.0163 54.6455 29.913C54.8435 29.774 55.0518 29.6103 55.233 29.4613C55.393 29.3298 55.629 29.463 55.6038 29.6685C55.577 29.8875 55.5623 30.11 55.5543 30.2885C55.5465 30.4628 55.7273 30.582 55.8838 30.505C56.5758 30.1643 57.781 29.448 57.781 29.448L59.0825 26.0525C62.1555 18.611 64.827 15.9353 64.9098 15.8523C64.7738 15.9008 57.667 18.4813 52.9408 26.5155C52.7258 26.871 52.232 27.8273 51.8945 28.49C51.791 28.693 52.0153 28.9058 52.2133 28.7925L52.7783 28.4693C52.9315 28.3815 53.1228 28.493 53.121 28.67Z" fill="#8E3410"/>
<path d="M44.0495 81.5456C44.0463 81.6238 44.048 81.6988 44.051 81.7756C44.1448 83.5148 45.992 84.6721 47.62 83.9308C48.9538 83.3233 50.0653 82.3911 50.9905 81.2743C51.038 81.2171 51.0558 81.1406 51.0393 81.0681C50.9735 80.7793 50.7965 79.9913 50.6438 79.2276C50.6083 79.0498 50.3955 78.9751 50.257 79.0918C50.091 79.2316 49.8813 79.4168 49.6853 79.6146C49.5323 79.7688 49.2693 79.6538 49.2785 79.4368C49.288 79.2176 49.294 78.9806 49.29 78.7781C49.286 78.5751 49.0463 78.4703 48.8943 78.6048C48.6565 78.8148 48.3348 79.1111 48.0618 79.4043C47.9195 79.5571 47.6638 79.4676 47.6498 79.2593C47.6295 78.9596 47.595 78.6018 47.5378 78.3138C47.5018 78.1326 47.281 78.0613 47.1443 78.1856C46.9145 78.3943 46.584 78.7048 46.3068 79.0046C46.1575 79.1658 45.889 79.0566 45.8945 78.8371C45.9013 78.5636 45.9045 78.2523 45.8963 77.9793C45.8903 77.7783 45.6523 77.6761 45.501 77.8083C45.2135 78.0598 44.7933 78.5198 44.3775 79.3076C44.3678 79.3261 44.36 79.3461 44.355 79.3663C44.2138 79.9338 44.1195 80.5131 44.0748 81.0968C44.062 81.2531 44.0543 81.4033 44.0495 81.5456Z" fill="#8E3410"/>
<path d="M33.0478 79.3811C32.8625 79.2286 32.5953 79.4246 32.685 79.6471C32.9 80.1793 33.1313 80.6721 33.3753 81.1203C34.2418 82.7078 35.2678 83.7213 36.325 83.8838C38.0015 84.1403 38.5773 82.9376 38.6945 81.5708C38.7455 80.9816 38.7118 80.3618 38.644 79.8141C38.6383 79.7678 38.6188 79.7253 38.5883 79.6901L37.3008 78.2141C37.16 78.0528 36.8945 78.1523 36.8945 78.3663V78.9948C36.8945 79.2126 36.6215 79.3101 36.4835 79.1416L35.948 78.4868C35.8103 78.3183 35.537 78.4158 35.537 78.6336V79.3366C35.537 79.5581 35.256 79.6533 35.1213 79.4773L34.7078 78.9368C34.5673 78.7533 34.2743 78.8658 34.2928 79.0963L34.362 79.9546C34.3785 80.1586 34.1418 80.2821 33.9838 80.1521L33.0478 79.3811Z" fill="#8E3410"/>
<path d="M63.2057 79.8273C62.3249 79.8273 61.6107 79.1132 61.6107 78.2323C61.6107 77.3514 62.3249 76.6373 63.2057 76.6373C64.0866 76.6373 64.8008 77.3514 64.8008 78.2323C64.8008 79.1132 64.0866 79.8273 63.2057 79.8273Z" fill="#FF80B4"/>
<path d="M65.6057 77.3419C65.2167 77.3419 64.9012 77.0264 64.9012 76.6374C64.9012 76.2483 65.2167 75.9329 65.6057 75.9329C65.9948 75.9329 66.3102 76.2483 66.3102 76.6374C66.3102 77.0264 65.9948 77.3419 65.6057 77.3419Z" fill="#FF80B4"/>
<path d="M62.992 76.2786C62.6029 76.2786 62.2875 75.9632 62.2875 75.5741C62.2875 75.185 62.6029 74.8696 62.992 74.8696C63.3811 74.8696 63.6965 75.185 63.6965 75.5741C63.6965 75.9632 63.3811 76.2786 62.992 76.2786Z" fill="#FF80B4"/>
<path d="M64.8007 75.7271C64.4117 75.7271 64.0962 75.4117 64.0962 75.0226C64.0962 74.6335 64.4117 74.3181 64.8007 74.3181C65.1898 74.3181 65.5052 74.6335 65.5052 75.0226C65.5052 75.4117 65.1898 75.7271 64.8007 75.7271Z" fill="#FF80B4"/>
<path d="M26.1765 79.0913C25.3808 79.0913 24.7357 78.4463 24.7357 77.6506C24.7357 76.8549 25.3808 76.2098 26.1765 76.2098C26.9722 76.2098 27.6172 76.8549 27.6172 77.6506C27.6172 78.4463 26.9722 79.0913 26.1765 79.0913Z" fill="#FF80B4"/>
<path d="M26.1758 75.6839C25.8242 75.6839 25.5393 75.3989 25.5393 75.0474C25.5393 74.6959 25.8242 74.4109 26.1758 74.4109C26.5273 74.4109 26.8123 74.6959 26.8123 75.0474C26.8123 75.3989 26.5273 75.6839 26.1758 75.6839Z" fill="#FF80B4"/>
<path d="M24.0693 77.1196C23.7177 77.1196 23.4328 76.8346 23.4328 76.4831C23.4328 76.1315 23.7177 75.8466 24.0693 75.8466C24.4208 75.8466 24.7057 76.1315 24.7057 76.4831C24.7057 76.8346 24.4208 77.1196 24.0693 77.1196Z" fill="#FF80B4"/>
<path d="M24.558 75.4828C24.2065 75.4828 23.9215 75.1979 23.9215 74.8463C23.9215 74.4948 24.2065 74.2098 24.558 74.2098C24.9095 74.2098 25.1945 74.4948 25.1945 74.8463C25.1945 75.1979 24.9095 75.4828 24.558 75.4828Z" fill="#FF80B4"/>
<g opacity="0.3">
<path d="M38.0423 62.3681C38.3348 59.9721 39.855 58.8991 39.855 58.8991C39.8378 58.8646 39.597 58.3876 39.095 57.7886C37.1118 60.2208 38.0423 62.3681 38.0423 62.3681Z" fill="#650000"/>
</g>
<g opacity="0.3">
<path d="M49.2778 28.9538C50.4008 28.8708 51.4563 29.1883 51.4563 29.1883C52.1085 27.8981 52.9405 26.5156 52.9405 26.5156C52.9405 26.5156 50.6603 25.6788 47.9295 24.9971C46.7893 24.7123 45.5695 24.4543 44.4058 24.2981C44.5888 24.3748 50.4318 26.8348 50.5803 27.5886C50.7308 28.3548 49.2778 28.9538 49.2778 28.9538Z" fill="#650000"/>
</g>
<g opacity="0.3">
<path d="M30.186 79.6724C30.884 79.5326 31.6503 79.2539 32.342 78.7244C32.6478 79.6171 32.9958 80.4241 33.3753 81.1201C31.4328 82.8139 28.7288 82.3134 28.7288 82.3134C28.8898 82.2586 29.0415 82.1836 29.1838 82.0881C29.8758 81.6226 30.2033 80.7446 30.186 79.6724Z" fill="#650000"/>
</g>
<g opacity="0.3">
<path d="M25.6838 46.65C25.6838 46.65 26.2015 51.4123 31.422 55.9525C32.043 55.5163 32.9 55.2503 34.0793 55.2958C38.1205 55.4538 39.808 58.8068 39.855 58.8993C41.214 57.648 43.5898 56.483 47.7375 56.2435C50.143 56.1043 52.2683 57.712 52.833 59.9485C52.8955 59.9375 54.6285 59.6358 56.9073 58.8303C60.3168 57.626 64.943 55.2988 67.0058 51.1403C67.0058 51.1403 66.5615 50.8635 65.9845 50.5945C65.9845 50.5945 66.654 50.0095 67.3078 48.9038C67.3078 48.9038 67.109 48.58 66.8418 47.945C66.3523 46.783 65.6328 44.573 65.481 41.3873C63.5183 37.296 60.137 33.655 59.929 33.4313L59.9213 33.4235L59.9183 33.4203C59.9183 33.4203 59.9183 33.4218 59.9198 33.4235C60.0615 33.7088 67.9665 49.686 55.7895 55.3585C55.4693 55.5078 55.0968 55.4918 54.788 55.32C53.169 54.4198 47.4928 51.8643 40.97 55.906C40.5625 56.1585 40.0358 56.113 39.6753 55.7968C38.493 54.76 35.6348 52.776 32.0608 53.9215C31.655 54.0515 31.2113 53.9438 30.918 53.635C29.7023 52.3548 26.6423 48.9945 25.6838 46.65Z" fill="#650000"/>
</g>
<g opacity="0.3">
<path d="M31.4438 35.3973C34.7173 31.5858 38.502 30.0766 38.502 30.0766C36.5925 28.8458 38.0375 27.0456 38.0375 27.0456L38.1673 27.0236C37.307 26.1258 37.171 24.6978 37.171 24.6978L41.5845 24.8151C40.7635 18.2541 38.5723 15.3873 38.5035 15.2983C38.5035 15.2983 38.981 18.9088 39.3138 22.3443C39.349 22.7081 39.0635 23.0228 38.698 23.0228H36.0423C35.686 23.0228 35.4043 23.3223 35.4248 23.6781C35.4695 24.4546 35.638 25.7686 36.2433 26.7636C36.3428 26.9273 36.3638 27.1256 36.2955 27.3046C36.1393 27.7141 35.913 28.5103 36.1343 29.2813C36.2053 29.5283 36.1333 29.7931 35.9323 29.9533C34.872 30.7993 31.8003 33.3983 31.4438 35.3973Z" fill="#650000"/>
</g>
<g opacity="0.3">
<path d="M38.5083 15.3049C38.6483 15.4449 42.2875 19.1549 43.9078 22.1836C44.0303 22.4124 43.8383 22.6824 43.582 22.6419L43.1178 22.5686C42.9425 22.5409 42.7785 22.6631 42.7575 22.8394C42.658 23.6811 42.6228 26.0156 44.8893 27.7606C44.0228 26.3811 44.4013 24.2964 44.4013 24.2964C45.5665 24.4544 46.788 24.7124 47.9295 24.9971C47.9295 24.9971 43.6818 17.5556 38.5035 15.2989C38.5035 15.2986 38.5052 15.3004 38.5083 15.3049Z" fill="#650000"/>
</g>
<g opacity="0.3">
<path d="M32.9078 66.6989L33.158 67.8311C34.223 71.7551 37.0023 74.2044 37.8093 74.8471C37.9515 74.9614 38.033 75.0191 38.033 75.0191C43.9995 72.7059 47.1245 67.2649 47.1245 67.2649C47.0495 69.1744 47.8205 69.8406 47.8205 69.8406C50.9783 67.2021 51.133 62.6151 51.133 62.6151C51.7243 63.7334 52.428 63.9601 52.428 63.9601C52.833 62.8559 52.991 61.8941 52.9785 61.0589C52.9723 60.6756 52.9223 60.3051 52.833 59.9484C52.3465 58.0216 50.7013 56.5624 48.7165 56.2856C48.7475 56.3506 49.6975 58.3204 49.7968 60.0949C49.804 60.2249 49.6603 60.3084 49.5518 60.2364C49.335 60.0926 49.006 59.8786 48.6745 59.6791C48.5638 59.6126 48.424 59.7009 48.4365 59.8294C48.4993 60.4756 48.5963 62.0684 48.3008 64.0356C48.278 64.1864 48.0753 64.2214 48.0045 64.0861C47.8143 63.7231 47.5295 63.2006 47.274 62.8154C47.2083 62.7161 47.0618 62.7211 47.0043 62.8254C46.3843 63.9501 43.417 69.0629 39.1918 71.9576C38.6305 72.3421 37.8808 72.2991 37.3553 71.8669C36.0373 70.7831 33.6293 68.6134 32.9078 66.6989Z" fill="#650000"/>
</g>
<g opacity="0.3">
<path d="M63.3693 28.2501C63.3693 28.2501 63.2038 28.8246 60.2903 28.0224C59.9955 27.9411 59.6805 28.0544 59.5055 28.3051L56.9018 32.0376C56.9018 32.0376 58.2468 27.8091 59.0825 26.0526L63.3693 28.2501Z" fill="#650000"/>
</g>
<g opacity="0.3">
<path d="M37.171 24.6981C40.8668 26.2731 39.3203 26.7406 40.1585 29.7419C40.9953 32.7431 44.6688 32.2051 44.6688 32.2051C40.8073 31.2919 41.167 27.2114 41.167 27.2114L41.8145 27.3051C41.7613 26.4214 41.683 25.5926 41.5845 24.8154L37.171 24.6981Z" fill="#650000"/>
</g>
<g opacity="0.3">
<path d="M64.6815 19.2898C64.61 19.1721 64.4445 19.1581 64.3495 19.2581C64.3495 19.2581 64.5348 19.0606 64.533 19.0621C64.4453 19.1486 62.4463 21.1661 59.9315 26.4876L59.0823 26.0523C62.143 18.6408 64.8065 15.9556 64.9083 15.8553C64.9098 15.8538 64.9098 15.8523 64.9098 15.8523C64.9113 15.8508 64.9113 15.8508 64.9113 15.8508C67.74 20.2388 67.2328 26.9708 66.4668 32.6648C66.9215 27.8983 66.851 22.8636 64.6815 19.2898Z" fill="#650000"/>
</g>
<g opacity="0.3">
<path d="M65.4805 41.3874C64.6592 37.6096 62.549 34.6689 61.912 33.8449C61.8142 33.7184 61.81 33.5399 61.9107 33.4156C62.5067 32.6806 62.4648 31.6604 62.3928 31.1399C62.3685 30.9644 62.4837 30.8074 62.6542 30.7596C63.313 30.5746 63.903 29.8711 64.2417 29.3899C64.414 29.1451 64.3407 28.8056 64.081 28.6571L63.3693 28.2501C63.3693 28.2501 62.6842 29.8814 60.8935 29.9909L60.906 30.1254C60.906 30.1254 62.2057 32.4651 59.9175 33.4206C59.9175 33.4206 63.4537 37.1646 65.4805 41.3874Z" fill="#650000"/>
</g>
<g opacity="0.3">
<path d="M51.0388 81.0686L51.0513 81.1999C51.056 81.1936 51.0608 81.1889 51.0653 81.1826C54.5843 81.6519 56.131 82.9781 57.5715 83.3831C58.987 83.7789 60.7025 83.3971 60.7653 83.3831C60.6903 83.3566 60.6183 83.3254 60.5463 83.2909C59.511 82.7794 59.015 81.4594 59.087 79.8219C57.8078 79.9534 56.178 79.7829 55.9153 79.5434C55.778 79.4174 55.49 79.2889 55.1878 79.1786C54.6503 78.9824 54.3603 78.3996 54.5365 77.8551C56.5898 71.5119 55.5618 67.4274 55.5618 67.4274C54.9253 77.1791 51.0388 81.0686 51.0388 81.0686Z" fill="#650000"/>
</g>
<g opacity="0.3">
<path d="M37.9468 76.2186C42.569 74.8906 45.3315 71.8143 46.1985 70.7171C46.349 70.5266 46.6305 70.5028 46.8075 70.6691C47.1663 71.0066 47.5465 71.1981 47.5465 71.1981C47.5513 71.1948 47.5543 71.1933 47.559 71.1903C50.4335 69.4403 51.5785 67.0676 51.9725 65.9916C52.0523 65.7726 52.3275 65.6991 52.4995 65.8571C52.5528 65.9071 52.609 65.9526 52.6605 65.9948C52.8233 66.1231 53.0625 66.0716 53.1578 65.8886C54.437 63.4378 54.4355 61.7831 54.384 61.2186C54.3715 61.0841 54.4435 60.9588 54.5638 60.8981C56.6815 59.8081 56.9065 58.8306 56.9065 58.8306C54.6278 59.6361 52.895 59.9378 52.8323 59.9488C52.9215 60.3053 52.9715 60.6761 52.9778 61.0593C52.9903 61.8946 52.8323 62.8563 52.4273 63.9606C52.4273 63.9606 51.7235 63.7338 51.1323 62.6156C51.1323 62.6156 50.9775 67.2028 47.8198 69.8411C47.8198 69.8411 47.0488 69.1748 47.1238 67.2653C47.1238 67.2653 43.999 72.7063 38.0323 75.0196C38.0323 75.0196 37.951 74.9618 37.8085 74.8476C36.9265 74.1438 33.6875 71.2848 32.907 66.7008C32.0398 73.4598 37.9468 76.2186 37.9468 76.2186Z" fill="#650000"/>
</g>
<g opacity="0.3">
<path d="M33.3753 81.12C34.2418 82.7075 35.2678 83.721 36.325 83.8835C38.0015 84.14 38.5773 82.9373 38.6945 81.5705C41.5723 82.5605 43.9745 81.8005 44.051 81.7755C44.1448 83.5148 45.992 84.672 47.62 83.9308C48.9838 83.3098 50.1145 82.3495 51.0513 81.2C51.056 81.1938 51.0608 81.189 51.0653 81.1828C51.0748 81.1843 51.0855 81.186 51.095 81.1875L51.0388 81.0688C51.0388 81.0688 52.5278 79.1623 52.9045 78.2223C52.8138 78.3115 48.8475 82.1885 44.3543 79.3655C44.3543 79.3655 41.8143 80.7075 38.5833 79.3968C38.5833 79.3965 36.7943 82.0773 33.3753 81.12Z" fill="#650000"/>
</g>
<g opacity="0.3">
<path d="M58.8808 70.2318C58.962 70.8918 59.0215 71.5863 59.0465 72.2883C59.8253 72.573 60.7685 72.978 61.7648 73.5348C63.2255 71.9175 64.96 71.17 66.2268 71.7955C67.2793 72.3163 67.7735 73.6675 67.6828 75.3395C72.7015 74.4715 75.2338 70.6788 75.2338 70.6788C74.63 70.377 73.4758 70.2845 73.4758 70.2845C75.6733 68.9363 77.1635 67.2833 78.1723 65.6488C80.393 62.0548 80.2945 58.5468 80.2945 58.5468C79.2215 58.714 78.3178 59.2333 78.3178 59.2333C79.5908 48.5935 71.43 46.6653 71.43 46.6653C71.43 46.6653 71.4315 46.6668 71.4333 46.6685C71.5973 46.7815 77.029 51.064 75.295 62.0295C75.2638 62.2275 75.4168 62.4073 75.617 62.4025C75.8293 62.3973 76.1023 62.3808 76.3623 62.3365C76.629 62.291 76.828 62.5778 76.6925 62.812C75.8005 64.3533 73.4868 67.7568 69.7978 69.131C69.5353 69.2288 69.284 68.9655 69.3905 68.7063C69.4425 68.5798 69.495 68.4388 69.544 68.2865C69.638 67.9943 69.3128 67.7468 69.059 67.92C67.4083 69.0473 63.0273 71.6173 59.0468 70.2845C58.99 70.266 58.9338 70.249 58.8808 70.2318Z" fill="#650000"/>
</g>
<g opacity="0.3">
<path d="M60.1475 75.9433C60.2553 75.7253 60.369 75.5138 60.4868 75.3088C59.6558 77.9343 60.0253 80.3498 61.518 81.0878C61.59 81.1223 61.662 81.1536 61.737 81.1801C61.7385 81.1801 61.7385 81.1801 61.7385 81.1801C63.3968 81.7738 65.727 80.2358 67.2575 77.5758C67.0933 78.0946 66.884 78.6211 66.6253 79.1448C65.1193 82.1898 62.5528 84.0228 60.7665 83.3831C60.7665 83.3831 60.7665 83.3831 60.765 83.3831C60.69 83.3566 60.618 83.3253 60.546 83.2908C58.7588 82.4073 58.5803 79.1183 60.1475 75.9433Z" fill="#650000"/>
</g>
<g opacity="0.3">
<path d="M27.0448 80.1026C27.2058 80.0478 27.3575 79.9728 27.4998 79.8773C28.9003 78.9346 28.812 76.3048 27.378 73.7841C27.8268 74.2278 28.2553 74.7423 28.6443 75.3193C30.4695 78.0296 30.7103 81.0606 29.1838 82.0883C29.0415 82.1838 28.8898 82.2588 28.7288 82.3136C27.1585 82.8516 24.7703 81.5018 23.114 79.0433C22.964 78.8203 22.8258 78.5953 22.6975 78.3693C24.1625 79.8196 25.843 80.5143 27.0448 80.1026Z" fill="#650000"/>
</g>
<g opacity="0.3">
<path d="M57.0195 71.6848C57.9658 71.8318 59.0465 72.2886 59.0465 72.2886C59.0325 71.8663 59.0043 71.4456 58.9668 71.0343C57.6998 71.0513 57.0195 71.6848 57.0195 71.6848Z" fill="#650000"/>
</g>
<g opacity="0.7">
<path d="M26.4533 43.63C26.6815 43.508 26.8913 43.35 27.0618 43.203C27.3323 42.97 27.534 42.6665 27.6373 42.3255C28.5005 39.4617 29.9145 37.18 31.4425 35.4002V35.3987L31.444 35.3972C34.6658 31.6452 38.3833 30.125 38.499 30.0782C36.222 31.9487 34.4398 33.8372 33.0538 35.586C32.9278 35.7447 32.8745 35.9555 32.9303 36.1502C33.0855 36.6927 32.857 37.5622 32.2958 38.3735C31.7768 39.1232 31.1118 39.6237 30.5698 39.7315C30.364 39.7725 30.1815 39.8915 30.0823 40.0765C28.9273 42.2275 28.553 43.63 28.553 43.63C26.2398 45.0625 26.1985 43.7505 26.1985 43.7505C26.2858 43.716 26.3703 43.6755 26.4533 43.63Z" fill="white"/>
</g>
<g opacity="0.7">
<path d="M38.0423 62.368C38.0423 62.368 41.7843 57.0955 48.1875 57.875C49.8523 58.0778 51.3113 59.1348 51.9398 60.6895C52.2725 61.5125 52.4865 62.5815 52.4278 63.96C52.8328 62.8558 52.9908 61.894 52.9783 61.0588C52.972 60.6755 52.922 60.305 52.8328 59.9483C52.3463 58.0215 50.701 56.5623 48.7163 56.2855C48.7148 56.284 48.7148 56.284 48.7148 56.284C48.3973 56.2388 48.0705 56.2245 47.7373 56.2433C43.5895 56.4825 41.214 57.6478 39.8548 58.899C39.8548 58.899 38.352 60.022 38.0423 62.368Z" fill="white"/>
</g>
<g opacity="0.7">
<path d="M29.8735 60.6243C29.9533 60.6103 30.0393 60.5868 30.1268 60.5555C30.4145 59.3403 30.965 58.036 32.0005 57.1398C34.481 54.994 39.8548 58.8993 39.8548 58.8993L39.8533 58.896C39.8268 58.8428 39.5843 58.3738 39.0948 57.7888C38.9948 57.6668 38.8805 57.54 38.757 57.4103C37.842 56.4578 36.3235 55.3833 34.0793 55.2958C32.9 55.2505 32.043 55.5163 31.422 55.9525C29.381 57.3805 29.8735 60.6243 29.8735 60.6243Z" fill="white"/>
</g>
<g opacity="0.7">
<path d="M65.7998 57.4743C67.0665 57.3023 68.1318 56.844 69.0105 56.2058C71.882 54.121 72.7548 50.1093 72.0743 47.8433C72.992 49.8785 74.0493 54.1783 69.0175 57.6978C68.2533 58.2323 67.3905 58.6108 66.4833 58.8265C66.467 58.8303 66.4508 58.8343 66.4345 58.838C66.203 58.8923 66.015 59.0485 65.893 59.2528C65.6308 59.6915 64.77 60.2735 63.6645 60.7178C62.6883 61.11 61.7753 61.2923 61.2355 61.2365C60.985 61.2105 60.7368 61.3103 60.5633 61.4925C60.0268 62.0565 59.493 62.7445 59.0058 63.5765C58.8698 63.0543 58.7023 62.5505 58.521 62.075C58.521 62.0755 59.5155 58.3298 65.7998 57.4743Z" fill="white"/>
</g>
<g opacity="0.7">
<path d="M31.3203 66.0902H31.3218C31.6158 67.0802 31.9175 67.7292 31.9175 67.7292C31.986 67.675 32.0553 67.6147 32.1235 67.5517C31.9743 69.0102 31.9425 70.4617 32.0118 71.866C32.1415 74.5262 32.6295 77.013 33.3365 79.0415L33.338 79.043C33.6335 79.8937 33.9698 80.6632 34.3343 81.3327C35.037 82.6202 35.8445 83.53 36.6888 83.9145C36.573 83.9115 36.4532 83.903 36.3247 83.8835C35.2675 83.7207 34.2415 82.7075 33.375 81.12C33.0105 80.4505 32.6743 79.6812 32.3788 78.8302L32.3773 78.8287C31.6703 76.8002 31.1823 74.3135 31.0525 71.6532C30.9638 69.8485 31.0388 67.9655 31.3203 66.0902Z" fill="white"/>
</g>
<path d="M40.3165 58.676C40.267 58.5783 40.229 58.5118 40.1837 58.4345C40.14 58.36 40.095 58.2878 40.049 58.2163C39.9567 58.0738 39.8602 57.9358 39.76 57.8008C39.5585 57.5318 39.3405 57.2763 39.1072 57.0348C38.6405 56.5525 38.111 56.1268 37.5295 55.7815C37.2382 55.61 36.935 55.4585 36.623 55.3265C36.309 55.1995 35.9875 55.0915 35.66 55.007C35.0015 54.8435 34.3335 54.7663 33.654 54.7808C32.9752 54.792 32.2682 54.9295 31.6152 55.2433C31.2927 55.4078 30.9875 55.6138 30.719 55.8623C30.455 56.1148 30.2292 56.4025 30.046 56.7093C29.676 57.325 29.486 58.004 29.3852 58.6728C29.3362 59.0085 29.312 59.3445 29.308 59.6798C29.3055 59.8475 29.3095 60.015 29.3177 60.183C29.3267 60.3545 29.3388 60.511 29.3647 60.7023C29.4025 60.9795 29.6577 61.1735 29.935 61.1358L29.9575 61.1323L29.9622 61.1313C30.142 61.0978 30.2907 61.0463 30.433 60.9913C30.575 60.936 30.704 60.8733 30.8315 60.8088C30.9585 60.744 31.0797 60.6755 31.1992 60.6043C31.3205 60.5315 31.4312 60.4625 31.5567 60.377L30.7897 59.7555C30.6525 60.093 30.541 60.4388 30.458 60.7893C30.3797 61.1403 30.3235 61.494 30.2917 61.8478C30.2633 62.2015 30.2527 62.5548 30.262 62.906C30.2732 63.2568 30.3005 63.6055 30.3417 63.9513C30.4295 64.6418 30.569 65.3208 30.7552 65.9843C30.848 66.3163 30.9512 66.6448 31.0652 66.9703C31.1232 67.1328 31.182 67.2948 31.2455 67.456C31.3102 67.6198 31.372 67.7728 31.451 67.9468C31.5677 68.2033 31.8702 68.3168 32.127 68.2C32.1655 68.1825 32.2008 68.1608 32.2327 68.1355L32.2358 68.133C32.4562 67.9565 32.6395 67.7735 32.815 67.5868C32.9017 67.493 32.9862 67.3985 33.0685 67.3025C33.1517 67.205 33.2287 67.1125 33.313 67.0048L32.3992 66.7768C32.57 67.6278 32.771 68.4778 33.1042 69.2798L33.2207 69.5835C33.259 69.685 33.31 69.7808 33.354 69.8798L33.6285 70.4685C33.8385 70.8463 34.033 71.2338 34.2725 71.5935C34.7305 72.3255 35.2485 73.019 35.8257 73.6588C35.9702 73.8188 36.1197 73.9738 36.2667 74.1315C36.4197 74.2835 36.5715 74.4368 36.7287 74.5848C36.8875 74.7315 37.046 74.8785 37.2127 75.0188C37.294 75.0903 37.3795 75.1593 37.4647 75.2283C37.5067 75.263 37.55 75.2973 37.5952 75.3315C37.6397 75.3658 37.6825 75.3993 37.7357 75.4375L37.7482 75.4465C37.8902 75.5488 38.0695 75.562 38.2195 75.4978L38.9392 75.1875L39.299 75.032C39.4175 74.9775 39.5312 74.9135 39.6477 74.8548L40.3422 74.4938C40.5685 74.3648 40.7887 74.2253 41.0122 74.0915L41.346 73.8885C41.4547 73.817 41.5602 73.741 41.6675 73.6675C41.8807 73.5185 42.0962 73.3725 42.3072 73.2208C42.7157 72.8998 43.1332 72.5893 43.518 72.2408C44.3012 71.56 45.0385 70.8278 45.7127 70.0408L46.2102 69.4435C46.3692 69.2385 46.5305 69.0358 46.6855 68.8273C46.839 68.6175 46.9927 68.4085 47.1385 68.1918C47.2877 67.9748 47.4252 67.7623 47.57 67.5203L46.6105 67.244L46.6055 67.613C46.6107 67.7373 46.614 67.861 46.622 67.9855C46.6445 68.235 46.6722 68.4858 46.7322 68.737C46.7892 68.9878 46.8655 69.239 46.9772 69.4853C47.0352 69.6083 47.097 69.73 47.1747 69.85C47.212 69.91 47.255 69.9698 47.3002 70.0295C47.3255 70.06 47.347 70.0888 47.3757 70.1203C47.407 70.1543 47.4225 70.1743 47.4835 70.2295C47.6717 70.4003 47.9545 70.4008 48.143 70.2405L48.1492 70.235C48.7032 69.765 49.1995 69.2283 49.613 68.6385C49.8232 68.346 50.0122 68.04 50.1857 67.7268C50.361 67.4145 50.5155 67.0923 50.6565 66.7653C50.9402 66.1118 51.156 65.4345 51.323 64.7475C51.4057 64.4038 51.4745 64.057 51.5297 63.7073C51.5575 63.5325 51.5815 63.3568 51.6012 63.1798C51.621 62.9993 51.6377 62.832 51.647 62.6315L50.6785 62.8543L50.8087 63.0853C50.857 63.1605 50.9022 63.2368 50.9535 63.3108C51.056 63.4585 51.1655 63.6035 51.2905 63.7398C51.4152 63.8763 51.5507 64.0065 51.7037 64.1248C51.781 64.1835 51.8602 64.2405 51.9482 64.2928C51.991 64.3193 52.0375 64.3445 52.0852 64.3693C52.111 64.3815 52.1335 64.3935 52.1617 64.4058C52.1912 64.4185 52.2102 64.4275 52.263 64.446L52.2705 64.4485C52.5242 64.5345 52.799 64.4073 52.8995 64.163L52.9102 64.1365C53.2962 63.1945 53.5625 62.1708 53.577 61.098C53.5765 60.9635 53.5657 60.8253 53.5595 60.6888L53.548 60.4833C53.5402 60.4153 53.5277 60.3475 53.5175 60.2795C53.4947 60.144 53.4772 60.0073 53.4485 59.873L53.3412 59.474C53.3105 59.339 53.2512 59.214 53.2047 59.0843C53.154 58.956 53.1067 58.826 53.0392 58.7058C52.976 58.5833 52.9137 58.4603 52.848 58.339L52.623 57.9923C52.552 57.8738 52.4592 57.771 52.375 57.6623C52.2885 57.555 52.2052 57.445 52.1055 57.3498C52.0092 57.2515 51.914 57.1518 51.8155 57.0555L51.4997 56.789C51.3975 56.696 51.2777 56.6265 51.1652 56.547C51.051 56.47 50.9387 56.39 50.8152 56.328C50.694 56.2623 50.5735 56.1953 50.4512 56.1323L50.0705 55.971C49.9452 55.9125 49.811 55.8788 49.6797 55.8363C49.5475 55.797 49.4175 55.7498 49.281 55.7273L48.8752 55.6458C48.7385 55.6283 48.601 55.6168 48.4637 55.603C48.395 55.5975 48.3265 55.5875 48.2577 55.5863L48.051 55.587C47.9157 55.5903 47.7697 55.5875 47.6435 55.5973L46.895 55.6603C45.8977 55.763 44.8992 55.9208 43.9182 56.186C43.672 56.2453 43.4307 56.3328 43.1872 56.406C42.9447 56.4838 42.7062 56.5795 42.4662 56.6668C41.9935 56.8668 41.522 57.0735 41.076 57.3403C40.6302 57.6033 40.1915 57.8885 39.8012 58.2403C39.41 58.5885 39.056 58.9838 38.7695 59.4245C38.4815 59.8633 38.2582 60.344 38.1262 60.846C38.0587 61.096 38.013 61.3508 37.995 61.6065C37.9795 61.862 37.9807 62.1193 38.0335 62.367C38.1087 62.1275 38.2007 61.9028 38.3057 61.6865C38.4072 61.4695 38.5222 61.2625 38.6445 61.0638C38.8875 60.6653 39.168 60.3018 39.4772 59.9703C40.097 59.3108 40.818 58.758 41.626 58.328C42.0255 58.1068 42.4565 57.9368 42.8867 57.7713C43.1077 57.7003 43.325 57.6208 43.549 57.5578C43.7747 57.499 43.995 57.4263 44.225 57.38C45.1335 57.1625 46.068 57.022 47.0117 56.9438L47.7215 56.8963C47.8385 56.8893 47.9367 56.8963 48.045 56.8945L48.204 56.8933C48.257 56.894 48.3092 56.903 48.362 56.907C48.4672 56.9183 48.5727 56.926 48.6777 56.9385L48.9887 57.0018C49.0937 57.017 49.193 57.0558 49.2945 57.0855C49.395 57.1185 49.499 57.1415 49.5945 57.1883C50.382 57.4985 51.0807 58.0383 51.5757 58.7265L51.7542 58.9895L51.9052 59.269C51.9607 59.36 51.9965 59.4598 52.0372 59.5575C52.0757 59.656 52.1282 59.7498 52.1532 59.8533L52.2472 60.1573C52.2727 60.2603 52.2885 60.3655 52.3105 60.4695C52.3202 60.5218 52.3327 60.5738 52.3407 60.6263L52.354 60.7855C52.3617 60.8923 52.3755 60.997 52.38 61.106C52.408 61.988 52.228 62.8955 51.9452 63.781L52.5852 63.469L52.588 63.47C52.6035 63.4753 52.586 63.469 52.5795 63.4655C52.5715 63.4623 52.559 63.4555 52.5487 63.4508C52.5265 63.4388 52.503 63.4268 52.4785 63.4113C52.43 63.3828 52.3807 63.3473 52.332 63.3103C52.2342 63.2348 52.1405 63.145 52.0517 63.048C51.9625 62.951 51.8807 62.8425 51.8027 62.7305C51.7635 62.6745 51.7285 62.614 51.6907 62.5563L51.5877 62.3735L51.584 62.3668C51.4442 62.1185 51.1295 62.0308 50.8815 62.1708C50.7212 62.261 50.6277 62.4253 50.6195 62.5963C50.613 62.7355 50.5975 62.9068 50.5797 63.0643C50.5617 63.225 50.5397 63.3863 50.5142 63.5473C50.4632 63.8693 50.3997 64.1898 50.3232 64.507C50.1692 65.141 49.9702 65.7643 49.7122 66.3585C49.584 66.6558 49.4442 66.9478 49.2865 67.2283C49.1307 67.51 48.9617 67.7835 48.775 68.043C48.4077 68.5673 47.9722 69.0358 47.4902 69.4458L48.156 69.4513C48.1747 69.468 48.1517 69.4463 48.1452 69.4375C48.1352 69.427 48.123 69.41 48.1115 69.3968C48.0882 69.3653 48.064 69.333 48.0415 69.2958C47.9947 69.2245 47.9537 69.1425 47.914 69.0595C47.8367 68.8905 47.7795 68.703 47.7357 68.5098C47.689 68.3173 47.667 68.1133 47.648 67.9093C47.6415 67.8063 47.639 67.7023 47.6342 67.5985L47.6385 67.2838V67.2805C47.6422 66.9953 47.4142 66.7608 47.1287 66.757C46.9387 66.7545 46.7707 66.8558 46.679 67.0075C46.5635 67.1995 46.427 67.413 46.289 67.6125C46.1525 67.816 46.0062 68.0145 45.861 68.2133C45.7142 68.411 45.5602 68.6043 45.409 68.7993L44.9347 69.3685C44.2917 70.119 43.5885 70.8173 42.8442 71.4638C42.4785 71.7958 42.0822 72.0888 41.6955 72.3938C41.4957 72.5373 41.2917 72.675 41.0905 72.816C40.9892 72.8855 40.8892 72.9578 40.7867 73.0253L40.4717 73.2163C40.261 73.3423 40.0535 73.4743 39.8405 73.5958L39.1875 73.9348C39.0782 73.99 38.9712 74.0508 38.86 74.1018L38.5227 74.247L37.8485 74.5383L38.332 74.5985L38.2235 74.516C38.1855 74.4875 38.1472 74.457 38.109 74.4253C38.0325 74.363 37.9555 74.3015 37.8805 74.2353C37.728 74.1073 37.5812 73.9705 37.434 73.8348C37.288 73.6973 37.1465 73.554 37.004 73.4128C36.867 73.2655 36.7272 73.1208 36.5925 72.9715C36.053 72.3738 35.57 71.726 35.1445 71.0458C34.921 70.7113 34.7425 70.3518 34.5467 70.002L34.2932 69.4578C34.2525 69.3665 34.2048 69.278 34.17 69.1843L34.063 68.9043C33.7542 68.1648 33.573 67.384 33.414 66.6033L33.4112 66.59C33.3545 66.311 33.0822 66.131 32.8032 66.1878C32.6785 66.2133 32.573 66.2823 32.5 66.3753C32.4367 66.4563 32.3607 66.548 32.2882 66.6328C32.2147 66.7188 32.1397 66.8028 32.0637 66.8848C31.912 67.0475 31.7537 67.2023 31.5997 67.325L32.3842 67.5115C32.3252 67.382 32.2615 67.2263 32.204 67.08C32.1452 66.9313 32.0905 66.7798 32.0362 66.6285C31.93 66.3248 31.8332 66.017 31.7467 65.707C31.5725 65.087 31.4437 64.4565 31.3632 63.8245C31.3255 63.5083 31.301 63.192 31.2907 62.8765C31.2825 62.5613 31.2922 62.2475 31.317 61.9368C31.3447 61.6265 31.394 61.321 31.4602 61.0213C31.5312 60.723 31.6252 60.4333 31.7385 60.1528L31.7397 60.1498C31.8462 59.886 31.7187 59.5858 31.455 59.479C31.2902 59.4125 31.1087 59.439 30.9715 59.5313C30.883 59.5915 30.7745 59.66 30.6737 59.72C30.5707 59.7813 30.4667 59.84 30.363 59.8928C30.2595 59.945 30.1555 59.9955 30.056 60.0338C29.9572 60.0725 29.8597 60.1035 29.7845 60.1175L30.382 60.5468C30.3657 60.427 30.352 60.27 30.3452 60.1283C30.338 59.9828 30.3345 59.8363 30.3367 59.69C30.3402 59.3975 30.3615 59.1058 30.4032 58.8203C30.4885 58.251 30.6495 57.6973 30.93 57.2343C31.0687 57.0025 31.2342 56.793 31.4237 56.6105C31.6175 56.4325 31.8365 56.2853 32.0725 56.1635C32.5535 55.9345 33.1052 55.816 33.6807 55.8075C34.2567 55.7948 34.8472 55.8628 35.407 56.0023C35.6875 56.0748 35.962 56.1673 36.2302 56.2753C36.4967 56.3883 36.756 56.5175 37.0057 56.6645C37.5042 56.9605 37.9622 57.328 38.3687 57.748C38.5717 57.958 38.762 58.1813 38.937 58.4148C39.0237 58.5318 39.1072 58.6513 39.1857 58.7723C39.2247 58.8328 39.2627 58.8938 39.2985 58.9548C39.333 59.0128 39.3717 59.0833 39.3932 59.1253L39.401 59.1403C39.53 59.3933 39.8395 59.4938 40.0922 59.3648C40.3442 59.237 40.4455 58.929 40.3165 58.676Z" fill="#650000"/>
<path d="M52.923 60.4886C53.3033 60.4201 53.652 60.3421 54.0115 60.2571C54.368 60.1723 54.722 60.0801 55.0742 59.9821C55.7787 59.7861 56.4755 59.5651 57.1648 59.3198C58.5423 58.8288 59.8888 58.2393 61.1758 57.5245C62.461 56.8093 63.6888 55.9656 64.7815 54.9501C65.8723 53.9368 66.8237 52.7408 67.4965 51.3838L67.4973 51.3826C67.623 51.1286 67.531 50.8226 67.2955 50.6758C67.0628 50.5266 66.8353 50.418 66.5925 50.315C66.3508 50.216 66.1033 50.128 65.847 50.061C65.5905 49.9955 65.3295 49.9368 65.0572 49.9223C64.7875 49.9116 64.495 49.9408 64.2417 50.0851L64.896 50.4888C65.1025 50.6108 65.3093 50.7268 65.5113 50.8548L66.1167 51.2376C66.316 51.3636 66.525 51.4958 66.7175 51.6055L66.5163 50.8973C65.9115 52.1178 65.048 53.2088 64.0363 54.1488C63.0235 55.0905 61.8672 55.8875 60.644 56.568C59.4193 57.2485 58.1257 57.8156 56.7977 58.2888C56.1335 58.5251 55.4605 58.7386 54.7812 58.9276C54.4415 59.022 54.1005 59.1108 53.7582 59.1921C53.419 59.2726 53.0665 59.3506 52.7397 59.4093L52.7295 59.411C52.432 59.4645 52.2343 59.7491 52.2878 60.0468C52.3407 60.3443 52.6255 60.5421 52.923 60.4886Z" fill="#650000"/>
<path d="M66.2598 50.9095C66.3553 50.8408 66.4255 50.7863 66.5023 50.7215C66.577 50.659 66.648 50.5935 66.718 50.5278C66.8563 50.3943 66.9885 50.2555 67.1123 50.1103C67.237 49.9655 67.3538 49.8145 67.465 49.6598C67.577 49.5053 67.6778 49.3435 67.7788 49.1818C67.8843 49.0128 67.8818 48.8068 67.7898 48.6448L67.7738 48.617C67.7453 48.5673 67.7018 48.4883 67.666 48.4188C67.6285 48.3478 67.593 48.2718 67.5563 48.1985C67.4858 48.048 67.4163 47.896 67.3523 47.7403C67.2845 47.587 67.2275 47.4268 67.1648 47.27L66.995 46.7903C66.7788 46.1458 66.605 45.4833 66.467 44.8128C66.3908 44.4793 66.3415 44.139 66.2808 43.8018C66.2373 43.4613 66.1783 43.123 66.1495 42.7803L66.0973 42.2675L66.0628 41.7525L66.046 41.495C66.0393 41.4083 66.0353 41.3238 66.0355 41.2423C66.034 41.0765 66.0255 40.9138 66.0343 40.7435C66.0505 40.0705 66.1135 39.3815 66.195 38.691C66.277 38 66.3705 37.307 66.4715 36.612C66.6718 35.2225 66.8853 33.8263 67.0718 32.4235C67.2578 31.0205 67.4123 29.6085 67.513 28.1883C67.6123 26.768 67.6578 25.3385 67.6018 23.904C67.5405 22.4703 67.3783 21.03 67.0438 19.613C66.7093 18.1983 66.1653 16.8095 65.372 15.553L65.3705 15.5508C65.2323 15.3318 64.9618 15.2468 64.7283 15.3335C64.5138 15.413 64.334 15.4895 64.143 15.5728C63.955 15.6548 63.7703 15.7408 63.5863 15.8283C63.2195 16.0045 62.8603 16.1928 62.5045 16.3868C61.7963 16.7798 61.1088 17.2063 60.4428 17.6635C59.7768 18.121 59.1323 18.6088 58.5108 19.124C57.8893 19.6398 57.2973 20.1898 56.7268 20.7603C56.154 21.329 55.6128 21.9288 55.0965 22.5485C54.5753 23.1645 54.094 23.8133 53.636 24.4768C52.733 25.8125 51.952 27.2303 51.3323 28.7123C51.3105 28.7323 51.3073 28.7608 51.294 28.7845C51.2908 28.7915 51.297 28.784 51.2983 28.7845C51.3035 28.7818 51.3095 28.7805 51.315 28.7803C51.3205 28.78 51.3273 28.783 51.332 28.7863C51.3315 28.7888 51.3638 28.8008 51.28 28.7845C51.0498 28.7458 50.8228 28.7398 50.598 28.7458C50.1493 28.7573 49.71 28.8145 49.2783 28.9178C49.258 28.9225 49.2455 28.943 49.2503 28.9633C49.2535 28.977 49.2643 28.9873 49.277 28.9908C49.7025 29.1088 50.1208 29.212 50.5225 29.3323L51.1065 29.5163C51.1263 29.5253 51.2638 29.5665 51.3713 29.5603C51.483 29.5583 51.5955 29.532 51.695 29.4798C51.7953 29.4288 51.8833 29.3548 51.952 29.2658C51.9858 29.2235 52.0175 29.1685 52.0378 29.1273C52.0478 29.1028 52.0678 29.083 52.0693 29.0548C52.7865 27.6693 53.5853 26.3335 54.4828 25.0678C55.391 23.811 56.3808 22.6113 57.4898 21.5278C58.0415 20.9843 58.6138 20.4608 59.2138 19.9708C59.8103 19.477 60.4273 19.008 61.065 18.5695C61.7025 18.1308 62.3603 17.7223 63.035 17.3468C63.3735 17.1618 63.715 16.9825 64.061 16.8158C64.234 16.733 64.4078 16.6523 64.5823 16.576C64.7535 16.5013 64.9388 16.4248 65.0953 16.3668L64.4515 16.1473C65.159 17.2768 65.6588 18.5453 65.9685 19.8703C66.2783 21.1968 66.4313 22.5683 66.487 23.9478C66.5833 26.7128 66.3138 29.4995 65.947 32.2755C65.7658 33.6655 65.5568 35.0548 65.3585 36.4535C65.2588 37.1525 65.1653 37.8555 65.083 38.5635C65.0015 39.2718 64.9363 39.9873 64.92 40.7223C64.9115 40.904 64.9203 41.0933 64.923 41.2798C64.9235 41.3745 64.928 41.4658 64.9353 41.5545L64.9533 41.824L64.9908 42.363L65.0468 42.901C65.078 43.2603 65.1405 43.6165 65.1875 43.9743C65.252 44.3298 65.3053 44.6873 65.3865 45.0403C65.534 45.7485 65.7198 46.4508 65.9533 47.1413L66.1373 47.6568C66.2055 47.827 66.2673 47.9985 66.342 48.1673C66.4125 48.3368 66.4898 48.5053 66.569 48.6733C66.6113 48.7573 66.6508 48.8408 66.6955 48.9253C66.7413 49.0118 66.7808 49.088 66.8425 49.1898L66.8375 48.625C66.7533 48.7708 66.665 48.9143 66.5745 49.0563C66.4868 49.2005 66.3895 49.3375 66.2968 49.4788C66.2005 49.6168 66.104 49.7553 66.0035 49.8898C65.9548 49.9585 65.9033 50.0243 65.8533 50.0908L65.7098 50.2783L65.6828 50.3138C65.542 50.4978 65.5768 50.761 65.7608 50.9018C65.9103 51.0168 66.1135 51.0143 66.2598 50.9095Z" fill="#650000"/>
<path d="M64.5293 15.4585C64.3605 15.619 64.237 15.7563 64.1003 15.9068C63.9705 16.0555 63.8405 16.2038 63.7175 16.3563L63.3548 16.8158L63.0093 17.2848C62.8923 17.4405 62.7885 17.6028 62.6783 17.762C62.5705 17.9225 62.458 18.0805 62.3545 18.243L62.0463 18.7325C61.9445 18.8963 61.8403 19.0588 61.7458 19.2263C60.9533 20.5473 60.2638 21.9203 59.642 23.3185C59.4895 23.6693 59.3238 24.0148 59.182 24.3695L58.7478 25.4303C58.6005 25.7828 58.472 26.1423 58.3388 26.4998L57.945 27.5743C57.6955 28.2945 57.4578 29.0193 57.269 29.7593C57.0998 30.5055 56.9528 31.2585 56.902 32.0375C57.3333 31.381 57.6685 30.698 57.9813 30.0088C58.145 29.6668 58.297 29.3215 58.4448 28.9748L58.869 27.9283C59.4618 26.5453 60.05 25.162 60.7115 23.817C61.0323 23.1393 61.3808 22.4775 61.719 21.8105L62.2565 20.828C62.4343 20.5 62.626 20.181 62.8098 19.8568C62.994 19.533 63.1995 19.2238 63.3883 18.9035C63.4845 18.7445 63.5885 18.5918 63.6883 18.4355C63.7903 18.2813 63.8868 18.122 63.9943 17.9725L64.3073 17.516L64.631 17.0708L64.9633 16.638C65.0735 16.5015 65.197 16.3518 65.2943 16.2425L65.315 16.2193C65.516 15.9938 65.496 15.648 65.2705 15.447C65.0565 15.2563 64.7335 15.2658 64.5293 15.4585Z" fill="#650000"/>
<path d="M58.8312 26.54L63.1202 28.7378L62.8652 28.0385C62.8632 28.037 62.8497 28.059 62.8415 28.072L62.8102 28.12L62.7432 28.2195C62.697 28.286 62.6482 28.352 62.5987 28.4173C62.4983 28.5465 62.3905 28.669 62.277 28.7828C62.0493 29.01 61.7945 29.199 61.5053 29.3363C61.2175 29.4788 60.893 29.5555 60.541 29.602C60.1872 29.6563 59.8055 29.6853 59.365 29.7505C59.669 30.0765 60.0645 30.2805 60.499 30.379C60.7163 30.4288 60.944 30.443 61.1735 30.4318C61.4035 30.4253 61.636 30.3843 61.8622 30.3195C62.317 30.1913 62.7405 29.944 63.082 29.6253C63.2548 29.4673 63.4055 29.2895 63.5372 29.1C63.6047 29.0063 63.6645 28.9073 63.7197 28.8048C63.748 28.7538 63.7748 28.7018 63.799 28.647L63.8355 28.5635C63.8487 28.5323 63.8567 28.51 63.8745 28.4633C63.9872 28.1993 63.875 27.8955 63.6238 27.766L63.6195 27.7638L59.3305 25.566C59.0615 25.428 58.7315 25.5345 58.5937 25.8035C58.456 26.0723 58.5622 26.402 58.8312 26.54Z" fill="#650000"/>
<path d="M65.4815 41.9355C65.561 41.9355 65.6418 41.918 65.718 41.8815C65.9905 41.7508 66.1053 41.4235 65.9745 41.151C64.354 37.7758 61.8315 34.747 60.7878 33.565C61.2195 33.2585 61.52 32.8668 61.6838 32.3945C62.1055 31.1803 61.4145 29.9125 61.385 29.859C61.2385 29.5948 60.905 29.4995 60.6408 29.646C60.377 29.7923 60.2815 30.1245 60.4268 30.3885C60.4318 30.3975 60.9113 31.2918 60.648 32.0398C60.5143 32.42 60.2065 32.706 59.7068 32.9148C59.541 32.984 59.4198 33.1303 59.3823 33.306C59.345 33.4818 59.3963 33.6648 59.5195 33.7955C59.5543 33.8323 63.0218 37.5313 64.9875 41.6245C65.082 41.821 65.2778 41.9355 65.4815 41.9355Z" fill="#650000"/>
<path d="M44.524 28.198L45.4177 27.5658C44.8555 26.771 44.836 25.595 44.8817 24.9203C48.5967 25.5138 52.7085 27.0135 52.7517 27.0293L53.129 26.0015C52.9395 25.932 48.4425 24.2913 44.4745 23.7533C44.1865 23.7148 43.9147 23.9098 43.8625 24.1978C43.8445 24.2975 43.4317 26.654 44.524 28.198Z" fill="#650000"/>
<path d="M46.9482 27.882C46.7092 27.7383 46.4727 27.6468 46.2352 27.5708C45.9982 27.4955 45.761 27.443 45.5232 27.4045L44.104 27.161L42.7035 26.9033L41.3342 26.6185L41.3157 26.615C41.0027 26.5558 40.7012 26.7613 40.6417 27.0743C40.6412 27.0773 40.6402 27.083 40.6397 27.086C40.623 27.1855 40.6157 27.2538 40.6072 27.3355C40.5985 27.414 40.5947 27.4918 40.591 27.5693C40.5827 27.7245 40.584 27.879 40.5907 28.0335C40.602 28.3425 40.6455 28.6505 40.7072 28.9565C40.8365 29.5663 41.0725 30.1703 41.4417 30.6993C41.8067 31.2273 42.3012 31.6808 42.8735 31.9508C43.447 32.2165 44.075 32.3095 44.6695 32.2055C44.1535 31.8893 43.695 31.5998 43.308 31.2633C43.1145 31.0955 42.9422 30.9158 42.7812 30.73C42.6237 30.541 42.49 30.3343 42.3737 30.1188C42.139 29.688 41.9877 29.2085 41.8857 28.7118C41.8325 28.4635 41.8007 28.2088 41.7722 27.9533C41.7622 27.8253 41.7502 27.6968 41.743 27.5688L41.7282 27.204L41.0337 27.6713C41.518 27.8353 42.0107 27.9455 42.5042 28.026C42.997 28.1068 43.4915 28.155 43.9852 28.1858C44.4792 28.2125 44.9727 28.2208 45.4652 28.2118C45.7115 28.2083 45.9587 28.1863 46.2065 28.1355C46.4535 28.0848 46.702 28.0135 46.9482 27.882Z" fill="#650000"/>
<path d="M31.4403 35.9783C31.7123 35.9783 31.9483 35.7756 31.9828 35.4986C33.7763 21.1001 37.6285 16.7986 38.5825 15.9358C43.3995 18.2458 47.413 25.1968 47.4538 25.2683C47.6038 25.5308 47.938 25.6221 48.2005 25.4721C48.463 25.3221 48.5543 24.9878 48.4043 24.7253C48.2273 24.4151 44.005 17.0986 38.7213 14.7956C38.555 14.7233 38.364 14.7376 38.2105 14.8343C37.9998 14.9671 33.0235 18.2856 30.8963 35.3631C30.859 35.6631 31.0718 35.9366 31.3718 35.9741C31.395 35.9771 31.4178 35.9783 31.4403 35.9783Z" fill="#650000"/>
<path d="M41.814 27.8528C41.825 27.8528 41.8363 27.8526 41.8473 27.8518C42.1493 27.8336 42.379 27.5743 42.3608 27.2726C41.8475 18.7468 39.0515 15.1096 38.9328 14.9588C38.7455 14.7213 38.4013 14.6806 38.164 14.8678C37.927 15.0548 37.886 15.3981 38.072 15.6356C38.1035 15.6761 40.7783 19.2031 41.268 27.3386C41.2855 27.6288 41.5265 27.8528 41.814 27.8528Z" fill="#650000"/>
<path d="M41.6003 24.2683L37.1853 24.1511H37.1828C36.8818 24.1431 36.6313 24.3806 36.6233 24.6816C36.6228 24.7038 36.6238 24.7288 36.6258 24.7503C36.627 24.8173 36.6305 24.8581 36.634 24.9103C36.6375 24.9596 36.6445 25.0076 36.6503 25.0556C36.662 25.1516 36.6813 25.2456 36.7008 25.3393C36.7405 25.5268 36.796 25.7108 36.865 25.8911C37.0028 26.2513 37.1945 26.5993 37.449 26.9083C37.5778 27.0616 37.7205 27.2058 37.8798 27.3311C38.039 27.4563 38.2178 27.5591 38.403 27.6366C38.7765 27.7893 39.186 27.8213 39.546 27.7143C39.385 27.6113 39.236 27.5261 39.1058 27.4198C38.9755 27.3161 38.8583 27.2116 38.7573 27.0958C38.5523 26.8708 38.3968 26.6238 38.2645 26.3603C38.1348 26.0948 38.033 25.8116 37.9448 25.5196C37.9013 25.3733 37.8618 25.2248 37.8228 25.0761L37.7673 24.8528L37.741 24.7428C37.732 24.7096 37.723 24.6651 37.7155 24.6461L37.156 25.2453L41.571 25.3626C41.8733 25.3706 42.1248 25.1321 42.1328 24.8298C42.141 24.5278 41.9025 24.2763 41.6003 24.2683Z" fill="#650000"/>
<path d="M37.6115 26.7034C37.5695 26.7569 37.5502 26.7851 37.5225 26.8251C37.497 26.8621 37.473 26.8991 37.4497 26.9361C37.403 27.0101 37.3605 27.0856 37.3195 27.1624C37.2387 27.3161 37.1685 27.4771 37.1115 27.6464C36.9982 27.9834 36.9362 28.3614 36.9822 28.7506C37.0265 29.1389 37.187 29.5196 37.415 29.8191C37.6432 30.1199 37.9202 30.3529 38.2057 30.5374L38.2997 29.5689C38.088 29.6561 37.912 29.7391 37.724 29.8296C37.5395 29.9191 37.3577 30.0121 37.178 30.1076C36.8182 30.2986 36.4665 30.5014 36.1207 30.7134C35.4295 31.1379 34.763 31.6001 34.124 32.0981C32.8462 33.0939 31.6747 34.2301 30.6532 35.4929C29.6318 36.7549 28.7605 38.1426 28.0797 39.6196C27.7397 40.3581 27.443 41.1169 27.1987 41.8916L27.1088 42.1776C27.0883 42.2434 27.0623 42.3079 27.0313 42.3699C26.9695 42.4944 26.8863 42.6094 26.7875 42.7096C26.763 42.7349 26.737 42.7586 26.7105 42.7821L26.612 42.8641C26.545 42.9181 26.4768 42.9691 26.4083 43.0164C26.2713 43.1104 26.1313 43.1889 25.9988 43.2411L25.961 43.2569C25.767 43.3381 25.6508 43.5271 25.652 43.7251C25.653 43.8669 25.66 43.9834 25.6685 44.1106C25.6773 44.2351 25.6888 44.3591 25.703 44.4831C25.7315 44.7309 25.771 44.9786 25.8265 45.2269C25.8828 45.4751 25.9538 45.7241 26.057 45.9724C26.1603 46.2191 26.2958 46.4706 26.5078 46.6954C26.6565 46.8531 26.9053 46.8604 27.0628 46.7114C27.2088 46.5736 27.2257 46.3504 27.1095 46.1929L27.0955 46.1739C27.0003 46.0446 26.923 45.8709 26.8685 45.6791C26.813 45.4876 26.777 45.2799 26.7532 45.0679C26.73 44.8554 26.7193 44.6379 26.7185 44.4191C26.718 44.3099 26.72 44.2004 26.7245 44.0911C26.729 43.9849 26.7358 43.8674 26.7455 43.7759L26.399 44.2601H26.3993C26.6342 44.1669 26.8393 44.0479 27.028 43.9189C27.122 43.8541 27.212 43.7864 27.2987 43.7166C27.3427 43.6811 27.3835 43.6474 27.4278 43.6089C27.4755 43.5671 27.5222 43.5239 27.5665 43.4786C27.7447 43.2976 27.8962 43.0889 28.0105 42.8594C28.0677 42.7449 28.116 42.6254 28.1542 42.5026L28.2422 42.2234C28.4727 41.4911 28.753 40.7754 29.0737 40.0786C29.716 38.6854 30.5378 37.3756 31.5043 36.1816C32.4705 34.9869 33.5822 33.9081 34.7967 32.9619C35.404 32.4886 36.038 32.0489 36.6932 31.6466C37.021 31.4456 37.3542 31.2539 37.6922 31.0744C37.8612 30.9846 38.0312 30.8976 38.2022 30.8146C38.37 30.7336 38.552 30.6491 38.7055 30.5859L38.7115 30.5834C38.991 30.4684 39.1245 30.1486 39.0095 29.8691C38.9652 29.7614 38.8907 29.6756 38.7997 29.6171C38.5932 29.4841 38.419 29.3296 38.2922 29.1631C38.1665 28.9956 38.0942 28.8171 38.07 28.6226C38.0465 28.4281 38.0765 28.2129 38.1495 27.9956C38.186 27.8871 38.233 27.7784 38.2885 27.6726C38.3167 27.6201 38.346 27.5679 38.3775 27.5179L38.4252 27.4451L38.4655 27.3891L38.4865 27.3599C38.6625 27.1144 38.6062 26.7729 38.3607 26.5969C38.1217 26.4256 37.7915 26.4751 37.6115 26.7034Z" fill="#650000"/>
<path d="M28.2475 46.126C28.011 46.0708 27.784 46.0483 27.5585 46.0335C27.333 46.018 27.1125 46.0228 26.8915 46.0245C26.671 46.0275 26.4518 46.0358 26.2335 46.0475C26.0158 46.0625 25.7987 46.0783 25.5847 46.111C25.301 46.1548 25.1045 46.4153 25.138 46.6983L25.1393 46.7085C25.149 46.7895 25.1598 46.8455 25.17 46.911C25.1798 46.976 25.1935 47.0343 25.2053 47.0963C25.228 47.2198 25.2572 47.3383 25.2855 47.4575C25.312 47.5778 25.3455 47.6945 25.378 47.8118C25.411 47.9288 25.4413 48.047 25.4803 48.1613C25.5535 48.392 25.627 48.6225 25.7145 48.847L25.8412 49.1855L25.9815 49.5178C26.3585 50.4025 26.8172 51.2463 27.3305 52.053L27.7357 52.644C27.8047 52.7415 27.8685 52.8428 27.9415 52.937L28.16 53.2203C28.307 53.408 28.4485 53.6003 28.6002 53.7838L29.0682 54.3238L29.3025 54.5933L29.5513 54.849L30.049 55.36C30.13 55.4473 30.2187 55.5263 30.3065 55.6063L30.5695 55.8465L31.0955 56.3268C31.2982 56.512 31.6127 56.4975 31.798 56.2948C31.982 56.0933 31.969 55.7813 31.7697 55.5958L31.7482 55.5758L31.2507 55.1125L31.0017 54.881C30.9187 54.804 30.8345 54.728 30.7585 54.6443L30.2895 54.1535L30.0547 53.9085L29.835 53.6505L29.3955 53.1345C29.2533 52.9593 29.1215 52.776 28.9838 52.5975L28.7792 52.328C28.7107 52.2385 28.6517 52.1423 28.5877 52.0498L28.2105 51.4893C27.7345 50.7253 27.3115 49.9298 26.9682 49.1035L26.8405 48.7935L26.7263 48.479C26.647 48.2703 26.5817 48.058 26.5162 47.8458C26.481 47.74 26.455 47.633 26.426 47.5265C26.3973 47.42 26.3678 47.3133 26.3453 47.2068C26.321 47.1003 26.2955 46.9933 26.2773 46.8883C26.268 46.836 26.2555 46.7813 26.2487 46.7315C26.2412 46.6825 26.2315 46.6243 26.228 46.5898L25.7825 47.1873C26.212 47.0913 26.6313 46.943 27.045 46.777C27.2515 46.6918 27.4578 46.6073 27.659 46.5005C27.86 46.3953 28.059 46.2795 28.2475 46.126Z" fill="#650000"/>
<path d="M43.9992 49.932C44.967 49.654 45.9037 49.4523 46.8375 49.2795C47.771 49.114 48.6932 48.974 49.6182 48.8912L50.3125 48.8452C50.428 48.8377 50.5427 48.8277 50.658 48.8225L51.005 48.814L51.696 48.7932C51.927 48.798 52.1572 48.799 52.3872 48.8L52.7317 48.7985C52.8467 48.8012 52.9617 48.8085 53.0767 48.8132C53.3067 48.8247 53.5362 48.8342 53.7655 48.8385C54.2245 48.8612 54.6827 48.905 55.143 48.9155L55.2215 48.9172C55.897 48.9325 56.457 48.3975 56.4722 47.722C56.487 47.0745 55.9917 46.5327 55.356 46.4755C55.1015 46.4532 54.8462 46.436 54.591 46.4227C54.3355 46.4107 54.081 46.3892 53.8245 46.3972C53.5682 46.3995 53.3122 46.407 53.0565 46.4167C52.9285 46.4217 52.8007 46.4242 52.673 46.4312L52.29 46.4665C52.0347 46.492 51.78 46.5175 51.526 46.5465C51.2722 46.5827 51.0195 46.6287 50.7675 46.672L50.39 46.7385C50.2647 46.7647 50.14 46.7962 50.0155 46.8247C49.7662 46.8835 49.5177 46.9417 49.271 47.0077C48.287 47.2855 47.325 47.6375 46.426 48.1162L46.0907 48.2967L45.7642 48.4947C45.547 48.6247 45.3375 48.771 45.1315 48.9185C44.7245 49.2212 44.3295 49.5447 43.9992 49.932Z" fill="#650000"/>
<path d="M37.9792 49.0503C37.7342 48.394 37.3247 47.816 36.8595 47.2998C36.6262 47.0398 36.369 46.804 36.1047 46.5735L35.6972 46.2398C35.5587 46.1315 35.415 46.0298 35.2707 45.9275C35.1285 45.822 34.978 45.7298 34.8275 45.6363L34.6015 45.4955C34.5265 45.4475 34.4505 45.4015 34.3707 45.3623L33.8972 45.115C33.7397 45.0305 33.5735 44.966 33.4097 44.8943C33.2442 44.8275 33.0825 44.7473 32.912 44.694C32.7432 44.6345 32.5725 44.5805 32.402 44.5238C32.233 44.4615 32.0572 44.4268 31.883 44.3838C31.7087 44.3408 31.533 44.304 31.3577 44.265C30.872 44.1565 30.3905 44.4625 30.282 44.9483C30.1735 45.434 30.4795 45.9155 30.9652 46.024C30.9747 46.0263 30.9845 46.0283 30.994 46.03L31.06 46.0423C31.2105 46.07 31.3607 46.1003 31.5122 46.1243C31.6632 46.1515 31.8167 46.169 31.9652 46.2075C32.2637 46.2785 32.5687 46.3325 32.863 46.4265C33.462 46.5833 34.0467 46.8035 34.6237 47.056C34.7652 47.1245 34.9125 47.1845 35.0547 47.254L35.4785 47.4723C35.7557 47.628 36.0327 47.7888 36.3082 47.958C36.8627 48.2948 37.4107 48.6525 37.9792 49.0503Z" fill="#650000"/>
<path d="M41.7625 50.409L39.1768 50.2703C39.0205 50.2618 38.9003 50.4033 38.9308 50.5568C38.9968 50.8878 39.24 51.4193 40.0898 51.7675C40.152 51.793 40.2205 51.8013 40.287 51.7925C40.5885 51.7525 41.4588 51.5705 41.9538 50.7705C42.0485 50.6178 41.9418 50.4188 41.7625 50.409Z" fill="#650000"/>
<path d="M43.714 53.6038C43.3983 53.7956 43.0735 53.9636 42.7405 54.0543C42.5755 54.1031 42.4088 54.1285 42.2475 54.1305C42.0863 54.1328 41.9293 54.115 41.7828 54.0645C41.4888 53.968 41.2388 53.7711 41.0263 53.5328C40.92 53.4131 40.8268 53.2793 40.7393 53.1418C40.696 53.0728 40.6553 53.0018 40.6173 52.93C40.582 52.8608 40.5408 52.779 40.5188 52.724C40.444 52.5375 40.2323 52.4468 40.0458 52.5215C40.0015 52.5393 39.9625 52.5648 39.93 52.5958L39.8108 52.7103C39.7948 52.7453 39.7655 52.8061 39.7385 52.8543C39.7108 52.9053 39.6833 52.9576 39.6523 53.0068C39.5908 53.1061 39.528 53.2048 39.4545 53.2908C39.3115 53.4666 39.1415 53.6075 38.9378 53.662C38.7355 53.7203 38.4915 53.6778 38.262 53.5653C38.0313 53.454 37.8135 53.2873 37.6143 53.1008C37.754 53.3348 37.9118 53.5676 38.1325 53.7576C38.2395 53.8558 38.3675 53.9373 38.509 54.0036C38.651 54.0698 38.8153 54.1055 38.9828 54.105C39.3225 54.1055 39.6433 53.9555 39.8938 53.7653C40.0193 53.6678 40.1353 53.5618 40.2358 53.4443C40.2868 53.3861 40.3348 53.3258 40.3808 53.2633C40.4265 53.1973 40.4663 53.1415 40.5118 53.056L40.512 53.0555L39.804 53.0418C39.8588 53.1523 39.906 53.2303 39.9633 53.3183C40.019 53.403 40.0778 53.4853 40.1395 53.5653C40.262 53.726 40.4043 53.873 40.558 54.009C40.8628 54.2813 41.251 54.4936 41.6728 54.5568C42.0945 54.6231 42.5178 54.5233 42.8555 54.3333C43.1983 54.1455 43.4803 53.8903 43.714 53.6038Z" fill="#650000"/>
<path d="M58.4993 72.3076L59.5935 72.2696C59.5088 69.8339 59.0058 67.5329 58.6665 66.2276C59.0928 66.3251 59.3693 66.2931 59.4173 66.2864C59.6933 66.2469 59.8955 66.0066 59.887 65.7281C59.783 62.2709 57.4643 58.6829 57.3655 58.5319L56.4488 59.1304C56.4695 59.1624 58.4055 62.1624 58.7453 65.1166C58.5705 65.0611 58.3575 64.9709 58.1153 64.8241C57.92 64.7059 57.6718 64.7211 57.4923 64.8629C57.313 65.0046 57.2405 65.2429 57.3105 65.4601C57.3215 65.4926 58.378 68.8111 58.4993 72.3076Z" fill="#650000"/>
<path d="M57.019 71.6845C57.4028 71.921 57.781 72.118 58.1585 72.3148C58.3478 72.4103 58.5365 72.5033 58.7255 72.5945C58.9153 72.6833 59.103 72.7758 59.289 72.8708C59.4753 72.9653 59.6625 73.0558 59.8463 73.1535C60.0305 73.2498 60.2165 73.341 60.398 73.4415C60.7675 73.6288 61.1273 73.8313 61.499 74.013L61.51 74.0183C61.7818 74.151 62.1098 74.0385 62.2425 73.7668C62.3678 73.5103 62.2728 73.2028 62.0333 73.0573C61.6573 72.8305 61.2638 72.634 60.8608 72.462C60.4575 72.2895 60.043 72.1453 59.6248 72.0173C59.2045 71.895 58.7818 71.7823 58.3468 71.719C57.9113 71.6608 57.469 71.6245 57.019 71.6845Z" fill="#650000"/>
<path d="M61.5233 84.0601C63.4433 84.0601 65.7023 82.2478 67.116 79.3868C67.9158 77.7686 68.3118 76.0621 68.2315 74.5818C68.145 72.9881 67.5193 71.8246 66.4693 71.3058C64.379 70.2721 61.386 72.2031 59.6573 75.7011C57.9288 79.1991 58.2128 82.7486 60.3038 83.7821C60.6848 83.9701 61.0958 84.0601 61.5233 84.0601ZM65.242 72.1211C65.5073 72.1211 65.7568 72.1746 65.9843 72.2871C66.6645 72.6231 67.0743 73.4591 67.1383 74.6411C67.2085 75.9366 66.852 77.4496 66.1345 78.9016C64.7265 81.7508 62.2788 83.5358 60.789 82.8006C59.2995 82.0646 59.231 79.0353 60.6388 76.1861C61.832 73.7718 63.7718 72.1211 65.242 72.1211Z" fill="#650000"/>
<path d="M27.9895 82.9808C28.5468 82.9808 29.0548 82.8351 29.489 82.5426C30.3985 81.9301 30.8345 80.7756 30.7163 79.2916C30.607 77.9208 30.0325 76.4018 29.0983 75.0143C28.164 73.6268 26.9728 72.5231 25.7438 71.9063C24.413 71.2388 23.1793 71.2083 22.2698 71.8208C20.4648 73.0363 20.6363 76.3431 22.6603 79.3491C23.5945 80.7366 24.7858 81.8403 26.0148 82.4571C26.7103 82.8058 27.3795 82.9808 27.9895 82.9808ZM23.7743 72.4776C24.2113 72.4776 24.713 72.6138 25.253 72.8846C26.3163 73.4183 27.3595 74.3916 28.1903 75.6253C29.021 76.8593 29.5305 78.1921 29.625 79.3781C29.7103 80.4508 29.445 81.2521 28.8775 81.6341C28.3098 82.0161 27.4678 81.9606 26.506 81.4781C25.4428 80.9443 24.3993 79.9708 23.5685 78.7373C21.9435 76.3236 21.6288 73.5721 22.8813 72.7286C23.1305 72.5611 23.4325 72.4776 23.7743 72.4776Z" fill="#650000"/>
<path d="M59.044 84.1098C60.0328 84.1098 60.8388 83.9278 60.8893 83.9163C61.184 83.8483 61.3678 83.5546 61.2998 83.2601C61.2318 82.9653 60.938 82.7818 60.6435 82.8496C60.6153 82.8561 58.9993 83.2151 57.7195 82.8558C57.2948 82.7366 56.833 82.5161 56.298 82.2606C55.1568 81.7151 53.5935 80.9681 51.1373 80.6406C50.8393 80.6001 50.5623 80.8111 50.5223 81.1108C50.4823 81.4106 50.6928 81.6858 50.9925 81.7258C53.2773 82.0306 54.6905 82.7058 55.8258 83.2486C56.4063 83.5261 56.9078 83.7656 57.4235 83.9103C57.9593 84.0598 58.5268 84.1098 59.044 84.1098Z" fill="#650000"/>
<path d="M55.5612 67.4283C55.1445 68.9273 54.8265 70.3986 54.488 71.8676C54.1642 73.3376 53.7512 74.7861 53.2117 76.1779C52.6715 77.5679 51.9997 78.9021 51.1557 80.0973C51.056 80.2513 50.9375 80.3896 50.8277 80.5351C50.7167 80.6796 50.6067 80.8248 50.484 80.9578C50.3635 81.0928 50.2472 81.2328 50.1235 81.3641L49.7407 81.7458C49.215 82.2356 48.648 82.6751 48.0317 83.0258C47.8777 83.1131 47.7165 83.1863 47.56 83.2686L47.4417 83.3288C47.403 83.3481 47.3607 83.3726 47.3287 83.3811C47.2605 83.4053 47.1927 83.4308 47.1255 83.4576C46.849 83.5371 46.5592 83.5548 46.277 83.5066C45.7137 83.4128 45.1827 83.0481 44.913 82.5438C44.7762 82.2936 44.701 82.0153 44.6877 81.7293L44.6837 81.6216L44.681 81.5676L44.6847 81.5001L44.6992 81.2303C44.709 81.0506 44.7275 80.8733 44.7477 80.6953C44.8332 79.9843 45.0005 79.2823 45.2375 78.6033C45.3555 78.2636 45.4932 77.9306 45.6462 77.6043L45.8905 77.0938L46.137 76.5698C46.4617 75.8693 46.7725 75.1613 47.0627 74.4426C47.35 73.7226 47.6167 72.9913 47.847 72.2416C48.0737 71.4903 48.2655 70.7213 48.3627 69.9081C48.3985 69.6078 48.1842 69.3356 47.8842 69.2996C47.5897 69.2643 47.322 69.4701 47.278 69.7613L47.2762 69.7736C47.1715 70.4741 46.9707 71.1861 46.7385 71.8888C46.5062 72.5933 46.2355 73.2918 45.943 73.9831C45.6532 74.6756 45.3427 75.3621 45.0177 76.0421L44.771 76.5508L44.5152 77.0696C44.3412 77.4328 44.1875 77.8061 44.0535 78.1863C43.7855 78.9471 43.5947 79.7376 43.4955 80.5416C43.4717 80.7423 43.4502 80.9448 43.4387 81.1459L43.4215 81.4476L43.4172 81.5231L43.419 81.6121L43.424 81.7904C43.4475 82.2649 43.581 82.7396 43.8145 83.1571C44.2795 83.9973 45.1342 84.5806 46.0735 84.7336C46.543 84.8111 47.0327 84.7773 47.4882 84.6399L47.82 84.5141C47.8792 84.4933 47.9195 84.4691 47.9662 84.4459L48.1027 84.3758C48.2837 84.2806 48.4695 84.1931 48.645 84.0889C49.3502 83.6728 49.988 83.1618 50.5687 82.6024L50.9895 82.1691C51.1247 82.0208 51.2507 81.8651 51.3815 81.7133C51.515 81.5633 51.6332 81.4028 51.7522 81.2428C51.8697 81.0821 51.9967 80.9271 52.1025 80.7594C53.005 79.4484 53.6705 78.0123 54.2 76.5471C54.4687 75.8146 54.6887 75.0683 54.8912 74.3196C55.0912 73.5698 55.2645 72.8146 55.4027 72.0536C55.5392 71.2923 55.6292 70.5231 55.6637 69.7503C55.695 68.9783 55.6845 68.2008 55.5612 67.4283Z" fill="#650000"/>
<path d="M36.7547 84.4653C37.6575 84.4653 38.205 84.058 38.5172 83.6835C39.8305 82.1095 39.059 78.74 38.8525 78.1418C38.5965 77.399 38.4062 75.4815 38.3545 74.8053C38.3315 74.5038 38.068 74.2788 37.767 74.3013C37.4655 74.3243 37.24 74.5873 37.263 74.8888C37.271 74.9938 37.4635 77.472 37.8175 78.4988C38.1075 79.3395 38.5032 81.9913 37.6765 82.9823C37.5002 83.1935 37.177 83.4608 36.4067 83.3425C33.7205 82.9313 30.55 74.9058 31.8617 66.171C31.9065 65.872 31.7005 65.5933 31.4017 65.5483C31.1027 65.5043 30.824 65.7095 30.779 66.0083C29.5247 74.3598 32.3325 83.826 36.241 84.4245C36.424 84.4525 36.595 84.4653 36.7547 84.4653Z" fill="#650000"/>
<path d="M41.7505 82.6266C43.1908 82.6266 44.159 82.3166 44.224 82.2951C44.511 82.2006 44.6673 81.8911 44.5728 81.6039C44.4785 81.3171 44.1693 81.1609 43.8828 81.2549C43.8573 81.2631 41.5718 81.9811 38.8723 81.0526C38.5858 80.9536 38.2748 81.1066 38.1765 81.3921C38.078 81.6781 38.2303 81.9896 38.516 82.0879C39.7123 82.4994 40.8283 82.6266 41.7505 82.6266Z" fill="#650000"/>
<path d="M27.0425 74.0153C27.118 74.0153 27.1945 73.9998 27.2678 73.9666L31.2783 72.1528C31.5538 72.0281 31.676 71.7041 31.5515 71.4286C31.4268 71.1531 31.103 71.0311 30.8273 71.1553L26.8168 72.9691C26.5413 73.0938 26.419 73.4178 26.5435 73.6933C26.635 73.8956 26.834 74.0153 27.0425 74.0153Z" fill="#650000"/>
<path d="M29.6752 82.9314C30.7287 82.9314 32.384 82.7101 33.735 81.5326C33.963 81.3339 33.9867 80.9881 33.788 80.7604C33.5892 80.5324 33.2432 80.5089 33.0157 80.7074C31.3025 82.2006 28.8515 81.7796 28.827 81.7751C28.5305 81.7206 28.245 81.9184 28.1907 82.2154C28.1365 82.5124 28.3322 82.7971 28.629 82.8519C28.673 82.8601 29.0772 82.9314 29.6752 82.9314Z" fill="#650000"/>
<path d="M59.0505 62.2163L59.056 62.199L59.0678 62.166L59.0915 62.0993L59.1503 61.9573C59.1978 61.8628 59.238 61.7655 59.2935 61.6723C59.396 61.4828 59.5178 61.3003 59.6455 61.122L59.849 60.861C59.9193 60.7758 59.998 60.6968 60.0718 60.6138L60.184 60.4905C60.2233 60.4513 60.2658 60.4143 60.3065 60.376L60.552 60.148C60.725 60.0053 60.9035 59.8678 61.083 59.7323C61.2743 59.611 61.4598 59.4815 61.6548 59.3655L62.258 59.0433L62.8905 58.771C62.9938 58.7213 63.1063 58.6905 63.2153 58.6525L63.5438 58.542C63.6538 58.5065 63.7615 58.4653 63.8733 58.434L64.2118 58.3495C64.4383 58.2963 64.661 58.229 64.8908 58.1865L65.5828 58.0675L66.319 57.9398C66.3828 57.9278 66.4473 57.9188 66.5108 57.9043L66.7005 57.8563L67.0795 57.759L67.451 57.6333L67.6365 57.5698L67.8173 57.4928C67.9375 57.4408 68.0585 57.3905 68.1778 57.3365L68.5263 57.1545C68.9845 56.9015 69.423 56.6083 69.815 56.2623L69.9643 56.1353C70.0133 56.092 70.0583 56.045 70.1055 56C70.1983 55.9085 70.2938 55.819 70.384 55.7253C70.5578 55.5318 70.7355 55.341 70.891 55.133C71.0568 54.9325 71.197 54.7145 71.3443 54.5015C71.4788 54.2808 71.6173 54.0623 71.7335 53.832C71.9753 53.3765 72.1818 52.903 72.3423 52.4148C72.671 51.4408 72.8495 50.4163 72.8373 49.3725C72.829 48.8508 72.772 48.3225 72.6275 47.7968C72.4808 47.2745 72.2493 46.7398 71.8223 46.2845L71.3048 47.1995C71.3553 47.2125 71.435 47.235 71.5028 47.2568C71.5738 47.2788 71.645 47.3028 71.7165 47.3283C71.8595 47.3785 72.0023 47.4343 72.1438 47.4935C72.4265 47.6133 72.7053 47.7468 72.9763 47.8945C73.5183 48.1903 74.0305 48.5413 74.5033 48.9368C75.4503 49.7283 76.2228 50.7155 76.7785 51.8183C77.0503 52.373 77.2718 52.953 77.447 53.5498C77.488 53.6998 77.5228 53.8518 77.5613 54.0025L77.6178 54.2293L77.6608 54.4595L77.746 54.9203L77.8048 55.3868C77.9533 56.6325 77.9268 57.9063 77.7743 59.1693C77.738 59.4693 77.952 59.7418 78.252 59.778C78.3715 59.7925 78.4865 59.7673 78.584 59.7128L78.5903 59.7093C78.643 59.6798 78.7218 59.6393 78.791 59.6055C78.863 59.5705 78.936 59.5368 79.01 59.5043C79.1578 59.439 79.3085 59.3798 79.4605 59.3265C79.6123 59.2725 79.7655 59.2255 79.919 59.1858C80.0725 59.1438 80.2265 59.115 80.3798 59.0883L79.748 58.5628C79.7453 58.6213 79.741 58.7043 79.7353 58.778L79.7173 59.0083C79.704 59.1625 79.6868 59.3178 79.6663 59.473C79.622 59.783 79.582 60.0943 79.52 60.4028C79.4028 61.0205 79.2465 61.6313 79.0585 62.231C78.871 62.8313 78.6445 63.4191 78.3805 63.9888C78.113 64.5571 77.8065 65.1063 77.466 65.6333C76.7803 66.6845 75.9615 67.6453 75.043 68.5173C74.11 69.38 73.0945 70.1345 72.0843 71.0478C73.43 70.8048 74.6365 70.1278 75.7075 69.2951C76.7785 68.4576 77.7273 67.4423 78.4743 66.2943C78.8515 65.7228 79.19 65.126 79.4845 64.5083C79.7763 63.8895 80.0265 63.2515 80.2333 62.6003C80.4383 61.9483 80.5985 61.2825 80.701 60.6063C80.7548 60.2688 80.798 59.929 80.8213 59.5863C80.8335 59.415 80.8423 59.2433 80.847 59.0698C80.8495 58.9833 80.8518 58.8963 80.8503 58.8083C80.8493 58.718 80.8475 58.637 80.8423 58.5315L80.8413 58.5103C80.827 58.2133 80.5748 57.9843 80.2778 57.9985C80.256 57.9995 80.2315 58.0025 80.2105 58.006C80.0185 58.0388 79.8275 58.0755 79.6428 58.1258C79.457 58.1738 79.275 58.2298 79.0965 58.2933C78.9178 58.356 78.742 58.425 78.5693 58.5015C78.4828 58.5398 78.3968 58.5793 78.3113 58.621C78.223 58.6645 78.1455 58.7033 78.0453 58.7593L78.8613 59.299C79.0215 57.9675 79.0528 56.6085 78.8918 55.2575C78.8703 55.0888 78.8513 54.9198 78.8275 54.7513L78.7348 54.248L78.6875 53.9965L78.626 53.7475C78.584 53.5818 78.5455 53.415 78.5003 53.25C78.3078 52.5918 78.062 51.9475 77.758 51.3283C77.1383 50.0958 76.2673 48.9833 75.2073 48.0978C74.678 47.6548 74.1063 47.2635 73.501 46.933C73.1983 46.7678 72.8868 46.6185 72.5678 46.4835C72.4078 46.4165 72.2463 46.3533 72.0808 46.2953C71.9985 46.266 71.915 46.2378 71.8298 46.2115C71.742 46.184 71.6648 46.161 71.5568 46.1338C71.265 46.06 70.9688 46.237 70.8953 46.5288C70.8485 46.714 70.9028 46.9013 71.0233 47.032L71.0393 47.049C71.279 47.305 71.461 47.6793 71.5728 48.088C71.686 48.4983 71.7368 48.9425 71.7433 49.3898C71.7545 50.287 71.5978 51.2023 71.3053 52.0653C71.1633 52.4988 70.9798 52.918 70.7668 53.3193C70.6645 53.5228 70.5425 53.7138 70.425 53.9078C70.2958 54.093 70.1743 54.285 70.0295 54.458C69.8948 54.6395 69.7403 54.803 69.5908 54.9713C69.513 55.052 69.4305 55.1283 69.351 55.2073C69.3105 55.246 69.2718 55.2868 69.2298 55.3238L69.1015 55.4323C68.7663 55.7295 68.392 55.9778 68.0023 56.1935L67.7058 56.3488L67.3983 56.4813L67.2445 56.5475L67.0855 56.6013L66.7678 56.7095L66.4418 56.7925L66.2788 56.8343C66.224 56.8468 66.168 56.8543 66.1128 56.8645L65.4148 56.9858L64.6725 57.1138C64.4255 57.1598 64.182 57.2318 63.9365 57.29L63.5693 57.3825C63.4475 57.4168 63.328 57.4615 63.2073 57.5005L62.8463 57.622C62.7263 57.664 62.604 57.6985 62.488 57.7533L61.784 58.057L61.1035 58.4203C60.8818 58.5518 60.6683 58.6995 60.4508 58.8393C60.243 58.9948 60.0368 59.1543 59.8363 59.3205L59.5483 59.5873C59.5008 59.6323 59.4518 59.6755 59.4055 59.722L59.272 59.8673C59.184 59.9653 59.0923 60.0593 59.0083 60.161L58.764 60.474C58.609 60.6895 58.4615 60.9115 58.3328 61.149C58.265 61.2648 58.21 61.3915 58.15 61.5143C58.094 61.6483 58.0453 61.757 57.993 61.9358C57.908 62.2255 58.0743 62.5293 58.364 62.6143C58.65 62.698 58.9493 62.5375 59.0388 62.255L59.0505 62.2163Z" fill="#650000"/>
<path d="M73.4753 70.2846C73.6158 70.4033 73.7553 70.4783 73.895 70.5443C74.0345 70.6091 74.1713 70.6773 74.3038 70.7453C74.4353 70.8151 74.565 70.8831 74.6828 70.9553C74.7998 71.0268 74.91 71.1001 74.9888 71.1686H74.989L74.7785 70.3751L74.7098 70.4713C74.6858 70.5056 74.6588 70.5403 74.6318 70.5753C74.5785 70.6451 74.5245 70.7148 74.4665 70.7836C74.3555 70.9228 74.2338 71.0563 74.115 71.1916C73.9915 71.3231 73.868 71.4553 73.7403 71.5831C73.6088 71.7073 73.4828 71.8378 73.347 71.9576C73.21 72.0763 73.0778 72.2003 72.9375 72.3151L72.513 72.6551L72.0713 72.9718C71.9258 73.0801 71.7673 73.1686 71.616 73.2683L71.3868 73.4141L71.149 73.5448C70.9895 73.6301 70.8343 73.7243 70.6715 73.8026C70.3433 73.9541 70.02 74.1181 69.6783 74.2371L69.4253 74.3346C69.3413 74.3678 69.2568 74.4006 69.1695 74.4238L68.6503 74.5801C68.4788 74.6386 68.3008 74.6708 68.1243 74.7098L67.5943 74.8256L67.5535 74.8346C67.272 74.8961 67.0935 75.1741 67.155 75.4558C67.2163 75.7363 67.4923 75.9143 67.7728 75.8553L68.3533 75.7328C68.5465 75.6911 68.7415 75.6556 68.9298 75.5936L69.499 75.4256C69.5948 75.4001 69.6873 75.3651 69.7795 75.3293L70.0573 75.2246C70.432 75.0951 70.7868 74.9193 71.1463 74.7546C71.3248 74.6696 71.495 74.5686 71.6695 74.4761L71.9298 74.3341L72.1808 74.1768C72.3465 74.0696 72.5193 73.9726 72.6788 73.8561L73.1618 73.5133L73.626 73.1458C73.7795 73.0216 73.9248 72.8878 74.0743 72.7591C74.2228 72.6291 74.3615 72.4881 74.5055 72.3528C74.646 72.2138 74.782 72.0698 74.9183 71.9261C75.0505 71.7778 75.1843 71.6318 75.3105 71.4758C75.375 71.4001 75.4375 71.3206 75.4995 71.2403C75.5308 71.2006 75.5618 71.1606 75.5925 71.1178C75.6235 71.0756 75.653 71.0361 75.689 70.9833L75.6983 70.9698C75.8628 70.7281 75.8 70.3991 75.5585 70.2346C75.5338 70.2176 75.505 70.2021 75.4788 70.1898L75.4783 70.1896C75.2858 70.1253 75.1098 70.1001 74.938 70.0853C74.7665 70.0711 74.6013 70.0736 74.4378 70.0823C74.2745 70.0896 74.1135 70.1096 73.9545 70.1308C73.7953 70.1538 73.6353 70.1921 73.4753 70.2846Z" fill="#650000"/>
<defs>
<linearGradient id="paint0_linear_1039_17843" x1="41.8828" y1="12.8046" x2="51.8364" y2="66.6445" gradientUnits="userSpaceOnUse">
<stop stop-color="#FF7F00"/>
<stop offset="0.2635" stop-color="#FE7C03"/>
<stop offset="0.4689" stop-color="#FB720C"/>
<stop offset="0.6547" stop-color="#F5621A"/>
<stop offset="0.8278" stop-color="#ED4A2F"/>
<stop offset="0.9925" stop-color="#E32D4A"/>
<stop offset="1" stop-color="#E22B4B"/>
</linearGradient>
<linearGradient id="paint1_linear_1039_17843" x1="31.7193" y1="63.6074" x2="36.3442" y2="81.973" gradientUnits="userSpaceOnUse">
<stop stop-color="#FF7F00"/>
<stop offset="0.2635" stop-color="#FE7C03"/>
<stop offset="0.4689" stop-color="#FB720C"/>
<stop offset="0.6547" stop-color="#F5621A"/>
<stop offset="0.8278" stop-color="#ED4A2F"/>
<stop offset="0.9925" stop-color="#E32D4A"/>
<stop offset="1" stop-color="#E22B4B"/>
</linearGradient>
<linearGradient id="paint2_linear_1039_17843" x1="52.3846" y1="59.3988" x2="53.0548" y2="82.7914" gradientUnits="userSpaceOnUse">
<stop stop-color="#FF7F00"/>
<stop offset="0.2635" stop-color="#FE7C03"/>
<stop offset="0.4689" stop-color="#FB720C"/>
<stop offset="0.6547" stop-color="#F5621A"/>
<stop offset="0.8278" stop-color="#ED4A2F"/>
<stop offset="0.9925" stop-color="#E32D4A"/>
<stop offset="1" stop-color="#E22B4B"/>
</linearGradient>
<linearGradient id="paint3_linear_1039_17843" x1="27.9658" y1="68.8696" x2="30.848" y2="80.8675" gradientUnits="userSpaceOnUse">
<stop stop-color="#FF7F00"/>
<stop offset="0.2635" stop-color="#FE7C03"/>
<stop offset="0.4689" stop-color="#FB720C"/>
<stop offset="0.6547" stop-color="#F5621A"/>
<stop offset="0.8278" stop-color="#ED4A2F"/>
<stop offset="0.9925" stop-color="#E32D4A"/>
<stop offset="1" stop-color="#E22B4B"/>
</linearGradient>
<linearGradient id="paint4_linear_1039_17843" x1="79.5995" y1="51.8692" x2="58.0166" y2="75.4628" gradientUnits="userSpaceOnUse">
<stop stop-color="#FF7F00"/>
<stop offset="0.1961" stop-color="#FD7A05"/>
<stop offset="0.431" stop-color="#F86B12"/>
<stop offset="0.6859" stop-color="#F05327"/>
<stop offset="0.9532" stop-color="#E43245"/>
<stop offset="1" stop-color="#E22B4B"/>
</linearGradient>
</defs>
</svg>
