<svg width="4000" height="4000" viewBox="0 0 4000 4000" fill="none" xmlns="http://www.w3.org/2000/svg">
<path opacity="0.3" d="M1326.77 3118.09C1326.77 2942.45 1726.02 2800.07 2218.51 2800.07C2711 2800.07 3110.25 2942.45 3110.25 3118.09C3110.25 3135.58 3106.23 3152.74 3098.61 3169.46C3099.43 3172.79 3100.21 3176.13 3100.88 3179.51C3137.88 3365.23 2932.11 3562.75 2641.27 3620.7C2421.37 3664.51 2215.8 3615.99 2112.61 3509.44C2063.72 3458.95 1998.3 3427.47 1928.54 3418.92C1578.4 3376 1326.77 3257.53 1326.77 3118.09Z" fill="#66142E"/>
<path d="M1304.57 999.822V1007.52H1375.11L1410.05 1015.72C1441.08 870.232 1478.69 792.052 1482.15 785.012C1480.48 787.802 1471.27 801.422 1459.44 777.922V773.732C1461.56 758.662 1465.63 744.262 1471.61 730.482C1499.35 666.302 1567.77 616.582 1667.05 583.992C1667.05 583.992 1667.11 583.992 1667.16 583.932C1779.5 547.042 1931.4 531.972 2108.76 542.352C2205.58 547.992 2281.54 577.682 2340.97 618.302C2356.54 628.902 2370.94 640.292 2384.33 652.172C2416.2 680.632 2442.09 712.002 2462.96 743.132C2526.75 838.392 2543.77 931.532 2543.77 931.532L2548.23 929.802L2598.07 932.532L2689.76 937.552L2743.56 940.512C2743.56 940.512 2665.15 490.992 2169.48 458.902C2169.37 458.902 2169.31 458.842 2169.2 458.842C2158.82 458.172 2148.22 457.672 2137.45 457.392C1613.07 443.102 1381.08 568.722 1304.57 999.822Z" fill="#FF1A61"/>
<path d="M1138.32 1530.94C1138.32 1678.72 1179.95 1765.1 1218.9 1813.6C1252.33 1855.18 1283.75 1868.85 1285.37 1869.57C1286.88 1844.23 1320.42 1841.95 1320.42 1841.95C1306.02 1817.79 1305.41 1797.92 1309.98 1782.74C1143.29 1466.65 1360.04 1118.14 1372.76 1098.27L1349.15 1096.54L1259.69 1090.07C1259.7 1090.06 1138.32 1253.13 1138.32 1530.94Z" fill="#FF1A61"/>
<path d="M2523.44 1207.87C2591.02 1134.32 2567.14 1037.05 2567.14 1037.05L2721 1042.97L2763.36 1044.59C2785.24 1158.44 2838.87 1304.71 2838.87 1304.71C2901.82 1478.21 2889.15 1617 2867 1703.56C2857.79 1739.61 2842.89 1773.88 2822.8 1804.68C2822.8 1804.68 2822.8 1804.68 2822.8 1804.74C2803.66 1834.04 2779.83 1860.21 2751.76 1881.86C2703.54 1918.97 2657.67 1931.92 2616.21 1925.84C2586.02 1921.49 2558.11 1906.98 2533.34 1884.43C2467.15 1824.21 2423.01 1706.29 2415.53 1568.4C2399.38 1270.66 2523.44 1207.87 2523.44 1207.87ZM2662.79 1830.29C2751.13 1830.29 2822.79 1704.78 2822.79 1549.97C2822.79 1545.67 2822.73 1541.38 2822.62 1537.13C2822.56 1535.07 2822.45 1533 2822.4 1530.94C2821.23 1499.19 2816.99 1468.83 2810.23 1440.87C2810.23 1440.87 2810.23 1440.87 2810.23 1440.81C2785.9 1340.25 2729.03 1269.65 2662.79 1269.65C2574.45 1269.65 2502.79 1395.16 2502.79 1549.97C2502.79 1704.78 2574.45 1830.29 2662.79 1830.29Z" fill="#FF1A61"/>
<path d="M2548.22 929.842L2562 1036.82L2567.13 1037.04L2720.99 1042.96L2763.35 1044.58L2776.07 1045.08C2776.07 1045.08 2784.78 1008.97 2767.42 958.412C2763.9 948.202 2754.42 941.112 2743.53 940.552L2689.73 937.592L2548.22 929.842Z" fill="#AFBBC6"/>
<path d="M2502.79 947.762L2513.57 1049.38L2528.97 1045.36L2562.01 1036.82L2548.22 929.842L2543.76 931.572L2523.44 939.612L2502.79 947.762Z" fill="#AFBBC6"/>
<path d="M1259.7 1090.06L1349.16 1096.53L1363.95 1007.52H1271.09C1271.08 1007.53 1239.39 1036.82 1259.7 1090.06Z" fill="#AFBBC6"/>
<path d="M1522.94 735.362C1564.4 728.442 1598.28 746.972 1621.77 767.232C1867.54 595.012 2365.34 684.692 2376.05 681.062C2386.82 677.492 2384.25 652.262 2384.25 652.262L2384.31 652.202C2370.92 640.312 2356.52 628.932 2340.95 618.332C2340.95 618.332 1748.62 515.482 1522.94 735.362Z" fill="#616184"/>
<path d="M1459.43 773.751V777.941C1471.26 801.431 1480.47 787.821 1482.14 785.031L1482.42 784.531C1494.03 766.561 1507.59 750.261 1522.88 735.361H1522.94C1748.62 515.481 2340.96 618.331 2340.96 618.331C2281.53 577.701 2205.57 548.011 2108.75 542.381C1741.03 520.841 1482.76 608.731 1459.43 773.751Z" fill="#616184"/>
<path d="M1349.16 1096.54L1372.77 1098.27L1394.37 1099.83C1399.22 1069.64 1404.53 1041.62 1410.05 1015.73L1375.11 1007.53H1363.95L1349.16 1096.54Z" fill="#AFBBC6"/>
<path d="M1309.98 1782.74C1313.16 1772.19 1318.8 1763.82 1324.15 1757.85C1332.58 1748.42 1337.15 1736.2 1337.99 1723.58C1342.12 1659.85 1354.06 1604.54 1371.36 1556.49C1362.54 1371.99 1374.99 1219.31 1394.35 1099.82L1372.75 1098.26C1360.04 1118.14 1143.29 1466.65 1309.98 1782.74Z" fill="#616184"/>
<path d="M2254.06 1576.76C2268.4 1937.94 2478.91 2016.85 2478.91 2016.85L2480.25 2018.25L2547.27 1952.79C2566.75 1933.76 2591.92 1926.73 2615.58 1929.69L2616.19 1925.84C2505.36 1909.77 2425.78 1757.97 2415.51 1568.4C2399.38 1270.67 2523.44 1207.89 2523.44 1207.89C2591.02 1134.34 2567.14 1037.07 2567.14 1037.07L2562.01 1036.85L2528.97 1045.39C2529.19 1050.58 2529.81 1064.59 2530.37 1077.76C2530.98 1092.88 2520.38 1106.11 2505.48 1108.73C2474 1114.25 2439.96 1126.64 2407.43 1148.63C2369.2 1174.36 2332.98 1213.31 2305.25 1269.67C2270.14 1341.08 2248.65 1440.53 2254.06 1576.76Z" fill="#616184"/>
<path d="M2615.58 1929.68C2648.84 1933.81 2679.09 1957.53 2686.29 1995.03C2687.18 1999.72 2687.96 2004.57 2688.58 2009.6H2688.64C2816.66 1942.24 2822.69 1807.97 2822.8 1804.73C2803.66 1834.03 2779.83 1860.2 2751.76 1881.85C2703.54 1918.96 2657.67 1931.91 2616.21 1925.83L2615.58 1929.68Z" fill="#616184"/>
<path d="M1371.37 1556.5C1469.7 1283.38 1741.2 1246.44 1741.2 1246.44C1730.99 1206.26 1736.07 1165.24 1743.21 1135.22C1749.74 1107.71 1758.05 1089.46 1758.05 1089.46L1853.26 1134.22L1658.55 809.652C1658.55 809.652 1645.38 787.552 1621.77 767.242C1598.28 746.982 1564.4 728.452 1522.94 735.372H1522.88C1522.04 736.152 1521.26 736.932 1520.48 737.772C1506.14 752.002 1493.41 767.522 1482.42 784.542L1482.14 785.042C1478.68 792.072 1441.07 870.262 1410.04 1015.75C1404.52 1041.64 1399.21 1069.66 1394.36 1099.85C1393.63 1104.43 1392.91 1109 1392.18 1113.69C1374.1 1231.03 1362.89 1379.03 1371.37 1556.5Z" fill="url(#paint0_linear_1525_19840)"/>
<path d="M1299.77 1907.63C1299.77 1907.63 1373.83 2034.2 1519.76 2111.1C1537.51 2101.56 1559.66 2095.59 1587.34 2095.03C1616.58 2094.47 1645.6 2100.72 1672.78 2111.6C1766.81 2149.16 1807.55 2202.62 1807.55 2202.62C1880.77 2108.25 1997.35 2093.96 1997.35 2093.96C2148.2 2068.79 2212.15 2119.69 2237.49 2181.07L2245.08 2176.49C2245.08 2176.49 2303.12 2162.71 2361.72 2134.02L2480.25 2018.22L2478.91 2016.82C2478.91 2016.82 2335.49 1963.08 2277.39 1741.19C2265.95 1697.66 2257.8 1647.6 2254.73 1590.23C2254.45 1585.77 2254.23 1581.3 2254.06 1576.72C2248.65 1440.5 2270.13 1341.05 2305.23 1269.62C2281.68 1263.82 2272.81 1258.63 2272.81 1258.63C2283.36 1220.63 2294.13 1185.8 2305.01 1153.99C2326.16 1091.93 2347.65 1041.26 2367.62 1000.3C2368.18 999.183 2368.68 998.123 2369.24 997.013C2421.25 891.143 2462.88 852.083 2462.88 852.083C2495.92 880.763 2523.43 939.583 2523.43 939.583L2543.74 931.543C2543.74 931.543 2526.72 838.403 2462.93 743.143H2462.87C2462.87 743.143 2430.84 710.943 2391.77 764.743L2169.44 1111.24L2137.41 1161.19L2097.56 1139.48L1938.34 1052.64C1938.34 1052.64 1889.9 1087.63 1900.67 1154.88L1900.06 1156.22L1853.24 1134.18L1758.03 1089.42C1758.03 1089.42 1721.64 1169.5 1741.18 1246.4C1741.18 1246.4 1718.97 1249.41 1684.93 1260.18C1600.05 1286.86 1441.56 1361.47 1371.35 1556.46C1354.05 1604.51 1342.11 1659.81 1337.98 1723.55C1337.98 1723.88 1337.92 1724.28 1337.87 1724.61C1337.76 1726.28 1337.54 1727.96 1337.26 1729.63C1336.37 1735.27 1334.69 1740.74 1332.13 1745.81C1332.13 1745.87 1332.13 1745.92 1332.13 1745.92H1332.07C1330.06 1750.22 1327.38 1754.18 1324.15 1757.81C1318.79 1763.78 1313.16 1772.15 1309.98 1782.7C1305.4 1797.88 1306.02 1817.75 1320.42 1841.91C1320.42 1841.91 1303.34 1843.08 1293.02 1853.02C1288.89 1856.93 1285.82 1862.28 1285.37 1869.54C1284.81 1878.84 1288.55 1891.17 1299.77 1907.63Z" fill="url(#paint1_linear_1525_19840)"/>
<path d="M1214.22 1969.47C1229.68 2067.36 1278.12 2212.23 1407.31 2406.99L1405.02 2504.76C1342.96 2559.79 1340.73 2608.11 1340.68 2610.12C1340.68 2610.18 1340.68 2610.18 1340.68 2610.18C1306.58 2616.88 1286.71 2640.15 1275.44 2660.85C1267.13 2676.2 1262.38 2693.16 1260.32 2710.46C1253.23 2768.61 1254.29 2815.82 1260.82 2854.16C1279.91 2966 1345.7 3002.1 1393.36 3013.32C1399.83 3014.88 1406.42 3015.89 1413 3016.33C1431.64 3017.73 1450.5 3015.05 1468.14 3008.57C1690.31 2927.09 2073.48 3017.67 2073.48 3017.67C2012.71 2906.67 2045.07 2784.23 2100.71 2723.18C2100.77 2723.18 2100.77 2723.12 2100.82 2723.12C2123.87 2697.84 2150.88 2683.11 2176.94 2684.11C2198.7 2684.95 2217.01 2690.19 2232.36 2697.89C2248.43 2705.87 2261.21 2716.42 2271.2 2727.24C2293.58 2751.35 2302.17 2776.57 2302.17 2776.57C2363.28 2722.88 2424.67 2689.34 2480.97 2677.85C2482.14 2677.63 2483.31 2677.35 2484.49 2677.12V2677.06L2483.65 2673.32C2463.95 2502.94 2510.55 2431.17 2510.55 2431.17C2565.74 2362.08 2605.37 2300.64 2633.16 2246.23C2685.62 2143.66 2695.89 2066.14 2688.58 2009.55C2687.97 2004.53 2687.18 1999.67 2686.29 1994.98C2684.95 1988 2682.77 1981.47 2679.98 1975.5C2667.7 1949.33 2642.65 1932.98 2615.58 1929.63C2591.92 1926.67 2566.75 1933.7 2547.27 1952.73L2480.25 2018.19L2468.53 2029.63L2361.72 2133.99C2303.12 2162.67 2245.08 2176.46 2245.08 2176.46L2237.49 2181.04C2266.34 2250.91 2245.08 2334.29 2245.08 2334.29C2245.08 2334.29 2212.21 2320.56 2193.07 2289.48C2193.07 2289.48 2201.44 2485.58 2053.16 2595.64C2053.16 2595.64 2035.25 2583.64 2025.65 2535.82C2025.65 2535.82 1968.28 2702.07 1766.15 2786.95C1766.15 2786.95 1584.39 2613.56 1595.16 2485.59C1595.16 2485.59 1583.22 2516.67 1564.08 2531.02C1564.08 2531.02 1482.83 2427.61 1513.3 2276.93C1513.3 2276.93 1498.9 2302.04 1454.03 2300.26C1454.03 2300.26 1445.1 2247.41 1458.83 2195.34C1467.42 2162.47 1485.06 2129.82 1519.77 2111.07C1448.56 2073.57 1394.48 2024.23 1357.76 1983.5C1319.2 1940.81 1299.78 1907.6 1299.78 1907.6C1288.56 1891.14 1284.82 1878.8 1285.38 1869.54C1283.76 1868.81 1252.34 1855.14 1218.91 1813.57C1218.9 1813.6 1197.59 1864.38 1214.22 1969.47Z" fill="url(#paint2_linear_1525_19840)"/>
<path d="M2045.96 3148.16C2045.96 3148.16 2370.92 3423.9 2693.99 3249.73C2773.91 3206.65 2853.71 3136.05 2928.43 3026.89H2928.49C2928.49 3026.89 2932.12 3091.9 2978.77 3111.05C2978.77 3111.05 3174.26 2615.99 2734.78 2488.64C2734.78 2488.64 2757.21 2455.43 2761.68 2423.12C2761.68 2423.12 2677.02 2389.86 2553.8 2418.88C2539.9 2422.12 2525.45 2426.19 2510.55 2431.21C2510.55 2431.21 2463.95 2502.98 2483.65 2673.36L2484.49 2677.1V2677.16C2483.32 2677.38 2482.15 2677.66 2480.97 2677.89C2424.66 2689.39 2363.27 2722.93 2302.17 2776.61C2292.68 2784.98 2283.2 2793.8 2273.71 2803.06C2210.87 2864.84 2149.09 2947.82 2094.07 3049.89C2077.32 3080.86 2061.25 3113.67 2045.96 3148.16Z" fill="url(#paint3_linear_1525_19840)"/>
<path d="M2662.79 1830.29C2574.42 1830.29 2502.79 1704.79 2502.79 1549.97C2502.79 1395.16 2574.42 1269.65 2662.79 1269.65C2751.16 1269.65 2822.79 1395.16 2822.79 1549.97C2822.79 1704.79 2751.16 1830.29 2662.79 1830.29Z" fill="#66142E"/>
<path d="M2534.02 2169.21L2587.04 2143.27C2590.96 2141.35 2595.46 2144.52 2594.97 2148.86L2592.13 2174.01C2590.95 2184.44 2603.05 2191.03 2611.17 2184.37L2624.12 2173.76C2627.73 2170.8 2633.16 2173.37 2633.16 2178.04V2246.27C2685.62 2143.7 2695.89 2066.18 2688.58 2009.59C2687.97 2004.57 2687.18 1999.71 2686.29 1995.02C2679.09 1957.52 2648.84 1933.8 2615.58 1929.67C2591.92 1926.71 2566.75 1933.74 2547.27 1952.77L2480.25 2018.23L2468.53 2029.67L2450.61 2118.86C2448.83 2127.71 2457.33 2135.16 2465.87 2132.23L2520.4 2113.56C2524.62 2112.12 2528.72 2116 2527.52 2120.29L2517.62 2155.53C2514.88 2165.27 2524.94 2173.65 2534.02 2169.21Z" fill="#8E3410"/>
<path d="M1214.22 1969.47L1277.59 2055.18C1282.75 2062.16 1293.8 2058.96 1294.44 2050.31L1295.66 2033.86C1296.33 2024.85 1307.27 2020.79 1313.66 2027.17L1334.17 2047.68C1339.66 2053.17 1349.06 2049.97 1350.06 2042.28L1357.75 1983.54C1319.19 1940.85 1299.77 1907.64 1299.77 1907.64C1288.55 1891.18 1284.81 1878.84 1285.37 1869.58C1283.75 1868.85 1252.33 1855.18 1218.9 1813.61C1218.9 1813.6 1197.59 1864.38 1214.22 1969.47Z" fill="#8E3410"/>
<path d="M2187.11 1159.41L2218.99 1139.68C2224.76 1136.11 2232.18 1140.43 2231.93 1147.21L2230.73 1179.17C2230.46 1186.27 2238.05 1190.94 2244.27 1187.51L2305.02 1154.01C2326.17 1091.95 2347.66 1041.28 2367.63 1000.32C2420.42 892.002 2462.89 852.102 2462.89 852.102C2495.93 880.782 2523.44 939.602 2523.44 939.602L2543.75 931.562C2543.75 931.562 2526.73 838.422 2462.94 743.162H2462.88C2462.88 743.162 2430.85 710.962 2391.78 764.762L2169.45 1111.26L2173.19 1152.46C2173.82 1159.23 2181.33 1162.99 2187.11 1159.41Z" fill="#8E3410"/>
<path d="M1392.18 1113.67L1428.23 1241.98C1431.81 1254.71 1449.8 1254.85 1453.57 1242.17L1471.27 1182.68C1475.12 1169.74 1492.96 1168.54 1498.52 1180.84L1505.04 1195.28C1510.62 1207.64 1528.78 1205.6 1531.47 1192.3L1547.48 1113.14C1550.17 1099.84 1567.98 1097.11 1574.53 1108.99L1604.61 1163.56C1610 1173.34 1624.34 1172.41 1628.43 1162.02L1662.3 1076.01C1666.31 1065.84 1679.67 1063.53 1686.85 1071.78L1737.56 1130.02L1741.19 1134.21L1743.2 1135.21C1749.73 1107.7 1758.04 1089.45 1758.04 1089.45L1853.25 1134.21L1658.54 809.642C1658.54 809.642 1645.37 787.542 1621.76 767.232C1598.27 746.972 1564.39 728.442 1522.93 735.362H1522.87C1507.58 750.262 1494.02 766.562 1482.41 784.532L1482.13 785.032C1478.67 792.062 1441.06 870.252 1410.03 1015.74C1404.51 1041.63 1399.2 1069.65 1394.35 1099.84C1393.64 1104.41 1392.91 1108.98 1392.18 1113.67Z" fill="#8E3410"/>
<path d="M2272.81 1258.66C2272.81 1258.66 2281.68 1263.85 2305.23 1269.65C2332.97 1213.29 2369.18 1174.33 2407.41 1148.61C2442.35 1091.69 2450.77 1032.64 2447.2 1014.12C2443.57 995.593 2367.62 1000.34 2367.62 1000.34C2337.38 1062.27 2303.79 1146.6 2272.81 1258.66Z" fill="#FFDAB6"/>
<path d="M2447.21 1014.11C2450.78 1032.64 2442.35 1091.68 2407.42 1148.6C2439.96 1126.61 2474 1114.22 2505.47 1108.7C2520.37 1106.08 2530.97 1092.85 2530.36 1077.73C2529.8 1064.56 2529.19 1050.55 2528.96 1045.36L2513.56 1049.38L2507.92 996.252L2502.79 947.752L2523.44 939.602C2523.44 939.602 2495.93 880.782 2462.89 852.102C2462.89 852.102 2421.26 891.162 2369.25 997.032C2368.69 998.152 2368.19 999.212 2367.63 1000.32C2367.63 1000.33 2443.58 995.582 2447.21 1014.11Z" fill="#FFDAB6"/>
<path d="M1454.02 2300.29C1498.89 2302.08 1513.29 2276.96 1513.29 2276.96C1482.82 2427.64 1564.07 2531.05 1564.07 2531.05C1583.21 2516.71 1595.15 2485.62 1595.15 2485.62C1584.38 2613.58 1766.14 2786.98 1766.14 2786.98C1968.27 2702.1 2025.64 2535.85 2025.64 2535.85C2035.24 2583.68 2053.15 2595.67 2053.15 2595.67C2201.43 2485.62 2193.06 2289.51 2193.06 2289.51C2212.2 2320.59 2245.07 2334.32 2245.07 2334.32V2334.26C2245.74 2331.53 2265.83 2249.77 2237.48 2181.07C2212.14 2119.68 2148.19 2068.79 1997.34 2093.96C1997.34 2093.96 1880.87 2108.25 1807.6 2202.5C1807.54 2202.56 1807.54 2202.61 1807.54 2202.61C1807.54 2202.61 1807.48 2202.61 1807.48 2202.55C1806.59 2201.38 1791.8 2182.52 1760.49 2159.63C1739.17 2144 1710.15 2126.54 1672.76 2111.58C1645.58 2100.7 1616.56 2094.45 1587.32 2095.01C1559.64 2095.57 1537.48 2101.54 1519.74 2111.08C1430.24 2159.54 1454.02 2300.29 1454.02 2300.29Z" fill="#FFDAB6"/>
<path d="M2073.47 3017.68C2079.44 3028.56 2086.25 3039.28 2094.06 3049.88C2105.44 3028.73 2117.11 3008.42 2129.11 2988.94C2153.89 2948.37 2179.78 2911.42 2206.23 2878.28C2212.54 2870.36 2218.9 2862.65 2225.26 2855.18C2240.22 2837.71 2255.28 2821.42 2270.41 2806.41C2280.96 2795.86 2291.56 2785.93 2302.16 2776.61C2302.16 2776.61 2284.19 2723.76 2232.35 2697.92C2217 2690.22 2198.7 2684.97 2176.93 2684.14C2087.98 2680.78 1987.47 2860.64 2073.47 3017.68Z" fill="#FFDAB6"/>
<path d="M1299.77 1907.63C1299.77 1907.63 1373.83 2034.2 1519.76 2111.1C1537.51 2101.56 1559.66 2095.59 1587.34 2095.03C1616.58 2094.47 1645.6 2100.72 1672.78 2111.6C1766.81 2149.16 1807.55 2202.62 1807.55 2202.62C1880.77 2108.25 1997.35 2093.96 1997.35 2093.96C2148.2 2068.79 2212.15 2119.69 2237.49 2181.07L2245.08 2176.49C2245.08 2176.49 2303.12 2162.71 2361.72 2134.02L2480.25 2018.22L2478.91 2016.82C2478.91 2016.82 2335.49 1963.08 2277.39 1741.19C2195.86 1763.51 1933.9 1840.86 1809.45 1945.05C1809.45 1945.05 1563.12 1729.3 1394.36 1708.04C1374.38 1705.53 1355.35 1713.51 1337.27 1729.64C1335.6 1740.08 1331.24 1749.9 1324.16 1757.82C1318.8 1763.79 1313.17 1772.16 1309.99 1782.71C1305.41 1797.89 1306.03 1817.76 1320.43 1841.92C1320.43 1841.92 1286.89 1844.21 1285.38 1869.54C1284.81 1878.84 1288.55 1891.17 1299.77 1907.63Z" fill="#FFDAB6"/>
<path d="M1393.36 3013.33C1399.83 3014.89 1406.42 3015.9 1413 3016.34C1528.35 2972.03 1534.38 2848.19 1506.03 2745.12C1461.22 2581.89 1340.67 2610.18 1340.67 2610.18C1306.57 2616.88 1286.7 2640.15 1275.43 2660.85C1267.12 2676.2 1262.37 2693.16 1260.31 2710.46C1232.63 2938.33 1329.35 2998.26 1393.36 3013.33Z" fill="#FFDAB6"/>
<path d="M2045.96 3148.16C2045.96 3148.16 2370.92 3423.9 2693.99 3249.73C2718.6 3214.89 2743.21 3170.81 2757.41 3120.3C2763.32 3099.28 2746.51 3078.92 2724.77 3080.93C2715.8 3081.76 2706.14 3082.91 2696.59 3084.51C2683.61 3086.68 2674.3 3072.4 2681.71 3061.53C2695.37 3041.51 2712.46 3014.63 2726.39 2986.98C2738.66 2962.62 2715.7 2935.42 2689.65 2943.5C2665.15 2951.1 2636.79 2961.55 2612.15 2974.95C2606.09 2978.25 2599.78 2970.97 2603.79 2965.36C2626.34 2933.84 2652.96 2893.46 2672.88 2850.45C2687.97 2817.87 2654.14 2784.38 2621.73 2799.84C2588.53 2815.68 2548.81 2840.19 2511.33 2877.47C2504.53 2884.23 2493.2 2877.74 2495.77 2868.51C2498.63 2858.27 2501.57 2846.46 2504.21 2833.41C2509.47 2807.42 2481.42 2787.3 2458.44 2800.52C2428.97 2817.48 2393.52 2842.03 2368.63 2872.81C2366.2 2875.81 2361.43 2873.46 2362.36 2869.71C2364.98 2859.1 2368.34 2844.19 2371.75 2825.34C2375.47 2804.78 2358.16 2786.59 2337.43 2789.17C2320.13 2791.32 2298.24 2795.4 2273.71 2803.05C2210.87 2864.83 2149.09 2947.81 2094.07 3049.88C2077.32 3080.86 2061.25 3113.67 2045.96 3148.16Z" fill="#FFDAB6"/>
<path d="M2013.76 1719.44C2045.22 1702.14 2092.63 1678.6 2137.14 1666.47C2151.27 1662.62 2157.3 1645.84 2148.86 1633.88C2127.52 1603.61 2080.28 1574.16 1999.11 1703.82C1993.06 1713.48 2003.77 1724.93 2013.76 1719.44Z" fill="#FFDAB6"/>
<path d="M1663.15 1730.24C1640.79 1709.66 1606.57 1680.72 1572.43 1661.75C1561.59 1655.73 1560.03 1640.72 1569.39 1632.59C1593.05 1612.03 1637.84 1597.36 1678.35 1720.36C1681.36 1729.53 1670.25 1736.77 1663.15 1730.24Z" fill="#FFDAB6"/>
<path d="M1377.42 2916.98C1346.22 2916.98 1320.93 2891.69 1320.93 2860.49C1320.93 2829.29 1346.22 2804 1377.42 2804C1408.62 2804 1433.91 2829.29 1433.91 2860.49C1433.91 2891.69 1408.62 2916.98 1377.42 2916.98Z" fill="#FF80B4"/>
<path d="M1445.39 2806.61C1427.05 2806.61 1412.18 2791.74 1412.18 2773.4C1412.18 2755.06 1427.05 2740.19 1445.39 2740.19C1463.73 2740.19 1478.6 2755.06 1478.6 2773.4C1478.6 2791.74 1463.73 2806.61 1445.39 2806.61Z" fill="#FF80B4"/>
<path d="M1368.01 2759.87C1349.74 2759.87 1334.93 2745.06 1334.93 2726.79C1334.93 2708.52 1349.74 2693.71 1368.01 2693.71C1386.28 2693.71 1401.09 2708.52 1401.09 2726.79C1401.09 2745.06 1386.28 2759.87 1368.01 2759.87Z" fill="#FF80B4"/>
<path d="M1310.07 2815.73C1295.29 2815.73 1283.3 2803.75 1283.3 2788.96C1283.3 2774.18 1295.29 2762.19 1310.07 2762.19C1324.85 2762.19 1336.84 2774.18 1336.84 2788.96C1336.84 2803.75 1324.85 2815.73 1310.07 2815.73Z" fill="#FF80B4"/>
<path d="M2107.29 2936.54C2106.56 2957.13 2115.05 2975.94 2129.11 2988.94C2153.89 2948.37 2179.78 2911.42 2206.23 2878.28C2197.64 2873.87 2188.04 2871.25 2177.77 2870.91C2140.16 2869.57 2108.63 2898.98 2107.29 2936.54Z" fill="#FF80B4"/>
<path d="M2218.68 2833.91C2218.4 2841.83 2220.86 2849.26 2225.27 2855.17C2240.23 2837.7 2255.29 2821.41 2270.42 2806.4C2265.56 2803.27 2259.87 2801.43 2253.73 2801.21C2235.03 2800.54 2219.35 2815.16 2218.68 2833.91Z" fill="#FF80B4"/>
<path d="M2174.86 2832.3C2156.15 2832.3 2140.98 2817.13 2140.98 2798.42C2140.98 2779.71 2156.15 2764.54 2174.86 2764.54C2193.57 2764.54 2208.74 2779.71 2208.74 2798.42C2208.74 2817.13 2193.57 2832.3 2174.86 2832.3Z" fill="#FF80B4"/>
<path d="M2104.9 2868.32C2089.68 2868.32 2077.34 2855.98 2077.34 2840.76C2077.34 2825.54 2089.68 2813.2 2104.9 2813.2C2120.12 2813.2 2132.46 2825.54 2132.46 2840.76C2132.46 2855.98 2120.12 2868.32 2104.9 2868.32Z" fill="#FF80B4"/>
<g opacity="0.3">
<path d="M2082.74 1246.43L2137.43 1161.22L2097.58 1139.51L2082.74 1246.43Z" fill="#66142E"/>
</g>
<g opacity="0.3">
<path d="M1766.15 2786.98C1968.28 2702.1 2025.65 2535.85 2025.65 2535.85C2035.25 2583.68 2053.16 2595.67 2053.16 2595.67C2201.44 2485.62 2193.07 2289.51 2193.07 2289.51C2212.21 2320.59 2245.08 2334.32 2245.08 2334.32C2245.08 2334.32 2245.08 2334.32 2245.08 2334.26C2244.51 2331.71 2226.73 2254.06 2180.66 2217.71C2169.27 2208.72 2152.56 2216.24 2152.04 2230.74C2150.12 2284.15 2140.16 2401.92 2091.01 2480.53C2083.89 2491.92 2067.05 2491.29 2060.72 2479.44C2055.96 2470.52 2050.15 2460.19 2043.8 2450.08C2036.75 2438.82 2020.25 2439.11 2013.69 2450.66C1986.03 2499.3 1913.55 2610.95 1784.27 2708.67C1777.52 2713.77 1768.06 2713.24 1761.87 2707.48C1724.5 2672.77 1602.24 2554.44 1595.15 2485.61C1584.38 2613.59 1766.15 2786.98 1766.15 2786.98Z" fill="#66142E"/>
</g>
<g opacity="0.3">
<path d="M2483.65 2673.36L2484.49 2677.1C2484.49 2677.1 2611 2659.91 2571.55 2590.88C2571.55 2590.88 2554.25 2574.75 2541.08 2594.45C2529.64 2611.64 2501.96 2501.36 2553.8 2418.88C2539.9 2422.12 2525.45 2426.19 2510.55 2431.21C2510.55 2431.21 2463.95 2502.98 2483.65 2673.36Z" fill="#66142E"/>
</g>
<g opacity="0.3">
<path d="M1299.77 1907.63C1299.77 1907.63 1373.83 2034.2 1519.76 2111.1C1537.51 2101.56 1559.66 2095.59 1587.34 2095.03C1616.58 2094.47 1645.6 2100.72 1672.78 2111.6C1766.81 2149.16 1807.55 2202.62 1807.55 2202.62C1880.77 2108.25 1997.35 2093.96 1997.35 2093.96C2148.2 2068.79 2212.15 2119.69 2237.49 2181.07L2245.08 2176.49C2245.08 2176.49 2303.12 2162.71 2361.72 2134.02L2480.25 2018.22L2478.91 2016.82C2478.91 2016.82 2335.49 1963.08 2277.39 1741.19C2265.95 1697.66 2257.8 1647.6 2254.73 1590.23C2254.73 1590.23 2215.92 1729.94 2271.8 1932.94C2286.16 1985.12 2243.81 2035.11 2189.94 2029.79C2087.83 2019.7 1942.67 2023.95 1835.6 2102.92C1820.46 2114.08 1799.53 2113.39 1784.88 2101.59C1744.63 2069.16 1656.11 2016.95 1528.4 2047.41C1518.22 2049.84 1507.52 2048.43 1498.38 2043.32C1455.16 2019.15 1330.39 1943.21 1293 1853.02C1288.87 1856.93 1285.8 1862.28 1285.35 1869.54C1284.81 1878.84 1288.55 1891.17 1299.77 1907.63Z" fill="#66142E"/>
</g>
<g opacity="0.3">
<path d="M1371.37 1556.5C1469.7 1283.38 1741.2 1246.44 1741.2 1246.44C1730.99 1206.26 1736.07 1165.24 1743.21 1135.22C1749.74 1107.71 1758.05 1089.46 1758.05 1089.46L1853.26 1134.22L1658.55 809.652C1658.55 809.652 1645.38 787.552 1621.77 767.242C1598.28 746.982 1564.4 728.452 1522.94 735.372H1522.88C1522.04 736.152 1521.26 736.932 1520.48 737.772C1543.7 769.742 1618.16 878.802 1670.27 1028.98C1692.84 1094.03 1669.76 1165.95 1613.48 1205.63C1512.81 1276.6 1364.94 1406.9 1371.37 1556.5Z" fill="#66142E"/>
</g>
<g opacity="0.3">
<path d="M1684.95 1260.22C1759.84 1393.99 1899.14 1372.89 1899.14 1372.89C1749.91 1342.36 1741.21 1246.43 1741.21 1246.43C1741.21 1246.43 1718.99 1249.45 1684.95 1260.22Z" fill="#66142E"/>
</g>
<g opacity="0.3">
<path d="M1741.2 1246.43C1768.88 1354.97 1899.13 1372.89 1899.13 1372.89C1944.84 1383.05 1986.19 1363.91 1986.19 1363.91C1767.37 1338.8 1769.72 1113.56 1769.72 1113.56L1758.06 1089.45C1758.05 1089.45 1721.67 1169.53 1741.2 1246.43Z" fill="#66142E"/>
</g>
<g opacity="0.3">
<path d="M2137.43 1161.22L2169.46 1111.27L2391.79 764.772C2430.85 710.972 2462.89 743.172 2462.89 743.172H2462.95C2526.74 838.432 2543.76 931.572 2543.76 931.572L2523.45 939.612L2502.8 947.762L2507.93 996.262C2497.91 983.672 2487.87 973.192 2478.99 964.852C2463.43 950.222 2438.92 951.082 2424.14 966.502L2392.19 999.832C2412.82 1000.07 2439.89 1002.21 2446.03 1011.43C2424.03 1009.26 2399.04 1010.82 2399.04 1010.82C2368.79 1072.77 2335.2 1157.09 2304.22 1269.15C2304.22 1269.15 2304.53 1269.33 2305.18 1269.66C2281.68 1263.86 2272.82 1258.68 2272.82 1258.68C2298.78 1164.75 2326.58 1090.37 2352.71 1032.26L2137.43 1161.22Z" fill="#66142E"/>
</g>
<g opacity="0.3">
<path d="M1750.91 2368.88C1751.19 2271.27 1807.55 2202.63 1807.55 2202.63C1807.55 2202.63 1792.82 2183.27 1760.5 2159.66C1715.58 2257.21 1750.91 2368.88 1750.91 2368.88Z" fill="#66142E"/>
</g>
<g opacity="0.3">
<path d="M1775.68 2852.67C1918.17 2792.84 1981.72 2711.74 2008.24 2673.7C2013.97 2665.48 2025.81 2664.78 2032.57 2672.17C2033.36 2673.03 2034.15 2673.86 2034.93 2674.64C2040.87 2680.63 2050.25 2681.42 2057.19 2676.62C2170.16 2598.59 2213.02 2477.13 2226.58 2426.52C2229.28 2416.43 2240.95 2411.86 2249.8 2417.41L2250.31 2417.73C2260.18 2423.92 2273.19 2418.63 2276.06 2407.34C2327.3 2205.34 2237.5 2181.09 2237.5 2181.09C2266.35 2250.96 2245.09 2334.34 2245.09 2334.34C2245.09 2334.34 2212.22 2320.61 2193.08 2289.53C2193.08 2289.53 2201.45 2485.63 2053.17 2595.69C2053.17 2595.69 2035.26 2583.69 2025.66 2535.87C2025.66 2535.87 1968.29 2702.12 1766.16 2787C1766.16 2787 1584.4 2613.61 1595.17 2485.64C1594.78 2721.79 1716.55 2824.42 1753.9 2850.34C1760.29 2854.76 1768.5 2855.68 1775.68 2852.67Z" fill="#66142E"/>
</g>
<g opacity="0.3">
<path d="M1260.82 2854.17C1279.91 2966.01 1345.7 3002.11 1393.36 3013.33C1399.83 3014.89 1406.42 3015.9 1413 3016.34C1431.64 3017.74 1450.5 3015.06 1468.14 3008.58C1690.31 2927.1 2073.48 3017.68 2073.48 3017.68C2012.71 2906.68 2045.07 2784.24 2100.71 2723.19C2063.46 2746.68 2029.65 2810.2 2007.39 2860.68C1989.96 2900.2 1947.96 2922.98 1905.32 2916.09C1644.86 2874.03 1572.93 2929.4 1445.37 2917.01C1360.32 2908.75 1297.09 2877.33 1260.82 2854.17Z" fill="#66142E"/>
</g>
<g opacity="0.3">
<path d="M2046.96 2832.51C2049.59 2864.8 2058.15 2898.07 2074.62 2930.67C2074.68 2930.78 2074.73 2930.89 2074.79 2931C2082.44 2946.07 2103.88 2946.83 2112.8 2932.47C2118.86 2922.71 2124.99 2913.16 2131.19 2903.8C2157.31 2864.08 2184.42 2828.02 2211.97 2795.77C2218.54 2788.06 2225.15 2780.58 2231.76 2773.31C2245.78 2758 2259.86 2743.71 2273.96 2730.39C2294.25 2753.5 2302.18 2776.58 2302.18 2776.58C2291.58 2785.9 2280.97 2795.83 2270.43 2806.38C2255.31 2821.39 2240.24 2837.69 2225.28 2855.15C2218.92 2862.63 2212.56 2870.33 2206.25 2878.25C2179.8 2911.4 2153.9 2948.34 2129.13 2988.91C2117.13 3008.39 2105.47 3028.7 2094.08 3049.85C2086.27 3039.25 2079.46 3028.53 2073.49 3017.65C2039.28 2955.24 2034.63 2889.22 2046.96 2832.51Z" fill="#66142E"/>
</g>
<g opacity="0.3">
<path d="M2357.21 2635.31C2357.21 2635.31 2219.75 2585.81 2146.02 2689.99C2146.02 2689.99 2175.97 2669.83 2232.36 2697.92C2232.35 2697.91 2265.42 2637.89 2357.21 2635.31Z" fill="#66142E"/>
</g>
<g opacity="0.3">
<path d="M2271.2 2727.27C2293.58 2751.38 2302.17 2776.6 2302.17 2776.6C2363.28 2722.91 2424.67 2689.37 2480.97 2677.88C2482.14 2677.66 2483.31 2677.38 2484.49 2677.15V2677.09L2483.65 2673.35C2463.95 2502.97 2510.55 2431.2 2510.55 2431.2C2565.74 2362.11 2605.37 2300.67 2633.16 2246.26C2685.62 2143.69 2695.89 2066.17 2688.58 2009.58C2687.97 2004.56 2687.18 1999.7 2686.29 1995.01C2684.95 1988.03 2682.77 1981.5 2679.98 1975.53C2651.53 2069.48 2586.03 2251 2475.88 2371.31C2449.4 2400.23 2430.34 2435.22 2421.56 2473.44C2413.72 2507.57 2406.4 2550.88 2406.28 2594.09C2406.19 2624.42 2387.9 2651.44 2360.27 2663.95C2336.22 2674.86 2305.26 2693.92 2271.2 2727.27Z" fill="#66142E"/>
</g>
<g opacity="0.3">
<path d="M2045.96 3148.16C2045.96 3148.16 2370.92 3423.9 2693.99 3249.73C2773.91 3206.65 2853.71 3136.05 2928.43 3026.89H2928.49C2928.49 3026.89 2932.12 3091.9 2978.77 3111.05C2978.77 3111.05 3174.26 2615.99 2734.78 2488.64C3043.28 2709.3 2911.8 2906.58 2911.8 2906.58C2617.59 3389.69 2045.96 3148.16 2045.96 3148.16Z" fill="#66142E"/>
</g>
<g opacity="0.3">
<path d="M1444.83 2140.55C1447.65 2161.35 1453.42 2180.64 1458.82 2195.37C1467.41 2162.5 1485.05 2129.85 1519.76 2111.1C1448.55 2073.6 1394.47 2024.26 1357.75 1983.53C1319.19 1940.84 1299.77 1907.63 1299.77 1907.63C1288.55 1891.17 1284.81 1878.83 1285.37 1869.57C1259.94 1950.08 1386.41 2072.48 1429.37 2111.13C1437.88 2118.79 1443.29 2129.21 1444.83 2140.55Z" fill="#66142E"/>
</g>
<g opacity="0.3">
<path d="M1314.89 1556.04C1308.09 1413.81 1313.96 1290.57 1325.86 1186.79C1348.99 1136.22 1369.14 1103.93 1372.76 1098.27L1394.36 1099.83C1374.99 1219.31 1362.55 1372 1371.37 1556.5C1354.07 1604.55 1342.13 1659.85 1338 1723.59C1337.16 1736.2 1332.59 1748.42 1324.16 1757.86C1318.8 1763.83 1313.17 1772.2 1309.99 1782.75C1298.96 1761.83 1289.65 1740.77 1281.81 1719.68C1286.14 1657.41 1297.91 1603.2 1314.89 1556.04Z" fill="#66142E"/>
</g>
<g opacity="0.3">
<path d="M1270.19 1841.95C1255.79 1817.79 1255.18 1797.92 1259.75 1782.74C1093.06 1466.65 1309.81 1118.14 1322.53 1098.27L1298.92 1096.54L1257.24 1093.52C1258.78 1091.29 1259.68 1090.06 1259.68 1090.06L1349.14 1096.53L1372.75 1098.26C1360.03 1118.13 1143.27 1466.64 1309.97 1782.73C1305.39 1797.91 1306.01 1817.78 1320.41 1841.94C1320.41 1841.94 1286.87 1844.23 1285.36 1869.56C1284.3 1869.08 1270.36 1862.96 1251.47 1847.09C1260.63 1842.64 1270.19 1841.95 1270.19 1841.95Z" fill="#66142E"/>
</g>
<g opacity="0.3">
<path d="M2305.24 1269.65C2332.98 1213.29 2369.19 1174.33 2407.42 1148.61C2439.96 1126.62 2474 1114.23 2505.47 1108.71C2520.37 1106.09 2530.97 1092.86 2530.36 1077.74C2529.8 1064.57 2529.19 1050.56 2528.96 1045.37L2562 1036.83L2567.13 1037.05C2567.13 1037.05 2575.17 1069.92 2568.66 1111.87C2541.51 1118.4 2512.99 1130.05 2485.54 1148.61C2447.31 1174.34 2411.09 1213.29 2383.36 1269.65C2348.26 1341.08 2326.77 1440.53 2332.19 1576.75C2342.17 1828.03 2447.08 1942.66 2510.01 1989.17L2480.25 2018.24L2478.91 2016.84C2478.91 2016.84 2268.41 1937.93 2254.06 1576.75C2248.65 1440.53 2270.14 1341.08 2305.24 1269.65Z" fill="#66142E"/>
</g>
<g opacity="0.3">
<path d="M2615.58 1929.68C2648.84 1933.81 2679.09 1957.53 2686.29 1995.03C2687.18 1999.72 2687.96 2004.57 2688.58 2009.6H2688.64C2816.66 1942.24 2822.69 1807.97 2822.8 1804.73C2803.66 1834.03 2779.83 1860.2 2751.76 1881.85C2703.54 1918.96 2657.67 1931.91 2616.21 1925.83L2615.58 1929.68Z" fill="#66142E"/>
</g>
<g opacity="0.3">
<path d="M1259.7 1045.42L1349.16 1051.89L1356.49 1052.43L1349.16 1096.54L1259.7 1090.07C1250.7 1066.49 1251.92 1047.63 1256.06 1033.91C1257.03 1037.62 1258.18 1041.43 1259.7 1045.42Z" fill="#66142E"/>
</g>
<g opacity="0.3">
<path d="M2822.62 1537.13C2832.44 1854.06 2615.13 1884.25 2533.32 1884.42C2558.1 1906.97 2586 1921.48 2616.19 1925.83C2657.65 1931.91 2703.53 1918.97 2751.74 1881.85C2779.81 1860.2 2803.64 1834.02 2822.78 1804.73C2822.78 1804.67 2822.78 1804.67 2822.78 1804.67C2842.87 1773.86 2857.77 1739.6 2866.98 1703.55C2889.14 1616.99 2901.8 1478.2 2838.85 1304.7C2838.85 1304.7 2785.22 1158.43 2763.34 1044.58L2776.06 1045.08C2776.06 1045.08 2784.77 1008.97 2767.41 958.411C2763.89 948.201 2754.41 941.111 2743.52 940.551C2743.52 940.551 2665.11 491.031 2169.44 458.941C2472.19 504.651 2618.85 734.291 2689.73 937.591C2702.45 973.981 2712.67 1009.47 2720.98 1042.95C2735.89 1103.17 2744.45 1156.74 2749.34 1196.67C2754.62 1239.83 2765.25 1282.12 2780.04 1323C2793.93 1361.37 2803.61 1404.1 2810.22 1440.8C2810.22 1440.86 2810.22 1440.86 2810.22 1440.86C2819.32 1491.7 2822.39 1530.93 2822.39 1530.93C2822.46 1533 2822.57 1535.07 2822.62 1537.13Z" fill="#66142E"/>
</g>
<g opacity="0.3">
<path d="M1522.94 735.362C1564.4 728.442 1598.28 746.972 1621.77 767.232C1867.54 595.012 2365.34 684.692 2376.05 681.062C2386.82 677.492 2384.25 652.262 2384.25 652.262L2384.31 652.202C2370.92 640.312 2356.52 628.932 2340.95 618.332C2340.95 618.332 1748.62 515.482 1522.94 735.362Z" fill="#66142E"/>
</g>
<g opacity="0.3">
<path d="M1351.95 1007.53H1375.11L1410.05 1015.73C1441.08 870.242 1478.69 792.062 1482.15 785.022C1480.48 787.812 1471.27 801.432 1459.44 777.932V773.742C1461.56 758.672 1465.63 744.272 1471.61 730.492C1399.22 786.252 1361.94 955.242 1351.95 1007.53Z" fill="#66142E"/>
</g>
<g opacity="0.7">
<path d="M1799.61 1092.87L1839.79 1111.76L1853.26 1134.21L1794.27 1106.48C1797.35 1097.85 1799.61 1092.87 1799.61 1092.87Z" fill="white"/>
<path d="M1392.18 1113.67C1392.91 1108.98 1393.63 1104.41 1394.36 1099.83C1399.21 1069.64 1404.52 1041.62 1410.04 1015.73C1441.07 870.242 1478.68 792.062 1482.14 785.022L1482.42 784.522C1493.41 767.502 1506.14 751.982 1520.48 737.752C1521.26 736.912 1522.04 736.132 1522.88 735.352H1522.94C1539.92 732.522 1555.6 734.002 1569.84 738.072C1568.07 738.282 1566.3 738.472 1564.49 738.772H1564.43C1563.59 739.552 1562.81 740.332 1562.03 741.172C1547.69 755.402 1534.96 770.922 1523.97 787.942L1523.69 788.442C1520.23 795.472 1482.62 873.662 1451.59 1019.15C1446.07 1045.04 1440.76 1073.06 1435.91 1103.25C1435.18 1107.83 1434.46 1112.4 1433.73 1117.09C1418.67 1214.81 1408.42 1333.85 1410.3 1473.37C1395.57 1498.31 1382.37 1525.91 1371.36 1556.5C1362.89 1379.03 1374.1 1231.03 1392.18 1113.67Z" fill="white"/>
</g>
<g opacity="0.7">
<path d="M1741.2 1246.43C1740.07 1211.25 1755.09 1170.29 1764.19 1148.91C1767.6 1140.91 1776.99 1137.43 1784.83 1141.2C1880.56 1187.27 1952.71 1180.97 1952.71 1180.97C1926.35 1154.57 1932.53 1127.37 1939.98 1111.68C1943.76 1103.72 1952.81 1099.79 1961.17 1102.57L2137.43 1161.22L2097.58 1139.51L1938.36 1052.67C1938.36 1052.67 1889.92 1087.66 1900.69 1154.91L1900.08 1156.25L1853.26 1134.21L1758.05 1089.45C1758.05 1089.45 1721.67 1169.53 1741.2 1246.43Z" fill="white"/>
</g>
<g opacity="0.7">
<path d="M1750.91 2368.88C1750.91 2368.88 1842.69 2070.67 2152.42 2147.21C2152.42 2147.21 2239.67 2166.3 2245.08 2334.28C2245.75 2331.55 2265.84 2249.79 2237.49 2181.09C2212.15 2119.7 2148.2 2068.81 1997.35 2093.98C1997.35 2093.98 1880.88 2108.27 1807.61 2202.52C1807.55 2202.58 1807.55 2202.63 1807.55 2202.63C1807.55 2202.63 1747.62 2272.44 1750.91 2368.88Z" fill="white"/>
</g>
<g opacity="0.7">
<path d="M1454.02 2300.29C1454.02 2300.29 1460.33 2003.4 1807.5 2202.57C1806.61 2201.4 1791.82 2182.54 1760.51 2159.65C1739.19 2144.02 1710.17 2126.56 1672.78 2111.6C1645.6 2100.72 1616.58 2094.47 1587.34 2095.03C1559.66 2095.59 1537.5 2101.56 1519.76 2111.1C1430.24 2159.54 1454.02 2300.29 1454.02 2300.29Z" fill="white"/>
</g>
<g opacity="0.7">
<path d="M1337.88 1724.64C1362.21 1642.55 1459.64 1337.17 1754.41 1283.82C1754.41 1283.82 1750.46 1279.41 1741.2 1246.43C1741.2 1246.43 1718.99 1249.44 1684.95 1260.21C1600.07 1286.89 1441.58 1361.5 1371.37 1556.49C1354.07 1604.54 1342.13 1659.84 1338 1723.58C1338 1723.92 1337.94 1724.31 1337.88 1724.64Z" fill="white"/>
</g>
<g opacity="0.7">
<path d="M2045.96 3148.16C2234.31 2826.49 2422.66 2743.34 2534.05 2697.91C2643.38 2653.32 2574.12 2593.05 2571.61 2590.93C2606.77 2663.81 2484.5 2677.1 2484.5 2677.1V2677.16C2483.33 2677.38 2482.16 2677.66 2480.98 2677.89C2424.67 2689.39 2363.28 2722.93 2302.18 2776.61C2292.69 2784.98 2283.21 2793.8 2273.72 2803.06C2210.88 2864.84 2149.1 2947.82 2094.08 3049.89C2077.32 3080.86 2061.25 3113.67 2045.96 3148.16Z" fill="white"/>
</g>
<g opacity="0.7">
<path d="M1214.22 1969.47C1229.68 2067.36 1278.12 2212.23 1407.31 2406.99V2323C1231.46 2083.81 1218.91 1813.6 1218.91 1813.6C1218.91 1813.6 1197.59 1864.38 1214.22 1969.47Z" fill="white"/>
</g>
<g opacity="0.7">
<path d="M1340.68 2610.13C1340.68 2610.19 1340.68 2610.19 1340.68 2610.19C1363.73 2602.32 1387.84 2608.24 1387.84 2608.24C1394.27 2580.9 1410.25 2558.18 1424.56 2542.34C1440.96 2524.18 1449.02 2500 1446.06 2475.71L1412.18 2197.66L1407.32 2406.99L1405.03 2504.76C1342.96 2559.79 1340.73 2608.12 1340.68 2610.13Z" fill="white"/>
</g>
<g opacity="0.7">
<path d="M1260.31 2710.47C1262.37 2693.17 1267.12 2676.2 1275.43 2660.86C1286.7 2640.16 1306.57 2616.88 1340.67 2610.19C1340.67 2610.19 1409.56 2594.08 1462.55 2656.74C1418.17 2629.66 1374.8 2639.79 1374.8 2639.79C1340.7 2646.49 1320.83 2669.76 1309.56 2690.46C1301.24 2705.81 1296.5 2722.77 1294.44 2740.07C1278.29 2873.04 1304.52 2948.76 1341.87 2991.81C1288.88 2957.98 1239.53 2881.57 1260.31 2710.47Z" fill="white"/>
</g>
<g opacity="0.7">
<path d="M1259.7 1090.06L1296.85 1092.75C1281.63 1114.57 1177.38 1273.39 1177.38 1530.93C1177.38 1678.71 1219.01 1765.09 1257.96 1813.59C1271.35 1830.25 1284.39 1842.37 1295.35 1851.03C1290.06 1855.13 1285.87 1861.01 1285.36 1869.57C1283.74 1868.84 1252.32 1855.17 1218.89 1813.6C1179.94 1765.1 1138.31 1678.72 1138.31 1530.94C1138.32 1253.13 1259.7 1090.06 1259.7 1090.06Z" fill="white"/>
</g>
<g opacity="0.7">
<path d="M2523.44 1207.87C2591.02 1134.32 2567.14 1037.05 2567.14 1037.05L2721 1042.97L2763.36 1044.59C2763.93 1047.57 2764.54 1050.59 2765.16 1053.61L2760.07 1053.41L2606.21 1047.38C2606.21 1047.38 2630.1 1146.57 2562.51 1221.58C2562.51 1221.58 2438.45 1285.6 2454.58 1589.21C2462.06 1729.83 2506.2 1850.08 2572.39 1911.48C2572.64 1911.71 2572.9 1911.91 2573.14 1912.14C2559.14 1905.13 2545.83 1895.81 2533.32 1884.42C2467.13 1824.2 2422.99 1706.28 2415.51 1568.39C2399.38 1270.66 2523.44 1207.87 2523.44 1207.87Z" fill="white"/>
</g>
<g opacity="0.7">
<path d="M1667.14 583.953C1779.48 547.063 1931.38 531.993 2108.74 542.373C2205.56 548.013 2281.52 577.703 2340.95 618.323C2356.52 628.923 2370.92 640.313 2384.31 652.193C2416.18 680.653 2442.07 712.023 2462.94 743.153C2526.73 838.413 2543.75 931.553 2543.75 931.553L2598.44 934.013C2598.44 934.013 2598.33 933.513 2598.05 932.563C2591.8 906.893 2497.43 544.873 2189.49 515.463C1874.47 485.343 1672.56 581.333 1667.14 583.953Z" fill="white"/>
</g>
<path d="M2472.03 2035.14L2485.82 1998.59C2485.33 1998.4 2435.7 1978.84 2385.13 1917.65C2338.18 1860.85 2280.72 1755.47 2273.59 1576C2258.7 1201.1 2449.88 1138.26 2508.83 1127.93C2533.26 1123.65 2550.9 1101.73 2549.86 1076.93C2549.3 1063.48 2548.7 1049.19 2548.47 1044.2L2509.45 1045.92C2509.67 1050.89 2510.27 1065.14 2510.83 1078.55C2511.05 1083.85 2507.29 1088.53 2502.08 1089.44C2435.24 1101.15 2218.4 1170.97 2234.55 1577.54C2249.24 1947.41 2462.93 2031.73 2472.03 2035.14Z" fill="#66142E"/>
<path d="M2513.57 1068.94C2515.21 1068.94 2516.85 1068.73 2518.47 1068.32L2564.12 1056.48L2775.3 1064.59C2784.53 1064.93 2792.84 1058.71 2795.04 1049.67C2795.45 1047.97 2804.92 1007.37 2785.92 952.09C2779.78 934.26 2763.57 922.06 2744.63 921.03L2549.32 910.32C2546.51 910.16 2543.7 910.62 2541.08 911.65L2495.64 929.59C2487.48 932.81 2482.46 941.09 2483.39 949.82L2494.16 1051.47C2494.76 1057.12 2497.79 1062.23 2502.46 1065.47C2505.74 1067.75 2509.63 1068.94 2513.57 1068.94ZM2551.44 949.56L2742.49 960.04C2745.45 960.2 2748.05 962.12 2748.98 964.8C2757.68 990.1 2759.04 1011.35 2758.63 1024.85L2562.75 1017.33C2560.8 1017.26 2558.94 1017.46 2557.1 1017.94L2530.61 1024.81L2523.8 960.47L2551.44 949.56Z" fill="#66142E"/>
<path d="M2562.19 928.075L2575.93 1035.1L2548.26 1038.65L2534.52 931.629L2562.19 928.075Z" fill="#66142E"/>
<path d="M2524.54 935.131L2562.96 928.081C2562.24 924.171 2544.68 831.101 2480.42 734.251C2420.68 644.211 2307.9 534.451 2109.9 522.861C1925.73 512.081 1766.15 528.271 1648.45 569.681C1524.58 613.251 1452.52 682.881 1440.07 771.031C1439.94 771.941 1439.88 772.851 1439.88 773.761V777.951C1439.88 781.011 1440.6 784.031 1441.98 786.771C1450.12 802.861 1460.62 811.031 1473.2 811.041H1473.21C1485.67 811.041 1494.69 802.691 1499.25 794.481C1667.42 536.131 2282 628.611 2334.13 637.001C2377.26 667.291 2414.99 706.561 2447.11 754.701C2507.35 844.951 2524.38 934.241 2524.54 935.131ZM2033.42 574.781C2015.8 574.781 1997.9 575.041 1979.79 575.621C1738.93 583.311 1573.2 640.631 1486.36 746.131C1534.72 613.871 1771.87 542.201 2107.63 561.861C2151.21 564.411 2191.96 572.011 2229.84 584.621C2176.02 579.401 2107.42 574.781 2033.42 574.781Z" fill="#66142E"/>
<path d="M2476.75 729.401C2475.75 728.391 2475.23 727.951 2474.69 727.461C2474.11 726.931 2473.56 726.471 2473.06 726.071C2472.01 725.221 2470.94 724.371 2469.87 723.661C2467.76 722.121 2465.51 720.841 2463.24 719.591C2458.58 717.301 2453.62 715.351 2448.31 714.391C2437.73 712.211 2426.47 713.511 2417.05 717.031C2414.76 717.971 2412.48 718.961 2410.22 719.981C2408.06 721.061 2406.15 722.321 2404.12 723.521C2399.91 725.881 2396.8 728.761 2393.28 731.501C2389.87 734.291 2387.2 737.321 2384.16 740.271C2381.25 743.281 2378.74 746.641 2376.06 749.851L2374.1 752.301C2373.51 753.081 2373.12 753.751 2372.63 754.481L2369.8 758.771L2364.14 767.351L2352.83 784.521C2345.28 795.961 2337.73 807.391 2330.33 818.941C2300.41 864.881 2271.13 911.261 2241.82 957.611C2212.98 1004.27 2183.82 1050.71 2155.39 1097.63L2112.8 1168.02C2105.69 1179.74 2099.38 1191.99 2094.16 1204.92C2088.98 1217.88 2084.59 1231.35 2082.75 1246.44C2095.7 1238.48 2106.11 1228.9 2115.71 1218.81C2125.28 1208.69 2133.76 1197.89 2141.44 1186.56L2187.58 1118.66C2218.32 1073.38 2248.31 1027.63 2278.63 982.091C2308.48 936.241 2338.36 890.431 2367.59 844.171C2374.98 832.661 2382.22 821.051 2389.46 809.441L2400.33 792.031L2405.77 783.331L2408.49 778.981C2408.94 778.281 2409.41 777.461 2409.84 776.871L2411.07 775.301C2412.74 773.241 2414.18 770.961 2415.96 768.991C2417.8 767.141 2419.52 764.871 2421.38 763.281C2423.23 761.811 2425.03 759.801 2426.85 758.841C2427.75 758.281 2428.64 757.531 2429.51 757.041C2430.38 756.661 2431.22 756.251 2432.06 755.791C2435.38 754.431 2438.15 753.851 2441.07 754.161C2442.54 754.221 2444.04 754.761 2445.6 755.291C2446.33 755.681 2447.14 755.951 2447.83 756.391C2448.23 756.581 2448.5 756.781 2448.82 756.971L2449.18 757.191C2449.29 757.251 2449.42 757.361 2449.04 756.961L2476.75 729.401Z" fill="#66142E"/>
<path d="M1628.14 786.581C1764.37 687.751 2005.55 657.861 2344.98 697.741C2373.65 701.111 2376.66 701.461 2382.22 699.611C2405.95 691.701 2404.67 659.861 2403.71 650.291L2364.84 654.171L2384.27 652.231L2364.83 654.111C2365.02 656.141 2365.04 658.521 2364.95 660.721C2360.52 660.231 2355.1 659.591 2349.53 658.941C2000.06 617.871 1749.62 650.181 1605.2 754.961L1628.14 786.581Z" fill="#66142E"/>
<path d="M2301.92 1283.18L2308.59 1256.08C2300.38 1254.06 2294.13 1252.14 2289.59 1250.56C2357.33 1011.34 2437.03 903.24 2463.47 872.14C2489.6 900.53 2510.57 945.02 2510.8 945.52L2536.08 933.7C2534.9 931.19 2506.92 871.85 2472.05 841.55C2466.65 836.86 2458.56 837.01 2453.34 841.92C2448.94 846.06 2344.57 946.8 2259.38 1254.96C2257.69 1261.07 2260.33 1267.56 2265.82 1270.74C2266.9 1271.38 2277.14 1277.08 2301.92 1283.18Z" fill="#66142E"/>
<path d="M2419.29 1155.88C2455.37 1097.15 2465.44 1034.99 2460.89 1011.47C2456.96 991.182 2425.28 982.752 2366.74 986.412L2368.48 1014.26C2395.95 1012.56 2425.72 1014.82 2433.82 1019.05C2435.48 1036.1 2427.53 1089.14 2395.51 1141.26L2419.29 1155.88Z" fill="#66142E"/>
<path d="M2128.09 1178.35L2146.78 1144.05L1947.69 1035.54C1941.09 1031.94 1933.01 1032.45 1926.91 1036.86C1924.53 1038.58 1868.87 1079.78 1881.39 1158.03L1919.96 1151.86C1913.88 1113.86 1930.43 1088.59 1941.31 1076.56L2128.09 1178.35Z" fill="#66142E"/>
<path d="M1952.71 1180.95C1939.48 1166.97 1924.97 1155.72 1910.14 1145.13C1895.29 1134.6 1879.82 1125.37 1864.15 1116.6C1848.47 1107.81 1832.56 1099.55 1816.33 1091.94C1800.1 1084.32 1783.59 1077.33 1766.4 1071.79L1762.01 1070.38C1752.97 1067.47 1743.28 1072.4 1740.3 1081.39V1081.4C1738.2 1085.81 1736.77 1089.25 1735.15 1093.16C1733.6 1096.96 1732.26 1100.8 1730.89 1104.63C1728.22 1112.3 1725.99 1120.1 1723.98 1127.97C1720 1143.7 1717.37 1159.86 1716.27 1176.25C1715.2 1192.64 1715.55 1209.3 1718.13 1225.84C1718.87 1229.97 1719.54 1234.1 1720.37 1238.21L1723.4 1250.46L1727.45 1262.47C1728.88 1266.44 1730.71 1270.29 1732.34 1274.18C1739.36 1289.59 1748.82 1303.89 1760.21 1316.17C1771.32 1328.78 1785.07 1338.38 1798.89 1346.73C1827.29 1362.52 1858.19 1370.89 1889.03 1372.89C1860.7 1360.61 1833.87 1346.53 1811.76 1328.06C1800.84 1318.78 1790.85 1308.74 1782.96 1297.41C1775.08 1286.09 1768.74 1273.99 1764.2 1261.21C1759.74 1248.39 1757.05 1234.95 1755.87 1221.23C1754.8 1207.51 1754.99 1193.55 1756.42 1179.57C1757.87 1165.6 1760.26 1151.59 1763.66 1137.75C1765.3 1130.82 1767.28 1123.97 1769.27 1117.13L1772.52 1107.01C1773.58 1103.79 1774.87 1100.11 1775.86 1097.55L1749.77 1107.15C1765.01 1116.85 1780.94 1125.11 1797.15 1132.74C1813.36 1140.38 1829.88 1147.36 1846.65 1153.82C1863.41 1160.29 1880.38 1166.32 1897.97 1171.03C1915.58 1175.68 1933.5 1179.68 1952.71 1180.95Z" fill="#66142E"/>
<path d="M1836.51 1144.25L1870.01 1124.15L1675.28 799.581C1672.89 795.571 1614.93 700.211 1519.67 716.101L1526.09 754.631C1594.86 743.161 1641.31 818.891 1641.77 819.661L1836.51 1144.25Z" fill="#66142E"/>
<path d="M1518.14 2132.33L1535.83 2097.5C1392.4 2024.65 1317.36 1899.01 1316.62 1897.75C1316.4 1897.37 1316.16 1896.99 1315.91 1896.63C1304.81 1880.36 1304.06 1871.38 1305.36 1868.64C1307.15 1864.89 1316.19 1861.91 1321.88 1861.43C1328.59 1860.86 1334.61 1856.88 1337.68 1850.9C1340.76 1844.92 1340.62 1837.76 1337.19 1831.98C1323.14 1808.34 1323.67 1787.76 1338.75 1770.82C1349.69 1758.53 1356.34 1742.21 1357.48 1724.85C1368.56 1555.12 1436.58 1426.42 1559.65 1342.3C1652.15 1279.08 1742.96 1265.89 1743.87 1265.77L1738.58 1227.07C1734.56 1227.62 1639.04 1241.24 1539.07 1309.06C1446.67 1371.75 1333.39 1494.34 1318.5 1722.31C1317.93 1731.02 1314.76 1739.02 1309.58 1744.85C1298.83 1756.92 1278.42 1787.02 1293.08 1829.56C1284.35 1833.84 1275.51 1840.67 1270.23 1851.56C1261.37 1869.81 1265.75 1892.2 1283.27 1918.11C1289.89 1929.22 1367.76 2055.95 1518.14 2132.33Z" fill="#66142E"/>
<path d="M1351.84 1557.66L1390.86 1555.8C1367.29 1061.11 1498.52 795.971 1499.85 793.351L1465.01 775.691C1459.4 786.771 1327.79 1052.74 1351.84 1557.66Z" fill="#66142E"/>
<path d="M1323.78 1003.21C1361.23 792.271 1437.38 657.201 1563.44 578.131C1686.89 500.701 1863.75 469.501 2136.91 476.971C2347.34 482.731 2510 562.651 2620.37 714.521C2703.23 828.541 2724.12 942.761 2724.32 943.901L2762.8 937.171C2761.93 932.201 2740.58 814.161 2652.96 692.931C2571.93 580.811 2416.81 445.561 2137.97 437.931C1856.7 430.221 1673.06 463.261 1542.68 545.041C1406.61 630.391 1324.83 773.811 1285.31 996.381L1323.78 1003.21Z" fill="#66142E"/>
<path d="M1392.92 1119.32L1395.75 1080.36L1274.39 1071.55C1269.26 1049.49 1275.66 1034.51 1280.39 1027.08H1372.86L1405.63 1034.74L1414.52 996.701L1379.56 988.531C1378.11 988.191 1376.61 988.021 1375.11 988.021H1271.07C1266.16 988.021 1261.42 989.871 1257.81 993.211C1256.12 994.771 1216.71 1032.22 1241.46 1097.04C1244.17 1104.12 1250.73 1109 1258.29 1109.55L1392.92 1119.32Z" fill="#66142E"/>
<path d="M1352.93 1005.78L1374.95 1009.44L1360.04 1099.25L1338.02 1095.59L1352.93 1005.78Z" fill="#66142E"/>
<path d="M1277.97 1887.63L1292.89 1851.53C1287.49 1849.21 1157.85 1790.52 1157.85 1530.96C1157.85 1262.72 1274.19 1103.3 1275.37 1101.72L1244.03 1078.4C1238.92 1085.27 1118.79 1249.91 1118.79 1530.96C1118.8 1818.53 1271.47 1884.95 1277.97 1887.63Z" fill="#66142E"/>
<path d="M1292.7 1791.84L1327.25 1773.62C1241.81 1611.56 1262.96 1439.9 1295.75 1324.43C1331.69 1197.86 1389.1 1108.92 1389.68 1108.04L1356.97 1086.69C1354.51 1090.46 1296.17 1180.64 1258.51 1312.62C1208.3 1488.48 1220.12 1654.2 1292.7 1791.84Z" fill="#66142E"/>
<path d="M2636.02 1946.86C2672.09 1946.86 2715.3 1934.52 2763.64 1897.32C2823.05 1851.6 2866.48 1784.49 2885.93 1708.37C2908.58 1619.69 2922 1476.52 2857.19 1298.05C2856.64 1296.55 2803.83 1151.83 2782.54 1040.9L2744.17 1048.26C2766.07 1162.35 2818.28 1305.41 2820.49 1311.44C2881.87 1480.49 2869.38 1615.35 2848.08 1698.7C2830.78 1766.4 2792.33 1825.95 2739.81 1866.36C2685.29 1908.31 2633.53 1918.52 2585.95 1896.68C2503.03 1858.62 2443.78 1729.34 2434.99 1567.34C2419.9 1288.84 2531.32 1225.77 2532.45 1225.17C2534.38 1224.14 2536.33 1222.67 2537.81 1221.06C2611.62 1140.73 2587.16 1036.76 2586.09 1032.38L2548.15 1041.7L2567.12 1037.04L2548.14 1041.64C2548.35 1042.51 2568 1128.09 2510.98 1192.49C2489.06 1205.97 2380.7 1287.31 2396 1569.46C2405.56 1745.77 2473.73 1888.14 2569.66 1932.19C2587.51 1940.38 2609.89 1946.86 2636.02 1946.86Z" fill="#66142E"/>
<path d="M2464.27 2675.63L2503.08 2671.14C2485.55 2519.76 2522.45 2449.77 2526.66 2442.39C2668.6 2264.28 2728.77 2112.54 2705.5 1991.37C2698.41 1954.44 2672.59 1925.63 2636.43 1914.3C2600.13 1902.92 2560.74 1912.31 2533.64 1938.78L2350.32 2117.86C2295.45 2144.28 2241.14 2157.36 2240.59 2157.49L2249.61 2195.5C2252.06 2194.92 2310.43 2180.91 2370.29 2151.58C2372.16 2150.67 2373.86 2149.46 2375.35 2148.01L2560.94 1966.71C2578 1950.04 2601.87 1944.38 2624.75 1951.56C2646.96 1958.52 2662.81 1976.15 2667.14 1998.72C2681.62 2074.12 2663.56 2208.24 2495.32 2419.02C2494.92 2419.51 2494.55 2420.03 2494.21 2420.56C2492.14 2423.75 2443.96 2500.24 2464.27 2675.63Z" fill="#66142E"/>
<path d="M2697.7 2026.9C2835.76 1954.22 2842.1 1811.36 2842.3 1805.32L2803.26 1803.96C2803.06 1809.1 2797.03 1930.46 2679.51 1992.33L2697.7 2026.9Z" fill="#66142E"/>
<path d="M1823.08 2190.78C1820.54 2187.57 1818.73 2185.53 1816.56 2183.15C1814.48 2180.84 1812.37 2178.67 1810.25 2176.51C1806 2172.21 1801.64 2168.13 1797.21 2164.16C1788.3 2156.29 1779.06 2148.94 1769.52 2142.06C1750.43 2128.32 1730.14 2116.55 1709.17 2106.38C1698.66 2101.22 1688.06 2096.77 1677.11 2092.32C1665.94 2087.99 1654.43 2084.38 1642.65 2081.62C1619.15 2076.06 1594.33 2074.03 1569.87 2076.53C1557.57 2078.09 1545.15 2080.08 1533.02 2084.38C1526.9 2086.17 1521.01 2088.98 1515.11 2091.61C1512.18 2092.99 1509.4 2094.74 1506.55 2096.31L1502.31 2098.75L1498.28 2101.57C1487.4 2108.87 1477.82 2118.12 1469.83 2128.29C1461.83 2138.46 1455.12 2149.52 1450.15 2161.03C1440.04 2184.05 1434.91 2208.13 1432.84 2231.89C1431.79 2243.79 1431.46 2255.66 1431.75 2267.5C1431.9 2273.42 1432.2 2279.33 1432.68 2285.25C1433.17 2291.3 1433.73 2296.82 1434.77 2303.54C1436.2 2312.79 1444.02 2319.47 1453.04 2319.8H1453.25C1468.49 2320.36 1484.9 2318.56 1500.63 2311.43C1504.54 2309.65 1508.38 2307.53 1512.06 2305.03C1512.98 2304.41 1513.89 2303.77 1514.79 2303.09L1515.47 2302.58L1515.81 2302.33C1515.85 2302.3 1516.23 2302 1515.8 2302.35C1514.76 2303.14 1513.51 2303.85 1512.08 2304.39C1509.21 2305.5 1505.82 2305.68 1502.94 2304.94C1500.03 2304.22 1497.5 2302.73 1495.48 2300.59C1493.46 2298.47 1491.98 2295.53 1491.5 2292.53C1491.25 2291.06 1491.25 2289.59 1491.4 2288.31C1491.56 2287.25 1491.45 2288.07 1491.44 2288.14L1491.36 2288.79L1490.73 2293.96L1489.47 2304.3C1486.4 2331.85 1485.99 2359.9 1489.66 2387.49C1493.1 2415.09 1499.73 2442.25 1509.38 2468.31C1511.7 2474.86 1514.57 2481.2 1517.17 2487.65C1520.19 2493.93 1522.88 2500.34 1526.23 2506.48C1529.38 2512.7 1532.85 2518.79 1536.44 2524.85C1538.35 2527.86 1540.1 2530.87 1542.15 2533.86C1544.19 2536.94 1546.01 2539.63 1548.71 2543.19C1555.14 2551.64 1567.21 2553.28 1575.66 2546.86L1575.77 2546.78L1575.79 2546.76C1586.04 2538.85 1592.89 2529.91 1598.77 2520.97C1601.65 2516.47 1604.27 2511.92 1606.67 2507.3C1607.87 2504.99 1609.02 2502.66 1610.12 2500.29C1611.26 2497.83 1612.2 2495.72 1613.4 2492.71L1575.7 2484.06C1574.33 2501.12 1575.95 2517.81 1579.18 2533.72C1582.45 2549.63 1587.2 2564.92 1593.06 2579.51C1598.94 2594.09 1605.67 2608.12 1612.97 2621.74C1620.37 2635.28 1628.31 2648.41 1636.64 2661.22C1653.42 2686.73 1671.71 2710.98 1691.09 2734.18C1700.77 2745.79 1710.72 2757.16 1720.93 2768.3C1731.22 2779.5 1741.41 2790.23 1752.69 2801.18L1753.06 2801.54C1758.71 2807.02 1766.99 2808.16 1773.74 2805.06L1795.5 2794.97C1802.68 2791.46 1810.17 2788.56 1817.04 2784.43C1830.96 2776.52 1845.29 2769.31 1858.44 2760.1C1865.11 2755.65 1871.94 2751.45 1878.45 2746.77L1897.61 2732.23C1904.13 2727.55 1910.05 2722.11 1916.12 2716.87C1922.09 2711.52 1928.44 2706.57 1934 2700.76L1951.13 2683.84L1967.24 2665.94C1977.66 2653.73 1987.74 2641.19 1996.95 2628C2006.34 2614.95 2014.81 2601.22 2022.86 2587.21C2026.67 2580.05 2030.63 2573.02 2034.07 2565.59C2035.87 2561.95 2037.6 2558.22 2039.22 2554.39C2040.05 2552.49 2040.89 2550.63 2041.67 2548.61C2042.47 2546.6 2043.23 2544.78 2044.11 2542.28L2006.5 2539.73L2008.46 2548.63L2010.79 2557.54C2012.58 2563.49 2014.47 2569.44 2016.96 2575.38C2019.36 2581.32 2022.24 2587.26 2025.88 2593.17C2027.69 2596.12 2029.73 2599.07 2032.09 2602.02C2033.29 2603.5 2034.57 2604.99 2036.02 2606.49C2036.76 2607.26 2037.57 2608.03 2038.42 2608.82C2039.54 2609.77 2039.82 2610.16 2042.32 2611.93C2049.17 2616.77 2058.14 2616.39 2064.49 2611.6L2064.79 2611.37C2089.42 2592.77 2111.91 2571.09 2130.54 2546.51C2149.37 2522.08 2164.71 2495.19 2176.77 2467.13C2188.89 2439.06 2197.62 2409.77 2203.66 2380.06C2206.66 2365.19 2208.92 2350.19 2210.48 2335.09C2211.27 2327.54 2211.86 2319.96 2212.23 2312.33C2212.43 2308.52 2212.56 2304.69 2212.63 2300.82C2212.71 2296.86 2212.73 2293.29 2212.59 2288.73L2176.44 2299.8C2180.22 2305.64 2184.21 2311.34 2188.8 2316.39C2193.29 2321.54 2198.14 2326.27 2203.26 2330.57C2208.36 2334.9 2213.69 2338.88 2219.28 2342.46C2222.08 2344.25 2224.92 2345.97 2227.86 2347.6L2232.37 2349.99C2234 2350.81 2235.29 2351.45 2237.56 2352.44C2247.33 2356.69 2258.69 2352.23 2262.95 2342.46C2263.38 2341.47 2263.73 2340.46 2263.98 2339.44L2264.03 2339.24C2265.32 2333.96 2266.09 2329.76 2266.98 2325.06C2267.79 2320.49 2268.51 2315.92 2269.14 2311.35C2270.32 2302.2 2271.34 2293.04 2271.78 2283.8C2272.82 2265.36 2272.45 2246.7 2269.96 2228.01C2267.49 2209.34 2262.97 2190.58 2255.47 2172.56C2247.96 2154.6 2237.47 2137.29 2223.65 2122.74C2209.91 2108.12 2193.22 2096.49 2175.53 2088C2171.05 2086.04 2166.67 2083.66 2162.08 2082.1L2148.33 2077.38C2143.75 2075.76 2139.06 2074.99 2134.42 2073.77C2129.77 2072.7 2125.12 2071.39 2120.45 2070.87C2083.14 2064.63 2045.77 2066.42 2010.39 2071.23L1997.15 2073.14L1990.25 2074.19L1983.18 2075.5C1973.96 2077.4 1964.97 2079.64 1956.1 2082.28C1938.37 2087.48 1921.16 2094.24 1904.5 2102.2C1887.86 2110.19 1871.79 2119.51 1856.66 2130.28C1841.6 2141.13 1827.49 2153.38 1814.69 2166.9C1801.99 2180.48 1790.2 2195.04 1780.67 2211.02C1771.17 2226.99 1763.4 2243.9 1757.89 2261.44C1752.7 2279.04 1748.75 2296.91 1747.76 2314.98C1746.75 2323.92 1747.28 2333.01 1747.27 2341.9C1747.61 2350.83 1748.77 2359.75 1750 2368.52C1759.6 2334.2 1769.86 2301.75 1784.48 2271.99C1791.85 2257.16 1800.25 2243.1 1809.42 2229.7C1818.75 2216.39 1829.2 2203.94 1840.81 2192.64C1852.41 2181.33 1865.11 2171.14 1878.68 2162.18C1892.18 2153.12 1906.52 2145.23 1921.44 2138.53C1936.35 2131.84 1951.83 2126.31 1967.52 2121.78C1975.36 2119.53 1983.31 2117.65 1991.15 2116.12L1996.93 2115.11L2002.95 2114.27L2015.58 2112.58C2049.05 2108.01 2082.03 2106.84 2113.56 2111.69C2144.94 2116.51 2173.77 2129.17 2194.37 2150.46C2215.06 2171.76 2226.41 2201.74 2230.71 2233.29C2232.91 2249.1 2233.36 2265.41 2232.52 2281.72C2232.19 2289.88 2231.31 2298.04 2230.32 2306.15C2229.78 2310.2 2229.17 2314.24 2228.48 2318.24C2227.78 2322.09 2226.96 2326.45 2226.17 2329.63L2252.63 2316.43L2249.96 2315.15L2246.78 2313.46C2244.65 2312.28 2242.52 2310.99 2240.43 2309.66C2236.25 2306.99 2232.26 2303.99 2228.52 2300.82C2224.75 2297.67 2221.28 2294.25 2218.14 2290.66C2214.89 2287.12 2212.27 2283.25 2209.71 2279.38L2209.49 2279.04C2203.51 2270.02 2191.35 2267.55 2182.33 2273.53C2176.48 2277.4 2173.39 2283.92 2173.56 2290.45C2173.64 2293.15 2173.65 2296.86 2173.57 2300.17C2173.51 2303.57 2173.39 2307.01 2173.21 2310.46C2172.87 2317.35 2172.34 2324.27 2171.61 2331.18C2170.18 2345 2168.1 2358.79 2165.36 2372.43C2159.82 2399.69 2151.83 2426.44 2140.88 2451.78C2129.99 2477.13 2116.25 2501.14 2099.56 2522.79C2083.05 2544.59 2063.24 2563.63 2041.51 2580.08L2063.98 2579.52C2065.34 2580.48 2064.58 2579.95 2064.65 2579.98L2064.05 2579.4C2063.57 2578.9 2063.03 2578.28 2062.47 2577.58C2061.36 2576.17 2060.2 2574.53 2059.1 2572.73C2056.89 2569.14 2054.84 2565.02 2053.08 2560.62C2051.24 2556.28 2049.76 2551.58 2048.33 2546.86L2046.43 2539.59L2044.79 2532.15C2042.46 2521.56 2031.97 2514.87 2021.38 2517.2C2014.78 2518.65 2009.7 2523.27 2007.36 2529.1L2007.16 2529.6L2005.42 2534.06C2004.81 2535.64 2004.06 2537.29 2003.35 2538.93C2001.96 2542.21 2000.45 2545.48 1998.82 2548.75C1995.79 2555.33 1992.15 2561.75 1988.73 2568.21C1981.39 2580.95 1973.65 2593.53 1965.01 2605.52C1956.56 2617.64 1947.27 2629.18 1937.67 2640.44L1922.82 2656.95L1907 2672.55C1901.9 2677.93 1896 2682.46 1890.5 2687.42C1884.89 2692.25 1879.45 2697.3 1873.4 2701.6L1855.69 2715.05C1849.67 2719.38 1843.33 2723.24 1837.17 2727.37C1825.03 2735.93 1811.69 2742.56 1798.8 2749.92C1792.45 2753.78 1785.45 2756.44 1778.78 2759.7L1758.56 2769.1L1779.6 2772.97C1759.4 2753.21 1739.54 2731.34 1721.04 2709.21C1702.46 2686.97 1685.04 2663.84 1669.28 2639.88C1661.47 2627.86 1654.08 2615.64 1647.27 2603.2C1640.58 2590.71 1634.51 2578.01 1629.31 2565.13C1619.13 2539.42 1612.65 2512.5 1614.58 2487.4C1615.4 2476.63 1607.35 2467.23 1596.58 2466.41C1587.85 2465.74 1580.03 2470.91 1576.93 2478.63L1576.89 2478.75C1576.37 2480.04 1575.45 2482.18 1574.63 2483.93C1573.78 2485.77 1572.88 2487.6 1571.94 2489.4C1570.07 2493.01 1568.05 2496.51 1565.93 2499.82C1561.7 2506.38 1556.81 2512.15 1552.31 2515.58L1579.39 2519.14C1578.13 2517.47 1576.22 2514.74 1574.65 2512.34C1572.98 2509.92 1571.44 2507.24 1569.82 2504.7C1566.72 2499.46 1563.67 2494.14 1560.9 2488.63C1557.93 2483.24 1555.56 2477.51 1552.87 2471.96C1550.58 2466.22 1548.01 2460.59 1545.95 2454.75C1537.36 2431.54 1531.46 2407.35 1528.4 2382.81C1525.11 2358.28 1525.52 2333.37 1528.25 2308.8L1529.37 2299.58L1529.92 2294.97L1530.16 2293C1530.42 2290.9 1530.38 2288.61 1530.02 2286.32C1529.29 2281.7 1527.04 2277.22 1523.89 2273.91C1520.74 2270.58 1516.74 2268.22 1512.24 2267.11C1507.76 2265.98 1502.66 2266.25 1498.26 2267.94C1496.06 2268.78 1494.09 2269.89 1492.38 2271.17L1491.4 2271.89C1490.99 2272.21 1490.56 2272.5 1490.12 2272.8C1488.36 2273.99 1486.43 2275.06 1484.37 2276C1476.1 2279.8 1465.72 2281.3 1454.79 2280.87L1473.27 2297.13C1472.61 2292.84 1471.99 2287.28 1471.6 2282.22C1471.18 2277.04 1470.91 2271.82 1470.78 2266.61C1470.53 2256.18 1470.82 2245.75 1471.73 2235.46C1473.49 2214.89 1477.98 2194.84 1485.81 2177.03C1489.65 2168.07 1494.69 2159.97 1500.42 2152.65C1506.17 2145.33 1512.81 2138.89 1520.46 2133.81L1523.26 2131.81L1526.28 2130.12C1528.31 2129.03 1530.23 2127.74 1532.34 2126.77C1536.63 2124.93 1540.78 2122.83 1545.39 2121.54C1554.28 2118.31 1564.01 2116.82 1573.76 2115.52C1593.66 2113.5 1613.85 2115.1 1633.68 2119.78C1643.59 2122.1 1653.39 2125.17 1662.99 2128.89C1672.67 2132.84 1682.62 2136.99 1692.11 2141.67C1711.21 2150.93 1729.6 2161.61 1746.67 2173.9C1755.2 2180.05 1763.4 2186.59 1771.19 2193.46C1775.06 2196.92 1778.83 2200.45 1782.41 2204.07C1784.19 2205.89 1785.96 2207.7 1787.61 2209.54C1789.21 2211.26 1791.04 2213.44 1791.97 2214.58L1823.08 2190.78Z" fill="#66142E"/>
<path d="M2571.56 2590.87C2575 2598.85 2576.19 2607.28 2574.73 2614.37C2573.38 2621.53 2569.17 2626.97 2564.12 2631.52C2553.44 2640.45 2538.81 2646 2523.76 2650.34C2508.65 2654.78 2492.89 2657.98 2476.7 2660.85C2458.82 2664.16 2441.52 2669.44 2424.82 2675.85C2391.35 2688.69 2360.45 2706.45 2331.6 2726.56C2303.04 2747.07 2276.33 2769.82 2251.58 2794.34C2202.07 2843.41 2159.46 2898.56 2122.6 2956.9C2085.65 3015.21 2054.17 3076.7 2028.13 3140.2L2028.12 3140.23C2024.38 3148.1 2026.57 3157.26 2032.89 3162.67L2033.34 3163.05C2043.11 3171.39 2052.28 3178.45 2061.98 3185.68C2071.59 3192.81 2081.34 3199.71 2091.26 3206.35C2111.11 3219.59 2131.55 3231.91 2152.46 3243.44C2194.39 3266.24 2238.33 3285.71 2284.13 3300.33C2329.92 3314.85 2377.48 3324.84 2425.86 3328.37C2474.2 3331.83 2523.29 3328.74 2570.87 3318.28C2594.67 3313.15 2618.04 3306.09 2640.76 3297.44C2663.42 3288.62 2685.38 3278.18 2706.55 3266.45C2748.86 3242.85 2787.55 3213.57 2822.37 3180.72C2857.04 3147.68 2888.12 3111.39 2916.18 3073.19C2930.01 3053.95 2943.77 3034.68 2955.63 3014.21C2961.2 3003.77 2966.21 2992.98 2970.38 2981.78C2974.21 2970.38 2977.4 2958.66 2978.74 2946.05C2968.32 2953.51 2959.74 2961.85 2951.81 2970.53C2943.68 2979.07 2936.28 2987.97 2929.5 2997.24C2922.35 3006.25 2916.09 3015.83 2909.43 3025.14C2902.55 3034.27 2895.92 3043.59 2888.85 3052.55C2860.75 3088.52 2830.02 3122.26 2796.4 3152.46C2779.37 3167.28 2761.96 3181.62 2743.64 3194.6C2725.27 3207.46 2706.47 3219.73 2686.67 3230.05C2666.95 3240.49 2646.63 3249.69 2625.77 3257.36C2604.84 3264.84 2583.45 3270.85 2561.75 3275.44C2518.34 3284.62 2473.58 3287.1 2429.16 3283.56C2384.71 3280.25 2340.53 3271.26 2297.63 3257.72C2254.67 3244.33 2212.9 3226.56 2172.76 3205.53C2152.68 3195.04 2132.97 3183.76 2113.84 3171.61C2104.25 3165.57 2094.75 3159.39 2085.46 3152.96C2076.27 3146.62 2066.78 3139.75 2058.63 3133.26L2063.85 3156.07L2063.86 3156.05C2092.87 3095.8 2124.56 3037.03 2160.55 2981.17C2178.55 2953.26 2197.71 2926.16 2217.85 2899.91C2238.1 2873.74 2259.85 2848.87 2282.6 2825.12C2305.39 2801.4 2329.9 2779.51 2355.88 2759.87C2381.81 2740.25 2409.43 2722.9 2438.79 2710.28C2453.44 2703.96 2468.49 2698.7 2483.81 2695.23C2500.76 2691.23 2517.98 2686.2 2534.51 2678.51C2542.76 2674.7 2550.91 2670.19 2558.59 2664.59C2566.24 2659.01 2573.56 2652.26 2579.12 2643.69C2581.82 2639.32 2584 2634.55 2585.26 2629.49C2586.47 2624.4 2586.58 2619.11 2585.76 2614.2C2584.01 2604.29 2578.48 2596.19 2571.56 2590.87Z" fill="#66142E"/>
<path d="M2978.75 3130.6C2981.36 3130.6 2983.96 3130.08 2986.4 3129.04C2991.21 3126.99 2994.99 3123.1 2996.92 3118.24C3000.95 3108.02 3094.63 2865.8 2999.07 2671.12C2954.24 2579.77 2875.14 2514.63 2763.78 2477.22C2770.73 2463.36 2778.43 2444.67 2781.05 2425.84C2782.29 2416.9 2777.25 2408.28 2768.85 2404.97C2764.3 2403.18 2655.54 2361.69 2504.33 2412.71L2516.82 2449.72C2621.81 2414.29 2705 2428.03 2738.54 2436.55C2731.56 2458.24 2718.75 2477.46 2718.59 2477.7C2715.11 2482.88 2714.31 2489.41 2716.44 2495.27C2718.57 2501.13 2723.37 2505.63 2729.35 2507.37C2842.09 2540.04 2921.01 2600.86 2963.91 2688.15C3035.52 2833.83 2988.98 3016.17 2968.66 3080.3C2950.31 3059.55 2947.97 3026.13 2947.94 3025.7L2908.94 3027.95C2909.12 3031.11 2913.94 3105.59 2971.32 3129.12C2973.72 3130.11 2976.24 3130.6 2978.75 3130.6Z" fill="#66142E"/>
<path d="M2078.34 3061.48L2109.78 3038.29C2040.8 2944.76 2053.38 2841.17 2088.17 2775.41C2111.82 2730.7 2146.59 2702.54 2176.2 2703.67C2256.21 2706.69 2282.64 2779.83 2283.73 2782.94L2320.69 2770.3C2319.28 2766.15 2284.94 2668.68 2177.67 2664.64C2132.24 2662.96 2084.72 2698.38 2053.63 2757.16C2013.3 2833.4 1998.62 2953.39 2078.34 3061.48Z" fill="#66142E"/>
<path d="M2077.97 2998.69C2018.83 2984.44 1959.98 2973.93 1900.2 2965.84C1840.51 2957.93 1780.31 2952.8 1719.69 2951.8C1659.11 2951.07 1597.97 2954.04 1537.19 2965.79C1529.59 2967.09 1522.04 2969.03 1514.48 2970.75C1506.9 2972.37 1499.4 2974.57 1491.88 2976.7C1484.34 2978.67 1476.9 2981.21 1469.46 2983.76L1458.71 2987.42C1455.82 2988.48 1452.86 2989.35 1449.89 2990.14C1437.99 2993.29 1425.57 2994.36 1413.4 2993.35C1407.23 2992.77 1401.48 2991.9 1395.23 2990.11C1392.14 2989.18 1388.91 2988.59 1385.91 2987.42L1376.8 2984.2C1364.96 2979.24 1353.84 2972.92 1343.72 2965.22C1333.95 2957.12 1324.58 2948.35 1317.17 2937.68C1301.77 2916.85 1291.62 2891.48 1285.42 2864.68L1283.23 2854.55C1282.49 2851.18 1281.67 2847.82 1281.37 2844.31L1278.72 2823.46C1277.83 2816.51 1277.91 2809.34 1277.44 2802.28C1277.15 2795.19 1276.52 2788.14 1276.91 2780.96C1277.33 2766.64 1277.14 2752.35 1278.78 2737.95L1280.55 2716.37C1280.79 2712.61 1281.21 2709.59 1281.7 2706.33C1282.19 2703.12 1282.79 2699.94 1283.52 2696.82C1289.01 2672.15 1303.2 2649.16 1322.96 2637.33C1332.76 2631.18 1344.32 2628.23 1356.55 2627.28C1368.91 2626.66 1381.97 2628.19 1394.16 2631.91C1406.43 2635.61 1418.17 2641.41 1428.76 2648.95C1434.1 2652.76 1438.94 2656.82 1443.84 2661.57C1448.74 2666.31 1453.37 2671.29 1457.69 2676.48C1466.22 2686.95 1474.13 2697.58 1481.74 2708.91C1489.44 2720.29 1496.24 2732.43 1504.28 2746.92C1510.72 2731.68 1510.87 2714.36 1506.87 2698.36C1503.02 2682.18 1494.87 2667.39 1484.81 2654.65C1479.76 2648.27 1474.38 2642.22 1468.71 2636.48C1463.06 2630.72 1456.62 2625.01 1449.94 2620.04C1436.51 2610 1421.41 2602.05 1405.29 2596.78C1389.11 2591.49 1372.23 2588.98 1354.84 2589.46C1337.47 2590.25 1319.19 2594.44 1303.42 2603.73C1287.43 2612.65 1274.53 2625.86 1264.71 2640.14C1254.93 2654.34 1247.89 2670.79 1243.79 2687.14C1242.74 2691.25 1241.86 2695.37 1241.13 2699.5C1240.41 2703.58 1239.75 2707.93 1239.43 2711.59L1237.09 2734.47C1235.17 2749.66 1235.09 2765.18 1234.46 2780.61C1233.96 2788.3 1234.49 2796.13 1234.71 2803.91C1235.11 2811.71 1234.97 2819.48 1235.83 2827.3L1238.48 2850.79C1238.8 2854.71 1239.65 2858.62 1240.44 2862.53L1242.8 2874.26C1249.57 2905.39 1261.22 2936.71 1280.89 2964.15C1290.4 2978.02 1302.58 2990.21 1315.7 3001.04C1329.22 3011.49 1344.1 3020.02 1359.72 3026.58L1371.63 3030.89C1375.59 3032.39 1379.7 3033.26 1383.74 3034.45C1391.79 3036.77 1400.8 3038.3 1409.44 3039.1C1426.92 3040.64 1444.6 3039.17 1461.51 3034.8C1465.73 3033.7 1469.92 3032.47 1474.04 3031.01L1484.44 3027.53C1491.1 3025.28 1497.75 3023.03 1504.63 3021.28C1511.45 3019.39 1518.24 3017.41 1525.23 3015.97C1532.19 3014.43 1539.08 3012.67 1546.16 3011.5C1602.35 3000.4 1660.81 2997.19 1719.19 2997.69C1777.66 2998.08 1836.36 3002.35 1894.82 3009.15C1924.07 3012.47 1953.26 3016.5 1982.35 3021.14C2011.37 3025.65 2040.71 3030.75 2069 3036.7L2077.97 2998.69Z" fill="#66142E"/>
<path d="M2248.7 2708.65L2252.99 2702.97C2254.62 2700.91 2256.24 2698.8 2257.99 2696.76C2261.37 2692.58 2265.08 2688.64 2268.76 2684.63C2276.31 2676.82 2284.48 2669.53 2293.44 2663.1C2297.9 2659.8 2302.61 2656.95 2307.44 2654.02C2312.41 2651.6 2317.35 2648.47 2322.73 2646.55C2333.31 2641.61 2344.81 2638.91 2357.2 2635.71C2345.37 2631.63 2332.33 2628.95 2319.2 2629.75C2315.87 2629.7 2312.58 2629.97 2309.32 2630.5C2306.06 2631 2302.68 2631.31 2299.42 2632.02C2293.02 2633.7 2286.36 2635.18 2280.2 2637.84C2267.66 2642.68 2255.68 2649.27 2244.96 2657.47C2239.59 2661.56 2234.49 2666 2229.69 2670.81C2227.32 2673.24 2224.94 2675.69 2222.75 2678.35C2220.43 2681.09 2218.55 2683.49 2216.05 2687.2L2248.7 2708.65Z" fill="#66142E"/>
<path d="M1360.2 2610.53C1360.2 2610.93 1360.29 2609.52 1360.42 2608.78C1360.49 2607.94 1360.74 2606.87 1360.88 2605.92C1361.3 2603.93 1361.7 2601.87 1362.32 2599.78C1363.41 2595.61 1364.98 2591.38 1366.65 2587.18C1370.1 2578.78 1374.64 2570.59 1379.77 2562.69C1384.87 2554.75 1390.93 2547.28 1397.26 2540.01C1400.44 2536.38 1403.94 2532.97 1407.25 2529.43L1417.95 2519.38L1417.96 2519.37L1418.47 2518.89C1422.38 2515.2 1424.41 2510.2 1424.53 2505.22C1425.03 2480 1425.02 2454.78 1424.64 2429.54C1424.26 2404.3 1423.62 2379.06 1422.66 2353.81C1421.87 2328.56 1420.53 2303.31 1418.99 2278.04C1417.33 2252.77 1415.16 2227.5 1412.19 2202.2C1408.02 2227.33 1404.65 2252.48 1401.8 2277.63C1399.06 2302.79 1396.52 2327.96 1394.54 2353.14C1392.38 2378.32 1390.55 2403.5 1388.97 2428.69C1387.39 2453.88 1386.19 2479.08 1385.49 2504.29L1392.05 2490.14L1392.04 2490.15L1379.75 2501.69C1375.87 2505.81 1371.84 2509.76 1368.09 2514.04C1360.61 2522.61 1353.41 2531.52 1347.11 2541.28C1340.8 2551 1335.09 2561.27 1330.54 2572.33C1328.3 2577.89 1326.23 2583.54 1324.64 2589.55C1323.79 2592.5 1323.12 2595.6 1322.49 2598.76C1322.22 2600.41 1321.9 2601.91 1321.7 2603.69C1321.47 2605.55 1321.28 2606.76 1321.15 2609.78L1360.2 2610.53Z" fill="#66142E"/>
<path d="M1391.05 2417.79L1423.6 2396.19C1166.45 2008.55 1236.26 1822.86 1236.99 1821.03L1200.92 1806.05C1197.5 1814.17 1120.43 2009.84 1391.05 2417.79Z" fill="#66142E"/>
<path d="M1943.04 1864.19L2015.17 1841.51C2038.31 1834.36 2060.74 1827.29 2083.23 1821.57L2091.59 1819.32L2100.02 1817.39L2116.73 1813.5C2127.97 1811.46 2138.94 1808.79 2150.07 1807.17C2155.48 1806.38 2160.79 1805.09 2166.18 1804.39C2170.96 1803.77 2175.76 1803.3 2180.5 1802.39C2192.33 1800.12 2204.27 1799.65 2216.07 1797.28L2226.29 1795.23C2237.16 1793.05 2246.65 1785.99 2251.11 1775.85C2267.92 1737.62 2239.92 1705.92 2208.37 1708.17C2181.34 1710.07 2154.4 1714.77 2128.87 1723.38C2115.93 1727.11 2103.6 1732.56 2091.25 1737.6C2085.13 1740.28 2079.21 1743.42 2073.22 1746.3C2067.2 1749.12 2061.42 1752.45 2055.68 1755.77C2044.1 1762.23 2033.06 1769.54 2022.25 1777.02C2016.95 1780.96 2011.75 1785.01 2006.6 1789.07C2001.51 1793.24 1996.6 1797.65 1991.75 1802.06C1972.67 1820.06 1955.15 1840.16 1943.04 1864.19Z" fill="#66142E"/>
<path d="M1694 1869.58C1691.33 1858.23 1686.84 1847.63 1681.84 1837.38C1676.8 1827.14 1670.96 1817.33 1664.52 1807.95C1651.71 1789.08 1636.23 1772.21 1619.22 1756.83C1610.89 1748.9 1601.71 1741.93 1592.6 1734.8C1583.12 1728.21 1573.73 1721.3 1563.5 1715.71C1541.62 1702.66 1517.62 1692.8 1492.85 1686.12C1484.44 1683.85 1475.28 1685.17 1468.35 1690.44C1438.42 1713.21 1447.56 1750.14 1473.66 1760.81L1475.95 1761.73C1493.74 1768.93 1512.06 1774.57 1529.84 1782.49C1538.94 1785.95 1547.71 1790.27 1556.81 1794.1L1570.19 1800.53C1574.71 1802.62 1579.19 1804.83 1583.59 1807.22C1601.51 1816.28 1619.12 1826.47 1637.33 1836.86L1694 1869.58Z" fill="#66142E"/>
<path d="M1771.69 1907.63H1847.18C1865.01 1907.63 1876.08 1927.05 1866.96 1942.37C1855.68 1961.33 1836.3 1980.98 1804.42 1980.98C1804.42 1980.98 1769.63 1979.65 1750.88 1940.43C1743.61 1925.23 1754.85 1907.63 1771.69 1907.63Z" fill="#66142E"/>
<path d="M1793.21 1940.95C1792.61 1943.26 1792.38 1944.51 1792.03 1946.22C1791.73 1947.81 1791.46 1949.38 1791.23 1950.94C1790.75 1954.07 1790.46 1957.19 1790.3 1960.32C1789.96 1966.57 1790.1 1972.88 1790.88 1979.2C1792.26 1991.83 1796.3 2004.58 1802.96 2016.08C1809.69 2027.53 1819.24 2037.35 1829.96 2044.42C1840.69 2051.56 1852.4 2056.13 1863.99 2059.16C1875.64 2062.22 1887.18 2063.38 1898.82 2063.98C1902.66 2064.04 1905.36 2063.87 1908.52 2063.55C1911.58 2063.28 1914.58 2062.82 1917.58 2062.24C1923.57 2061.12 1929.47 2059.21 1935.17 2056.79C1938.01 2055.5 1940.76 2053.97 1943.45 2052.39C1946.03 2050.51 1948.75 2049.03 1951.07 2046.8C1953.44 2044.67 1955.77 2042.59 1957.63 2039.99L1960.49 2036.27C1961.42 2035.03 1962.07 2033.57 1962.83 2032.23C1968.68 2021.2 1969.67 2009.02 1967.66 1998.17C1963.91 2008.71 1959.12 2018.05 1952.19 2024.47C1951.32 2025.27 1950.64 2026.19 1949.69 2026.87L1946.87 2028.89C1945.17 2030.37 1942.92 2031.19 1941.02 2032.35C1939.16 2033.54 1936.81 2034.12 1934.81 2035.04C1932.63 2035.74 1930.4 2036.3 1928.21 2036.89C1923.69 2037.83 1919.12 2038.6 1914.41 2038.8C1912.08 2038.92 1909.72 2039.04 1907.4 2038.96C1905.18 2038.95 1902.5 2038.74 1900.96 2038.52C1891.18 2036.93 1881.41 2034.49 1872.44 2031.33C1854.37 2024.91 1839.81 2014.15 1832.2 1999.54C1828.35 1992.23 1825.94 1984 1824.96 1975.24C1824.5 1970.87 1824.29 1966.38 1824.43 1961.88C1824.51 1959.63 1824.67 1957.38 1824.86 1955.17L1825.24 1951.9L1825.65 1949.26L1793.21 1940.95Z" fill="#66142E"/>
<path d="M1794.28 1951.05C1792.89 1957.88 1791.23 1965.89 1789.25 1973.07C1787.31 1980.41 1784.89 1987.47 1782.16 1994.1C1776.48 2007.32 1768.92 2018.16 1758.79 2023.36C1756.26 2024.81 1753.5 2025.67 1750.45 2026.46C1747.06 2026.99 1743.58 2027.97 1740.17 2028.06C1733.26 2028.83 1726.3 2028.4 1719.32 2026.69C1705.27 2023.51 1691.26 2015.12 1678.85 2003.1C1680.74 2011.68 1684.97 2019.71 1690.48 2026.96C1696.01 2034.23 1703.25 2040.51 1711.68 2045.31C1720.12 2050.03 1729.86 2053.08 1739.67 2053.82C1744.63 2054.59 1749.45 2054.03 1754.4 2053.99C1759.59 2053.47 1765.06 2052.44 1770.18 2050.46C1780.58 2046.74 1789.59 2039.8 1796.4 2032.05C1803.3 2024.23 1808.13 2015.49 1811.9 2006.71C1815.67 1997.92 1818.14 1988.92 1819.85 1979.93C1820.65 1975.42 1821.37 1970.93 1821.71 1966.39C1822.11 1961.76 1822.31 1957.53 1822.14 1952.36L1794.28 1951.05Z" fill="#66142E"/>
<path d="M2662.79 1849.83C2763.46 1849.83 2842.31 1718.11 2842.31 1549.96C2842.31 1381.81 2763.45 1250.09 2662.79 1250.09C2562.12 1250.09 2483.27 1381.81 2483.27 1549.96C2483.27 1718.12 2562.13 1849.83 2662.79 1849.83ZM2662.79 1289.16C2738.93 1289.16 2803.25 1408.59 2803.25 1549.96C2803.25 1691.33 2738.93 1810.76 2662.79 1810.76C2586.65 1810.76 2522.33 1691.33 2522.33 1549.96C2522.33 1408.6 2586.65 1289.16 2662.79 1289.16Z" fill="#66142E"/>
<path d="M2662.79 1802.48C2744.24 1802.48 2810.51 1689.2 2810.51 1549.97C2810.51 1410.73 2744.24 1297.45 2662.79 1297.45C2581.33 1297.45 2515.07 1410.73 2515.07 1549.97C2515.07 1689.2 2581.34 1802.48 2662.79 1802.48ZM2662.79 1339.25C2727.34 1339.25 2779.85 1433.78 2779.85 1549.97C2779.85 1666.16 2727.34 1760.69 2662.79 1760.69C2598.24 1760.69 2545.73 1666.16 2545.73 1549.97C2545.73 1433.78 2598.24 1339.25 2662.79 1339.25Z" fill="#BABBBE"/>
<path d="M697.169 1221.42C711.669 1261.75 741.9 1282.89 782.86 1290.37C783.04 1290.4 783.229 1290.42 783.419 1290.48C786.739 1291.12 791.369 1292.32 792.979 1287.86C794.519 1283.7 790.549 1281.1 787.709 1278.55C773.849 1266.38 761.409 1252.98 751.689 1237.23C727.119 1197.41 729.189 1159.92 758.479 1123.53C770.799 1108.23 784.259 1093.95 803.649 1083.37L807.34 1111.05C816.19 1177.53 826.829 1243.83 833.259 1310.56C837.309 1352.59 868.559 1375.15 905.419 1381.03C938.839 1386.33 968.779 1376.47 993.419 1352.73C1009.49 1337.22 1015.76 1317.89 1014.16 1295.81C1013.81 1294.12 1013.46 1292.46 1013.1 1290.78C995.43 1241.43 940.07 1228.91 895.59 1242.8C879.28 1247.9 879.559 1248.32 877.409 1232.11C866.559 1150.42 855.629 1068.78 844.729 987.119C843.999 981.609 843.169 976.179 839.509 971.599C833.479 964.019 825.81 959.819 816.85 960.499C815.44 960.609 814 960.829 812.52 961.179C802.35 963.649 796.129 971.539 793.749 981.449C786.839 1010.33 740.759 1057.08 737.179 1060.84C711.549 1087.66 691.8 1117.63 688.54 1155.93C686.12 1173.59 692.239 1207.69 697.169 1221.42Z" fill="#FF2465"/>
<g opacity="0.6">
<path d="M904.295 1279.22C903.532 1266.9 917.235 1256.02 934.903 1254.92C952.57 1253.83 967.51 1262.93 968.273 1275.26C969.037 1287.59 955.333 1298.46 937.666 1299.56C919.999 1300.65 905.058 1291.55 904.295 1279.22Z" fill="white"/>
</g>
<g opacity="0.6">
<path d="M697.169 1221.42C711.669 1261.75 741.899 1282.89 782.859 1290.37C783.039 1290.4 783.229 1290.42 783.419 1290.48C780.799 1289.25 778.179 1288 775.549 1286.72C762.659 1280.44 749.929 1272.62 738.669 1263.85C719.649 1249.05 708.899 1215.49 708.279 1191.39C707.659 1167.5 716.449 1141.03 728.939 1119.66C745.159 1091.89 767.449 1068.75 784.289 1041.6C798.739 1018.26 817.409 989.62 816.839 960.5C815.429 960.61 813.989 960.83 812.509 961.18C802.339 963.65 796.119 971.54 793.739 981.45C786.829 1010.33 740.749 1057.08 737.169 1060.84C711.539 1087.66 691.789 1117.63 688.529 1155.93C686.119 1173.59 692.239 1207.69 697.169 1221.42Z" fill="white"/>
</g>
<path d="M922.679 1397.4C952.869 1397.4 980.609 1385.88 1003.81 1363.52C1022.58 1345.42 1031.09 1322.28 1029.09 1294.72C1029.04 1294.05 1028.95 1293.38 1028.81 1292.73L1027.77 1287.75C1027.63 1287.07 1027.44 1286.4 1027.2 1285.74C1006.48 1227.82 942.309 1212.93 892.009 1228.22C882.879 1159.48 873.689 1090.75 864.499 1022.02L859.569 985.13C858.779 979.21 857.589 970.24 851.239 962.26C840.259 948.47 824.869 942.77 808.989 946.6C793.929 950.24 783.049 961.66 779.149 977.94C775.649 992.55 755.689 1020.04 727.059 1049.69L726.309 1050.46C705.699 1072.04 677.819 1106.27 673.609 1154.29C670.949 1174.89 677.399 1210.7 683.069 1226.48C698.619 1269.75 731.289 1296.2 780.169 1305.11L780.959 1305.26C799.159 1308.91 805.289 1297.9 807.069 1292.99C810.339 1284.04 807.429 1275.63 798.429 1268.02L797.599 1267.31C783.239 1254.67 772.389 1242.26 764.439 1229.36C743.139 1194.85 744.959 1164.21 770.149 1132.93C776.549 1124.98 783.559 1116.9 792.009 1109.62L792.459 1113.03C795.099 1132.84 797.889 1152.63 800.689 1172.43C807.149 1218.16 813.829 1265.44 818.299 1311.98C822.609 1356.73 854.289 1388.07 903.039 1395.81C909.689 1396.87 916.249 1397.4 922.679 1397.4ZM999.249 1297.84C1000.34 1315.91 995.019 1330.34 982.999 1341.92C961.589 1362.56 936.289 1370.72 907.759 1366.2C891.239 1363.58 852.359 1352.76 848.159 1309.11C843.619 1261.91 836.889 1214.29 830.389 1168.23C827.599 1148.52 824.819 1128.8 822.189 1109.07L818.499 1081.38C817.849 1076.48 814.819 1072.22 810.419 1069.99C806.009 1067.75 800.799 1067.83 796.459 1070.2C774.019 1082.45 758.759 1099.28 746.809 1114.13C713.489 1155.51 710.839 1199.57 738.939 1245.11C743.179 1251.98 748.049 1258.69 753.609 1265.31C733.359 1255.11 719.409 1238.9 711.299 1216.34C706.859 1203.99 701.439 1172.25 703.389 1157.95C703.419 1157.7 703.449 1157.45 703.469 1157.2C706.019 1127.29 719.759 1100.76 748.009 1071.18L748.639 1070.53C768.099 1050.38 801.729 1012.46 808.329 984.93C810.189 977.17 814.599 976.1 816.049 975.75C818.129 975.25 822.439 974.21 827.799 980.94C828.889 982.31 829.369 985.31 829.869 989.09L834.799 1025.99C844.069 1095.35 853.349 1164.71 862.559 1234.07L862.649 1234.74C863.999 1244.91 865.069 1252.94 873.019 1258.01C880.979 1263.09 888.789 1260.65 898.679 1257.55L900.079 1257.11C936.909 1245.61 983.729 1255.03 998.659 1294.91L999.249 1297.84Z" fill="#66142E"/>
<g opacity="0.3">
<path d="M738.829 1240.06C750.819 1261.56 769.939 1278.67 792.639 1288.66C792.759 1288.41 792.879 1288.16 792.999 1287.86C794.509 1283.68 790.569 1281.07 787.699 1278.56C773.869 1266.38 761.399 1252.99 751.699 1237.24C727.129 1197.42 729.189 1159.93 758.489 1123.54C770.779 1108.25 784.239 1093.96 803.649 1083.36L807.339 1111.06C816.189 1177.54 826.809 1243.85 833.239 1310.55C837.289 1352.61 868.559 1375.16 905.399 1381.02C938.829 1386.32 968.759 1376.49 993.399 1352.75C1009.49 1337.23 1015.73 1317.88 1014.14 1295.83C1013.79 1294.14 1013.44 1292.48 1013.08 1290.8C1009.73 1281.39 1004.99 1273.33 999.249 1266.54C1006.48 1306.44 950.389 1340.14 911.809 1327.56C871.649 1314.44 857.959 1263.32 853.079 1226.44C844.989 1165.11 836.629 1100.39 825.329 1038.86C810.709 1049.29 760.029 1106.92 748.719 1124.9C729.399 1155.62 720.409 1207.02 738.829 1240.06Z" fill="#66142E"/>
</g>
<path d="M2948.96 997.292C2964.61 1032.1 3006.53 1055.46 3042.55 1049.46C3066.66 1045.44 3082.99 1029.31 3085.69 1006.64C3085.72 1006.4 3085.76 1006.16 3085.78 1005.92C3087.05 993.892 3084.22 982.572 3078.95 971.792C3062.65 938.422 3022.68 916.512 2987.42 921.662C2985.18 921.992 2982.95 922.432 2981.69 922.652C2983.78 910.662 2985.57 898.452 2988.08 886.392C2989.12 881.382 2990.17 876.392 2991.23 871.382C2997.23 842.932 3003.43 814.522 3009.47 786.092C3010.56 780.962 3012.01 776.072 3015.67 772.132C3020.25 767.212 3025.84 766.372 3031.54 769.972C3081.79 801.682 3132.05 833.372 3182.21 865.232C3191.08 870.862 3193.47 880.152 3193.57 889.962C3193.68 900.262 3190.13 910.012 3188.02 919.962C3179.66 959.442 3170.98 998.862 3162.43 1038.3C3161.13 1044.28 3160.03 1050.3 3158.78 1056.28C3157.88 1060.57 3156.91 1064.83 3155.75 1069.04C3154.69 1072.85 3153.99 1076.6 3153.61 1080.29C3152.12 1094.93 3155.88 1108.66 3164.37 1121.27C3184.9 1151.82 3213.42 1167.97 3250.85 1164.45C3270.81 1162.57 3286.07 1152.34 3293.38 1132.9C3298.08 1120.39 3297.36 1108.08 3293.29 1096.12C3292.24 1093.06 3290.98 1090.02 3289.52 1087.01C3273.74 1054.27 3233.82 1030.95 3197.34 1036.68C3194.31 1037.16 3194.38 1036.15 3194.88 1033.85C3202.48 999.342 3210.04 964.832 3217.59 930.312C3220.43 917.342 3223.28 904.372 3226.11 891.392C3228.58 880.092 3231.03 868.792 3233.48 857.482C3235.23 849.362 3234.21 841.502 3230.59 834.002C3228.74 830.172 3226.1 827.052 3222.49 824.732C3156.33 782.282 3090.18 739.812 3024.02 697.352C3011.44 689.282 3001.96 693.302 2998.61 708.152C2997.62 712.522 2996.65 716.902 2995.68 721.272C2994.2 727.982 2992.73 734.682 2991.28 741.392C2987.99 756.572 2984.71 771.752 2981.42 786.942C2977.57 804.702 2973.73 822.462 2969.89 840.222C2967.3 852.202 2964.71 864.182 2962.12 876.162C2956.29 903.112 2950.66 930.122 2944.57 957.012C2941.41 971.072 2943.14 984.342 2948.96 997.292Z" fill="#FDD800"/>
<path d="M3012.42 693.262C3005.74 693.262 3000.85 698.342 2998.64 708.152C2996.15 719.222 2993.71 730.302 2991.31 741.392C2981.58 786.312 2971.87 831.242 2962.16 876.162C2956.33 903.112 2950.7 930.112 2944.6 957.012C2941.41 971.072 2943.14 984.352 2948.96 997.292C2962.96 1028.43 2997.97 1050.4 3030.98 1050.4C3034.88 1050.4 3038.74 1050.09 3042.55 1049.46C3066.91 1045.4 3083.34 1028.98 3085.79 1005.92C3087.07 993.892 3084.22 982.572 3078.96 971.792C3064.26 941.692 3030.28 920.912 2997.89 920.912C2994.37 920.912 2990.88 921.152 2987.43 921.662C2985.19 921.992 2982.96 922.432 2981.7 922.652C2983.79 910.662 2985.57 898.452 2988.09 886.392C2995.07 852.922 3002.37 819.532 3009.48 786.092C3010.57 780.962 3012.01 776.062 3015.68 772.132C3018.38 769.242 3021.42 767.752 3024.63 767.752C3026.88 767.752 3029.21 768.482 3031.56 769.962C3081.81 801.672 3132.08 833.362 3182.23 865.232C3191.09 870.862 3193.49 880.152 3193.59 889.962C3193.7 900.262 3190.15 910.022 3188.04 919.962C3179.67 959.442 3171 998.862 3162.45 1038.31C3160.23 1048.56 3158.56 1058.95 3155.77 1069.04C3150.55 1087.92 3153.77 1105.47 3164.39 1121.27C3183.06 1149.05 3208.34 1164.92 3240.92 1164.92C3244.17 1164.92 3247.48 1164.76 3250.87 1164.44C3270.83 1162.56 3286.09 1152.32 3293.4 1132.89C3299.31 1117.18 3296.66 1101.76 3289.54 1087C3275.37 1057.6 3241.74 1035.8 3208.62 1035.8C3204.85 1035.8 3201.09 1036.08 3197.36 1036.67C3196.87 1036.75 3196.46 1036.79 3196.12 1036.79C3194.37 1036.79 3194.48 1035.77 3194.9 1033.84C3202.5 999.332 3210.06 964.822 3217.62 930.302C3222.93 906.032 3228.26 881.762 3233.5 857.472C3235.25 849.352 3234.23 841.492 3230.61 833.992C3228.76 830.162 3226.12 827.032 3222.51 824.722C3156.35 782.262 3090.2 739.792 3024.04 697.332C3019.77 694.602 3015.86 693.262 3012.42 693.262ZM3012.42 662.832C3021.83 662.832 3031.27 665.832 3040.49 671.742L3137.07 733.732L3238.95 799.122C3247.23 804.432 3253.65 811.722 3258.02 820.782C3264.59 834.392 3266.4 849.312 3263.25 863.902C3258.77 884.682 3254.22 905.452 3249.67 926.222L3247.35 936.822C3242.16 960.512 3236.98 984.202 3231.78 1007.88C3267.8 1015.59 3300.94 1040.56 3316.96 1073.8C3328.58 1097.92 3330.24 1121.4 3321.89 1143.61C3310.81 1173.08 3285.96 1191.72 3253.72 1194.75C3249.42 1195.16 3245.11 1195.36 3240.92 1195.36C3199.44 1195.36 3164.24 1175.61 3139.13 1138.25C3123.33 1114.75 3118.94 1088.01 3126.43 1060.93C3128 1055.25 3129.22 1049.08 3130.52 1042.55C3131.23 1038.98 3131.94 1035.41 3132.7 1031.86C3135.25 1020.09 3137.81 1008.32 3140.37 996.552C3146.28 969.382 3152.4 941.282 3158.26 913.652C3158.98 910.262 3159.78 907.132 3160.54 904.102C3161.9 898.762 3163.18 893.712 3163.14 890.272C3163.14 889.842 3163.12 889.472 3163.11 889.142C3120.73 862.222 3077.62 835.012 3035.78 808.612C3034.26 815.682 3032.74 822.762 3031.22 829.832C3026.82 850.322 3022.26 871.512 3017.92 892.342C3055.1 899.212 3089.71 924.482 3106.29 958.432C3114.54 975.322 3117.82 992.372 3116.04 1009.12C3112.18 1045.56 3085.29 1073.18 3047.54 1079.47C3042.15 1080.37 3036.57 1080.83 3030.97 1080.83C2985.15 1080.83 2940.01 1051.61 2921.2 1009.77C2912.48 990.382 2910.36 970.362 2914.92 950.282C2919.15 931.612 2923.25 912.482 2927.2 893.982C2928.93 885.902 2930.66 877.812 2932.41 869.732L2938.01 843.852C2945.86 807.552 2953.71 771.252 2961.57 734.952C2963.99 723.782 2966.44 712.612 2968.95 701.462C2975.36 672.982 2995.61 662.832 3012.42 662.832Z" fill="#66142E"/>
<g opacity="0.6">
<path d="M2995.71 721.272C3009.67 701.612 3021.98 710.512 3021.98 710.512C3021.98 710.512 3186.63 816.812 3213.71 835.532C3225.32 843.562 3227.46 867.112 3226.13 891.402C3228.6 880.102 3231.05 868.802 3233.5 857.492C3235.25 849.372 3234.23 841.512 3230.61 834.012C3228.76 830.182 3226.12 827.062 3222.51 824.742C3156.35 782.292 3090.2 739.822 3024.04 697.362C3011.46 689.292 3001.98 693.312 2998.63 708.162C2997.65 712.512 2996.68 716.892 2995.71 721.272Z" fill="white"/>
</g>
<g opacity="0.3">
<path d="M2948.96 997.292C2964.61 1032.1 3006.53 1055.46 3042.55 1049.46C3066.66 1045.44 3082.99 1029.31 3085.69 1006.64C3072.51 1010.64 3042.22 1015.91 3006.62 996.032C2989.41 986.422 2957.94 957.342 2961.42 937.392C2971.19 881.342 2984.61 794.512 2989.86 760.912C2987.27 772.892 2964.74 864.172 2962.15 876.162C2956.32 903.112 2950.69 930.122 2944.6 957.012C2941.41 971.072 2943.14 984.342 2948.96 997.292Z" fill="#66142E"/>
</g>
<g opacity="0.3">
<path d="M2991.23 871.372C2997.23 842.922 3003.43 814.512 3009.47 786.082C3010.56 780.952 3012.01 776.062 3015.67 772.122C3020.25 767.202 3025.84 766.362 3031.54 769.962C3081.79 801.672 3132.05 833.362 3182.21 865.222C3191.08 870.852 3193.47 880.142 3193.57 889.952C3193.68 900.252 3190.13 910.002 3188.02 919.952C3179.66 959.432 3170.98 998.852 3162.43 1038.29C3161.13 1044.27 3160.03 1050.29 3158.78 1056.27C3157.88 1060.56 3156.91 1064.82 3155.75 1069.03C3154.91 1072.05 3154.29 1075.03 3153.89 1077.98C3153.83 1078.36 3153.78 1078.74 3153.74 1079.13C3153.69 1079.52 3153.65 1079.9 3153.61 1080.28C3152.12 1094.92 3155.88 1108.65 3164.37 1121.26C3184.9 1151.81 3213.42 1167.96 3250.85 1164.44C3270.81 1162.56 3286.07 1152.33 3293.38 1132.89C3298.08 1120.38 3297.36 1108.07 3293.29 1096.11C3287.87 1104.28 3280.58 1110.91 3274.11 1112.89C3254.91 1118.78 3231 1114.58 3213.7 1105.64C3196.75 1096.89 3171.89 1080.91 3174.26 1063.32C3184.41 988.082 3206.61 897.882 3206.61 897.882C3206.61 897.882 3215.92 865.372 3193.42 850.952C3170.92 836.532 3035.21 751.612 3035.21 751.612C3035.21 751.612 3002.77 723.512 2991.23 871.372Z" fill="#66142E"/>
</g>
<g opacity="0.6">
<path d="M3021.74 976.734C3009.71 969.958 3003.65 957.907 3008.21 949.817C3012.77 941.728 3026.21 940.664 3038.24 947.441C3050.27 954.217 3056.33 966.268 3051.78 974.357C3047.22 982.447 3033.77 983.511 3021.74 976.734Z" fill="white"/>
</g>
<g opacity="0.6">
<path d="M3231.63 1092.98C3219.59 1086.2 3213.54 1074.15 3218.09 1066.06C3222.65 1057.97 3236.1 1056.91 3248.13 1063.69C3260.16 1070.46 3266.21 1082.51 3261.66 1090.6C3257.1 1098.69 3243.66 1099.76 3231.63 1092.98Z" fill="white"/>
</g>
<defs>
<linearGradient id="paint0_linear_1525_19840" x1="1375.99" y1="699.731" x2="1723.99" y2="1650.44" gradientUnits="userSpaceOnUse">
<stop stop-color="#FF7F00"/>
<stop offset="0.2153" stop-color="#FE7C02"/>
<stop offset="0.3474" stop-color="#FB740A"/>
<stop offset="0.457" stop-color="#F66617"/>
<stop offset="0.5544" stop-color="#EF5129"/>
<stop offset="0.6428" stop-color="#E63740"/>
<stop offset="0.6757" stop-color="#E22B4B"/>
</linearGradient>
<linearGradient id="paint1_linear_1525_19840" x1="1919.55" y1="587.413" x2="1903.41" y2="3208.14" gradientUnits="userSpaceOnUse">
<stop stop-color="#FF7F00"/>
<stop offset="0.2244" stop-color="#FE7C02"/>
<stop offset="0.3621" stop-color="#FB740A"/>
<stop offset="0.4764" stop-color="#F66617"/>
<stop offset="0.5779" stop-color="#EF5129"/>
<stop offset="0.6701" stop-color="#E63740"/>
<stop offset="0.7044" stop-color="#E22B4B"/>
</linearGradient>
<linearGradient id="paint2_linear_1525_19840" x1="1678.11" y1="1353.89" x2="2146.29" y2="3054.4" gradientUnits="userSpaceOnUse">
<stop stop-color="#FF7F00"/>
<stop offset="0.3186" stop-color="#FE7C02"/>
<stop offset="0.5141" stop-color="#FB740A"/>
<stop offset="0.6764" stop-color="#F66617"/>
<stop offset="0.8205" stop-color="#EF5129"/>
<stop offset="0.9513" stop-color="#E63740"/>
<stop offset="1" stop-color="#E22B4B"/>
</linearGradient>
<linearGradient id="paint3_linear_1525_19840" x1="1858.09" y1="2215.6" x2="2945.13" y2="3351.07" gradientUnits="userSpaceOnUse">
<stop stop-color="#FF7F00"/>
<stop offset="0.2135" stop-color="#FE7B04"/>
<stop offset="0.4343" stop-color="#F96E0F"/>
<stop offset="0.6585" stop-color="#F25A21"/>
<stop offset="0.8837" stop-color="#E83D3B"/>
<stop offset="1" stop-color="#E22B4B"/>
</linearGradient>
</defs>
</svg>
