<svg width="400" height="400" viewBox="0 0 400 400" fill="none" xmlns="http://www.w3.org/2000/svg">
<path opacity="0.2" d="M333.189 160.742C332.844 160.052 332.205 159.546 331.45 159.377C321.865 157.227 310.96 150.035 310.196 149.521C286.411 131.893 271.08 128.642 264.122 128.253C264.173 127.857 264.203 127.453 264.188 127.05C264.166 126.69 264.144 126.323 264.063 125.964C264.034 125.788 263.99 125.604 263.938 125.421C263.909 125.333 263.879 125.238 263.85 125.127C263.813 125.032 263.784 124.944 263.718 124.767L263.696 124.701C263.351 123.725 262.412 123.035 261.326 123.064L258.464 123.145C257.51 123.182 256.556 123.16 255.602 123.292C253.701 123.498 251.793 123.637 249.922 124.033C246.142 124.642 242.458 125.743 238.877 127.079C235.296 128.415 231.868 130.161 228.617 132.172C226.988 133.177 225.425 134.286 223.891 135.445C223.531 135.739 223.164 136.025 222.797 136.318C221.337 130.667 219.575 125.075 217.462 119.593C216.875 118.008 216.185 116.459 215.539 114.896C214.827 113.355 214.152 111.799 213.374 110.287C213 109.516 212.618 108.761 212.207 108.012L211.598 106.882L211.444 106.596C211.393 106.501 211.297 106.361 211.231 106.244C211.07 106.002 210.93 105.752 210.739 105.525C209.359 103.646 207.187 102.399 204.905 102.068C202.63 101.716 200.193 102.274 198.329 103.631C198.197 103.719 198.102 103.785 198.028 103.851L197.778 104.049L197.272 104.438L196.274 105.231L194.271 106.802C191.658 108.982 189.126 111.242 186.727 113.649C181.927 118.456 177.575 123.689 173.737 129.274C171.836 132.077 170.016 134.94 168.358 137.905C167.536 139.395 166.729 140.892 165.98 142.426C165.613 143.167 165.261 143.901 164.916 144.65C162.949 143.762 160.968 142.911 158.942 142.162C156.102 141.069 153.21 140.115 150.29 139.263C147.369 138.397 144.419 137.656 141.447 137.025C138.453 136.394 135.517 135.865 132.361 135.506L132.288 135.499C132.222 135.492 132.156 135.484 132.09 135.484C130.732 135.44 129.595 136.504 129.551 137.869C129.522 138.647 129.463 139.417 129.478 140.203C129.515 140.981 129.5 141.766 129.603 142.544C129.728 144.114 130.08 145.663 130.506 147.19C130.961 148.709 131.585 150.184 132.348 151.586C132.524 151.924 132.722 152.254 132.921 152.584L125.927 155.175C107.624 135.03 89.0859 130.069 79.5449 128.916C74.2019 128.278 69.2929 131.756 68.1259 137.018C52.9859 205.167 73.0499 228.534 76.9399 232.314C76.9249 232.373 76.9109 232.439 76.8889 232.505C76.5659 233.488 76.1399 234.384 75.6409 235.059C75.2519 235.132 74.8919 235.228 74.4959 235.352C73.8869 235.55 73.2779 235.8 72.5219 236.321C72.3159 236.482 72.1479 236.585 71.9129 236.82C71.8099 236.93 71.7069 237.04 71.6049 237.15C71.4949 237.289 71.3769 237.458 71.2669 237.62C71.0689 237.899 70.8489 238.442 70.7459 238.897C70.6949 239.168 70.6729 239.447 70.6729 239.726L70.6799 239.931L70.6869 240.071L70.6939 240.159L70.7749 240.981C70.8189 241.275 70.8629 241.575 70.9219 241.876C71.3839 244.261 72.6909 246.705 74.6869 248.349C75.1419 248.716 75.6189 249.039 76.1109 249.318C74.9589 251.402 74.3859 254.375 75.9419 258.022C76.2719 258.785 76.7639 259.49 77.5789 259.666C78.3569 259.835 78.9949 259.761 79.5829 259.262C80.3899 259.027 84.6759 258.161 98.1429 260.994C99.5229 264.443 103.588 274.094 109.291 283.348C117.555 296.778 125.635 303.545 133.37 303.545C134.867 303.545 136.357 303.295 137.825 302.782C145.751 300.045 149.685 297.087 150.206 293.469C150.536 291.15 149.369 288.912 146.918 287.158C145.876 286.417 144.878 285.536 143.887 284.494C146.529 283.782 149.611 282.637 152.319 280.803C152.965 283.819 154.088 286.85 156.069 288.362C156.517 288.707 157.067 288.89 157.625 288.89C157.698 288.89 157.764 288.883 157.83 288.883C157.889 288.876 158.219 288.846 158.755 288.758C157.566 289.954 156.333 291.136 155.049 292.281C152.348 294.673 151.556 298.446 153.06 301.668C154.829 305.433 158.623 310.24 166.674 311.766C167.378 311.898 168.083 311.964 168.788 311.964C170.322 311.964 171.856 311.648 173.294 311.039C179.884 308.221 193.674 298.805 214.531 267.512C214.619 269.002 214.751 270.492 214.927 271.974L215.177 273.919L215.302 274.888C215.353 275.211 215.427 275.527 215.493 275.849L216.286 279.673C216.565 280.95 216.983 282.183 217.328 283.438L217.864 285.309C218.055 285.933 218.304 286.527 218.525 287.144C222.018 296.927 227.302 305.924 233.555 314.034L233.584 314.063C234.134 314.782 235.067 315.171 236.021 315.002C238.076 314.62 239.925 314.173 241.848 313.681C243.749 313.189 245.628 312.654 247.492 312.059C251.228 310.892 254.904 309.564 258.523 308.074C265.744 305.08 272.731 301.491 279.299 297.198C285.86 292.919 292.025 287.958 297.507 282.3L298.542 281.251L299.533 280.157L301.507 277.955C302.74 276.421 304.054 274.946 305.198 273.339C306.453 271.724 307.613 270.044 308.721 268.334C309 268.694 309.308 269.024 309.638 269.325C310.313 269.964 311.076 270.419 311.84 270.822C313 271.424 314.445 271.035 315.128 269.897L315.15 269.868C315.715 268.929 316.177 268.092 316.654 267.197C317.124 266.316 317.571 265.436 318.012 264.548C318.885 262.765 319.715 260.967 320.478 259.154C322.026 255.514 323.399 251.815 324.573 248.043C326.929 240.513 328.543 232.741 329.321 224.867C329.681 220.926 329.849 216.963 329.783 213C329.666 209.037 329.409 205.067 328.822 201.14C327.75 193.537 325.659 186.081 322.789 178.962C322.804 178.705 322.811 178.456 322.796 178.199L322.737 176.1C322.737 175.924 322.737 175.755 322.722 175.579L322.649 175.051L322.488 174.002C322.319 172.879 322.055 171.764 321.703 170.67C328.198 170.068 332.014 165.599 333.225 162.964C333.541 162.254 333.534 161.439 333.189 160.742Z" fill="#66142E"/>
<path d="M337.189 151.241C336.844 150.551 336.206 150.045 335.45 149.876C325.865 147.726 314.96 140.534 314.197 140.02C290.412 122.392 275.081 119.141 268.123 118.752C268.174 118.356 268.204 117.952 268.189 117.548C268.167 117.188 268.145 116.821 268.064 116.462C268.035 116.286 267.991 116.102 267.939 115.919C267.91 115.831 267.88 115.736 267.851 115.625C267.814 115.53 267.785 115.442 267.719 115.265L267.697 115.199C267.352 114.223 266.413 113.533 265.327 113.562L262.465 113.643C261.511 113.68 260.557 113.658 259.603 113.79C257.702 113.995 255.794 114.135 253.923 114.531C250.143 115.14 246.459 116.241 242.878 117.577C239.297 118.913 235.869 120.659 232.618 122.67C230.989 123.675 229.426 124.784 227.892 125.943C227.532 126.237 227.165 126.523 226.798 126.816C225.338 121.165 223.576 115.573 221.463 110.091C220.876 108.506 220.186 106.957 219.54 105.394C218.828 103.853 218.153 102.297 217.375 100.785C217.001 100.014 216.619 99.2578 216.208 98.5098L215.599 97.3798L215.445 97.0938C215.394 96.9988 215.298 96.8588 215.232 96.7418C215.071 96.4998 214.931 96.2498 214.74 96.0228C213.36 94.1438 211.188 92.8968 208.906 92.5658C206.631 92.2138 204.194 92.7718 202.33 94.1288C202.198 94.2168 202.102 94.2828 202.029 94.3488L201.78 94.5468L201.274 94.9358L200.276 95.7288L198.271 97.2998C195.658 99.4798 193.126 101.74 190.727 104.147C185.927 108.954 181.575 114.187 177.737 119.772C175.836 122.575 174.016 125.438 172.358 128.403C171.536 129.893 170.729 131.39 169.98 132.924C169.613 133.665 169.261 134.399 168.916 135.148C166.949 134.26 164.968 133.409 162.942 132.66C160.102 131.567 157.21 130.612 154.289 129.761C151.368 128.895 148.418 128.154 145.446 127.523C142.452 126.892 139.516 126.363 136.36 126.004L136.287 125.997C136.221 125.99 136.155 125.982 136.089 125.982C134.731 125.938 133.594 127.002 133.55 128.367C133.521 129.145 133.462 129.915 133.477 130.701C133.514 131.479 133.499 132.264 133.602 133.042C133.727 134.613 134.079 136.161 134.505 137.688C134.96 139.207 135.584 140.682 136.347 142.084C136.523 142.422 136.721 142.752 136.919 143.082L129.925 145.673C111.622 125.528 93.084 120.567 83.543 119.414C78.2 118.776 73.291 122.254 72.124 127.516C56.984 195.665 77.048 219.032 80.938 222.812C80.923 222.871 80.909 222.937 80.887 223.003C80.564 223.986 80.138 224.882 79.639 225.557C79.25 225.63 78.89 225.726 78.494 225.851C77.885 226.049 77.276 226.299 76.52 226.82C76.314 226.981 76.146 227.084 75.911 227.319C75.808 227.429 75.705 227.539 75.603 227.649C75.493 227.788 75.375 227.957 75.265 228.119C75.067 228.398 74.847 228.941 74.744 229.396C74.693 229.668 74.671 229.946 74.671 230.225L74.678 230.431L74.685 230.57L74.692 230.658L74.773 231.48C74.817 231.774 74.861 232.074 74.92 232.375C75.382 234.76 76.689 237.204 78.685 238.848C79.14 239.215 79.617 239.538 80.109 239.817C78.957 241.901 78.384 244.874 79.94 248.521C80.27 249.284 80.762 249.989 81.577 250.165C82.355 250.334 82.993 250.26 83.581 249.761C84.388 249.526 88.674 248.66 102.141 251.493C103.521 254.942 107.586 264.593 113.289 273.847C121.553 287.277 129.633 294.044 137.368 294.044C138.865 294.044 140.355 293.794 141.823 293.281C149.749 290.544 153.683 287.586 154.204 283.968C154.534 281.649 153.367 279.411 150.916 277.657C149.874 276.916 148.876 276.035 147.885 274.993C150.527 274.281 153.609 273.136 156.317 271.302C156.963 274.318 158.086 277.349 160.067 278.861C160.515 279.206 161.065 279.389 161.623 279.389C161.696 279.389 161.762 279.382 161.829 279.382C161.888 279.375 162.218 279.345 162.754 279.257C161.565 280.453 160.332 281.635 159.048 282.78C156.347 285.172 155.555 288.945 157.059 292.166C158.828 295.931 162.622 300.738 170.673 302.264C171.378 302.396 172.082 302.462 172.787 302.462C174.321 302.462 175.855 302.146 177.293 301.537C183.883 298.719 197.673 289.303 218.53 258.01C218.618 259.5 218.75 260.99 218.926 262.472L219.176 264.417L219.301 265.386C219.352 265.709 219.426 266.024 219.492 266.347L220.285 270.171C220.564 271.448 220.982 272.681 221.327 273.936L221.863 275.807C222.054 276.431 222.303 277.025 222.524 277.642C226.017 287.425 231.301 296.422 237.554 304.532L237.583 304.561C238.133 305.28 239.065 305.669 240.02 305.5C242.075 305.118 243.924 304.671 245.847 304.179C247.748 303.687 249.627 303.152 251.491 302.557C255.227 301.39 258.903 300.062 262.521 298.572C269.742 295.578 276.729 291.989 283.297 287.696C289.858 283.417 296.023 278.456 301.505 272.798L302.54 271.749L303.531 270.655L305.505 268.453C306.738 266.919 308.052 265.444 309.197 263.837C310.452 262.222 311.611 260.542 312.72 258.832C312.999 259.192 313.307 259.522 313.637 259.823C314.312 260.461 315.075 260.916 315.839 261.32C316.999 261.922 318.444 261.533 319.127 260.395L319.149 260.366C319.714 259.427 320.176 258.59 320.653 257.695C321.123 256.814 321.57 255.934 322.011 255.046C322.884 253.263 323.714 251.465 324.477 249.652C326.025 246.012 327.398 242.313 328.572 238.541C330.928 231.011 332.542 223.239 333.32 215.365C333.68 211.424 333.848 207.461 333.782 203.498C333.665 199.535 333.408 195.565 332.821 191.638C331.75 184.035 329.658 176.579 326.788 169.46C326.803 169.203 326.81 168.954 326.795 168.697L326.736 166.598C326.736 166.422 326.736 166.253 326.721 166.077L326.648 165.549L326.487 164.5C326.318 163.377 326.054 162.262 325.702 161.168C332.197 160.566 336.013 156.097 337.224 153.462C337.541 152.753 337.534 151.938 337.189 151.241ZM80.129 231.316C80.114 231.338 80.092 231.36 80.07 231.375C80.041 231.397 80.026 231.404 80.026 231.404L80.019 231.389C80.026 231.352 80.1 231.294 80.202 231.22C80.173 231.257 80.151 231.294 80.129 231.316Z" fill="#66142E"/>
<path d="M149.115 283.232C149.108 283.254 148.697 285.47 140.14 288.428C135.891 289.896 131.443 287.701 127.194 283.621C119.451 276.179 112.369 262.448 108.355 253.106C108.289 252.967 108.26 252.893 108.26 252.893C114.08 254.317 121.198 256.298 129.888 259.043C129.33 260.232 128.861 261.678 128.846 263.234C128.839 263.491 128.846 263.74 128.868 263.997C128.934 264.775 129.345 265.479 129.991 265.912C130.571 266.308 132.068 266.976 135.591 267.189C136.31 268.407 137.117 269.648 137.998 270.895C138.299 271.343 138.622 271.783 138.945 272.231C138.901 272.605 138.864 272.987 138.835 273.391C138.784 274.132 139.055 274.859 139.576 275.387C140.06 275.871 140.714 276.143 141.396 276.143C141.455 276.143 141.521 276.143 141.579 276.136C141.623 276.136 141.77 276.121 141.99 276.099C142.46 276.649 142.929 277.2 143.414 277.736C144.874 279.373 146.357 280.716 147.935 281.838C148.843 282.491 149.137 283.041 149.115 283.232Z" fill="url(#paint0_linear_301_8799)"/>
<path d="M226.562 222.348C222.614 229.951 219.884 238.251 218.856 246.838C218.797 247.33 218.746 247.829 218.695 248.32C204.516 270.674 193.545 282.894 185.919 289.557C180.907 293.931 177.347 295.92 175.27 296.808C174.11 297.3 172.848 297.447 171.623 297.212C165.708 296.089 162.963 292.662 161.708 289.976C161.554 289.646 161.466 289.286 161.451 288.934C161.407 288.083 161.759 287.231 162.456 286.615C164.423 284.861 166.28 283.048 168.004 281.214C174.147 274.704 178.763 267.997 181.559 263.483C182.902 261.311 183.834 259.652 184.311 258.757C186.483 257.612 188.546 256.298 190.498 254.801C193.257 252.68 195.907 250.075 198.365 247.036C202.446 242.016 212.537 230.67 226.562 222.348Z" fill="url(#paint1_linear_301_8799)"/>
<path d="M328.639 203.589C328.705 207.354 328.544 211.111 328.199 214.862C327.465 222.362 325.924 229.789 323.664 237.003C322.541 240.606 321.228 244.158 319.745 247.63C319.011 249.369 318.226 251.079 317.397 252.767C317.045 253.479 316.685 254.183 316.318 254.881C316.223 254.646 316.135 254.404 316.083 254.14C316.054 253.942 316.024 253.736 316.017 253.538C316.01 253.435 316.01 253.34 316.017 253.244C316.01 253.193 316.024 253.09 316.024 253.068L316.017 253.075C315.334 252.84 314.637 252.723 313.947 252.723C311.87 252.723 309.867 253.758 308.7 255.585C307.57 257.354 306.381 259.078 305.089 260.737C304.01 262.256 302.77 263.651 301.603 265.104L299.732 267.181L298.8 268.223L297.817 269.221C295.182 271.936 292.379 274.49 289.436 276.875C286.574 279.209 283.587 281.374 280.49 283.392C274.208 287.487 267.5 290.944 260.558 293.821C257.087 295.252 253.542 296.529 249.961 297.652C248.17 298.217 246.365 298.731 244.552 299.208C243.275 299.538 241.954 299.854 240.677 300.125C240.677 300.125 240.648 300.088 240.596 300.008C240.376 299.722 240.163 299.443 239.958 299.149H239.951C234.696 291.979 230.322 284.207 227.365 275.929C227.159 275.357 226.917 274.799 226.749 274.219L226.25 272.472C225.934 271.305 225.538 270.153 225.281 268.971L224.547 265.426C224.488 265.132 224.415 264.839 224.371 264.538L224.254 263.643L224.019 261.852C223.461 257.067 223.336 252.216 223.968 247.438C224.577 242.33 225.839 237.325 227.652 232.489C227.916 231.784 228.195 231.087 228.481 230.39C229.919 226.904 231.637 223.528 233.604 220.299C236.129 216.138 239.035 212.197 242.22 208.498C243.827 206.663 245.486 204.865 247.24 203.17C248.106 202.319 248.994 201.482 249.897 200.675C250.785 199.882 251.754 199.06 252.612 198.385C253.419 197.761 253.83 196.675 253.5 195.582C253.126 194.371 251.878 193.652 250.623 193.806L250.601 193.813L249.581 193.938C249.273 193.916 248.928 193.975 248.649 193.916C248.047 193.879 247.577 193.696 247.145 193.476C246.91 193.351 246.697 193.182 246.507 192.992C246.749 192.911 246.984 192.838 247.226 192.757L249.046 192.17C249.648 191.979 250.257 191.796 250.844 191.532C252.026 191.048 253.207 190.571 254.381 190.072L256.142 189.323L257.845 188.45L261.236 186.667C262.337 186.021 263.408 185.324 264.487 184.649L266.102 183.614C266.623 183.247 267.129 182.858 267.643 182.476C268.656 181.698 269.705 180.964 270.689 180.164C274.608 176.891 278.182 173.214 281.162 169.104C284.105 165.002 286.578 160.481 287.789 155.608C285.272 159.909 282.226 163.74 278.931 167.277C275.614 170.8 272.032 174.029 268.113 176.803C267.137 177.508 266.117 178.131 265.119 178.799C264.62 179.122 264.128 179.467 263.615 179.775L262.044 180.648C260.995 181.228 259.974 181.844 258.918 182.402L255.667 183.928L254.052 184.706L252.379 185.359C251.256 185.792 250.148 186.247 249.04 186.695C248.49 186.937 247.917 187.106 247.345 187.282L245.628 187.825C244.483 188.185 243.346 188.574 242.208 188.948L242.047 188.999C240.873 189.388 240.139 190.584 240.359 191.839C240.447 192.309 240.52 192.529 240.616 192.844C240.704 193.138 240.814 193.424 240.932 193.695C241.16 194.253 241.46 194.789 241.798 195.31C242.488 196.337 243.435 197.284 244.579 197.923C244.733 198.011 244.895 198.077 245.049 198.158C244.579 198.598 244.11 199.046 243.647 199.501C242.451 200.661 241.306 201.871 240.183 203.097C240.403 202.642 240.594 202.172 240.748 201.688C241.056 200.734 241.232 199.736 241.291 198.73C241.328 198.231 241.313 197.725 241.284 197.218C241.262 196.961 241.24 196.704 241.203 196.44C241.188 196.315 241.159 196.183 241.137 196.044C241.108 195.897 241.093 195.795 241.027 195.56C240.917 195.164 240.697 194.789 240.359 194.503L240.043 194.224C239.287 193.688 238.421 193.042 237.636 192.404L235.273 190.408C234.671 189.902 234.055 189.417 233.431 188.926C233.46 186.827 233.468 184.728 233.453 182.629C233.372 171.459 232.653 160.275 231.149 149.178C230.599 145.105 229.923 141.046 229.123 137.01C229.123 136.995 229.116 136.973 229.108 136.959C228.814 135.462 228.506 133.972 228.169 132.482C228.162 132.46 228.162 132.445 228.162 132.445C228.448 132.181 228.734 131.917 229.043 131.652C229.682 131.08 230.371 130.551 231.047 130.001C232.434 128.959 233.858 127.946 235.348 127.029C238.313 125.194 241.447 123.587 244.727 122.376C248 121.15 251.369 120.138 254.825 119.587C256.535 119.22 258.289 119.103 260.028 118.912C260.894 118.787 261.775 118.809 262.648 118.773L262.912 118.766C262.861 119.338 262.721 119.911 262.413 120.535C262.112 121.195 261.532 121.805 260.923 122.553C260.593 122.898 260.24 123.258 259.881 123.676C259.492 124.043 259.103 124.454 258.699 124.96C259.323 125.158 259.961 125.254 260.6 125.29C260.828 125.305 261.048 125.29 261.268 125.268C261.606 125.231 261.951 125.224 262.288 125.151C263.227 124.923 264.174 124.535 265.04 123.918C266.684 123.683 281.699 122.311 311.187 144.181C311.216 144.203 311.253 144.225 311.282 144.247C311.715 144.541 320.911 150.72 330.532 153.839C329.013 155.153 326.554 156.4 322.929 156.026C322.922 156.019 322.914 156.019 322.907 156.011C322.65 155.637 322.349 155.306 322.019 154.998C321.77 154.749 321.527 154.499 321.263 154.264C320.991 154.044 320.705 153.838 320.426 153.626C319.303 152.819 318.056 152.166 316.727 151.909C318.576 153.832 319.78 155.967 320.565 158.169C321.35 160.363 321.695 162.646 321.739 164.95C321.724 165.53 321.79 166.095 321.724 166.682L321.599 168.429C321.592 169.009 321.423 169.596 321.357 170.183L321.093 171.93C320.902 172.715 320.741 173.501 320.565 174.293C320.528 174.484 320.484 174.675 320.44 174.865C320.337 174.74 320.242 174.615 320.139 174.491C319.662 173.882 319.214 173.251 318.818 172.59C318.502 172.098 318.26 171.577 317.996 171.063C317.776 170.535 317.512 170.021 317.35 169.478C316.939 168.407 316.741 167.291 316.565 166.175L315.53 166.3C313.204 166.572 311.67 168.942 312.492 171.136C312.492 171.151 312.499 171.165 312.507 171.18C312.705 171.841 312.999 172.45 313.27 173.081C313.27 173.286 313.27 173.521 313.263 173.742C313.256 174.124 313.226 174.52 313.19 174.916C313.117 175.701 312.977 176.479 312.816 177.257C312.464 178.798 311.906 180.266 311.157 181.602C310.805 182.292 310.328 182.886 309.895 183.517C309.381 184.075 308.926 184.684 308.324 185.161C308.104 185.374 307.869 185.565 307.634 185.755C307.597 185.3 307.546 184.845 307.517 184.39C307.407 182.643 307.378 180.904 307.532 179.297C307.642 178.027 306.82 176.743 305.294 176.486C304.303 176.317 303.32 176.809 302.806 177.668L302.791 177.69C302.725 177.785 302.556 178.02 302.424 178.196C302.277 178.387 302.138 178.578 301.976 178.761C301.668 179.135 301.33 179.488 300.985 179.825C300.926 179.876 300.868 179.935 300.809 179.979C300.163 180.588 299.473 181.109 298.761 181.527C298.71 181.556 298.666 181.578 298.622 181.6C298.974 180.859 299.297 180.096 299.583 179.318C299.832 178.657 300.023 177.96 300.221 177.278C300.368 176.566 300.544 175.876 300.603 175.142C300.757 173.711 300.735 172.17 300.141 170.856C299.701 172.206 299.033 173.3 298.343 174.364C297.646 175.428 296.89 176.441 296.097 177.432C295.326 178.43 294.519 179.406 293.726 180.39C292.941 181.359 292.119 182.379 291.436 183.34L291.348 183.443C291.04 183.825 290.834 184.309 290.805 184.852C290.71 186.195 291.766 187.333 293.095 187.523C294.482 187.721 295.928 187.787 297.315 187.486C297.425 187.464 297.528 187.442 297.638 187.413C298.952 187.119 300.214 186.635 301.322 185.982C301.704 185.754 302.078 185.512 302.437 185.255C302.496 186.04 302.554 186.818 302.643 187.589C302.753 188.55 302.87 189.468 303.032 190.473L303.047 190.561C303.091 190.862 303.201 191.17 303.377 191.449C304.067 192.587 305.579 192.924 306.76 192.315C308.536 191.405 310.29 190.378 311.772 188.968C312.579 188.3 313.232 187.478 313.922 186.7C314.524 185.856 315.162 185.027 315.639 184.109C316.476 182.605 317.107 181.012 317.562 179.383C317.885 179.728 318.215 180.066 318.56 180.396C318.832 180.653 319.103 180.902 319.389 181.152C319.69 181.401 319.947 181.614 320.343 181.915H320.35C320.541 182.069 320.761 182.201 320.996 182.289C321.143 182.34 321.29 182.384 321.436 182.414H321.443C322.581 182.627 323.747 182.003 324.18 180.888L324.268 180.66C324.451 180.183 324.62 179.699 324.796 179.214C325.603 181.863 326.286 184.542 326.844 187.25C327.189 188.945 327.49 190.648 327.732 192.365C328.287 196.082 328.521 199.832 328.639 203.589Z" fill="url(#paint2_linear_301_8799)"/>
<path d="M236.558 200.749C236.477 202.055 236.03 203.325 235.274 204.529C234.511 205.725 233.373 206.767 232.089 207.692C230.797 208.609 229.322 209.351 227.788 210.018C229.454 209.937 231.149 209.702 232.8 209.167C232.925 209.123 233.05 209.072 233.174 209.028C233.519 209.446 233.879 209.923 234.157 210.349C233.298 211.501 232.454 212.668 231.647 213.857C212.889 222.554 199.349 237.672 194.38 243.8C192.171 246.523 189.815 248.849 187.379 250.721C174.418 260.658 155.741 261.854 131.853 254.28C101.969 244.805 89.324 243.947 84.143 244.49C83.996 242.56 85.082 241.54 85.479 241.239C86 241.224 86.521 241.21 87.027 241.173C87.57 241.085 88.098 240.982 88.627 240.865C89.148 240.762 89.654 240.571 90.146 240.388C90.645 240.19 91.129 239.984 91.599 239.742C89.581 238.993 87.695 238.553 86.102 237.738C84.502 236.975 83.225 236.065 82.366 235.001C81.463 233.856 80.957 232.498 80.671 230.928C80.671 230.921 80.671 230.921 80.671 230.921L81.574 230.422L82.682 229.806C82.77 229.762 82.843 229.696 82.895 229.608V229.601C83.482 228.801 83.908 227.972 84.223 227.135C84.641 225.997 84.847 224.853 84.95 223.766C85.119 221.88 84.957 220.082 84.693 218.343C84.693 218.321 84.686 218.292 84.678 218.27C84.421 216.56 83.988 214.909 83.504 213.294C82.983 211.657 82.389 210.058 81.655 208.531C81.802 210.219 81.89 211.892 81.912 213.551C81.934 214.344 81.927 215.144 81.897 215.929C81.354 215.151 80.767 214.226 80.158 213.14C78.742 210.667 77.193 207.357 75.813 203.086C72.833 193.839 70.639 180.042 72.217 160.197C72.423 157.592 72.694 154.891 73.039 152.08C73.905 144.969 75.233 137.167 77.134 128.625C77.442 127.231 78.279 126.086 79.394 125.352L79.497 125.381L79.725 125.44L80.004 125.535C80.356 125.616 80.797 125.829 81.193 125.975L82.448 126.584C82.874 126.812 83.299 127.083 83.725 127.333C84.143 127.561 84.569 127.869 84.995 128.148C85.413 128.434 85.846 128.684 86.257 129.007C87.072 129.675 87.938 130.233 88.745 130.922C92.062 133.535 95.211 136.573 98.359 139.619C99.409 140.69 100.495 141.725 101.559 142.797C98.036 142.614 93.662 143.047 89.098 145.087C88.217 145.483 87.63 146.335 87.586 147.303C87.564 147.663 87.241 155.772 94.58 161.137C94.33 162.142 94.213 163.185 94.25 164.227C94.345 166.326 95.123 168.278 96.239 169.775C97.354 171.287 98.72 172.468 100.217 173.364C100.224 173.371 100.232 173.379 100.232 173.379C99.344 171.874 98.603 170.333 98.206 168.807C97.993 168.051 97.876 167.295 97.876 166.576C97.854 165.849 97.927 165.16 98.118 164.506C98.441 163.207 99.167 162.069 100.019 161.013C100.445 160.477 100.914 159.964 101.399 159.457C101.436 159.141 101.458 158.819 101.458 158.503C101.458 156.925 100.974 155.377 100.071 154.07L99.895 153.813C99.579 154.004 99.403 154.114 99.183 154.275C98.978 154.429 98.779 154.583 98.589 154.745C98.2 155.068 97.848 155.413 97.51 155.78C97.312 155.993 97.136 156.228 96.952 156.455C94.031 153.989 93.114 150.944 92.835 149.123C100.614 146.393 107.483 149.108 107.557 149.138L107.623 148.984C107.652 149.021 107.682 149.05 107.711 149.079C108.482 149.886 109.274 150.679 110.074 151.471L111.278 152.66L112.452 153.871C113.81 155.221 115.16 156.579 116.598 157.878C116.862 158.128 117.126 158.362 117.398 158.597C117.156 158.039 116.906 157.489 116.657 156.946C115.938 155.419 115.167 153.93 114.397 152.425C113.788 151.258 113.127 150.121 112.452 148.998C111.953 148.169 111.447 147.347 110.94 146.525C109.766 144.566 108.415 142.723 107.087 140.859C105.781 138.988 104.291 137.226 102.83 135.45C100.393 132.632 97.81 129.88 94.904 127.407C101.538 129.77 109.45 133.865 117.684 140.918C118.888 141.938 120.098 143.024 121.309 144.184C122.439 145.263 123.577 146.408 124.714 147.604L124.677 147.619L124.604 147.648C124.156 147.817 123.738 148.118 123.408 148.573C122.806 149.38 122.828 150.496 123.371 151.347C125.03 154.194 127.187 156.881 129.954 159.001C132.677 161.151 136.221 162.509 139.715 162.597C143.238 162.678 146.54 161.57 149.329 159.948C152.14 158.326 154.584 156.235 156.551 153.798C154.041 155.655 151.304 157.123 148.486 158.113C145.668 159.082 142.732 159.478 140.046 159.008C137.36 158.494 134.982 157.21 132.993 155.324C131.716 154.142 130.571 152.777 129.514 151.302L141.953 146.693C142.254 146.583 142.547 146.407 142.797 146.179C143.839 145.225 143.912 143.603 142.951 142.554L142.826 142.422L142.613 142.187C142.525 142.092 142.437 141.981 142.341 141.871C142.158 141.651 141.981 141.401 141.805 141.166C141.467 140.667 141.137 140.161 140.851 139.618C140.264 138.539 139.78 137.402 139.427 136.205C139.126 135.112 138.847 133.996 138.744 132.844C138.729 132.741 138.722 132.646 138.715 132.543C138.664 132.198 138.649 131.846 138.642 131.494C140.543 131.788 142.48 132.147 144.374 132.551C147.221 133.153 150.054 133.865 152.843 134.687C155.639 135.509 158.406 136.419 161.114 137.468C163.044 138.18 164.93 138.987 166.794 139.831C166.434 140.631 166.06 141.504 165.811 142.201C166.427 142.421 167.066 142.531 167.697 142.531C169.458 142.531 171.168 141.694 172.232 140.205C172.364 140.022 172.467 139.86 172.533 139.735L172.518 139.728C172.555 139.647 172.599 139.581 172.635 139.5C173.171 138.135 173.883 136.616 174.587 135.192C175.108 134.128 175.658 133.078 176.224 132.029C176.429 131.655 176.635 131.288 176.84 130.913C178.411 128.095 180.15 125.365 181.963 122.686C185.632 117.351 189.794 112.353 194.358 107.788C196.134 105.997 197.991 104.302 199.899 102.658C199.796 102.79 199.693 102.915 199.591 103.047C197.925 105.219 196.56 107.494 195.327 109.806C194.16 112.147 193.059 114.496 192.113 116.881C190.256 121.673 188.627 126.502 187.423 131.441C186.572 134.942 185.889 138.479 185.427 142.053C185.236 143.521 185.089 145.003 184.979 146.486C185.405 145.627 185.816 144.761 186.219 143.888C187.892 140.263 189.36 136.6 190.879 132.968C191.708 132.895 193.161 132.799 195.003 132.88C197.462 132.968 200.61 133.357 203.854 134.451C203.627 136.183 202.995 138.81 201.293 140.337C200.155 141.357 198.629 141.739 196.648 141.497L196.457 143.082C196.229 144.946 197.697 146.583 199.569 146.561C199.569 146.561 199.995 146.495 200.604 146.333C201.22 146.164 202.02 145.907 202.762 145.518C202.791 145.547 202.828 145.577 202.865 145.606C203.056 145.782 203.225 145.966 203.408 146.149C203.54 146.347 203.746 146.509 203.863 146.707C204.421 147.463 204.773 148.241 204.89 149.276C205.051 150.303 204.721 151.529 204.42 152.857L204.068 153.84C203.958 154.178 203.87 154.545 203.716 154.875C203.437 155.55 203.144 156.247 202.894 157.025C203.613 156.695 204.281 156.291 204.964 155.865C205.61 155.41 206.204 154.86 206.806 154.302C207.085 154.001 207.334 153.664 207.599 153.333C207.856 152.995 208.127 152.673 208.311 152.262C208.517 151.866 208.722 151.469 208.905 151.058C209.052 150.618 209.177 150.155 209.287 149.693C209.698 147.807 209.338 145.598 208.311 143.888C208.076 143.44 207.768 143.073 207.474 142.677C207.21 142.391 206.946 142.09 206.667 141.826C209.14 137.878 209.133 132.946 209.133 132.696C209.118 131.669 208.495 130.751 207.548 130.355C204.231 128.968 200.943 128.271 198.095 127.948C196.172 127.728 194.455 127.684 193.053 127.706C194.264 124.748 195.49 121.806 196.862 118.951C198.939 114.518 201.243 110.174 204.061 106.548C204.413 106.1 204.766 105.645 205.14 105.256L205.698 104.632L206.278 104.082C207.049 103.363 207.849 102.724 208.634 102.328C209.419 101.932 210.153 101.712 210.799 101.748C211.129 101.748 211.437 101.836 211.76 101.939C211.914 101.99 212.068 102.064 212.215 102.144C212.266 102.166 212.31 102.195 212.354 102.225C212.493 102.511 212.633 102.79 212.772 103.076C213.513 104.507 214.152 105.99 214.834 107.457C215.45 108.954 216.111 110.437 216.676 111.956C218.892 117.688 220.705 123.581 222.195 129.569C222.232 129.723 222.276 129.885 222.312 130.039C223.919 136.563 225.137 143.205 226.055 149.876C227.325 159.299 228.022 168.803 228.242 178.336C228.286 180.413 228.315 182.49 228.315 184.574C227.464 183.796 226.642 182.989 225.842 182.152C224.367 180.625 222.973 179.011 221.659 177.272C222.239 179.371 223.075 181.426 224.088 183.393C225.108 185.367 226.297 187.246 227.596 189.051C228.924 190.834 230.282 192.618 231.889 194.159C231.962 194.232 232.036 194.306 232.116 194.372C232.85 195.069 233.62 195.715 234.406 196.354C235.044 196.882 235.661 197.381 236.336 197.895C236.409 198.196 236.461 198.504 236.505 198.812C236.602 199.457 236.609 200.103 236.558 200.749Z" fill="url(#paint3_linear_301_8799)"/>
<path d="M78.6319 202.038C78.7159 203.089 78.7259 204.16 78.7199 204.844C78.7169 205.165 78.3499 205.35 78.0949 205.155C77.3849 204.613 76.5689 203.843 75.8139 203.082C72.8339 193.835 70.6399 180.038 72.2179 160.193C72.4239 157.588 72.6949 154.887 73.0399 152.076C73.1719 152.979 78.4779 189.629 79.2339 192.484C79.8469 194.786 80.7589 200.334 81.1049 202.501C81.1599 202.848 80.7579 203.091 80.4809 202.876C80.0119 202.512 79.6269 202.115 79.3209 201.748C79.0729 201.452 78.6009 201.653 78.6319 202.038Z" fill="#8E3410"/>
<path d="M228.243 178.334C226.863 175.244 226.768 173.182 226.768 173.182C226.731 174.752 225.865 177.776 225.865 177.776C225.08 176.404 224.052 172.866 224.052 172.866L217.293 148.721L222.195 129.566C222.232 129.72 222.276 129.882 222.312 130.036C223.919 136.56 225.137 143.202 226.055 149.873C227.325 159.297 228.022 168.801 228.243 178.334Z" fill="#8E3410"/>
<path d="M149.115 283.23C149.108 283.252 148.697 285.468 140.14 288.426C135.891 289.894 131.443 287.699 127.194 283.619C126.389 281.705 125.655 279.397 125.565 277.186C125.544 276.667 126.084 276.301 126.557 276.516C127.078 276.752 127.75 277.117 128.429 277.656C128.951 278.07 129.706 277.591 129.55 276.943C129.366 276.18 129.214 275.374 129.158 274.627C129.112 274.02 129.782 273.628 130.274 273.987C131.1 274.589 132.261 275.498 133.251 276.505C133.722 276.984 134.527 276.607 134.456 275.939C134.397 275.385 134.342 274.797 134.306 274.243C134.267 273.652 134.936 273.286 135.42 273.628C135.96 274.009 136.613 274.493 137.21 274.998C137.708 275.42 138.465 274.992 138.359 274.348C138.188 273.309 138.03 272.073 137.997 270.893C138.298 271.341 138.621 271.781 138.944 272.229C138.902 272.589 138.866 272.956 138.837 273.342C138.801 273.822 138.878 274.314 139.102 274.74C139.565 275.622 140.452 276.141 141.395 276.141C141.454 276.141 141.52 276.141 141.578 276.134C141.622 276.134 141.769 276.119 141.989 276.097C142.459 276.647 142.928 277.198 143.413 277.734C144.873 279.371 146.356 280.714 147.934 281.836C148.843 282.489 149.137 283.039 149.115 283.23Z" fill="#8E3410"/>
<path d="M187.262 286.476C186.985 287.136 186.513 288.242 185.92 289.555C180.908 293.929 177.348 295.918 175.271 296.806C174.111 297.298 172.849 297.445 171.624 297.21C165.709 296.087 162.964 292.66 161.709 289.974C161.173 288.836 161.474 287.486 162.458 286.613C164.425 284.859 166.282 283.046 168.006 281.212C170.293 280.026 172.831 278.887 174.984 278.353C175.293 278.277 175.551 278.591 175.412 278.877C175.212 279.287 174.933 279.849 174.607 280.47C174.418 280.83 174.855 281.196 175.168 280.936C176.104 280.155 177.368 279.291 179.044 278.479C179.314 278.348 179.622 278.576 179.575 278.872C179.414 279.888 179.006 281.857 178.101 283.542C177.917 283.884 178.303 284.245 178.628 284.032C179.656 283.358 180.918 282.629 182.148 282.17C182.454 282.056 182.749 282.358 182.627 282.661C182.218 283.674 181.323 285.551 179.808 287.127C179.537 287.409 179.809 287.863 180.182 287.745C181.649 287.283 183.956 286.613 186.834 285.974C187.128 285.907 187.378 286.198 187.262 286.476Z" fill="#8E3410"/>
<path d="M116.679 149.037C116.882 149.92 117.056 150.906 117.163 151.553C117.22 151.901 116.865 152.171 116.545 152.022C115.127 151.364 113.504 149.68 112.45 148.994C111.951 148.165 111.445 147.343 110.938 146.521C109.764 144.562 108.413 142.719 107.085 140.855C105.779 138.984 104.289 137.222 102.828 135.446C100.384 132.621 97.8007 129.868 94.8867 127.395C102.49 130.103 111.774 135.086 121.307 144.179C121.701 145.409 122.064 146.608 122.292 147.376C122.397 147.728 122.045 148.044 121.704 147.905C120.94 147.594 120.225 147.232 119.644 146.911C119.273 146.706 118.859 147.103 119.044 147.484C119.344 148.099 119.586 148.707 119.763 149.193C119.9 149.571 119.493 149.92 119.14 149.726C118.396 149.316 117.806 148.92 117.361 148.587C117.035 148.342 116.587 148.639 116.679 149.037Z" fill="#8E3410"/>
<path d="M187.424 131.44C186.807 133.976 186.279 136.531 185.859 139.106C185.754 139.747 184.837 139.764 184.716 139.126C184.398 137.442 184.18 135.672 184.037 134.233C183.973 133.595 183.098 133.475 182.86 134.07C182.434 135.132 181.953 136.171 181.541 137.014C181.259 137.591 180.388 137.402 180.377 136.759C180.364 136.026 180.378 135.247 180.404 134.532C180.426 133.905 179.61 133.651 179.275 134.181C178.564 135.306 177.725 136.505 177.068 137.418C176.714 137.909 175.94 137.65 175.956 137.045C175.999 135.501 176.115 133.605 176.225 132.027C176.43 131.653 176.636 131.286 176.841 130.911C178.412 128.093 180.151 125.363 181.964 122.684C185.633 117.349 189.795 112.351 194.359 107.786C196.135 105.995 197.992 104.3 199.9 102.656C199.797 102.788 199.694 102.913 199.592 103.045C197.926 105.217 196.561 107.492 195.328 109.804C194.161 112.145 193.06 114.494 192.114 116.879C190.256 121.671 188.627 126.5 187.424 131.44Z" fill="#8E3410"/>
<path d="M120.489 216.684C123.157 216.981 129.806 217.929 135.178 220.419C136.114 220.853 136.982 219.704 136.302 218.929C131.54 213.506 123.281 206.158 119.702 215.392C119.477 215.972 119.871 216.615 120.489 216.684Z" fill="#FFDAB6"/>
<path d="M192.023 200.754C189.848 202.328 184.53 206.43 181.083 211.244C180.483 212.082 179.161 211.511 179.371 210.502C180.842 203.437 184.406 192.972 192.071 199.242C192.553 199.636 192.527 200.389 192.023 200.754Z" fill="#FFDAB6"/>
<path d="M140.814 262.022C137.57 262.198 135.501 262.066 134.26 261.897C134.436 261.413 134.671 260.95 134.906 260.539C136.917 261.097 138.877 261.589 140.814 262.022Z" fill="#FFDAB6"/>
<path d="M176.386 262.014C175.924 262.733 175.425 263.496 174.889 264.296C173.693 266.065 172.306 268.017 170.742 270.05C167.579 272.648 164.306 273.675 162.603 274.05C161.862 272.751 161.26 270.204 160.922 267.526C160.775 266.454 160.68 265.361 160.636 264.319C166.302 264.253 171.557 263.489 176.386 262.014Z" fill="#FFDAB6"/>
<path d="M155.543 265.295C154.89 265.977 154.149 266.579 153.349 267.108C150.494 269.023 146.957 270.022 144.432 270.528C145.151 267.453 146.318 266.059 146.318 266.059C146.531 265.832 146.692 265.575 146.802 265.296C147.081 264.628 147.066 263.858 146.736 263.182C149.745 263.674 152.666 264.004 155.491 264.18C155.499 264.502 155.514 264.876 155.543 265.295Z" fill="#FFDAB6"/>
<path d="M236.558 200.748C236.477 202.054 236.03 203.324 235.274 204.528C234.511 205.724 233.373 206.766 232.089 207.691C230.797 208.608 229.322 209.35 227.788 210.017C229.454 209.936 231.149 209.701 232.8 209.166C232.925 209.122 233.05 209.071 233.174 209.027C233.519 209.445 233.879 209.922 234.157 210.348C233.298 211.5 232.454 212.667 231.647 213.856C212.889 222.553 199.349 237.671 194.38 243.799C192.171 246.522 189.815 248.848 187.379 250.72C174.418 260.657 155.741 261.853 131.853 254.279C101.969 244.804 89.3239 243.946 84.1429 244.489C83.9959 242.559 85.0819 241.539 85.4789 241.238C85.9999 241.223 86.5209 241.209 87.0269 241.172C87.5699 241.084 88.0979 240.981 88.6269 240.864C89.1479 240.761 89.6539 240.57 90.1459 240.387C90.6449 240.189 91.1289 239.983 91.5989 239.741C89.5809 238.992 87.6949 238.552 86.1019 237.737C84.5019 236.974 83.2249 236.064 82.3659 235C81.4629 233.855 80.9569 232.497 80.6709 230.927C80.6709 230.92 80.6709 230.92 80.6709 230.92L81.5739 230.421L82.6819 229.805C82.7699 229.761 82.8429 229.695 82.8949 229.607V229.6C83.4819 228.8 83.9079 227.971 84.2229 227.134C90.2779 226.437 143.294 221.057 160.012 244.432L172.532 241.614C172.532 241.614 175.358 205.367 232.117 194.373C232.851 195.07 233.621 195.716 234.407 196.355C235.045 196.883 235.662 197.382 236.337 197.896C236.41 198.197 236.462 198.505 236.506 198.813C236.602 199.456 236.609 200.102 236.558 200.748Z" fill="#FFDAB6"/>
<path d="M100.215 173.361C100.222 173.368 100.23 173.376 100.23 173.376C89.1998 186.234 83.3058 203.693 83.3058 203.693C75.8498 193.485 73.1708 173.846 72.2168 160.195C72.9438 151.014 74.4848 140.541 77.1338 128.623C77.4418 127.229 78.2788 126.084 79.3938 125.35L79.4968 125.379L79.7248 125.438C79.7248 125.438 79.7248 125.438 79.7318 125.445L80.0038 125.533C80.3558 125.614 80.7968 125.827 81.1928 125.973L82.4478 126.582C82.8738 126.81 83.2988 127.081 83.7248 127.331C84.1428 127.559 84.5688 127.867 84.9948 128.146C85.4128 128.432 85.8458 128.682 86.2568 129.005C87.0718 129.673 87.9378 130.231 88.7448 130.92C92.0618 133.533 95.2108 136.571 98.3588 139.617C99.4088 140.688 100.495 141.723 101.559 142.795C98.0358 142.612 93.6618 143.045 89.0978 145.085C88.2168 145.481 87.6298 146.333 87.5858 147.301C87.5638 147.661 87.2408 155.77 94.5798 161.135C94.3298 162.14 94.2128 163.183 94.2498 164.225C94.3448 166.324 95.1228 168.276 96.2388 169.773C97.3528 171.284 98.7178 172.466 100.215 173.361Z" fill="#FFDAB6"/>
<path d="M224.412 178.879C224.412 178.879 224.412 178.872 224.405 178.864C216.303 165.661 202.895 157.023 202.895 157.023C203.614 156.693 204.282 156.289 204.965 155.863C205.611 155.408 206.205 154.858 206.807 154.3C207.086 153.999 207.335 153.662 207.6 153.331C207.857 152.993 208.128 152.671 208.312 152.26C208.518 151.864 208.723 151.467 208.906 151.056C209.053 150.616 209.178 150.153 209.288 149.691C209.699 147.805 209.339 145.596 208.312 143.886C208.077 143.438 207.769 143.071 207.475 142.675C207.211 142.389 206.947 142.088 206.668 141.824C209.141 137.876 209.134 132.944 209.134 132.694C209.119 131.667 208.496 130.749 207.549 130.353C201.993 128.034 196.526 127.645 193.055 127.704C194.266 124.746 195.492 121.804 196.864 118.949C198.941 114.516 201.245 110.172 204.063 106.546C204.415 106.098 204.768 105.643 205.142 105.254L205.7 104.63L206.28 104.08C207.051 103.361 207.851 102.722 208.636 102.326C209.421 101.93 210.155 101.71 210.801 101.746C211.131 101.746 211.439 101.834 211.762 101.937C211.916 101.988 212.07 102.062 212.217 102.142C212.268 102.164 212.312 102.193 212.356 102.223C212.495 102.509 212.635 102.788 212.774 103.074C213.515 104.505 214.154 105.988 214.836 107.455C215.452 108.952 216.113 110.435 216.678 111.954C218.953 117.832 220.802 123.887 222.314 130.037C225.417 160.466 224.412 178.879 224.412 178.879Z" fill="#FFDAB6"/>
<path d="M298.291 255.947C297.567 259.689 295.494 267.06 289.612 276.589C289.496 276.776 289.347 276.947 289.176 277.085C286.393 279.339 283.492 281.434 280.488 283.392C274.206 287.487 267.498 290.944 260.556 293.821C257.085 295.252 253.54 296.529 249.959 297.652C248.168 298.217 246.363 298.731 244.55 299.208C243.273 299.538 241.952 299.854 240.675 300.125C235.097 292.683 230.452 284.581 227.362 275.929C227.156 275.357 226.914 274.799 226.746 274.219L226.247 272.472C225.931 271.305 225.535 270.153 225.278 268.971L224.544 265.426C224.485 265.132 224.412 264.839 224.368 264.538L224.251 263.643L224.016 261.852C223.458 257.067 223.333 252.216 223.965 247.438C224.65 241.695 226.162 236.073 228.356 230.688C228.437 230.49 228.548 230.308 228.689 230.148C231.118 227.375 234.16 224.519 237.558 222.676C238.855 221.972 240.42 222.979 240.316 224.451C240.135 227.011 239.858 230.814 239.563 234.47C239.404 236.446 242.03 237.281 243.033 235.57C245.458 231.431 248.735 226.949 252.606 224.318C253.772 223.526 255.366 224.265 255.511 225.667C255.701 227.513 255.882 230.088 255.801 232.76C255.748 234.515 257.916 235.352 259.078 234.036C262.76 229.864 268.881 224.614 278.27 221.134C279.452 220.696 280.724 221.542 280.78 222.801C280.96 226.841 281.06 235.085 279.434 241.998C279.032 243.708 281.011 244.965 282.397 243.886C284.166 242.508 286.254 241.017 288.479 239.704C289.733 238.964 291.31 239.878 291.3 241.334C291.281 244.168 290.907 248.554 289.156 252.751C288.523 254.268 290.016 255.808 291.546 255.208C292.877 254.686 294.391 254.174 296.016 253.769C297.338 253.439 298.55 254.607 298.291 255.947Z" fill="#FFDAB6"/>
<path d="M337.189 151.241C336.844 150.551 336.206 150.045 335.45 149.876C325.865 147.726 314.96 140.534 314.197 140.02C290.412 122.392 275.081 119.141 268.123 118.752C268.174 118.356 268.204 117.952 268.189 117.548C268.167 117.188 268.145 116.821 268.064 116.462C268.035 116.286 267.991 116.102 267.939 115.919C267.91 115.831 267.88 115.736 267.851 115.625C267.814 115.53 267.785 115.442 267.719 115.265L267.697 115.199C267.352 114.223 266.413 113.533 265.327 113.562L262.465 113.643C261.511 113.68 260.557 113.658 259.603 113.79C257.702 113.995 255.794 114.135 253.923 114.531C250.143 115.14 246.459 116.241 242.878 117.577C239.297 118.913 235.869 120.659 232.618 122.67C230.989 123.675 229.426 124.784 227.892 125.943C227.532 126.237 227.165 126.523 226.798 126.816C225.338 121.165 223.576 115.573 221.463 110.091C220.876 108.506 220.186 106.957 219.54 105.394C218.828 103.853 218.153 102.297 217.375 100.785C217.001 100.014 216.619 99.2578 216.208 98.5098L215.599 97.3798L215.445 97.0938C215.394 96.9988 215.298 96.8588 215.232 96.7418C215.071 96.4998 214.931 96.2498 214.74 96.0228C213.36 94.1438 211.188 92.8968 208.906 92.5658C206.631 92.2138 204.194 92.7718 202.33 94.1288C202.198 94.2168 202.102 94.2828 202.029 94.3488L201.78 94.5468L201.274 94.9358L200.276 95.7288L198.271 97.2998C195.658 99.4798 193.126 101.74 190.727 104.147C185.927 108.954 181.575 114.187 177.737 119.772C175.836 122.575 174.016 125.438 172.358 128.403C171.536 129.893 170.729 131.39 169.98 132.924C169.613 133.665 169.261 134.399 168.916 135.148C166.949 134.26 164.968 133.409 162.942 132.66C160.102 131.567 157.21 130.612 154.289 129.761C151.368 128.895 148.418 128.154 145.446 127.523C142.452 126.892 139.516 126.363 136.36 126.004L136.287 125.997C136.221 125.99 136.155 125.982 136.089 125.982C134.731 125.938 133.594 127.002 133.55 128.367C133.521 129.145 133.462 129.915 133.477 130.701C133.514 131.479 133.499 132.264 133.602 133.042C133.727 134.613 134.079 136.161 134.505 137.688C134.96 139.207 135.584 140.682 136.347 142.084C136.523 142.422 136.721 142.752 136.919 143.082L129.925 145.673C111.622 125.528 93.084 120.567 83.543 119.414C78.2 118.776 73.291 122.254 72.124 127.516C56.984 195.665 77.048 219.032 80.938 222.812C80.923 222.871 80.909 222.937 80.887 223.003C80.564 223.986 80.138 224.882 79.639 225.557C79.25 225.63 78.89 225.726 78.494 225.851C77.885 226.049 77.276 226.299 76.52 226.82C76.314 226.981 76.146 227.084 75.911 227.319C75.808 227.429 75.705 227.539 75.603 227.649C75.493 227.788 75.375 227.957 75.265 228.119C75.067 228.398 74.847 228.941 74.744 229.396C74.693 229.668 74.671 229.946 74.671 230.225L74.678 230.431L74.685 230.57L74.692 230.658L74.773 231.48C74.817 231.774 74.861 232.074 74.92 232.375C75.382 234.76 76.689 237.204 78.685 238.848C79.14 239.215 79.617 239.538 80.109 239.817C78.957 241.901 78.384 244.874 79.94 248.521C80.27 249.284 80.762 249.989 81.577 250.165C82.355 250.334 82.993 250.26 83.581 249.761C84.388 249.526 88.674 248.66 102.141 251.493C103.521 254.942 107.586 264.593 113.289 273.847C121.553 287.277 129.633 294.044 137.368 294.044C138.865 294.044 140.355 293.794 141.823 293.281C149.749 290.544 153.683 287.586 154.204 283.968C154.534 281.649 153.367 279.411 150.916 277.657C149.874 276.916 148.876 276.035 147.885 274.993C150.527 274.281 153.609 273.136 156.317 271.302C156.963 274.318 158.086 277.349 160.067 278.861C160.515 279.206 161.065 279.389 161.623 279.389C161.696 279.389 161.762 279.382 161.829 279.382C161.888 279.375 162.218 279.345 162.754 279.257C161.565 280.453 160.332 281.635 159.048 282.78C156.347 285.172 155.555 288.945 157.059 292.166C158.828 295.931 162.622 300.738 170.673 302.264C171.378 302.396 172.082 302.462 172.787 302.462C174.321 302.462 175.855 302.146 177.293 301.537C183.883 298.719 197.673 289.303 218.53 258.01C218.618 259.5 218.75 260.99 218.926 262.472L219.176 264.417L219.301 265.386C219.352 265.709 219.426 266.024 219.492 266.347L220.285 270.171C220.564 271.448 220.982 272.681 221.327 273.936L221.863 275.807C222.054 276.431 222.303 277.025 222.524 277.642C226.017 287.425 231.301 296.422 237.554 304.532L237.583 304.561C238.133 305.28 239.065 305.669 240.02 305.5C242.075 305.118 243.924 304.671 245.847 304.179C247.748 303.687 249.627 303.152 251.491 302.557C255.227 301.39 258.903 300.062 262.521 298.572C269.742 295.578 276.729 291.989 283.297 287.696C289.858 283.417 296.023 278.456 301.505 272.798L302.54 271.749L303.531 270.655L305.505 268.453C306.738 266.919 308.052 265.444 309.197 263.837C310.452 262.222 311.611 260.542 312.72 258.832C312.999 259.192 313.307 259.522 313.637 259.823C314.312 260.461 315.075 260.916 315.839 261.32C316.999 261.922 318.444 261.533 319.127 260.395L319.149 260.366C319.714 259.427 320.176 258.59 320.653 257.695C321.123 256.814 321.57 255.934 322.011 255.046C322.884 253.263 323.714 251.465 324.477 249.652C326.025 246.012 327.398 242.313 328.572 238.541C330.928 231.011 332.542 223.239 333.32 215.365C333.68 211.424 333.848 207.461 333.782 203.498C333.665 199.535 333.408 195.565 332.821 191.638C331.75 184.035 329.658 176.579 326.788 169.46C326.803 169.203 326.81 168.954 326.795 168.697L326.736 166.598C326.736 166.422 326.736 166.253 326.721 166.077L326.648 165.549L326.487 164.5C326.318 163.377 326.054 162.262 325.702 161.168C332.197 160.566 336.013 156.097 337.224 153.462C337.541 152.753 337.534 151.938 337.189 151.241ZM147.933 281.837C148.843 282.49 149.137 283.041 149.115 283.231C149.108 283.253 148.697 285.469 140.14 288.427C128.097 292.588 114.439 267.335 108.26 252.892C114.08 254.316 121.198 256.297 129.888 259.042C129.235 260.429 128.714 262.154 128.868 263.996C128.934 264.774 129.345 265.478 129.991 265.911C130.571 266.307 132.068 266.975 135.591 267.188C136.567 268.839 137.697 270.527 138.945 272.23C138.901 272.59 138.864 272.957 138.835 273.346C138.806 273.823 138.879 274.315 139.107 274.74C139.569 275.621 140.45 276.142 141.397 276.142C141.456 276.142 141.522 276.142 141.58 276.135C141.624 276.135 141.771 276.12 141.991 276.098C142.461 276.648 142.93 277.199 143.415 277.735C144.873 279.371 146.355 280.714 147.933 281.837ZM134.261 261.897C134.437 261.413 134.672 260.95 134.907 260.539C136.918 261.097 138.877 261.588 140.815 262.021C137.57 262.198 135.501 262.066 134.261 261.897ZM144.432 270.527C145.151 267.452 146.318 266.058 146.318 266.058C147.037 265.28 147.206 264.135 146.736 263.181C149.745 263.673 152.666 264.003 155.491 264.179C155.498 264.502 155.513 264.876 155.542 265.295C152.557 268.428 147.661 269.882 144.432 270.527ZM131.853 254.279C101.969 244.804 89.324 243.946 84.143 244.489C83.996 242.559 85.082 241.539 85.479 241.238C86 241.223 86.521 241.209 87.027 241.172C87.57 241.084 88.098 240.981 88.627 240.864C89.148 240.761 89.654 240.57 90.146 240.387C90.645 240.189 91.129 239.983 91.599 239.741C89.581 238.992 87.695 238.552 86.102 237.737C84.502 236.974 83.225 236.064 82.366 235C81.463 233.855 80.957 232.497 80.671 230.927C80.671 230.92 80.671 230.92 80.671 230.92L81.574 230.421L82.682 229.805C82.77 229.761 82.843 229.695 82.895 229.607V229.6C84.289 227.699 84.766 225.644 84.95 223.766C85.119 221.88 84.957 220.082 84.693 218.343C84.436 216.604 83.996 214.93 83.504 213.294C82.983 211.657 82.389 210.058 81.655 208.531C81.802 210.219 81.89 211.892 81.912 213.551C81.934 214.344 81.927 215.144 81.897 215.929C76.165 207.695 64.973 183.381 77.134 128.625C77.442 127.231 78.279 126.086 79.394 125.352L79.497 125.381L79.725 125.44L80.004 125.535C80.356 125.616 80.797 125.829 81.193 125.975L82.448 126.584C82.874 126.812 83.299 127.083 83.725 127.333C84.143 127.561 84.569 127.869 84.995 128.148C85.413 128.434 85.846 128.684 86.257 129.007C87.072 129.675 87.938 130.233 88.745 130.922C92.062 133.535 95.211 136.573 98.359 139.619C99.409 140.69 100.495 141.725 101.559 142.797C98.036 142.614 93.662 143.047 89.098 145.087C88.217 145.483 87.63 146.335 87.586 147.303C87.564 147.663 87.241 155.772 94.58 161.137C94.33 162.142 94.213 163.185 94.25 164.227C94.345 166.326 95.123 168.278 96.239 169.775C97.354 171.294 98.727 172.476 100.231 173.378C99.343 171.873 98.602 170.332 98.205 168.806C97.992 168.05 97.875 167.294 97.875 166.575C97.853 165.848 97.926 165.159 98.117 164.505C98.44 163.206 99.166 162.068 100.018 161.012C100.444 160.476 100.913 159.963 101.398 159.456C101.435 159.14 101.457 158.818 101.457 158.502C101.457 156.924 100.973 155.376 100.07 154.069L99.894 153.812C99.578 154.003 99.402 154.113 99.182 154.274C98.977 154.428 98.778 154.582 98.588 154.744C98.199 155.067 97.847 155.412 97.509 155.779C97.311 155.992 97.135 156.227 96.951 156.454C94.03 153.988 93.113 150.943 92.834 149.122C100.613 146.392 107.813 149.232 107.886 149.261C108.598 150.002 109.332 150.736 110.073 151.47L111.277 152.659L112.451 153.87C114.058 155.47 115.651 157.077 117.397 158.596C116.487 156.482 115.438 154.464 114.395 152.424C113.338 150.398 112.135 148.468 110.938 146.524C109.764 144.565 108.413 142.722 107.085 140.858C105.779 138.987 104.289 137.225 102.828 135.449C100.384 132.624 97.801 129.871 94.887 127.398C103.393 130.429 114.005 136.3 124.712 147.602L124.675 147.617L124.602 147.646C124.154 147.815 123.736 148.116 123.406 148.571C122.804 149.378 122.826 150.494 123.369 151.345C125.028 154.192 127.185 156.879 129.952 158.999C132.675 161.149 136.219 162.507 139.713 162.595C143.236 162.676 146.538 161.568 149.327 159.946C152.138 158.324 154.582 156.233 156.549 153.796C154.039 155.653 151.302 157.121 148.484 158.111C145.666 159.08 142.73 159.476 140.044 159.006C137.358 158.492 134.98 157.208 132.991 155.322C131.714 154.14 130.569 152.775 129.512 151.3L141.951 146.691C142.252 146.581 142.545 146.405 142.795 146.177C143.837 145.223 143.91 143.601 142.949 142.552L142.824 142.42L142.611 142.185C142.523 142.09 142.435 141.979 142.339 141.869C142.156 141.649 141.979 141.399 141.803 141.164C141.465 140.665 141.135 140.159 140.849 139.616C140.262 138.537 139.778 137.4 139.425 136.203C139.095 135.014 138.801 133.796 138.713 132.541C138.662 132.196 138.647 131.844 138.64 131.492C140.541 131.786 142.478 132.145 144.372 132.549C147.219 133.151 150.052 133.863 152.841 134.685C155.637 135.507 158.404 136.417 161.112 137.466C163.042 138.178 164.928 138.985 166.792 139.829C166.432 140.629 166.058 141.502 165.809 142.199C166.425 142.419 167.064 142.529 167.695 142.529C169.456 142.529 171.166 141.692 172.23 140.203C172.362 140.02 172.465 139.858 172.531 139.733L172.516 139.726C172.553 139.645 172.597 139.579 172.633 139.498C173.169 138.133 173.881 136.614 174.585 135.19C175.29 133.752 176.053 132.328 176.838 130.911C178.409 128.093 180.148 125.363 181.961 122.684C185.63 117.349 189.792 112.351 194.356 107.786C196.132 105.995 197.989 104.3 199.897 102.656C199.794 102.788 199.691 102.913 199.589 103.045C197.923 105.217 196.558 107.492 195.325 109.804C194.158 112.145 193.057 114.494 192.111 116.879C190.254 121.671 188.625 126.5 187.421 131.439C186.225 136.378 185.344 141.383 184.977 146.484C187.193 142.015 188.999 137.464 190.877 132.966C192.814 132.79 198.187 132.533 203.852 134.448C203.625 136.18 202.993 138.807 201.291 140.334C200.153 141.354 198.627 141.736 196.646 141.494L196.455 143.079C196.227 144.943 197.695 146.58 199.567 146.558C199.567 146.558 199.993 146.492 200.602 146.33C201.218 146.161 202.018 145.904 202.76 145.515C202.789 145.544 202.826 145.574 202.863 145.603C203.054 145.779 203.223 145.963 203.406 146.146C203.538 146.344 203.744 146.506 203.861 146.704C204.419 147.46 204.771 148.238 204.888 149.273C205.049 150.3 204.719 151.526 204.418 152.854L204.066 153.837C203.956 154.175 203.868 154.542 203.714 154.872C203.435 155.547 203.142 156.244 202.892 157.022C203.611 156.692 204.279 156.288 204.962 155.862C205.608 155.407 206.202 154.857 206.804 154.299C207.083 153.998 207.332 153.661 207.597 153.33C207.854 152.992 208.125 152.67 208.309 152.259C208.515 151.863 208.72 151.466 208.903 151.055C209.05 150.615 209.175 150.152 209.285 149.69C209.696 147.804 209.336 145.595 208.309 143.885C208.074 143.437 207.766 143.07 207.472 142.674C207.208 142.388 206.944 142.087 206.665 141.823C209.138 137.875 209.131 132.943 209.131 132.693C209.116 131.666 208.493 130.748 207.546 130.352C201.99 128.033 196.523 127.644 193.052 127.703C194.263 124.745 195.489 121.803 196.861 118.948C198.938 114.515 201.242 110.171 204.06 106.545C204.412 106.097 204.765 105.642 205.139 105.253L205.697 104.629L206.277 104.079C207.048 103.36 207.848 102.721 208.633 102.325C209.418 101.929 210.152 101.709 210.798 101.745C211.128 101.745 211.436 101.833 211.759 101.936C211.913 101.987 212.067 102.061 212.214 102.141C212.265 102.163 212.309 102.192 212.353 102.222C212.492 102.508 212.632 102.787 212.771 103.073C213.512 104.504 214.151 105.987 214.833 107.454C215.449 108.951 216.11 110.434 216.675 111.953C221.35 124.077 224.278 136.913 226.054 149.873C227.603 161.351 228.3 172.954 228.314 184.571C227.463 183.793 226.641 182.986 225.841 182.149C224.366 180.622 222.972 179.008 221.658 177.269C222.238 179.368 223.074 181.423 224.087 183.39C225.107 185.364 226.296 187.243 227.595 189.048C228.923 190.831 230.281 192.615 231.888 194.156C232.688 194.934 233.539 195.646 234.405 196.35C235.043 196.878 235.66 197.377 236.335 197.891C236.408 198.192 236.46 198.5 236.504 198.808C236.599 199.454 236.607 200.1 236.555 200.745C236.474 202.051 236.027 203.321 235.271 204.525C234.508 205.721 233.37 206.763 232.086 207.688C230.794 208.605 229.319 209.347 227.785 210.014C229.451 209.933 231.146 209.698 232.797 209.163C232.922 209.119 233.047 209.068 233.171 209.024C233.516 209.442 233.876 209.919 234.154 210.345C233.295 211.497 232.451 212.664 231.644 213.853C212.886 222.55 199.346 237.668 194.377 243.796C192.168 246.519 189.812 248.845 187.376 250.717C174.419 260.657 155.742 261.853 131.853 254.279ZM162.603 274.05C161.568 272.23 160.798 267.966 160.636 264.319C166.302 264.253 171.556 263.49 176.385 262.015C174.91 264.319 173.009 267.101 170.741 270.051C167.579 272.648 164.306 273.676 162.603 274.05ZM218.856 246.837C218.797 247.329 218.746 247.828 218.695 248.319C195.203 285.358 180.511 294.569 175.271 296.807C174.111 297.299 172.849 297.446 171.624 297.211C165.709 296.088 162.964 292.661 161.709 289.975C161.173 288.837 161.474 287.487 162.458 286.614C174.765 275.672 182.545 262.036 184.313 258.756C186.485 257.611 188.548 256.297 190.5 254.8C193.259 252.679 195.909 250.074 198.367 247.035C202.447 242.015 212.538 230.669 226.563 222.347C222.614 229.951 219.884 238.251 218.856 246.837ZM322.922 156.026C322.915 156.019 322.907 156.019 322.9 156.011C322.643 155.637 322.342 155.306 322.012 154.998C321.763 154.749 321.52 154.499 321.256 154.264C320.984 154.044 320.698 153.838 320.419 153.626C319.296 152.819 318.049 152.166 316.72 151.909C318.569 153.832 319.773 155.967 320.558 158.169C321.343 160.363 321.688 162.646 321.732 164.95C321.717 165.53 321.783 166.095 321.717 166.682L321.592 168.429C321.585 169.009 321.416 169.596 321.35 170.183L321.086 171.93C320.851 172.906 320.653 173.882 320.433 174.866C319.839 174.139 319.288 173.384 318.811 172.591C318.495 172.099 318.253 171.578 317.989 171.064C317.769 170.536 317.505 170.022 317.343 169.479C316.932 168.408 316.734 167.292 316.558 166.176L315.523 166.301C313.197 166.573 311.663 168.943 312.485 171.137C312.485 171.152 312.492 171.166 312.5 171.181C312.698 171.842 312.992 172.451 313.263 173.082C313.263 173.287 313.263 173.522 313.256 173.743C313.249 174.125 313.219 174.521 313.183 174.917C313.11 175.702 312.97 176.48 312.809 177.258C312.457 178.799 311.899 180.267 311.15 181.603C310.798 182.293 310.321 182.887 309.888 183.518C309.374 184.076 308.919 184.685 308.317 185.162C308.097 185.375 307.862 185.566 307.627 185.756C307.59 185.301 307.539 184.846 307.51 184.391C307.4 182.644 307.371 180.905 307.525 179.298C307.635 178.028 306.813 176.744 305.287 176.487C304.296 176.318 303.313 176.81 302.799 177.669L302.784 177.691C302.718 177.786 302.549 178.021 302.417 178.197C302.27 178.388 302.131 178.579 301.969 178.762C301.661 179.136 301.323 179.489 300.978 179.826C300.281 180.494 299.532 181.074 298.754 181.529C298.703 181.558 298.659 181.58 298.615 181.602C298.967 180.861 299.29 180.098 299.576 179.32C299.825 178.659 300.016 177.962 300.214 177.28C300.361 176.568 300.537 175.878 300.596 175.144C300.75 173.713 300.728 172.172 300.134 170.858C299.694 172.208 299.026 173.302 298.336 174.366C297.639 175.43 296.883 176.443 296.09 177.434C295.319 178.432 294.512 179.408 293.719 180.392C292.934 181.361 292.112 182.381 291.429 183.342L291.341 183.445C291.033 183.827 290.827 184.311 290.798 184.854C290.703 186.197 291.759 187.335 293.088 187.525C294.475 187.723 295.921 187.789 297.308 187.488C298.739 187.202 300.119 186.688 301.315 185.984C301.697 185.756 302.071 185.514 302.43 185.257C302.489 186.042 302.547 186.82 302.636 187.591C302.746 188.552 302.863 189.47 303.025 190.475L303.04 190.563C303.084 190.864 303.194 191.172 303.37 191.451C304.06 192.589 305.572 192.926 306.753 192.317C308.529 191.407 310.283 190.38 311.765 188.97C312.572 188.302 313.225 187.48 313.915 186.702C314.517 185.858 315.155 185.029 315.632 184.111C316.469 182.607 317.1 181.014 317.555 179.385C317.878 179.73 318.208 180.068 318.553 180.398C318.825 180.655 319.096 180.904 319.382 181.154C319.683 181.403 319.94 181.616 320.336 181.917H320.343C320.534 182.071 320.754 182.203 320.989 182.291C322.259 182.783 323.682 182.152 324.174 180.889L324.262 180.661C324.445 180.184 324.614 179.7 324.79 179.215C326.096 183.516 327.094 187.904 327.726 192.366C328.284 196.079 328.519 199.83 328.636 203.587C328.702 207.352 328.541 211.109 328.196 214.86C327.462 222.36 325.921 229.787 323.661 237.001C322.538 240.604 321.225 244.156 319.742 247.628C319.008 249.367 318.223 251.077 317.394 252.765C317.042 253.477 316.682 254.181 316.315 254.879C316.22 254.644 316.132 254.402 316.08 254.138C316.051 253.94 316.021 253.734 316.014 253.536C316.007 253.433 316.007 253.338 316.014 253.242C316.007 253.191 316.021 253.088 316.021 253.066L316.014 253.073C315.331 252.838 314.634 252.721 313.944 252.721C311.867 252.721 309.864 253.756 308.697 255.583C307.567 257.352 306.378 259.076 305.086 260.735C304.007 262.254 302.767 263.649 301.6 265.102L299.729 267.179L298.797 268.221L297.814 269.219C292.618 274.576 286.762 279.295 280.487 283.39C274.205 287.485 267.497 290.942 260.555 293.819C257.084 295.25 253.539 296.527 249.958 297.65C248.167 298.215 246.362 298.729 244.549 299.206C243.272 299.536 241.951 299.852 240.674 300.123C235.096 292.681 230.451 284.579 227.361 275.927C227.155 275.355 226.913 274.797 226.745 274.217L226.246 272.47C225.93 271.303 225.534 270.151 225.277 268.969L224.543 265.424C224.484 265.13 224.411 264.837 224.367 264.536L224.25 263.641L224.015 261.85C223.457 257.065 223.332 252.214 223.964 247.436C225.109 237.866 228.551 228.604 233.6 220.297C236.125 216.136 239.031 212.195 242.216 208.496C243.823 206.661 245.482 204.863 247.236 203.168C248.102 202.317 248.99 201.48 249.893 200.673C250.781 199.88 251.75 199.058 252.608 198.383C253.415 197.759 253.826 196.673 253.496 195.58C253.122 194.369 251.874 193.65 250.619 193.804L250.597 193.811L249.577 193.936C249.269 193.914 248.924 193.973 248.645 193.914C248.043 193.877 247.573 193.694 247.141 193.474C246.906 193.349 246.693 193.18 246.503 192.99C246.745 192.909 246.98 192.836 247.222 192.755L249.042 192.168C249.644 191.977 250.253 191.794 250.84 191.53C252.022 191.046 253.203 190.569 254.377 190.07L256.138 189.321L257.841 188.448L261.232 186.665C262.333 186.019 263.404 185.322 264.483 184.647L266.098 183.612C266.619 183.245 267.125 182.856 267.639 182.474C268.652 181.696 269.701 180.962 270.685 180.162C274.604 176.889 278.178 173.212 281.158 169.102C284.101 165 286.574 160.479 287.785 155.606C285.268 159.907 282.222 163.738 278.927 167.275C275.61 170.798 272.028 174.027 268.109 176.801C267.133 177.506 266.113 178.129 265.115 178.797C264.616 179.12 264.124 179.465 263.611 179.773L262.04 180.646C260.991 181.226 259.97 181.842 258.914 182.4L255.663 183.926L254.048 184.704L252.375 185.357C251.252 185.79 250.144 186.245 249.036 186.693C248.486 186.935 247.913 187.104 247.341 187.28L245.624 187.823C244.479 188.183 243.342 188.572 242.204 188.946L242.043 188.997C240.869 189.386 240.135 190.582 240.355 191.837C240.443 192.307 240.516 192.527 240.612 192.842C240.7 193.136 240.81 193.422 240.928 193.693C241.156 194.251 241.456 194.787 241.794 195.308C242.484 196.335 243.431 197.282 244.575 197.921C244.729 198.009 244.891 198.075 245.045 198.156C244.575 198.596 244.106 199.044 243.643 199.499C242.447 200.659 241.302 201.869 240.179 203.095C240.399 202.64 240.59 202.17 240.744 201.686C241.052 200.732 241.228 199.734 241.287 198.728C241.324 198.229 241.309 197.723 241.28 197.216C241.258 196.959 241.236 196.702 241.199 196.438C241.184 196.313 241.155 196.181 241.133 196.042C241.104 195.895 241.089 195.793 241.023 195.558C240.913 195.162 240.693 194.787 240.355 194.501L240.039 194.222C239.283 193.686 238.417 193.04 237.632 192.402L235.269 190.406C234.667 189.9 234.051 189.415 233.427 188.924C233.61 175.663 232.928 162.365 231.145 149.177C230.382 143.57 229.398 137.985 228.158 132.444C228.444 132.18 228.73 131.916 229.039 131.651C229.678 131.079 230.367 130.55 231.043 130C232.43 128.958 233.854 127.945 235.344 127.028C238.309 125.193 241.443 123.586 244.723 122.375C247.996 121.149 251.365 120.137 254.821 119.586C256.531 119.219 258.285 119.102 260.024 118.911C260.89 118.786 261.771 118.808 262.644 118.772L262.908 118.765C262.857 119.337 262.717 119.91 262.409 120.534C262.108 121.194 261.528 121.804 260.919 122.552C260.589 122.897 260.236 123.257 259.877 123.675C259.488 124.042 259.099 124.453 258.695 124.959C259.319 125.157 259.957 125.253 260.596 125.289C260.824 125.304 261.044 125.289 261.264 125.267C261.602 125.23 261.947 125.223 262.284 125.15C263.223 124.922 264.17 124.534 265.036 123.917C266.68 123.682 281.695 122.31 311.183 144.18C311.212 144.202 311.249 144.224 311.278 144.246C311.711 144.54 320.907 150.719 330.528 153.838C329.006 155.153 326.547 156.4 322.922 156.026Z" fill="#66142E"/>
<path d="M158.454 243.375C159.594 247.304 163.567 248.255 165.924 248.467C167.108 248.573 168.297 248.302 169.314 247.685C174.176 244.737 173.635 240.373 173.635 240.373L158.454 243.375Z" fill="#66142E"/>
<path d="M140.576 227.911C138.052 226.179 135.261 224.819 132.34 223.798C129.419 222.794 126.373 222.013 123.268 221.705C121.718 221.492 120.158 221.473 118.597 221.447C117.814 221.407 117.04 221.498 116.263 221.547C115.486 221.601 114.71 221.67 113.937 221.753C112.069 221.96 110.623 223.567 110.668 225.481C110.716 227.503 112.394 229.103 114.416 229.055L114.754 229.047C116.097 229.015 117.431 228.848 118.767 228.803C120.103 228.806 121.446 228.667 122.782 228.762C123.451 228.779 124.127 228.761 124.797 228.805C125.465 228.863 126.134 228.922 126.81 228.958C127.489 228.978 128.152 229.095 128.824 229.177C129.493 229.275 130.175 229.33 130.841 229.463L132.859 229.818L134.861 230.289C136.192 230.63 137.541 230.973 138.879 231.388C141.585 232.175 144.261 233.135 147.056 234.286C145.406 231.708 143.072 229.665 140.576 227.911Z" fill="#66142E"/>
<path d="M206.749 203.526C206.056 201.626 203.954 200.647 202.054 201.34C201.323 201.606 200.597 201.887 199.875 202.181C199.156 202.48 198.421 202.74 197.736 203.121C196.346 203.833 194.955 204.538 193.658 205.413C191.007 207.06 188.619 209.104 186.44 211.294C184.269 213.498 182.364 215.95 180.863 218.618C179.397 221.294 178.204 224.157 177.861 227.198C179.862 224.932 181.839 222.89 183.92 220.99C184.938 220.027 185.997 219.125 187.04 218.231L188.629 216.925L190.284 215.716C190.823 215.303 191.411 214.953 191.968 214.57C192.535 214.2 193.079 213.802 193.679 213.485C194.269 213.155 194.844 212.807 195.418 212.46C196 212.125 196.614 211.844 197.207 211.533C198.365 210.858 199.631 210.39 200.828 209.799C202.048 209.25 203.318 208.811 204.538 208.248L204.858 208.1C206.563 207.304 207.405 205.325 206.749 203.526Z" fill="#66142E"/>
<path opacity="0.3" d="M236.558 200.748C236.477 202.054 236.03 203.324 235.274 204.528C234.511 205.724 233.373 206.766 232.089 207.691C230.797 208.608 229.322 209.35 227.788 210.017C229.454 209.936 231.149 209.701 232.8 209.166C232.925 209.122 233.05 209.071 233.174 209.027C233.519 209.445 233.879 209.922 234.157 210.348C233.298 211.5 232.454 212.667 231.647 213.856C212.889 222.553 199.349 237.671 194.38 243.799C192.171 246.522 189.815 248.848 187.379 250.72C174.418 260.657 155.741 261.853 131.853 254.279C101.969 244.804 89.3239 243.946 84.1429 244.489C83.9959 242.559 85.0819 241.539 85.4789 241.238C85.9999 241.223 86.5209 241.209 87.0269 241.172C87.5699 241.084 88.0979 240.981 88.6269 240.864C89.1479 240.761 89.6539 240.57 90.1459 240.387C90.6449 240.189 91.1289 239.983 91.5989 239.741C89.5809 238.992 87.6949 238.552 86.1019 237.737C84.5019 236.974 83.2249 236.064 82.3659 235C81.4629 233.855 80.9569 232.497 80.6709 230.927C80.6709 230.927 84.5019 237.62 108.258 240.057C132.014 242.494 174.47 272.297 198.776 226.781C223.082 181.265 184.979 146.486 184.979 146.486C185.405 145.627 185.816 144.761 186.219 143.888C187.892 140.263 189.36 136.6 190.879 132.968C191.708 132.895 193.161 132.799 195.003 132.88C197.462 132.968 200.61 133.357 203.854 134.451C203.627 136.183 202.995 138.81 201.293 140.337C200.155 141.357 198.629 141.739 196.648 141.497L196.457 143.082C196.229 144.946 197.697 146.583 199.569 146.561C199.569 146.561 199.995 146.495 200.604 146.333C201.22 146.164 202.02 145.907 202.762 145.518C202.791 145.547 202.828 145.577 202.865 145.606C203.056 145.782 203.225 145.966 203.408 146.149C203.54 146.347 203.746 146.509 203.863 146.707C204.421 147.463 204.773 148.241 204.89 149.276C205.051 150.303 204.721 151.529 204.42 152.857L204.068 153.84C203.958 154.178 203.87 154.545 203.716 154.875C203.437 155.55 203.144 156.247 202.894 157.025C202.894 157.025 214.218 163.065 228.316 184.575C227.465 183.797 226.643 182.99 225.843 182.153C224.368 180.626 222.974 179.012 221.66 177.273C222.24 179.372 223.076 181.427 224.089 183.394C225.109 185.368 226.298 187.247 227.597 189.052C228.925 190.835 230.283 192.619 231.89 194.16C231.963 194.233 232.037 194.307 232.117 194.373C232.851 195.07 233.621 195.716 234.407 196.355C235.045 196.883 235.662 197.382 236.337 197.896C236.41 198.197 236.462 198.505 236.506 198.813C236.602 199.456 236.609 200.102 236.558 200.748Z" fill="#66142E"/>
<path opacity="0.3" d="M224.404 178.864C216.302 165.661 202.894 157.023 202.894 157.023C203.613 156.693 204.281 156.289 204.964 155.863C205.61 155.408 206.204 154.858 206.806 154.3C207.085 153.999 207.334 153.662 207.599 153.331C207.856 152.993 208.127 152.671 208.311 152.26C208.517 151.864 208.722 151.467 208.905 151.056C209.052 150.616 209.177 150.153 209.287 149.691C209.698 147.805 209.338 145.596 208.311 143.886C208.076 143.438 207.768 143.071 207.474 142.675C207.21 142.389 206.946 142.088 206.667 141.824C209.14 137.876 209.133 132.944 209.133 132.694C209.118 131.667 208.495 130.749 207.548 130.353C201.992 128.034 196.525 127.645 193.054 127.704C194.265 124.746 195.491 121.804 196.863 118.949C198.94 114.516 201.244 110.172 204.062 106.546C204.414 106.098 204.767 105.643 205.141 105.254L205.699 104.63L206.279 104.08C207.05 103.361 207.85 102.722 208.635 102.326C209.42 101.93 210.154 101.71 210.8 101.746C211.13 101.746 211.438 101.834 211.761 101.937C203.123 112.278 210.337 119.044 213.009 126.985C214.679 131.948 213.831 136.137 212.961 138.581C212.441 140.041 212.46 141.638 213.066 143.064C214.675 146.849 214.067 150.199 213.25 152.374C212.587 154.141 212.736 156.107 213.725 157.715C218.427 165.36 224.204 178.404 224.404 178.864Z" fill="#66142E"/>
<path opacity="0.3" d="M156.549 153.794C147.977 167.789 132.411 166.3 124.309 159.929C119.683 156.289 119.048 152.958 119.353 150.771C119.666 148.525 119.031 146.259 117.472 144.613C109.982 136.706 95.4248 127.727 94.9028 127.402C102.506 130.11 111.782 135.093 121.308 144.179C122.438 145.258 123.576 146.403 124.713 147.599L124.676 147.614L124.603 147.643C124.155 147.812 123.737 148.113 123.407 148.568C122.805 149.375 122.827 150.491 123.37 151.342C125.029 154.189 127.186 156.876 129.953 158.996C132.676 161.146 136.22 162.504 139.714 162.592C143.237 162.673 146.539 161.565 149.328 159.943C152.138 158.322 154.582 156.23 156.549 153.794Z" fill="#66142E"/>
<path opacity="0.3" d="M100.215 173.359C100.222 173.366 100.23 173.374 100.23 173.374C92.6759 170.837 90.7669 166.025 90.2959 164.08C90.1599 163.519 89.8569 163.01 89.4349 162.616C82.9299 156.546 82.6239 143.828 84.5239 142.162C85.2339 141.537 86.3119 140.974 87.3999 140.51C89.3149 139.693 89.9189 137.269 88.6019 135.656C85.0769 131.339 79.9429 125.678 79.7319 125.445L80.0039 125.533C80.3559 125.614 80.7969 125.827 81.1929 125.973L82.4479 126.582C82.8739 126.81 83.2989 127.081 83.7249 127.331C84.1429 127.559 84.5689 127.867 84.9949 128.146C85.4129 128.432 85.8459 128.682 86.2569 129.005C87.0719 129.673 87.9379 130.231 88.7449 130.92C92.0619 133.533 95.2109 136.571 98.3589 139.617C99.4089 140.688 100.495 141.723 101.559 142.795C98.0359 142.612 93.6619 143.045 89.0979 145.085C88.2169 145.481 87.6299 146.333 87.5859 147.301C87.5639 147.661 87.2409 155.77 94.5799 161.135C94.3299 162.14 94.2129 163.183 94.2499 164.225C94.3449 166.324 95.1229 168.276 96.2389 169.773C97.3529 171.282 98.7179 172.464 100.215 173.359Z" fill="#66142E"/>
<path opacity="0.3" d="M117.396 158.593L106.718 152.061C103.592 149.265 92.833 149.118 92.833 149.118C100.612 146.388 107.481 149.103 107.555 149.133L107.621 148.979C107.65 149.016 107.68 149.045 107.709 149.074C108.48 149.881 109.272 150.674 110.072 151.466L111.276 152.655L112.45 153.866C114.057 155.467 115.649 157.074 117.396 158.593Z" fill="#66142E"/>
<path opacity="0.3" d="M80.1577 213.136C81.2287 210.479 81.6547 208.527 81.6547 208.527C81.8017 210.215 81.8897 211.888 81.9117 213.547C81.9337 214.34 81.9267 215.14 81.8967 215.925C81.3537 215.147 80.7667 214.222 80.1577 213.136Z" fill="#66142E"/>
<path opacity="0.3" d="M108.259 252.891C114.079 254.315 121.197 256.296 129.887 259.041C129.329 260.23 128.86 261.676 128.845 263.232C116.295 258.755 108.259 252.891 108.259 252.891Z" fill="#66142E"/>
<path opacity="0.3" d="M226.562 222.348C222.614 229.951 219.884 238.251 218.856 246.838C218.797 247.33 218.746 247.829 218.695 248.32C204.516 270.674 193.545 282.894 185.919 289.557C180.907 293.931 177.347 295.92 175.27 296.808C174.11 297.3 172.848 297.447 171.623 297.212C165.708 296.089 162.963 292.662 161.708 289.976C161.554 289.646 161.466 289.286 161.451 288.934C176.605 302.593 197.435 269.625 207.303 251.424C208.326 249.537 205.941 247.671 204.342 249.104C196.807 255.857 189.128 260.474 181.56 263.483C182.903 261.311 183.835 259.652 184.312 258.757C186.484 257.612 188.547 256.298 190.499 254.801C193.258 252.68 195.908 250.075 198.366 247.036C202.446 242.016 212.537 230.67 226.562 222.348Z" fill="#66142E"/>
<path opacity="0.3" d="M140.814 262.02C137.57 262.196 135.501 262.064 134.26 261.895C134.436 261.411 134.671 260.948 134.906 260.537C136.917 261.095 138.877 261.587 140.814 262.02Z" fill="#66142E"/>
<path opacity="0.3" d="M155.492 264.178C155.499 264.501 155.514 264.875 155.543 265.294C154.89 265.976 154.149 266.578 153.349 267.107C150.641 266.659 148.432 265.955 146.803 265.294C147.082 264.626 147.067 263.856 146.737 263.18C149.746 263.672 152.667 264.002 155.492 264.178Z" fill="#66142E"/>
<path opacity="0.3" d="M176.386 262.014C175.924 262.733 175.425 263.496 174.889 264.296C169.7 266.41 165.011 267.32 160.923 267.525C160.776 266.453 160.681 265.36 160.637 264.318C166.302 264.253 171.557 263.489 176.386 262.014Z" fill="#66142E"/>
<path opacity="0.3" d="M287.783 155.607C285.266 159.908 282.22 163.739 278.925 167.276C275.608 170.799 272.026 174.028 268.107 176.802C267.131 177.507 266.111 178.13 265.113 178.798C264.614 179.121 264.122 179.466 263.609 179.774L262.038 180.647C260.989 181.227 259.968 181.843 258.912 182.401L255.661 183.927L254.046 184.705L252.373 185.358C251.25 185.791 250.142 186.246 249.034 186.694C248.484 186.936 247.911 187.105 247.339 187.281L245.622 187.824C244.477 188.184 243.34 188.573 242.202 188.947L242.041 188.998C240.867 189.387 240.133 190.583 240.353 191.838C240.441 192.308 240.514 192.528 240.61 192.843C240.698 193.137 240.808 193.423 240.926 193.694C241.154 194.252 241.454 194.788 241.792 195.309C242.482 196.336 243.429 197.283 244.573 197.922C244.727 198.01 244.889 198.076 245.043 198.157C244.573 198.597 244.104 199.045 243.641 199.5C242.445 200.66 241.3 201.87 240.177 203.096C240.397 202.641 240.588 202.171 240.742 201.687C241.05 200.733 241.226 199.735 241.285 198.729C241.322 198.23 241.307 197.724 241.278 197.217C241.256 196.96 241.234 196.703 241.197 196.439C241.182 196.314 241.153 196.182 241.131 196.043C241.102 195.896 241.087 195.794 241.021 195.559C240.911 195.163 240.691 194.788 240.353 194.502L240.037 194.223C239.281 193.687 238.415 193.041 237.63 192.403L235.267 190.407C234.665 189.901 234.049 189.416 233.425 188.925C233.608 175.664 232.926 162.366 231.143 149.178C230.593 145.105 229.917 141.046 229.117 137.01C232.551 150.895 246.311 189.674 287.783 155.607Z" fill="#66142E"/>
<path opacity="0.3" d="M328.199 214.861C327.465 222.361 325.924 229.788 323.664 237.002C322.541 240.605 321.228 244.157 319.745 247.629C319.011 249.368 318.226 251.078 317.397 252.766C317.045 253.478 316.685 254.182 316.318 254.88C316.223 254.645 316.135 254.403 316.083 254.139C316.054 253.941 316.024 253.735 316.017 253.537C316.01 253.434 316.01 253.339 316.017 253.243C316.01 253.192 316.024 253.089 316.024 253.067L316.017 253.074C315.334 252.839 314.637 252.722 313.947 252.722C311.87 252.722 309.867 253.757 308.7 255.584C307.57 257.353 306.381 259.077 305.089 260.736C304.01 262.255 302.77 263.65 301.603 265.103L299.732 267.18L298.8 268.222L297.817 269.22C295.182 271.935 292.379 274.489 289.436 276.874C286.574 279.208 283.587 281.373 280.49 283.391C274.208 287.486 267.5 290.943 260.558 293.82C257.087 295.251 253.542 296.528 249.961 297.651C248.17 298.216 246.365 298.73 244.552 299.207C243.275 299.537 241.954 299.853 240.677 300.124C240.912 300.454 240.435 299.801 240.677 300.124C304.724 288.118 325.529 181.769 313.897 192.8C302.257 203.83 298.331 193.189 298.331 193.189C284.805 193.27 290.801 184.852 290.801 184.852C290.706 186.195 291.762 187.333 293.091 187.523C294.478 187.721 295.924 187.787 297.311 187.486C297.421 187.464 297.524 187.442 297.634 187.413C298.948 187.119 300.21 186.635 301.318 185.982C301.7 185.754 302.074 185.512 302.433 185.255C302.492 186.04 302.55 186.818 302.639 187.589C302.749 188.55 302.866 189.468 303.028 190.473L303.043 190.561C303.087 190.862 303.197 191.17 303.373 191.449C304.063 192.587 305.575 192.924 306.756 192.315C308.532 191.405 310.286 190.378 311.768 188.968C312.575 188.3 313.228 187.478 313.918 186.7C314.52 185.856 315.158 185.027 315.635 184.109C316.472 182.605 317.103 181.012 317.558 179.383C317.881 179.728 318.211 180.066 318.556 180.396C318.828 180.653 319.099 180.902 319.385 181.152C319.686 181.401 319.943 181.614 320.339 181.915H320.346C320.537 182.069 320.757 182.201 320.992 182.289C322.262 182.781 323.685 182.15 324.177 180.887L324.265 180.659C324.448 180.182 324.617 179.698 324.793 179.213C326.099 183.514 327.097 187.902 327.729 192.364C328.287 196.077 328.522 199.828 328.639 203.585C328.705 207.353 328.543 211.111 328.199 214.861Z" fill="#66142E"/>
<path opacity="0.7" d="M156.549 153.796C154.039 155.653 151.302 157.121 148.484 158.111C145.666 159.08 142.73 159.476 140.044 159.006C137.358 158.492 134.98 157.208 132.991 155.322C131.714 154.14 130.569 152.775 129.512 151.3L141.951 146.691C142.252 146.581 142.545 146.405 142.795 146.177C143.837 145.223 143.91 143.601 142.949 142.552L142.824 142.42L142.611 142.185C142.523 142.09 142.435 141.979 142.339 141.869C142.156 141.649 141.979 141.399 141.803 141.164C141.465 140.665 141.135 140.159 140.849 139.616C140.262 138.537 139.778 137.4 139.425 136.203C139.124 135.11 138.845 133.994 138.742 132.842C138.727 132.739 138.72 132.644 138.713 132.541C138.662 132.196 138.647 131.844 138.64 131.492C140.541 131.786 142.478 132.145 144.372 132.549C147.219 133.151 150.052 133.863 152.841 134.685C155.637 135.507 158.404 136.417 161.112 137.466C163.042 138.178 164.928 138.985 166.792 139.829C158.115 136.992 148.629 135.913 144.481 135.554C143.562 135.474 142.966 136.485 143.46 137.264C144.362 138.685 145.244 139.882 146.068 140.884C148.07 143.318 147.163 146.986 144.229 148.136L135.428 151.587C134.757 151.85 134.52 152.669 134.927 153.264C141.097 162.28 156.549 153.796 156.549 153.796Z" fill="white"/>
<path opacity="0.7" d="M149.115 283.231C149.108 283.253 148.697 285.469 140.14 288.427C135.891 289.895 131.443 287.7 127.194 283.62C119.451 276.178 112.369 262.447 108.355 253.105C109.888 256.393 128.165 299.659 149.115 283.231Z" fill="white"/>
<path opacity="0.7" d="M281.156 169.105C284.099 165.003 286.572 160.482 287.783 155.609C285.735 176.877 256.571 191.856 256.571 191.856C256.635 191.882 256.699 191.909 256.761 191.937C260.078 193.393 260.677 197.822 257.944 200.201C204.671 246.572 238.712 297.3 240.594 300.01C240.374 299.724 240.161 299.445 239.956 299.151H239.949C234.694 291.981 230.32 284.209 227.363 275.931C227.157 275.359 226.915 274.801 226.747 274.221L226.248 272.474C225.932 271.307 225.536 270.155 225.279 268.973L224.545 265.428C224.486 265.134 224.413 264.841 224.369 264.54L224.252 263.645L224.017 261.854C223.459 257.069 223.334 252.218 223.966 247.44C224.575 242.332 225.837 237.327 227.65 232.491C227.914 231.786 228.193 231.089 228.479 230.392C229.917 226.906 231.635 223.53 233.602 220.301C236.127 216.14 239.033 212.199 242.218 208.5C243.825 206.665 245.484 204.867 247.238 203.172C248.104 202.321 248.992 201.484 249.895 200.677C250.783 199.884 251.752 199.062 252.61 198.387C253.417 197.763 253.828 196.677 253.498 195.584C253.124 194.373 251.876 193.654 250.621 193.808L250.599 193.815L249.579 193.94C249.271 193.918 248.926 193.977 248.647 193.918C248.045 193.881 247.575 193.698 247.143 193.478C246.908 193.353 246.695 193.184 246.505 192.994C246.747 192.913 246.982 192.84 247.224 192.759L249.044 192.172C249.646 191.981 250.255 191.798 250.842 191.534C252.024 191.05 253.205 190.573 254.379 190.074L256.14 189.325L257.843 188.452L261.234 186.669C262.335 186.023 263.406 185.326 264.485 184.651L266.1 183.616C266.621 183.249 267.127 182.86 267.641 182.478C268.654 181.7 269.703 180.966 270.687 180.166C274.602 176.891 278.177 173.215 281.156 169.105Z" fill="white"/>
<path opacity="0.7" d="M321.594 168.43C321.587 169.01 321.418 169.597 321.352 170.184L321.088 171.931C320.897 172.716 320.736 173.502 320.56 174.294C320.523 174.485 320.479 174.676 320.435 174.866C319.195 134.994 265.034 123.919 265.034 123.919C266.678 123.684 281.693 122.312 311.181 144.182C311.21 144.204 311.247 144.226 311.276 144.248C311.709 144.542 320.905 150.721 330.526 153.84C329.007 155.154 326.548 156.401 322.923 156.027C322.916 156.02 322.908 156.02 322.901 156.012C322.644 155.638 322.343 155.307 322.013 154.999C321.764 154.75 321.521 154.5 321.257 154.265C320.985 154.045 320.699 153.839 320.42 153.627C319.297 152.82 318.05 152.167 316.721 151.91C318.57 153.833 319.774 155.968 320.559 158.17C321.344 160.364 321.689 162.647 321.733 164.951C321.718 165.531 321.784 166.096 321.718 166.683L321.594 168.43Z" fill="white"/>
<defs>
<linearGradient id="paint0_linear_301_8799" x1="108.259" y1="270.888" x2="149.115" y2="270.888" gradientUnits="userSpaceOnUse">
<stop stop-color="#FF7F00"/>
<stop offset="0.1889" stop-color="#FC7707"/>
<stop offset="0.4858" stop-color="#F4601B"/>
<stop offset="0.8516" stop-color="#E83C3C"/>
<stop offset="1" stop-color="#E22B4B"/>
</linearGradient>
<linearGradient id="paint1_linear_301_8799" x1="161.448" y1="259.834" x2="226.562" y2="259.834" gradientUnits="userSpaceOnUse">
<stop stop-color="#FF7F00"/>
<stop offset="0.1889" stop-color="#FC7707"/>
<stop offset="0.4858" stop-color="#F4601B"/>
<stop offset="0.8516" stop-color="#E83C3C"/>
<stop offset="1" stop-color="#E22B4B"/>
</linearGradient>
<linearGradient id="paint2_linear_301_8799" x1="328.225" y1="214.846" x2="222.859" y2="207.401" gradientUnits="userSpaceOnUse">
<stop stop-color="#FF7F00"/>
<stop offset="0.1889" stop-color="#FC7707"/>
<stop offset="0.4858" stop-color="#F4601B"/>
<stop offset="0.8516" stop-color="#E83C3C"/>
<stop offset="1" stop-color="#E22B4B"/>
</linearGradient>
<linearGradient id="paint3_linear_301_8799" x1="135.065" y1="160.345" x2="208.832" y2="233.149" gradientUnits="userSpaceOnUse">
<stop stop-color="#FF7F00"/>
<stop offset="0.1889" stop-color="#FC7707"/>
<stop offset="0.4858" stop-color="#F4601B"/>
<stop offset="0.8516" stop-color="#E83C3C"/>
<stop offset="1" stop-color="#E22B4B"/>
</linearGradient>
</defs>
</svg>
