<svg width="146" height="42" viewBox="0 0 146 42" fill="none" xmlns="http://www.w3.org/2000/svg">
<path d="M15.9998 14.3333L9.33317 7.66663H18.2221L22.6665 12.1111V21L15.9998 14.3333Z" fill="white"/>
<path d="M9.33317 21L15.9998 14.3333L7.11095 14.3333L2.6665 18.7777V27.6666L9.33317 21Z" fill="white"/>
<path d="M15.9998 27.6666L22.6665 21L29.3332 14.3333L29.3332 23.2222L24.8887 27.6666H15.9998Z" fill="white"/>
<path d="M15.9998 27.6666L9.33317 21V29.8888L13.7776 34.3333H22.6665L15.9998 27.6666Z" fill="white"/>
<path d="M61.1193 12.8423H56.7863L50.4559 19.4745H49.1959V12.8423H46V21.0493V29.2867H49.1959V22.6241H50.7939H51.0398L57.6161 29.2867H62.0105L53.5597 20.6859L61.1193 12.8423Z" fill="#E1E1E6"/>
<path d="M145.285 12.8107H141.816V24.3767L133.72 12.8107H133.628H130.432V21.0176V29.2551H133.628V18.0154L142.048 29.2551H145.285V12.8107Z" fill="#E1E1E6"/>
<path d="M112.809 26.1358V22.6228L126.331 22.4713V19.4732V15.9602C126.331 14.234 124.917 12.8107 123.134 12.8107H117.972H112.809C111.057 12.8107 109.613 14.2037 109.613 15.9602V21.048V26.1358C109.613 27.862 111.026 29.2853 112.809 29.2853L126.331 29.1339V26.1358H112.809ZM112.809 15.9602H117.972H123.134V19.4732H119.569H112.809V15.9602Z" fill="#E1E1E6"/>
<path d="M78.5154 12.8423L64.9937 12.9937V15.9918H78.5154V19.5049L64.9937 19.6563V22.6544V26.1673C64.9937 27.8935 66.4082 29.3169 68.1905 29.3169H73.3524H78.5154C80.2677 29.3169 81.7111 27.9239 81.7111 26.1673V21.0796V15.9918C81.6811 14.2354 80.2677 12.8423 78.5154 12.8423ZM78.5154 26.137H73.3524H68.1905V22.6241H78.5154V26.137Z" fill="#E1E1E6"/>
<path d="M88.7939 12.8107L85.3241 12.8857V29.3734L88.7939 29.2896V12.8107Z" fill="#E1E1E6"/>
<path d="M106.708 22.4386C106.708 20.7124 105.294 19.289 103.512 19.289H99.486H95.4598V15.776H106.708V12.7779L95.4598 12.6265C93.7088 12.6265 92.2642 14.0195 92.2642 15.776V19.289C92.2642 21.0152 93.6775 22.4386 95.4598 22.4386H99.486H103.512V25.9516H92.2642V28.9497L103.512 29.1011C105.263 29.1011 106.708 27.708 106.708 25.9516V22.4386Z" fill="#E1E1E6"/>
</svg>
